<svg xmlns="http://www.w3.org/2000/svg" width="66" height="90" baseProfile="tiny" version="1.2"><path fill="#eaa" d="M23 10h1v1h-1zm1 0h1v1h-1zm2 1h1v1h-1zm13 0h1v1h-1zm-6 2h1v1h-1zm9 9h1v1h-1zm-10 1h1v1h-1zm-12 7h1v1h-1zm18 0h1v1h-1zm-4 2h1v1h-1zm2 0h1v1h-1zm-7 1h1v1h-1zm0 11h1v1h-1zm13 1h1v1h-1zm-20 6h1v1h-1zm10 0h1v1h-1zm-5 12h1v1h-1zm3 4h1v1h-1zm6 7h1v1h-1zm3 0h1v1h-1z"/><path fill="#d88" d="M21 11h1v1h-1zm2 0h1v1h-1zm1 0h1v1h-1zm18 0h1v1h-1zm-5 1h1v1h-1zm-2 1h1v1h-1zm-14 1h1v1h-1zm-1 3h1v1h-1zm13 4h1v1h-1zm4 1h1v1h-1zm-6 7h1v1h-1zm7 2h1v1h-1zm4 1h1v1h-1zM32 55h1v1h-1zm-5 5h1v1h-1zm1 1h1v1h-1z"/><path fill="#a12" d="M41 12h1v1h-1zm1 0h1v1h-1zm1 0h1v1h-1zm-18 1h1v1h-1zm-1 1h1v1h-1zm7 0h1v1h-1zm5 0h1v1h-1zm-13 1h1v1h-1zm11 0h1v1h-1zm-12 2h1v1h-1zm12 0h1v1h-1zm2 1h1v1h-1zm-15 1h1v1h-1zm15 0h1v1h-1zm-1 4h1v1h-1zm-1 1h1v1h-1zm6 0h1v1h-1zm-9 1h1v1h-1zm1 0h1v1h-1zm1 0h1v1h-1zm7 0h1v1h-1zm1 0h1v1h-1zm0 1h1v1h-1zm0 1h1v1h-1zm-8 1h1v1h-1zm8 0h1v1h-1zm-8 1h1v1h-1zm8 0h1v1h-1zm-10 4h1v1h-1zm4 0h1v1h-1zm-14 2h1v1h-1zm1 0h1v1h-1zm27 0h1v1h-1zM21 54h1v1h-1zm2 4h1v1h-1zm22 8h1v1h-1zm-25 7h1v1h-1z"/><path fill="#b34" d="M44 12h1v1h-1zm-9 3h1v1h-1zM20 34h1v1h-1zm11 13h1v1h-1zM19 70h1v1h-1z"/><path fill="#999" d="M0 3h1v1H0zm65 0h1v1h-1zM0 4h1v1H0zm65 0h1v1h-1zM3 88h1v1H3zm59 0h1v1h-1z"/><path fill="#c55" d="M24 12h1v1h-1zm18 11h1v1h-1zm-22 1h1v1h-1zm11 6h1v1h-1z"/><path fill="#daa" d="M36 24h1v1h-1zm-16 2h1v1h-1zm0 1h1v1h-1zm16 33h1v1h-1zm-15 8h1v1h-1z"/><path fill="#923" d="M34 27h1v1h-1zm-19 1h1v1h-1zm9 19h1v1h-1zm14 8h1v1h-1zm-1 2h1v1h-1z"/><path fill="#902" d="M32 47h1v1h-1zM22 75h1v1h-1z"/><path fill="#e99" d="M40 11h1v1h-1zM26 44h1v1h-1zm11 5h1v1h-1zm-2 4h1v1h-1zm-7 4h1v1h-1zm13 7h1v1h-1zm-22 1h1v1h-1zm1 0h1v1h-1zm7 3h1v1h-1z"/><path fill="#933" d="M33 15h1v1h-1zm11 19h1v1h-1zM25 61h1v1h-1z"/><path fill="#c88" d="M20 25h1v1h-1zm23 0h1v1h-1zm9 12h1v1h-1z"/><path fill="#b02" d="M38 44h1v1h-1zm-14 2h1v1h-1zm1 0h1v1h-1zm1 0h1v1h-1zm13 5h1v1h-1zm-3 1h1v1h-1zm2 0h1v1h-1zm-1 1h1v1h-1zm-15 1h1v1h-1zm1 0h1v1h-1zm14 0h1v1h-1zm-14 1h1v1h-1zm4 0h1v1h-1zm1 0h1v1h-1zm1 0h1v1h-1zm1 0h1v2h-1zm-7 1h1v1h-1zm6 0h1v1h-1zm7 0h1v1h-1zm-12 2h1v1h-1zm6 0h1v1h-1zm1 0h1v1h-1zm3 0h1v1h-1zm-9 1h1v1h-1zm4 0h1v1h-1zm0 2h1v1h-1zm0 3h1v1h-1zm-5 1h1v1h-1zm5 0h1v1h-1zm-8 1h1v1h-1zm7 0h1v1h-1zm14 0h1v1h-1zm2 0h1v1h-1zm-25 1h1v1h-1zm24 0h1v1h-1zm-14 1h1v1h-1zm6 0h1v1h-1zm8 0h1v1h-1zm-23 1h1v1h-1zm0 1h1v1h-1zm22 0h1v1h-1zm-22 1h1v1h-1zm22 0h1v1h-1zm-22 1h1v1h-1zm1 1h1v1h-1zm20 1h1v1h-1z"/><path fill="#dab" d="M41 46h1v1h-1zm-18 2h1v1h-1z"/><path fill="#b56" d="M26 14h1v1h-1zm6 12h1v1h-1zm12 43h1v1h-1zm-24 5h1v1h-1zm16 2h1v1h-1z"/><path fill="#b23" d="M22 15h1v1h-1zm-1 2h1v1h-1zm14 4h1v1h-1zm-1 2h1v1h-1zm7 1h1v1h-1zm-20 1h1v1h-1zm-5 1h1v1h-1zm6 0h1v1h-1zm11 4h1v1h-1zm7 0h1v1h-1zm-19 1h1v1h-1zm0 2h1v1h-1zm4 19h1v1h-1zm5 12h1v1h-1z"/><path fill="#d45" d="M36 40h1v1h-1zm-4 4h1v1h-1zm-6 1h1v1h-1zm4 5h1v1h-1zm6 0h1v1h-1zm3 0h1v1h-1zm-6 4h1v1h-1zm-5 9h1v1h-1zm4 0h1v1h-1zm2 0h1v1h-1zm-9 1h1v1h-1zm17 0h1v1h-1zm-25 2h1v1h-1zm18 1h1v1h-1zm0 7h1v1h-1zm5 0h1v1h-1zm-3 1h1v1h-1z"/><path fill="#c13" d="M39 44h1v1h-1zm-11 1h1v1h-1zm0 6h1v1h-1zm-5 2h1v1h-1zm6 0h1v1h-1zm6 4h1v1h-1zm-12 8h1v1h-1zm18 5h1v1h-1z"/><path fill="#a34" d="M42 27h1v1h-1zm-22 8h1v1h-1zm6 25h1v1h-1zm16 14h1v1h-1z"/><path fill="#fdd" d="M41 10h1v1h-1zm-6 2h1v1h-1zm-7 1h1v1h-1zm5 5h1v1h-1zm-15 3h1v1h-1zm-1 2h1v1h-1zm10 0h1v1h-1zm-4 4h1v1h-1zm0 1h1v1h-1zm0 2h1v1h-1zm0 1h1v1h-1zm0 1h1v1h-1zm21 0h1v1h-1zm1 0h1v1h-1zm1 0h1v1h-1zm-22 1h1v1h-1zm3 0h1v1h-1zm6 5h1v1h-1zm-9 4h1v1h-1zm10 9h1v1h-1zm-1 2h1v1h-1zm-1 4h1v1h-1zm1 0h1v1h-1zm-7 6h1v1h-1zm-4 1h1v1h-1zm11 0h1v1h-1zm5 0h1v1h-1zm-6 2h1v1h-1zm-6 2h1v1h-1zm11 0h1v1h-1zm0 6h1v1h-1z"/><path fill="#d99" d="M41 11h1v1h-1zm-7 2h1v1h-1zm-1 7h1v1h-1zm7 2h1v1h-1zm1 0h1v1h-1zm2 1h1v1h-1zm-15 2h1v1h-1zm-15 4h1v1h-1zm1 0h1v1h-1zm6 2h1v1h-1zm27 2h1v1h-1zm3 1h1v1h-1zm-26 1h1v1h-1zm2 26h1v1h-1zm-7 10h1v1h-1z"/><path fill="#b12" d="M22 12h1v1h-1zm18 0h1v1h-1zm-18 1h1v1h-1zm1 0h1v2h-1zm1 0h1v1h-1zm13 0h1v1h-1zm-5 1h1v1h-1zm-10 2h1v1h-1zm13 0h1v1h-1zm1 1h1v1h-1zm-15 1h1v1h-1zm13 0h1v1h-1zm0 1h2v1h-2zm-14 1h1v1h-1zm0 1h1v1h-1zm22 3h1v1h-1zm-21 2h1v1h-1zm19 0h1v1h-1zm-19 1h1v1h-1zm1 0h1v1h-1zm18 0h1v1h-1zm-19 1h1v1h-1zm1 0h1v2h-1zm10 0h1v1h-1zm7 0h1v1h-1zm1 0h1v1h-1zm-19 1h1v1h-1zm18 0h1v1h-1zm1 0h1v1h-1zm-18 1h1v1h-1zm19 0h1v1h-1zm-3 2h1v1h-1zm5 1h1v1h-1zm-22 1h2v1h-2zm8 0h1v1h-1zm18 0h1v1h-1zM32 45h1v1h-1zm-4 7h1v1h-1zm3 3h1v1h-1zm-3 10h1v1h-1z"/><path fill="#c77" d="M29 14h1v1h-1zm8 4h1v1h-1zm2 7h1v1h-1zm-5 3h1v1h-1zm8 0h1v1h-1zM21 55h1v1h-1z"/><path fill="#caa" d="M39 14h1v1h-1zM16 28h1v1h-1zm33 9h1v1h-1zm-28 1h1v1h-1z"/><path fill="#944" d="M24 17h1v1h-1z"/><path fill="#ddd" d="M3 0h1v1H3zm1 0h1v1H4zm1 0h56v1H5zm56 0h1v1h-1zm1 0h1v1h-1zM2 1h1v1H2zm61 0h1v1h-1zM1 6h1v1H1zm63 0h1v1h-1zM1 7h1v1H1zm63 0h1v1h-1zM1 8h1v1H1zm63 0h1v1h-1zM1 9h1v73H1zm63 0h1v73h-1zM1 82h1v1H1zm63 0h1v1h-1zM1 83h1v1H1zm63 0h1v1h-1zM2 84h1v1H2zm61 0h1v1h-1zM3 85h1v1H3zm1 0h1v1H4zm1 0h1v1H5zm1 0h1v1H6zm1 0h2v1H7zm50 0h2v1h-2zm2 0h1v1h-1zm1 0h1v1h-1zm1 0h1v1h-1zm1 0h1v1h-1z"/><path fill="#d89" d="M22 10h1v1h-1zm21 1h1v1h-1zm-1 35h1v1h-1zm4 19h1v1h-1z"/><path fill="#fde" d="M25 33h1v1h-1zm7 10h1v1h-1zm3 9h1v1h-1zm-1 3h1v1h-1zM20 75h1v1h-1z"/><path fill="#a67" d="M43 34h1v1h-1z"/><path fill="#c89" d="M39 24h1v1h-1zM27 71h1v1h-1zm15 4h1v1h-1z"/><path fill="#b66" d="M18 26h1v1h-1z"/><path fill="#a44" d="M39 45h1v1h-1zM18 68h1v1h-1zm18 3h1v1h-1z"/><path fill="#c33" d="M35 14h1v1h-1zm-15 4h1v1h-1zm14 3h1v1h-1zm-14 1h1v1h-1zm-1 1h1v1h-1zm1 0h1v1h-1zm19 7h1v1h-1zm-17 2h1v1h-1zm10 0h1v1h-1z"/><path fill="#b44" d="M37 17h1v1h-1z"/><path fill="#912" d="M34 16h1v1h-1zm6 29h1v1h-1zm-1 8h1v1h-1zm-17 3h1v1h-1zm10 12h1v1h-1zm2 0h1v1h-1zm-13 7h1v1h-1z"/><path fill="#dbb" d="M23 19h1v1h-1zm19 10h1v1h-1zm-7 5h1v1h-1zm6 0h1v1h-1zm-7 12h1v1h-1zm-1 1h1v1h-1z"/><path fill="#d66" d="M17 24h1v1h-1zm34 11h1v1h-1zm-16 5h1v1h-1zm-16 6h1v1h-1zm10 4h1v1h-1zm-6 2h1v1h-1zm15 23h1v1h-1z"/><path fill="#955" d="M33 34h1v1h-1z"/><path fill="#a02" d="M20 47h1v1h-1z"/><path fill="#945" d="M22 48h1v1h-1z"/><path fill="#ccc" d="M1 0h1v1H1zm1 0h1v1H2zm61 0h1v1h-1zm1 0h1v1h-1zM1 2h1v1H1zm63 0h1v1h-1zM1 84h1v1H1zm63 0h1v1h-1zM2 85h1v1H2zm61 0h1v1h-1zM4 86h1v1H4zm1 0h1v1H5zm1 0h1v1H6zm1 0h52v1H7zm52 0h1v1h-1zm1 0h1v1h-1zm1 0h1v1h-1z"/><path fill="#c44" d="M23 12h1v1h-1zm16 0h1v1h-1zm-5 2h1v1h-1zm-13 1h1v1h-1zm-2 7h1v1h-1zm15 0h1v1h-1zm-16 1h1v1h-1zm22 0h1v1h-1zm-25 4h1v1h-1zm15 6h1v1h-1zm14 0h1v1h-1z"/><path fill="#711" d="M39 13h1v1h-1zm1 0h1v1h-1zm-2 20h1v1h-1zm1 0h2v1h-2zm2 0h1v1h-1zm-10 1h1v1h-1zm16 1h1v1h-1zm2 1h1v1h-1zm-27 1h1v1h-1z"/><path fill="#c56" d="M19 20h1v1h-1zm19 2h1v1h-1zm-5 1h1v1h-1zm-4 1h1v1h-1zm3 0h1v1h-1zm-12 9h1v1h-1zm28 1h1v1h-1zM27 47h1v1h-1zm0 1h1v1h-1zm0 4h1v1h-1z"/><path fill="#934" d="M21 48h1v1h-1zm3 12h1v1h-1zm-2 16h1v1h-1zm19 1h1v1h-1z"/><path fill="#c45" d="M22 11h1v1h-1zm9 20h1v1h-1zm1 0h1v1h-1zm9 0h1v1h-1zm-10 1h1v1h-1zm-7 2h1v1h-1zm4 0h1v1h-1zm-6 40h1v1h-1zm13 1h1v1h-1z"/><path fill="#c34" d="M25 12h1v1h-1zm1 0h1v1h-1zm-7 9h1v1h-1zm9 3h1v1h-1zm5 0h1v1h-1zm-1 6h1v1h-1zm3 11h1v1h-1zm1 0h1v1h-1zm4 3h1v1h-1zm-13 1h1v1h-1zm3 0h1v1h-1zm1 5h1v1h-1zm4 0h1v1h-1zm-6 1h1v1h-1zm7 0h1v1h-1zm-6 2h1v1h-1zm-4 2h1v1h-1zm5 8h1v1h-1zm9 0h1v1h-1zm3 2h1v1h-1zm1 0h1v1h-1zm-26 1h1v1h-1zm2 0h1v1h-1zm8 1h1v1h-1zm1 0h1v1h-1zm3 0h1v1h-1zm2 0h1v1h-1zm7 1h1v1h-1zm-15 1h1v1h-1zm-5 1h1v1h-1zm19 3h1v1h-1z"/><path fill="#911" d="M38 13h1v1h-1zm-13 1h1v1h-1zm-1 1h1v1h-1zm-1 1h1v1h-1zm-1 2h1v1h-1zm-1 2h1v1h-1zm15 3h1v1h-1zm-18 2h1v1h-1zm11 0h1v1h-1zm1 0h1v1h-1zm4 0h1v1h-1zm-17 1h1v1h-1zm16 0h1v1h-1zm1 0h1v1h-1zm8 0h1v1h-1zm-26 1h1v1h-1zm17 0h1v1h-1zm6 5h1v1h-1zm1 0h1v1h-1zm-8 1h1v1h-1zm1 0h1v1h-1zm1 0h1v1h-1zm2 0h1v1h-1zm6 0h1v1h-1zm-12 1h1v1h-1zm16 0h1v1h-1zm-21 1h1v1h-1zm1 0h1v1h-1zm25 1h1v1h-1z"/><path fill="#822" d="M37 14h1v1h-1zm-14 4h1v1h-1zm6 17h1v1h-1z"/><path fill="#811" d="M25 15h1v1h-1zm-1 1h1v1h-1zm-1 1h1v1h-1zm-1 2h1v1h-1zm15 14h1v1h-1zm8 1h1v1h-1zm-18 1h1v1h-1zm1 0h1v1h-1zm20 0h1v1h-1zm-27 1h1v1h-1zm1 0h1v1h-1zm28 0h1v1h-1zm-29 1h1v1h-1z"/><path fill="#722" d="M32 34h1v1h-1zm16 2h1v1h-1z"/><path fill="#d67" d="M38 12h1v1h-1zm-2 9h1v1h-1zm-9 13h1v1h-1zm4 10h1v1h-1zm0 1h1v1h-1zm-4 4h1v1h-1zm3 0h1v1h-1zm7 1h1v1h-1zm1 0h1v1h-1zm2 1h1v1h-1zm-16 4h1v1h-1zm4 1h1v1h-1zm2 6h1v1h-1zm11 1h1v1h-1zm-7 3h1v1h-1zm2 1h1v1h-1zm-15 2h1v1h-1z"/><path fill="#a66" d="M42 13h1v1h-1zm-4 1h1v1h-1zm0 31h1v1h-1zm1 33h1v1h-1z"/><path fill="#b78" d="M35 70h1v1h-1z"/><g fill="#fff"><path d="M4 1h1v1H4zm1 0h1v1H5zm1 0h54v1H6zm54 0h1v1h-1zm1 0h1v1h-1zM3 2h1v1H3zm1 0h1v1H4zm1 0h56v1H5zm56 0h1v1h-1zm1 0h1v1h-1zM2 3h1v1H2zm1 0h1v1H3zm1 0h2v1H4zm2 0h54v1H6zm54 0h2v1h-2zm2 0h1v1h-1zm1 0h1v1h-1zM2 4h1v2H2zm1 0h1v3H3zm1 0h1v1H4zm1 0h56v6H5zm56 0h1v1h-1zm1 0h1v3h-1zm1 0h1v2h-1z"/><path d="M4 5h58v2H4zM3 7h1v1H3zm1 0h1v1H4zm57 0h1v1h-1zm1 0h1v1h-1zM3 8h1v73H3zm1 0h1v73H4zm57 0h1v74h-1zm1 0h1v73h-1zM5 10h15v8H5zm21 0h1v1h-1zm1 0h12v1H27zm12 0h1v1h-1zm4 0h18v1H43zm-23 1h1v4h-1zm7 0h10v1H27zm18 0h16v1H45zm-18 1h7v1h-7zm7 0h1v1h-1zm12 0h15v20H46zm-19 1h1v10h-1z"/><path d="M41 14h20v7H41zm-21 1h1v1h-1zm8 0h2v8h-2zm2 0h1v1h-1zm7 0h1v1h-1z"/><path d="M38 15h23v6H38zm-12 1h7v7h-7zm7 0h1v1h-1zm-8 1h1v1h-1zm8 0h1v1h-1zM5 18h14v3H5zm14 0h1v1h-1z"/><path d="M25 18h8v5h-8z"/><path d="M24 19h9v4h-9z"/><path d="M23 20h10v3H23zm14 0h1v1h-1zM5 21h13v2H5zm17 0h1v1h-1zm15 0h1v1h-1zm1 0h1v1h-1zm4 0h1v1h-1zm1 0h18v1H43z"/><path d="M22 22h11v1H22zm21 0h1v1h-1zm1 0h17v2H44zM5 23h12v1H5zm17 0h5v1h-5zm7 0h1v1h-1zm1 0h1v1h-1zM5 24h11v2H5zm11 0h1v1h-1zm7 0h4v2h-4zm14 0h1v1h-1zm1 0h1v4h-1zm7 0h16v8H45zm-18 1h1v8h-1z"/><path d="M36 25h3v3h-3zm8 0h17v7H44zM5 26h10v1H5zm14 0h1v1h-1zm5 0h4v7h-4zm4 0h1v1h-1zM5 27h9v1H5zm9 0h1v1h-1zm4 0h1v1h-1zm1 0h1v19h-1zm9 0h3v4h-3zm3 0h1v1h-1zm4 0h1v1h-1z"/><path d="M43 27h18v5H43zM5 28h8v54H5zm8 0h1v1h-1zm4 0h3v18h-3zm18 0h3v4h-3zm-20 1h1v1h-1z"/><path d="M16 29h4v17h-4z"/><path d="M13 30h7v16h-7zm21 0h1v1h-1zm-6 1h2v2h-2zm6 0h4v1h-4zm8 0h19v1H42zm6 1h1v1h-1zm1 0h12v1H49zm1 1h1v1h-1zm1 0h10v1H51zm-13 1h1v1h-1zm13 0h1v1h-1zm1 0h9v1h-9zm-20 1h1v1h-1zm1 0h12v3H33zm19 0h1v1h-1zm1 0h8v47h-8zm-30 1h1v2h-1zm1 0h1v1h-1zm5 0h1v1h-1z"/><path d="M30 36h17v2H30z"/><path d="M24 37h24v1H24zm24 0h1v1h-1zm-28 1h1v8h-1zm3 0h1v1h-1zm1 0h7v4h-7zm10 0h1v1h-1zm1 0h1v1h-1zm1 0h25v1H36z"/><path d="M21 39h11v2H21zm16 0h24v1H37zm-5 1h1v1h-1zm5 0h1v1h-1zm1 0h23v3H38zm-17 1h1v5h-1zm1 0h1v1h-1zm9 0h2v2h-2zm6 0h1v1h-1zm-15 1h1v1h-1z"/><path d="M25 42h8v1h-8zm12 0h24v1H37zm-15 1h1v2h-1zm4 0h1v1h-1zm1 0h5v1h-5zm14 0h1v1h-1zm1 0h19v2H42zm-19 1h1v1h-1zm-1 1h1v1h-1zm21 0h18v17H43zm-30 1h4v38h-4zm16 0h1v1h-1zm1 0h1v1h-1zm5 0h5v1h-5zm5 0h1v1h-1zm-23 1h1v18h-1zm1 0h1v1h-1zm10 0h2v2h-2zm2 0h1v1h-1zm4 0h3v1h-3zm3 0h1v1h-1z"/><path d="M38 47h23v1H38zm-20 1h2v16h-2zm6 0h1v1h-1zm9 0h3v1h-3zm3 0h1v1h-1zm3 0h1v1h-1zm1 0h21v1H40zm-20 1h5v1h-5zm8 0h1v1h-1zm4 0h1v1h-1zm1 0h1v1h-1zm1 0h1v1h-1zm6 0h1v1h-1zm1 0h20v13H41zm-21 1h2v1h-2zm2 0h1v1h-1zm1 0h3v1h-3zm-3 1h1v1h-1zm15 0h1v1h-1zm-3 1h3v1h-3zm-7 1h3v1h-3zm9 0h1v1h-1zm6 0h1v1h-1zm-15 1h1v1h-1zm1 0h1v1h-1z"/><path d="M40 54h21v8H40zm-20 1h1v9h-1zm19 0h1v1h-1zm-14 1h1v1h-1zm1 0h1v1h-1zm6 0h2v1h-2z"/><path d="M39 56h22v6H39zm-18 1h1v7h-1zm5 0h2v1h-2zm12 0h1v1h-1z"/><path d="M38 58h23v4H38zm-16 1h1v5h-1zm15 0h1v1h-1zm-14 1h1v1h-1zm8 0h1v1h-1zm1 0h1v3h-1zm1 0h1v1h-1z"/><path d="M37 60h24v2H37zm-14 1h1v3h-1zm4 0h1v2h-1zm4 0h4v2h-4z"/><path d="M36 61h25v1H36zm-12 1h1v2h-1zm1 0h1v1h-1zm1 0h1v1h-1zm9 0h3v1h-3zm3 0h1v1h-1zm1 0h1v1h-1zm1 0h1v1h-1zm1 0h1v1h-1zm2 0h1v1h-1zm1 0h17v1H44zm-19 1h1v1h-1zm20 0h1v1h-1zm1 0h15v1H46zm-28 1h1v1h-1zm2 0h1v1h-1zm1 0h1v1h-1zm14 0h1v1h-1zm1 0h1v1h-1zm11 0h14v18H47zm-16 1h1v1h-1zm4 0h6v1h-6zm6 0h1v1h-1zm-16 1h2v2h-2zm2 0h1v1h-1zm4 0h1v1h-1zm5 0h1v1h-1zm1 0h4v1h-4zm-15 1h1v1h-1z"/><path d="M23 67h4v1h-4zm14 0h1v1h-1zm1 0h3v2h-3zm8 0h15v15H46zm-29 1h1v1h-1zm5 0h1v3h-1zm1 0h1v1h-1zm-6 1h1v15h-1zm16 0h1v4h-1zm5 0h2v3h-2z"/><path d="M45 69h16v13H45zm-27 1h1v14h-1zm5 0h1v5h-1zm7 0h1v1h-1zm1 0h4v3h-4zm-7 1h1v1h-1zm4 0h1v1h-1z"/><path d="M29 71h6v2h-6zm6 0h1v1h-1zm9 0h1v1h-1z"/><path d="M24 72h12v1H24zm12 0h1v1h-1zm1 0h2v2h-2zm2 0h1v1h-1zm5 0h17v10H44zm-25 1h1v1h-1zm5 0h9v11h-9zm11 0h1v1h-1z"/><path d="M36 73h3v1h-3zm-17 1h1v10h-1zm14 0h1v10h-1zm5 0h1v1h-1zm5 0h18v8H43zm-20 1h1v1h-1zm11 0h1v1h-1zm-14 1h1v8h-1zm14 0h1v8h-1zm1 0h1v1h-1z"/><path d="M21 77h15v7H21zm15 0h1v1h-1zm6 0h19v5H42zm-6 1h2v6h-2z"/><path d="M38 79h23v3H38zM3 81h1v1H3zm1 0h1v2H4zm58 0h1v1h-1zM3 82h1v1H3zm2 0h1v1H5zm1 0h54v1H6zm54 0h1v1h-1zm1 0h1v1h-1zm1 0h1v1h-1zM3 83h1v1H3zm1 0h1v1H4zm1 0h1v1H5zm1 0h1v1H6zm1 0h52v1H7zm52 0h1v1h-1zm1 0h1v1h-1zm1 0h1v1h-1zm1 0h1v1h-1zM5 84h1v1H5zm1 0h1v1H6zm1 0h1v1H7zm1 0h50v1H8zm50 0h1v1h-1zm1 0h1v1h-1zm1 0h1v1h-1z"/></g><path fill="#b22" d="M22 14h1v1h-1zm8 0h1v1h-1zm5 3h1v1h-1zm0 1h1v1h-1zm-15 1h1v1h-1zm14 1h1v1h-1zm1 0h1v1h-1zm1 0h1v1h-1zm-1 2h1v1h-1zm-17 2h1v1h-1zm1 0h1v1h-1zm24 0h1v1h-1zm-26 1h1v1h-1zm22 2h1v1h-1zm-7 2h1v1h-1zm-11 1h1v1h-1zm1 1h1v1h-1zm18 0h1v1h-1z"/><path fill="#b67" d="M17 27h1v1h-1zm8 21h1v1h-1z"/><path fill="#e88" d="M33 42h1v1h-1zm-9 1h1v1h-1zm9 22h1v1h-1z"/><path fill="#d56" d="M33 39h1v1h-1zm0 1h1v1h-1zm1 0h1v1h-1zm-1 3h1v1h-1zm-9 2h1v1h-1zm1 0h1v1h-1zm-7 1h1v1h-1zm4 0h1v1h-1zm3 5h1v1h-1zm-4 1h1v1h-1zm9 0h1v1h-1zm5 2h1v1h-1zm-4 2h1v1h-1zm3 1h1v1h-1zm-6 1h1v1h-1zm5 5h1v1h-1zm-11 2h1v1h-1zm10 0h1v1h-1zm-13 1h1v1h-1zm14 0h1v1h-1zm7 5h1v1h-1zm-1 4h1v1h-1z"/><path fill="#c24" d="M30 61h1v1h-1zm-1 1h1v1h-1zm0 1h1v1h-1zm-1 5h1v1h-1zm-4 1h1v1h-1z"/><path fill="#c66" d="M21 10h1v1h-1zm15 3h1v1h-1zm5 10h1v1h-1zm-19 2h1v1h-1zm23 8h1v1h-1zm-20 1h1v1h-1zm3 26h1v1h-1z"/><path fill="#b55" d="M21 21h1v1h-1zm-7 7h1v1h-1zm9 38h1v1h-1z"/><path fill="#c67" d="M38 23h1v1h-1zm14 13h1v1h-1zM24 70h1v1h-1z"/><path fill="#edd" d="M23 29h1v1h-1zm13 5h1v1h-1zm4 0h1v1h-1zm5 1h1v1h-1zm-25 2h1v1h-1zm23 36h1v1h-1zm-20 3h1v1h-1zm19 0h1v1h-1z"/><path fill="#a77" d="M46 35h1v1h-1zm-21 1h1v1h-1zm2 0h1v1h-1z"/><path fill="#e89" d="M32 39h1v1h-1zm2 0h1v1h-1zm1 0h1v1h-1zm1 3h1v1h-1zm-11 2h1v1h-1zm5 0h1v1h-1zm8 5h1v1h-1zm-7 2h1v1h-1zm1 2h1v1h-1zm10 10h1v1h-1zm-18 1h1v1h-1zm11 2h1v1h-1zm-4 1h1v1h-1z"/><path fill="#ecc" d="M38 11h1v1h-1zm-17 1h1v2h-1zm8 1h1v1h-1zm1 0h1v1h-1zm-2 1h1v1h-1zm-2 1h1v1h-1zm10 0h1v1h-1zm-16 1h1v1h-1zm17 3h1v1h-1zm2 2h1v1h-1zm2 0h1v1h-1zm-19 3h1v1h-1zm5 0h1v1h-1zm8 2h1v1h-1zm-4 2h1v1h-1zm12 4h1v1h-1zm-20 1h1v1h-1zm5 0h1v1h-1zm21 0h1v1h-1zm-26 1h1v1h-1zm-3 14h1v1h-1zm19 16h1v1h-1zm-12 1h1v1h-1zm-3 1h1v1h-1zm17 0h1v1h-1zm-20 1h1v1h-1zm-3 2h1v1h-1zm3 7h1v1h-1z"/><path fill="#eab" d="M19 19h1v1h-1zm16 13h1v1h-1zM23 43h1v1h-1zm4 7h1v1h-1zm-4 1h1v1h-1zm9 13h1v1h-1zm-2 1h1v1h-1zm7 4h1v1h-1z"/><path fill="#a23" d="M43 71h1v1h-1z"/><path fill="#ede" d="M38 78h1v1h-1z"/><path fill="#922" d="M35 24h1v1h-1zm-2 35h1v1h-1z"/><path fill="#d9a" d="M19 25h1v1h-1zm21 27h1v1h-1zm-2 4h1v1h-1zm-12 9h1v1h-1zm-9 2h1v1h-1z"/><path fill="#ecd" d="M28 46h1v1h-1zm3 0h1v1h-1zM19 72h1v1h-1z"/><path fill="#666" d="M0 88h1v1H0zm1 0h1v1H1zm63 0h1v1h-1zm1 0h1v1h-1zM1 89h1v1H1zm1 0h1v1H2zm1 0h1v1H3zm1 0h58v1H4zm58 0h1v1h-1zm1 0h1v1h-1zm1 0h1v1h-1z"/><path fill="#b88" d="M43 13h1v1h-1zm-21 7h1v1h-1zm13 5h1v1h-1zm-1 9h1v1h-1zm16 3h1v1h-1zm1 0h1v1h-1zm-16 8h1v1h-1zm1 0h1v1h-1zm-5 24h1v1h-1z"/><path fill="#b45" d="M39 26h1v1h-1zM27 46h1v1h-1zm-1 6h1v1h-1zm5 7h1v1h-1zm-6 6h1v1h-1z"/><path fill="#fee" d="M20 10h1v1h-1zm20 0h1v1h-1zm2 0h1v1h-1zm-5 1h1v1h-1zm7 0h1v1h-1zm1 1h1v1h-1zm-5 2h1v1h-1zm-19 8h1v1h-1zm7 1h1v1h-1zm3 0h1v1h-1zm13 1h1v1h-1zm-29 2h1v1h-1zm8 0h1v1h-1zm20 0h1v1h-1zm-5 2h1v1h-1zm4 2h1v1h-1zm-12 1h1v1h-1zm17 1h1v1h-1zm-21 1h1v1h-1zm11 1h1v1h-1zm2 0h1v1h-1zm-16 1h1v1h-1zm8 3h1v1h-1zm-8 3h1v1h-1zm-6 5h1v1h-1zm8 3h1v1h-1zm10 0h1v1h-1zm-14 2h1v1h-1zm10 1h1v1h-1zm-7 1h1v1h-1zm-4 1h1v1h-1zm14 0h1v1h-1zm-1 1h1v1h-1zm-12 1h1v1h-1zm6 0h1v1h-1zm-1 2h1v1h-1zm-2 3h1v1h-1zm11 0h1v1h-1zm7 1h1v1h-1zm-23 2h1v1h-1zm15 0h1v1h-1zm3 0h1v1h-1zm9 0h1v1h-1zm-29 1h1v1h-1zm29 1h1v1h-1zm-19 1h1v1h-1zm-3 1h1v1h-1zm1 0h1v1h-1zm20 0h1v1h-1zm-13 1h1v1h-1zm8 0h1v1h-1zm-18 2h1v1h-1zm15 0h1v1h-1zm-4 2h1v1h-1z"/><path fill="#bbb" d="M0 1h1v1H0zm1 0h1v1H1zm63 0h1v1h-1zm1 0h1v1h-1zM1 85h1v1H1zm63 0h1v1h-1zM2 86h1v1H2zm1 0h1v1H3zm59 0h1v1h-1zm1 0h1v1h-1z"/><path fill="#b33" d="M33 14h1v1h-1zm-12 2h1v1h-1zm15 0h1v1h-1zm3 7h1v1h-1zm-18 1h1v1h-1zm18 7h1v1h-1zm-18 1h1v1h-1zm20 0h1v1h-1zm-19 1h1v1h-1zm28 2h1v1h-1z"/><path fill="#fcd" d="M25 55h1v1h-1zm9 10h1v1h-1zm-11 4h1v1h-1z"/><path fill="#c23" d="M34 41h1v1h-1zm0 1h1v1h-1zm1 0h1v1h-1zm-1 1h1v1h-1zm-1 1h1v1h-1zm-10 2h1v1h-1zm8 2h1v1h-1zm-5 1h1v1h-1zm6 1h1v1h-1zm2 0h1v1h-1zm3 1h2v1h-2zm-13 1h1v1h-1zm-2 1h1v1h-1zm8 1h1v1h-1zm6 0h1v1h-1zm-1 1h1v1h-1zm-11 1h1v1h-1zm11 0h1v1h-1zm-9 3h1v1h-1zm1 0h1v1h-1zm3 4h1v1h-1zm5 0h1v1h-1zm4 0h1v1h-1zm-13 1h1v1h-1zm14 8h1v1h-1zm0 3h1v1h-1z"/><path fill="#a01" d="M34 44h1v1h-1zm3 0h1v1h-1zm4 1h1v1h-1zm-20 2h1v1h-1zm18 5h1v1h-1zm-1 1h1v1h-1zm-16 2h1v1h-1zm15 0h1v1h-1zm-14 2h1v1h-1zm13 0h1v1h-1zm-1 1h1v1h-1zm-5 1h1v1h-1zm-1 1h1v1h-1zm1 0h1v1h-1zm-8 6h1v1h-1zm-4 1h1v1h-1zm2 0h1v1h-1zm0 1h1v1h-1zm10 0h1v1h-1zm-2 1h1v1h-1zm8 0h1v1h-1zm7 0h1v1h-1zm-1 3h1v1h-1zm0 1h1v1h-1zm-21 1h1v1h-1zm20 1h1v1h-1zm-3 1h1v1h-1zm1 0h1v1h-1zm1 0h1v1h-1z"/><path fill="#b89" d="M29 70h1v1h-1z"/><path fill="#888" d="M0 5h1v1H0zm65 0h1v1h-1zM0 6h1v1H0zm65 0h1v1h-1zM0 7h1v1H0zm65 0h1v1h-1zM0 8h1v73H0zm65 0h1v73h-1zM0 81h1v2H0zm65 0h1v2h-1zM0 83h1v1H0zm65 0h1v1h-1zM1 87h1v1H1zm63 0h1v1h-1zM2 88h1v1H2zm61 0h1v1h-1z"/><path fill="#a22" d="M26 13h1v1h-1zm6 14h1v1h-1z"/><path fill="#ebc" d="M31 13h1v1h-1zm3 16h1v1h-1zm4 0h1v1h-1zm2 14h1v1h-1zm-17 2h1v1h-1zm10 6h1v1h-1zm-13 1h1v1h-1zm4 2h1v1h-1zm1 3h1v1h-1zm19 13h1v1h-1zm-10 3h1v1h-1z"/><path fill="#c99" d="M44 13h1v1h-1zM29 26h1v1h-1zm13 8h1v1h-1zm-3 20h1v1h-1zm-2 4h1v1h-1zm-14 1h1v1h-1zm2 12h1v1h-1zm12 6h1v1h-1z"/><path fill="#a33" d="M37 23h1v1h-1z"/><path fill="#c12" d="M29 45h1v1h-1zm4 5h1v1h-1zm-7 1h1v1h-1zm3 1h1v1h-1zm7 1h1v1h-1zm-7 1h1v1h-1zm2 0h1v1h-1zm1 0h1v1h-1zm4 1h1v1h-1zm-12 2h1v1h-1zm6 0h1v1h-1zm-1 1h1v1h-1zm7 5h1v1h-1zm1 0h1v1h-1zm1 0h1v1h-1zm4 2h1v1h-1zm-13 1h1v1h-1zm4 1h1v1h-1zm9 0h1v1h-1zm0 1h1v1h-1zm-1 1h1v1h-1zm0 2h1v1h-1zm0 1h1v1h-1zm-5 3h1v1h-1z"/><path fill="#844" d="M26 36h1v1h-1z"/><path fill="#a55" d="M26 71h1v1h-1z"/><path fill="#dcc" d="M31 15h1v1h-1zm0 11h1v1h-1zm0 9h1v1h-1zm-3 1h1v1h-1zm19 0h1v1h-1zM34 69h1v1h-1z"/><path fill="#833" d="M22 38h1v1h-1z"/><path fill="#812" d="M25 47h1v1h-1zm11 12h1v1h-1zm-6 10h1v1h-1zm-2 1h1v1h-1z"/><path fill="#a56" d="M32 59h1v1h-1zm1 9h1v1h-1z"/><path fill="#701" d="M35 59h1v2h-1zm3 18h1v1h-1zm1 0h1v1h-1zm1 0h1v1h-1zm0 1h1v1h-1z"/><path fill="#c9a" d="M41 78h1v1h-1z"/><path fill="#801" d="M34 45h1v1h-1zm-1 1h1v1h-1zm-10 1h1v1h-1zm11 12h1v1h-1zm-9 1h1v1h-1zm4 9h1v1h-1zm6 0h1v1h-1zm-8 1h1v1h-1zm9 0h1v1h-1z"/><path fill="#eee" d="M3 1h1v1H3zm59 0h1v1h-1zM2 2h1v1H2zm61 0h1v1h-1zM1 3h1v1H1zm63 0h1v1h-1zM1 4h1v1H1zm63 0h1v1h-1zM1 5h1v1H1zm63 0h1v1h-1zM2 6h1v1H2zm61 0h1v1h-1zM2 7h1v1H2zm61 0h1v1h-1zM2 8h1v74H2zm61 0h1v74h-1zM24 18h1v1h-1zM2 82h1v1H2zm61 0h1v1h-1zM2 83h1v1H2zm61 0h1v1h-1zM3 84h1v1H3zm1 0h1v1H4zm57 0h1v1h-1zm1 0h1v1h-1zM9 85h48v1H9z"/><path fill="#aaa" d="M0 2h1v1H0zm65 0h1v1h-1zM1 86h1v1H1zm63 0h1v1h-1zM2 87h1v1H2zm1 0h1v1H3zm1 0h1v1H4zm1 0h56v1H5zm56 0h1v1h-1zm1 0h1v1h-1zm1 0h1v1h-1zM4 88h1v1H4zm1 0h56v1H5zm56 0h1v1h-1z"/><path fill="#d78" d="M18 22h1v1h-1zm15 9h1v1h-1zm-13 1h1v1h-1zm13 0h1v1h-1zm13 1h1v1h-1zm-23 9h1v1h-1zm13 1h1v1h-1zm-12 1h1v1h-1zm17 0h1v1h-1zm-21 2h1v1h-1zm1 0h1v1h-1zm7 4h1v1h-1zm2 1h1v1h-1zm-8 1h1v1h-1zm-2 1h1v1h-1zm11 4h1v1h-1zm-6 1h1v1h-1zm3 4h1v1h-1zm3 2h1v1h-1zm12 0h1v1h-1zm1 0h1v1h-1zm1 0h1v1h-1zm-24 1h1v1h-1zm20 2h1v1h-1zm-19 6h1v1h-1z"/><path fill="#fcc" d="M36 39h1v1h-1zm-9 5h1v1h-1zm1 0h1v1h-1zm3 5h1v1h-1zm-4 9h1v1h-1zm17 5h1v1h-1zm-5 10h1v1h-1z"/><path fill="#c02" d="M35 43h1v1h-1zm-8 8h1v1h-1zm10 1h1v1h-1zm-16 1h1v1h-1zm8 4h1v1h-1zm3 1h1v1h-1zm1 0h1v1h-1zm-5 1h1v1h-1zm-1 5h1v1h-1zm1 0h1v1h-1zm17 1h1v1h-1zm-2 1h1v1h-1zm-7 2h1v1h-1zm-9 1h1v1h-1zm15 0h1v1h-1zm-21 2h1v2h-1zm20 2h1v1h-1z"/><path fill="#901" d="M35 44h1v1h-1zm1 0h1v1h-1zm-3 1h1v1h-1zm-1 1h1v1h-1zm-10 1h1v1h-1zm4 0h1v1h-1zm0 1h1v1h-1zm12 6h1v1h-1zm-1 2h1v1h-1zm-1 2h1v1h-1zm-12 1h1v1h-1zm20 8h1v1h-1zm-25 1h1v1h-1zm12 0h1v1h-1zm13 0h1v1h-1zm-25 1h1v1h-1zm6 1h1v1h-1zm1 0h1v1h-1zm17 0h1v1h-1zm-6 6h1v1h-1zm4 0h1v1h-1z"/><path fill="#d77" d="M25 11h1v1h-1zm8 11h1v1h-1zm3 0h1v1h-1zm3 0h1v1h-1zm-9 2h1v1h-1zm1 0h1v1h-1zm6 8h1v1h-1zm-11 2h1v1h-1zm23 0h1v1h-1zM34 74h1v1h-1z"/><path fill="#b77" d="M32 15h1v1h-1zm-7 1h1v1h-1zm5 10h1v1h-1zm0 9h1v1h-1zm-10 1h1v1h-1zm17 9h1v1h-1zm-3 15h1v1h-1z"/><path fill="#c35" d="M31 53h1v1h-1zm-3 1h1v1h-1zm-3 15h1v1h-1z"/><path fill="#a11" d="M42 25h1v1h-1z"/><path fill="#c78" d="M19 47h1v1h-1zm3 10h1v1h-1zm23 10h1v1h-1zm-2 5h1v1h-1z"/><path fill="#fef" d="M26 50h1v1h-1zm-4 8h1v1h-1z"/><path fill="#ebb" d="M25 10h1v1h-1zm11 2h1v1h-1zm-4 1h1v1h-1zm13 0h1v1h-1zm-8 3h1v1h-1zm-4 3h1v1h-1zm7 2h1v1h-1zm-19 2h1v1h-1zm-5 2h1v1h-1zm4 3h1v1h-1zm0 1h1v1h-1zm10 3h1v1h-1zm2 6h1v1h-1zm-7 5h1v1h-1zm7 5h1v1h-1zm6 0h1v1h-1zm-9 1h1v1h-1zm7 0h1v1h-1zm4 1h1v1h-1zm-12 3h1v1h-1zm-1 1h1v1h-1zm-4 10h1v1h-1zm17 0h1v1h-1zm-10 2h1v1h-1zm7 4h1v1h-1zm-15 2h1v1h-1z"/><path fill="#834" d="M41 13h1v1h-1z"/><path fill="#e9a" d="M48 33h1v1h-1zm-15 8h1v1h-1zm4 2h1v1h-1zm1 0h2v1h-2zm-8 5h1v1h-1zm7 0h1v1h-1zm2 1h1v1h-1zm-15 2h1v1h-1zm10 5h1v1h-1zm9 7h1v1h-1zm-25 2h1v1h-1zm22 5h1v1h-1z"/><path fill="#777" d="M0 84h1v1H0zm65 0h1v1h-1zM0 85h1v1H0zm65 0h1v1h-1zM0 86h1v1H0zm65 0h1v1h-1zM0 87h1v1H0zm65 0h1v1h-1z"/></svg>