<?xml version="1.0" encoding="UTF-8"?><svg height="90px" xmlns="http://www.w3.org/2000/svg" version="1.2" baseProfile="tiny" viewBox="0 0 66 90" width="66px"><g fill="#555"><rect height="1" x="37" y="17" width="1"/><rect y="20" width="1" height="1" x="46"/><rect x="51" y="21" width="1" height="1"/></g><g fill="#a55"><rect x="28" y="43" width="1" height="1"/><rect x="27" y="55" width="1" height="1"/><rect x="32" y="66" width="1" height="1"/></g><g fill="#bbb"><rect height="1" y="1" width="1"/><rect width="1" height="1" x="1" y="1"/><rect y="1" width="1" height="1" x="64"/><rect width="1" height="1" x="65" y="1"/><rect x="40" y="16" width="1" height="1"/><rect height="1" x="41" y="16" width="1"/><rect y="16" width="1" height="1" x="45"/><rect y="18" width="1" height="1" x="27"/><rect height="1" x="50" y="18" width="1"/><rect y="19" width="1" height="1" x="22"/><rect x="1" y="85" width="1" height="1"/><rect width="1" height="1" x="64" y="85"/><rect x="2" y="86" width="1" height="1"/><rect width="1" height="1" x="3" y="86"/><rect height="1" x="62" y="86" width="1"/><rect x="63" y="86" width="1" height="1"/></g><g fill="#eab"><rect x="37" y="34" width="1" height="1"/><rect x="26" y="41" width="1" height="1"/><rect width="1" height="1" x="31" y="44"/><rect height="1" x="28" y="51" width="1"/><rect height="1" x="35" y="53" width="1"/><rect width="1" height="1" x="30" y="59"/><rect width="1" height="1" x="21" y="61"/><rect x="31" y="61" width="1" height="1"/><rect x="43" y="68" width="1" height="1"/></g><g fill="#e9a"><rect y="37" width="1" height="1" x="40"/><rect height="1" x="44" y="39" width="1"/><rect height="1" x="31" y="40" width="1"/><rect x="41" y="44" width="1" height="1"/><rect x="30" y="46" width="1" height="1"/><rect width="1" height="1" x="37" y="53"/><rect x="47" y="59" width="1" height="1"/><rect x="31" y="63" width="1" height="1"/></g><g fill="#ccc"><rect height="1" x="1" width="1"/><rect height="1" x="2" width="1"/><rect x="63" width="1" height="1"/><rect x="64" width="1" height="1"/><rect height="1" x="1" y="2" width="1"/><rect x="64" y="2" width="1" height="1"/><rect y="16" width="1" height="1" x="39"/><rect x="17" y="19" width="1" height="1"/><rect y="19" width="1" height="1" x="21"/><rect x="32" y="19" width="1" height="1"/><rect height="1" x="40" y="19" width="1"/><rect x="25" y="21" width="1" height="1"/><rect x="48" y="21" width="1" height="1"/><rect width="1" height="1" x="1" y="84"/><rect y="84" width="1" height="1" x="64"/><rect y="85" width="1" height="1" x="2"/><rect x="63" y="85" width="1" height="1"/><rect x="4" y="86" width="1" height="1"/><rect x="5" y="86" width="1" height="1"/><rect x="6" y="86" width="1" height="1"/><rect width="52" height="1" x="7" y="86"/><rect height="1" x="59" y="86" width="1"/><rect x="60" y="86" width="1" height="1"/><rect y="86" width="1" height="1" x="61"/></g><g fill="#a45"><rect height="1" x="44" y="41" width="1"/><rect y="44" width="1" height="1" x="29"/></g><rect width="1" height="1" x="42" y="74" fill="#dbc"/><g fill="#aaa"><rect y="2" width="1" height="1"/><rect y="2" width="1" height="1" x="65"/><rect height="1" x="33" y="17" width="1"/><rect y="19" width="1" height="1" x="31"/><rect width="1" height="1" x="51" y="19"/><rect width="1" height="1" x="22" y="22"/><rect height="1" x="1" y="86" width="1"/><rect x="64" y="86" width="1" height="1"/><rect x="2" y="87" width="1" height="1"/><rect height="1" x="3" y="87" width="1"/><rect x="4" y="87" width="1" height="1"/><rect x="5" y="87" width="56" height="1"/><rect width="1" height="1" x="61" y="87"/><rect x="62" y="87" width="1" height="1"/><rect x="63" y="87" width="1" height="1"/><rect height="1" x="4" y="88" width="1"/><rect width="56" height="1" x="5" y="88"/><rect width="1" height="1" x="61" y="88"/></g><g fill="#d56"><rect height="1" x="34" y="40" width="1"/><rect x="22" y="42" width="1" height="1"/><rect x="30" y="45" width="1" height="1"/><rect x="31" y="46" width="1" height="1"/><rect x="41" y="46" width="1" height="1"/><rect width="1" height="1" x="28" y="47"/><rect x="25" y="48" width="1" height="1"/><rect x="34" y="48" width="1" height="1"/><rect x="36" y="59" width="1" height="1"/><rect x="37" y="59" width="1" height="1"/><rect width="1" height="1" x="28" y="60"/><rect x="37" y="62" width="1" height="1"/><rect height="1" x="38" y="62" width="1"/><rect height="1" x="35" y="63" width="1"/><rect x="31" y="64" width="1" height="1"/><rect width="1" height="1" x="42" y="71"/></g><g fill="#eaa"><rect x="34" y="41" width="1" height="1"/><rect x="25" y="47" width="1" height="1"/><rect x="44" y="47" width="1" height="1"/><rect height="1" x="29" y="51" width="1"/><rect x="31" y="62" width="1" height="1"/><rect x="34" y="63" width="1" height="1"/></g><g fill="#d66"><rect width="1" height="1" x="32" y="49"/><rect x="28" y="52" width="1" height="1"/><rect height="1" x="45" y="59" width="1"/><rect y="61" width="1" height="1" x="25"/><rect width="1" height="1" x="43" y="70"/></g><g fill="#111"><rect height="1" x="33" y="18" width="1"/><rect x="43" y="18" width="1" height="1"/><rect x="44" y="18" width="1" height="1"/><rect y="19" width="1" height="1" x="28"/><rect x="48" y="19" width="1" height="1"/><rect width="1" height="1" x="24" y="20"/><rect y="20" width="1" height="1" x="25"/><rect width="1" height="1" x="50" y="20"/><rect y="21" width="1" height="1" x="17"/><rect x="20" y="21" width="1" height="1"/><rect x="21" y="21" width="1" height="1"/></g><g fill="#110"><rect x="38" y="18" width="1" height="1"/><rect y="18" width="2" height="1" x="39"/><rect width="1" height="1" x="41" y="18"/><rect x="42" y="18" width="1" height="1"/><rect y="19" width="1" height="1" x="46"/><rect x="47" y="19" width="1" height="1"/><rect height="1" x="49" y="20" width="1"/><rect width="1" height="1" x="22" y="21"/></g><g fill="#b02"><rect height="1" x="38" y="39" width="1"/><rect width="1" height="1" x="37" y="40"/><rect width="1" height="1" x="43" y="40"/><rect x="27" y="42" width="1" height="1"/><rect x="35" y="43" width="1" height="1"/><rect x="35" y="46" width="1" height="1"/><rect width="1" height="1" x="36" y="46"/><rect x="30" y="47" width="1" height="1"/><rect x="31" y="47" width="1" height="1"/><rect x="43" y="47" width="1" height="1"/><rect y="48" width="1" height="1" x="41"/><rect height="1" x="25" y="49" width="1"/><rect height="1" x="41" y="49" width="1"/><rect y="50" width="1" height="1" x="26"/><rect x="32" y="50" width="1" height="1"/><rect x="35" y="50" width="1" height="1"/><rect x="32" y="51" width="1" height="1"/><rect height="1" x="33" y="51" width="1"/><rect height="1" x="34" y="51" width="1"/><rect height="1" x="40" y="51" width="1"/><rect width="1" height="1" x="33" y="52"/><rect width="1" height="1" x="34" y="52"/><rect x="27" y="53" width="1" height="1"/><rect x="39" y="53" width="1" height="1"/><rect width="1" height="1" x="33" y="54"/><rect y="54" width="1" height="1" x="34"/><rect height="1" x="35" y="54" width="1"/><rect x="36" y="54" width="1" height="1"/><rect height="1" x="37" y="54" width="1"/><rect x="29" y="55" width="1" height="1"/><rect height="1" x="31" y="55" width="1"/><rect x="32" y="55" width="1" height="1"/><rect height="1" x="33" y="57" width="1"/><rect width="1" height="1" x="32" y="60"/><rect x="33" y="60" width="1" height="1"/><rect height="1" x="27" y="61" width="1"/><rect x="32" y="61" width="1" height="1"/><rect height="1" x="33" y="61" width="1"/><rect x="48" y="62" width="1" height="1"/><rect width="1" height="1" x="23" y="63"/><rect x="36" y="63" width="1" height="1"/><rect x="37" y="63" width="1" height="1"/><rect x="47" y="63" width="1" height="1"/><rect width="1" height="1" x="33" y="64"/><rect x="39" y="64" width="1" height="1"/><rect width="1" height="1" x="24" y="65"/><rect x="31" y="65" width="1" height="1"/><rect x="46" y="66" width="1" height="1"/><rect x="24" y="67" width="1" height="1"/><rect x="24" y="68" width="1" height="1"/><rect y="69" width="1" height="1" x="25"/><rect width="1" height="1" x="45" y="69"/><rect height="1" x="44" y="71" width="1"/></g><g fill="#c56"><rect x="31" y="50" width="1" height="1"/><rect x="35" y="51" width="1" height="1"/></g><g fill="#777"><rect x="44" y="17" width="1" height="1"/><rect height="1" x="49" y="18" width="1"/><rect height="1" x="21" y="20" width="1"/><rect y="21" width="1" height="1" x="24"/><rect y="84" width="1" height="1"/><rect height="1" x="65" y="84" width="1"/><rect y="85" width="1" height="1"/><rect height="1" x="65" y="85" width="1"/><rect y="86" width="1" height="1"/><rect x="65" y="86" width="1" height="1"/><rect y="87" width="1" height="1"/><rect x="65" y="87" width="1" height="1"/></g><g fill="#e89"><rect x="36" y="35" width="1" height="1"/><rect width="1" height="1" x="28" y="39"/><rect y="40" width="1" height="1" x="29"/><rect x="30" y="40" width="1" height="1"/><rect x="40" y="45" width="1" height="1"/><rect x="41" y="45" width="1" height="1"/><rect height="1" x="38" y="51" width="1"/><rect x="29" y="54" width="1" height="1"/><rect height="1" x="46" y="59" width="1"/><rect y="60" width="1" height="1" x="27"/><rect x="35" y="60" width="1" height="1"/><rect x="22" y="61" width="1" height="1"/><rect x="24" y="61" width="1" height="1"/><rect x="39" y="62" width="1" height="1"/><rect height="1" x="25" y="66" width="1"/></g><g fill="#801"><rect x="39" y="40" width="1" height="1"/><rect width="1" height="1" x="40" y="40"/><rect x="37" y="41" width="1" height="1"/><rect y="42" width="1" height="1" x="36"/><rect x="25" y="43" width="1" height="1"/><rect x="26" y="43" width="1" height="1"/><rect x="29" y="43" width="1" height="1"/><rect y="56" width="1" height="1" x="29"/><rect y="66" width="1" height="1" x="30"/></g><g fill="#fee"><rect y="34" width="1" height="1" x="39"/><rect x="27" y="37" width="1" height="1"/><rect y="38" width="1" height="1" x="26"/><rect x="40" y="38" width="1" height="1"/><rect width="1" height="1" x="42" y="38"/><rect y="38" width="1" height="1" x="43"/><rect y="39" width="1" height="1" x="34"/><rect width="1" height="1" x="23" y="41"/><rect x="24" y="41" width="1" height="1"/><rect width="1" height="1" x="39" y="41"/><rect height="1" x="26" y="46" width="1"/><rect x="29" y="46" width="1" height="1"/><rect x="44" y="48" width="1" height="1"/><rect x="42" y="52" width="1" height="1"/><rect x="29" y="53" width="1" height="1"/><rect x="41" y="54" width="1" height="1"/><rect width="1" height="1" x="27" y="56"/><rect width="1" height="1" x="40" y="56"/><rect x="42" y="58" width="1" height="1"/><rect x="43" y="58" width="1" height="1"/><rect height="1" x="44" y="58" width="1"/><rect height="1" x="46" y="58" width="1"/><rect height="1" x="22" y="60" width="1"/><rect x="50" y="61" width="1" height="1"/><rect x="25" y="63" width="1" height="1"/><rect x="27" y="66" width="1" height="1"/><rect x="43" y="67" width="1" height="1"/><rect height="1" x="47" y="69" width="1"/><rect x="40" y="73" width="1" height="1"/><rect x="45" y="74" width="1" height="1"/></g><g fill="#c13"><rect x="34" y="46" width="1" height="1"/><rect width="1" height="1" x="29" y="47"/><rect x="33" y="50" width="1" height="1"/><rect height="1" x="39" y="52" width="1"/><rect height="1" x="32" y="54" width="1"/><rect height="1" x="34" y="59" width="1"/><rect y="62" width="1" height="1" x="24"/><rect x="45" y="65" width="1" height="1"/><rect x="45" y="66" width="1" height="1"/><rect width="1" height="1" x="44" y="67"/></g><g fill="#baa"><rect width="1" height="1" x="42" y="16"/><rect y="16" width="1" height="1" x="43"/><rect y="16" width="1" height="1" x="44"/></g><g fill="#fcc"><rect x="38" y="34" width="1" height="1"/><rect width="1" height="1" x="26" y="37"/><rect x="28" y="38" width="1" height="1"/><rect height="1" x="41" y="43" width="1"/><rect x="36" y="45" width="1" height="1"/><rect y="45" width="2" height="1" x="37"/><rect x="39" y="47" width="1" height="1"/><rect x="48" y="59" width="1" height="1"/><rect y="60" width="1" height="1" x="36"/><rect width="1" height="1" x="25" y="65"/><rect width="1" height="1" x="26" y="69"/></g><g fill="#c67"><rect width="1" height="1" x="36" y="43"/><rect width="1" height="1" x="29" y="48"/><rect height="1" x="29" y="61" width="1"/><rect x="23" y="68" width="1" height="1"/></g><g fill="#a99"><rect x="23" y="19" width="1" height="1"/><rect x="45" y="20" width="1" height="1"/></g><g fill="#887"><rect width="1" height="1" x="49" y="21"/><rect height="1" x="19" y="23" width="1"/></g><g fill="#c12"><rect y="46" width="1" height="1" x="37"/><rect height="1" x="26" y="49" width="1"/><rect x="40" y="49" width="1" height="1"/><rect height="1" x="34" y="50" width="1"/><rect y="50" width="1" height="1" x="36"/><rect x="40" y="50" width="1" height="1"/><rect x="33" y="53" width="1" height="1"/><rect height="1" x="43" y="59" width="1"/><rect x="30" y="60" width="1" height="1"/><rect y="60" width="1" height="1" x="31"/><rect x="46" y="61" width="1" height="1"/><rect x="21" y="62" width="1" height="1"/><rect x="46" y="63" width="1" height="2"/><rect x="32" y="64" width="1" height="1"/><rect x="45" y="64" width="1" height="1"/><rect x="45" y="67" width="1" height="1"/><rect x="25" y="68" width="1" height="1"/></g><g fill="#d67"><rect y="35" width="1" height="1" x="39"/><rect y="36" width="1" height="1" x="40"/><rect x="42" y="39" width="1" height="1"/><rect width="1" height="1" x="33" y="40"/><rect y="41" width="1" height="1" x="27"/><rect x="33" y="41" width="1" height="1"/><rect height="1" x="35" y="41" width="1"/><rect y="46" width="1" height="1" x="39"/><rect x="26" y="48" width="1" height="1"/><rect x="27" y="49" width="1" height="1"/><rect x="48" y="60" width="1" height="1"/><rect y="70" width="1" height="1" x="39"/></g><g fill="#c78"><rect width="1" height="1" x="41" y="53"/><rect y="71" width="1" height="1" x="26"/></g><rect fill="#c66" width="1" height="1" x="34" y="60"/><rect width="1" height="1" x="26" y="70" fill="#d9a"/><g fill="#888"><rect y="5" width="1" height="1"/><rect x="65" y="5" width="1" height="1"/><rect y="6" width="1" height="1"/><rect width="1" height="1" x="65" y="6"/><rect height="1" y="7" width="1"/><rect x="65" y="7" width="1" height="1"/><rect width="1" height="73" y="8"/><rect y="8" width="1" height="73" x="65"/><rect x="34" y="17" width="1" height="1"/><rect x="45" y="17" width="1" height="1"/><rect x="24" y="19" width="1" height="1"/><rect width="1" height="1" x="18" y="20"/><rect width="1" height="1" x="20" y="20"/><rect width="1" height="2" y="81"/><rect height="2" x="65" y="81" width="1"/><rect y="83" width="1" height="1"/><rect y="83" width="1" height="1" x="65"/><rect y="87" width="1" height="1" x="1"/><rect x="64" y="87" width="1" height="1"/><rect height="1" x="2" y="88" width="1"/><rect y="88" width="1" height="1" x="63"/></g><rect height="1" fill="#eed" x="37" y="16" width="1"/><g fill="#433"><rect height="1" x="26" y="19" width="1"/><rect x="17" y="22" width="1" height="1"/></g><g fill="#544"><rect width="1" height="1" x="38" y="17"/><rect width="1" height="1" x="39" y="17"/><rect x="40" y="17" width="1" height="1"/><rect y="17" width="1" height="1" x="41"/><rect width="1" height="1" x="47" y="18"/><rect width="1" height="1" x="22" y="20"/><rect width="1" height="1" x="50" y="21"/><rect x="21" y="22" width="1" height="1"/></g><g fill="#fcd"><rect height="1" x="35" y="39" width="1"/><rect x="33" y="44" width="1" height="1"/><rect height="1" x="30" y="54" width="1"/><rect height="1" x="29" y="64" width="1"/><rect height="1" x="38" y="69" width="1"/></g><g fill="#c88"><rect x="43" y="41" width="1" height="1"/><rect x="43" y="49" width="1" height="1"/><rect y="51" width="1" height="1" x="42"/><rect height="1" x="36" y="55" width="1"/></g><g fill="#ecd"><rect width="1" height="1" x="46" y="42"/><rect x="33" y="66" width="1" height="1"/></g><g fill="#912"><rect width="1" height="1" x="24" y="43"/><rect x="42" y="50" width="1" height="1"/><rect x="41" y="52" width="1" height="1"/><rect x="48" y="64" width="1" height="1"/><rect height="1" x="40" y="66" width="1"/></g><g fill="#221"><rect x="31" y="18" width="1" height="1"/><rect height="1" x="35" y="18" width="1"/><rect x="36" y="18" width="1" height="1"/><rect y="21" width="1" height="1" x="23"/></g><rect x="30" y="19" width="1" height="1" fill="#776"/><g fill="#d88"><rect x="32" y="40" width="1" height="1"/><rect x="31" y="48" width="1" height="1"/><rect y="60" width="1" height="1" x="45"/></g><g fill="#fde"><rect height="1" x="27" y="40" width="1"/><rect x="45" y="42" width="1" height="1"/><rect x="35" y="48" width="1" height="1"/><rect x="45" y="58" width="1" height="1"/><rect x="27" y="64" width="1" height="1"/><rect width="1" height="1" x="39" y="67"/><rect x="41" y="70" width="1" height="1"/><rect height="1" x="42" y="70" width="1"/></g><g fill="#c89"><rect x="23" y="43" width="1" height="1"/><rect width="1" height="1" x="35" y="55"/><rect y="56" width="1" height="1" x="30"/><rect y="68" width="1" height="1" x="47"/></g><rect width="1" height="1" x="38" y="56" fill="#944"/><rect fill="#923" x="40" y="72" width="1" height="1"/><rect y="74" width="1" height="1" x="44" fill="#712"/><g fill="#211"><rect y="18" width="1" height="1" x="32"/><rect x="34" y="18" width="1" height="1"/><rect width="1" height="1" x="37" y="18"/><rect x="45" y="18" width="1" height="1"/><rect y="18" width="1" height="1" x="46"/><rect x="27" y="19" width="1" height="1"/><rect width="1" height="1" x="49" y="19"/><rect height="1" x="23" y="20" width="1"/><rect y="20" width="1" height="1" x="47"/><rect y="20" width="1" height="1" x="51"/><rect x="18" y="21" width="1" height="1"/><rect width="1" height="1" x="19" y="21"/></g><g fill="#edd"><rect x="40" y="41" width="1" height="1"/><rect x="24" y="44" width="1" height="1"/><rect x="21" y="64" width="1" height="1"/><rect height="1" x="39" y="72" width="1"/></g><rect fill="#dab" width="1" height="1" x="42" y="41"/><g fill="#ddd"><rect x="3" width="1" height="1"/><rect x="4" width="1" height="1"/><rect x="5" width="56" height="1"/><rect width="1" height="1" x="61"/><rect width="1" height="1" x="62"/><rect x="2" y="1" width="1" height="1"/><rect width="1" height="1" x="63" y="1"/><rect height="1" x="1" y="6" width="1"/><rect x="64" y="6" width="1" height="1"/><rect width="1" height="1" x="1" y="7"/><rect y="7" width="1" height="1" x="64"/><rect width="1" height="1" x="1" y="8"/><rect width="1" height="1" x="64" y="8"/><rect x="1" y="9" width="1" height="73"/><rect height="73" x="64" y="9" width="1"/><rect y="16" width="1" height="1" x="38"/><rect y="16" width="1" height="1" x="47"/><rect x="31" y="17" width="1" height="1"/><rect x="18" y="19" width="1" height="1"/><rect height="1" x="20" y="19" width="1"/><rect width="1" height="1" x="28" y="20"/><rect x="44" y="20" width="1" height="1"/><rect x="20" y="23" width="1" height="1"/><rect width="1" height="1" x="1" y="82"/><rect height="1" x="64" y="82" width="1"/><rect x="1" y="83" width="1" height="1"/><rect x="64" y="83" width="1" height="1"/><rect x="2" y="84" width="1" height="1"/><rect height="1" x="63" y="84" width="1"/><rect width="1" height="1" x="3" y="85"/><rect y="85" width="1" height="1" x="4"/><rect height="1" x="5" y="85" width="1"/><rect width="1" height="1" x="6" y="85"/><rect x="7" y="85" width="2" height="1"/><rect width="2" height="1" x="57" y="85"/><rect x="59" y="85" width="1" height="1"/><rect y="85" width="1" height="1" x="60"/><rect height="1" x="61" y="85" width="1"/><rect height="1" x="62" y="85" width="1"/></g><g fill="#b13"><rect height="1" x="32" y="48" width="1"/><rect x="39" y="71" width="1" height="1"/></g><g fill="#a34"><rect y="51" width="1" height="1" x="25"/><rect height="1" x="26" y="53" width="1"/><rect x="29" y="57" width="1" height="1"/></g><g fill="#b78"><rect height="1" x="25" y="44" width="1"/><rect x="38" y="65" width="1" height="1"/><rect height="1" x="45" y="73" width="1"/></g><rect x="41" y="73" width="1" height="1" fill="#a56"/><g fill="#ebc"><rect x="40" y="35" width="1" height="1"/><rect width="1" height="1" x="42" y="44"/><rect y="45" width="1" height="1" x="31"/><rect width="1" height="1" x="32" y="45"/><rect x="31" y="56" width="1" height="1"/><rect width="1" height="1" x="26" y="60"/><rect width="1" height="1" x="38" y="61"/><rect height="1" x="45" y="61" width="1"/><rect x="40" y="63" width="1" height="1"/><rect width="1" height="1" x="30" y="64"/></g><g fill="#c23"><rect height="1" x="39" y="38" width="1"/><rect width="1" height="1" x="36" y="40"/><rect x="30" y="41" width="1" height="1"/><rect height="1" x="23" y="42" width="1"/><rect x="26" y="42" width="1" height="1"/><rect height="1" x="41" y="47" width="1"/><rect width="1" height="1" x="33" y="48"/><rect x="39" y="50" width="1" height="1"/><rect height="1" x="39" y="51" width="1"/><rect x="28" y="53" width="1" height="1"/><rect x="32" y="53" width="1" height="1"/><rect height="1" x="32" y="57" width="1"/><rect y="59" width="1" height="1" x="33"/><rect x="40" y="59" width="1" height="1"/><rect width="1" height="1" x="41" y="59"/><rect x="42" y="59" width="1" height="1"/><rect x="26" y="61" width="1" height="1"/><rect x="48" y="61" width="1" height="1"/><rect width="1" height="1" x="33" y="62"/><rect width="1" height="1" x="38" y="63"/><rect y="65" width="1" height="1" x="28"/><rect y="65" width="1" height="1" x="30"/><rect y="68" width="1" height="1" x="44"/><rect x="40" y="71" width="1" height="1"/></g><g fill="#daa"><rect x="31" y="42" width="1" height="1"/><rect height="1" x="49" y="63" width="1"/><rect x="25" y="72" width="1" height="1"/></g><rect x="30" y="48" width="1" height="1" fill="#d99"/><rect x="25" y="62" width="1" height="1" fill="#a02"/><rect x="48" y="18" width="1" height="1" fill="#766"/><g fill="#ebb"><rect x="35" y="34" width="1" height="1"/><rect width="1" height="1" x="29" y="39"/><rect x="46" y="41" width="1" height="1"/><rect height="1" x="31" y="43" width="1"/><rect height="1" x="39" y="45" width="1"/><rect width="1" height="1" x="43" y="45"/><rect y="47" width="1" height="1" x="34"/><rect y="49" width="1" height="1" x="37"/><rect height="1" x="24" y="50" width="1"/><rect x="30" y="50" width="1" height="1"/><rect x="26" y="54" width="1" height="1"/><rect x="30" y="61" width="1" height="1"/><rect width="1" height="1" x="23" y="69"/><rect y="70" width="1" height="1" x="40"/></g><g fill="#a23"><rect x="35" y="42" width="1" height="1"/><rect height="1" x="34" y="55" width="1"/><rect x="47" y="67" width="1" height="1"/><rect width="1" height="1" x="24" y="70"/></g><rect x="19" y="20" width="1" fill="#998" height="1"/><g fill="#b12"><rect x="39" y="39" width="1" height="1"/><rect height="1" x="27" y="50" width="1"/><rect x="31" y="51" width="1" height="1"/></g><g fill="#934"><rect x="27" y="43" width="1" height="1"/><rect width="1" height="1" x="37" y="55"/><rect y="64" width="1" height="1" x="36"/><rect x="39" y="66" width="1" height="1"/><rect width="1" height="1" x="43" y="74"/></g><g fill="#ecc"><rect width="1" height="1" x="35" y="52"/><rect width="1" height="1" x="36" y="53"/><rect x="28" y="57" width="1" height="1"/><rect x="34" y="58" width="1" height="1"/><rect x="22" y="66" width="1" height="1"/><rect width="1" height="1" x="48" y="66"/><rect x="31" y="67" width="1" height="1"/><rect height="1" x="24" y="71" width="1"/></g><g fill="#901"><rect width="1" height="1" x="38" y="40"/><rect x="41" y="40" width="1" height="1"/><rect x="45" y="41" width="1" height="1"/><rect height="1" x="30" y="43" width="1"/><rect height="1" x="42" y="49" width="1"/><rect width="1" height="1" x="41" y="51"/><rect y="53" width="1" height="1" x="40"/><rect width="1" height="1" x="39" y="54"/><rect x="40" y="54" width="1" height="1"/><rect x="28" y="55" width="1" height="1"/><rect y="63" width="1" height="1" x="48"/><rect x="22" y="64" width="1" height="1"/><rect height="1" x="35" y="64" width="1"/><rect width="1" height="1" x="38" y="64"/><rect y="65" width="1" height="1" x="32"/><rect height="1" x="39" y="65" width="1"/><rect y="66" width="1" height="1" x="29"/><rect x="47" y="66" width="1" height="1"/><rect x="46" y="69" width="1" height="1"/><rect height="1" x="25" y="71" width="1"/><rect x="45" y="71" width="1" height="1"/><rect x="41" y="72" width="1" height="1"/><rect height="1" x="44" y="72" width="1"/></g><g fill="#c45"><rect height="1" x="27" y="48" width="1"/><rect y="48" width="1" height="1" x="28"/><rect x="30" y="51" width="1" height="1"/></g><g fill="#a12"><rect x="43" y="48" width="1" height="1"/><rect height="1" x="28" y="61" width="1"/><rect height="1" x="24" y="64" width="1"/><rect x="40" y="65" width="1" height="1"/></g><g fill="#eee"><rect width="1" height="1" x="3" y="1"/><rect width="1" height="1" x="62" y="1"/><rect x="2" y="2" width="1" height="1"/><rect height="1" x="63" y="2" width="1"/><rect width="1" height="1" x="1" y="3"/><rect y="3" width="1" height="1" x="64"/><rect width="1" height="1" x="1" y="4"/><rect x="64" y="4" width="1" height="1"/><rect x="1" y="5" width="1" height="1"/><rect x="64" y="5" width="1" height="1"/><rect height="1" x="2" y="6" width="1"/><rect x="63" y="6" width="1" height="1"/><rect x="2" y="7" width="1" height="1"/><rect x="63" y="7" width="1" height="1"/><rect y="8" width="1" height="74" x="2"/><rect y="8" width="1" height="74" x="63"/><rect width="1" height="1" x="36" y="16"/><rect x="30" y="17" width="1" height="1"/><rect y="18" width="1" height="1" x="25"/><rect height="1" x="19" y="19" width="1"/><rect x="33" y="19" width="1" height="1"/><rect height="1" x="39" y="19" width="1"/><rect width="1" height="1" x="17" y="23"/><rect x="2" y="82" width="1" height="1"/><rect width="1" height="1" x="63" y="82"/><rect width="1" height="1" x="2" y="83"/><rect y="83" width="1" height="1" x="63"/><rect width="1" height="1" x="3" y="84"/><rect x="4" y="84" width="1" height="1"/><rect width="1" height="1" x="61" y="84"/><rect height="1" x="62" y="84" width="1"/><rect x="9" y="85" width="48" height="1"/></g><g fill="#fff"><rect x="4" y="1" width="1" height="1"/><rect width="1" height="1" x="5" y="1"/><rect width="54" height="1" x="6" y="1"/><rect width="1" height="1" x="60" y="1"/><rect width="1" height="1" x="61" y="1"/><rect x="3" y="2" width="1" height="1"/><rect x="4" y="2" width="1" height="1"/><rect x="5" y="2" width="56" height="1"/><rect x="61" y="2" width="1" height="1"/><rect x="62" y="2" width="1" height="1"/><rect width="1" height="1" x="2" y="3"/><rect x="3" y="3" width="1" height="1"/><rect x="4" y="3" width="2" height="1"/><rect y="3" width="54" height="1" x="6"/><rect x="60" y="3" width="2" height="1"/><rect x="62" y="3" width="1" height="1"/><rect height="1" x="63" y="3" width="1"/><rect x="2" y="4" width="1" height="2"/><rect x="3" y="4" width="1" height="3"/><rect x="4" y="4" width="1" height="1"/><rect x="5" y="4" width="56" height="12"/><rect width="1" height="1" x="61" y="4"/><rect x="62" y="4" width="1" height="3"/><rect x="63" y="4" width="1" height="2"/><rect x="4" y="5" width="58" height="2"/><rect x="3" y="7" width="1" height="1"/><rect x="4" y="7" width="1" height="1"/><rect y="7" width="1" height="1" x="61"/><rect y="7" width="1" height="1" x="62"/><rect x="3" y="8" width="1" height="73"/><rect x="4" y="8" width="1" height="73"/><rect x="61" y="8" width="1" height="74"/><rect x="62" y="8" width="1" height="73"/><rect x="5" y="16" width="30" height="1"/><rect height="1" x="35" y="16" width="1"/><rect x="48" y="16" width="1" height="1"/><rect x="49" y="16" width="12" height="1"/><rect y="17" width="24" height="1" x="5"/><rect y="17" width="1" height="1" x="29"/><rect x="50" y="17" width="11" height="1"/><rect y="18" width="10" height="64" x="5"/><rect y="18" width="1" height="1" x="15"/><rect width="8" height="1" x="16" y="18"/><rect x="24" y="18" width="1" height="1"/><rect x="51" y="18" width="10" height="1"/><rect x="34" y="19" width="4" height="15"/><rect x="38" y="19" width="1" height="1"/><rect x="52" y="19" width="9" height="63"/><rect x="29" y="20" width="15" height="14"/><rect x="15" y="21" width="1" height="1"/><rect height="13" x="26" y="21" width="21"/><rect width="1" height="1" x="47" y="21"/><rect x="15" y="22" width="1" height="62"/><rect width="1" height="1" x="16" y="22"/><rect height="1" x="23" y="22" width="1"/><rect x="24" y="22" width="37" height="12"/><rect x="16" y="23" width="1" height="61"/><rect x="21" y="23" width="40" height="11"/><rect height="10" x="17" y="24" width="44"/><rect x="17" y="34" width="18" height="3"/><rect x="40" y="34" width="21" height="1"/><rect x="35" y="35" width="1" height="4"/><rect x="41" y="35" width="20" height="3"/><rect y="36" width="1" height="2" x="36"/><rect height="4" x="17" y="37" width="9"/><rect y="37" width="9" height="1" x="28"/><rect x="29" y="38" width="1" height="1"/><rect x="30" y="38" width="6" height="1"/><rect y="38" width="1" height="1" x="36"/><rect x="41" y="38" width="1" height="1"/><rect x="44" y="38" width="17" height="1"/><rect x="26" y="39" width="1" height="2"/><rect x="30" y="39" width="1" height="1"/><rect x="31" y="39" width="2" height="1"/><rect width="1" height="1" x="33" y="39"/><rect width="1" height="1" x="45" y="39"/><rect width="15" height="2" x="46" y="39"/><rect y="41" width="4" height="20" x="17"/><rect x="47" y="41" width="14" height="17"/><rect y="42" width="1" height="1" x="21"/><rect x="32" y="42" width="2" height="2"/><rect x="34" y="42" width="1" height="1"/><rect x="38" y="42" width="1" height="1"/><rect width="6" height="1" x="39" y="42"/><rect x="21" y="43" width="1" height="18"/><rect x="22" y="43" width="1" height="1"/><rect x="37" y="43" width="1" height="1"/><rect x="38" y="43" width="2" height="2"/><rect x="40" y="43" width="1" height="1"/><rect width="1" height="1" x="42" y="43"/><rect height="2" x="43" y="43" width="18"/><rect x="22" y="44" width="2" height="16"/><rect width="1" height="3" x="27" y="44"/><rect width="1" height="1" x="28" y="44"/><rect x="32" y="44" width="1" height="1"/><rect width="1" height="1" x="36" y="44"/><rect width="3" height="1" x="37" y="44"/><rect width="5" height="1" x="24" y="45"/><rect width="1" height="1" x="29" y="45"/><rect width="17" height="1" x="44" y="45"/><rect x="24" y="46" width="1" height="1"/><rect x="25" y="46" width="1" height="1"/><rect width="1" height="1" x="28" y="46"/><rect y="46" width="16" height="12" x="45"/><rect x="24" y="47" width="1" height="1"/><rect y="47" width="1" height="1" x="36"/><rect width="2" height="2" x="37" y="47"/><rect y="48" width="3" height="1" x="36"/><rect x="28" y="49" width="4" height="1"/><rect width="1" height="1" x="38" y="49"/><rect x="44" y="49" width="17" height="9"/><rect x="28" y="50" width="1" height="1"/><rect height="1" x="29" y="50" width="1"/><rect x="43" y="50" width="1" height="1"/><rect y="51" width="1" height="1" x="24"/><rect x="37" y="51" width="1" height="2"/><rect y="51" width="18" height="7" x="43"/><rect x="24" y="52" width="1" height="8"/><rect width="3" height="1" x="29" y="52"/><rect width="1" height="1" x="36" y="52"/><rect width="1" height="7" x="25" y="53"/><rect height="1" x="30" y="53" width="1"/><rect x="31" y="53" width="1" height="1"/><rect x="42" y="53" width="19" height="5"/><rect x="26" y="55" width="1" height="5"/><rect width="20" height="3" x="41" y="55"/><rect x="35" y="56" width="2" height="3"/><rect width="1" height="1" x="37" y="56"/><rect x="27" y="57" width="1" height="3"/><rect x="30" y="57" width="1" height="1"/><rect x="31" y="57" width="1" height="2"/><rect height="2" x="37" y="57" width="1"/><rect x="38" y="57" width="1" height="1"/><rect x="39" y="57" width="1" height="1"/><rect height="1" x="40" y="57" width="21"/><rect x="28" y="58" width="4" height="1"/><rect height="1" x="38" y="58" width="1"/><rect x="39" y="58" width="1" height="1"/><rect y="58" width="1" height="1" x="40"/><rect height="1" x="41" y="58" width="1"/><rect x="47" y="58" width="1" height="1"/><rect height="1" x="48" y="58" width="13"/><rect x="28" y="59" width="1" height="1"/><rect y="59" width="1" height="1" x="49"/><rect x="50" y="59" width="11" height="1"/><rect width="1" height="1" x="24" y="60"/><rect x="37" y="60" width="1" height="1"/><rect width="5" height="1" x="38" y="60"/><rect width="1" height="1" x="43" y="60"/><rect width="1" height="1" x="50" y="60"/><rect x="51" y="60" width="10" height="22"/><rect y="61" width="3" height="23" x="17"/><rect x="20" y="61" width="1" height="1"/><rect y="61" width="1" height="1" x="34"/><rect x="39" y="61" width="1" height="1"/><rect width="5" height="2" x="40" y="61"/><rect height="1" x="28" y="62" width="1"/><rect x="29" y="62" width="2" height="2"/><rect x="34" y="62" width="2" height="1"/><rect height="20" x="50" y="62" width="11"/><rect width="1" height="21" x="20" y="63"/><rect y="63" width="5" height="1" x="26"/><rect y="63" width="4" height="1" x="41"/><rect x="25" y="64" width="1" height="1"/><rect height="4" x="26" y="64" width="1"/><rect x="41" y="64" width="3" height="3"/><rect y="64" width="1" height="1" x="49"/><rect y="65" width="1" height="19" x="21"/><rect height="4" x="36" y="65" width="2"/><rect x="49" y="65" width="12" height="17"/><rect width="4" height="3" x="34" y="66"/><rect height="1" x="38" y="66" width="1"/><rect x="22" y="67" width="1" height="1"/><rect height="17" x="27" y="67" width="1"/><rect x="28" y="67" width="1" height="1"/><rect y="67" width="7" height="2" x="32"/><rect x="41" y="67" width="2" height="3"/><rect x="48" y="67" width="13" height="15"/><rect width="1" height="16" x="22" y="68"/><rect height="1" x="26" y="68" width="1"/><rect height="1" x="28" y="68" width="12"/><rect height="1" x="40" y="68" width="1"/><rect width="9" height="15" x="28" y="69"/><rect width="1" height="1" x="39" y="69"/><rect width="3" height="1" x="40" y="69"/><rect width="1" height="1" x="23" y="70"/><rect y="70" width="1" height="1" x="37"/><rect x="47" y="70" width="14" height="12"/><rect height="13" x="23" y="71" width="1"/><rect y="71" width="1" height="13" x="37"/><rect x="24" y="72" width="1" height="12"/><rect y="72" width="1" height="12" x="38"/><rect x="46" y="72" width="1" height="1"/><rect x="25" y="73" width="15" height="11"/><rect x="46" y="73" width="15" height="9"/><rect x="40" y="74" width="2" height="10"/><rect width="19" height="7" x="42" y="75"/><rect height="1" x="3" y="81" width="1"/><rect x="4" y="81" width="1" height="2"/><rect x="62" y="81" width="1" height="1"/><rect x="3" y="82" width="1" height="1"/><rect x="5" y="82" width="1" height="1"/><rect y="82" width="54" height="1" x="6"/><rect width="1" height="1" x="60" y="82"/><rect height="1" x="61" y="82" width="1"/><rect x="62" y="82" width="1" height="1"/><rect width="1" height="1" x="3" y="83"/><rect x="4" y="83" width="1" height="1"/><rect x="5" y="83" width="1" height="1"/><rect x="6" y="83" width="1" height="1"/><rect y="83" width="52" height="1" x="7"/><rect x="59" y="83" width="1" height="1"/><rect x="60" y="83" width="1" height="1"/><rect x="61" y="83" width="1" height="1"/><rect height="1" x="62" y="83" width="1"/><rect height="1" x="5" y="84" width="1"/><rect x="6" y="84" width="1" height="1"/><rect x="7" y="84" width="1" height="1"/><rect height="1" x="8" y="84" width="50"/><rect height="1" x="58" y="84" width="1"/><rect y="84" width="1" height="1" x="59"/><rect y="84" width="1" height="1" x="60"/></g><rect y="20" width="1" height="1" fill="#222" x="16"/><rect height="1" fill="#b23" x="23" y="67" width="1"/><g fill="#666"><rect y="17" width="1" height="1" x="35"/><rect height="1" x="43" y="17" width="1"/><rect x="25" y="19" width="1" height="1"/><rect y="19" width="1" height="1" x="42"/><rect y="23" width="1" height="1" x="18"/><rect y="88" width="1" height="1"/><rect y="88" width="1" height="1" x="1"/><rect x="64" y="88" width="1" height="1"/><rect x="65" y="88" width="1" height="1"/><rect x="1" y="89" width="1" height="1"/><rect y="89" width="1" height="1" x="2"/><rect height="1" x="3" y="89" width="1"/><rect width="58" height="1" x="4" y="89"/><rect x="62" y="89" width="1" height="1"/><rect height="1" x="63" y="89" width="1"/><rect height="1" x="64" y="89" width="1"/></g><g fill="#c24"><rect height="1" x="39" y="37" width="1"/><rect width="1" height="1" x="32" y="41"/><rect height="1" x="33" y="49" width="1"/><rect x="38" y="53" width="1" height="1"/><rect x="29" y="60" width="1" height="1"/><rect height="1" x="44" y="70" width="1"/></g><g fill="#c02"><rect x="44" y="40" width="1" height="1"/><rect width="1" height="1" x="31" y="41"/><rect width="1" height="1" x="32" y="47"/><rect x="40" y="47" width="1" height="1"/><rect y="47" width="1" height="1" x="42"/><rect width="1" height="1" x="40" y="48"/><rect x="27" y="51" width="1" height="1"/><rect x="27" y="52" width="1" height="1"/><rect height="1" x="34" y="53" width="1"/><rect x="28" y="54" width="1" height="1"/><rect width="1" height="1" x="30" y="55"/><rect height="1" x="49" y="61" width="1"/><rect x="32" y="62" width="1" height="1"/><rect y="62" width="1" height="1" x="46"/><rect width="1" height="1" x="47" y="62"/><rect x="46" y="65" width="1" height="1"/><rect width="1" height="1" x="24" y="66"/><rect y="68" width="1" height="1" x="45"/></g><g fill="#655"><rect width="1" height="1" x="36" y="17"/><rect y="17" width="1" height="1" x="42"/><rect width="1" height="1" x="15" y="19"/><rect x="16" y="21" width="1" height="1"/></g><g fill="#fdd"><rect x="21" y="41" width="1" height="1"/><rect x="22" y="41" width="1" height="1"/><rect x="25" y="41" width="1" height="1"/><rect x="40" y="44" width="1" height="1"/><rect width="1" height="1" x="35" y="45"/><rect height="1" x="44" y="46" width="1"/><rect x="35" y="47" width="1" height="1"/><rect width="1" height="1" x="38" y="50"/><rect width="1" height="1" x="36" y="51"/><rect x="29" y="59" width="1" height="1"/><rect width="1" height="1" x="23" y="60"/><rect height="1" x="25" y="60" width="1"/><rect x="44" y="60" width="1" height="1"/><rect x="35" y="61" width="1" height="1"/><rect x="20" y="62" width="1" height="1"/><rect y="64" width="1" height="1" x="28"/><rect height="1" x="44" y="64" width="1"/><rect y="69" width="1" height="1" x="37"/><rect width="1" height="1" x="38" y="71"/></g><g fill="#b67"><rect width="1" height="1" x="37" y="42"/><rect height="1" x="40" y="55" width="1"/><rect x="48" y="65" width="1" height="1"/><rect height="1" x="30" y="67" width="1"/></g><g fill="#b56"><rect width="1" height="1" x="26" y="62"/><rect x="40" y="67" width="1" height="1"/><rect width="1" height="1" x="46" y="70"/></g><rect height="1" x="45" y="72" width="1" fill="#922"/><rect fill="#cbb" x="32" y="17" width="1" height="1"/><rect y="18" fill="#443" width="1" height="1" x="30"/><g fill="#e99"><rect height="1" x="27" y="39" width="1"/><rect y="47" width="1" height="1" x="26"/><rect height="1" x="27" y="47" width="1"/><rect height="1" x="23" y="61" width="1"/><rect x="36" y="62" width="1" height="1"/><rect width="1" height="1" x="44" y="65"/></g><rect width="1" height="1" fill="#b88" x="29" y="67"/><g fill="#dcc"><rect x="49" y="17" width="1" height="1"/><rect x="26" y="18" width="1" height="1"/><rect height="1" x="41" y="41" width="1"/><rect height="1" x="26" y="44" width="1"/><rect x="35" y="65" width="1" height="1"/></g><g fill="#988"><rect y="18" width="1" height="1" x="28"/><rect x="27" y="20" width="1" height="1"/></g><rect x="34" y="65" width="1" height="1" fill="#945"/><g fill="#dbb"><rect x="25" y="52" width="1" height="1"/><rect width="1" height="1" x="27" y="62"/><rect height="1" x="46" y="71" width="1"/></g><g fill="#701"><rect x="38" y="55" width="1" height="1"/><rect x="39" y="55" width="1" height="1"/><rect x="33" y="65" width="1" height="1"/><rect width="1" height="1" x="31" y="66"/><rect width="2" height="1" x="42" y="73"/><rect x="44" y="73" width="1" height="1"/></g><g fill="#b45"><rect width="1" height="1" x="49" y="62"/><rect width="1" height="1" x="21" y="63"/></g><g fill="#812"><rect x="28" y="56" width="1" height="1"/><rect height="1" x="39" y="56" width="1"/></g><rect x="34" y="57" width="1" height="1" fill="#d89"/><rect x="43" y="19" width="1" height="1" fill="#322"/><g fill="#c34"><rect height="1" x="37" y="36" width="1"/><rect x="38" y="37" width="1" height="1"/><rect y="38" width="1" height="1" x="37"/><rect width="1" height="1" x="38" y="38"/><rect width="1" height="1" x="37" y="39"/><rect width="1" height="1" x="29" y="41"/><rect width="1" height="1" x="40" y="46"/><rect x="43" y="46" width="1" height="1"/><rect height="1" x="24" y="49" width="1"/><rect y="49" width="1" height="1" x="34"/><rect x="35" y="49" width="1" height="1"/><rect y="49" width="1" height="1" x="39"/><rect x="32" y="52" width="1" height="1"/><rect width="1" height="1" x="32" y="58"/><rect y="58" width="1" height="1" x="33"/><rect width="1" height="1" x="32" y="59"/><rect y="59" width="1" height="1" x="35"/><rect x="39" y="59" width="1" height="1"/><rect x="44" y="59" width="1" height="1"/><rect y="61" width="1" height="1" x="47"/><rect width="1" height="1" x="22" y="62"/><rect x="32" y="63" width="1" height="1"/><rect x="33" y="63" width="1" height="1"/><rect x="45" y="63" width="1" height="1"/><rect y="65" width="1" height="1" x="29"/><rect x="44" y="69" width="1" height="1"/><rect height="1" x="43" y="71" width="1"/></g><g fill="#e88"><rect height="1" x="36" y="39" width="1"/><rect y="65" width="1" height="1" x="27"/><rect height="1" x="43" y="69" width="1"/></g><rect height="1" fill="#c35" x="24" y="42" width="1"/><rect x="46" y="16" width="1" height="1" fill="#ccb"/><g fill="#665"><rect x="29" y="18" width="1" height="1"/><rect y="20" width="1" height="1" x="17"/></g><g fill="#d77"><rect y="38" width="1" height="1" x="27"/><rect x="33" y="45" width="1" height="1"/><rect y="59" width="1" height="1" x="31"/><rect y="61" width="1" height="1" x="37"/></g><g fill="#d78"><rect x="36" y="34" width="1" height="1"/><rect x="38" y="35" width="1" height="1"/><rect height="1" x="43" y="39" width="1"/><rect width="1" height="1" x="28" y="40"/><rect height="1" x="45" y="40" width="1"/><rect height="1" x="34" y="43" width="1"/><rect height="1" x="35" y="44" width="1"/><rect height="1" x="34" y="45" width="1"/><rect y="45" width="1" height="1" x="42"/><rect x="39" y="48" width="1" height="1"/><rect y="49" width="1" height="1" x="36"/><rect x="37" y="50" width="1" height="1"/><rect x="31" y="54" width="1" height="1"/><rect width="1" height="1" x="47" y="60"/><rect x="49" y="60" width="1" height="1"/><rect x="45" y="62" width="1" height="1"/></g><g fill="#b66"><rect x="34" y="56" width="1" height="1"/><rect y="64" width="1" height="1" x="37"/><rect width="1" height="1" x="22" y="65"/><rect width="1" height="1" x="26" y="72"/></g><g fill="#333"><rect height="1" x="29" y="19" width="1"/><rect x="50" y="19" width="1" height="1"/><rect y="20" width="1" height="1" x="26"/></g><g fill="#100"><rect y="19" width="2" height="1" x="44"/><rect x="48" y="20" width="1" height="1"/><rect x="18" y="22" width="3" height="1"/></g><g fill="#b34"><rect x="32" y="56" width="1" height="1"/><rect x="24" y="63" width="1" height="1"/><rect x="28" y="66" width="1" height="1"/></g><rect width="1" height="1" fill="#a67" x="38" y="41"/><g fill="#999"><rect height="1" y="3" width="1"/><rect x="65" y="3" width="1" height="1"/><rect y="4" width="1" height="1"/><rect x="65" y="4" width="1" height="1"/><rect height="1" x="46" y="17" width="1"/><rect x="47" y="17" width="1" height="1"/><rect y="17" width="1" height="1" x="48"/><rect width="1" height="1" x="16" y="19"/><rect height="1" x="41" y="19" width="1"/><rect height="1" x="15" y="20" width="1"/><rect height="1" x="3" y="88" width="1"/><rect x="62" y="88" width="1" height="1"/></g><g fill="#d45"><rect x="37" y="35" width="1" height="1"/><rect y="36" width="1" height="1" x="38"/><rect width="1" height="1" x="39" y="36"/><rect height="1" x="37" y="37" width="1"/><rect height="1" x="40" y="39" width="1"/><rect x="41" y="39" width="1" height="1"/><rect width="1" height="1" x="35" y="40"/><rect x="28" y="41" width="1" height="1"/><rect width="1" height="1" x="25" y="42"/><rect height="1" x="34" y="44" width="1"/><rect width="1" height="1" x="32" y="46"/><rect width="1" height="1" x="33" y="46"/><rect height="1" x="38" y="46" width="1"/><rect x="42" y="46" width="1" height="1"/><rect x="33" y="47" width="1" height="1"/><rect y="48" width="1" height="1" x="24"/><rect x="38" y="52" width="1" height="1"/><rect x="38" y="59" width="1" height="1"/><rect height="1" x="46" y="60" width="1"/><rect width="1" height="1" x="36" y="61"/><rect height="1" x="23" y="62" width="1"/><rect height="1" x="39" y="63" width="1"/><rect height="1" x="40" y="64" width="1"/><rect height="1" x="44" y="66" width="1"/><rect x="25" y="67" width="1" height="1"/><rect height="1" x="38" y="70" width="1"/><rect height="1" x="41" y="71" width="1"/></g><g fill="#a01"><rect height="1" x="42" y="40" width="1"/><rect x="36" y="41" width="1" height="1"/><rect height="1" x="28" y="42" width="1"/><rect y="42" width="1" height="1" x="29"/><rect x="30" y="42" width="1" height="1"/><rect height="1" x="30" y="44" width="1"/><rect x="42" y="48" width="1" height="1"/><rect height="1" x="25" y="50" width="1"/><rect height="1" x="41" y="50" width="1"/><rect x="26" y="51" width="1" height="1"/><rect x="26" y="52" width="1" height="1"/><rect width="1" height="1" x="40" y="52"/><rect x="27" y="54" width="1" height="1"/><rect height="1" x="38" y="54" width="1"/><rect height="1" x="33" y="55" width="1"/><rect x="33" y="56" width="1" height="1"/><rect height="1" x="22" y="63" width="1"/><rect x="23" y="64" width="1" height="1"/><rect x="34" y="64" width="1" height="1"/><rect height="1" x="47" y="64" width="1"/><rect y="65" width="1" height="1" x="23"/><rect x="47" y="65" width="1" height="1"/><rect x="23" y="66" width="1" height="1"/><rect height="1" x="46" y="67" width="1"/><rect x="46" y="68" width="1" height="1"/><rect x="24" y="69" width="1" height="1"/><rect x="25" y="70" width="1" height="1"/><rect x="45" y="70" width="1" height="1"/><rect width="1" height="1" x="42" y="72"/><rect x="43" y="72" width="1" height="1"/></g></svg>