<svg xmlns="http://www.w3.org/2000/svg" width="66" height="90" baseProfile="tiny" version="1.2"><path fill="#555" d="M37 17h1v1h-1zm9 3h1v1h-1zm5 1h1v1h-1z"/><path fill="#a55" d="M28 43h1v1h-1zm-1 12h1v1h-1zm5 11h1v1h-1z"/><path fill="#bbb" d="M0 1h1v1H0zm1 0h1v1H1zm63 0h1v1h-1zm1 0h1v1h-1zM40 16h1v1h-1zm1 0h1v1h-1zm4 0h1v1h-1zm-18 2h1v1h-1zm23 0h1v1h-1zm-28 1h1v1h-1zM1 85h1v1H1zm63 0h1v1h-1zM2 86h1v1H2zm1 0h1v1H3zm59 0h1v1h-1zm1 0h1v1h-1z"/><path fill="#eab" d="M37 34h1v1h-1zm-11 7h1v1h-1zm5 3h1v1h-1zm-3 7h1v1h-1zm7 2h1v1h-1zm-5 6h1v1h-1zm-9 2h1v1h-1zm10 0h1v1h-1zm12 7h1v1h-1z"/><path fill="#e9a" d="M40 37h1v1h-1zm4 2h1v1h-1zm-13 1h1v1h-1zm10 4h1v1h-1zm-11 2h1v1h-1zm7 7h1v1h-1zm10 6h1v1h-1zm-16 4h1v1h-1z"/><path fill="#ccc" d="M1 0h1v1H1zm1 0h1v1H2zm61 0h1v1h-1zm1 0h1v1h-1zM1 2h1v1H1zm63 0h1v1h-1zM39 16h1v1h-1zm-22 3h1v1h-1zm4 0h1v1h-1zm11 0h1v1h-1zm8 0h1v1h-1zm-15 2h1v1h-1zm23 0h1v1h-1zM1 84h1v1H1zm63 0h1v1h-1zM2 85h1v1H2zm61 0h1v1h-1zM4 86h1v1H4zm1 0h1v1H5zm1 0h1v1H6zm1 0h52v1H7zm52 0h1v1h-1zm1 0h1v1h-1zm1 0h1v1h-1z"/><path fill="#a45" d="M44 41h1v1h-1zm-15 3h1v1h-1z"/><path fill="#dbc" d="M42 74h1v1h-1z"/><path fill="#aaa" d="M0 2h1v1H0zm65 0h1v1h-1zM33 17h1v1h-1zm-2 2h1v1h-1zm20 0h1v1h-1zm-29 3h1v1h-1zM1 86h1v1H1zm63 0h1v1h-1zM2 87h1v1H2zm1 0h1v1H3zm1 0h1v1H4zm1 0h56v1H5zm56 0h1v1h-1zm1 0h1v1h-1zm1 0h1v1h-1zM4 88h1v1H4zm1 0h56v1H5zm56 0h1v1h-1z"/><path fill="#d56" d="M34 40h1v1h-1zm-12 2h1v1h-1zm8 3h1v1h-1zm1 1h1v1h-1zm10 0h1v1h-1zm-13 1h1v1h-1zm-3 1h1v1h-1zm9 0h1v1h-1zm2 11h1v1h-1zm1 0h1v1h-1zm-9 1h1v1h-1zm9 2h1v1h-1zm1 0h1v1h-1zm-3 1h1v1h-1zm-4 1h1v1h-1zm11 7h1v1h-1z"/><path fill="#eaa" d="M34 41h1v1h-1zm-9 6h1v1h-1zm19 0h1v1h-1zm-15 4h1v1h-1zm2 11h1v1h-1zm3 1h1v1h-1z"/><path fill="#d66" d="M32 49h1v1h-1zm-4 3h1v1h-1zm17 7h1v1h-1zm-20 2h1v1h-1zm18 9h1v1h-1z"/><path fill="#111" d="M33 18h1v1h-1zm10 0h1v1h-1zm1 0h1v1h-1zm-16 1h1v1h-1zm20 0h1v1h-1zm-24 1h1v1h-1zm1 0h1v1h-1zm25 0h1v1h-1zm-33 1h1v1h-1zm3 0h1v1h-1zm1 0h1v1h-1z"/><path fill="#110" d="M38 18h1v1h-1zm1 0h2v1h-2zm2 0h1v1h-1zm1 0h1v1h-1zm4 1h1v1h-1zm1 0h1v1h-1zm2 1h1v1h-1zm-27 1h1v1h-1z"/><path fill="#b02" d="M38 39h1v1h-1zm-1 1h1v1h-1zm6 0h1v1h-1zm-16 2h1v1h-1zm8 1h1v1h-1zm0 3h1v1h-1zm1 0h1v1h-1zm-6 1h1v1h-1zm1 0h1v1h-1zm12 0h1v1h-1zm-2 1h1v1h-1zm-16 1h1v1h-1zm16 0h1v1h-1zm-15 1h1v1h-1zm6 0h1v1h-1zm3 0h1v1h-1zm-3 1h1v1h-1zm1 0h1v1h-1zm1 0h1v1h-1zm6 0h1v1h-1zm-7 1h1v1h-1zm1 0h1v1h-1zm-7 1h1v1h-1zm12 0h1v1h-1zm-6 1h1v1h-1zm1 0h1v1h-1zm1 0h1v1h-1zm1 0h1v1h-1zm1 0h1v1h-1zm-8 1h1v1h-1zm2 0h1v1h-1zm1 0h1v1h-1zm1 2h1v1h-1zm-1 3h1v1h-1zm1 0h1v1h-1zm-6 1h1v1h-1zm5 0h1v1h-1zm1 0h1v1h-1zm15 1h1v1h-1zm-25 1h1v1h-1zm13 0h1v1h-1zm1 0h1v1h-1zm10 0h1v1h-1zm-14 1h1v1h-1zm6 0h1v1h-1zm-15 1h1v1h-1zm7 0h1v1h-1zm15 1h1v1h-1zm-22 1h1v1h-1zm0 1h1v1h-1zm1 1h1v1h-1zm20 0h1v1h-1zm-1 2h1v1h-1z"/><path fill="#c56" d="M31 50h1v1h-1zm4 1h1v1h-1z"/><path fill="#777" d="M44 17h1v1h-1zm5 1h1v1h-1zm-28 2h1v1h-1zm3 1h1v1h-1zM0 84h1v1H0zm65 0h1v1h-1zM0 85h1v1H0zm65 0h1v1h-1zM0 86h1v1H0zm65 0h1v1h-1zM0 87h1v1H0zm65 0h1v1h-1z"/><path fill="#e89" d="M36 35h1v1h-1zm-8 4h1v1h-1zm1 1h1v1h-1zm1 0h1v1h-1zm10 5h1v1h-1zm1 0h1v1h-1zm-3 6h1v1h-1zm-9 3h1v1h-1zm17 5h1v1h-1zm-19 1h1v1h-1zm8 0h1v1h-1zm-13 1h1v1h-1zm2 0h1v1h-1zm15 1h1v1h-1zm-14 4h1v1h-1z"/><path fill="#801" d="M39 40h1v1h-1zm1 0h1v1h-1zm-3 1h1v1h-1zm-1 1h1v1h-1zm-11 1h1v1h-1zm1 0h1v1h-1zm3 0h1v1h-1zm0 13h1v1h-1zm1 10h1v1h-1z"/><path fill="#fee" d="M39 34h1v1h-1zm-12 3h1v1h-1zm-1 1h1v1h-1zm14 0h1v1h-1zm2 0h1v1h-1zm1 0h1v1h-1zm-9 1h1v1h-1zm-11 2h1v1h-1zm1 0h1v1h-1zm15 0h1v1h-1zm-13 5h1v1h-1zm3 0h1v1h-1zm15 2h1v1h-1zm-2 4h1v1h-1zm-13 1h1v1h-1zm12 1h1v1h-1zm-14 2h1v1h-1zm13 0h1v1h-1zm2 2h1v1h-1zm1 0h1v1h-1zm1 0h1v1h-1zm2 0h1v1h-1zm-24 2h1v1h-1zm28 1h1v1h-1zm-25 2h1v1h-1zm2 3h1v1h-1zm16 1h1v1h-1zm4 2h1v1h-1zm-7 4h1v1h-1zm5 1h1v1h-1z"/><path fill="#c13" d="M34 46h1v1h-1zm-5 1h1v1h-1zm4 3h1v1h-1zm6 2h1v1h-1zm-7 2h1v1h-1zm2 5h1v1h-1zm-10 3h1v1h-1zm21 3h1v1h-1zm0 1h1v1h-1zm-1 1h1v1h-1z"/><path fill="#baa" d="M42 16h1v1h-1zm1 0h1v1h-1zm1 0h1v1h-1z"/><path fill="#fcc" d="M38 34h1v1h-1zm-12 3h1v1h-1zm2 1h1v1h-1zm13 5h1v1h-1zm-5 2h1v1h-1zm1 0h2v1h-2zm2 2h1v1h-1zm9 12h1v1h-1zm-12 1h1v1h-1zm-11 5h1v1h-1zm1 4h1v1h-1z"/><path fill="#c67" d="M36 43h1v1h-1zm-7 5h1v1h-1zm0 13h1v1h-1zm-6 7h1v1h-1z"/><path fill="#a99" d="M23 19h1v1h-1zm22 1h1v1h-1z"/><path fill="#887" d="M49 21h1v1h-1zm-30 2h1v1h-1z"/><path fill="#c12" d="M37 46h1v1h-1zm-11 3h1v1h-1zm14 0h1v1h-1zm-6 1h1v1h-1zm2 0h1v1h-1zm4 0h1v1h-1zm-7 3h1v1h-1zm10 6h1v1h-1zm-13 1h1v1h-1zm1 0h1v1h-1zm15 1h1v1h-1zm-25 1h1v1h-1zm25 1h1v2h-1zm-14 1h1v1h-1zm13 0h1v1h-1zm0 3h1v1h-1zm-20 1h1v1h-1z"/><path fill="#d67" d="M39 35h1v1h-1zm1 1h1v1h-1zm2 3h1v1h-1zm-9 1h1v1h-1zm-6 1h1v1h-1zm6 0h1v1h-1zm2 0h1v1h-1zm4 5h1v1h-1zm-13 2h1v1h-1zm1 1h1v1h-1zm21 11h1v1h-1zm-9 10h1v1h-1z"/><path fill="#c78" d="M41 53h1v1h-1zM26 71h1v1h-1z"/><path fill="#c66" d="M34 60h1v1h-1z"/><path fill="#d9a" d="M26 70h1v1h-1z"/><path fill="#888" d="M0 5h1v1H0zm65 0h1v1h-1zM0 6h1v1H0zm65 0h1v1h-1zM0 7h1v1H0zm65 0h1v1h-1zM0 8h1v73H0zm65 0h1v73h-1zm-31 9h1v1h-1zm11 0h1v1h-1zm-21 2h1v1h-1zm-6 1h1v1h-1zm2 0h1v1h-1zM0 81h1v2H0zm65 0h1v2h-1zM0 83h1v1H0zm65 0h1v1h-1zM1 87h1v1H1zm63 0h1v1h-1zM2 88h1v1H2zm61 0h1v1h-1z"/><path fill="#eed" d="M37 16h1v1h-1z"/><path fill="#433" d="M26 19h1v1h-1zm-9 3h1v1h-1z"/><path fill="#544" d="M38 17h1v1h-1zm1 0h1v1h-1zm1 0h1v1h-1zm1 0h1v1h-1zm6 1h1v1h-1zm-25 2h1v1h-1zm28 1h1v1h-1zm-29 1h1v1h-1z"/><path fill="#fcd" d="M35 39h1v1h-1zm-2 5h1v1h-1zm-3 10h1v1h-1zm-1 10h1v1h-1zm9 5h1v1h-1z"/><path fill="#c88" d="M43 41h1v1h-1zm0 8h1v1h-1zm-1 2h1v1h-1zm-6 4h1v1h-1z"/><path fill="#ecd" d="M46 42h1v1h-1zM33 66h1v1h-1z"/><path fill="#912" d="M24 43h1v1h-1zm18 7h1v1h-1zm-1 2h1v1h-1zm7 12h1v1h-1zm-8 2h1v1h-1z"/><path fill="#221" d="M31 18h1v1h-1zm4 0h1v1h-1zm1 0h1v1h-1zm-13 3h1v1h-1z"/><path fill="#776" d="M30 19h1v1h-1z"/><path fill="#d88" d="M32 40h1v1h-1zm-1 8h1v1h-1zm14 12h1v1h-1z"/><path fill="#fde" d="M27 40h1v1h-1zm18 2h1v1h-1zm-10 6h1v1h-1zm10 10h1v1h-1zm-18 6h1v1h-1zm12 3h1v1h-1zm2 3h1v1h-1zm1 0h1v1h-1z"/><path fill="#c89" d="M23 43h1v1h-1zm12 12h1v1h-1zm-5 1h1v1h-1zm17 12h1v1h-1z"/><path fill="#944" d="M38 56h1v1h-1z"/><path fill="#923" d="M40 72h1v1h-1z"/><path fill="#712" d="M44 74h1v1h-1z"/><path fill="#211" d="M32 18h1v1h-1zm2 0h1v1h-1zm3 0h1v1h-1zm8 0h1v1h-1zm1 0h1v1h-1zm-19 1h1v1h-1zm22 0h1v1h-1zm-26 1h1v1h-1zm24 0h1v1h-1zm4 0h1v1h-1zm-33 1h1v1h-1zm1 0h1v1h-1z"/><path fill="#edd" d="M40 41h1v1h-1zm-16 3h1v1h-1zm-3 20h1v1h-1zm18 8h1v1h-1z"/><path fill="#dab" d="M42 41h1v1h-1z"/><path fill="#ddd" d="M3 0h1v1H3zm1 0h1v1H4zm1 0h56v1H5zm56 0h1v1h-1zm1 0h1v1h-1zM2 1h1v1H2zm61 0h1v1h-1zM1 6h1v1H1zm63 0h1v1h-1zM1 7h1v1H1zm63 0h1v1h-1zM1 8h1v1H1zm63 0h1v1h-1zM1 9h1v73H1zm63 0h1v73h-1zm-26 7h1v1h-1zm9 0h1v1h-1zm-16 1h1v1h-1zm-13 2h1v1h-1zm2 0h1v1h-1zm8 1h1v1h-1zm16 0h1v1h-1zm-24 3h1v1h-1zM1 82h1v1H1zm63 0h1v1h-1zM1 83h1v1H1zm63 0h1v1h-1zM2 84h1v1H2zm61 0h1v1h-1zM3 85h1v1H3zm1 0h1v1H4zm1 0h1v1H5zm1 0h1v1H6zm1 0h2v1H7zm50 0h2v1h-2zm2 0h1v1h-1zm1 0h1v1h-1zm1 0h1v1h-1zm1 0h1v1h-1z"/><path fill="#b13" d="M32 48h1v1h-1zm7 23h1v1h-1z"/><path fill="#a34" d="M25 51h1v1h-1zm1 2h1v1h-1zm3 4h1v1h-1z"/><path fill="#b78" d="M25 44h1v1h-1zm13 21h1v1h-1zm7 8h1v1h-1z"/><path fill="#a56" d="M41 73h1v1h-1z"/><path fill="#ebc" d="M40 35h1v1h-1zm2 9h1v1h-1zm-11 1h1v1h-1zm1 0h1v1h-1zm-1 11h1v1h-1zm-5 4h1v1h-1zm12 1h1v1h-1zm7 0h1v1h-1zm-5 2h1v1h-1zm-10 1h1v1h-1z"/><path fill="#c23" d="M39 38h1v1h-1zm-3 2h1v1h-1zm-6 1h1v1h-1zm-7 1h1v1h-1zm3 0h1v1h-1zm15 5h1v1h-1zm-8 1h1v1h-1zm6 2h1v1h-1zm0 1h1v1h-1zm-11 2h1v1h-1zm4 0h1v1h-1zm0 4h1v1h-1zm1 2h1v1h-1zm7 0h1v1h-1zm1 0h1v1h-1zm1 0h1v1h-1zm-16 2h1v1h-1zm22 0h1v1h-1zm-15 1h1v1h-1zm5 1h1v1h-1zm-10 2h1v1h-1zm2 0h1v1h-1zm14 3h1v1h-1zm-4 3h1v1h-1z"/><path fill="#daa" d="M31 42h1v1h-1zm18 21h1v1h-1zm-24 9h1v1h-1z"/><path fill="#d99" d="M30 48h1v1h-1z"/><path fill="#a02" d="M25 62h1v1h-1z"/><path fill="#766" d="M48 18h1v1h-1z"/><path fill="#ebb" d="M35 34h1v1h-1zm-6 5h1v1h-1zm17 2h1v1h-1zm-15 2h1v1h-1zm8 2h1v1h-1zm4 0h1v1h-1zm-9 2h1v1h-1zm3 2h1v1h-1zm-13 1h1v1h-1zm6 0h1v1h-1zm-4 4h1v1h-1zm4 7h1v1h-1zm-7 8h1v1h-1zm17 1h1v1h-1z"/><path fill="#a23" d="M35 42h1v1h-1zm-1 13h1v1h-1zm13 12h1v1h-1zm-23 3h1v1h-1z"/><path fill="#998" d="M19 20h1v1h-1z"/><path fill="#b12" d="M39 39h1v1h-1zM27 50h1v1h-1zm4 1h1v1h-1z"/><path fill="#934" d="M27 43h1v1h-1zm10 12h1v1h-1zm-1 9h1v1h-1zm3 2h1v1h-1zm4 8h1v1h-1z"/><path fill="#ecc" d="M35 52h1v1h-1zm1 1h1v1h-1zm-8 4h1v1h-1zm6 1h1v1h-1zm-12 8h1v1h-1zm26 0h1v1h-1zm-17 1h1v1h-1zm-7 4h1v1h-1z"/><path fill="#901" d="M38 40h1v1h-1zm3 0h1v1h-1zm4 1h1v1h-1zm-15 2h1v1h-1zm12 6h1v1h-1zm-1 2h1v1h-1zm-1 2h1v1h-1zm-1 1h1v1h-1zm1 0h1v1h-1zm-12 1h1v1h-1zm20 8h1v1h-1zm-26 1h1v1h-1zm13 0h1v1h-1zm3 0h1v1h-1zm-6 1h1v1h-1zm7 0h1v1h-1zm-10 1h1v1h-1zm18 0h1v1h-1zm-1 3h1v1h-1zm-21 2h1v1h-1zm20 0h1v1h-1zm-4 1h1v1h-1zm3 0h1v1h-1z"/><path fill="#c45" d="M27 48h1v1h-1zm1 0h1v1h-1zm2 3h1v1h-1z"/><path fill="#a12" d="M43 48h1v1h-1zM28 61h1v1h-1zm-4 3h1v1h-1zm16 1h1v1h-1z"/><path fill="#eee" d="M3 1h1v1H3zm59 0h1v1h-1zM2 2h1v1H2zm61 0h1v1h-1zM1 3h1v1H1zm63 0h1v1h-1zM1 4h1v1H1zm63 0h1v1h-1zM1 5h1v1H1zm63 0h1v1h-1zM2 6h1v1H2zm61 0h1v1h-1zM2 7h1v1H2zm61 0h1v1h-1zM2 8h1v74H2zm61 0h1v74h-1zm-27 8h1v1h-1zm-6 1h1v1h-1zm-5 1h1v1h-1zm-6 1h1v1h-1zm14 0h1v1h-1zm6 0h1v1h-1zm-22 4h1v1h-1zM2 82h1v1H2zm61 0h1v1h-1zM2 83h1v1H2zm61 0h1v1h-1zM3 84h1v1H3zm1 0h1v1H4zm57 0h1v1h-1zm1 0h1v1h-1zM9 85h48v1H9z"/><g fill="#fff"><path d="M4 1h1v1H4zm1 0h1v1H5zm1 0h54v1H6zm54 0h1v1h-1zm1 0h1v1h-1zM3 2h1v1H3zm1 0h1v1H4zm1 0h56v1H5zm56 0h1v1h-1zm1 0h1v1h-1zM2 3h1v1H2zm1 0h1v1H3zm1 0h2v1H4zm2 0h54v1H6zm54 0h2v1h-2zm2 0h1v1h-1zm1 0h1v1h-1zM2 4h1v2H2zm1 0h1v3H3zm1 0h1v1H4zm1 0h56v12H5zm56 0h1v1h-1zm1 0h1v3h-1zm1 0h1v2h-1z"/><path d="M4 5h58v2H4zM3 7h1v1H3zm1 0h1v1H4zm57 0h1v1h-1zm1 0h1v1h-1zM3 8h1v73H3zm1 0h1v73H4zm57 0h1v74h-1zm1 0h1v73h-1zM5 16h30v1H5zm30 0h1v1h-1zm13 0h1v1h-1zm1 0h12v1H49zM5 17h24v1H5zm24 0h1v1h-1zm21 0h11v1H50zM5 18h10v64H5zm10 0h1v1h-1zm1 0h8v1h-8zm8 0h1v1h-1zm27 0h10v1H51zm-17 1h4v15h-4zm4 0h1v1h-1zm14 0h9v63h-9z"/><path d="M29 20h15v14H29zm-14 1h1v1h-1z"/><path d="M26 21h21v13H26zm21 0h1v1h-1zm-32 1h1v62h-1zm1 0h1v1h-1zm7 0h1v1h-1z"/><path d="M24 22h37v12H24zm-8 1h1v61h-1z"/><path d="M21 23h40v11H21z"/><path d="M17 24h44v10H17zm0 10h18v3H17zm23 0h21v1H40zm-5 1h1v4h-1zm6 0h20v3H41zm-5 1h1v2h-1zm-19 1h9v4h-9z"/><path d="M28 37h9v1h-9zm1 1h1v1h-1zm1 0h6v1h-6zm6 0h1v1h-1zm5 0h1v1h-1zm3 0h17v1H44zm-18 1h1v2h-1zm4 0h1v1h-1zm1 0h2v1h-2zm2 0h1v1h-1zm12 0h1v1h-1zm1 0h15v2H46zm-29 2h4v20h-4zm30 0h14v17H47zm-26 1h1v1h-1zm11 0h2v2h-2zm2 0h1v1h-1zm4 0h1v1h-1zm1 0h6v1h-6zm-18 1h1v18h-1zm1 0h1v1h-1zm15 0h1v1h-1zm1 0h2v2h-2zm2 0h1v1h-1zm2 0h1v1h-1z"/><path d="M43 43h18v2H43zm-21 1h2v16h-2zm5 0h1v3h-1zm1 0h1v1h-1zm4 0h1v1h-1zm4 0h1v1h-1zm1 0h3v1h-3z"/><path d="M24 45h5v1h-5zm5 0h1v1h-1zm15 0h17v1H44zm-20 1h1v1h-1zm1 0h1v1h-1zm3 0h1v1h-1zm17 0h16v12H45zm-21 1h1v1h-1zm12 0h1v1h-1zm1 0h2v2h-2z"/><path d="M36 48h3v1h-3zm-8 1h4v1h-4zm10 0h1v1h-1zm6 0h17v9H44zm-16 1h1v1h-1zm1 0h1v1h-1zm14 0h1v1h-1zm-19 1h1v1h-1zm13 0h1v2h-1z"/><path d="M43 51h18v7H43zm-19 1h1v8h-1zm5 0h3v1h-3zm7 0h1v1h-1zm-11 1h1v7h-1zm5 0h1v1h-1zm1 0h1v1h-1z"/><path d="M42 53h19v5H42zm-16 2h1v5h-1z"/><path d="M41 55h20v3H41zm-6 1h2v3h-2zm2 0h1v1h-1zm-10 1h1v3h-1zm3 0h1v1h-1zm1 0h1v2h-1zm6 0h1v2h-1zm1 0h1v1h-1zm1 0h1v1h-1z"/><path d="M40 57h21v1H40zm-12 1h4v1h-4zm10 0h1v1h-1zm1 0h1v1h-1zm1 0h1v1h-1zm1 0h1v1h-1zm6 0h1v1h-1zm1 0h13v1H48zm-20 1h1v1h-1zm21 0h1v1h-1zm1 0h11v1H50zm-26 1h1v1h-1zm13 0h1v1h-1zm1 0h5v1h-5zm5 0h1v1h-1zm7 0h1v1h-1zm1 0h10v22H51zm-34 1h3v23h-3zm3 0h1v1h-1zm14 0h1v1h-1zm5 0h1v1h-1zm1 0h5v2h-5zm-12 1h1v1h-1zm1 0h2v2h-2zm5 0h2v1h-2z"/><path d="M50 62h11v20H50zm-30 1h1v21h-1zm6 0h5v1h-5zm15 0h4v1h-4zm-16 1h1v1h-1zm1 0h1v4h-1zm15 0h3v3h-3zm8 0h1v1h-1zm-28 1h1v19h-1zm15 0h2v4h-2z"/><path d="M49 65h12v17H49zm-15 1h4v3h-4zm4 0h1v1h-1zm-16 1h1v1h-1zm5 0h1v17h-1zm1 0h1v1h-1z"/><path d="M32 67h7v2h-7zm9 0h2v3h-2zm7 0h13v15H48zm-26 1h1v16h-1zm4 0h1v1h-1z"/><path d="M28 68h12v1H28zm12 0h1v1h-1zm-12 1h9v15h-9zm11 0h1v1h-1zm1 0h3v1h-3zm-17 1h1v1h-1zm14 0h1v1h-1zm10 0h14v12H47zm-24 1h1v13h-1zm14 0h1v13h-1zm-13 1h1v12h-1zm14 0h1v12h-1zm8 0h1v1h-1z"/><path d="M25 73h15v11H25zm21 0h15v9H46zm-6 1h2v10h-2z"/><path d="M42 75h19v7H42zM3 81h1v1H3zm1 0h1v2H4zm58 0h1v1h-1zM3 82h1v1H3zm2 0h1v1H5zm1 0h54v1H6zm54 0h1v1h-1zm1 0h1v1h-1zm1 0h1v1h-1zM3 83h1v1H3zm1 0h1v1H4zm1 0h1v1H5zm1 0h1v1H6zm1 0h52v1H7zm52 0h1v1h-1zm1 0h1v1h-1zm1 0h1v1h-1zm1 0h1v1h-1zM5 84h1v1H5zm1 0h1v1H6zm1 0h1v1H7zm1 0h50v1H8zm50 0h1v1h-1zm1 0h1v1h-1zm1 0h1v1h-1z"/></g><path fill="#222" d="M16 20h1v1h-1z"/><path fill="#b23" d="M23 67h1v1h-1z"/><path fill="#666" d="M35 17h1v1h-1zm8 0h1v1h-1zm-18 2h1v1h-1zm17 0h1v1h-1zm-24 4h1v1h-1zM0 88h1v1H0zm1 0h1v1H1zm63 0h1v1h-1zm1 0h1v1h-1zM1 89h1v1H1zm1 0h1v1H2zm1 0h1v1H3zm1 0h58v1H4zm58 0h1v1h-1zm1 0h1v1h-1zm1 0h1v1h-1z"/><path fill="#c24" d="M39 37h1v1h-1zm-7 4h1v1h-1zm1 8h1v1h-1zm5 4h1v1h-1zm-9 7h1v1h-1zm15 10h1v1h-1z"/><path fill="#c02" d="M44 40h1v1h-1zm-13 1h1v1h-1zm1 6h1v1h-1zm8 0h1v1h-1zm2 0h1v1h-1zm-2 1h1v1h-1zm-13 3h1v1h-1zm0 1h1v1h-1zm7 1h1v1h-1zm-6 1h1v1h-1zm2 1h1v1h-1zm19 6h1v1h-1zm-17 1h1v1h-1zm14 0h1v1h-1zm1 0h1v1h-1zm-1 3h1v1h-1zm-22 1h1v1h-1zm21 2h1v1h-1z"/><path fill="#655" d="M36 17h1v1h-1zm6 0h1v1h-1zm-27 2h1v1h-1zm1 2h1v1h-1z"/><path fill="#fdd" d="M21 41h1v1h-1zm1 0h1v1h-1zm3 0h1v1h-1zm15 3h1v1h-1zm-5 1h1v1h-1zm9 1h1v1h-1zm-9 1h1v1h-1zm3 3h1v1h-1zm-2 1h1v1h-1zm-7 8h1v1h-1zm-6 1h1v1h-1zm2 0h1v1h-1zm19 0h1v1h-1zm-9 1h1v1h-1zm-15 1h1v1h-1zm8 2h1v1h-1zm16 0h1v1h-1zm-7 5h1v1h-1zm1 2h1v1h-1z"/><path fill="#b67" d="M37 42h1v1h-1zm3 13h1v1h-1zm8 10h1v1h-1zm-18 2h1v1h-1z"/><path fill="#b56" d="M26 62h1v1h-1zm14 5h1v1h-1zm6 3h1v1h-1z"/><path fill="#922" d="M45 72h1v1h-1z"/><path fill="#cbb" d="M32 17h1v1h-1z"/><path fill="#443" d="M30 18h1v1h-1z"/><path fill="#e99" d="M27 39h1v1h-1zm-1 8h1v1h-1zm1 0h1v1h-1zm-4 14h1v1h-1zm13 1h1v1h-1zm8 3h1v1h-1z"/><path fill="#b88" d="M29 67h1v1h-1z"/><path fill="#dcc" d="M49 17h1v1h-1zm-23 1h1v1h-1zm15 23h1v1h-1zm-15 3h1v1h-1zm9 21h1v1h-1z"/><path fill="#988" d="M28 18h1v1h-1zm-1 2h1v1h-1z"/><path fill="#945" d="M34 65h1v1h-1z"/><path fill="#dbb" d="M25 52h1v1h-1zm2 10h1v1h-1zm19 9h1v1h-1z"/><path fill="#701" d="M38 55h1v1h-1zm1 0h1v1h-1zm-6 10h1v1h-1zm-2 1h1v1h-1zm11 7h2v1h-2zm2 0h1v1h-1z"/><path fill="#b45" d="M49 62h1v1h-1zm-28 1h1v1h-1z"/><path fill="#812" d="M28 56h1v1h-1zm11 0h1v1h-1z"/><path fill="#d89" d="M34 57h1v1h-1z"/><path fill="#322" d="M43 19h1v1h-1z"/><path fill="#c34" d="M37 36h1v1h-1zm1 1h1v1h-1zm-1 1h1v1h-1zm1 0h1v1h-1zm-1 1h1v1h-1zm-8 2h1v1h-1zm11 5h1v1h-1zm3 0h1v1h-1zm-19 3h1v1h-1zm10 0h1v1h-1zm1 0h1v1h-1zm4 0h1v1h-1zm-7 3h1v1h-1zm0 6h1v1h-1zm1 0h1v1h-1zm-1 1h1v1h-1zm3 0h1v1h-1zm4 0h1v1h-1zm5 0h1v1h-1zm3 2h1v1h-1zm-25 1h1v1h-1zm10 1h1v1h-1zm1 0h1v1h-1zm12 0h1v1h-1zm-16 2h1v1h-1zm15 4h1v1h-1zm-1 2h1v1h-1z"/><path fill="#e88" d="M36 39h1v1h-1zm-9 26h1v1h-1zm16 4h1v1h-1z"/><path fill="#c35" d="M24 42h1v1h-1z"/><path fill="#ccb" d="M46 16h1v1h-1z"/><path fill="#665" d="M29 18h1v1h-1zm-12 2h1v1h-1z"/><path fill="#d77" d="M27 38h1v1h-1zm6 7h1v1h-1zm-2 14h1v1h-1zm6 2h1v1h-1z"/><path fill="#d78" d="M36 34h1v1h-1zm2 1h1v1h-1zm5 4h1v1h-1zm-15 1h1v1h-1zm17 0h1v1h-1zm-11 3h1v1h-1zm1 1h1v1h-1zm-1 1h1v1h-1zm8 0h1v1h-1zm-3 3h1v1h-1zm-3 1h1v1h-1zm1 1h1v1h-1zm-6 4h1v1h-1zm16 6h1v1h-1zm2 0h1v1h-1zm-4 2h1v1h-1z"/><path fill="#b66" d="M34 56h1v1h-1zm3 8h1v1h-1zm-15 1h1v1h-1zm4 7h1v1h-1z"/><path fill="#333" d="M29 19h1v1h-1zm21 0h1v1h-1zm-24 1h1v1h-1z"/><path fill="#100" d="M44 19h2v1h-2zm4 1h1v1h-1zm-30 2h3v1h-3z"/><path fill="#b34" d="M32 56h1v1h-1zm-8 7h1v1h-1zm4 3h1v1h-1z"/><path fill="#a67" d="M38 41h1v1h-1z"/><path fill="#999" d="M0 3h1v1H0zm65 0h1v1h-1zM0 4h1v1H0zm65 0h1v1h-1zM46 17h1v1h-1zm1 0h1v1h-1zm1 0h1v1h-1zm-32 2h1v1h-1zm25 0h1v1h-1zm-26 1h1v1h-1zM3 88h1v1H3zm59 0h1v1h-1z"/><path fill="#d45" d="M37 35h1v1h-1zm1 1h1v1h-1zm1 0h1v1h-1zm-2 1h1v1h-1zm3 2h1v1h-1zm1 0h1v1h-1zm-6 1h1v1h-1zm-7 1h1v1h-1zm-3 1h1v1h-1zm9 2h1v1h-1zm-2 2h1v1h-1zm1 0h1v1h-1zm5 0h1v1h-1zm4 0h1v1h-1zm-9 1h1v1h-1zm-9 1h1v1h-1zm14 4h1v1h-1zm0 7h1v1h-1zm8 1h1v1h-1zm-10 1h1v1h-1zm-13 1h1v1h-1zm16 1h1v1h-1zm1 1h1v1h-1zm4 2h1v1h-1zm-19 1h1v1h-1zm13 3h1v1h-1zm3 1h1v1h-1z"/><path fill="#a01" d="M42 40h1v1h-1zm-6 1h1v1h-1zm-8 1h1v1h-1zm1 0h1v1h-1zm1 0h1v1h-1zm0 2h1v1h-1zm12 4h1v1h-1zm-17 2h1v1h-1zm16 0h1v1h-1zm-15 1h1v1h-1zm0 1h1v1h-1zm14 0h1v1h-1zm-13 2h1v1h-1zm11 0h1v1h-1zm-5 1h1v1h-1zm0 1h1v1h-1zm-11 7h1v1h-1zm1 1h1v1h-1zm11 0h1v1h-1zm13 0h1v1h-1zm-24 1h1v1h-1zm24 0h1v1h-1zm-24 1h1v1h-1zm23 1h1v1h-1zm0 1h1v1h-1zm-22 1h1v1h-1zm1 1h1v1h-1zm20 0h1v1h-1zm-3 2h1v1h-1zm1 0h1v1h-1z"/></svg>