<svg xmlns="http://www.w3.org/2000/svg" width="66" height="90" baseProfile="tiny" version="1.2"><path fill="#110" d="M35 15h1v1h-1zm1 0h1v1h-1zm-5 1h2v1h-2zm10 12h1v1h-1zm1 0h1v1h-1zm1 0h1v1h-1zm4 1h1v1h-1zm-23 1h1v1h-1zm25 0h1v1h-1zm-28 1h1v1h-1z"/><path fill="#444" d="M38 15h1v1h-1zm-4 13h1v1h-1zm3 0h1v1h-1zm6 1h1v1h-1zm-27 1h1v1h-1z"/><path fill="#baa" d="M40 26h1v1h-1zm3 0h1v1h-1zm1 0h1v1h-1zm-3 3h1v1h-1z"/><path fill="#d89" d="M33 44h1v1h-1zm-9 28h1v1h-1zm13 2h1v1h-1z"/><path fill="#dab" d="M38 44h1v1h-1zm1 14h1v1h-1z"/><path fill="#c24" d="M37 49h1v1h-1zm0 6h1v1h-1zm-6 6h1v2h-1zm6 1h1v1h-1zm-7 5h1v1h-1z"/><path fill="#222" d="M38 14h1v1h-1zm-9 14h1v1h-1zm21 1h1v1h-1zm-28 2h1v1h-1z"/><path fill="#211" d="M32 15h1v1h-1zm-6 1h2v1h-2zm4 12h1v1h-1zm2 0h1v1h-1zm14 0h1v1h-1zm-20 1h1v1h-1zm23 0h1v1h-1zm-27 1h1v1h-1zm29 0h1v1h-1z"/><path fill="#322" d="M37 14h1v1h-1z"/><path fill="#100" d="M40 28h1v1h-1zm5 1h2v1h-2zm3 1h1v1h-1zm-31 2h2v1h-2z"/><path fill="#d78" d="M36 38h1v1h-1zm-11 3h1v1h-1zm1 2h1v1h-1zm15 5h1v1h-1zm-11 1h1v1h-1zm8 1h1v1h-1zm-2 6h1v1h-1zm-6 3h1v1h-1zm14 3h1v1h-1zm-18 1h1v1h-1zm7 0h1v1h-1zm13 0h1v1h-1zm-23 1h1v1h-1zm21 0h1v1h-1zm-7 1h1v1h-1zm-5 1h1v1h-1zm7 1h1v1h-1zm-16 1h1v1h-1z"/><path fill="#e99" d="M42 42h1v1h-1zm-2 6h1v1h-1zM22 64h1v1h-1zm10 1h1v1h-1zm1 1h1v1h-1z"/><path fill="#801" d="M36 44h1v1h-1zm-1 1h1v1h-1zm-10 1h1v1h-1zm2 0h1v1h-1zm9 12h1v1h-1zm1 0h2v1h-2zm-10 1h1v1h-1zm4 9h1v1h-1zm-2 1h1v1h-1zm9 0h1v1h-1zm5 7h1v1h-1z"/><path fill="#c78" d="M29 51h1v1h-1zM19 66h1v1h-1z"/><path fill="#766" d="M34 14h1v1h-1zm10 13h1v1h-1zm-17 1h1v1h-1zm22 0h1v1h-1zm1 3h1v1h-1z"/><path fill="#555" d="M35 14h1v1h-1zm-1 13h1v1h-1zm-10 2h1v1h-1z"/><path fill="#b67" d="M24 56h1v1h-1zm1 2h1v1h-1zm22 9h1v1h-1zm-3 8h1v1h-1z"/><path fill="#c89" d="M29 70h1v1h-1zm9 0h1v1h-1zm1 0h1v1h-1z"/><path fill="#655" d="M39 14h1v1h-1zm4 13h1v1h-1z"/><path fill="#eaa" d="M35 39h1v1h-1zm-10 5h1v1h-1zm0 6h1v1h-1zm5 5h1v1h-1zm16 7h1v1h-1z"/><path fill="#fcd" d="M30 52h1v1h-1zm6 3h1v1h-1zm-17 9h1v1h-1z"/><path fill="#c34" d="M36 39h1v1h-1zm1 1h1v1h-1zm-8 7h1v1h-1zm4 0h1v1h-1zm-1 5h1v1h-1zm1 0h1v1h-1zm-3 1h1v1h-1zm7 1h1v1h-1zm-4 1h1v1h-1zm0 7h1v1h-1zm13 2h1v1h-1zm-26 1h1v1h-1zm2 0h1v1h-1zm22 0h1v1h-1zm-14 1h1v1h-1zm1 0h1v1h-1zm3 0h1v1h-1zm-7 2h1v1h-1zm1 0h1v1h-1zm9 5h1v1h-1zm2 1h1v1h-1zm3 0h1v1h-1z"/><path fill="#a45" d="M42 44h1v1h-1z"/><g fill="#fff"><path d="M4 1h1v1H4zm1 0h1v1H5zm1 0h54v1H6zm54 0h1v1h-1zm1 0h1v1h-1zM3 2h1v1H3zm1 0h1v1H4zm1 0h56v1H5zm56 0h1v1h-1zm1 0h1v1h-1zM2 3h1v1H2zm1 0h1v1H3zm1 0h2v1H4zm2 0h54v1H6zm54 0h2v1h-2zm2 0h1v1h-1zm1 0h1v1h-1zM2 4h1v2H2zm1 0h1v3H3zm1 0h1v1H4zm1 0h56v9H5zm56 0h1v1h-1zm1 0h1v3h-1zm1 0h1v2h-1z"/><path d="M4 5h58v2H4zM3 7h1v1H3zm1 0h1v1H4zm57 0h1v1h-1zm1 0h1v1h-1zM3 8h1v73H3zm1 0h1v73H4zm57 0h1v74h-1zm1 0h1v73h-1zM5 13h27v1H5zm27 0h1v1h-1zm7 0h1v1h-1zm1 0h21v1H40zM5 14h23v1H5zm23 0h1v1h-1zm12 0h1v1h-1zm1 0h20v11H41zM5 15h19v13H5zm35 0h1v1h-1zm-3 1h1v1h-1z"/><path d="M38 16h23v9H38zm-14 1h1v11h-1zm1 0h1v1h-1zm7 0h1v1h-1z"/><path d="M33 17h28v8H33z"/><path d="M25 18h36v7H25zm0 7h17v1H25zm17 0h1v1h-1zm1 0h1v1h-1zm1 0h1v1h-1zm1 0h16v1H45zm-20 1h8v1h-8zm8 0h1v1h-1zm16 0h12v1H49zm-24 1h2v1h-2zm2 0h1v1h-1zm23 0h1v1h-1zm1 0h10v2H51zM5 28h9v54H5zm10 0h1v1h-1zm1 0h6v1h-6zm6 0h1v1h-1zm10 1h1v1h-1zm1 0h6v8h-6zm6 0h1v1h-1zm13 0h9v53h-9z"/><path d="M28 30h16v7H28zm16 0h1v1h-1zm-30 1h1v53h-1z"/><path d="M25 31h23v6H25zm-10 1h1v52h-1zm7 0h1v1h-1z"/><path d="M23 32h38v5H23zm-7 1h1v1h-1z"/><path d="M20 33h41v4H20z"/><path d="M16 34h45v3H16zm0 3h17v3H16zm17 0h1v1h-1zm5 0h1v1h-1zm1 0h22v1H39zm-6 1h1v4h-1zm6 0h1v1h-1zm1 0h21v3H40zm-6 1h1v3h-1zm-18 1h8v4h-8z"/><path d="M26 40h9v1h-9zm-2 1h1v1h-1zm3 0h1v1h-1zm1 0h7v1h-7zm11 0h2v1h-2zm2 0h1v1h-1zm1 0h19v1H42zm-18 1h1v2h-1zm5 0h4v1h-4zm4 0h1v1h-1zm11 0h17v1H44zm-19 1h1v1h-1zm20 0h16v1H45zm-29 1h3v40h-3zm3 0h1v1h-1zm1 0h1v1h-1zm1 0h2v1h-2zm2 0h1v1h-1zm22 0h1v1h-1zm1 0h15v17H46zm-15 1h2v1h-2zm6 0h6v1h-6zm-18 1h1v18h-1zm1 0h1v1h-1zm10 0h2v2h-2zm2 0h1v1h-1zm4 0h3v2h-3zm3 0h1v1h-1z"/><path d="M41 46h20v1H41zm-21 1h2v16h-2zm6 0h1v3h-1zm9 0h4v1h-4zm7 0h19v1H42z"/><path d="M22 48h5v1h-5zm5 0h1v2h-1zm3 0h1v1h-1zm4 0h1v1h-1zm9 0h18v2H43zm-21 1h2v1h-2zm2 0h1v1h-1zm1 0h2v1h-2zm-3 1h1v1h-1zm15 0h1v1h-1zm6 0h1v1h-1zm1 0h17v11H44zm-10 1h3v1h-3zm3 0h1v1h-1z"/><path d="M43 51h18v10H43zm-17 1h1v1h-1zm1 0h3v1h-3zm9 0h1v1h-1zm-9 1h1v1h-1zm1 0h1v1h-1zm14 0h1v1h-1zm-20 1h1v9h-1zm14 0h1v1h-1z"/><path d="M42 54h19v7H42zm-15 1h1v1h-1zm1 0h1v2h-1zm1 0h1v1h-1zm5 0h2v1h-2zm7 0h1v1h-1zm-18 1h1v7h-1zm6 0h1v1h-1z"/><path d="M41 56h20v5H41zm-1 1h1v1h-1zm-16 1h1v5h-1z"/><path d="M40 58h21v3H40zm-6 1h2v3h-2zm5 0h1v1h-1zm-14 1h1v3h-1zm4 0h1v2h-1zm4 0h1v1h-1zm3 0h1v2h-1zm2 0h1v1h-1z"/><path d="M39 60h22v1H39zm-13 1h2v1h-2zm7 0h5v1h-5zm5 0h1v1h-1zm1 0h1v1h-1zm7 0h1v1h-1zm1 0h14v1H47zm-21 1h1v1h-1zm1 0h1v1h-1zm21 0h13v1H48zm-28 1h1v1h-1zm2 0h1v1h-1zm15 0h1v1h-1zm1 0h1v2h-1zm1 0h1v1h-1zm1 0h1v1h-1zm9 0h1v1h-1zm1 0h11v19H50zm-17 1h1v2h-1zm4 0h1v1h-1zm2 0h5v2h-5zm-12 1h3v1h-3zm7 0h1v1h-1z"/><path d="M49 65h12v17H49zm-25 1h1v1h-1zm1 0h4v1h-4zm4 0h1v1h-1zm11 0h3v3h-3zm-21 1h1v1h-1zm5 0h1v3h-1z"/><path d="M48 67h13v15H48zm-29 1h1v16h-1zm16 0h1v4h-1zm-15 1h1v1h-1zm5 0h1v5h-1zm7 0h1v1h-1z"/><path d="M33 69h4v3h-4zm7 0h2v3h-2zm2 0h1v1h-1zm5 0h14v13H47zm-27 1h1v14h-1zm4 0h1v1h-1zm2 0h1v14h-1zm4 0h1v1h-1z"/><path d="M31 70h7v2h-7z"/><path d="M27 71h11v1H27zm11 0h1v1h-1zm1 0h1v1h-1zm7 0h1v1h-1zm-19 1h8v12h-8zm8 0h1v1h-1zm3 0h3v1h-3zm3 0h1v1h-1zm5 0h15v10H46zm-25 1h1v11h-1zm14 0h1v11h-1zm-10 1h1v1h-1zm11 0h1v10h-1zm9 0h1v1h-1zm-23 1h1v9h-1zm15 0h1v9h-1z"/><path d="M45 75h16v7H45zm-22 1h16v8H23zm16 1h1v7h-1zm1 0h1v1h-1z"/><path d="M44 77h17v5H44z"/><path d="M40 78h21v4H40zM3 81h1v1H3zm1 0h1v2H4zm58 0h1v1h-1zM3 82h1v1H3zm2 0h1v1H5zm1 0h54v1H6zm54 0h1v1h-1zm1 0h1v1h-1zm1 0h1v1h-1zM3 83h1v1H3zm1 0h1v1H4zm1 0h1v1H5zm1 0h1v1H6zm1 0h52v1H7zm52 0h1v1h-1zm1 0h1v1h-1zm1 0h1v1h-1zm1 0h1v1h-1zM5 84h1v1H5zm1 0h1v1H6zm1 0h1v1H7zm1 0h50v1H8zm50 0h1v1h-1zm1 0h1v1h-1zm1 0h1v1h-1z"/></g><path fill="#912" d="M43 44h1v1h-1zm-9 1h1v1h-1zm13 21h1v1h-1zm-23 8h1v1h-1z"/><path fill="#d56" d="M37 39h1v1h-1zm-4 4h1v1h-1zm-7 1h1v1h-1zm3 4h1v1h-1zm13 1h1v1h-1zm-19 2h1v1h-1zm2 0h1v1h-1zm8 5h1v1h-1zm-1 5h1v1h-1zm-2 1h1v1h-1zm4 0h1v1h-1zm2 0h1v1h-1zm8 1h1v1h-1zm-23 2h1v1h-1zm14 0h1v1h-1zm3 1h1v1h-1zm5 2h1v1h-1zm-1 5h1v1h-1zm-2 1h1v1h-1zm1 0h1v1h-1z"/><path fill="#fef" d="M24 40h1v1h-1zm19 5h1v1h-1zm-3 1h1v1h-1zM28 61h1v1h-1zm21 3h1v1h-1zm-28 8h1v1h-1z"/><path fill="#a56" d="M23 47h1v1h-1z"/><path fill="#ddd" d="M3 0h1v1H3zm1 0h1v1H4zm1 0h56v1H5zm56 0h1v1h-1zm1 0h1v1h-1zM2 1h1v1H2zm61 0h1v1h-1zM1 6h1v1H1zm63 0h1v1h-1zM1 7h1v1H1zm63 0h1v1h-1zM1 8h1v1H1zm63 0h1v1h-1zM1 9h1v73H1zm63 0h1v73h-1zm-26 4h1v1h-1zm-2 13h1v1h-1zm-19 3h1v1h-1zm1 0h1v1h-1zm22 0h1v1h-1zm-26 1h1v1h-1zm10 1h1v1h-1zM1 82h1v1H1zm63 0h1v1h-1zM1 83h1v1H1zm63 0h1v1h-1zM2 84h1v1H2zm61 0h1v1h-1zM3 85h1v1H3zm1 0h1v1H4zm1 0h1v1H5zm1 0h1v1H6zm1 0h2v1H7zm50 0h2v1h-2zm2 0h1v1h-1zm1 0h1v1h-1zm1 0h1v1h-1zm1 0h1v1h-1z"/><path fill="#776" d="M17 30h1v1h-1z"/><path fill="#999" d="M0 3h1v1H0zm65 0h1v1h-1zM0 4h1v1H0zm65 0h1v1h-1zM32 14h1v1h-1zm-5 1h1v1h-1zm12 0h1v1h-1zm-4 1h1v1h-1zm-5 1h1v1h-1zm1 10h1v1h-1zm16 0h2v1h-2zm-25 2h1v1h-1zm29 2h1v1h-1zM3 88h1v1H3zm59 0h1v1h-1z"/><path fill="#332" d="M38 27h2v1h-2zm0 1h1v1h-1z"/><path fill="#d99" d="M21 46h1v1h-1zm8 13h1v1h-1z"/><path fill="#c13" d="M26 51h1v1h-1zm12 1h1v1h-1zm0 2h1v1h-1zm-10 9h1v1h-1zm17 1h1v1h-1zm2 0h1v1h-1zm-28 1h1v1h-1zm25 2h1v2h-1zm-1 2h1v1h-1zm0 1h1v1h-1z"/><path fill="#a01" d="M36 43h1v1h-1zm4 0h1v1h-1zm-13 2h1v1h-1zm1 0h1v1h-1zm-5 1h1v1h-1zm18 5h1v1h-1zm-1 1h1v1h-1zm0 1h1v1h-1zm-16 1h1v1h-1zm15 1h1v1h-1zm-14 1h1v1h-1zm12 1h1v1h-1zm-5 1h1v1h-1zm-1 1h1v1h-1zm1 0h1v1h-1zm-6 5h1v1h-1zm21 1h1v1h-1zm-27 1h1v1h-1zm2 0h1v1h-1zm24 0h1v1h-1zm-25 1h1v2h-1zm1 0h1v1h-1zm10 0h1v1h-1zm5 0h1v1h-1zm9 0h1v1h-1zm-16 1h1v1h-1zm15 1h1v1h-1zm0 1h1v1h-1zm-23 1h1v1h-1zm22 1h1v1h-1zm-21 1h1v1h-1zm21 0h1v1h-1zm-4 2h1v1h-1zm1 0h1v1h-1zm1 0h1v1h-1z"/><path fill="#c56" d="M32 44h1v1h-1zm-4 7h1v1h-1z"/><path fill="#a33" d="M41 53h1v1h-1z"/><path fill="#dbb" d="M41 54h1v1h-1zm-1 2h1v1h-1zm-4 3h1v1h-1z"/><path fill="#665" d="M33 27h1v1h-1zm15 1h1v1h-1zm-34 1h1v1h-1zm6 3h1v1h-1z"/><path fill="#c12" d="M36 40h1v1h-1zm6 3h1v1h-1zm-17 2h1v1h-1zm11 4h1v1h-1zm-6 1h1v1h-1zm9 0h1v1h-1zm-8 1h1v1h-1zm-6 1h1v1h-1zm6 0h1v1h-1zm0 1h1v1h-1zm2 0h1v1h-1zm-2 3h1v1h-1zm1 0h1v1h-1zm-1 1h1v1h-1zm10 5h1v1h-1zm-16 2h1v1h-1zm23 0h1v1h-1zm-17 1h1v1h-1zm13 1h1v1h-1zm-15 2h1v1h-1zm15 1h1v1h-1zm-21 1h1v1h-1zm20 3h1v1h-1z"/><path fill="#a55" d="M35 58h1v1h-1zm0 9h1v1h-1zm-7 3h1v1h-1z"/><path fill="#b56" d="M39 69h1v1h-1z"/><path fill="#b45" d="M29 45h1v1h-1zm0 1h1v1h-1zm4 12h1v1h-1zm-6 6h1v1h-1zm19 5h1v1h-1z"/><path fill="#edd" d="M28 27h1v1h-1zm-6 20h1v1h-1zm1 8h1v1h-1zm1 2h1v1h-1zm9 2h1v1h-1zm-7 1h1v1h-1zm11 0h1v1h-1zm-14 6h1v1h-1zm24 2h1v1h-1zm-24 7h1v1h-1z"/><path fill="#c88" d="M40 44h1v1h-1z"/><path fill="#ccb" d="M20 29h1v1h-1z"/><path fill="#221" d="M25 29h1v1h-1zm-10 1h1v1h-1z"/><path fill="#812" d="M32 68h1v1h-1zm-2 1h1v1h-1zm12 8h1v1h-1z"/><path fill="#877" d="M29 15h1v1h-1zm16 12h1v1h-1zm-30 2h1v1h-1zm14 0h1v1h-1zm13 0h1v1h-1zm-23 1h1v1h-1zm4 1h1v1h-1z"/><path fill="#777" d="M32 27h1v1h-1zm-9 2h1v1h-1zm23 1h1v1h-1zM0 84h1v1H0zm65 0h1v1h-1zM0 85h1v1H0zm65 0h1v1h-1zM0 86h1v1H0zm65 0h1v1h-1zM0 87h1v1H0zm65 0h1v1h-1z"/><path fill="#fee" d="M37 37h1v1h-1zm-12 3h1v1h-1zm3 2h1v1h-1zm-4 2h1v1h-1zm6 1h1v1h-1zm11 2h1v1h-1zm-6 1h1v1h-1zm7 0h1v1h-1zm-6 2h1v1h-1zm-8 7h1v1h-1zm-3 2h1v1h-1zm15 2h1v1h-1zm1 0h1v1h-1zm1 0h1v1h-1zm1 0h1v1h-1zm1 0h1v1h-1zm1 0h1v1h-1zm-22 2h1v1h-1zm13 0h1v1h-1zm7 3h1v1h-1zm5 0h1v1h-1zm-23 1h1v1h-1zm9 1h1v1h-1zm2 0h1v1h-1zm1 4h1v1h-1zm3 1h1v1h-1zm-18 1h1v1h-1z"/><path fill="#b88" d="M37 44h1v1h-1z"/><path fill="#d88" d="M34 54h1v1h-1zm-2 10h1v1h-1z"/><path fill="#701" d="M37 59h1v1h-1zm4 17h1v1h-1zm1 0h1v1h-1z"/><path fill="#333" d="M25 16h1v1h-1zm8 0h1v1h-1zm4 11h1v1h-1zm3 0h1v1h-1zm-7 1h1v1h-1zm-8 2h1v1h-1zm22 0h1v1h-1z"/><path fill="#544" d="M35 27h1v1h-1zm7 0h1v1h-1zm-14 1h1v1h-1zm7 0h1v1h-1zm1 0h1v1h-1z"/><path fill="#dcc" d="M30 14h1v1h-1zM19 29h1v1h-1zm18 40h1v1h-1zm2 7h1v1h-1z"/><path fill="#c35" d="M38 39h1v1h-1zM27 63h1v1h-1z"/><path fill="#c23" d="M38 40h1v1h-1zm-2 1h1v1h-1zm1 0h1v1h-1zm-1 1h1v1h-1zm-1 1h1v1h-1zm8 0h1v1h-1zm-14 1h1v1h-1zm2 0h1v1h-1zm2 5h1v1h-1zm-2 1h1v1h-1zm9 0h1v1h-1zm-2 1h1v1h-1zm-14 1h1v1h-1zm8 1h1v1h-1zm3 0h1v1h-1zm3 0h1v1h-1zm-12 2h1v1h-1zm0 1h1v1h-1zm11 0h1v1h-1zm-9 2h1v1h-1zm1 0h1v1h-1zm3 4h1v1h-1zm10 0h1v1h-1zm-6 4h1v1h-1zm-10 2h1v1h-1zm17 3h1v1h-1zm0 1h1v1h-1z"/><path fill="#d67" d="M35 42h1v1h-1zm-13 3h1v1h-1zm1 0h1v1h-1zm5 3h1v1h-1zm4 0h1v1h-1zm8 1h1v1h-1zm-6 3h1v1h-1zm-8 2h1v1h-1zm1 3h1v1h-1zm8 5h1v1h-1zm12 1h1v1h-1zm-12 1h1v1h-1zm1 1h1v1h-1z"/><path fill="#901" d="M37 43h1v1h-1zm1 0h1v1h-1zm1 0h1v1h-1zm-4 1h1v1h-1zm-11 2h1v1h-1zm4 0h1v1h-1zm0 1h1v1h-1zm13 5h1v1h-1zm-1 2h1v1h-1zm-16 1h1v1h-1zm15 1h1v1h-1zm-14 1h1v1h-1zm13 0h1v1h-1zm-12 1h1v1h-1zm7 9h1v1h-1zm1 0h1v1h-1zm4 1h1v1h-1zm8 0h1v1h-1zm-19 1h1v1h-1zm1 0h1v1h-1zm11 6h1v1h-1zm4 0h1v1h-1z"/><path fill="#c99" d="M39 44h1v1h-1zm-1 31h1v1h-1zm3 2h1v1h-1z"/><path fill="#ccc" d="M1 0h1v1H1zm1 0h1v1H2zm61 0h1v1h-1zm1 0h1v1h-1zM1 2h1v1H1zm63 0h1v1h-1zM34 13h1v1h-1zm-10 2h1v1h-1zm12 1h1v1h-1zm-5 1h1v1h-1zm6 9h1v1h-1zm1 0h1v1h-1zm9 0h1v1h-1zm-18 1h1v1h-1zm20 0h1v1h-1zm-25 1h1v1h-1zM1 84h1v1H1zm63 0h1v1h-1zM2 85h1v1H2zm61 0h1v1h-1zM4 86h1v1H4zm1 0h1v1H5zm1 0h1v1H6zm1 0h52v1H7zm52 0h1v1h-1zm1 0h1v1h-1zm1 0h1v1h-1z"/><path fill="#888" d="M0 5h1v1H0zm65 0h1v1h-1zM0 6h1v1H0zm65 0h1v1h-1zM0 7h1v1H0zm65 0h1v1h-1zM0 8h1v73H0zm65 0h1v73h-1zm-32 6h1v1h-1zm-5 1h1v1h-1zM18 30h1v1h-1zm-2 2h1v1h-1zM0 81h1v2H0zm65 0h1v2h-1zM0 83h1v1H0zm65 0h1v1h-1zM1 87h1v1H1zm63 0h1v1h-1zM2 88h1v1H2zm61 0h1v1h-1z"/><path fill="#a12" d="M22 46h1v1h-1zm2 19h1v1h-1zm-3 4h1v1h-1zm24 2h1v1h-1zm-1 3h1v1h-1z"/><path fill="#ecd" d="M42 63h1v1h-1zm-16 2h1v1h-1z"/><path fill="#fcc" d="M34 38h1v1h-1zm-8 3h1v1h-1zm2 21h1v1h-1zm-3 6h1v1h-1zm14 5h1v1h-1z"/><path fill="#d9a" d="M44 45h1v1h-1zM30 60h1v1h-1zm-10 8h1v1h-1zm6 1h1v1h-1z"/><path fill="#a99" d="M26 15h1v1h-1zm23 16h1v1h-1z"/><path fill="#daa" d="M35 46h1v1h-1zm7 6h1v1h-1zM28 64h1v1h-1zm18 6h1v1h-1z"/><path fill="#c45" d="M38 42h1v1h-1zm-4 2h1v1h-1zm-14 1h1v1h-1zm13 1h1v1h-1zm6 22h1v1h-1zm-16 1h1v1h-1zm1 4h1v1h-1z"/><path fill="#111" d="M33 15h1v1h-1zm1 0h1v1h-1zm3 0h1v1h-1zm-9 1h1v1h-1zm1 0h1v1h-1zm1 0h1v1h-1zm1 12h1v1h-1zm8 0h1v1h-1zm5 0h1v1h-1zm1 0h1v1h-1zm-18 1h1v1h-1zm17 0h1v1h-1zm4 0h1v1h-1zm-25 1h1v1h-1zm27 0h1v1h-1zm-34 1h1v1h-1zm1 0h1v1h-1zm1 0h1v1h-1zm1 0h1v1h-1zm1 0h1v1h-1zm-1 1h1v1h-1z"/><path fill="#e88" d="M26 42h1v1h-1zm13 0h1v1h-1zm1 0h1v1h-1zm1 0h1v1h-1z"/><path fill="#666" d="M30 15h1v1h-1zm4 1h1v1h-1zm-7 1h1v1h-1zm2 0h1v1h-1zm-9 13h1v1h-1zM0 88h1v1H0zm1 0h1v1H1zm63 0h1v1h-1zm1 0h1v1h-1zM1 89h1v1H1zm1 0h1v1H2zm1 0h1v1H3zm1 0h58v1H4zm58 0h1v1h-1zm1 0h1v1h-1zm1 0h1v1h-1z"/><path fill="#e9a" d="M34 37h1v1h-1zm6 10h1v1h-1zm-11 2h1v1h-1zm-5 1h1v1h-1zm9 0h1v1h-1zm-11 1h1v1h-1zm7 11h1v1h-1zm16 0h1v1h-1zm3 1h1v1h-1zm-27 1h1v1h-1zm22 3h1v1h-1z"/><path fill="#e89" d="M37 38h1v1h-1zm1 0h1v1h-1zm-11 5h1v1h-1zm1 0h1v1h-1zm3 0h1v1h-1zm8 5h1v1h-1zm-13 2h1v1h-1zm6 0h1v1h-1zm5 3h1v1h-1zm-7 8h1v1h-1zm-10 3h1v1h-1zm18 9h1v1h-1z"/><path fill="#eee" d="M3 1h1v1H3zm59 0h1v1h-1zM2 2h1v1H2zm61 0h1v1h-1zM1 3h1v1H1zm63 0h1v1h-1zM1 4h1v1H1zm63 0h1v1h-1zM1 5h1v1H1zm63 0h1v1h-1zM2 6h1v1H2zm61 0h1v1h-1zM2 7h1v1H2zm61 0h1v1h-1zM2 8h1v74H2zm61 0h1v74h-1zm-30 5h1v1h-1zm-4 1h1v1h-1zm5 12h1v1h-1zm1 0h1v1h-1zm13 0h1v1h-1zm-34 2h1v1h-1zm9 0h1v1h-1zm8 1h1v1h-1zm-4 1h1v1h-1zm21 1h1v1h-1zm-29 2h1v1h-1zM2 82h1v1H2zm61 0h1v1h-1zM2 83h1v1H2zm61 0h1v1h-1zM3 84h1v1H3zm1 0h1v1H4zm57 0h1v1h-1zm1 0h1v1h-1zM9 85h48v1H9z"/><path fill="#aaa" d="M0 2h1v1H0zm65 0h1v1h-1zM35 13h1v1h-1zm1 0h1v1h-1zm-11 2h1v1h-1zm16 11h1v1h-1zm1 0h1v1h-1zm8 2h1v1h-1zm-29 1h1v1h-1zm30 0h1v1h-1zm-36 2h1v1h-1zm2 2h1v1h-1zm1 0h1v1h-1zM1 86h1v1H1zm63 0h1v1h-1zM2 87h1v1H2zm1 0h1v1H3zm1 0h1v1H4zm1 0h56v1H5zm56 0h1v1h-1zm1 0h1v1h-1zm1 0h1v1h-1zM4 88h1v1H4zm1 0h56v1H5zm56 0h1v1h-1z"/><path fill="#934" d="M26 46h1v1h-1zm17 31h1v1h-1z"/><path fill="#d66" d="M31 49h1v1h-1zm14 14h1v1h-1z"/><path fill="#a34" d="M40 55h1v1h-1zm-1 2h1v1h-1zm-11 2h1v1h-1zm10 0h1v1h-1zm-11 1h1v1h-1z"/><path fill="#fde" d="M33 45h1v1h-1zm-5 4h1v1h-1zm-7 14h1v1h-1zm20 0h1v1h-1zm-2 3h1v1h-1zm-13 1h1v1h-1zm15 6h1v1h-1z"/><path fill="#b78" d="M27 47h1v1h-1z"/><path fill="#b12" d="M32 60h1v1h-1z"/><path fill="#c67" d="M21 70h1v1h-1z"/><path fill="#b23" d="M44 44h1v1h-1zM32 63h1v1h-1zm-2 1h1v1h-1z"/><path fill="#ecc" d="M25 47h1v1h-1zm4 17h1v1h-1zm-4 11h1v1h-1zm19 1h1v1h-1z"/><path fill="#923" d="M20 67h1v1h-1zm3 7h1v1h-1zm1 1h1v1h-1z"/><path fill="#b89" d="M31 69h1v1h-1z"/><path fill="#822" d="M26 59h1v1h-1z"/><path fill="#c77" d="M28 60h1v1h-1zm20 5h1v1h-1z"/><path fill="#c02" d="M30 44h1v1h-1zm5 5h1v1h-1zm-7 1h1v1h-1zm13 0h1v1h-1zm-2 1h1v1h-1zm0 1h1v1h-1zm-5 1h1v1h-1zm4 2h1v1h-1zm-3 2h1v1h-1zm-5 1h1v1h-1zm8 4h1v1h-1zm2 0h1v1h-1zm-11 1h1v1h-1zm16 2h1v1h-1zm-10 1h1v1h-1zm10 0h1v1h-1zm-7 1h1v1h-1zm6 3h1v1h-1zm-21 1h1v1h-1z"/><path fill="#b77" d="M41 44h1v1h-1zm-8 24h1v1h-1z"/><path fill="#b34" d="M27 51h1v1h-1zm3 0h1v1h-1zm12 0h1v1h-1z"/><path fill="#b66" d="M23 54h1v1h-1zm11 4h1v1h-1zm-9 7h1v1h-1zm20 7h1v1h-1zm-23 1h1v1h-1z"/><path fill="#443" d="M31 15h1v1h-1zm-3 2h1v1h-1z"/><path fill="#fdd" d="M36 37h1v1h-1zm-1 3h1v1h-1zm4 0h1v1h-1zm-5 2h1v1h-1zm9 0h1v1h-1zm1 1h1v1h-1zm-25 2h1v1h-1zm26 0h1v1h-1zm-9 3h1v1h-1zm1 0h1v1h-1zm-14 2h1v1h-1zm12 0h1v1h-1zm2 2h1v1h-1zm-15 1h1v1h-1zm5 1h1v1h-1zm8 0h1v1h-1zm-1 2h1v1h-1zm1 0h1v1h-1zm12 6h1v1h-1zm-23 1h1v1h-1zm11 0h1v1h-1zm3 2h1v1h-1zm-11 2h1v1h-1zm1 0h1v1h-1z"/><path fill="#988" d="M46 27h1v1h-1zm-20 1h1v1h-1zm0 2h1v1h-1z"/><path fill="#b13" d="M30 65h1v1h-1z"/><path fill="#823" d="M37 68h1v1h-1zm3 8h1v1h-1z"/><path fill="#ebb" d="M25 42h1v1h-1zm4 1h1v1h-1zm10 4h1v1h-1zm-5 3h1v1h-1zm-8 3h1v1h-1zm1 3h1v1h-1zm3 0h1v1h-1zm13 7h1v1h-1zm-7 1h1v1h-1zm-13 3h1v1h-1zm19 3h1v1h-1zm-21 1h1v1h-1zm15 1h1v1h-1zm9 1h1v1h-1z"/><path fill="#d77" d="M32 43h1v1h-1zm-8 8h1v1h-1zm-2 1h1v1h-1zm12 12h1v1h-1zm8 7h1v1h-1z"/><path fill="#bbb" d="M0 1h1v1H0zm1 0h1v1H1zm63 0h1v1h-1zm1 0h1v1h-1zM37 13h1v1h-1zm-6 1h1v1h-1zm-7 2h1v1h-1zm2 1h1v1h-1zm13 9h1v1h-1zm6 0h1v1h-1zm1 0h1v1h-1zm-16 1h1v1h-1zm-5 1h1v1h-1zm-9 1h1v1h-1zm14 0h1v1h-1zm15 1h1v1h-1zm-24 2h1v1h-1zM1 85h1v1H1zm63 0h1v1h-1zM2 86h1v1H2zm1 0h1v1H3zm59 0h1v1h-1zm1 0h1v1h-1z"/><path fill="#a02" d="M34 46h1v1h-1zm-11 7h1v1h-1zm-1 19h1v1h-1z"/><path fill="#eab" d="M35 41h1v1h-1zm-8 1h1v1h-1zm3 1h1v1h-1zm2 4h1v1h-1zm2 0h1v1h-1zm1 5h1v1h-1zm-6 1h1v1h-1zm-4 10h1v1h-1zm9 0h1v1h-1zm-5 4h1v1h-1zm7 6h1v1h-1z"/><path fill="#a67" d="M24 47h1v1h-1z"/><path fill="#933" d="M36 67h1v1h-1z"/><path fill="#d45" d="M35 38h1v1h-1zm3 3h1v1h-1zm-4 2h1v1h-1zm-7 1h1v1h-1zm1 0h1v1h-1zm-7 1h1v1h-1zm3 0h1v1h-1zm8 4h1v1h-1zm6 0h1v1h-1zm1 0h1v1h-1zm2 0h1v1h-1zm-14 1h1v1h-1zm5 1h1v1h-1zm-4 3h1v1h-1zm2 3h1v1h-1zm13 5h1v1h-1zm-19 2h1v1h-1zm13 2h1v1h-1zm5 6h1v1h-1z"/><path fill="#b02" d="M37 42h1v1h-1zm4 1h1v1h-1zm-15 2h1v1h-1zm8 4h1v1h-1zm-5 1h1v1h-1zm13 0h1v1h-1zm-2 1h1v1h-1zm-17 1h1v1h-1zm1 1h1v1h-1zm1 0h1v1h-1zm14 0h1v1h-1zm-14 1h1v1h-1zm4 0h1v1h-1zm1 0h1v1h-1zm1 0h1v2h-1zm1 0h1v1h-1zm1 0h1v1h-1zm6 0h1v1h-1zm-14 1h1v1h-1zm7 0h1v1h-1zm6 1h1v1h-1zm-12 1h1v1h-1zm6 0h1v1h-1zm1 0h1v1h-1zm1 0h1v1h-1zm2 0h1v1h-1zm-9 1h1v1h-1zm4 0h1v1h-1zm0 2h1v1h-1zm8 2h1v1h-1zm-9 1h1v1h-1zm1 0h1v1h-1zm0 1h1v1h-1zm-8 1h1v1h-1zm23 0h1v1h-1zm-25 1h1v1h-1zm10 1h1v1h-1zm14 0h1v1h-1zm-23 1h1v1h-1zm23 0h1v1h-1zm-23 1h1v1h-1zm0 1h1v1h-1zm22 1h1v1h-1zm-21 1h1v1h-1zm15 2h1v1h-1zm5 0h1v1h-1z"/><path fill="#caa" d="M36 45h1v1h-1zm-9 25h1v1h-1z"/><path fill="#433" d="M36 14h1v1h-1zm0 13h1v1h-1zm5 0h1v1h-1zm6 1h1v1h-1zm-19 1h1v1h-1zm-7 1h1v1h-1z"/><path fill="#ebc" d="M35 37h1v1h-1zm4 2h1v1h-1zm-8 9h1v1h-1zm2 0h1v1h-1zm5 0h1v1h-1zm-5 3h1v1h-1zm3 2h1v1h-1zm-7 4h1v1h-1zm-5 14h1v1h-1z"/></svg>