<svg xmlns="http://www.w3.org/2000/svg" baseProfile="tiny" version="1.2" viewBox="0 0 66 90"><path fill="#823" d="M31 69h1v1h-1zm-2 1h1v1h-1z"/><path fill="#eee" d="M3 1h1v1H3zm59 0h1v1h-1zM2 2h1v1H2zm61 0h1v1h-1zM1 3h1v1H1zm63 0h1v1h-1zM1 4h1v1H1zm63 0h1v1h-1zM1 5h1v1H1zm63 0h1v1h-1zM2 6h1v1H2zm61 0h1v1h-1zM2 7h1v1H2zm61 0h1v1h-1zM2 8h1v74H2zm61 0h1v74h-1zm-29 3h1v1h-1zm5 0h1v1h-1zm-9 1h1v1h-1zm11 0h1v1h-1zm-16 2h1v1h-1zm13 0h1v1h-1zm-4 1h1v1h-1zm5 4h1v1h-1zm-9 1h1v1h-1zm-3 4h1v1h-1zm16 4h1v1h-1zm1 0h1v1h-1zm-11 1h1v1h-1zm15 0h1v1h-1zm-21 1h1v1h-1zm-5 1h1v1h-1zm-8 2h1v1h-1zm10 1h1v1h-1zm15 11h1v1h-1zM2 82h1v1H2zm61 0h1v1h-1zM2 83h1v1H2zm61 0h1v1h-1zM3 84h1v1H3zm1 0h1v1H4zm57 0h1v1h-1zm1 0h1v1h-1zM9 85h48v1H9z"/><path fill="#e88" d="M28 44h1v1h-1zm15 0h1v1h-1z"/><path fill="#c67" d="M30 45h1v1h-1z"/><path fill="#901" d="M35 44h1v1h-1zm4 0h1v1h-1zm1 0h1v1h-1zm-6 1h1v1h-1zm-8 1h1v1h-1zm7 0h1v1h-1zm7 7h1v1h-1zm-1 1h1v1h-1zm-16 1h1v1h-1zm16 0h1v1h-1zm-1 2h1v1h-1zm-1 1h1v1h-1zm-12 1h1v1h-1zm21 8h1v1h-1zm-26 1h1v1h-1zm12 0h1v1h-1zm4 0h1v1h-1zm-16 1h1v1h-1zm9 0h1v1h-1zm8 0h1v1h-1zm8 0h1v1h-1zm-1 3h1v1h-1zm-22 2h1v1h-1zm1 1h1v1h-1zm16 1h1v1h-1zm1 0h1v1h-1zm1 0h1v1h-1zm1 0h1v1h-1z"/><path fill="#c77" d="M29 52h1v1h-1zm18 14h1v1h-1zm-26 8h1v1h-1z"/><path fill="#a34" d="M41 52h1v1h-1zm-14 8h1v1h-1zm18 10h1v1h-1z"/><path fill="#322" d="M39 12h1v1h-1zm-6 1h1v1h-1zm0 9h1v1h-1zm2 8h1v1h-1zm6 0h1v1h-1zm6 1h1v1h-1zm-32 2h1v1h-1zm1 0h1v1h-1z"/><path fill="#110" d="M37 13h1v1h-1zm-5 1h1v1h-1zm-1 8h1v1h-1zm1 0h1v1h-1zm10 9h1v1h-1zm1 0h1v1h-1zm1 0h1v1h-1zm3 1h1v1h-1zm3 1h1v1h-1zm-30 1h1v1h-1z"/><path fill="#c9a" d="M41 45h1v1h-1zM30 70h1v1h-1z"/><path fill="#fcc" d="M36 38h1v1h-1zm-9 5h1v1h-1zm12 4h1v1h-1zm-4 7h1v1h-1zm-9 2h1v1h-1zm10 6h1v1h-1zm1 0h1v1h-1zm1 0h1v1h-1zm5 0h1v1h-1zm-17 6h1v1h-1zm10 5h1v1h-1z"/><path fill="#b02" d="M36 43h1v1h-1zm6 1h1v1h-1zm-18 2h1v1h-1zm9 4h1v1h-1zm-6 1h1v1h-1zm2 0h1v1h-1zm11 0h1v1h-1zm-1 1h1v1h-1zm-17 1h1v1h-1zm2 0h1v1h-1zm0 1h1v1h-1zm9 0h1v1h-1zm5 0h1v1h-1zm-14 1h1v1h-1zm6 0h1v1h-1zm1 0h1v1h-1zm1 0h1v1h-1zm-8 1h1v1h-1zm6 0h1v1h-1zm1 0h1v1h-1zm-6 2h1v1h-1zm6 0h1v1h-1zm3 0h1v1h-1zm-7 1h1v1h-1zm1 0h1v1h-1zm1 0h1v1h-1zm1 0h1v1h-1zm0 5h1v1h-1zm-6 1h1v1h-1zm6 0h1v1h-1zm-8 1h1v1h-1zm23 0h1v1h-1zm-11 1h1v1h-1zm1 0h1v1h-1zm-5 1h1v1h-1zm7 0h1v1h-1zm-16 1h1v1h-1zm7 0h1v1h-1zm16 0h1v1h-1zm-23 1h1v1h-1zm0 1h1v1h-1zm22 1h1v1h-1zm-21 1h1v1h-1zm20 2h1v1h-1z"/><path fill="#b45" d="M33 45h1v1h-1zm-4 20h1v1h-1zm-6 1h1v1h-1zm-3 4h1v1h-1zm24 3h1v1h-1z"/><path fill="#333" d="M42 30h1v1h-1zm-14 1h1v1h-1zm11 0h1v1h-1z"/><path fill="#666" d="M36 12h1v1h-1zm0 2h1v1h-1zm-6 1h1v1h-1zm9 5h1v1h-1zm-4 2h1v1h-1zm-6 1h1v1h-1zm5 8h1v1h-1zm3 0h1v1h-1zm12 0h1v1h-1zm-34 1h1v1h-1zM0 88h1v1H0zm1 0h1v1H1zm63 0h1v1h-1zm1 0h1v1h-1zM1 89h1v1H1zm1 0h1v1H2zm1 0h1v1H3zm1 0h58v1H4zm58 0h1v1h-1zm1 0h1v1h-1zm1 0h1v1h-1z"/><path fill="#b89" d="M25 47h1v1h-1z"/><path fill="#dbb" d="M23 48h1v1h-1zm18 5h1v1h-1zM28 71h1v1h-1zm15 6h1v1h-1zm-3 1h1v1h-1z"/><path fill="#655" d="M26 14h1v1h-1zm6 16h1v1h-1zm12 0h1v1h-1zm-17 1h1v1h-1z"/><path fill="#e99" d="M24 42h1v1h-1zm1 0h1v1h-1zm17 1h1v1h-1zm-11 5h1v1h-1zm-1 1h1v1h-1zm3 8h1v1h-1zm-9 7h1v1h-1zm7 2h1v1h-1z"/><path fill="#b12" d="M37 43h1v1h-1zm-4 4h1v1h-1zm-4 7h1v1h-1zm-1 10h1v1h-1zm1 0h1v1h-1zm2 0h1v1h-1zm16 1h1v1h-1zM37 75h1v1h-1z"/><path fill="#b67" d="M32 59h1v1h-1zm-9 17h1v1h-1z"/><path fill="#c99" d="M32 69h1v1h-1z"/><path fill="#a44" d="M21 47h1v1h-1zm17 23h1v1h-1z"/><path fill="#dab" d="M22 48h1v1h-1zm5 17h1v1h-1z"/><path fill="#daa" d="M27 52h1v1h-1zm-5 3h1v1h-1zm1 2h1v1h-1zm1 2h1v1h-1zm9 0h1v1h-1zm-9 7h1v1h-1zm20 8h1v1h-1z"/><path fill="#b77" d="M37 60h1v1h-1z"/><path fill="#776" d="M26 13h1v1h-1zm12 7h1v1h-1zm7 10h1v1h-1z"/><path fill="#edd" d="M36 19h1v1h-1zM19 69h1v1h-1zm7 2h1v1h-1zm-6 1h1v1h-1z"/><path fill="#d66" d="M34 39h1v1h-1zm3 11h1v1h-1zm-3 16h1v1h-1z"/><path fill="#b56" d="M42 45h1v1h-1zM26 65h1v1h-1zm-7 3h1v1h-1zm24 8h1v1h-1z"/><path fill="#bba" d="M49 30h1v1h-1z"/><path fill="#fdd" d="M37 38h1v1h-1zm1 1h1v1h-1zm0 2h1v1h-1zm2 1h1v1h-1zm-19 3h1v1h-1zm1 0h1v1h-1zm10 0h1v1h-1zm-12 2h1v1h-1zm6 3h1v1h-1zm-1 3h1v1h-1zm10 0h1v1h-1zm1 0h1v1h-1zm-1 3h1v1h-1zm-2 6h1v1h-1zm1 0h1v1h-1zm1 0h1v1h-1zm9 0h1v1h-1zm-18 1h1v1h-1zm-4 1h1v1h-1zm14 1h1v1h-1zm-13 6h1v1h-1zm12 3h1v1h-1zm4 0h1v1h-1z"/><path fill="#c24" d="M33 44h1v1h-1zm-7 1h1v1h-1zm3 0h1v1h-1zm8 7h1v1h-1zm-3 2h1v1h-1zm-8 10h1v1h-1zm-1 5h1v1h-1zm11 5h1v1h-1z"/><path fill="#222" d="M35 14h1v1h-1zm-9 9h1v1h-1zm2 0h1v1h-1zm16 9h1v1h-1z"/><path fill="#eab" d="M35 38h1v1h-1zm3 2h1v1h-1zm-14 1h1v1h-1zm9 2h1v1h-1zm-6 6h1v1h-1zm2 8h1v1h-1zm-1 1h1v1h-1zm-1 5h1v1h-1zm10 3h1v1h-1zm5 2h1v1h-1zm-4 6h1v1h-1z"/><path fill="#d78" d="M36 39h1v1h-1zm-11 4h1v1h-1zm1 1h1v1h-1zm1 0h1v1h-1zm2 0h1v1h-1zm-1 5h1v1h-1zm10 0h1v1h-1zm-12 3h1v1h-1zm6 0h1v1h-1zm-7 2h1v1h-1zm3 9h1v1h-1zm15 1h1v1h-1zm-24 1h1v1h-1zm12 0h1v1h-1zm10 7h1v1h-1z"/><path fill="#c34" d="M37 40h1v1h-1zm-1 1h1v1h-1zm-1 1h1v1h-1zm-10 3h1v1h-1zm-3 1h1v1h-1zm10 1h1v1h-1zm-1 3h1v1h-1zm7 0h1v1h-1zm2 0h1v1h-1zm-18 2h1v1h-1zm9 0h1v1h-1zm0 1h2v1h-2zm2 0h1v1h-1zm-8 2h1v1h-1zm11 1h1v1h-1zm-10 2h1v1h-1zm3 0h1v1h-1zm1 4h1v1h-1zm-1 1h1v1h-1zm4 0h1v1h-1zm7 0h1v1h-1zm-17 2h1v1h-1zm-5 1h1v1h-1zm11 0h1v1h-1zm1 1h1v1h-1zm6 0h1v1h-1z"/><path fill="#b23" d="M34 50h1v1h-1zm-5 5h1v1h-1zm9 14h1v1h-1zm-15 5h1v1h-1z"/><path fill="#ddd" d="M3 0h1v1H3zm1 0h1v1H4zm1 0h56v1H5zm56 0h1v1h-1zm1 0h1v1h-1zM2 1h1v1H2zm61 0h1v1h-1zM1 6h1v1H1zm63 0h1v1h-1zM1 7h1v1H1zm63 0h1v1h-1zM1 8h1v1H1zm63 0h1v1h-1zM1 9h1v73H1zm63 0h1v73h-1zM31 20h1v1h-1zm3 9h1v1h-1zm-20 2h1v1h-1zm9 0h1v1h-1zm7 1h1v1h-1zm15 1h1v1h-1zm-24 2h1v1h-1zM1 82h1v1H1zm63 0h1v1h-1zM1 83h1v1H1zm63 0h1v1h-1zM2 84h1v1H2zm61 0h1v1h-1zM3 85h1v1H3zm1 0h1v1H4zm1 0h1v1H5zm1 0h1v1H6zm1 0h2v1H7zm50 0h2v1h-2zm2 0h1v1h-1zm1 0h1v1h-1zm1 0h1v1h-1zm1 0h1v1h-1z"/><path fill="#887" d="M29 13h1v1h-1zm7 9h1v1h-1z"/><path fill="#211" d="M34 13h1v1h-1zm0 8h1v1h-1zm-9 1h1v1h-1zm1 0h1v1h-1zm1 0h1v1h-1zm1 0h1v1h-1zm1 0h1v1h-1zm7 8h1v1h-1zm1 0h1v1h-1zm1 0h1v1h-1zm1 0h1v1h-1zm1 0h1v1h-1zm-11 1h1v1h-1zm2 0h1v1h-1zm15 0h1v1h-1zm-21 1h1v1h-1zm24 0h1v1h-1zm1 0h1v1h-1z"/><path fill="#d89" d="M19 46h1v1h-1zm13 18h1v1h-1z"/><path fill="#a55" d="M26 47h1v1h-1zm-1 13h1v1h-1zm11 9h1v1h-1zm3 8h1v1h-1z"/><path fill="#c88" d="M34 59h1v1h-1zm-8 2h1v1h-1zm8 7h1v1h-1zm4 3h1v1h-1z"/><path fill="#999" d="M0 3h1v1H0zm65 0h1v1h-1zM0 4h1v1H0zm65 0h1v1h-1zM32 15h1v1h-1zm2 5h1v1h-1zm7 1h1v1h-1zm-11 2h1v1h-1zm0 7h1v1h-1zm18 0h1v1h-1zm-19 2h1v1h-1zm13 0h1v1h-1zm4 1h1v1h-1zm-23 1h1v1h-1zm-7 1h1v1h-1zM3 88h1v1H3zm59 0h1v1h-1z"/><path fill="#cbb" d="M36 29h1v1h-1zm-12 2h1v1h-1z"/><path fill="#911" d="M26 70h1v1h-1z"/><path fill="#d9a" d="M31 45h1v1h-1zm2 10h1v1h-1zM22 68h1v1h-1zm-2 3h1v1h-1zm17 0h1v1h-1z"/><path fill="#c56" d="M38 63h1v1h-1z"/><path fill="#100" d="M33 14h2v1h-2zm-6 9h1v1h-1zm14 8h1v1h-1zm4 1h2v1h-2zm4 1h1v1h-1zm-28 1h1v1h-1zm-4 1h2v1h-2z"/><path fill="#c35" d="M32 44h1v1h-1zM20 66h1v1h-1z"/><path fill="#c02" d="M34 44h1v1h-1zm-6 1h1v1h-1zm4 5h1v1h-1zm6 1h1v1h-1zm-8 1h1v1h-1zm8 0h1v1h-1zm-15 1h1v1h-1zm15 0h1v1h-1zm-8 1h1v1h-1zm2 0h1v1h-1zm5 2h1v1h-1zm-6 1h1v1h-1zm-1 4h1v1h-1zm1 0h1v1h-1zm-4 3h1v1h-1zm17 1h1v1h-1zm2 0h1v1h-1zm-2 1h1v1h-1zm0 2h1v1h-1zm-22 3h1v1h-1zm21 0h1v1h-1zm-21 1h1v1h-1z"/><path fill="#d56" d="M35 39h1v1h-1zm2 0h1v1h-1zm0 3h1v1h-1zm-3 1h1v1h-1zm-4 1h1v1h-1zm6 6h1v1h-1zm3 0h1v1h-1zm-16 2h1v1h-1zm12 5h1v1h-1zm0 6h1v1h-1zm1 0h1v1h-1zm7 0h1v1h-1zm-18 1h1v1h-1zm21 0h1v1h-1zm1 0h1v1h-1zm-13 1h1v1h-1zm1 1h1v1h-1zm-4 1h1v1h-1zm-9 2h1v1h-1zm19 4h1v1h-1zm0 1h1v1h-1z"/><path fill="#fde" d="M41 42h1v1h-1zm-18 8h1v1h-1zm4 4h1v1h-1z"/><path fill="#dcc" d="M35 11h1v1h-1zm-4 1h1v1h-1zm6 7h1v1h-1zm-9 11h1v1h-1z"/><path fill="#766" d="M31 13h1v1h-1zM14 32h1v1h-1zm9 0h1v1h-1zm-4 1h1v1h-1z"/><path fill="#665" d="M31 21h1v1h-1zM17 33h1v1h-1z"/><path fill="#912" d="M43 45h1v1h-1zM33 68h1v1h-1zm10 7h1v1h-1zm-5 1h1v1h-1z"/><path fill="#934" d="M41 78h1v1h-1z"/><path fill="#c23" d="M37 41h1v1h-1zm-1 1h1v1h-1zm-9 3h1v1h-1zm-6 1h1v1h-1zm5 5h1v1h-1zm11 2h1v1h-1zm0 1h1v1h-1zm-12 2h1v1h-1zm7 0h1v1h-1zm0 1h1v1h-1zm-2 6h1v1h-1zm11 0h1v1h-1zm4 2h1v1h-1zm-24 1h1v1h-1zm9 0h1v1h-1zm-1 2h1v1h-1zm-3 1h2v1h-2zm16 1h1v1h-1zm0 2h1v1h-1zm0 1h1v1h-1zm-1 2h1v1h-1z"/><path fill="#d35" d="M36 55h1v1h-1z"/><path fill="#111" d="M35 13h1v1h-1zm1 0h1v1h-1zm2 0h1v1h-1zm-11 1h3v1h-3zm3 0h1v1h-1zm1 0h1v1h-1zm4 7h1v1h-1zm1 0h1v1h-1zm1 0h2v1h-2zm2 0h1v1h-1zm1 0h1v1h-1zm-10 1h1v1h-1zm0 9h1v1h-1zm10 0h1v1h-1zm5 0h1v1h-1zm-19 1h1v1h-1zm1 0h1v1h-1zm21 0h1v1h-1zm-26 1h1v1h-1zm1 0h1v1h-1zm1 0h1v1h-1zm24 0h1v1h-1zm3 0h1v1h-1zm-35 1h1v1h-1zm1 0h1v1h-1zm1 0h1v1h-1zm1 0h1v1h-1z"/><path fill="#444" d="M39 13h1v1h-1zm-7 8h1v1h-1zm11 9h1v1h-1z"/><path fill="#988" d="M29 21h1v1h-1zm10 1h1v1h-1z"/><path fill="#221" d="M33 21h1v1h-1zM21 33h1v1h-1zm-2 2h1v1h-1z"/><path fill="#c12" d="M38 43h1v1h-1zm-18 3h1v1h-1zm8 2h1v1h-1zm2 3h1v1h-1zm9 0h1v1h-1zm-9 2h1v1h-1zm-5 4h1v1h-1zm5 0h1v1h-1zm0 1h1v1h-1zm1 5h2v1h-2zm2 4h1v1h-1zm10 0h1v1h-1zm1 0h1v1h-1zm-1 3h1v1h-1zm-1 4h1v1h-1z"/><path fill="#bbb" d="M0 1h1v1H0zm1 0h1v1H1zm63 0h1v1h-1zm1 0h1v1h-1zM36 11h1v1h-1zm2 0h1v1h-1zm-6 1h1v1h-1zm1 3h1v1h-1zm-7 6h1v1h-1zm1 0h1v1h-1zm-2 2h1v1h-1zm12 6h1v1h-1zm9 0h1v1h-1zm-17 1h1v1h-1zm-9 2h1v1h-1zm29 2h1v1h-1zm2 0h1v1h-1zm-34 2h1v1h-1zm1 0h1v1h-1zM1 85h1v1H1zm63 0h1v1h-1zM2 86h1v1H2zm1 0h1v1H3zm59 0h1v1h-1zm1 0h1v1h-1z"/><path fill="#433" d="M38 12h1v1h-1zm-4 18h1v1h-1zm-2 1h1v1h-1zm-8 1h1v1h-1zm-2 2h1v1h-1z"/><path fill="#777" d="M27 13h1v1h-1zm3 0h1v1h-1zm-2 2h1v1h-1zm3 0h1v1h-1zm6 5h1v1h-1zm-6 10h1v1h-1zm4 1h1v1h-1zm1 0h1v1h-1zm-18 2h1v1h-1zm2 2h1v1h-1zM0 84h1v1H0zm65 0h1v1h-1zM0 85h1v1H0zm65 0h1v1h-1zM0 86h1v1H0zm65 0h1v1h-1zM0 87h1v1H0zm65 0h1v1h-1z"/><path fill="#888" d="M0 5h1v1H0zm65 0h1v1h-1zM0 6h1v1H0zm65 0h1v1h-1zM0 7h1v1H0zm65 0h1v1h-1zM0 8h1v73H0zm65 0h1v73h-1zm-40 5h1v1h-1zm10 7h1v1h-1zm5 0h1v1h-1zm-16 1h1v1h-1zm13 1h2v1h-2zm9 8h1v1h-1zm-24 2h1v1h-1zm28 2h1v1h-1zM0 81h1v2H0zm65 0h1v2h-1zM0 83h1v1H0zm65 0h1v1h-1zM1 87h1v1H1zm63 0h1v1h-1zM2 88h1v1H2zm61 0h1v1h-1z"/><path fill="#fee" d="M29 12h1v1h-1zm12 10h1v1h-1zm-7 18h1v1h-1zm0 1h1v1h-1zm-8 1h1v1h-1zm13 0h1v1h-1zm-15 1h1v1h-1zm7 0h1v1h-1zm-13 2h1v1h-1zm20 2h1v1h-1zm-9 2h1v1h-1zm3 2h1v1h-1zm10 0h1v1h-1zm-9 1h1v1h-1zm-4 1h1v1h-1zm6 7h1v1h-1zm-3 1h1v1h-1zm13 1h1v1h-1zm-24 2h1v1h-1zm27 1h1v1h-1zm-1 2h1v1h-1zm-23 1h1v1h-1zm12 2h1v1h-1zm9 2h1v1h-1zm-21 3h1v1h-1zm-2 1h1v1h-1zm16 1h1v1h-1z"/><path fill="#baa" d="M33 20h1v1h-1zm12 9h1v1h-1z"/><path fill="#554" d="M20 33h1v1h-1z"/><path fill="#e89" d="M25 44h1v1h-1zm12 5h1v1h-1zm2 0h1v1h-1zm-16 2h1v1h-1zm1 0h1v1h-1zm7 0h1v1h-1zm-10 1h1v1h-1zm15 2h1v1h-1zm-9 1h1v1h-1zm-1 2h1v1h-1zm18 6h1v1h-1zm-24 2h1v1h-1zm1 0h1v1h-1zm7 3h1v1h-1z"/><path fill="#923" d="M22 75h1v1h-1z"/><path fill="#b66" d="M46 68h1v1h-1z"/><path fill="#d45" d="M36 40h1v1h-1zm3 3h1v1h-1zm-8 1h1v1h-1zm1 4h1v1h-1zm-3 2h1v1h-1zm1 0h1v1h-1zm-6 2h1v1h-1zm1 0h1v1h-1zm6 10h1v1h-1zm3 1h1v1h-1zm3 0h1v1h-1zm7 1h1v1h-1zm-15 3h1v1h-1zm8 0h1v1h-1zm1 1h1v1h-1zm1 7h1v1h-1zm1 0h1v1h-1z"/><path fill="#812" d="M35 45h1v1h-1zm-1 1h1v1h-1zm1 13h1v1h-1zm2 11h1v1h-1z"/><path fill="#822" d="M24 47h1v1h-1z"/><g fill="#fff"><path d="M4 1h1v1H4zm1 0h1v1H5zm1 0h54v1H6zm54 0h1v1h-1zm1 0h1v1h-1zM3 2h1v1H3zm1 0h1v1H4zm1 0h56v1H5zm56 0h1v1h-1zm1 0h1v1h-1zM2 3h1v1H2zm1 0h1v1H3zm1 0h2v1H4zm2 0h54v1H6zm54 0h2v1h-2zm2 0h1v1h-1zm1 0h1v1h-1zM2 4h1v2H2zm1 0h1v3H3zm1 0h1v1H4zm1 0h56v7H5zm56 0h1v1h-1zm1 0h1v3h-1zm1 0h1v2h-1z"/><path d="M4 5h58v2H4zM3 7h1v1H3zm1 0h1v1H4zm57 0h1v1h-1zm1 0h1v1h-1zM3 8h1v73H3zm1 0h1v73H4zm57 0h1v74h-1zm1 0h1v73h-1zM5 11h28v1H5zm28 0h1v1h-1zm7 0h21v1H40zM5 12h23v1H5zm23 0h1v1h-1zm14 0h19v16H42zM5 13h19v18H5zm19 0h1v1h-1zm17 0h1v1h-1zm-17 1h1v7h-1z"/><path d="M39 14h22v5H39zm-14 1h2v6h-2z"/><path d="M35 15h26v4H35z"/><path d="M27 16h34v3H27zm0 3h7v1h-7zm7 0h1v1h-1zm1 0h1v1h-1zm5 0h21v1H40zm-13 1h2v1h-2zm2 0h1v1h-1zm12 0h1v1h-1zm-17 3h1v8h-1zm8 0h1v1h-1zm1 0h28v5H33zm-8 1h1v7h-1zm1 0h1v1h-1z"/><path d="M28 24h33v4H28z"/><path d="M26 25h35v3H26zm0 3h14v1H26zm14 0h1v1h-1zm1 0h1v1h-1zm1 0h1v1h-1zm3 0h1v1h-1zm1 0h15v1H46zm-20 1h6v1h-6zm6 0h1v1h-1zm17 0h12v1H49zm-23 1h1v1h-1zm24 0h1v1h-1zm1 0h10v1H51zM5 31h9v51H5zm10 0h1v1h-1zm1 0h5v1h-5zm5 0h1v1h-1zm30 0h1v1h-1zm1 0h9v51h-9zm-21 1h1v1h-1zm1 0h8v5h-8zm8 0h1v1h-1zm-13 1h1v1h-1z"/><path d="M28 33h16v4H28zm16 0h1v1h-1zm-30 1h1v50h-1z"/><path d="M25 34h23v3H25zm23 0h1v1h-1zm-33 1h1v49h-1z"/><path d="M22 35h39v2H22zm-6 1h1v48h-1zm3 0h1v1h-1z"/><path d="M20 36h41v1H20zm-3 1h16v4H17zm16 0h1v1h-1zm1 0h27v1H34zm4 1h23v1H38zm-5 1h1v1h-1zm6 0h22v3H39zm-6 1h1v3h-1zm-16 1h6v4h-6zm6 0h1v1h-1zm2 0h1v1h-1z"/><path d="M26 41h8v1h-8zm-3 1h1v3h-1zm4 0h7v1h-7zm11 0h1v1h-1zm4 0h1v1h-1zm1 0h18v1H43zm-15 1h1v1h-1zm1 0h1v1h-1zm1 0h1v1h-1zm13 0h1v1h-1zm1 0h17v2H44zm-20 1h1v1h-1zm-7 1h1v39h-1zm20 0h1v4h-1zm1 0h1v1h-1zm7 0h16v17H45zm-27 1h1v1h-1zm11 0h1v1h-1zm1 0h2v1h-2z"/><path d="M36 46h7v1h-7zm7 0h1v1h-1zm1 0h1v1h-1zm-26 1h2v17h-2zm11 0h2v1h-2zm2 0h1v1h-1zm4 0h3v2h-3zm5 0h21v1H40zm-20 1h1v16h-1zm1 0h1v1h-1zm3 0h1v1h-1zm1 0h1v2h-1zm4 0h1v1h-1zm1 0h1v1h-1z"/><path d="M34 48h4v1h-4zm7 0h1v1h-1zm1 0h19v2H42zm-21 1h6v1h-6zm0 1h2v1h-2zm4 0h1v1h-1zm17 0h1v1h-1zm1 0h18v12H43zm-22 1h1v1h-1zm12 0h1v1h-1zm1 0h3v2h-3z"/><path d="M42 52h19v10H42zm-16 1h3v1h-3zm-5 1h1v1h-1zm5 0h1v1h-1z"/><path d="M41 54h20v8H41zm-20 1h1v9h-1zm5 0h1v1h-1zm8 0h1v1h-1zm1 0h1v1h-1zm-13 1h1v1h-1zm5 0h2v2h-2zm6 0h2v1h-2z"/><path d="M40 56h21v6H40zm-18 1h1v7h-1zm1 1h1v1h-1z"/><path d="M39 58h22v4H39zm-16 1h1v5h-1zm1 1h1v1h-1zm9 0h2v2h-2z"/><path d="M38 60h23v2H38zm-14 1h1v3h-1zm1 0h1v1h-1zm3 0h1v2h-1z"/><path d="M35 61h26v1H35zm-10 1h4v1h-4zm21 0h15v1H46zm-21 1h1v1h-1zm22 0h1v1h-1zm1 0h13v1H48zm-30 1h1v1h-1zm1 0h1v1h-1zm15 0h1v1h-1zm1 0h7v1h-7zm7 0h1v1h-1zm7 0h12v18H49zm-21 1h1v1h-1zm4 0h1v2h-1zm5 0h6v1h-6zm-12 1h1v1h-1zm1 0h3v1h-3zm7 0h1v1h-1zm5 0h5v1h-5z"/><path d="M48 66h13v16H48zm-25 1h5v1h-5zm5 0h1v1h-1zm11 0h3v3h-3zm-21 1h1v16h-1zm5 0h1v2h-1z"/><path d="M47 68h14v14H47zm-14 1h1v1h-1zm1 0h2v4h-2zm-15 1h1v14h-1zm4 0h1v1h-1zm1 0h1v5h-1zm7 0h1v1h-1z"/><path d="M32 70h4v3h-4zm7 0h2v3h-2zm2 0h1v1h-1zm5 0h15v12H46zm-21 1h1v13h-1zm4 0h1v1h-1z"/><path d="M30 71h7v2h-7z"/><path d="M26 72h11v1H26zm11 0h2v1h-2zm-17 1h1v1h-1zm6 0h9v11h-9zm11 0h1v1h-1zm1 0h2v1h-2zm2 0h1v1h-1zm5 0h16v9H45zm-25 1h1v10h-1zm1 1h1v1h-1zm14 0h1v9h-1zm9 0h1v1h-1zm-23 1h1v8h-1zm3 0h1v1h-1zm12 0h1v8h-1z"/><path d="M44 76h17v6H44zm-22 1h16v7H22zm16 1h2v6h-2z"/><path d="M43 78h18v4H43z"/><path d="M40 79h21v3H40zM3 81h1v1H3zm1 0h1v2H4zm58 0h1v1h-1zM3 82h1v1H3zm2 0h1v1H5zm1 0h54v1H6zm54 0h1v1h-1zm1 0h1v1h-1zm1 0h1v1h-1zM3 83h1v1H3zm1 0h1v1H4zm1 0h1v1H5zm1 0h1v1H6zm1 0h52v1H7zm52 0h1v1h-1zm1 0h1v1h-1zm1 0h1v1h-1zm1 0h1v1h-1zM5 84h1v1H5zm1 0h1v1H6zm1 0h1v1H7zm1 0h50v1H8zm50 0h1v1h-1zm1 0h1v1h-1zm1 0h1v1h-1z"/></g><path fill="#aaa" d="M0 2h1v1H0zm65 0h1v1h-1zm-28 9h1v1h-1zm3 2h1v1h-1zm-3 1h1v1h-1zm-9 7h1v1h-1zm12 1h1v1h-1zm-2 7h1v1h-1zm1 0h1v1h-1zm2 0h1v1h-1zm1 0h1v1h-1zm1 0h1v1h-1zm1 0h1v1h-1zm-28 3h1v1h-1zm10 1h1v1h-1zM1 86h1v1H1zm63 0h1v1h-1zM2 87h1v1H2zm1 0h1v1H3zm1 0h1v1H4zm1 0h56v1H5zm56 0h1v1h-1zm1 0h1v1h-1zm1 0h1v1h-1zM4 88h1v1H4zm1 0h56v1H5zm56 0h1v1h-1z"/><path fill="#d88" d="M37 51h1v1h-1z"/><path fill="#c78" d="M27 61h1v1h-1z"/><path fill="#998" d="M34 12h1v1h-1zm13 18h1v1h-1zm3 1h1v1h-1z"/><path fill="#877" d="M35 12h1v1h-1zm-7 1h1v1h-1zm8 7h1v1h-1zm-6 1h1v1h-1zm-4 10h1v1h-1zm25 1h1v1h-1z"/><path fill="#544" d="M37 12h1v1h-1zm3 0h1v1h-1zm-8 1h1v1h-1zm2 9h1v1h-1zm-1 8h1v1h-1zm-8 3h1v1h-1zm22 0h1v1h-1z"/><path fill="#a12" d="M25 65h1v1h-1zm-4 8h1v1h-1z"/><path fill="#555" d="M29 15h1v1h-1zm4 16h1v1h-1zm5 0h1v1h-1zm10 0h1v1h-1zm-20 1h1v1h-1zm15 0h1v1h-1z"/><path fill="#ecd" d="M32 46h1v1h-1zm-4 14h1v1h-1z"/><path fill="#fef" d="M24 50h1v1h-1zm24 14h1v1h-1zm-6 3h1v1h-1zm-18 2h1v1h-1z"/><path fill="#eaa" d="M32 49h1v1h-1zm2 0h1v1h-1zm7 0h1v1h-1zm-14 1h1v1h-1zm-6 3h1v1h-1zm13 4h1v1h-1zm-5 5h1v1h-1zm4 3h1v1h-1z"/><path fill="#d77" d="M40 49h1v1h-1zm-12 5h1v1h-1z"/><path fill="#a01" d="M41 44h1v1h-1zm-16 2h1v1h-1zm2 0h1v1h-1zm0 2h1v1h-1zm1 3h1v1h-1zm13 0h1v1h-1zm-1 1h1v1h-1zm-1 1h1v1h-1zm-16 1h1v1h-1zm15 1h1v1h-1zm0 1h1v1h-1zm-14 1h1v1h-1zm13 0h1v1h-1zm-5 1h1v1h-1zm1 0h1v1h-1zm2 0h1v1h-1zm1 0h1v1h-1zm-10 1h1v1h-1zm5 0h1v1h-1zm-1 1h1v1h-1zm1 0h1v1h-1zm15 6h1v1h-1zm-27 1h1v1h-1zm1 0h1v1h-1zm1 0h1v2h-1zm24 0h1v1h-1zm-14 1h1v1h-1zm14 0h1v1h-1zm-1 2h1v1h-1zm0 1h1v1h-1zm-23 1h1v1h-1zm22 1h1v1h-1zm0 1h1v1h-1z"/><path fill="#ecc" d="M36 45h1v1h-1zm4 0h1v1h-1zm-5 1h1v1h-1zm-1 1h1v1h-1zm-8 1h1v1h-1zm14 7h1v1h-1zm-11 1h1v1h-1zm10 1h1v1h-1zm-1 2h1v1h-1zm-6 1h1v1h-1zm7 2h1v1h-1zm-17 5h1v1h-1zm24 2h1v1h-1zm-10 6h1v1h-1zm1 1h1v1h-1z"/><path fill="#701" d="M36 59h1v1h-1zm1 0h1v1h-1zm-9 11h1v1h-1zm12 7h2v1h-2zm2 0h1v1h-1z"/><path fill="#d67" d="M34 38h1v1h-1zm6 5h1v1h-1zm1 0h1v1h-1zm-17 2h1v1h-1zm7 4h1v1h-1zm-3 1h1v1h-1zm-3 1h1v1h-1zm9 2h1v1h-1zm11 11h1v1h-1zm-23 1h1v1h-1zm14 1h1v1h-1zm-4 1h1v1h-1zm10 2h1v1h-1zm-19 4h1v1h-1zm14 1h1v1h-1z"/><path fill="#fcd" d="M32 43h1v1h-1zm-12 2h1v1h-1zm13 3h1v1h-1zm-1 14h1v1h-1zm-12 2h1v1h-1z"/><path fill="#801" d="M36 44h1v1h-1zm1 0h1v1h-1zm1 0h1v1h-1zm-16 3h1v1h-1zm1 0h1v1h-1zm4 0h1v1h-1zm-1 13h1v1h-1zm4 9h1v1h-1zm-3 1h1v1h-1z"/><path fill="#c13" d="M35 40h1v1h-1zm0 1h1v1h-1zm0 2h1v1h-1zm-12 3h1v1h-1zm18 4h1v1h-1zm-10 4h1v1h-1zm6 1h1v1h-1zm-1 2h1v1h-1zm6 6h1v1h-1zm-23 3h1v1h-1zm24 2h1v1h-1zm0 1h1v1h-1zm-21 1h1v1h-1zm20 1h1v1h-1zm-4 4h1v1h-1z"/><path fill="#ebb" d="M34 42h1v1h-1zm-11 3h1v1h-1zm15 3h1v1h-1zm2 0h1v1h-1zm-7 1h1v1h-1zm-11 2h1v1h-1zm5 7h1v1h-1zm2 2h1v1h-1zm0 1h1v1h-1zm17 2h1v1h-1zm-13 1h1v1h-1zm-15 3h1v1h-1zm22 7h1v1h-1z"/><path fill="#d99" d="M43 65h1v1h-1zm2 6h1v1h-1z"/><path fill="#e9a" d="M33 38h1v1h-1zm-7 5h1v1h-1zm13 5h1v1h-1zm-4 1h1v1h-1zm1 0h1v1h-1zm9 14h1v1h-1zm-10 2h1v1h-1zm-12 7h1v1h-1zm12 1h1v1h-1z"/><path fill="#ebc" d="M19 45h1v1h-1zm25 0h1v1h-1zm-16 7h1v1h-1zm12 10h1v1h-1zm1 0h1v1h-1zm1 0h1v1h-1zm-19 2h1v1h-1zm-5 1h1v1h-1zm20 2h1v1h-1zm-13 1h1v1h-1zm2 0h1v1h-1zm-2 2h1v1h-1zm16 1h1v1h-1z"/><path fill="#c89" d="M35 68h1v1h-1z"/><path fill="#b88" d="M27 71h1v1h-1z"/><path fill="#a23" d="M28 46h1v1h-1zm0 1h1v1h-1zm-6 7h1v1h-1zm1 2h1v1h-1zm1 2h1v1h-1z"/><path fill="#c45" d="M35 50h1v1h-1zm-7 5h1v1h-1zm11 8h1v1h-1zm4 3h1v1h-1z"/><path fill="#a45" d="M40 54h1v1h-1zm-1 2h1v1h-1zm-1 2h1v1h-1z"/><path fill="#ccc" d="M1 0h1v1H1zm1 0h1v1H2zm61 0h1v1h-1zm1 0h1v1h-1zM1 2h1v1H1zm63 0h1v1h-1zM27 15h1v1h-1zm11 4h1v1h-1zm-6 1h1v1h-1zm-1 3h1v1h-1zm4 6h1v1h-1zm12 0h1v1h-1zm-30 3h1v1h-1zm1 0h1v1h-1zm1 0h1v1h-1zm22 0h1v1h-1zm-26 2h1v1h-1zM1 84h1v1H1zm63 0h1v1h-1zM2 85h1v1H2zm61 0h1v1h-1zM4 86h1v1H4zm1 0h1v1H5zm1 0h1v1H6zm1 0h52v1H7zm52 0h1v1h-1zm1 0h1v1h-1zm1 0h1v1h-1z"/><path fill="#a99" d="M33 12h1v1h-1zm-8 9h1v1h-1zm-1 1h1v1h-1zm16 7h1v1h-1zm-15 2h1v1h-1zm-4 1h1v1h-1z"/><path fill="#a56" d="M36 60h1v1h-1zm6 18h1v1h-1z"/></svg>