<svg xmlns="http://www.w3.org/2000/svg" width="66" height="90" baseProfile="tiny" version="1.2"><path fill="#fee" d="M28 14h1v1h-1zm9 23h1v1h-1zm-14 7h1v1h-1zm20 1h1v1h-1zm-23 1h1v1h-1zm11 1h1v1h-1zm7 0h1v1h-1zm-5 1h1v1h-1zm-11 2h1v1h-1zm12 0h1v1h-1zm-13 1h1v1h-1zm0 1h1v1h-1zm15 1h1v1h-1zm-14 1h1v1h-1zm1 2h1v1h-1zm1 2h1v1h-1zm4 2h1v1h-1zm10 1h1v1h-1zm1 0h1v1h-1zm1 0h1v1h-1zm1 0h1v1h-1zm2 0h1v1h-1zm1 0h1v1h-1zm-24 2h1v1h-1zm1 0h1v1h-1zm1 0h1v1h-1zm10 1h1v1h-1zm16 1h1v1h-1zm-30 1h1v1h-1zm21 1h1v1h-1zm8 0h1v1h-1zm-27 3h1v1h-1zm6 0h1v1h-1zm15 1h1v1h-1zm-5 3h1v1h-1zm1 1h1v1h-1z"/><path fill="#bba" d="M25 15h1v1h-1z"/><path fill="#988" d="M49 15h1v1h-1zm-32 1h1v1h-1zm3 0h1v1h-1zm8 1h1v1h-1zm-8 1h1v1h-1z"/><path fill="#c77" d="M22 53h1v1h-1zm1 2h1v1h-1zm1 2h1v1h-1z"/><path fill="#823" d="M35 58h1v1h-1z"/><path fill="#945" d="M36 44h1v1h-1zm-4 24h1v1h-1z"/><path fill="#eaa" d="M42 49h1v1h-1zm-19 1h1v1h-1zm14 1h1v1h-1zm-1 3h1v1h-1zm-3 2h1v1h-1zm-5 6h1v1h-1zm6 3h1v1h-1zm4 8h1v1h-1z"/><path fill="#998" d="M27 15h1v1h-1zm-2 2h1v1h-1z"/><path fill="#c89" d="M27 64h1v1h-1zm17 10h1v1h-1z"/><path fill="#d9a" d="M25 65h1v1h-1zm-6 2h1v1h-1z"/><path fill="#766" d="M34 14h1v1h-1zm-18 2h1v1h-1zm28 0h1v1h-1zm5 0h1v1h-1zM31 28h1v1h-1z"/><path fill="#b56" d="M21 46h1v1h-1zm11 13h1v1h-1z"/><path fill="#edd" d="M36 13h1v1h-1zm-7 1h1v1h-1zm22 5h1v1h-1zm-29 5h1v1h-1zm10 3h1v1h-1zm6 32h1v1h-1zm1 10h1v1h-1zm-10 1h1v1h-1zm16 2h1v1h-1zm-24 1h1v1h-1zm19 4h1v1h-1z"/><path fill="#dbb" d="M39 44h1v1h-1zm-15 3h1v1h-1zm17 6h1v1h-1zm-8 15h1v1h-1zm13 1h1v1h-1z"/><path fill="#b77" d="M23 47h1v1h-1zm11 11h1v1h-1zm2 1h1v1h-1zm-9 11h1v1h-1z"/><path fill="#d77" d="M35 53h1v1h-1zm-6 9h1v1h-1zm16 1h2v1h-2zm-2 3h1v1h-1z"/><path fill="#433" d="M44 14h1v1h-1zm-19 2h1v1h-1zm9 2h1v1h-1zm-5 1h1v1h-1zm5 0h1v1h-1zm16 0h1v1h-1zm-15 2h1v1h-1zm8 0h1v1h-1zm5 0h1v1h-1zm-28 1h1v1h-1zm0 1h1v1h-1zm23 0h1v1h-1zm-22 2h1v1h-1zm1 1h1v1h-1zm20 0h1v1h-1zm-20 1h1v1h-1zm22 0h1v1h-1zm-10 1h1v1h-1zm-8 1h1v1h-1zm-2 2h1v1h-1z"/><path fill="#887" d="M40 22h1v1h-1z"/><path fill="#e88" d="M34 38h1v1h-1zm2 0h1v1h-1zm-11 4h1v1h-1zm16 6h1v1h-1zm-15 7h1v1h-1zm18 7h1v1h-1zm-22 2h1v1h-1z"/><path fill="#d56" d="M35 40h1v1h-1zm0 1h1v1h-1zm3 1h1v1h-1zm1 0h1v1h-1zm-7 1h1v1h-1zm0 4h1v1h-1zm-2 2h1v1h-1zm1 0h1v1h-1zm8 0h1v1h-1zm1 0h1v1h-1zm-14 1h1v1h-1zm6 1h1v1h-1zm-2 1h1v1h-1zm4 0h1v1h-1zm3 0h1v1h-1zm-3 10h1v1h-1zm1 0h1v1h-1zm8 0h1v1h-1zm4 1h1v1h-1zm-24 1h1v1h-1zm12 1h1v1h-1zm1 8h1v1h-1zm1 0h1v1h-1zm4 1h1v1h-1z"/><path fill="#a23" d="M26 64h1v1h-1zm-6 4h1v1h-1zm6 1h1v1h-1zm19 1h1v1h-1z"/><path fill="#c78" d="M45 71h1v1h-1zm-24 1h1v1h-1zm2 3h1v1h-1z"/><path fill="#333" d="M24 16h1v1h-1zm-5 1h1v1h-1zm6 5h1v1h-1zm-5 6h1v1h-1zm20 1h1v1h-1z"/><path fill="#d67" d="M38 40h1v1h-1zm2 2h1v1h-1zm-9 1h1v1h-1zm-6 1h1v1h-1zm8 3h1v1h-1zm-10 4h1v1h-1zm1 0h1v1h-1zm5 2h1v1h-1zm7 2h1v1h-1zm0 10h1v1h-1zm-7 2h1v1h-1zm-4 1h1v1h-1z"/><path fill="#a01" d="M40 43h1v1h-1zm-6 1h1v1h-1zm-8 1h2v1h-2zm2 0h1v1h-1zm0 2h1v1h-1zm12 4h1v1h-1zm1 0h1v1h-1zm-18 2h1v1h-1zm16 0h1v1h-1zm-15 2h1v1h-1zm14 1h1v1h-1zm-13 1h1v1h-1zm1 1h1v1h-1zm5 0h1v1h-1zm0 1h1v1h-1zm-8 6h1v1h-1zm-2 2h1v1h-1zm11 0h1v1h-1zm-11 1h1v2h-1zm17 0h1v1h-1zm7 0h1v1h-1zm-24 2h1v1h-1zm23 1h1v1h-1zm-22 1h1v1h-1zm22 0h1v1h-1zm-21 1h1v1h-1zm20 1h1v1h-1zm-3 1h1v1h-1zm1 0h1v1h-1zm1 0h1v1h-1z"/><path fill="#a12" d="M32 58h1v1h-1zm15 7h1v1h-1zm-28 1h1v1h-1z"/><path fill="#933" d="M34 67h1v1h-1z"/><path fill="#b78" d="M39 76h1v1h-1z"/><path fill="#555" d="M30 15h1v1h-1zm1 0h1v1h-1zm0 1h1v1h-1zm3 1h1v1h-1zm-19 1h1v1h-1zm5 3h1v1h-1zm-3 1h1v1h-1zm19 1h1v1h-1zm-4 5h1v1h-1zm3 1h1v1h-1zm1 0h1v1h-1zm1 0h1v1h-1zm1 0h1v1h-1zm-16 2h1v1h-1z"/><path fill="#fcc" d="M33 37h1v1h-1zm-9 3h1v1h-1zm0 1h1v1h-1zm3 1h1v1h-1zm-2 1h1v1h-1zm-6 1h1v1h-1zm10 4h1v1h-1zm6 0h1v1h-1zm1 0h1v1h-1zm-2 8h1v1h-1zm-6 11h1v1h-1zm8 5h1v1h-1z"/><path fill="#caa" d="M40 44h1v1h-1z"/><path fill="#daa" d="M22 47h1v1h-1z"/><path fill="#b12" d="M30 51h1v1h-1zm-8 1h1v1h-1zm7 2h1v1h-1zm11 8h1v1h-1zm4 2h1v1h-1zm-21 8h1v1h-1z"/><path fill="#c45" d="M30 55h1v1h-1zm2 8h1v1h-1zm-9 8h1v1h-1z"/><path fill="#c99" d="M25 59h1v1h-1zm-3 15h1v1h-1z"/><path fill="#eab" d="M38 38h1v1h-1zm-9 5h1v1h-1zm11 4h1v1h-1zm-12 2h1v1h-1zm7 7h1v1h-1zm11 6h1v1h-1zm-3 1h1v1h-1zm-11 3h1v1h-1z"/><path fill="#c24" d="M30 44h1v1h-1zm-10 1h1v1h-1zm17 8h1v1h-1zm8 11h1v1h-1zm-19 4h1v1h-1z"/><path fill="#a55" d="M30 69h1v1h-1z"/><path fill="#443" d="M35 14h1v1h-1zm-18 3h1v1h-1z"/><path fill="#dcc" d="M34 27h1v1h-1z"/><path fill="#c23" d="M35 39h1v1h-1zm1 1h1v1h-1zm1 0h1v1h-1zm-1 1h1v1h-1zm1 0h1v1h-1zm-9 3h1v1h-1zm-4 1h1v1h-1zm12 4h1v1h-1zm-5 2h1v1h-1zm0 1h1v1h-1zm2 0h1v1h-1zm-8 1h1v1h-1zm12 1h1v1h-1zm0 1h1v1h-1zm-11 2h1v1h-1zm4 0h1v1h-1zm0 3h1v1h-1zm1 2h1v1h-1zm1 0h1v1h-1zm6 0h1v1h-1zm1 0h1v1h-1zm3 0h1v1h-1zm-15 1h1v1h-1zm-3 1h1v1h-1zm22 0h1v1h-1zm-27 1h1v1h-1zm9 3h1v1h-1zm14 3h1v1h-1z"/><path fill="#c67" d="M27 51h1v1h-1zm-5 15h1v1h-1z"/><path fill="#801" d="M37 43h1v1h-1zm1 0h1v1h-1zm-3 1h1v1h-1zm-11 2h1v1h-1zm3 0h1v1h-1zm11 11h1v1h-1zm-12 2h1v1h-1zm1 0h1v1h-1zm10 9h1v1h-1zm-9 1h1v1h-1zm10 0h1v1h-1z"/><path fill="#b88" d="M41 44h1v1h-1z"/><path fill="#a99" d="M33 14h1v1h-1zm-17 1h1v1h-1zm16 5h1v1h-1zm6 1h1v1h-1zm-15 6h1v1h-1zm5 1h1v1h-1z"/><path fill="#222" d="M38 14h1v1h-1zm-15 3h1v1h-1zm23 0h1v1h-1zm1 0h1v1h-1zm-2 3h1v1h-1zm-26 2h1v1h-1zm15 0h1v1h-1zm9 2h1v1h-1zm2 1h1v1h-1zm-20 5h1v1h-1z"/><path fill="#b02" d="M37 42h1v1h-1zm-2 1h1v1h-1zm6 0h1v1h-1zm-16 2h1v1h-1zm8 1h1v1h-1zm1 3h1v1h-1zm1 0h1v1h-1zm-7 1h1v1h-1zm1 0h1v1h-1zm12 0h1v1h-1zm-3 1h2v1h-2zm1 1h1v1h-1zm-15 1h1v1h-1zm6 0h1v1h-1zm3 0h1v1h-1zm-9 1h1v1h-1zm6 0h1v1h-1zm1 0h1v1h-1zm1 0h1v1h-1zm6 0h1v1h-1zm-7 1h1v1h-1zm1 0h1v1h-1zm6 0h1v1h-1zm-13 1h1v1h-1zm7 1h1v1h-1zm1 0h1v1h-1zm1 0h1v1h-1zm1 0h1v1h-1zm1 0h1v1h-1zm-9 1h1v1h-1zm3 0h1v1h-1zm1 2h1v1h-1zm-2 3h2v1h-2zm2 0h1v1h-1zm-6 1h1v1h-1zm5 0h1v1h-1zm1 0h1v1h-1zm13 1h1v1h-1zm2 0h1v1h-1zm-26 1h1v1h-1zm1 0h1v1h-1zm24 0h1v1h-1zm-14 1h1v1h-1zm6 0h1v1h-1zm8 0h1v1h-1zm-23 1h1v1h-1zm7 0h1v1h-1zm15 1h1v1h-1zm0 1h1v1h-1zm-22 1h1v1h-1zm21 1h1v1h-1zm0 1h1v1h-1z"/><path fill="#c35" d="M27 44h1v1h-1zm15 29h1v1h-1z"/><path fill="#c56" d="M31 44h1v1h-1zm2 1h1v1h-1z"/><path fill="#c12" d="M27 50h1v1h-1zm3 0h1v1h-1zm8 0h1v1h-1zm2 0h1v1h-1zm-16 2h1v1h-1zm14 0h1v1h-1zm-7 1h1v1h-1zm-6 1h1v1h-1zm0 1h1v1h-1zm6 1h1v1h-1zm1 0h1v1h-1zm12 10h1v1h-1zm-14 1h1v1h-1zm14 0h1v1h-1zm-1 1h1v1h-1zm0 2h1v1h-1zm0 1h1v1h-1zm-5 3h1v1h-1z"/><path fill="#999" d="M0 3h1v1H0zm65 0h1v1h-1zM0 4h1v1H0zm65 0h1v1h-1zm-25 9h1v1h-1zm4 0h1v1h-1zm2 1h1v1h-1zm1 0h1v1h-1zm-29 2h2v1h-2zm3 2h1v1h-1zm22 1h1v1h-1zm-7 2h1v1h-1zm-1 2h1v1h-1zm-6 7h1v1h-1zM3 88h1v1H3zm59 0h1v1h-1z"/><path fill="#baa" d="M51 16h1v1h-1z"/><path fill="#ebc" d="M38 41h1v1h-1zm-9 5h1v1h-1zm4 5h1v1h-1zm-9 12h1v1h-1z"/><path fill="#923" d="M25 46h1v1h-1zm2 1h1v1h-1z"/><path fill="#b67" d="M47 66h1v1h-1zm-12 1h1v1h-1z"/><path fill="#b45" d="M34 46h1v1h-1zm-1 8h1v1h-1z"/><path fill="#111" d="M15 17h1v1h-1zm6 0h1v1h-1zm1 0h1v1h-1zm-6 1h1v1h-1zm33 0h1v1h-1zm1 0h1v1h-1zm-34 1h1v1h-1zm1 0h1v1h-1zm11 0h1v1h-1zm20 0h1v1h-1zm-31 1h1v1h-1zm10 0h1v1h-1zm6 0h1v1h-1zm14 0h1v1h-1zm-30 1h1v1h-1zm10 0h1v1h-1zm7 0h1v1h-1zm12 0h1v1h-1zm-28 1h1v1h-1zm8 0h1v1h-1zm9 0h1v1h-1zm1 0h1v1h-1zm10 0h1v1h-1zm-28 1h1v1h-1zm7 0h1v1h-1zm14 0h1v1h-1zm6 0h1v1h-1zm-26 1h1v1h-1zm25 0h1v1h-1zm1 0h1v1h-1zm-26 1h1v1h-1zm25 0h1v1h-1zm-24 1h1v1h-1zm24 0h1v1h-1zm-24 1h1v1h-1zm23 0h1v1h-1zm-22 1h1v1h-1zm19 0h1v1h-1zm1 0h1v1h-1zm-19 1h1v1h-1zm7 0h1v1h-1zm1 0h1v1h-1zm1 0h1v1h-1zm1 0h1v1h-1zm-9 1h1v1h-1zm1 0h1v1h-1z"/><path fill="#fef" d="M41 41h1v1h-1zm-9 1h1v1h-1zm11 0h1v1h-1zm-19 7h1v1h-1zm21 12h1v1h-1zm2 1h1v1h-1zm-10 8h1v1h-1z"/><path fill="#812" d="M37 59h1v1h-1z"/><path fill="#ccc" d="M1 0h1v1H1zm1 0h1v1H2zm61 0h1v1h-1zm1 0h1v1h-1zM1 2h1v1H1zm63 0h1v1h-1zM37 13h1v1h-1zm-6 1h1v1h-1zm-8 1h1v1h-1zm6 1h1v1h-1zm0 1h1v1h-1zm2 0h1v1h-1zm-9 1h1v1h-1zm8 0h1v1h-1zm5 2h1v1h-1zm4 1h1v1h-1zm-18 1h1v1h-1zm12 0h1v1h-1zm-16 1h1v1h-1zm24 0h1v1h-1zm-18 2h1v1h-1zm17 1h1v1h-1zm-5 1h1v1h-1zm1 0h1v1h-1zm-10 1h1v1h-1zM1 84h1v1H1zm63 0h1v1h-1zM2 85h1v1H2zm61 0h1v1h-1zM4 86h1v1H4zm1 0h1v1H5zm1 0h1v1H6zm1 0h52v1H7zm52 0h1v1h-1zm1 0h1v1h-1zm1 0h1v1h-1z"/><path fill="#d78" d="M37 38h1v1h-1zm4 4h1v1h-1zm-15 1h1v1h-1zm18 1h1v1h-1zm-15 5h1v1h-1zm13 1h1v1h-1zm-13 7h1v1h-1zm19 7h1v1h-1zm-10 2h1v1h-1zm-15 4h1v1h-1z"/><path fill="#701" d="M36 58h1v1h-1zm1 0h1v1h-1zm-6 10h1v1h-1zm-2 1h1v1h-1zm11 7h1v1h-1zm1 0h1v1h-1zm1 0h1v1h-1zm0 1h1v1h-1z"/><path fill="#888" d="M0 5h1v1H0zm65 0h1v1h-1zM0 6h1v1H0zm65 0h1v1h-1zM0 7h1v1H0zm65 0h1v1h-1zM0 8h1v73H0zm65 0h1v73h-1zm-24 5h1v1h-1zm2 0h1v1h-1zm1 2h1v1h-1zm4 0h1v1h-1zm-21 1h1v1h-1zm-5 9h1v1h-1zm7 3h1v1h-1zM0 81h1v2H0zm65 0h1v2h-1zM0 83h1v1H0zm65 0h1v1h-1zM1 87h1v1H1zm63 0h1v1h-1zM2 88h1v1H2zm61 0h1v1h-1z"/><path fill="#ddc" d="M30 14h1v1h-1zm20 1h1v1h-1z"/><path fill="#fdd" d="M36 37h1v1h-1zm-10 4h1v1h-1zm7 1h1v1h-1zm-13 2h1v1h-1zm19 2h1v1h-1zm-9 2h1v1h-1zm4 0h1v1h-1zm-7 14h1v1h-1zm-4 1h1v1h-1zm19 0h1v1h-1zm-17 4h1v1h-1zm1 0h1v1h-1zm1 0h1v1h-1zm15 1h1v1h-1zm-7 4h1v1h-1zm4 1h1v1h-1zm5 2h1v1h-1z"/><path fill="#c88" d="M33 58h1v1h-1zm-5 1h1v1h-1z"/><path fill="#322" d="M39 14h1v1h-1zm-24 2h1v1h-1zm31 0h1v1h-1zm2 1h2v1h-2zm-16 1h1v1h-1zm13 0h1v1h-1zm-26 1h1v1h-1zm25 0h2v1h-2zm-10 1h1v1h-1zm-15 1h1v1h-1zm14 0h1v1h-1zm11 1h1v1h-1zm-4 1h1v1h-1zm-20 1h1v1h-1zm1 2h1v1h-1zm1 2h1v1h-1zm13 0h1v1h-1zm1 0h1v1h-1zm-13 1h1v1h-1zm10 0h1v1h-1z"/><path fill="#ebb" d="M35 37h1v1h-1zm-11 7h1v1h-1zm20 1h1v1h-1zm-12 1h1v1h-1zm-3 1h1v1h-1zm8 1h1v1h-1zm5 3h1v1h-1zm-9 4h1v1h-1zm-6 2h1v1h-1zm2 2h1v1h-1zm3 2h1v1h-1zm11 4h1v1h-1zm-20 4h1v1h-1zm18 3h1v1h-1z"/><path fill="#a45" d="M42 44h1v1h-1zm-7 1h1v1h-1zm5 9h1v1h-1zm-1 2h1v1h-1zm-1 2h1v1h-1z"/><path fill="#a67" d="M26 46h1v1h-1zm2 24h1v1h-1z"/><path fill="#fcd" d="M35 52h1v1h-1zm-9 2h1v1h-1zm2 3h1v1h-1zm6 6h1v1h-1zm14 0h1v1h-1zm-12 1h1v1h-1z"/><path fill="#a34" d="M41 52h1v1h-1zM24 65h1v1h-1zm14 5h1v1h-1zm6 3h1v1h-1zm-6 2h1v1h-1z"/><path fill="#ddd" d="M3 0h1v1H3zm1 0h1v1H4zm1 0h56v1H5zm56 0h1v1h-1zm1 0h1v1h-1zM2 1h1v1H2zm61 0h1v1h-1zM1 6h1v1H1zm63 0h1v1h-1zM1 7h1v1H1zm63 0h1v1h-1zM1 8h1v1H1zm63 0h1v1h-1zM1 9h1v73H1zm63 0h1v73h-1zm-49 5h2v1h-2zm7 1h1v1h-1zm13 0h1v1h-1zm-1 1h1v1h-1zm9 2h1v1h-1zm-28 1h1v1h-1zm14 1h1v1h-1zm-13 1h1v1h-1zm17 6h1v1h-1zm-9 1h1v1h-1zm1 0h1v1h-1zm6 2h1v1h-1zM1 82h1v1H1zm63 0h1v1h-1zM1 83h1v1H1zm63 0h1v1h-1zM2 84h1v1H2zm61 0h1v1h-1zM3 85h1v1H3zm1 0h1v1H4zm1 0h1v1H5zm1 0h1v1H6zm1 0h2v1H7zm50 0h2v1h-2zm2 0h1v1h-1zm1 0h1v1h-1zm1 0h1v1h-1zm1 0h1v1h-1z"/><path fill="#e99" d="M26 42h1v1h-1zm16 0h1v1h-1zm-4 6h1v1h-1zm-13 2h1v1h-1zm-4 14h1v1h-1zm20 9h1v1h-1z"/><path fill="#934" d="M43 76h1v1h-1z"/><path fill="#d89" d="M32 44h1v1h-1zm-4 7h1v1h-1zm1 13h1v1h-1zm-9 5h1v1h-1z"/><path fill="#c13" d="M39 50h1v1h-1zm-1 3h1v1h-1zm-10 5h1v1h-1zm3 7h1v1h-1zm12 4h1v1h-1zm-1 5h1v1h-1z"/><path fill="#eee" d="M3 1h1v1H3zm59 0h1v1h-1zM2 2h1v1H2zm61 0h1v1h-1zM1 3h1v1H1zm63 0h1v1h-1zM1 4h1v1H1zm63 0h1v1h-1zM1 5h1v1H1zm63 0h1v1h-1zM2 6h1v1H2zm61 0h1v1h-1zM2 7h1v1H2zm61 0h1v1h-1zM2 8h1v74H2zm61 0h1v74h-1zm-16 5h1v1h-1zm-29 2h1v1h-1zm3 0h1v1h-1zm15 0h1v1h-1zm-6 1h1v1h-1zm12 5h1v1h-1zm6 1h1v1h-1zm-2 3h1v1h-1zm-23 1h1v1h-1zm8 1h1v1h-1zm12 3h1v1h-1zm-19 3h1v1h-1zM2 82h1v1H2zm61 0h1v1h-1zM2 83h1v1H2zm61 0h1v1h-1zM3 84h1v1H3zm1 0h1v1H4zm57 0h1v1h-1zm1 0h1v1h-1zM9 85h48v1H9z"/><path fill="#777" d="M45 14h1v1h-1zm-30 1h1v1h-1zm17 0h1v1h-1zm-11 1h1v1h-1zm5 2h1v1h-1zm1 4h1v1h-1zm3 6h1v1h-1zm-7 4h1v1h-1zM0 84h1v1H0zm65 0h1v1h-1zM0 85h1v1H0zm65 0h1v1h-1zM0 86h1v1H0zm65 0h1v1h-1zM0 87h1v1H0zm65 0h1v1h-1z"/><path fill="#110" d="M49 19h1v1h-1zm-1 1h1v1h-1zm-1 1h1v1h-1zm-9 2h1v1h-1zm8 0h1v1h-1zm-4 5h2v1h-2zm-21 1h1v1h-1zm1 1h1v1h-1z"/><path fill="#e9a" d="M34 42h1v1h-1zm-1 2h1v1h-1zm6 3h1v1h-1zm-15 3h1v1h-1zm21 12h1v1h-1zm-12 1h1v1h-1zm-14 1h1v1h-1zm10 2h1v1h-1z"/><path fill="#211" d="M36 14h1v1h-1zm1 0h1v1h-1zm5 0h1v1h-1zm1 0h1v1h-1zm-11 2h1v1h-1zm13 0h1v1h-1zm-29 1h1v1h-1zm4 0h1v1h-1zm6 0h1v1h-1zm6 0h1v1h-1zm1 0h1v2h-1zm12 0h1v1h-1zm5 0h1v1h-1zm1 0h1v1h-1zm-34 1h1v1h-1zm1 0h1v1h-1zm9 0h1v1h-1zm1 0h1v1h-1zm1 0h1v1h-1zm18 0h1v1h-1zm1 0h1v1h-1zm3 0h1v1h-1zm-33 1h1v1h-1zm9 0h1v1h-1zm6 0h1v1h-1zm13 0h1v1h-1zm1 0h1v1h-1zm-29 1h1v1h-1zm1 0h1v1h-1zm9 0h1v1h-1zm18 0h1v1h-1zm-28 1h1v1h-1zm8 0h1v1h-1zm19 0h1v1h-1zm-8 1h1v1h-1zm8 0h1v1h-1zm-26 1h1v1h-1zm18 0h1v1h-1zm7 0h1v1h-1zm-24 2h1v1h-1zm23 0h1v1h-1zm0 1h1v1h-1zm-22 1h1v1h-1zm21 0h1v1h-1zm-5 1h1v1h-1zm1 0h1v1h-1zm1 0h1v1h-1zm-12 1h1v1h-1zm1 0h1v1h-1zm13 0h1v1h-1zm3 0h1v1h-1z"/><path fill="#aaa" d="M0 2h1v1H0zm65 0h1v1h-1zM39 13h1v1h-1zm6 0h1v1h-1zm-19 2h1v1h-1zm7 0h1v1h-1zm-5 1h1v1h-1zm-8 4h1v1h-1zm5 1h1v1h-1zm3 0h1v1h-1zm9 0h1v1h-1zm5 1h1v1h-1zm-18 1h1v1h-1zm17 1h1v1h-1zm-17 1h1v1h-1zm15 2h1v1h-1zM1 86h1v1H1zm63 0h1v1h-1zM2 87h1v1H2zm1 0h1v1H3zm1 0h1v1H4zm1 0h56v1H5zm56 0h1v1h-1zm1 0h1v1h-1zm1 0h1v1h-1zM4 88h1v1H4zm1 0h56v1H5zm56 0h1v1h-1z"/><path fill="#221" d="M40 14h2v1h-2zm5 1h1v1h-1zm-1 3h1v1h-1zm2 0h1v1h-1zm1 4h1v1h-1z"/><path fill="#544" d="M33 16h1v1h-1zm14 0h1v1h-1zm-29 1h1v1h-1zm31 3h1v1h-1zm-10 2h1v1h-1zm-21 2h1v1h-1zm7 0h1v1h-1zm16 1h1v1h-1zm0 1h1v1h-1zm3 2h1v1h-1zm-20 1h1v1h-1z"/><path fill="#c34" d="M35 42h1v1h-1zm-1 1h1v1h-1zm-13 2h1v1h-1zm11 4h1v1h-1zm5 0h1v1h-1zm1 0h1v1h-1zm3 0h1v1h-1zm-10 1h1v1h-1zm-6 1h1v1h-1zm1 0h1v1h-1zm6 1h1v1h-1zm-4 2h1v1h-1zm2 2h1v1h-1zm6 0h1v1h-1zm-6 5h1v1h-1zm1 0h1v1h-1zm-1 1h1v1h-1zm7 0h1v1h-1zm7 1h1v1h-1zm-14 3h1v1h-1zm1 0h1v1h-1zm5 0h1v1h-1zm7 1h1v1h-1zm-16 1h1v1h-1zm15 4h1v1h-1z"/><path fill="#902" d="M43 44h1v1h-1z"/><path fill="#b34" d="M30 59h1v1h-1zm-8 8h1v1h-1zm-1 4h1v1h-1zm16 3h1v1h-1z"/><path fill="#554" d="M26 16h1v1h-1zm16 7h1v1h-1zm-17 6h1v1h-1z"/><path fill="#332" d="M44 17h1v1h-1zm-18 3h1v1h-1zm18 0h1v1h-1zm0 1h1v1h-1zm-6 1h1v1h-1zm-14 2h1v1h-1zm18 0h1v2h-1zm-1 3h1v1h-1zm-15 3h1v1h-1z"/><path fill="#100" d="M42 29h2v1h-2zm-19 2h1v1h-1z"/><path fill="#e89" d="M34 37h1v1h-1zm-7 6h1v1h-1zm1 0h1v1h-1zm2 0h1v1h-1zm1 5h1v1h-1zm1 0h1v1h-1zm7 0h1v1h-1zm1 0h1v1h-1zm-8 2h1v1h-1zm-5 4h1v1h-1zm-2 9h1v1h-1zm-5 1h1v1h-1zm15 0h1v1h-1zm-17 1h1v1h-1zm19 0h1v1h-1zm5 4h1v1h-1z"/><path fill="#d45" d="M35 38h1v1h-1zm1 1h1v1h-1zm1 0h1v1h-1zm1 0h1v1h-1zm-5 4h1v1h-1zm10 0h1v1h-1zm-17 1h1v1h-1zm-4 1h1v1h-1zm1 0h1v1h-1zm5 3h1v1h-1zm-6 3h1v1h-1zm4 5h1v1h-1zm7 6h1v1h-1zm3 0h1v1h-1zm-10 1h1v1h-1zm8 1h1v1h-1zm-14 1h1v1h-1zm1 0h1v1h-1zm16 1h1v1h-1zm5 4h1v1h-1zm-3 4h1v1h-1z"/><path fill="#c02" d="M36 42h1v1h-1zm6 1h1v1h-1zm-13 1h1v1h-1zm4 5h1v1h-1zm-10 3h1v1h-1zm9 1h1v1h-1zm2 0h1v1h-1zm3 3h1v1h-1zm-6 1h1v1h-1zm-2 1h1v1h-1zm12 4h1v1h-1zm-13 1h1v1h-1zm19 1h1v1h-1zm-25 1h1v1h-1zm8 0h1v1h-1zm15 0h1v1h-1zm-11 1h1v1h-1zm1 0h1v1h-1zm3 1h1v1h-1zm6 1h1v1h-1zm-22 1h1v1h-1zm0 1h1v1h-1z"/><path fill="#d66" d="M33 66h1v1h-1zm7 8h1v1h-1z"/><path fill="#901" d="M36 43h1v1h-1zm3 0h1v1h-1zm-5 2h1v1h-1zm-12 1h1v1h-1zm1 0h1v1h-1zm5 0h1v1h-1zm12 6h1v1h-1zm0 1h1v1h-1zm-1 1h1v1h-1zm0 1h1v1h-1zm-2 2h1v1h-1zm9 9h1v1h-1zm-26 1h1v1h-1zm13 0h1v1h-1zm3 0h1v1h-1zm10 0h1v1h-1zm-16 1h1v1h-1zm-3 1h1v1h-1zm18 0h1v1h-1zm-22 5h1v1h-1zm16 1h1v1h-1zm4 0h1v1h-1z"/><path fill="#912" d="M23 54h1v1h-1zm1 2h1v1h-1zm1 2h1v1h-1zm2 2h1v1h-1zm-5 13h1v1h-1z"/><path fill="#665" d="M16 20h1v1h-1z"/><path fill="#ecc" d="M37 44h1v1h-1zm1 0h1v1h-1zm-19 1h1v1h-1zm10 0h1v1h-1zm-2 3h1v1h-1zm6 2h1v1h-1zm-5 3h1v1h-1zm6 1h1v1h-1zm6 1h1v1h-1zm-1 2h1v1h-1zm-11 7h1v1h-1zm11 4h1v1h-1zm-8 1h1v1h-1zm-7 4h1v1h-1z"/><path fill="#bbb" d="M0 1h1v1H0zm1 0h1v1H1zm63 0h1v1h-1zm1 0h1v1h-1zM38 13h1v1h-1zm8 0h1v1h-1zm-14 1h1v1h-1zm16 0h1v1h-1zm-31 1h1v1h-1zm17 0h1v1h-1zm13 8h1v1h-1zm-28 4h1v1h-1zm19 0h1v1h-1zm-11 1h1v1h-1zm-7 1h1v1h-1zm10 1h1v1h-1zM1 85h1v1H1zm63 0h1v1h-1zM2 86h1v1H2zm1 0h1v1H3zm59 0h1v1h-1zm1 0h1v1h-1z"/><path fill="#c9a" d="M26 60h1v1h-1zm10 8h1v1h-1zm7 9h1v1h-1z"/><path fill="#877" d="M42 13h1v1h-1zm-14 2h1v1h-1zm19 0h1v1h-1zm-21 4h1v1h-1zm-5 4h1v1h-1z"/><path fill="#cbb" d="M24 15h1v1h-1zm-6 10h1v1h-1zm19 2h1v1h-1z"/><path fill="#666" d="M29 15h1v1h-1zm19 1h1v1h-1zm2 0h1v1h-1zm-26 1h1v1h-1zm22 7h1v1h-1zm-23 4h1v1h-1zm-2 2h1v1h-1zm7 0h1v1h-1zm-4 2h1v1h-1zM0 88h1v1H0zm1 0h1v1H1zm63 0h1v1h-1zm1 0h1v1h-1zM1 89h1v1H1zm1 0h1v1H2zm1 0h1v1H3zm1 0h58v1H4zm58 0h1v1h-1zm1 0h1v1h-1zm1 0h1v1h-1z"/><path fill="#655" d="M46 15h1v1h-1zm-24 1h1v1h-1zm5 1h1v1h-1zm-8 1h1v1h-1zm13 1h1v1h-1zm11 1h1v1h-1zm-17 3h1v1h-1zm14 4h1v1h-1z"/><path fill="#d88" d="M29 51h1v1h-1zm-4 1h1v1h-1zm7 8h1v1h-1zm-8 14h1v1h-1z"/><path fill="#d99" d="M29 65h1v1h-1z"/><path fill="#b55" d="M46 68h1v1h-1zm-22 7h1v1h-1z"/><g fill="#fff"><path d="M4 1h1v1H4zm1 0h1v1H5zm1 0h54v1H6zm54 0h1v1h-1zm1 0h1v1h-1zM3 2h1v1H3zm1 0h1v1H4zm1 0h56v1H5zm56 0h1v1h-1zm1 0h1v1h-1zM2 3h1v1H2zm1 0h1v1H3zm1 0h2v1H4zm2 0h54v1H6zm54 0h2v1h-2zm2 0h1v1h-1zm1 0h1v1h-1zM2 4h1v2H2zm1 0h1v3H3zm1 0h1v1H4zm1 0h56v9H5zm56 0h1v1h-1zm1 0h1v3h-1zm1 0h1v2h-1z"/><path d="M4 5h58v2H4zM3 7h1v1H3zm1 0h1v1H4zm57 0h1v1h-1zm1 0h1v1h-1zM3 8h1v73H3zm1 0h1v73H4zm57 0h1v74h-1zm1 0h1v73h-1zM5 13h30v1H5zm30 0h1v1h-1zm13 0h13v1H48zM5 14h10v68H5zm12 0h1v1h-1zm1 0h9v1h-9zm9 0h1v1h-1zm22 0h1v1h-1zm1 0h11v1H50zm-31 1h1v1h-1zm1 0h1v1h-1zm17 0h1v1h-1zm1 0h5v6h-5zm5 0h1v1h-1zm8 0h10v1H51z"/><path d="M35 16h9v2h-9zm17 0h9v66h-9zm-22 1h1v1h-1zm-7 1h1v1h-1zm1 0h2v2h-2zm7 0h1v1h-1zm4 0h8v1h-8zm-15 1h1v1h-1z"/><path d="M21 19h5v1h-5zm9 0h1v1h-1zm1 0h1v8h-1zm4 0h1v1h-1zm1 0h7v2h-7zm-21 1h1v64h-1zm6 0h4v2h-4zm4 0h1v1h-1z"/><path d="M30 20h2v7h-2zm20 0h1v1h-1zm1 0h10v62H51z"/><path d="M29 21h3v6h-3zm3 0h1v1h-1zm8 0h1v1h-1zm1 0h1v1h-1zm8 0h1v1h-1zm1 0h11v61H50zm-34 1h1v62h-1zm6 0h2v2h-2zm2 0h1v1h-1z"/><path d="M28 22h5v5h-5zm13 0h1v1h-1zm8 0h12v60H49zm-22 1h1v1h-1zm6 0h1v4h-1zm1 0h1v1h-1z"/><path d="M48 23h13v40H48zm-31 1h1v60h-1zm6 0h1v1h-1zm3 0h1v1h-1zm1 0h11v3H27zm11 0h1v1h-1zm1 0h1v1h-1zm1 0h1v1h-1z"/><path d="M47 24h14v38H47zm-22 1h1v1h-1zm1 0h14v2H26zm14 0h1v1h-1zm-22 1h1v18h-1z"/><path d="M24 26h16v1H24zm22 0h15v36H46zm-22 1h5v1h-5zm5 0h1v1h-1zm1 0h1v1h-1zm15 0h1v1h-1zm-26 1h1v1h-1zm26 0h1v1h-1zm-26 1h1v15h-1zm26 0h1v1h-1zm-25 1h1v14h-1zm12 0h1v1h-1zm1 0h9v7h-9zm9 0h1v1h-1zm2 0h1v1h-1z"/><path d="M45 30h16v15H45zm-24 1h1v1h-1z"/><path d="M25 31h36v6H25zm-4 1h1v12h-1zm1 0h1v1h-1zm0 1h2v11h-2z"/><path d="M24 34h37v3H24zm0 3h9v3h-9zm14 0h23v1H38zm-5 1h1v4h-1zm6 0h22v3H39zm-5 1h1v1h-1zm-9 1h1v1h-1z"/><path d="M26 40h9v1h-9zm1 1h8v1h-8zm12 0h1v1h-1zm1 0h1v1h-1zm2 0h1v1h-1zm1 0h18v1H43zm-19 1h1v1h-1zm4 0h1v1h-1zm1 0h2v1h-2zm2 0h1v1h-1zm13 0h17v1H44zm-20 1h1v1h-1zm20 0h1v1h-1zm-26 1h1v1h-1zm3 0h1v1h-1zm1 0h1v1h-1zm-4 1h1v19h-1zm12 0h3v1h-3zm6 0h1v1h-1zm1 0h6v1h-6zm8 0h1v1h-1zm-26 1h1v18h-1zm11 0h2v1h-2zm5 0h1v1h-1zm1 0h3v1h-3zm4 0h1v1h-1zm1 0h20v1H41zm-21 1h1v16h-1zm1 0h1v1h-1zm4 0h1v1h-1zm1 0h1v1h-1zm4 0h1v1h-1zm4 0h1v1h-1zm1 0h3v1h-3zm6 0h1v1h-1zm1 0h19v1H42zm-21 1h6v1h-6zm21 0h1v1h-1zm1 0h18v13H43zm-22 1h2v1h-2zm2 0h1v1h-1zm2 0h1v1h-1zm1 0h1v1h-1zm-5 1h1v1h-1zm14 0h2v2h-2zm2 0h1v1h-1zm-3 1h1v1h-1zm-8 1h4v1h-4zm10 0h1v1h-1zm6 0h1v1h-1zm-21 1h1v10h-1zm5 0h2v1h-2z"/><path d="M42 53h19v8H42zm-7 1h1v1h-1z"/><path d="M41 54h20v7H41zm-19 1h1v8h-1zm5 0h3v1h-3zm7 0h2v1h-2zm-7 1h1v1h-1zm1 0h2v1h-2z"/><path d="M40 56h21v5H40zm-17 1h1v6h-1z"/><path d="M39 58h22v3H39zm-15 1h1v4h-1zm9 0h2v3h-2zm2 0h1v1h-1zm-10 1h1v3h-1zm4 0h1v1h-1zm6 0h2v1h-2zm2 0h1v1h-1z"/><path d="M38 60h23v1H38zm-12 1h1v1h-1zm1 0h1v1h-1zm1 0h1v1h-1zm1 0h1v1h-1zm6 0h1v1h-1zm1 0h1v1h-1zm1 0h1v1h-1zm-11 1h1v1h-1zm9 1h1v1h-1zm1 0h5v1h-5zm5 0h1v1h-1zm-23 1h1v1h-1zm19 0h6v1h-6zm6 0h1v1h-1zm-17 1h1v1h-1zm1 0h2v2h-2zm5 0h2v1h-2zm6 0h1v1h-1zm1 0h4v2h-4zm-16 1h1v1h-1z"/><path d="M24 66h5v1h-5zm24 0h13v16H48zm-30 1h1v17h-1zm5 0h2v1h-2zm17 0h2v4h-2zm2 0h1v1h-1zm-23 1h1v1h-1zm4 0h1v1h-1zm1 0h1v4h-1zm10 0h1v1h-1zm1 0h1v4h-1z"/><path d="M47 68h14v14H47zm-28 1h1v15h-1zm13 0h5v3h-5zm-7 1h1v14h-1z"/><path d="M30 70h7v2h-7zm9 0h1v1h-1zm7 0h1v1h-1zm-26 1h1v13h-1z"/><path d="M26 71h12v1H26zm12 0h1v1h-1zm1 0h2v2h-2zm7 0h15v11H46zm-22 1h1v1h-1zm2 0h9v12h-9zm11 0h1v1h-1z"/><path d="M38 72h3v1h-3zm-3 1h1v1h-1zm5 0h1v1h-1zm5 0h16v9H45zm-24 1h1v10h-1zm14 0h1v10h-1zm-13 1h1v9h-1zm14 0h1v9h-1zm-13 1h1v8h-1zm1 0h1v1h-1zm13 0h1v8h-1zm1 0h1v1h-1z"/><path d="M44 76h17v6H44zm-20 1h16v7H24z"/><path d="M40 78h21v4H40zM3 81h1v1H3zm1 0h1v2H4zm58 0h1v1h-1zM3 82h1v1H3zm2 0h1v1H5zm1 0h54v1H6zm54 0h1v1h-1zm1 0h1v1h-1zm1 0h1v1h-1zM3 83h1v1H3zm1 0h1v1H4zm1 0h1v1H5zm1 0h1v1H6zm1 0h52v1H7zm52 0h1v1h-1zm1 0h1v1h-1zm1 0h1v1h-1zm1 0h1v1h-1zM5 84h1v1H5zm1 0h1v1H6zm1 0h1v1H7zm1 0h50v1H8zm50 0h1v1h-1zm1 0h1v1h-1zm1 0h1v1h-1z"/></g><path fill="#444" d="M23 16h1v1h-1zm20 6h1v1h-1zm-22 2h1v1h-1zm-2 2h1v1h-1zm14 2h1v1h-1zm1 1h1v1h-1zm5 0h1v1h-1zm-12 1h1v1h-1z"/><path fill="#e78" d="M25 41h1v1h-1z"/><path fill="#fde" d="M27 49h1v1h-1zm15 12h1v1h-1zm-9 3h1v1h-1zm-8 5h1v1h-1z"/><path fill="#aa9" d="M45 26h1v1h-1z"/><path fill="#a56" d="M37 69h1v1h-1zm4 8h1v1h-1z"/></svg>