<svg xmlns="http://www.w3.org/2000/svg" baseProfile="tiny" version="1.2" viewBox="0 0 66 90"><path fill="#777" d="M32 16h1v1h-1zm-7 1h1v1h-1zm12 2h1v1h-1zm-1 4h1v1h-1zm-6 4h1v1h-1zm4 2h1v1h-1zm8 0h1v1h-1zm7 6h1v1h-1zm-19 1h1v1h-1zm16 0h1v1h-1zm-26 1h1v1h-1zm5 0h1v1h-1zm2 0h1v1h-1zM0 84h1v1H0zm65 0h1v1h-1zM0 85h1v1H0zm65 0h1v1h-1zM0 86h1v1H0zm65 0h1v1h-1zM0 87h1v1H0zm65 0h1v1h-1z"/><path fill="#c12" d="M29 46h1v1h-1zm4 5h1v1h-1zm-7 1h1v1h-1zm3 1h1v1h-1zm7 1h1v1h-1zm-7 1h1v1h-1zm2 0h1v1h-1zm1 0h1v1h-1zm4 1h1v1h-1zm-12 2h1v1h-1zm6 0h1v1h-1zm-1 1h1v1h-1zm7 5h1v1h-1zm1 0h1v1h-1zm1 0h1v1h-1zm4 2h1v1h-1zm-13 1h1v1h-1zm4 1h1v1h-1zm9 0h1v1h-1zm0 1h1v1h-1zm-1 1h1v1h-1zm0 2h1v1h-1zm0 1h1v1h-1zm-5 3h1v1h-1z"/><path fill="#c67" d="M24 71h1v1h-1z"/><path fill="#e9a" d="M33 42h1v1h-1zm4 2h1v1h-1zm1 0h2v1h-2zm-8 5h1v1h-1zm7 0h1v1h-1zm2 1h1v1h-1zm-15 2h1v1h-1zm10 5h1v1h-1zm9 7h1v1h-1zm-25 2h1v1h-1zm22 5h1v1h-1z"/><path fill="#901" d="M35 45h1v1h-1zm1 0h1v1h-1zm-3 1h1v1h-1zm-1 1h1v1h-1zm-10 1h1v1h-1zm4 0h1v1h-1zm0 1h1v1h-1zm12 6h1v1h-1zm-1 2h1v1h-1zm-1 2h1v1h-1zm-12 1h1v1h-1zm20 8h1v1h-1zm-25 1h1v1h-1zm12 0h1v1h-1zm13 0h1v1h-1zm-25 1h1v1h-1zm6 1h1v1h-1zm1 0h1v1h-1zm17 0h1v1h-1zm-6 6h1v1h-1zm4 0h1v1h-1z"/><path fill="#c56" d="M27 48h1v1h-1zm0 1h1v1h-1zm0 4h1v1h-1z"/><path fill="#444" d="M19 23h1v1h-1zm11 11h1v1h-1z"/><path fill="#c34" d="M35 42h1v1h-1zm1 0h1v1h-1zm4 3h1v1h-1zm-13 1h1v1h-1zm3 0h1v1h-1zm1 5h1v1h-1zm4 0h1v1h-1zm-6 1h1v1h-1zm7 0h1v1h-1zm-6 2h1v1h-1zm-2 1h1v1h-1zm-2 1h1v1h-1zm5 8h1v1h-1zm9 0h1v1h-1zm3 2h1v1h-1zm1 0h1v1h-1zm-26 1h1v1h-1zm2 0h1v1h-1zm8 1h1v1h-1zm1 0h1v1h-1zm3 0h1v1h-1zm2 0h1v1h-1zm7 1h1v1h-1zm-15 1h1v1h-1zm-5 1h1v1h-1zm19 3h1v1h-1z"/><path fill="#b34" d="M31 48h1v1h-1zM19 71h1v1h-1z"/><path fill="#776" d="M25 12h1v1h-1zm4 3h1v1h-1zm10 8h1v1h-1zm-2 10h1v1h-1z"/><path fill="#fcc" d="M36 40h1v1h-1zm-9 5h1v1h-1zm1 0h1v1h-1zm3 5h1v1h-1zm-4 9h1v1h-1zm17 5h1v1h-1zm-5 10h1v1h-1z"/><path fill="#a02" d="M20 48h1v1h-1z"/><path fill="#b45" d="M26 53h1v1h-1zm5 7h1v1h-1zm-6 6h1v1h-1z"/><path fill="#221" d="M37 15h1v1h-1zm-2 3h1v1h-1zm-12 1h1v1h-1zm-3 1h1v1h-1zm-1 5h1v1h-1zm13 3h1v1h-1zm-10 4h1v1h-1z"/><path fill="#ebc" d="M40 44h1v1h-1zm-17 2h1v1h-1zm10 6h1v1h-1zm-13 1h1v1h-1zm4 2h1v1h-1zm1 3h1v1h-1zm19 13h1v1h-1zm-10 3h1v1h-1z"/><path fill="#923" d="M24 48h1v1h-1zm14 8h1v1h-1zm-1 2h1v1h-1z"/><path fill="#b67" d="M25 49h1v1h-1z"/><path fill="#a12" d="M21 55h1v1h-1zm2 4h1v1h-1zm22 8h1v1h-1zm-25 7h1v1h-1z"/><path fill="#988" d="M22 11h1v1h-1zm19 1h1v1h-1zm2 0h1v1h-1zm-3 11h1v1h-1zm1 0h1v1h-1zm-2 2h1v1h-1zm-10 2h1v1h-1z"/><path fill="#555" d="M21 22h1v1h-1zm21 2h1v1h-1zm-22 1h1v1h-1zm-6 4h1v1h-1zm17 2h1v1h-1zm2 4h1v1h-1z"/><path fill="#a66" d="M38 46h1v1h-1zm1 33h1v1h-1z"/><path fill="#c77" d="M21 56h1v1h-1z"/><path fill="#322" d="M33 15h1v1h-1zm-11 1h1v1h-1zm11 0h1v1h-1zm-12 1h1v1h-1zm0 1h1v1h-1zm14 4h1v1h-1zm-15 2h1v1h-1zm14 0h1v1h-1zm3 0h1v1h-1zm4 1h1v1h-1zm-20 1h1v1h-1zm-5 1h1v1h-1zm6 0h1v1h-1zm12 1h1v1h-1zm6 3h1v1h-1zm-19 1h1v1h-1zm18 0h1v1h-1zm-18 1h1v1h-1zm20 0h1v1h-1zm-20 1h1v1h-1zm1 0h1v1h-1zm28 2h1v1h-1zm-28 3h1v1h-1z"/><path fill="#e89" d="M32 40h1v1h-1zm2 0h1v1h-1zm1 0h1v1h-1zm1 3h1v1h-1zm-11 2h1v1h-1zm5 0h1v1h-1zm8 5h1v1h-1zm-7 2h1v1h-1zm1 2h1v1h-1zm10 10h1v1h-1zm-18 1h1v1h-1zm11 2h1v1h-1zm-4 1h1v1h-1z"/><path fill="#e99" d="M26 45h1v1h-1zm11 5h1v1h-1zm-2 4h1v1h-1zm-7 4h1v1h-1zm13 7h1v1h-1zm-22 1h1v1h-1zm1 0h1v1h-1zm7 3h1v1h-1z"/><path fill="#766" d="M38 13h1v1h-1zm-2 9h1v1h-1zm-3 1h1v1h-1zm5 1h1v1h-1zm-8 1h1v1h-1zm1 0h1v1h-1zm8 1h1v1h-1zm-22 2h1v1h-1zm9 7h1v1h-1zm1 0h1v1h-1zm25 2h1v1h-1z"/><path fill="#c13" d="M39 45h1v1h-1zm-11 1h1v1h-1zm0 6h1v1h-1zm-5 2h1v1h-1zm6 0h1v1h-1zm6 4h1v1h-1zm-12 8h1v1h-1zm18 5h1v1h-1z"/><path fill="#b89" d="M29 71h1v1h-1z"/><path fill="#d56" d="M33 40h1v1h-1zm0 1h1v1h-1zm1 0h1v1h-1zm-1 3h1v1h-1zm-9 2h1v1h-1zm1 0h1v1h-1zm-7 1h1v1h-1zm4 0h1v1h-1zm3 5h1v1h-1zm-4 1h1v1h-1zm9 0h1v1h-1zm5 2h1v1h-1zm-4 2h1v1h-1zm3 1h1v1h-1zm-6 1h1v1h-1zm5 5h1v1h-1zm-11 2h1v1h-1zm10 0h1v1h-1zm-13 1h1v1h-1zm14 0h1v1h-1zm7 5h1v1h-1zm-1 4h1v1h-1z"/><path fill="#d45" d="M36 41h1v1h-1zm-4 4h1v1h-1zm-6 1h1v1h-1zm4 5h1v1h-1zm6 0h1v1h-1zm3 0h1v1h-1zm-6 4h1v1h-1zm-5 9h1v1h-1zm4 0h1v1h-1zm2 0h1v1h-1zm-9 1h1v1h-1zm17 0h1v1h-1zm-25 2h1v1h-1zm18 1h1v1h-1zm0 7h1v1h-1zm5 0h1v1h-1zm-3 1h1v1h-1z"/><path fill="#ede" d="M38 79h1v1h-1z"/><path fill="#d99" d="M26 62h1v1h-1zm-7 10h1v1h-1z"/><path fill="#a23" d="M43 72h1v1h-1z"/><path fill="#eee" d="M3 1h1v1H3zm59 0h1v1h-1zM2 2h1v1H2zm61 0h1v1h-1zM1 3h1v1H1zm63 0h1v1h-1zM1 4h1v1H1zm63 0h1v1h-1zM1 5h1v1H1zm63 0h1v1h-1zM2 6h1v1H2zm61 0h1v1h-1zM2 7h1v1H2zm61 0h1v1h-1zM2 8h1v74H2zm61 0h1v74h-1zm-43 3h1v1h-1zm20 0h1v1h-1zm2 0h1v1h-1zm-5 1h1v1h-1zm7 0h1v1h-1zm1 1h1v1h-1zm-5 2h1v1h-1zm-16 4h1v1h-1zm-3 4h1v1h-1zm7 1h1v1h-1zm3 0h1v1h-1zm13 1h1v1h-1zm-29 2h1v1h-1zm8 0h1v1h-1zm20 0h1v1h-1zm-5 2h1v1h-1zm4 2h1v1h-1zm-12 1h1v1h-1zm-4 2h1v1h-1zm11 1h1v1h-1zm2 0h1v1h-1zm-16 1h1v1h-1zM2 82h1v1H2zm61 0h1v1h-1zM2 83h1v1H2zm61 0h1v1h-1zM3 84h1v1H3zm1 0h1v1H4zm57 0h1v1h-1zm1 0h1v1h-1zM9 85h48v1H9z"/><path fill="#baa" d="M36 13h1v1h-1zm-17 7h1v1h-1zm16 13h1v1h-1z"/><path fill="#222" d="M26 14h1v1h-1zm4 1h1v1h-1zm6 6h1v1h-1zm3 7h1v1h-1zm-24 1h1v1h-1zm17 1h1v1h-1zm1 1h1v1h-1zm-4 5h1v1h-1zm19 1h1v1h-1z"/><path fill="#fee" d="M31 39h1v1h-1zm-8 3h1v1h-1zm-6 5h1v1h-1zm8 3h1v1h-1zm10 0h1v1h-1zm-14 2h1v1h-1zm10 1h1v1h-1zm-7 1h1v1h-1zm-4 1h1v1h-1zm14 0h1v1h-1zm-1 1h1v1h-1zm-12 1h1v1h-1zm6 0h1v1h-1zm-1 2h1v1h-1zm-2 3h1v1h-1zm11 0h1v1h-1zm7 1h1v1h-1zm-23 2h1v1h-1zm15 0h1v1h-1zm3 0h1v1h-1zm9 0h1v1h-1zm-29 1h1v1h-1zm29 1h1v1h-1zm-19 1h1v1h-1zm-3 1h1v1h-1zm1 0h1v1h-1zm20 0h1v1h-1zm-13 1h1v1h-1zm8 0h1v1h-1zm-18 2h1v1h-1zm15 0h1v1h-1zm-4 2h1v1h-1z"/><path fill="#dbb" d="M34 47h1v1h-1zm-1 1h1v1h-1z"/><path fill="#a34" d="M26 61h1v1h-1zm16 14h1v1h-1z"/><path fill="#a55" d="M26 72h1v1h-1z"/><path fill="#999" d="M0 3h1v1H0zm65 0h1v1h-1zM0 4h1v1H0zm65 0h1v1h-1zm-25 8h1v1h-1zm-6 2h1v1h-1zm10 0h1v1h-1zm-11 7h1v1h-1zm10 3h1v1h-1zm-15 2h1v1h-1zm-15 4h1v1h-1zm1 0h1v1h-1zm6 2h1v1h-1zm27 2h1v1h-1zm-5 1h1v1h-1zm8 0h1v1h-1zm-26 1h1v1h-1zM3 88h1v1H3zm59 0h1v1h-1z"/><path fill="#bba" d="M32 14h1v1h-1zm5 3h1v1h-1zm-16 7h1v1h-1z"/><path fill="#100" d="M39 34h2v1h-2zm10 3h1v1h-1z"/><path fill="#211" d="M22 13h1v1h-1zm18 0h1v1h-1zm1 0h2v1h-2zm2 0h1v1h-1zm-21 1h1v1h-1zm1 0h1v2h-1zm1 0h1v1h-1zm1 0h1v1h-1zm12 0h1v1h-1zm-15 1h1v1h-1zm2 0h1v1h-1zm7 0h1v1h-1zm1 0h1v1h-1zm4 0h1v1h-1zm-13 1h1v1h-1zm-1 1h1v1h-1zm12 0h1v1h-1zm1 0h1v1h-1zm-13 1h1v1h-1zm12 0h1v1h-1zm2 0h1v1h-1zm-15 1h1v1h-1zm13 0h1v1h-1zm1 0h1v1h-1zm1 0h1v1h-1zm-2 1h2v1h-2zm-14 1h1v1h-1zm14 0h1v1h-1zm1 0h1v1h-1zm-15 1h1v1h-1zm15 1h1v1h-1zm-17 2h1v1h-1zm16 0h1v1h-1zm1 0h1v1h-1zm5 0h1v2h-1zm2 0h1v1h-1zm1 0h1v1h-1zm-26 1h1v1h-1zm14 0h1v1h-1zm1 0h1v1h-1zm1 0h1v1h-1zm8 0h1v1h-1zm-20 1h1v1h-1zm19 0h1v1h-1zm1 0h1v2h-1zm-20 1h1v1h-1zm1 0h1v1h-1zm18 0h1v3h-1zm-19 1h2v1h-2zm11 0h1v1h-1zm7 0h1v1h-1zm-18 1h1v1h-1zm1 0h1v1h-1zm11 0h1v1h-1zm6 0h1v1h-1zm-18 1h1v1h-1zm1 0h1v1h-1zm19 0h1v1h-1zm-1 1h1v1h-1zm-2 1h1v1h-1zm-7 1h1v1h-1zm12 0h1v1h-1zm-22 1h2v1h-2zm8 0h1v1h-1zm3 0h1v1h-1zm15 0h1v1h-1zm2 1h1v1h-1z"/><path fill="#888" d="M0 5h1v1H0zm65 0h1v1h-1zM0 6h1v1H0zm65 0h1v1h-1zM0 7h1v1H0zm65 0h1v1h-1zM0 8h1v73H0zm65 0h1v73h-1zm-44 4h1v1h-1zm3 0h1v1h-1zm13 1h1v1h-1zm-2 1h1v1h-1zm8 0h1v1h-1zm-22 1h1v1h-1zm1 6h1v1h-1zm15 2h1v1h-1zm-17 3h1v1h-1zm23 0h1v1h-1zm-5 6h1v1h-1zm4 1h1v1h-1zm-8 2h1v1h-1zm16 3h1v1h-1zm1 0h1v1h-1zm1 0h1v1h-1zM0 81h1v2H0zm65 0h1v2h-1zM0 83h1v1H0zm65 0h1v1h-1zM1 87h1v1H1zm63 0h1v1h-1zM2 88h1v1H2zm61 0h1v1h-1z"/><path fill="#fdd" d="M33 39h1v1h-1zm-9 4h1v1h-1zm10 9h1v1h-1zm-1 2h1v1h-1zm-1 4h1v1h-1zm1 0h1v1h-1zm-7 6h1v1h-1zm-4 1h1v1h-1zm11 0h1v1h-1zm5 0h1v1h-1zm-6 2h1v1h-1zm-6 2h1v1h-1zm11 0h1v1h-1zm0 6h1v1h-1z"/><path fill="#d77" d="M34 75h1v1h-1z"/><path fill="#111" d="M38 14h1v1h-1zm-13 1h1v1h-1zm-1 1h1v1h-1zm10 0h1v1h-1zm-11 1h1v1h-1zm0 1h1v1h-1zm-1 1h1v1h-1zm-1 1h1v1h-1zm1 0h1v1h-1zm14 0h1v1h-1zm-15 1h1v1h-1zm14 3h1v1h-1zm1 0h1v1h-1zm-18 2h1v1h-1zm11 0h1v1h-1zm1 0h1v1h-1zm4 0h1v1h-1zm8 0h1v1h-1zm-25 1h1v1h-1zm16 0h1v1h-1zm1 0h1v1h-1zm8 0h1v1h-1zm-26 1h1v1h-1zm17 0h1v1h-1zm0 1h1v1h-1zm8 0h1v1h-1zm0 1h1v1h-1zm-2 3h1v1h-1zm1 0h1v1h-1zm-8 1h2v1h-2zm2 0h1v1h-1zm1 0h1v1h-1zm1 0h1v1h-1zm1 0h1v1h-1zm5 0h1v1h-1zm-12 1h1v1h-1zm15 0h1v1h-1zm1 0h1v1h-1zm-25 1h1v1h-1zm1 0h1v1h-1zm3 0h1v1h-1zm1 0h1v1h-1zm1 0h1v1h-1zm20 0h1v1h-1zm1 0h1v1h-1zm-27 1h2v1h-2zm30 0h1v1h-1zm-30 1h1v1h-1z"/><path fill="#aa9" d="M20 27h1v1h-1z"/><path fill="#934" d="M21 49h1v1h-1zm3 12h1v1h-1zm-2 16h1v1h-1zm19 1h1v1h-1z"/><path fill="#c99" d="M39 55h1v1h-1zm-2 4h1v1h-1zm-14 1h1v1h-1zm2 12h1v1h-1zm12 6h1v1h-1z"/><path fill="#c89" d="M27 72h1v1h-1zm15 4h1v1h-1z"/><path fill="#ccc" d="M1 0h1v1H1zm1 0h1v1H2zm61 0h1v1h-1zm1 0h1v1h-1zM1 2h1v1H1zm63 0h1v1h-1zM21 13h1v1h-1zm0 1h1v1h-1zm8 0h1v1h-1zm1 0h1v1h-1zm-2 1h1v1h-1zm-2 1h1v1h-1zm5 0h1v1h-1zm5 0h1v1h-1zm-16 1h1v1h-1zm19 5h1v1h-1zm2 0h1v1h-1zm-19 3h1v1h-1zm5 0h1v1h-1zm8 2h1v1h-1zm-4 2h1v1h-1zm12 4h1v1h-1zm-20 1h1v1h-1zm5 0h1v1h-1zm21 0h1v1h-1zm-26 1h1v1h-1zm8 1h1v1h-1zm-3 1h1v1h-1zm19 0h1v1h-1zM1 84h1v1H1zm63 0h1v1h-1zM2 85h1v1H2zm61 0h1v1h-1zM4 86h1v1H4zm1 0h1v1H5zm1 0h1v1H6zm1 0h52v1H7zm52 0h1v1h-1zm1 0h1v1h-1zm1 0h1v1h-1z"/><path fill="#544" d="M22 12h1v1h-1zm2 1h1v1h-1zm15 14h1v1h-1zm-8 5h1v1h-1zm1 0h1v1h-1zm9 0h1v1h-1zm-10 1h1v1h-1zm-7 2h1v1h-1zm4 0h1v1h-1z"/><path fill="#332" d="M35 15h1v1h-1zm1 2h1v1h-1zm-15 8h1v1h-1zm1 8h1v1h-1z"/><path fill="#a01" d="M34 45h1v1h-1zm3 0h1v1h-1zm4 1h1v1h-1zm-20 2h1v1h-1zm18 5h1v1h-1zm-1 1h1v1h-1zm-16 2h1v1h-1zm15 0h1v1h-1zm-14 2h1v1h-1zm13 0h1v1h-1zm-1 1h1v1h-1zm-5 1h1v1h-1zm-1 1h1v1h-1zm1 0h1v1h-1zm-8 6h1v1h-1zm-4 1h1v1h-1zm2 0h1v1h-1zm0 1h1v1h-1zm10 0h1v1h-1zm-2 1h1v1h-1zm8 0h1v1h-1zm7 0h1v1h-1zm-1 3h1v1h-1zm0 1h1v1h-1zm-21 1h1v1h-1zm20 1h1v1h-1zm-3 1h1v1h-1zm1 0h1v1h-1zm1 0h1v1h-1z"/><path fill="#aaa" d="M0 2h1v1H0zm65 0h1v1h-1zm-42 9h1v1h-1zm1 0h1v1h-1zm2 1h1v1h-1zm7 2h1v1h-1zm6 1h1v1h-1zm3 8h1v1h-1zm-10 1h1v1h-1zm4 1h1v1h-1zm-16 3h1v1h-1zm-4 1h1v1h-1zm4 2h1v1h-1zm18 0h1v1h-1zm-4 2h1v1h-1zm15 5h1v1h-1zM1 86h1v1H1zm63 0h1v1h-1zM2 87h1v1H2zm1 0h1v1H3zm1 0h1v1H4zm1 0h56v1H5zm56 0h1v1h-1zm1 0h1v1h-1zm1 0h1v1h-1zM4 88h1v1H4zm1 0h56v1H5zm56 0h1v1h-1z"/><path fill="#655" d="M36 14h1v1h-1zm-10 1h1v1h-1zm12 0h1v1h-1zm-19 6h1v1h-1zm19 2h1v1h-1zm-5 1h1v1h-1zm-4 1h1v1h-1zm3 0h1v1h-1zm-10 1h1v1h-1zm10 1h1v1h-1zm-12 7h1v1h-1zm25 0h1v1h-1zm-20 1h1v1h-1zm23 0h1v1h-1z"/><path fill="#b12" d="M32 46h1v1h-1zm-4 7h1v1h-1zm3 3h1v1h-1zm-3 10h1v1h-1z"/><path fill="#902" d="M32 48h1v1h-1zM22 76h1v1h-1z"/><path fill="#dcc" d="M34 70h1v1h-1z"/><path fill="#110" d="M39 14h1v1h-1zm1 0h1v1h-1zm-15 2h1v1h-1zm-1 1h1v1h-1zm14 17h1v1h-1zm3 0h1v1h-1zm-10 1h1v1h-1zm-3 1h1v1h-1zm22 1h1v1h-1zm-28 1h1v1h-1z"/><path fill="#d67" d="M31 45h1v1h-1zm0 1h1v1h-1zm-4 4h1v1h-1zm3 0h1v1h-1zm7 1h1v1h-1zm1 0h1v1h-1zm2 1h1v1h-1zm-16 4h1v1h-1zm4 1h1v1h-1zm2 6h1v1h-1zm11 1h1v1h-1zm-7 3h1v1h-1zm2 1h1v1h-1zm-15 2h1v1h-1z"/><path fill="#d88" d="M32 56h1v1h-1zm-5 5h1v1h-1zm1 1h1v1h-1z"/><path fill="#b56" d="M44 70h1v1h-1zm-24 5h1v1h-1zm16 2h1v1h-1z"/><path fill="#666" d="M21 11h1v1h-1zm21 3h1v1h-1zm-1 10h1v1h-1zm-24 1h1v1h-1zm1 2h1v1h-1zm25 8h1v1h-1zm8 1h1v1h-1zM0 88h1v1H0zm1 0h1v1H1zm63 0h1v1h-1zm1 0h1v1h-1zM1 89h1v1H1zm1 0h1v1H2zm1 0h1v1H3zm1 0h58v1H4zm58 0h1v1h-1zm1 0h1v1h-1zm1 0h1v1h-1z"/><path fill="#ccb" d="M38 12h1v1h-1zm-1 8h1v1h-1z"/><path fill="#dab" d="M41 47h1v1h-1zm-18 2h1v1h-1z"/><path fill="#daa" d="M36 61h1v1h-1zm-15 8h1v1h-1z"/><path fill="#a99" d="M39 12h1v1h-1zM19 26h1v1h-1zm17 7h1v1h-1zm-7 1h1v1h-1zm19 0h1v1h-1zm-27 5h1v1h-1z"/><path fill="#d66" d="M35 41h1v1h-1zm-16 6h1v1h-1zm10 4h1v1h-1zm-6 2h1v1h-1zm15 23h1v1h-1z"/><path fill="#b77" d="M37 46h1v1h-1zm-3 15h1v1h-1z"/><path fill="#c45" d="M27 47h1v1h-1zm-5 28h1v1h-1zm13 1h1v1h-1z"/><path fill="#ecc" d="M20 49h1v1h-1zm19 16h1v1h-1zm-12 1h1v1h-1zm-3 1h1v1h-1zm17 0h1v1h-1zm-20 1h1v1h-1zm-3 2h1v1h-1zm3 7h1v1h-1z"/><path fill="#c9a" d="M41 79h1v1h-1z"/><path fill="#433" d="M23 13h1v1h-1zm2 0h1v1h-1zm1 0h1v1h-1zm13 0h1v1h-1zm5 0h1v1h-1zm-3 1h1v1h-1zm-6 2h1v1h-1zm-11 2h1v1h-1zm-5 4h1v1h-1zm15 1h1v1h-1zm-16 1h1v1h-1zm10 1h1v1h-1zm5 0h1v1h-1zm-18 3h1v1h-1zm17 3h1v1h-1zm12 3h1v1h-1zm-24 1h1v1h-1zm0 1h1v1h-1zm6 1h1v1h-1z"/><path fill="#a44" d="M39 46h1v1h-1zM18 69h1v1h-1zm18 3h1v1h-1z"/><g fill="#fff"><path d="M4 1h1v1H4zm1 0h1v1H5zm1 0h54v1H6zm54 0h1v1h-1zm1 0h1v1h-1zM3 2h1v1H3zm1 0h1v1H4zm1 0h56v1H5zm56 0h1v1h-1zm1 0h1v1h-1zM2 3h1v1H2zm1 0h1v1H3zm1 0h2v1H4zm2 0h54v1H6zm54 0h2v1h-2zm2 0h1v1h-1zm1 0h1v1h-1zM2 4h1v2H2zm1 0h1v3H3zm1 0h1v1H4zm1 0h56v7H5zm56 0h1v1h-1zm1 0h1v3h-1zm1 0h1v2h-1z"/><path d="M4 5h58v2H4zM3 7h1v1H3zm1 0h1v1H4zm57 0h1v1h-1zm1 0h1v1h-1zM3 8h1v73H3zm1 0h1v73H4zm57 0h1v74h-1zm1 0h1v73h-1zM5 11h15v8H5zm21 0h1v1h-1zm1 0h12v1H27zm12 0h1v1h-1zm4 0h18v1H43zm-23 1h1v4h-1zm7 0h10v1H27zm18 0h16v1H45zm-18 1h7v1h-7zm7 0h1v1h-1zm12 0h15v20H46zm-19 1h1v10h-1z"/><path d="M41 15h20v7H41zm-21 1h1v1h-1zm8 0h2v8h-2zm2 0h1v1h-1zm7 0h1v1h-1z"/><path d="M38 16h23v6H38zm-12 1h7v7h-7zm7 0h1v1h-1zm-8 1h1v1h-1zm8 0h1v1h-1zM5 19h14v3H5zm14 0h1v1h-1z"/><path d="M25 19h8v5h-8z"/><path d="M24 20h9v4h-9z"/><path d="M23 21h10v3H23zm14 0h1v1h-1zM5 22h13v2H5zm17 0h1v1h-1zm15 0h1v1h-1zm1 0h1v1h-1zm4 0h1v1h-1zm1 0h18v1H43z"/><path d="M22 23h11v1H22zm21 0h1v1h-1zm1 0h17v2H44zM5 24h12v1H5zm17 0h5v1h-5zm7 0h1v1h-1zm1 0h1v1h-1zM5 25h11v2H5zm11 0h1v1h-1zm7 0h4v2h-4zm14 0h1v1h-1zm1 0h1v4h-1zm7 0h16v8H45zm-18 1h1v8h-1z"/><path d="M36 26h3v3h-3zm8 0h17v7H44zM5 27h10v1H5zm14 0h1v1h-1zm5 0h4v7h-4zm4 0h1v1h-1zM5 28h9v1H5zm9 0h1v1h-1zm4 0h1v1h-1zm1 0h1v19h-1zm9 0h3v4h-3zm3 0h1v1h-1zm4 0h1v1h-1z"/><path d="M43 28h18v5H43zM5 29h8v53H5zm8 0h1v1h-1zm4 0h3v18h-3zm18 0h3v4h-3zm-20 1h1v1h-1z"/><path d="M16 30h4v17h-4z"/><path d="M13 31h7v16h-7zm21 0h1v1h-1zm-6 1h2v2h-2zm6 0h4v1h-4zm8 0h19v1H42zm6 1h1v1h-1zm1 0h12v1H49zm1 1h1v1h-1zm1 0h10v1H51zm-13 1h1v1h-1zm13 0h1v1h-1zm1 0h9v1h-9zm-20 1h1v1h-1zm1 0h12v3H33zm19 0h1v1h-1zm1 0h8v46h-8zm-30 1h1v2h-1zm1 0h1v1h-1zm5 0h1v1h-1z"/><path d="M30 37h17v2H30z"/><path d="M24 38h24v1H24zm24 0h1v1h-1zm-28 1h1v8h-1zm3 0h1v1h-1zm1 0h7v4h-7zm10 0h1v1h-1zm1 0h1v1h-1zm1 0h25v1H36z"/><path d="M21 40h11v2H21zm16 0h24v1H37zm-5 1h1v1h-1zm5 0h1v1h-1zm1 0h23v3H38zm-17 1h1v5h-1zm1 0h1v1h-1zm9 0h2v2h-2zm6 0h1v1h-1zm-15 1h1v1h-1z"/><path d="M25 43h8v1h-8zm12 0h24v1H37zm-15 1h1v2h-1zm4 0h1v1h-1zm1 0h5v1h-5zm14 0h1v1h-1zm1 0h19v2H42zm-19 1h1v1h-1zm-1 1h1v1h-1zm21 0h18v17H43zm-30 1h4v37h-4zm16 0h1v1h-1zm1 0h1v1h-1zm5 0h5v1h-5zm5 0h1v1h-1zm-23 1h1v18h-1zm1 0h1v1h-1zm10 0h2v2h-2zm2 0h1v1h-1zm4 0h3v1h-3zm3 0h1v1h-1z"/><path d="M38 48h23v1H38zm-20 1h2v16h-2zm6 0h1v1h-1zm9 0h3v1h-3zm3 0h1v1h-1zm3 0h1v1h-1zm1 0h21v1H40zm-20 1h5v1h-5zm8 0h1v1h-1zm4 0h1v1h-1zm1 0h1v1h-1zm1 0h1v1h-1zm6 0h1v1h-1zm1 0h20v13H41zm-21 1h2v1h-2zm2 0h1v1h-1zm1 0h3v1h-3zm-3 1h1v1h-1zm15 0h1v1h-1zm-3 1h3v1h-3zm-7 1h3v1h-3zm9 0h1v1h-1zm6 0h1v1h-1zm-15 1h1v1h-1zm1 0h1v1h-1z"/><path d="M40 55h21v8H40zm-20 1h1v9h-1zm19 0h1v1h-1zm-14 1h1v1h-1zm1 0h1v1h-1zm6 0h2v1h-2z"/><path d="M39 57h22v6H39zm-18 1h1v7h-1zm5 0h2v1h-2zm12 0h1v1h-1z"/><path d="M38 59h23v4H38zm-16 1h1v5h-1zm15 0h1v1h-1zm-14 1h1v1h-1zm8 0h1v1h-1zm1 0h1v3h-1zm1 0h1v1h-1z"/><path d="M37 61h24v2H37zm-14 1h1v3h-1zm4 0h1v2h-1zm4 0h4v2h-4z"/><path d="M36 62h25v1H36zm-12 1h1v2h-1zm1 0h1v1h-1zm1 0h1v1h-1zm9 0h3v1h-3zm3 0h1v1h-1zm1 0h1v1h-1zm1 0h1v1h-1zm1 0h1v1h-1zm2 0h1v1h-1zm1 0h17v1H44zm-19 1h1v1h-1zm20 0h1v1h-1zm1 0h15v1H46zm-28 1h1v1h-1zm2 0h1v1h-1zm1 0h1v1h-1zm14 0h1v1h-1zm1 0h1v1h-1zm11 0h14v17H47zm-16 1h1v1h-1zm4 0h6v1h-6zm6 0h1v1h-1zm-16 1h2v2h-2zm2 0h1v1h-1zm4 0h1v1h-1zm5 0h1v1h-1zm1 0h4v1h-4zm-15 1h1v1h-1z"/><path d="M23 68h4v1h-4zm14 0h1v1h-1zm1 0h3v2h-3zm8 0h15v14H46zm-29 1h1v1h-1zm5 0h1v3h-1zm1 0h1v1h-1zm-6 1h1v14h-1zm16 0h1v4h-1zm5 0h2v3h-2z"/><path d="M45 70h16v12H45zm-27 1h1v13h-1zm5 0h1v5h-1zm7 0h1v1h-1zm1 0h4v3h-4zm-7 1h1v1h-1zm4 0h1v1h-1z"/><path d="M29 72h6v2h-6zm6 0h1v1h-1zm9 0h1v1h-1z"/><path d="M24 73h12v1H24zm12 0h1v1h-1zm1 0h2v2h-2zm2 0h1v1h-1zm5 0h17v9H44zm-25 1h1v1h-1zm5 0h9v10h-9zm11 0h1v1h-1z"/><path d="M36 74h3v1h-3zm-17 1h1v9h-1zm14 0h1v9h-1zm5 0h1v1h-1zm5 0h18v7H43zm-20 1h1v1h-1zm11 0h1v1h-1zm-14 1h1v7h-1zm14 0h1v7h-1zm1 0h1v1h-1z"/><path d="M21 78h15v6H21zm15 0h1v1h-1zm6 0h19v4H42zm-6 1h2v5h-2z"/><path d="M38 80h23v2H38zM3 81h1v1H3zm1 0h1v2H4zm58 0h1v1h-1zM3 82h1v1H3zm2 0h1v1H5zm1 0h54v1H6zm54 0h1v1h-1zm1 0h1v1h-1zm1 0h1v1h-1zM3 83h1v1H3zm1 0h1v1H4zm1 0h1v1H5zm1 0h1v1H6zm1 0h52v1H7zm52 0h1v1h-1zm1 0h1v1h-1zm1 0h1v1h-1zm1 0h1v1h-1zM5 84h1v1H5zm1 0h1v1H6zm1 0h1v1H7zm1 0h50v1H8zm50 0h1v1h-1zm1 0h1v1h-1zm1 0h1v1h-1z"/></g><path fill="#edd" d="M47 33h1v1h-1zm-22 1h1v1h-1zm18 40h1v1h-1zm-20 3h1v1h-1zm19 0h1v1h-1z"/><path fill="#b02" d="M38 45h1v1h-1zm-14 2h1v1h-1zm1 0h1v1h-1zm1 0h1v1h-1zm13 5h1v1h-1zm-3 1h1v1h-1zm2 0h1v1h-1zm-1 1h1v1h-1zm-15 1h1v1h-1zm1 0h1v1h-1zm14 0h1v1h-1zm-14 1h1v1h-1zm4 0h1v1h-1zm1 0h1v1h-1zm1 0h1v1h-1zm1 0h1v2h-1zm-7 1h1v1h-1zm6 0h1v1h-1zm7 0h1v1h-1zm-12 2h1v1h-1zm6 0h1v1h-1zm1 0h1v1h-1zm3 0h1v1h-1zm-9 1h1v1h-1zm4 0h1v1h-1zm0 2h1v1h-1zm0 3h1v1h-1zm-5 1h1v1h-1zm5 0h1v1h-1zm-8 1h1v1h-1zm7 0h1v1h-1zm14 0h1v1h-1zm2 0h1v1h-1zm-25 1h1v1h-1zm24 0h1v1h-1zm-14 1h1v1h-1zm6 0h1v1h-1zm8 0h1v1h-1zm-23 1h1v1h-1zm0 1h1v1h-1zm22 0h1v1h-1zm-22 1h1v1h-1zm22 0h1v1h-1zm-22 1h1v1h-1zm1 1h1v1h-1zm20 1h1v1h-1z"/><path fill="#b23" d="M25 53h1v1h-1zm5 12h1v1h-1z"/><path fill="#933" d="M25 62h1v1h-1z"/><path fill="#eab" d="M23 44h1v1h-1zm4 7h1v1h-1zm-4 1h1v1h-1zm9 13h1v1h-1zm-2 1h1v1h-1zm7 4h1v1h-1z"/><path fill="#fef" d="M26 51h1v1h-1zm-4 8h1v1h-1z"/><path fill="#c35" d="M31 54h1v1h-1zm-6 16h1v1h-1z"/><path fill="#c66" d="M28 61h1v1h-1z"/><path fill="#c24" d="M30 62h1v1h-1zm-1 1h1v1h-1zm0 1h1v1h-1zm-1 5h1v1h-1zm-4 1h1v1h-1z"/><path fill="#912" d="M40 46h1v1h-1zm-1 8h1v1h-1zm-17 3h1v1h-1zm10 12h1v1h-1zm2 0h1v1h-1zm-13 7h1v1h-1z"/><path fill="#fcd" d="M25 56h1v1h-1zm9 10h1v1h-1zm-11 4h1v1h-1z"/><path fill="#b78" d="M35 71h1v1h-1z"/><path fill="#443" d="M34 15h1v1h-1zm-13 1h1v1h-1zm16 2h1v1h-1zm3 6h1v1h-1z"/><path fill="#cbb" d="M31 27h1v1h-1zm7 3h1v1h-1z"/><path fill="#d78" d="M23 43h1v1h-1zm13 1h1v1h-1zm-12 1h1v1h-1zm17 0h1v1h-1zm-21 2h1v1h-1zm1 0h1v1h-1zm7 4h1v1h-1zm2 1h1v1h-1zm-8 1h1v1h-1zm-2 1h1v1h-1zm11 4h1v1h-1zm-6 1h1v1h-1zm3 4h1v1h-1zm3 2h1v1h-1zm12 0h1v1h-1zm1 0h2v1h-2zm-23 1h1v1h-1zm20 2h1v1h-1zm-19 6h1v1h-1z"/><path fill="#801" d="M34 46h1v1h-1zm-1 1h1v1h-1zm-10 1h1v1h-1zm11 12h1v1h-1zm-9 1h1v1h-1zm4 9h1v1h-1zm6 0h1v1h-1zm-8 1h1v1h-1zm9 0h1v1h-1z"/><path fill="#b88" d="M35 46h1v1h-1zm1 0h1v1h-1zm-5 24h1v1h-1z"/><path fill="#ecd" d="M28 47h1v1h-1zm3 0h1v1h-1zM19 73h1v1h-1z"/><path fill="#c78" d="M19 48h1v1h-1zm3 10h1v1h-1zm23 10h1v1h-1zm-2 5h1v1h-1z"/><path fill="#a56" d="M32 60h1v1h-1zm1 9h1v1h-1z"/><path fill="#ddd" d="M3 0h1v1H3zm1 0h1v1H4zm1 0h56v1H5zm56 0h1v1h-1zm1 0h1v1h-1zM2 1h1v1H2zm61 0h1v1h-1zM1 6h1v1H1zm63 0h1v1h-1zM1 7h1v1H1zm63 0h1v1h-1zM1 8h1v1H1zm63 0h1v1h-1zM1 9h1v73H1zm63 0h1v73h-1zm-23 2h1v1h-1zm-6 2h1v1h-1zm-7 1h1v1h-1zm5 5h1v1h-1zm-15 3h1v1h-1zm-1 2h1v1h-1zm10 0h1v1h-1zm-4 4h1v1h-1zm0 1h1v1h-1zm0 1h1v2h-1zm0 2h1v1h-1zm0 1h1v1h-1zm21 0h1v1h-1zm1 0h2v1h-2zm-21 1h1v1h-1zm3 0h1v1h-1zm9 1h1v1h-1zm4 0h1v1h-1zm5 1h1v1h-1zm-25 2h1v1h-1zM1 82h1v1H1zm63 0h1v1h-1zM1 83h1v1H1zm63 0h1v1h-1zM2 84h1v1H2zm61 0h1v1h-1zM3 85h1v1H3zm1 0h1v1H4zm1 0h1v1H5zm1 0h1v1H6zm1 0h2v1H7zm50 0h2v1h-2zm2 0h1v1h-1zm1 0h1v1h-1zm1 0h1v1h-1zm1 0h1v1h-1z"/><path fill="#877" d="M23 12h1v1h-1zm19 0h1v1h-1zm-22 6h1v1h-1zm-2 5h1v1h-1zm17 3h1v1h-1zm-4 4h1v1h-1zm2 2h1v1h-1zm-13 1h1v1h-1zm13 0h1v1h-1zm13 1h1v1h-1z"/><path fill="#c23" d="M34 42h1v1h-1zm0 1h1v1h-1zm1 0h1v1h-1zm-1 1h1v1h-1zm-1 1h1v1h-1zm-10 2h1v1h-1zm8 2h1v1h-1zm-5 1h1v1h-1zm6 1h1v1h-1zm2 0h1v1h-1zm3 1h2v1h-2zm-13 1h1v1h-1zm-2 1h1v1h-1zm8 1h1v1h-1zm6 0h1v1h-1zm-1 1h1v1h-1zm-11 1h1v1h-1zm11 0h1v1h-1zm-9 3h1v1h-1zm1 0h1v1h-1zm3 4h1v1h-1zm5 0h1v1h-1zm4 0h1v1h-1zm-13 1h1v1h-1zm14 8h1v1h-1zm0 3h1v1h-1z"/><path fill="#eaa" d="M29 45h1v1h-1zm13 1h1v1h-1zm-20 6h1v1h-1zm10 0h1v1h-1zm-5 12h1v1h-1zm3 4h1v1h-1zm6 7h1v1h-1zm3 0h1v1h-1z"/><path fill="#333" d="M20 19h1v1h-1zm14 3h1v1h-1zm-14 1h1v1h-1zm-1 1h1v1h-1zm20 0h1v1h-1zm3 4h1v1h-1zm-3 3h1v1h-1zm-7 2h1v1h-1zm12 2h1v1h-1z"/><path fill="#bbb" d="M0 1h1v1H0zm1 0h1v1H1zm63 0h1v1h-1zm1 0h1v1h-1zM25 11h1v1h-1zm6 3h1v1h-1zm14 0h1v1h-1zm-22 6h1v1h-1zm10 0h1v1h-1zm7 2h1v1h-1zm-24 4h1v1h-1zm4 3h1v1h-1zm0 1h1v1h-1zm14 0h1v1h-1zm8 0h1v1h-1zm-12 3h1v1h-1zm5 2h1v1h-1zm6 0h1v1h-1zM1 85h1v1H1zm63 0h1v1h-1zM2 86h1v1H2zm1 0h1v1H3zm59 0h1v1h-1zm1 0h1v1h-1z"/><path fill="#ebb" d="M32 39h1v1h-1zm-7 5h1v1h-1zm7 5h1v1h-1zm6 0h1v1h-1zm-9 1h1v1h-1zm7 0h1v1h-1zm4 1h1v1h-1zm-12 3h1v1h-1zm-1 1h1v1h-1zm-4 10h1v1h-1zm17 0h1v1h-1zm-10 2h1v1h-1zm7 4h1v1h-1zm-15 2h1v1h-1z"/><path fill="#812" d="M25 48h1v1h-1zm11 12h1v1h-1zm-6 10h1v1h-1zm-2 1h1v1h-1z"/><path fill="#922" d="M33 60h1v1h-1z"/><path fill="#b55" d="M23 67h1v1h-1z"/><path fill="#887" d="M33 22h1v1h-1z"/><path fill="#e88" d="M33 43h1v1h-1zm-9 1h1v1h-1zm9 22h1v1h-1z"/><path fill="#fde" d="M32 44h1v1h-1zm3 9h1v1h-1zm-1 3h1v1h-1zM20 76h1v1h-1z"/><path fill="#d9a" d="M40 53h1v1h-1zm-2 4h1v1h-1zm-12 9h1v1h-1zm-9 2h1v1h-1z"/><path fill="#c02" d="M35 44h1v1h-1zm-8 8h1v1h-1zm10 1h1v1h-1zm-16 1h1v1h-1zm8 4h1v1h-1zm3 1h1v1h-1zm1 0h1v1h-1zm-5 1h1v1h-1zm-1 5h1v1h-1zm1 0h1v1h-1zm17 1h1v1h-1zm-2 1h1v1h-1zm-7 2h1v1h-1zm-9 1h1v1h-1zm15 0h1v1h-1zm-21 2h1v2h-1zm20 2h1v1h-1z"/><path fill="#d89" d="M42 47h1v1h-1zm4 19h1v1h-1z"/><path fill="#945" d="M22 49h1v1h-1z"/><path fill="#701" d="M35 60h1v2h-1zm3 18h1v1h-1zm1 0h1v1h-1zm1 0h1v1h-1zm0 1h1v1h-1z"/></svg>