<svg xmlns="http://www.w3.org/2000/svg" baseProfile="tiny" version="1.2" viewBox="0 0 66 90"><path fill="#555" d="M33 13h1v1h-1zm1 0h1v1h-1zm0 3h1v1h-1zm11 5h1v1h-1zm-22 1h1v1h-1zm19 10h1v1h-1zm-19 2h1v1h-1zm17 0h1v1h-1z"/><path fill="#eab" d="M25 43h1v1h-1zm3 2h1v1h-1zm4 5h1v1h-1zm-3 8h1v1h-1zm0 4h1v1h-1zm-5 3h1v1h-1zm-2 4h1v1h-1z"/><path fill="#988" d="M35 15h1v1h-1zm1 3h1v1h-1zm7 0h1v1h-1zm5 1h1v1h-1zm-27 4h1v1h-1zm24 10h1v1h-1z"/><path fill="#877" d="M37 18h1v1h-1zm4 0h1v1h-1zm-17 9h1v1h-1zm-2 4h1v1h-1zm20 0h1v1h-1z"/><path fill="#baa" d="M34 20h1v1h-1z"/><path fill="#c56" d="M33 46h1v1h-1z"/><path fill="#b77" d="M22 49h1v1h-1zm10 21h1v1h-1z"/><path fill="#ddd" d="M3 0h1v1H3zm1 0h1v1H4zm1 0h56v1H5zm56 0h1v1h-1zm1 0h1v1h-1zM2 1h1v1H2zm61 0h1v1h-1zM1 6h1v1H1zm63 0h1v1h-1zM1 7h1v1H1zm63 0h1v1h-1zM1 8h1v1H1zm63 0h1v1h-1zM1 9h1v73H1zm63 0h1v73h-1zm-30 3h1v1h-1zm-5 1h1v1h-1zm6 3h1v1h-1zm8 1h1v1h-1zm1 0h1v1h-1zm-17 2h1v1h-1zm11 1h1v1h-1zm-23 3h1v1h-1zm1 1h1v1h-1zm7 3h1v1h-1zm11 0h1v1h-1zm-13 9h1v1h-1zm25 1h1v1h-1zM1 82h1v1H1zm63 0h1v1h-1zM1 83h1v1H1zm63 0h1v1h-1zM2 84h1v1H2zm61 0h1v1h-1zM3 85h1v1H3zm1 0h1v1H4zm1 0h1v1H5zm1 0h1v1H6zm1 0h2v1H7zm50 0h2v1h-2zm2 0h1v1h-1zm1 0h1v1h-1zm1 0h1v1h-1zm1 0h1v1h-1z"/><path fill="#aaa" d="M0 2h1v1H0zm65 0h1v1h-1zM34 18h1v1h-1zm11 0h1v1h-1zm1 0h1v1h-1zm4 2h1v1h-1zm-31 1h1v1h-1zm5 1h1v1h-1zm2 5h1v1h-1zm9 1h1v1h-1zm-12 1h1v1h-1zm5 0h1v1h-1zm14 1h1v1h-1zm-21 2h1v1h-1zm-4 5h1v1h-1zm25 0h1v1h-1zM1 86h1v1H1zm63 0h1v1h-1zM2 87h1v1H2zm1 0h1v1H3zm1 0h1v1H4zm1 0h56v1H5zm56 0h1v1h-1zm1 0h1v1h-1zm1 0h1v1h-1zM4 88h1v1H4zm1 0h56v1H5zm56 0h1v1h-1z"/><path fill="#544" d="M32 15h1v1h-1zm-1 4h1v1h-1zm-5 1h1v1h-1zm-4 1h1v1h-1zm4 0h1v1h-1zm-8 1h1v1h-1zm17 5h1v1h-1zm-13 5h1v1h-1zm-1 1h1v1h-1zm22 0h1v1h-1z"/><path fill="#c45" d="M26 53h1v1h-1zm3 0h1v1h-1zm8 0h1v1h-1z"/><path fill="#fde" d="M26 56h1v1h-1zm13 7h1v1h-1zm1 0h1v1h-1zm2 6h1v1h-1zm-1 3h1v1h-1zm-5 2h1v1h-1zm8 2h1v1h-1z"/><path fill="#c88" d="M27 66h1v1h-1z"/><path fill="#945" d="M36 70h1v1h-1zm3 8h1v1h-1z"/><path fill="#bba" d="M44 21h1v1h-1z"/><path fill="#332" d="M20 23h1v1h-1z"/><path fill="#ecc" d="M37 46h1v1h-1zm6 1h1v1h-1zm-1 18h1v1h-1zm6 1h1v1h-1zm-1 2h1v1h-1zm-23 9h1v1h-1z"/><path fill="#fcc" d="M35 39h1v1h-1zm-1 4h1v1h-1zm-10 1h1v1h-1zm14 5h1v1h-1zm2 0h1v1h-1zm-4 1h1v1h-1zm-1 5h1v1h-1zm-1 3h1v1h-1zm-6 1h1v1h-1zm-1 5h1v1h-1zm19 0h1v1h-1zm-8 4h1v1h-1z"/><path fill="#c13" d="M34 45h1v1h-1zm-2 6h1v1h-1zm7 1h1v1h-1zm-16 2h1v1h-1zm14 0h1v1h-1zm-6 1h1v1h-1zm-6 3h1v1h-1zm3 2h1v1h-1zm-1 5h1v1h-1zm19 1h1v1h-1zm-16 1h1v1h-1zm13 3h1v2h-1z"/><path fill="#c12" d="M35 42h1v1h-1zm7 3h1v1h-1zm-13 1h1v1h-1zm-5 1h1v1h-1zm11 4h1v1h-1zm-11 3h1v1h-1zm6 0h1v1h-1zm8 0h1v1h-1zm-1 3h1v1h-1zm-6 1h1v1h-1zm-1 1h1v1h-1zm-3 1h1v1h-1zm12 4h1v1h-1zm2 0h1v1h-1zm3 4h1v1h-1zm-1 1h1v1h-1zm-15 1h1v1h-1zm15 2h1v1h-1z"/><path fill="#b34" d="M28 47h1v1h-1zm-5 28h1v1h-1z"/><path fill="#912" d="M21 48h1v1h-1zm2 9h1v1h-1zm1 2h1v1h-1zm14 18h1v1h-1z"/><path fill="#a55" d="M25 48h1v1h-1zm1 14h1v1h-1z"/><path fill="#a34" d="M28 48h1v1h-1zm-1 13h1v1h-1zm-1 5h1v1h-1zm20 3h1v1h-1zm-2 5h1v1h-1zm-22 2h1v1h-1zm1 1h1v1h-1zm20 0h1v1h-1z"/><path fill="#a99" d="M30 11h1v1h-1zm-5 16h1v1h-1zm3 0h1v1h-1zm-12 9h1v1h-1z"/><path fill="#322" d="M30 12h1v1h-1zm0 1h1v1h-1zm2 0h1v1h-1zm0 6h1v1h-1zm-16 3h1v1h-1zm3 0h1v1h-1zm6 7h1v1h-1zm-1 1h1v1h-1zm21 4h1v1h-1zm-4 1h1v1h-1zm-24 1h1v1h-1z"/><path fill="#c23" d="M35 41h1v1h-1zm2 1h1v1h-1zm-1 1h1v1h-1zm-1 1h1v1h-1zm2 0h1v1h-1zm-9 2h1v1h-1zm0 3h1v1h-1zm2 3h1v1h-1zm-5 1h1v1h-1zm9 2h1v1h-1zm3 0h1v1h-1zm0 1h1v1h-1zm-12 1h1v1h-1zm11 1h1v1h-1zm-5 6h1v1h-1zm6 0h1v1h-1zm1 0h1v1h-1zm-20 3h1v1h-1zm7 3h1v1h-1zm17 2h1v1h-1zm0 1h1v1h-1zm0 2h1v1h-1z"/><path fill="#a56" d="M34 69h1v1h-1zm-7 3h1v1h-1z"/><path fill="#554" d="M38 29h1v1h-1zm-15 1h1v1h-1zm21 3h1v1h-1z"/><path fill="#701" d="M36 60h1v1h-1zm1 0h1v1h-1zm3 18h2v1h-2zm2 0h1v1h-1z"/><path fill="#ccc" d="M1 0h1v1H1zm1 0h1v1H2zm61 0h1v1h-1zm1 0h1v1h-1zM1 2h1v1H1zm63 0h1v1h-1zm-33 9h1v1h-1zm-3 1h1v1h-1zm5 6h1v1h-1zm3 2h1v1h-1zm1 0h1v1h-1zm2 0h1v1h-1zm-22 1h1v1h-1zm11 0h1v1h-1zm21 2h1v1h-1zm1 0h1v1h-1zm-15 3h1v1h-1zm2 1h1v1h-1zm2 1h1v1h-1zm2 1h1v1h-1zm0 7h1v1h-1zm-23 1h1v1h-1zM1 84h1v1H1zm63 0h1v1h-1zM2 85h1v1H2zm61 0h1v1h-1zM4 86h1v1H4zm1 0h1v1H5zm1 0h1v1H6zm1 0h52v1H7zm52 0h1v1h-1zm1 0h1v1h-1zm1 0h1v1h-1z"/><path fill="#bbb" d="M0 1h1v1H0zm1 0h1v1H1zm63 0h1v1h-1zm1 0h1v1h-1zM47 18h1v1h-1zm-19 1h1v1h-1zm21 0h1v1h-1zm-26 1h1v1h-1zm12 0h1v1h-1zm5 0h1v1h-1zm-22 1h1v1h-1zm1 3h1v1h-1zm19 8h1v1h-1zm-18 1h1v1h-1zm-1 1h1v1h-1zm27 1h1v1h-1zm0 1h1v1h-1zm-3 2h1v1h-1zM1 85h1v1H1zm63 0h1v1h-1zM2 86h1v1H2zm1 0h1v1H3zm59 0h1v1h-1zm1 0h1v1h-1z"/><path fill="#211" d="M34 14h1v1h-1zm-1 5h1v1h-1zm1 0h1v1h-1zm9 0h1v1h-1zm1 0h1v1h-1zm-16 1h1v1h-1zm1 0h1v1h-1zm14 0h1v1h-1zm4 0h1v1h-1zm-24 1h1v1h-1zm1 0h1v1h-1zm26 0h1v1h-1zm-30 1h1v1h-1zm-4 1h1v1h-1zm20 5h1v1h-1zm-10 1h1v1h-1zm11 0h1v1h-1zm-13 2h1v1h-1zm16 0h1v1h-1zm-17 1h1v1h-1zm18 0h1v1h-1zm-19 1h1v1h-1zm20 0h1v1h-1zm-21 1h1v1h-1zm22 0h1v1h-1zm-24 1h1v1h-1zm25 0h2v1h-2zm-25 1h1v1h-1zm25 2h1v1h-1z"/><path fill="#823" d="M36 61h1v1h-1zm5 18h1v1h-1z"/><path fill="#b89" d="M28 72h1v1h-1z"/><path fill="#999" d="M0 3h1v1H0zm65 0h1v1h-1zM0 4h1v1H0zm65 0h1v1h-1zm-32 8h1v1h-1zm2 2h1v1h-1zm0 4h1v1h-1zm9 0h1v1h-1zm-15 1h1v1h-1zm-5 1h1v1h-1zm9 0h1v1h-1zm8 0h1v1h-1zm-26 1h1v1h-1zm19 5h1v1h-1zm4 2h1v1h-1zm2 1h1v1h-1zM3 88h1v1H3zm59 0h1v1h-1z"/><path fill="#d78" d="M37 40h1v1h-1zm-13 3h1v1h-1zm1 1h1v1h-1zm15 0h1v1h-1zm-10 1h1v1h-1zm10 5h1v1h-1zm-5 8h1v1h-1zm-10 7h1v1h-1zm20 0h1v1h-1zm2 0h1v1h-1zm-25 1h1v1h-1zm9 1h1v1h-1zm12 0h1v1h-1zm-20 7h1v1h-1zm14 1h1v1h-1z"/><path fill="#d9a" d="M34 48h1v1h-1z"/><path fill="#801" d="M37 45h1v1h-1zm-2 1h1v1h-1zm-1 1h1v1h-1zm-10 1h1v1h-1zm2 0h1v1h-1zm9 12h1v1h-1zm-9 1h1v1h-1zm4 9h1v1h-1zm-2 1h1v1h-1z"/><path fill="#923" d="M42 46h1v1h-1zm-2 9h1v1h-1z"/><path fill="#b23" d="M32 57h1v1h-1zm-1 8h1v1h-1z"/><path fill="#766" d="M29 11h1v1h-1zm17 8h1v1h-1zm-21 1h1v1h-1zm12 8h1v1h-1zm6 4h1v1h-1zm-23 4h1v1h-1z"/><path fill="#100" d="M44 20h1v1h-1zm3 1h1v1h-1zm2 1h1v1h-1zm-30 1h1v1h-1zm25 14h1v1h-1z"/><path fill="#c34" d="M36 42h1v1h-1zm1 1h1v1h-1zm-7 3h1v1h-1zm6 5h1v1h-1zm-5 2h1v1h-1zm0 1h1v1h-1zm1 0h1v1h-1zm1 0h1v1h-1zm-4 1h1v1h-1zm7 2h1v1h-1zm-5 6h1v1h-1zm5 1h1v1h-1zm6 0h1v1h-1zm3 2h1v1h-1zm-26 1h1v1h-1zm2 0h1v1h-1zm8 0h1v1h-1zm1 1h1v1h-1zm3 0h1v1h-1zm3 0h1v1h-1zm7 0h1v1h-1zm-14 1h1v1h-1zm-3 1h1v1h-1zm1 0h1v1h-1zm-5 1h1v1h-1zm14 4h1v1h-1zm5 1h1v1h-1z"/><path fill="#a12" d="M33 47h1v1h-1zm-11 8h1v1h-1zm23 16h1v1h-1zm-24 3h1v1h-1z"/><path fill="#fee" d="M43 30h1v1h-1zM33 40h1v1h-1zm5 0h1v1h-1zm-15 2h1v1h-1zm4 2h1v1h-1zm5 0h1v1h-1zm-14 2h1v1h-1zm0 1h1v1h-1zm14 0h1v1h-1zm7 1h1v1h-1zm-6 2h1v1h-1zm1 2h1v1h-1zm-5 2h1v1h-1zm7 0h1v1h-1zm-15 1h1v1h-1zm13 1h1v1h-1zm-12 1h1v1h-1zm4 0h1v1h-1zm9 0h1v1h-1zm-12 2h1v1h-1zm2 3h1v1h-1zm7 0h1v1h-1zm5 1h1v1h-1zm1 0h1v1h-1zm4 0h1v1h-1zm1 0h1v1h-1zm1 0h1v1h-1zm-18 1h1v1h-1zm-5 1h1v1h-1zm1 0h1v1h-1zm19 0h1v1h-1zm-5 1h1v1h-1zm-5 5h1v1h-1zm5 0h1v1h-1zm-13 1h1v1h-1zm16 3h1v1h-1zm1 0h1v1h-1zm3 4h1v1h-1z"/><path fill="#e89" d="M33 39h1v1h-1zm3 1h1v1h-1zm-10 5h2v1h-2zm18 19h1v1h-1zm-11 1h1v1h-1zm-14 1h1v1h-1z"/><path fill="#c35" d="M37 41h1v1h-1zm-10 5h1v1h-1zm5 3h1v1h-1zm-6 3h1v1h-1zm6 6h1v1h-1z"/><path fill="#d67" d="M35 40h1v1h-1zm-1 4h1v1h-1zm4 0h1v1h-1zm1 0h1v1h-1zm-8 2h1v1h-1zm0 4h1v1h-1zm-2 1h1v1h-1zm-6 2h1v1h-1zm20 11h1v1h-1zm0 1h1v1h-1zm3 0h1v1h-1zm-15 1h1v1h-1zm5 1h1v1h-1zm-5 1h1v1h-1zm-9 2h1v1h-1zm19 4h1v1h-1z"/><path fill="#dbb" d="M38 46h1v1h-1zM26 72h1v1h-1zm11 5h1v1h-1zm3 2h1v1h-1z"/><path fill="#a02" d="M43 46h1v1h-1z"/><path fill="#b12" d="M40 64h1v1h-1zm-2 6h1v1h-1z"/><path fill="#c67" d="M38 72h1v1h-1z"/><path fill="#ebb" d="M42 44h1v1h-1zm-11 5h1v1h-1zm6 1h1v1h-1zm4 0h1v1h-1zm-9 2h1v1h-1zm-3 5h1v1h-1zm3 4h1v1h-1zm11 5h1v1h-1zm-20 7h1v1h-1z"/><path fill="#e99" d="M27 50h1v1h-1zm12 0h1v1h-1zm-7 3h1v1h-1zm-4 11h1v1h-1zm-8 2h1v1h-1zm1 0h1v1h-1zm12 0h1v1h-1zm-1 2h1v1h-1zm10 2h1v1h-1zm-1 3h1v1h-1z"/><path fill="#b66" d="M24 67h1v1h-1zm11 2h1v1h-1z"/><path fill="#a33" d="M39 57h1v1h-1z"/><path fill="#712" d="M42 79h1v1h-1z"/><path fill="#cbb" d="M16 21h1v1h-1zm35 0h1v1h-1z"/><path fill="#d88" d="M41 44h1v1h-1zM21 54h1v1h-1zm12 2h1v1h-1zm-1 9h1v1h-1zm-14 3h1v1h-1z"/><path fill="#c99" d="M36 46h1v1h-1zm-1 1h1v1h-1zm6 7h1v1h-1z"/><path fill="#a01" d="M35 45h1v1h-1zm4 0h1v1h-1zm-13 2h2v1h-2zm7 1h1v1h-1zm7 5h1v1h-1zm-1 1h1v1h-1zm-16 1h1v1h-1zm16 0h1v1h-1zm-16 1h1v1h-1zm15 1h1v1h-1zm-14 1h1v1h-1zm12 1h1v1h-1zm-5 1h1v1h-1zm-1 1h1v1h-1zm1 0h1v1h-1zm-6 5h1v1h-1zm21 1h1v1h-1zm-27 1h1v1h-1zm2 0h1v1h-1zm-1 1h1v1h-1zm1 0h1v1h-1zm10 0h1v1h-1zm5 0h1v1h-1zm9 0h1v1h-1zm-25 1h1v1h-1zm9 0h1v1h-1zm15 2h1v1h-1zm-23 1h1v1h-1zm23 0h1v1h-1zm-22 2h1v1h-1zm21 0h1v1h-1zm0 1h1v1h-1zm-3 1h2v1h-2z"/><path fill="#d99" d="M29 61h1v1h-1z"/><path fill="#812" d="M31 70h1v1h-1zm-2 1h1v1h-1zm8 0h1v1h-1z"/><path fill="#655" d="M49 20h1v1h-1zm-25 8h1v1h-1z"/><path fill="#333" d="M15 22h1v1h-1zm12 6h1v1h-1zm12 2h1v1h-1zm-14 2h1v1h-1zm19 2h1v1h-1z"/><path fill="#443" d="M24 29h1v1h-1zm13 1h1v1h-1zm-11 1h1v1h-1zm-6 3h1v1h-1z"/><path fill="#b45" d="M32 60h1v1h-1zm-3 6h1v1h-1zm18 1h1v1h-1z"/><path fill="#666" d="M31 20h1v1h-1zm11 0h1v1h-1zm-25 4h1v1h-1zm1 0h1v1h-1zm8 4h1v1h-1zm1 2h1v1h-1zm14 1h1v1h-1zM0 88h1v1H0zm1 0h1v1H1zm63 0h1v1h-1zm1 0h1v1h-1zM1 89h1v1H1zm1 0h1v1H2zm1 0h1v1H3zm1 0h58v1H4zm58 0h1v1h-1zm1 0h1v1h-1zm1 0h1v1h-1z"/><path fill="#caa" d="M39 46h1v1h-1z"/><path fill="#c02" d="M27 52h1v1h-1zm2 0h1v1h-1zm9 0h1v1h-1zm-8 1h1v1h-1zm8 0h1v1h-1zm-8 2h1v1h-1zm2 0h1v1h-1zm6 0h1v1h-1zm-8 3h1v1h-1zm-2 7h1v1h-1zm-4 1h1v1h-1zm20 0h1v1h-1zm-9 2h1v1h-1zm9 1h1v1h-1zm-22 3h1v1h-1z"/><path fill="#eaa" d="M34 39h1v1h-1zm-8 5h1v1h-1zm3 1h1v1h-1zm-1 10h1v1h-1zm8 0h1v1h-1zm-7 8h1v1h-1zm6 3h1v1h-1zm-7 3h1v1h-1zm8 7h1v1h-1z"/><path fill="#d45" d="M34 40h1v1h-1zm-1 5h1v1h-1zm-7 1h1v1h-1zm-7 1h1v1h-1zm2 0h1v1h-1zm2 0h1v1h-1zm5 3h1v1h-1zm3 1h1v1h-1zm6 0h1v1h-1zm1 0h1v1h-1zm2 0h1v1h-1zm-18 2h1v1h-1zm3 3h1v1h-1zm1 3h1v1h-1zm3 0h1v1h-1zm3 5h1v1h-1zm-6 1h1v1h-1zm18 0h1v1h-1zm-21 1h1v1h-1zm-3 1h1v1h-1zm9 1h1v1h-1zm8 0h1v1h-1zm1 1h1v1h-1zm4 2h1v1h-1z"/><path fill="#c89" d="M40 46h1v1h-1zm4 29h1v1h-1zm-1 3h1v1h-1z"/><path fill="#888" d="M0 5h1v1H0zm65 0h1v1h-1zM0 6h1v1H0zm65 0h1v1h-1zM0 7h1v1H0zm65 0h1v1h-1zM0 8h1v73H0zm65 0h1v73h-1zm-32 8h1v1h-1zm9 2h1v1h-1zm5 1h1v1h-1zm-15 1h1v1h-1zm15 2h1v1h-1zm-11 5h1v1h-1zm3 2h1v1h-1zm2 1h1v1h-1zm2 1h1v1h-1zm-4 2h1v1h-1zm-21 2h1v1h-1zm4 0h1v1h-1zm-6 2h1v1h-1zM0 81h1v2H0zm65 0h1v2h-1zM0 83h1v1H0zm65 0h1v1h-1zM1 87h1v1H1zm63 0h1v1h-1zM2 88h1v1H2zm61 0h1v1h-1z"/><path fill="#444" d="M28 11h1v1h-1zm17 8h1v1h-1zm-15 1h1v1h-1zm18 0h1v1h-1zm-31 2h1v1h-1zm6 9h1v1h-1zm22 7h1v1h-1z"/><path fill="#110" d="M32 14h1v1h-1zm1 1h1v1h-1zm12 5h1v1h-1zm5 2h1v1h-1zm-33 1h1v1h-1zm1 0h1v1h-1zm8 7h1v1h-1zm-1 1h1v1h-1zm-1 1h1v1h-1zm15 0h1v1h-1zm-16 1h1v1h-1zm17 0h1v1h-1zm-18 1h1v1h-1zm19 0h1v1h-1zm1 1h1v1h-1zm1 1h1v1h-1zm0 1h1v1h-1zm2 0h1v1h-1z"/><path fill="#a23" d="M41 53h1v1h-1zM19 69h1v1h-1zm19 2h1v1h-1z"/><path fill="#902" d="M23 67h1v1h-1z"/><path fill="#fcd" d="M33 44h1v1h-1zm2 6h1v1h-1zm-8 1h1v1h-1zm-5 1h1v1h-1zm11 0h1v1h-1zm0 6h1v1h-1zm-10 7h1v1h-1zm-5 1h1v1h-1zm9 3h1v1h-1zm8 6h1v1h-1z"/><path fill="#e88" d="M25 45h1v1h-1zm13 5h1v1h-1zm-13 2h1v1h-1zm6 0h1v1h-1z"/><path fill="#daa" d="M26 49h1v1h-1zm14 7h1v1h-1zm-12 5h1v1h-1zm-9 9h1v1h-1zm27 0h1v1h-1z"/><path fill="#111" d="M31 13h1v1h-1zm2 1h1v1h-1zm1 1h1v1h-1zm1 4h1v1h-1zm1 0h1v1h-1zm1 0h1v1h-1zm1 0h1v1h-1zm1 0h2v1h-2zm2 0h1v1h-1zm1 0h1v1h-1zm4 1h1v1h-1zm-21 1h1v1h-1zm21 0h1v1h-1zm2 0h1v1h-1zm1 0h1v1h-1zm-28 1h1v1h-1zm1 0h1v1h-1zm5 7h1v1h-1zm-2 1h1v1h-1zm13 0h1v1h-1zm1 1h1v1h-1zm1 1h1v1h-1zm1 1h1v1h-1zm1 1h1v1h-1zm-22 1h1v1h-1zm1 0h1v1h-1zm22 0h1v1h-1zm-25 1h1v1h-1zm24 0h1v1h-1zm2 0h1v1h-1zm1 0h1v1h-1z"/><path fill="#a66" d="M34 60h1v1h-1z"/><path fill="#a13" d="M20 71h1v1h-1z"/><path fill="#c77" d="M27 53h1v1h-1zm-7 19h1v1h-1z"/><path fill="#222" d="M29 12h1v1h-1zm-2 8h1v1h-1zm21 2h1v1h-1zm-20 6h1v1h-1z"/><path fill="#777" d="M38 18h1v1h-1zm1 0h1v1h-1zm1 0h1v1h-1zm-10 1h1v1h-1zm-16 2h1v1h-1zm7 0h1v1h-1zm4 7h1v1h-1zm15 2h1v1h-1zm4 2h1v1h-1zM0 84h1v1H0zm65 0h1v1h-1zM0 85h1v1H0zm65 0h1v1h-1zM0 86h1v1H0zm65 0h1v1h-1zM0 87h1v1H0zm65 0h1v1h-1z"/><path fill="#ebc" d="M38 42h1v1h-1zm-8 8h1v1h-1zm7 17h1v1h-1zm-17 6h1v1h-1zm15 1h1v1h-1zm3 1h1v1h-1z"/><path fill="#c78" d="M22 56h1v1h-1zm1 2h1v1h-1zm1 2h1v1h-1zm9 0h1v1h-1zm12 12h1v1h-1zm-24 3h1v1h-1z"/><path fill="#933" d="M38 59h1v1h-1zm-13 2h1v1h-1z"/><g fill="#fff"><path d="M4 1h1v1H4zm1 0h1v1H5zm1 0h54v1H6zm54 0h1v1h-1zm1 0h1v1h-1zM3 2h1v1H3zm1 0h1v1H4zm1 0h56v1H5zm56 0h1v1h-1zm1 0h1v1h-1zM2 3h1v1H2zm1 0h1v1H3zm1 0h2v1H4zm2 0h54v1H6zm54 0h2v1h-2zm2 0h1v1h-1zm1 0h1v1h-1zM2 4h1v2H2zm1 0h1v3H3zm1 0h1v1H4zm1 0h56v7H5zm56 0h1v1h-1zm1 0h1v3h-1zm1 0h1v2h-1z"/><path d="M4 5h58v2H4zM3 7h1v1H3zm1 0h1v1H4zm57 0h1v1h-1zm1 0h1v1h-1zM3 8h1v73H3zm1 0h1v73H4zm57 0h1v74h-1zm1 0h1v73h-1zM5 11h22v8H5zm28 0h1v1h-1zm1 0h27v1H34zm-7 1h1v7h-1zm8 0h26v1H35zm-7 1h1v6h-1zm8 0h25v4H36zm-7 1h1v5h-1zm1 1h1v4h-1zm1 0h1v1h-1zm0 1h1v2h-1zm1 0h1v1h-1zm0 1h6v1h-6zm6 0h1v1h-1zm1 0h1v1h-1zm7 0h1v1h-1zm1 0h14v1H47zm-16 1h1v1h-1zm18 0h12v1H49zM5 19h20v1H5zm20 0h1v1h-1zm25 0h1v1h-1zm1 0h10v2H51zM5 20h9v62H5zm9 0h1v1h-1zm1 0h4v1h-4zm4 0h1v1h-1zm1 0h1v1h-1zm9 1h1v1h-1zm1 0h13v5H30zm13 0h1v1h-1zm9 0h9v61h-9z"/><path d="M26 22h20v4H26zm-12 1h1v14h-1z"/><path d="M23 23h25v3H23zm25 0h1v1h-1zm3 0h1v1h-1zm-36 1h1v12h-1zm5 0h1v1h-1z"/><path d="M21 24h40v2H21z"/><path d="M16 25h45v1H16zm0 1h7v4h-7zm7 0h1v1h-1zm3 0h1v1h-1zm1 0h7v1h-7zm9 0h1v1h-1zm1 0h24v1H37zm-8 1h1v1h-1zm1 0h4v12h-4zm8 0h1v1h-1zm1 0h22v1H39zm-16 1h1v1h-1zm6 0h1v1h-1zm5 0h1v11h-1zm6 0h1v1h-1zm1 0h20v1H41z"/><path d="M29 29h7v10h-7zm13 0h1v1h-1zm1 0h18v1H43zm-27 1h6v1h-6z"/><path d="M28 30h8v9h-8zm8 0h1v1h-1zm8 0h17v1H44zm-28 1h5v2h-5zm5 0h1v1h-1zm6 0h1v1h-1zm9 0h1v8h-1zm9 0h16v1H45z"/><path d="M27 32h11v7H27zm18 0h1v1h-1zm1 0h15v2H46zm-30 1h4v1h-4z"/><path d="M26 33h13v6H26zm-10 1h2v1h-2zm2 0h1v1h-1zm6 0h1v1h-1z"/><path d="M25 34h14v5H25zm14 0h1v1h-1zm8 0h14v30H47zm-31 1h1v1h-1zm1 0h1v1h-1zm6 0h1v1h-1z"/><path d="M24 35h16v4H24zm-9 1h1v1h-1z"/><path d="M22 36h19v3H22zm-3 1h1v1h-1z"/><path d="M20 37h22v2H20z"/><path d="M14 38h29v1H14zm32 0h15v26H46zm-32 1h18v3H14zm18 0h1v1h-1zm5 0h1v1h-1zm1 0h6v1h-6zm7 0h1v1h-1zm-13 1h1v4h-1z"/><path d="M39 40h22v3H39zm-6 1h1v3h-1zm-19 1h9v4h-9z"/><path d="M25 42h9v1h-9zm9 0h1v1h-1zm-11 1h1v3h-1zm3 0h1v1h-1zm1 0h7v1h-7zm11 0h1v1h-1zm1 0h1v1h-1zm1 0h1v1h-1zm1 0h1v1h-1zm1 0h19v1H42zm-14 1h3v1h-3zm3 0h1v1h-1zm12 0h1v1h-1zm1 0h17v2H44zm-20 1h1v1h-1zm-10 1h4v38h-4zm6 0h1v1h-1zm1 0h1v1h-1zm1 0h1v1h-1zm23 0h16v17H45zm-16 1h1v1h-1zm1 0h2v2h-2zm6 0h6v1h-6zm6 0h1v1h-1zm-24 1h1v18h-1zm1 0h1v1h-1z"/><path d="M29 48h3v1h-3zm6 0h3v2h-3zm3 0h1v1h-1zm2 0h21v1H40zm-21 1h2v16h-2zm6 0h1v3h-1zm4 0h2v1h-2z"/><path d="M34 49h4v1h-4zm7 0h20v1H41zm-20 1h6v1h-6zm8 0h1v1h-1zm13 0h19v1H42zm-21 1h2v1h-2zm3 0h2v1h-2zm2 0h1v1h-1zm17 0h18v12H43zm-22 1h1v1h-1zm14 0h1v1h-1zm1 0h1v2h-1z"/><path d="M34 53h3v1h-3zm8 0h1v1h-1zm-17 1h1v1h-1zm1 0h3v1h-3zm9 0h1v1h-1zm7 0h19v9H42zm-16 1h1v1h-1zm1 0h1v1h-1zm14 0h1v1h-1zm-20 1h1v9h-1zm14 0h1v1h-1z"/><path d="M41 56h20v7H41zm-14 1h2v2h-2zm6 0h1v1h-1zm1 0h1v1h-1zm6 0h1v1h-1zm-18 1h1v7h-1z"/><path d="M40 58h21v5H40zm-1 1h1v1h-1zm-16 1h1v5h-1z"/><path d="M39 60h22v3H39zm-15 1h1v1h-1zm9 0h2v3h-2zm5 0h1v1h-1zm-14 1h1v3h-1zm4 0h1v2h-1zm7 0h1v1h-1zm1 0h1v1h-1zm1 0h1v1h-1z"/><path d="M38 62h23v1H38zm-13 1h2v1h-2zm2 0h1v1h-1zm5 0h3v1h-3zm3 0h1v1h-1zm1 0h1v1h-1zm9 0h1v1h-1zm-20 1h1v1h-1zm22 0h1v1h-1zm1 0h13v1H48zm-29 1h1v1h-1zm16 0h1v1h-1zm1 0h4v1h-4zm4 0h1v1h-1zm8 0h1v1h-1zm1 0h12v17H49zm-17 1h1v2h-1zm5 0h6v1h-6zm-11 1h3v1h-3zm7 0h1v1h-1zm5 0h5v1h-5z"/><path d="M48 67h13v15H48zm-25 1h1v1h-1zm1 0h4v1h-4zm4 0h1v1h-1zm11 0h4v1h-4zm-21 1h1v1h-1zm5 0h1v3h-1zm1 0h1v1h-1zm15 0h3v3h-3z"/><path d="M47 69h14v13H47zm-29 1h1v14h-1zm16 0h1v14h-1zm1 0h1v1h-1zm-16 1h1v1h-1zm5 0h1v5h-1z"/><path d="M32 71h4v3h-4zm14 0h1v1h-1zm-27 1h1v12h-1zm6 0h1v12h-1zm4 0h1v1h-1z"/><path d="M30 72h7v2h-7zm9 0h2v3h-2zm7 0h15v10H46z"/><path d="M26 73h12v1H26zm12 0h1v1h-1zm-18 1h1v1h-1zm6 0h9v10h-9zm11 0h4v1h-4zm8 0h16v8H45zm-25 1h1v9h-1zm1 1h1v1h-1zm3 0h1v1h-1zm11 0h1v8h-1zm-14 1h1v7h-1zm15 0h1v7h-1z"/><path d="M44 77h17v5H44zm-22 1h16v6H22zm16 1h2v5h-2z"/><path d="M40 80h21v2H40zM3 81h1v1H3zm1 0h1v2H4zm58 0h1v1h-1zM3 82h1v1H3zm2 0h1v1H5zm1 0h54v1H6zm54 0h1v1h-1zm1 0h1v1h-1zm1 0h1v1h-1zM3 83h1v1H3zm1 0h1v1H4zm1 0h1v1H5zm1 0h1v1H6zm1 0h52v1H7zm52 0h1v1h-1zm1 0h1v1h-1zm1 0h1v1h-1zm1 0h1v1h-1zM5 84h1v1H5zm1 0h1v1H6zm1 0h1v1H7zm1 0h50v1H8zm50 0h1v1h-1zm1 0h1v1h-1zm1 0h1v1h-1z"/></g><path fill="#dcc" d="M22 20h1v1h-1z"/><path fill="#edd" d="M44 47h1v1h-1zm-9 14h1v1h-1zm-13 7h1v1h-1zm23 5h1v1h-1zm-23 4h1v1h-1z"/><path fill="#ccb" d="M27 11h1v1h-1z"/><path fill="#433" d="M31 14h1v1h-1zm20 8h1v1h-1zM24 33h1v1h-1z"/><path fill="#fef" d="M23 51h1v1h-1zm19 0h1v1h-1zm-9 2h1v1h-1z"/><path fill="#901" d="M36 45h1v1h-1zm2 0h1v1h-1zm-4 1h1v1h-1zm-12 2h1v1h-1zm1 0h1v1h-1zm4 0h1v1h-1zm0 1h1v1h-1zm13 5h1v1h-1zm-1 2h1v1h-1zm-1 2h1v1h-1zm-1 1h1v1h-1zm-12 1h1v1h-1zm21 8h1v1h-1zm-14 1h1v1h-1zm1 0h1v1h-1zm4 1h1v1h-1zm8 0h1v1h-1zm-19 1h1v1h-1zm1 0h1v1h-1zm-4 5h1v1h-1zm16 1h1v1h-1zm3 0h1v1h-1z"/><path fill="#b88" d="M23 49h1v1h-1zm7 22h1v1h-1z"/><path fill="#eee" d="M3 1h1v1H3zm59 0h1v1h-1zM2 2h1v1H2zm61 0h1v1h-1zM1 3h1v1H1zm63 0h1v1h-1zM1 4h1v1H1zm63 0h1v1h-1zM1 5h1v1H1zm63 0h1v1h-1zM2 6h1v1H2zm61 0h1v1h-1zM2 7h1v1H2zm61 0h1v1h-1zM2 8h1v74H2zm61 0h1v74h-1zm-31 3h1v1h-1zm3 2h1v1h-1zm-5 1h1v1h-1zm10 3h1v1h-1zm1 0h1v1h-1zm1 0h1v1h-1zm3 0h1v1h-1zm-13 1h1v1h-1zm16 0h1v1h-1zm-22 1h1v1h-1zm-5 1h1v1h-1zm-7 2h1v1h-1zm11 0h1v1h-1zm21 0h1v1h-1zm-24 1h1v1h-1zm2 3h1v1h-1zm1 0h1v1h-1zm-3 4h1v1h-1zm15 1h1v1h-1zm7 0h1v1h-1zm-18 1h1v1h-1zm-1 1h1v1h-1zm21 1h1v1h-1zm-6 1h1v1h-1zm-26 2h1v1h-1zm30 2h1v1h-1zM21 49h1v1h-1zm3 0h1v1h-1zm9 21h1v1h-1zM2 82h1v1H2zm61 0h1v1h-1zM2 83h1v1H2zm61 0h1v1h-1zM3 84h1v1H3zm1 0h1v1H4zm57 0h1v1h-1zm1 0h1v1h-1zM9 85h48v1H9z"/><path fill="#776" d="M31 12h1v1h-1zm5 17h1v1h-1zm-21 8h1v1h-1z"/><path fill="#221" d="M38 31h1v1h-1z"/><path fill="#ede" d="M38 78h1v1h-1z"/><path fill="#fdd" d="M36 39h1v1h-1zm-2 2h1v1h-1zm-10 1h1v1h-1zm-5 4h1v1h-1zm4 0h1v1h-1zm21 0h1v1h-1zm-10 4h1v1h-1zm8 2h1v1h-1zm-15 7h1v1h-1zm14 4h1v1h-1zm-21 2h1v1h-1zm14 0h1v1h-1zm-6 1h1v1h-1zm-3 3h1v1h-1zm1 0h1v1h-1zm-2 1h1v1h-1z"/><path fill="#b02" d="M36 44h1v1h-1zm4 1h1v1h-1zm1 0h1v1h-1zm-16 2h1v1h-1zm8 4h1v1h-1zm1 0h1v1h-1zm-6 1h1v1h-1zm12 0h1v1h-1zm1 0h1v1h-1zm-2 1h1v1h-1zm-17 1h1v1h-1zm2 1h1v1h-1zm9 0h1v1h-1zm-9 1h1v1h-1zm5 0h1v1h-1zm1 0h1v1h-1zm1 0h1v1h-1zm1 0h1v1h-1zm6 0h1v1h-1zm-14 1h1v1h-1zm6 0h1v1h-1zm1 0h1v1h-1zm6 1h1v1h-1zm-12 1h1v1h-1zm6 0h1v1h-1zm1 0h1v1h-1zm1 0h1v1h-1zm1 0h1v1h-1zm1 0h1v1h-1zm-9 1h1v1h-1zm3 0h1v1h-1zm1 0h1v1h-1zm0 2h1v1h-1zm1 0h1v1h-1zm-2 3h1v1h-1zm1 0h1v1h-1zm0 1h1v1h-1zm17 0h1v1h-1zm-25 1h1v1h-1zm22 0h1v1h-1zm1 0h1v1h-1zm-25 1h1v1h-1zm14 0h1v1h-1zm11 0h1v1h-1zm-15 1h1v1h-1zm7 0h1v1h-1zm-16 1h1v1h-1zm23 0h1v1h-1zm-23 1h1v1h-1zm23 0h1v1h-1zm-23 1h1v1h-1zm1 1h1v1h-1zm21 0h1v1h-1zm-21 1h1v1h-1zm21 0h1v1h-1zm-6 2h1v1h-1zm5 0h1v1h-1z"/><path fill="#b13" d="M28 56h1v1h-1z"/><path fill="#998" d="M32 12h1v1h-1zm-12 9h1v1h-1zm7 0h1v1h-1zm0 6h1v1h-1z"/><path fill="#ecd" d="M25 67h1v1h-1z"/><path fill="#d56" d="M36 41h1v1h-1zm-5 4h1v1h-1zm1 0h1v1h-1zm-7 1h1v1h-1zm-3 1h1v1h-1zm10 1h1v1h-1zm-2 3h1v1h-1zm9 0h1v1h-1zm-15 2h1v1h-1zm3 3h1v1h-1zm9 0h1v1h-1zm-7 8h1v1h-1zm4 0h1v1h-1zm1 0h1v1h-1zm1 0h1v1h-1zm-1 2h1v1h-1zm0 1h1v1h-1zm1 0h1v1h-1zm6 8h1v1h-1zm-2 1h1v1h-1zm1 0h1v1h-1z"/><path fill="#e9a" d="M38 41h1v1h-1zm5 4h1v1h-1zm-19 1h1v1h-1zm8 0h1v1h-1zm1 3h1v1h-1zm6 0h1v1h-1zm-11 2h1v1h-1zm-5 1h1v1h-1zm1 0h1v1h-1zm13 0h1v1h-1zm-16 1h1v1h-1zm13 1h1v1h-1zm-9 1h1v1h-1zm1 3h1v1h-1zm19 6h1v1h-1z"/><path fill="#dab" d="M39 58h1v1h-1zm-1 2h1v1h-1zm-1 12h1v1h-1z"/><path fill="#c24" d="M35 43h1v1h-1zm-15 4h1v1h-1zm21 4h1v1h-1zM30 63h1v1h-1zm0 1h1v1h-1zm12 10h1v1h-1zm-4 2h1v1h-1z"/><path fill="#a45" d="M37 61h1v1h-1z"/><path fill="#b67" d="M41 46h1v1h-1zM27 62h1v1h-1z"/><path fill="#d89" d="M20 48h1v1h-1zm8 5h1v1h-1zm-3 18h1v1h-1z"/></svg>