<svg xmlns="http://www.w3.org/2000/svg" width="66" height="90" baseProfile="tiny" version="1.2"><path fill="#332" d="M32 22h1v1h-1zm-4 1h1v1h-1zm5 0h1v1h-1zm-3 8h1v1h-1z"/><path fill="#777" d="M27 15h1v1h-1zm20 5h1v1h-1zm-7 2h1v1h-1zm4 0h1v1h-1zm-26 4h1v1h-1zm6 0h1v1h-1zm4 4h1v1h-1zm3 1h1v1h-1zm2 2h1v1h-1zm2 3h1v1h-1zM0 84h1v1H0zm65 0h1v1h-1zM0 85h1v1H0zm65 0h1v1h-1zM0 86h1v1H0zm65 0h1v1h-1zM0 87h1v1H0zm65 0h1v1h-1z"/><path fill="#d45" d="M35 40h3v1h-3zm0 2h1v1h-1zm-9 3h1v1h-1zm1 0h1v1h-1zm-7 1h1v1h-1zm8 3h1v1h-1zm9 1h1v1h-1zm-6 1h1v1h-1zm-6 1h1v1h-1zm5 5h1v1h-1zm6 6h1v1h-1zm-2 2h1v1h-1zm-13 1h1v1h-1zm14 0h1v1h-1zm2 1h1v1h-1zm0 7h1v1h-1zm3 1h1v1h-1z"/><path fill="#c9a" d="M24 48h1v1h-1z"/><path fill="#211" d="M25 12h1v1h-1zm2 1h1v1h-1zm1 1h1v1h-1zm1 1h1v1h-1zm2 0h1v1h-1zm-2 1h1v3h-1zm1 0h1v1h-1zm-2 1h1v1h-1zm2 0h1v2h-1zm-1 2h1v1h-1zm1 0h1v1h-1zm9 2h1v1h-1zm9 0h1v1h-1zm-13 1h1v1h-1zm12 0h1v1h-1zm-18 1h1v1h-1zm-3 1h1v1h-1zm1 0h1v1h-1zm-2 1h1v1h-1zm-10 1h1v1h-1zm6 0h1v1h-1zm8 1h1v1h-1zm1 0h1v1h-1zm-1 1h2v1h-2zm0 1h1v1h-1zm0 1h1v1h-1zm0 2h1v1h-1zm1 0h1v1h-1zm4 2h1v1h-1z"/><path fill="#bba" d="M14 25h1v1h-1zm23 8h1v1h-1z"/><path fill="#d88" d="M34 39h1v1h-1zm7 4h1v1h-1zm-12 9h1v1h-1z"/><path fill="#c12" d="M36 43h1v1h-1zm6 1h1v1h-1zm-13 1h1v1h-1zm1 6h1v1h-1zm8 0h1v1h-1zm2 0h1v1h-1zm-16 2h1v1h-1zm14 0h1v1h-1zm-8 1h1v1h-1zm4 0h1v1h-1zm-3 3h1v1h-1zm-3 2h1v1h-1zm0 5h1v1h-1zm-9 2h1v1h-1zm12 0h1v1h-1zm13 1h1v1h-1zm0 2h1v1h-1zm-1 3h1v1h-1z"/><path fill="#c99" d="M40 45h1v1h-1zm-5 23h1v1h-1zm11 2h1v1h-1zm-18 1h1v1h-1z"/><path fill="#caa" d="M27 71h1v1h-1z"/><path fill="#b56" d="M45 72h1v1h-1zm-21 4h1v1h-1z"/><path fill="#c13" d="M30 45h1v1h-1zm9 6h1v1h-1zm-8 3h2v1h-2zm7 0h1v1h-1zm-6 9h1v1h-1zm8 0h1v1h-1zm-10 5h1v1h-1zm14 0h1v1h-1zm-1 1h1v1h-1zm0 1h1v1h-1zm0 1h1v1h-1z"/><path fill="#902" d="M45 71h1v1h-1z"/><path fill="#ccc" d="M1 0h1v1H1zm1 0h1v1H2zm61 0h1v1h-1zm1 0h1v1h-1zM1 2h1v1H1zm63 0h1v1h-1zM26 14h1v1h-1zm6 0h1v1h-1zm2 7h1v1h-1zm-9 2h1v1h-1zm-9 2h1v1h-1zm3 0h1v1h-1zm-4 2h1v1h-1zm18 5h1v1h-1zM1 84h1v1H1zm63 0h1v1h-1zM2 85h1v1H2zm61 0h1v1h-1zM4 86h1v1H4zm1 0h1v1H5zm1 0h1v1H6zm1 0h52v1H7zm52 0h1v1h-1zm1 0h1v1h-1zm1 0h1v1h-1z"/><path fill="#888" d="M0 5h1v1H0zm65 0h1v1h-1zM0 6h1v1H0zm65 0h1v1h-1zM0 7h1v1H0zm65 0h1v1h-1zM0 8h1v73H0zm65 0h1v73h-1zm-40 3h1v1h-1zm15 9h1v1h-1zm8 0h1v1h-1zm3 1h1v1h-1zm-10 1h1v1h-1zm-6 1h1v1h-1zM0 81h1v2H0zm65 0h1v2h-1zM0 83h1v1H0zm65 0h1v1h-1zM1 87h1v1H1zm63 0h1v1h-1zM2 88h1v1H2zm61 0h1v1h-1z"/><path fill="#444" d="M29 14h1v1h-1zm2 0h1v1h-1zm7 7h1v1h-1zm14 1h1v1h-1zm-8 14h1v1h-1z"/><path fill="#ebb" d="M27 43h1v1h-1zm17 3h1v1h-1zm-2 4h1v1h-1zm-19 1h1v1h-1zm12 2h1v1h-1zm-13 1h1v1h-1zm12 1h1v1h-1zm2 0h1v1h-1zm-13 1h1v1h-1zm12 1h1v1h-1zm-7 6h1v1h-1zm18 0h1v1h-1zm-12 1h1v1h-1zm-15 1h1v1h-1zm10 1h1v1h-1zm0 1h1v1h-1zm3 0h1v1h-1zm7 2h1v1h-1zm-3 4h1v1h-1zm9 0h1v1h-1z"/><path fill="#b45" d="M30 60h1v1h-1zm2 0h1v1h-1zm-8 6h1v1h-1zm-5 1h1v1h-1z"/><path fill="#aaa" d="M0 2h1v1H0zm65 0h1v1h-1zM29 12h1v1h-1zm2 1h1v1h-1zm11 6h1v1h-1zm1 0h1v1h-1zm1 0h1v1h-1zm1 0h1v1h-1zm1 0h1v1h-1zm4 4h1v1h-1zm-19 1h1v1h-1zm9 8h1v1h-1zm-5 1h1v1h-1zm1 0h1v1h-1zm-2 3h1v1h-1zM1 86h1v1H1zm63 0h1v1h-1zM2 87h1v1H2zm1 0h1v1H3zm1 0h1v1H4zm1 0h56v1H5zm56 0h1v1h-1zm1 0h1v1h-1zm1 0h1v1h-1zM4 88h1v1H4zm1 0h56v1H5zm56 0h1v1h-1z"/><path fill="#e99" d="M25 43h1v1h-1zm5 1h1v1h-1zm11 5h1v1h-1z"/><path fill="#c02" d="M33 50h1v1h-1zm2 0h1v1h-1zm-2 4h1v1h-1zm-8 1h1v1h-1zm7 2h1v1h-1zm5 0h1v1h-1zm-11 1h1v1h-1zm5 0h1v1h-1zm-2 1h1v1h-1zm12 4h1v1h-1zm-12 1h1v1h-1zm18 1h1v1h-1zm-17 1h1v1h-1zm15 0h1v1h-1zm-7 2h1v1h-1zm-16 2h1v1h-1zm0 1h1v1h-1zm1 1h1v1h-1zm19 3h1v1h-1z"/><path fill="#666" d="M24 12h1v1h-1zm13 9h1v1h-1zm8 1h1v1h-1zm-28 4h1v1h-1zm11 3h1v1h-1zm17 5h1v1h-1zM0 88h1v1H0zm1 0h1v1H1zm63 0h1v1h-1zm1 0h1v1h-1zM1 89h1v1H1zm1 0h1v1H2zm1 0h1v1H3zm1 0h58v1H4zm58 0h1v1h-1zm1 0h1v1h-1zm1 0h1v1h-1z"/><path fill="#544" d="M45 20h1v1h-1zm-17 1h1v1h-1zm0 1h1v1h-1zm-3 2h1v1h-1zm6 8h1v1h-1zm8 2h1v1h-1zm-3 2h1v1h-1z"/><path fill="#ebc" d="M33 38h1v1h-1zm3 0h1v1h-1zm2 4h1v1h-1zm-10 8h1v1h-1zm5 1h1v1h-1zm-4 14h1v1h-1zm-6 4h1v1h-1zm1 4h1v1h-1z"/><path fill="#dab" d="M29 60h1v1h-1zm-1 5h1v1h-1zm8 4h1v1h-1zm-15 4h1v1h-1zm1 2h1v1h-1z"/><path fill="#b67" d="M47 67h1v1h-1z"/><path fill="#d77" d="M25 42h1v1h-1zm15 1h1v1h-1zm3 1h1v1h-1zm2 20h1v1h-1zm-4 10h1v1h-1z"/><path fill="#ddd" d="M3 0h1v1H3zm1 0h1v1H4zm1 0h56v1H5zm56 0h1v1h-1zm1 0h1v1h-1zM2 1h1v1H2zm61 0h1v1h-1zM1 6h1v1H1zm63 0h1v1h-1zM1 7h1v1H1zm63 0h1v1h-1zM1 8h1v1H1zm63 0h1v1h-1zM1 9h1v73H1zm63 0h1v73h-1zm-34 3h1v1h-1zm-3 4h1v1h-1zm5 1h1v1h-1zm16 2h1v1h-1zm-10 1h1v1h-1zm12 0h1v1h-1zm-18 1h1v1h-1zm1 0h1v1h-1zm-6 1h1v1h-1zm-5 2h1v1h-1zm-5 1h1v1h-1zm1 0h1v1h-1zm3 3h1v1h-1zm10 0h1v1h-1zm-13 1h1v1h-1zm1 0h1v1h-1zm12 0h1v1h-1zm9 2h1v1h-1zm3 1h1v1h-1zm-12 3h1v1h-1zm9 2h1v1h-1zm1 0h1v1h-1zm1 0h1v1h-1zM1 82h1v1H1zm63 0h1v1h-1zM1 83h1v1H1zm63 0h1v1h-1zM2 84h1v1H2zm61 0h1v1h-1zM3 85h1v1H3zm1 0h1v1H4zm1 0h1v1H5zm1 0h1v1H6zm1 0h2v1H7zm50 0h2v1h-2zm2 0h1v1h-1zm1 0h1v1h-1zm1 0h1v1h-1zm1 0h1v1h-1z"/><path fill="#443" d="M43 20h1v1h-1zm-13 1h1v1h-1zm20 0h1v1h-1zm-4 1h1v1h-1zm-3 12h1v1h-1z"/><path fill="#c34" d="M35 39h1v1h-1zm2 2h1v1h-1zm-1 1h1v1h-1zm-1 1h1v1h-1zm-1 1h1v1h-1zm-13 2h1v1h-1zm3 0h1v1h-1zm14 4h1v1h-1zm3 0h1v1h-1zm-19 3h1v1h-1zm10 0h1v1h-1zm1 0h1v1h-1zm4 1h1v1h-1zm-9 1h1v1h-1zm8 2h1v1h-1zm-6 5h1v1h-1zm1 0h1v1h-1zm-1 1h1v1h-1zm3 0h1v1h-1zm4 0h1v1h-1zm-10 1h1v1h-1zm17 0h1v1h-1zm-20 1h1v1h-1zm21 0h1v1h-1zm-25 1h1v1h-1zm10 1h1v1h-1zm1 0h1v1h-1zm-4 2h1v1h-1zm-4 2h1v1h-1zm19 0h1v1h-1zm0 2h1v1h-1zm0 1h1v1h-1zm-3 1h1v1h-1zm2 0h1v1h-1z"/><path fill="#901" d="M36 44h1v1h-1zm3 0h1v1h-1zm-5 2h1v1h-1zm-12 1h1v1h-1zm1 0h1v1h-1zm5 0h1v1h-1zm12 6h1v1h-1zm0 1h1v1h-1zm-16 2h1v1h-1zm15 0h1v1h-1zm-14 2h1v1h-1zm8 10h1v1h-1zm13 0h1v1h-1zm-16 1h1v1h-1zm-3 1h1v1h-1zm17 3h1v1h-1zm-5 3h1v1h-1zm1 0h1v1h-1zm2 0h1v1h-1zm1 0h1v1h-1z"/><path fill="#d89" d="M33 45h1v1h-1zm11 0h1v1h-1zm-2 6h1v1h-1zm-9 13h1v1h-1zm-9 10h1v1h-1z"/><path fill="#ecc" d="M42 52h1v1h-1zm-1 2h1v1h-1zm-1 2h1v1h-1zm-16 2h1v1h-1zm15 0h1v1h-1zm-13 3h1v1h-1zm21 7h1v1h-1zm-18 3h1v1h-1z"/><path fill="#a44" d="M35 59h1v1h-1z"/><path fill="#eee" d="M3 1h1v1H3zm59 0h1v1h-1zM2 2h1v1H2zm61 0h1v1h-1zM1 3h1v1H1zm63 0h1v1h-1zM1 4h1v1H1zm63 0h1v1h-1zM1 5h1v1H1zm63 0h1v1h-1zM2 6h1v1H2zm61 0h1v1h-1zM2 7h1v1H2zm61 0h1v1h-1zM2 8h1v74H2zm61 0h1v74h-1zm-40 4h1v1h-1zm20 6h1v1h-1zm1 0h1v1h-1zm1 0h1v1h-1zm-8 5h1v1h-1zm-6 2h1v1h-1zm-6 1h1v1h-1zm6 0h1v2h-1zm-8 1h1v1h-1zm-7 1h1v1h-1zm12 4h1v1h-1zm6 0h1v1h-1zm5 0h1v1h-1zm-6 4h1v1h-1zm6 1h1v1h-1zM2 82h1v1H2zm61 0h1v1h-1zM2 83h1v1H2zm61 0h1v1h-1zM3 84h1v1H3zm1 0h1v1H4zm57 0h1v1h-1zm1 0h1v1h-1zM9 85h48v1H9z"/><path fill="#812" d="M25 47h1v1h-1zm12 13h1v1h-1zm3 17h1v1h-1z"/><path fill="#b44" d="M21 71h1v1h-1z"/><path fill="#a56" d="M41 78h1v1h-1z"/><path fill="#988" d="M32 15h1v1h-1zm4 6h1v1h-1zm7 1h1v1h-1zm-17 1h1v1h-1zm6 9h1v1h-1zm11 1h1v1h-1z"/><path fill="#dcc" d="M41 19h1v1h-1zm-4 26h1v1h-1zm-15 3h1v1h-1zm21 30h1v1h-1z"/><path fill="#baa" d="M31 21h1v1h-1zm4 0h1v1h-1zm-12 3h1v1h-1zm18 8h1v1h-1zm-3 1h1v1h-1z"/><path fill="#c24" d="M36 41h1v1h-1zm-8 4h1v1h-1zm4 5h1v1h-1zm14 15h1v1h-1z"/><path fill="#dbb" d="M38 45h1v1h-1zm-7 25h1v1h-1zm8 7h1v1h-1z"/><path fill="#433" d="M26 12h1v1h-1zm18 8h1v1h-1zm-15 1h1v1h-1zm0 1h1v1h-1zm-13 4h1v1h-1zm14 4h1v1h-1zm5 4h1v1h-1zm5 0h1v1h-1zm2 0h1v1h-1zm2 0h1v1h-1z"/><path fill="#111" d="M27 14h1v1h-1zm1 1h1v2h-1zm3 1h1v1h-1zm0 1h1v1h-1zm9 4h1v1h-1zm1 0h1v1h-1zm5 0h1v1h-1zm1 0h1v1h-1zm-11 1h1v1h-1zm1 0h1v1h-1zm13 0h1v1h-1zm1 0h1v1h-1zm-21 1h1v1h-1zm1 0h1v1h-1zm-3 1h1v1h-1zm1 0h1v1h-1zm1 0h1v1h-1zm-6 1h1v1h-1zm5 0h1v1h-1zm1 0h1v1h-1zm-8 1h1v1h-1zm1 0h1v1h-1zm6 0h1v1h-1zm1 0h1v1h-1zm-13 1h1v1h-1zm1 0h1v1h-1zm1 0h1v1h-1zm2 0h1v1h-1zm8 4h1v1h-1zm2 2h1v1h-1zm0 1h1v1h-1zm2 0h1v1h-1zm0 1h1v1h-1zm4 0h2v1h-2zm2 0h1v1h-1zm4 0h1v1h-1zm1 0h1v1h-1zm-6 1h1v1h-1zm5 0h1v1h-1z"/><path fill="#100" d="M48 22h1v1h-1zm-30 6h2v1h-2zm16 7h1v1h-1zm5 1h4v1h-4z"/><path fill="#934" d="M36 45h1v1h-1zm-1 1h1v1h-1zm-3 23h1v1h-1z"/><path fill="#944" d="M26 47h1v1h-1zm4 23h1v1h-1z"/><path fill="#fef" d="M38 48h1v1h-1zm-14 2h1v1h-1zm2 4h1v1h-1zm19 8h1v1h-1z"/><path fill="#766" d="M41 20h1v1h-1zm-15 5h1v1h-1zm-4 2h1v1h-1z"/><path fill="#fdd" d="M37 38h1v1h-1zm-13 3h1v1h-1zm2 1h1v1h-1zm-7 4h1v1h-1zm20 1h1v1h-1zm-4 2h1v1h-1zm-1 2h1v1h-1zm-1 1h1v1h-1zm-5 2h1v1h-1zm0 4h1v1h-1zm13 4h1v1h-1zm1 2h1v1h-1zm-24 2h1v1h-1zm7 2h1v1h-1zm14 0h1v1h-1zm2 4h1v1h-1zm-6 1h1v1h-1zm4 1h1v1h-1z"/><path fill="#fee" d="M25 41h1v1h-1zm-1 1h1v1h-1zm9 1h1v1h-1zm-14 2h1v1h-1zm1 0h1v1h-1zm3 0h1v1h-1zm8 3h1v1h-1zm2 1h1v1h-1zm-6 1h1v1h-1zm0 7h1v1h-1zm-2 3h1v1h-1zm3 1h1v1h-1zm10 1h1v1h-1zm1 0h1v1h-1zm5 0h1v1h-1zm-17 1h1v1h-1zm-6 1h1v1h-1zm2 0h1v1h-1zm25 0h1v1h-1zm-15 1h1v1h-1zm-10 2h1v1h-1zm-4 1h1v1h-1zm27 3h1v1h-1zm-6 3h1v1h-1zm0 4h1v1h-1z"/><path fill="#b77" d="M41 45h1v1h-1z"/><path fill="#a34" d="M42 45h1v1h-1zm-1 8h1v1h-1zm-18 2h1v1h-1zm3 15h1v1h-1zm12 1h1v1h-1z"/><path fill="#923" d="M26 60h1v1h-1zm8 8h1v1h-1z"/><path fill="#222" d="M30 15h1v1h-1zm-2 3h1v1h-1z"/><path fill="#c77" d="M21 47h1v1h-1zm7 13h1v1h-1zm-8 9h1v1h-1z"/><path fill="#a12" d="M32 59h1v1h-1zm-6 6h1v1h-1zm21 1h1v1h-1zm-25 2h1v1h-1z"/><path fill="#c89" d="M38 76h1v1h-1z"/><path fill="#554" d="M39 22h1v1h-1zm-19 4h1v1h-1zm16 8h1v1h-1z"/><path fill="#d9a" d="M29 46h1v1h-1zm0 1h1v1h-1z"/><path fill="#655" d="M31 19h1v1h-1zm15 1h1v1h-1zm-12 3h1v1h-1zm-6 3h1v1h-1zm0 1h1v1h-1zm-11 1h1v1h-1zm11 0h1v1h-1zm9 6h1v1h-1zm1 0h1v1h-1zm-6 1h1v1h-1z"/><path fill="#fde" d="M25 44h1v1h-1zm5 5h1v1h-1zm4 0h1v1h-1zm6 13h1v1h-1zm2 0h1v1h-1zm1 0h1v1h-1zm-11 3h1v1h-1zm-12 5h1v1h-1zm24 6h1v1h-1z"/><path fill="#801" d="M37 44h1v1h-1zm1 0h1v1h-1zm-3 1h1v1h-1zm-11 2h1v1h-1zm3 0h1v1h-1zm11 11h1v1h-1zm-11 2h1v1h-1zm4 9h1v1h-1zm6 0h1v1h-1zm-9 1h1v1h-1zm10 0h1v1h-1zm-15 5h1v1h-1z"/><path fill="#a45" d="M27 48h1v1h-1zm13 7h1v1h-1zm-16 2h1v1h-1zm15 0h1v1h-1zm-1 2h1v1h-1zm5 18h1v1h-1z"/><path fill="#877" d="M27 12h1v1h-1zm2 1h1v1h-1zm1 0h1v1h-1zm-6 11h1v1h-1z"/><path fill="#c78" d="M28 52h1v1h-1zm5 7h1v1h-1zm1 0h1v1h-1zM21 72h1v1h-1z"/><path fill="#c35" d="M30 61h1v1h-1z"/><path fill="#ecd" d="M39 70h1v1h-1z"/><path fill="#322" d="M31 18h1v1h-1zm-1 2h1v1h-1zm19 1h1v1h-1zm-19 1h1v1h-1zm1 0h1v1h-1zm7 0h1v1h-1zm-22 5h1v1h-1zm14 2h1v1h-1zm7 7h1v1h-1z"/><path fill="#b02" d="M37 43h1v1h-1zm-2 1h1v1h-1zm6 0h1v1h-1zm-16 2h1v1h-1zm8 1h1v1h-1zm1 3h1v1h-1zm-6 1h1v1h-1zm1 0h1v1h-1zm12 0h1v1h-1zm-3 1h2v1h-2zm-15 1h1v1h-1zm16 0h1v1h-1zm-15 1h1v1h-1zm6 1h1v1h-1zm1 0h1v1h-1zm1 0h1v1h-1zm6 0h1v1h-1zm-13 1h1v1h-1zm6 0h1v1h-1zm1 0h1v1h-1zm6 0h1v1h-1zm-13 1h1v1h-1zm7 1h1v1h-1zm1 0h1v1h-1zm1 0h1v1h-1zm1 0h1v1h-1zm1 0h1v1h-1zm-9 1h1v1h-1zm3 0h1v1h-1zm1 2h1v1h-1zm-1 3h1v1h-1zm1 0h1v1h-1zm-6 1h1v1h-1zm6 0h1v1h-1zm13 0h1v2h-1zm-21 1h1v1h-1zm23 0h1v1h-1zm-25 1h1v1h-1zm14 0h1v1h-1zm10 0h1v1h-1zm-14 1h1v1h-1zm6 0h1v1h-1zm8 0h1v1h-1zm-23 1h1v1h-1zm7 0h1v1h-1zm15 1h1v1h-1zm0 1h1v1h-1zm-22 1h1v1h-1zm1 1h1v1h-1zm20 0h1v1h-1zm0 1h1v1h-1zm-5 1h1v1h-1z"/><path fill="#cbb" d="M27 25h1v1h-1zm18 11h1v1h-1z"/><path fill="#e9a" d="M35 38h1v1h-1zm4 10h1v1h-1zm-1 1h1v1h-1zm-14 2h1v1h-1zm1 0h1v1h-1zm1 4h1v1h-1zm7 1h1v1h-1zm12 7h1v1h-1zm-20 1h1v1h-1zm18 0h1v1h-1zm-22 1h1v1h-1zm4 4h1v1h-1zm13 5h1v1h-1z"/><path fill="#d66" d="M37 39h1v1h-1zm-5 5h1v1h-1zm1 23h1v1h-1z"/><path fill="#d78" d="M38 41h1v1h-1zm-12 3h1v1h-1zm5 0h1v1h-1zm-6 1h1v1h-1zm7 0h1v1h-1zm0 4h1v1h-1zm-3 1h1v1h-1zm1 3h1v1h-1zm4 0h1v1h-1zm-5 1h1v1h-1zm0 9h1v1h-1zm6 2h1v1h-1zm-6 3h1v1h-1zm-6 2h1v1h-1zm19 0h1v1h-1z"/><path fill="#daa" d="M39 45h1v1h-1zM25 66h1v1h-1zm8 3h1v1h-1zm-10 7h1v1h-1z"/><path fill="#fcd" d="M36 49h1v1h-1z"/><path fill="#221" d="M26 13h1v1h-1zm3 7h1v1h-1zm5 2h1v1h-1zm11 13h1v1h-1z"/><path fill="#edd" d="M48 23h1v1h-1zm-5 23h1v1h-1zm-5 14h1v1h-1z"/><path fill="#776" d="M22 25h1v1h-1zm-3 1h1v1h-1z"/><path fill="#eaa" d="M38 39h1v1h-1zm4 4h1v1h-1zm-13 1h1v1h-1zm3 7h1v1h-1zm-3 7h1v1h-1zm3 4h1v1h-1zm16 3h1v1h-1zm-7 8h1v1h-1z"/><path fill="#c67" d="M33 46h1v1h-1zm-9 29h1v1h-1zm13 0h1v1h-1z"/><path fill="#a67" d="M23 48h1v1h-1z"/><g fill="#fff"><path d="M4 1h1v1H4zm1 0h1v1H5zm1 0h54v1H6zm54 0h1v1h-1zm1 0h1v1h-1zM3 2h1v1H3zm1 0h1v1H4zm1 0h56v1H5zm56 0h1v1h-1zm1 0h1v1h-1zM2 3h1v1H2zm1 0h1v1H3zm1 0h2v1H4zm2 0h54v1H6zm54 0h2v1h-2zm2 0h1v1h-1zm1 0h1v1h-1zM2 4h1v2H2zm1 0h1v3H3zm1 0h1v1H4zm1 0h56v7H5zm56 0h1v1h-1zm1 0h1v3h-1zm1 0h1v2h-1z"/><path d="M4 5h58v2H4zM3 7h1v1H3zm1 0h1v1H4zm57 0h1v1h-1zm1 0h1v1h-1zM3 8h1v73H3zm1 0h1v73H4zm57 0h1v74h-1zm1 0h1v73h-1zM5 11h18v13H5zm18 0h1v1h-1zm6 0h1v1h-1zm1 0h31v1H30zm1 1h30v1H31zm-8 1h2v10h-2zm9 0h29v1H32zm-7 1h1v9h-1zm8 0h28v4H33zm-7 1h1v8h-1zm1 2h1v1h-1zm0 1h1v4h-1zm5 0h1v1h-1zm1 0h9v1h-9zm9 0h1v1h-1zm4 0h1v1h-1zm1 0h14v1H47zm-15 1h8v1h-8zm8 0h1v1h-1zm9 0h1v1h-1zm1 0h11v1H50zm-18 1h5v1h-5zm5 0h1v1h-1zm14 0h10v1H51zm1 1h1v1h-1zm1 0h8v61h-8zm-30 2h1v1h-1zm1 0h1v1h-1zm14 0h9v8h-9zm9 0h1v1h-1zm5 0h1v1h-1zM5 24h16v1H5zm16 0h1v1h-1zm11 0h1v1h-1z"/><path d="M33 24h28v7H33zM5 25h9v57H5z"/><path d="M32 25h29v6H32zm-6 1h2v16h-2zm-12 1h1v57h-1z"/><path d="M24 27h4v14h-4zm-9 1h1v56h-1z"/><path d="M22 28h6v13h-6zm-6 1h2v55h-2z"/><path d="M20 29h8v12h-8z"/><path d="M18 30h10v11H18zm14 1h1v1h-1zm1 0h7v1h-7zm8 0h1v1h-1zm1 0h19v1H42zm-7 1h1v1h-1zm1 0h1v1h-1zm1 0h2v1h-2zm7 0h17v1H44zm-16 1h1v10h-1zm17 0h1v1h-1zm1 0h15v30H46zm-17 1h1v10h-1zm1 1h1v9h-1zm1 1h2v7h-2zm2 1h5v1h-5zm5 0h1v1h-1zm5 0h1v1h-1z"/><path d="M44 37h17v7H44z"/><path d="M38 38h23v1H38zm-5 1h1v4h-1zm6 0h22v3H39zm-5 1h1v3h-1zm-16 1h6v4h-6z"/><path d="M27 42h8v1h-8zm12 0h1v1h-1zm1 0h1v1h-1zm1 0h1v1h-1zm1 0h19v1H42zm-18 1h1v2h-1zm4 0h1v1h-1zm3 0h1v1h-1zm1 0h1v1h-1zm11 0h1v1h-1zm1 1h1v1h-1zm1 0h16v18H45zm-27 1h1v20h-1zm3 0h1v1h-1zm1 0h1v1h-1zm8 1h3v1h-3zm6 0h1v1h-1zm1 0h6v1h-6zm-18 1h1v18h-1zm1 0h1v1h-1zm10 0h2v1h-2zm5 0h1v1h-1zm1 0h3v1h-3zm4 0h1v1h-1z"/><path d="M41 47h20v1H41zm-21 1h2v16h-2zm5 0h1v1h-1zm1 0h1v1h-1zm4 0h1v1h-1zm4 0h1v1h-1zm1 0h3v1h-3zm6 0h1v1h-1zm1 0h19v1H42zm-20 1h5v1h-5zm5 0h1v1h-1zm15 0h1v1h-1zm1 0h18v13H43zm-21 1h2v1h-2zm3 0h2v1h-2zm-3 1h1v1h-1zm13 0h1v1h-1zm1 0h1v3h-1zm1 0h1v1h-1z"/><path d="M34 52h3v1h-3zm-8 1h4v1h-4zm16 0h19v9H42zm-15 1h1v1h-1zm9 0h1v1h-1zm-14 1h1v1h-1zm13 0h1v1h-1z"/><path d="M41 55h20v7H41zm-19 1h1v8h-1zm5 0h2v1h-2zm2 0h1v1h-1zm5 0h2v1h-2zm-11 1h1v7h-1zm5 0h2v1h-2z"/><path d="M40 57h21v5H40zm-16 2h1v5h-1z"/><path d="M39 59h22v3H39zm-6 1h2v3h-2zm2 0h1v1h-1zm-10 1h1v3h-1zm4 0h1v1h-1zm6 0h2v1h-2zm2 0h1v1h-1z"/><path d="M38 61h23v1H38zm-12 1h3v1h-3zm3 0h1v1h-1zm6 0h1v1h-1zm1 0h1v1h-1zm1 0h1v1h-1zm-11 1h1v1h-1zm21 0h1v1h-1zm1 0h13v1H48zm-28 1h1v1h-1zm2 0h1v1h-1zm13 0h1v1h-1zm1 0h5v1h-5zm5 0h1v1h-1zm8 0h12v18H49zm-31 1h1v1h-1zm19 0h1v1h-1zm1 0h5v1h-5zm5 0h1v1h-1zm-17 1h1v1h-1zm1 0h2v2h-2zm5 0h1v1h-1zm1 0h1v1h-1zm5 0h1v1h-1zm1 0h4v2h-4zm9 0h1v1h-1zm-30 1h1v17h-1z"/><path d="M24 67h5v1h-5zm24 0h13v15H48zm-25 1h1v1h-1zm1 0h1v4h-1zm16 0h2v3h-2zm2 0h1v1h-1zm-23 1h1v15h-1zm15 0h1v1h-1zm1 0h1v4h-1z"/><path d="M47 69h14v13H47zm-22 1h1v1h-1zm7 0h1v1h-1zm1 0h4v3h-4zm-13 1h1v13h-1zm5 0h1v13h-1zm1 0h1v1h-1z"/><path d="M30 71h7v2h-7zm7 0h1v1h-1zm2 0h1v1h-1zm1 0h1v3h-1zm1 0h1v1h-1zm-17 1h1v1h-1z"/><path d="M26 72h12v1H26zm12 0h1v1h-1zm1 0h2v2h-2zm7 0h15v10H46zm-20 1h9v11h-9zm11 0h1v1h-1z"/><path d="M38 73h3v1h-3zm-17 1h1v1h-1zm14 0h1v1h-1zm10 0h1v1h-1zm-24 1h1v9h-1zm14 0h1v9h-1zm1 0h1v1h-1zm9 0h16v7H45zm-23 1h1v8h-1zm14 0h2v8h-2zm-13 1h1v7h-1zm1 0h1v1h-1zm14 0h1v7h-1z"/><path d="M44 77h17v5H44zm-20 1h16v6H24z"/><path d="M40 79h21v3H40zM3 81h1v1H3zm1 0h1v2H4zm58 0h1v1h-1zM3 82h1v1H3zm2 0h1v1H5zm1 0h54v1H6zm54 0h1v1h-1zm1 0h1v1h-1zm1 0h1v1h-1zM3 83h1v1H3zm1 0h1v1H4zm1 0h1v1H5zm1 0h1v1H6zm1 0h52v1H7zm52 0h1v1h-1zm1 0h1v1h-1zm1 0h1v1h-1zm1 0h1v1h-1zM5 84h1v1H5zm1 0h1v1H6zm1 0h1v1H7zm1 0h50v1H8zm50 0h1v1h-1zm1 0h1v1h-1zm1 0h1v1h-1z"/></g><path fill="#c56" d="M27 52h1v1h-1zm0 13h1v1h-1z"/><path fill="#b12" d="M30 52h1v1h-1zm-5 2h1v1h-1zm4 1h1v1h-1zm5 12h1v1h-1z"/><path fill="#b66" d="M25 59h1v1h-1z"/><path fill="#701" d="M36 59h1v1h-1zm1 0h1v1h-1zm-8 11h1v1h-1zm12 7h2v1h-2zm1 1h1v1h-1z"/><path fill="#c45" d="M31 45h1v1h-1zm-1 11h1v1h-1zm2 8h1v1h-1z"/><path fill="#a66" d="M36 60h1v1h-1zm1 10h1v1h-1z"/><path fill="#a23" d="M27 61h1v1h-1zm19 8h1v1h-1zm-2 5h1v1h-1z"/><path fill="#912" d="M20 68h1v1h-1zm16 0h1v1h-1zm-14 6h1v1h-1z"/><path fill="#333" d="M28 19h1v1h-1zm0 1h1v1h-1zm5 2h1v1h-1zm-10 3h1v1h-1zm9 8h1v1h-1zm9 1h1v1h-1z"/><path fill="#a01" d="M40 44h1v1h-1zm-6 1h1v1h-1zm9 0h1v1h-1zm-17 1h1v1h-1zm1 0h1v1h-1zm1 0h1v1h-1zm0 2h1v1h-1zm12 4h1v1h-1zm1 0h1v1h-1zm-18 2h1v1h-1zm16 0h1v1h-1zm-15 1h1v1h-1zm15 0h1v1h-1zm-1 2h1v1h-1zm-1 1h1v1h-1zm-11 1h1v1h-1zm5 0h1v1h-1zm0 1h1v1h-1zm-1 5h1v1h-1zm-10 2h1v1h-1zm26 0h1v1h-1zm-25 1h1v1h-1zm11 0h1v1h-1zm-11 1h1v1h-1zm17 0h1v1h-1zm7 0h1v1h-1zm-24 1h1v1h-1zm24 0h1v1h-1zm-1 2h1v1h-1zm-22 1h1v1h-1zm1 1h1v1h-1zm20 1h1v1h-1zm-2 1h1v1h-1z"/><path fill="#fcc" d="M24 45h1v1h-1zm8 2h1v1h-1zm5 2h1v1h-1zm-3 8h1v1h-1zm-10 7h1v1h-1zm12 1h1v1h-1zm-10 3h1v1h-1zm1 0h1v1h-1zm1 0h1v1h-1zm14 1h1v1h-1z"/><path fill="#bbb" d="M0 1h1v1H0zm1 0h1v1H1zm63 0h1v1h-1zm1 0h1v1h-1zM24 11h1v1h-1zm3 0h1v1h-1zm-2 2h1v1h-1zm22 6h1v1h-1zm-8 1h1v1h-1zm-3 3h1v1h-1zm13 0h1v1h-1zm2 0h1v1h-1zm-36 2h1v1h-1zm5 0h1v1h-1zm11 5h1v1h-1zm11 2h1v1h-1zM1 85h1v1H1zm63 0h1v1h-1zM2 86h1v1H2zm1 0h1v1H3zm59 0h1v1h-1zm1 0h1v1h-1z"/><path fill="#eab" d="M34 43h1v1h-1zm6 5h1v1h-1zm-11 1h1v1h-1zm8 3h1v1h-1zm-10 3h1v1h-1zm7 11h1v1h-1zm9 0h1v1h-1z"/><path fill="#eed" d="M28 11h1v1h-1z"/><path fill="#998" d="M31 20h1v1h-1z"/><path fill="#b34" d="M34 47h1v1h-1z"/><path fill="#b23" d="M33 55h1v1h-1zM22 67h1v1h-1z"/><path fill="#110" d="M42 21h1v1h-1zm1 0h2v1h-2zm2 0h1v1h-1zm4 1h1v1h-1zm-17 1h1v1h-1zm-12 4h1v1h-1zm10 6h1v1h-1zm2 1h1v1h-1zm3 1h1v1h-1zm1 0h1v1h-1zm4 0h1v1h-1zm1 0h1v1h-1zm1 0h1v1h-1z"/><path fill="#d67" d="M36 39h1v1h-1zm-1 2h1v1h-1zm4 2h1v1h-1zm-7 5h1v1h-1zm-6 3h1v1h-1zm-4 1h1v1h-1zm2 0h1v1h-1zm13 1h1v1h-1zm-1 3h1v1h-1zm-4 5h1v1h-1zm14 3h1v1h-1zm1 0h1v1h-1zm-24 1h1v1h-1zm13 1h1v1h-1zm7 1h1v1h-1z"/><path fill="#c23" d="M37 42h1v1h-1zm-1 8h1v1h-1zm-9 1h1v1h-1zm-1 1h1v1h-1zm5 0h1v1h-1zm0 1h1v1h-1zm6 2h1v1h-1zm0 1h1v1h-1zm-11 1h1v1h-1zm4 1h1v1h-1zm1 5h1v1h-1zm7 0h1v1h-1zm1 0h1v1h-1zm3 0h1v1h-1zm-20 3h1v1h-1zm14 1h1v1h-1zm7 1h1v1h-1zm-17 1h1v1h-1zm2 0h1v1h-1zm14 3h1v1h-1z"/><path fill="#e89" d="M26 43h1v1h-1zm1 1h1v1h-1zm1 0h1v1h-1zm1 4h1v1h-1zm10 1h1v1h-1zm1 0h1v1h-1zm-7 8h1v1h-1zm-6 1h1v1h-1zm17 5h1v1h-1zm-24 2h1v1h-1zm2 0h1v1h-1zm15 1h1v1h-1z"/><path fill="#e88" d="M31 49h1v1h-1zm7 18h1v1h-1z"/><path fill="#999" d="M0 3h1v1H0zm65 0h1v1h-1zM0 4h1v1H0zm65 0h1v1h-1zm-39 7h1v1h-1zm2 1h1v1h-1zm21 8h1v1h-1zm-7 2h1v1h-1zm-21 3h1v1h-1zm-7 1h1v1h-1zm15 7h1v1h-1zm5 0h1v1h-1zm6 0h1v1h-1zm1 0h1v1h-1zm1 0h1v1h-1zm-12 1h1v1h-1zM3 88h1v1H3zm59 0h1v1h-1z"/><path fill="#555" d="M28 13h1v1h-1zm2 1h1v1h-1zm12 6h1v1h-1zm-15 3h1v1h-1zm1 2h1v1h-1zm-8 3h1v1h-1z"/><path fill="#a99" d="M32 16h1v1h-1zm-4 15h1v1h-1zm11 2h1v1h-1zm5 0h1v1h-1z"/><path fill="#d56" d="M34 38h1v1h-1zm4 2h1v1h-1zm0 3h1v1h-1zm-5 1h1v1h-1zm-11 2h1v1h-1zm1 0h1v1h-1zm10 2h1v1h-1zm-3 2h1v1h-1zm1 0h1v1h-1zm8 0h1v1h-1zm1 0h1v1h-1zm-17 2h1v1h-1zm9 0h1v1h-1zm-7 1h1v1h-1zm10 1h1v1h-1zm-9 2h1v1h-1zm8 7h1v1h-1zm1 0h1v1h-1zm8 0h1v1h-1zm-17 1h1v1h-1zm10 10h1v1h-1z"/><path fill="#c88" d="M44 75h1v1h-1z"/></svg>