<svg xmlns="http://www.w3.org/2000/svg" baseProfile="tiny" version="1.2" viewBox="0 0 66 90"><path fill="#ccc" d="M1 0h1v1H1zm1 0h1v1H2zm61 0h1v1h-1zm1 0h1v1h-1zM1 2h1v1H1zm63 0h1v1h-1zM31 13h1v1h-1zm-1 4h1v1h-1zm5 2h1v1h-1zm-3 1h1v1h-1zm-10 3h1v1h-1zm18 2h1v1h-1zm-15 1h1v1h-1zm20 3h1v1h-1zM1 84h1v1H1zm63 0h1v1h-1zM2 85h1v1H2zm61 0h1v1h-1zM4 86h1v1H4zm1 0h1v1H5zm1 0h1v1H6zm1 0h52v1H7zm52 0h1v1h-1zm1 0h1v1h-1zm1 0h1v1h-1z"/><path fill="#211" d="M28 13h1v1h-1zm3 3h1v1h-1zm1 1h1v1h-1zm1 2h1v1h-1zm2 3h1v1h-1zm-10 1h1v1h-1zm-1 1h1v1h-1zm-1 1h1v1h-1zm14 0h1v1h-1zm1 1h1v1h-1zm1 1h1v1h-1zm-20 2h1v1h-1zm24 2h1v1h-1zm4 1h1v1h-1z"/><path fill="#988" d="M34 18h1v1h-1zm10 11h1v1h-1zm1 1h1v1h-1z"/><path fill="#aa9" d="M26 21h1v1h-1zm11 1h1v1h-1z"/><path fill="#332" d="M24 23h1v1h-1z"/><path fill="#221" d="M36 23h1v1h-1zm-21 8h1v1h-1zm29 0h1v1h-1z"/><path fill="#b02" d="M35 42h1v1h-1zm3 1h1v1h-1zm-14 2h1v1h-1zm8 4h1v1h-1zm-5 1h1v1h-1zm12 0h1v1h-1zm-3 1h1v1h-1zm1 0h1v1h-1zm1 0h1v1h-1zm-1 1h1v1h-1zm-15 1h1v1h-1zm1 0h1v1h-1zm14 0h1v1h-1zm-10 1h1v1h-1zm1 0h1v1h-1zm1 0h1v1h-1zm1 0h1v1h-1zm-1 1h1v1h-1zm1 0h1v1h-1zm6 0h1v1h-1zm-13 1h1v1h-1zm7 1h1v1h-1zm1 0h1v1h-1zm1 0h1v1h-1zm2 0h1v1h-1zm-9 1h1v1h-1zm3 0h1v1h-1zm1 0h1v1h-1zm0 2h1v1h-1zm-2 3h1v1h-1zm1 0h1v1h-1zm1 0h1v1h-1zm-6 1h1v1h-1zm6 0h1v1h-1zm-8 1h1v1h-1zm7 0h1v1h-1zm14 0h1v1h-1zm2 0h1v1h-1zm-25 1h1v1h-1zm14 0h1v1h-1zm-4 1h1v1h-1zm14 0h1v1h-1zm-23 1h1v1h-1zm7 0h1v1h-1zm16 0h1v1h-1zm-23 2h1v1h-1zm22 0h1v1h-1zm-22 1h1v1h-1zm1 1h1v1h-1zm20 1h1v1h-1z"/><path fill="#823" d="M33 45h1v1h-1zm-3 23h1v1h-1z"/><path fill="#811" d="M23 46h1v1h-1z"/><path fill="#b13" d="M28 51h1v1h-1z"/><path fill="#caa" d="M29 69h1v1h-1z"/><path fill="#887" d="M47 31h1v1h-1z"/><path fill="#c24" d="M34 41h1v1h-1zm6 2h1v1h-1zm-15 7h1v1h-1zm1 4h1v1h-1zm5 8h1v1h-1zm12 2h1v1h-1z"/><path fill="#b56" d="M26 59h1v1h-1zm-4 15h1v1h-1zm14 1h1v1h-1z"/><path fill="#110" d="M23 27h1v1h-1zm-1 1h1v1h-1zm17 1h1v1h-1zm-20 1h1v1h-1zm-2 1h1v1h-1zm23 0h1v1h-1zm1 0h1v1h-1zm2 1h1v1h-1zm1 0h1v1h-1zm4 1h1v1h-1zm1 0h1v1h-1z"/><path fill="#ebb" d="M25 42h1v1h-1zm15 0h1v1h-1zm-13 1h1v1h-1zm4 7h1v1h-1zm2 2h1v1h-1zm-6 5h1v1h-1zm5 6h1v1h-1zm-15 1h1v1h-1zm10 0h1v1h-1zm10 4h1v1h-1zm0 1h1v1h-1zm-18 3h1v1h-1zm3 0h1v1h-1z"/><path fill="#a45" d="M38 44h1v1h-1zm-13 3h1v1h-1z"/><path fill="#711" d="M38 76h1v1h-1z"/><path fill="#d88" d="M31 55h1v1h-1zm-1 6h1v1h-1zm1 2h1v1h-1z"/><g fill="#fff"><path d="M4 1h1v1H4zm1 0h1v1H5zm1 0h54v1H6zm54 0h1v1h-1zm1 0h1v1h-1zM3 2h1v1H3zm1 0h1v1H4zm1 0h56v1H5zm56 0h1v1h-1zm1 0h1v1h-1zM2 3h1v1H2zm1 0h1v1H3zm1 0h2v1H4zm2 0h54v1H6zm54 0h2v1h-2zm2 0h1v1h-1zm1 0h1v1h-1zM2 4h1v2H2zm1 0h1v3H3zm1 0h1v1H4zm1 0h56v8H5zm56 0h1v1h-1zm1 0h1v3h-1zm1 0h1v2h-1z"/><path d="M4 5h58v2H4zM3 7h1v1H3zm1 0h1v1H4zm57 0h1v1h-1zm1 0h1v1h-1zM3 8h1v73H3zm1 0h1v73H4zm57 0h1v74h-1zm1 0h1v73h-1zM5 12h20v8H5zm26 0h30v1H31zm-6 1h1v7h-1zm1 0h1v1h-1zm6 0h29v1H32zm-6 1h2v7h-2zm7 0h28v1H33zm-5 1h1v28h-1zm5 0h1v1h-1zm1 0h27v2H34zm-5 1h1v1h-1zm0 1h1v26h-1zm5 0h1v1h-1zm1 0h26v2H35zm-5 1h1v24h-1zm1 1h1v1h-1zm5 0h25v1H36zM5 20h17v4H5zm20 0h1v1h-1zm6 0h1v17h-1zm6 0h24v1H37zm-5 1h1v16h-1zm5 0h1v1h-1zm1 0h23v1H38zm-16 1h1v1h-1zm11 0h1v1h-1zm5 0h1v1h-1zm1 0h22v2H39zm-6 1h1v14h-1zM5 24h16v1H5zm16 0h1v1h-1zm6 0h1v1h-1zm7 0h1v13h-1zm6 0h21v1H40zM5 25h15v2H5zm15 0h1v1h-1z"/><path d="M27 25h8v12h-8zm8 0h1v1h-1zm6 0h20v1H41z"/><path d="M26 26h10v11H26zm16 0h1v1h-1zm1 0h18v1H43zM5 27h14v1H5z"/><path d="M25 27h12v10H25zm18 0h1v1h-1zm1 0h17v1H44zM5 28h12v1H5zm12 0h1v1h-1z"/><path d="M24 28h13v9H24zm21 0h16v1H45zM5 29h11v1H5zm11 0h1v1h-1z"/><path d="M23 29h15v8H23zm23 0h1v1h-1zm1 0h14v1H47zM5 30h10v1H5z"/><path d="M22 30h16v7H22zm16 0h1v1h-1zm10 0h13v1H48zM5 31h8v1H5zm8 0h1v1h-1zm7 0h1v1h-1z"/><path d="M21 31h18v6H21zm29 0h1v1h-1zm1 0h10v1H51zM5 32h7v50H5zm13 0h1v1h-1z"/><path d="M19 32h21v5H19zm33 0h1v1h-1zm1 0h8v1h-8zm-41 1h1v1h-1z"/><path d="M13 33h28v4H13zm41 0h7v49h-7z"/><path d="M12 34h31v3H12zm38 0h1v1h-1zm1 0h2v1h-2zm2 0h8v48h-8z"/><path d="M43 35h18v9H43zm-31 2h19v3H12z"/><path d="M36 37h25v1H36zm-5 1h1v4h-1zm6 0h24v4H37zm-5 1h1v3h-1zm-20 1h10v4H12z"/><path d="M24 40h9v1h-9zm1 1h8v1h-8zm-3 1h1v2h-1zm4 0h1v1h-1zm1 0h3v1h-3zm3 0h1v1h-1zm11 0h1v1h-1zm1 0h19v1H42zm0 1h1v1h-1zm-30 1h5v20h-5zm6 0h1v1h-1zm1 0h2v1h-2zm2 0h1v1h-1zm22 0h1v1h-1zm1 0h17v18H44zm-15 1h2v1h-2zm6 0h5v1h-5zm5 0h1v1h-1zm3 0h1v1h-1zm-26 1h1v18h-1zm1 0h1v1h-1zm10 0h2v1h-2zm6 0h3v1h-3zm4 0h1v1h-1z"/><path d="M39 46h22v1H39zm-21 1h2v16h-2zm6 0h1v1h-1zm4 0h1v1h-1zm1 0h1v1h-1zm4 0h3v1h-3zm3 0h1v1h-1zm3 0h1v1h-1zm1 0h21v1H40zm-20 1h5v1h-5zm8 0h1v1h-1zm12 0h1v1h-1zm1 0h20v13H41zm-21 1h2v1h-2zm2 0h1v1h-1zm1 0h2v1h-2zm2 0h1v1h-1zm-5 1h1v1h-1zm14 0h2v1h-2zm-2 1h3v1h-3zm-8 1h4v1h-4zm10 0h1v1h-1zm6 0h1v1h-1zm-15 1h1v1h-1z"/><path d="M40 53h21v8H40zm-20 1h1v1h-1zm19 0h1v1h-1zm-19 1h1v8h-1zm5 0h2v1h-2zm2 0h1v1h-1zm5 0h2v1h-2z"/><path d="M39 55h22v6H39zm-18 1h1v1h-1zm5 0h2v1h-2zm12 0h1v1h-1zm-17 1h1v6h-1z"/><path d="M38 57h23v4H38zm-16 1h1v1h-1zm15 0h1v1h-1zm-15 1h1v4h-1zm9 0h2v2h-2zm2 0h1v1h-1z"/><path d="M37 59h24v2H37zm-14 1h1v3h-1zm4 0h1v2h-1zm6 0h2v1h-2zm2 0h1v1h-1z"/><path d="M36 60h25v1H36zm-12 1h1v2h-1zm1 0h1v1h-1zm1 0h1v1h-1zm17 0h1v1h-1zm3 1h15v1H46zm-28 1h1v1h-1zm2 0h1v1h-1zm14 0h1v1h-1zm1 0h4v1h-4zm4 0h1v1h-1zm8 0h14v19H47zm-35 1h4v20h-4zm4 0h1v1h-1zm15 0h1v1h-1zm4 0h1v1h-1zm1 0h6v1h-6zm-11 1h2v2h-2zm6 0h1v1h-1zm5 0h1v1h-1zm1 0h4v2h-4zm-21 1h1v1h-1zm5 0h1v1h-1z"/><path d="M22 66h5v1h-5zm24 0h1v1h-1zm-30 1h1v17h-1zm5 0h1v1h-1zm1 0h1v4h-1zm3 0h1v1h-1zm13 0h3v1h-3zm8 0h15v15H46zm-29 1h1v16h-1zm15 0h1v1h-1zm1 0h1v4h-1zm5 0h2v3h-2zm-15 1h1v1h-1zm7 0h1v1h-1z"/><path d="M31 69h4v3h-4zm14 0h16v13H45zm-27 1h1v14h-1zm5 0h1v14h-1zm1 0h1v1h-1zm4 0h1v1h-1z"/><path d="M29 70h6v2h-6zm6 0h1v1h-1zm-13 1h1v1h-1z"/><path d="M24 71h12v1H24zm12 0h1v1h-1zm1 0h2v2h-2zm2 0h1v1h-1zm5 0h1v1h-1zm-20 1h9v12h-9zm11 0h1v1h-1z"/><path d="M36 72h3v1h-3zm8 0h17v10H44zm-25 1h1v1h-1zm14 0h1v11h-1zm-14 1h1v10h-1zm15 0h1v1h-1z"/><path d="M43 74h18v8H43zm-23 1h1v9h-1zm14 0h1v9h-1zm1 0h1v1h-1z"/><path d="M21 76h15v8H21zm15 0h1v1h-1zm6 0h1v1h-1zm-6 1h2v7h-2zm6 0h19v5H42z"/><path d="M38 78h23v4H38zM3 81h1v1H3zm1 0h1v2H4zm58 0h1v1h-1zM3 82h1v1H3zm2 0h1v1H5zm1 0h54v1H6zm54 0h1v1h-1zm1 0h1v1h-1zm1 0h1v1h-1zM3 83h1v1H3zm1 0h1v1H4zm1 0h1v1H5zm1 0h1v1H6zm1 0h52v1H7zm52 0h1v1h-1zm1 0h1v1h-1zm1 0h1v1h-1zm1 0h1v1h-1zM5 84h1v1H5zm1 0h1v1H6zm1 0h1v1H7zm1 0h50v1H8zm50 0h1v1h-1zm1 0h1v1h-1zm1 0h1v1h-1z"/></g><path fill="#dbb" d="M35 44h1v1h-1zM24 60h1v1h-1zm2 0h1v1h-1zm1 10h1v1h-1zm17 0h1v1h-1z"/><path fill="#ddd" d="M3 0h1v1H3zm1 0h1v1H4zm1 0h56v1H5zm56 0h1v1h-1zm1 0h1v1h-1zM2 1h1v1H2zm61 0h1v1h-1zM1 6h1v1H1zm63 0h1v1h-1zM1 7h1v1H1zm63 0h1v1h-1zM1 8h1v1H1zm63 0h1v1h-1zM1 9h1v73H1zm63 0h1v73h-1zm-34 3h1v1h-1zm2 2h1v1h-1zm-10 6h1v1h-1zm1 0h1v1h-1zm-1 1h1v1h-1zm5 0h1v1h-1zm-6 9h1v1h-1zm26 0h1v1h-1zM1 82h1v1H1zm63 0h1v1h-1zM1 83h1v1H1zm63 0h1v1h-1zM2 84h1v1H2zm61 0h1v1h-1zM3 85h1v1H3zm1 0h1v1H4zm1 0h1v1H5zm1 0h1v1H6zm1 0h2v1H7zm50 0h2v1h-2zm2 0h1v1h-1zm1 0h1v1h-1zm1 0h1v1h-1zm1 0h1v1h-1z"/><path fill="#bbb" d="M0 1h1v1H0zm1 0h1v1H1zm63 0h1v1h-1zm1 0h1v1h-1zM25 12h1v1h-1zm8 4h1v1h-1zm5 7h1v1h-1zm-18 3h1v1h-1zm16 0h1v1h-1zm5 0h1v1h-1zm-22 1h1v1h-1zm-1 1h1v1h-1zm21 3h1v1h-1zm-27 1h1v1h-1zm39 0h1v1h-1zM1 85h1v1H1zm63 0h1v1h-1zM2 86h1v1H2zm1 0h1v1H3zm59 0h1v1h-1zm1 0h1v1h-1z"/><path fill="#eee" d="M3 1h1v1H3zm59 0h1v1h-1zM2 2h1v1H2zm61 0h1v1h-1zM1 3h1v1H1zm63 0h1v1h-1zM1 4h1v1H1zm63 0h1v1h-1zM1 5h1v1H1zm63 0h1v1h-1zM2 6h1v1H2zm61 0h1v1h-1zM2 7h1v1H2zm61 0h1v1h-1zM2 8h1v74H2zm61 0h1v74h-1zM24 20h1v1h-1zm12 0h1v1h-1zm-10 5h1v1h-1zm11 3h1v1h-1zm7 0h1v1h-1zm-29 2h1v1h-1zm28 4h1v1h-1zm1 0h5v1h-5zm5 0h1v1h-1zM2 82h1v1H2zm61 0h1v1h-1zM2 83h1v1H2zm61 0h1v1h-1zM3 84h1v1H3zm1 0h1v1H4zm57 0h1v1h-1zm1 0h1v1h-1zM9 85h48v1H9z"/><path fill="#fef" d="M23 40h1v1h-1zm-6 4h1v1h-1zm11 1h1v1h-1zm-3 3h1v1h-1zm8 6h1v1h-1zm7 14h1v1h-1z"/><path fill="#cbb" d="M39 24h1v1h-1z"/><path fill="#c13" d="M37 50h1v1h-1zm1 0h1v1h-1zm-14 1h1v1h-1zm5 0h1v1h-1zm-1 2h1v1h-1zm2 0h1v1h-1zm6 0h1v1h-1zm-1 3h1v1h-1zm-9 2h1v1h-1zm4 4h1v1h-1zm6 0h1v1h-1zm-19 3h1v1h-1zm25 2h1v1h-1zm0 1h1v1h-1zm-1 1h1v1h-1zm0 1h1v1h-1zm0 1h1v1h-1zm-1 3h1v1h-1z"/><path fill="#b34" d="M30 63h1v1h-1zm-10 3h1v1h-1zm4 3h1v1h-1z"/><path fill="#333" d="M33 18h1v1h-1zm-1 1h1v1h-1zm-9 5h1v1h-1zm-2 3h1v1h-1zm-3 4h1v1h-1zm-4 1h1v1h-1z"/><path fill="#ebc" d="M33 37h1v1h-1zm-1 5h1v1h-1zm-11 8h1v1h-1zm5 12h1v1h-1zm20 3h1v1h-1zm-23 2h1v1h-1zm-2 1h1v1h-1zm13 4h1v1h-1z"/><path fill="#b89" d="M22 47h1v1h-1z"/><path fill="#baa" d="M22 29h1v1h-1z"/><path fill="#e89" d="M32 37h1v1h-1zm1 3h1v1h-1zm-9 2h1v1h-1zm14 0h1v1h-1zm-13 1h1v1h-1zm1 0h1v1h-1zm11 5h1v1h-1zm1 0h1v1h-1zm2 1h1v1h-1zm-15 8h1v1h-1zm-7 7h1v1h-1zm2 0h1v1h-1zm19 9h1v1h-1z"/><path fill="#e88" d="M34 38h2v1h-2zm-5 5h1v1h-1zm-6 1h1v1h-1zm16 4h1v1h-1zM27 62h1v1h-1zm9 4h1v1h-1z"/><path fill="#ecd" d="M18 69h1v1h-1z"/><path fill="#877" d="M30 13h1v1h-1zm3 8h1v1h-1zm8 6h1v1h-1zm1 1h1v1h-1zm1 1h1v1h-1z"/><path fill="#777" d="M31 18h1v1h-1zm-8 3h1v1h-1zm12 3h1v1h-1zm4 1h1v1h-1zm1 1h1v1h-1zm-24 4h1v1h-1zm28 0h1v1h-1zm-4 2h1v1h-1zM0 84h1v1H0zm65 0h1v1h-1zM0 85h1v1H0zm65 0h1v1h-1zM0 86h1v1H0zm65 0h1v1h-1zM0 87h1v1H0zm65 0h1v1h-1z"/><path fill="#701" d="M35 58h1v1h-1zm-8 11h1v1h-1zm12 7h2v1h-2zm1 1h1v1h-1z"/><path fill="#c02" d="M33 43h1v1h-1zm-5 1h1v1h-1zm-5 1h1v1h-1zm8 4h1v1h-1zm2 0h1v1h-1zm-7 1h1v1h-1zm-5 2h1v1h-1zm10 1h1v1h-1zm-8 1h1v1h-1zm0 1h1v1h-1zm10 2h1v1h-1zm6 5h1v1h-1zm4 3h1v1h-1zm0 1h1v1h-1zm-7 1h1v1h-1zm-16 2h1v1h-1zm22 0h1v1h-1zm-21 2h1v1h-1z"/><path fill="#d89" d="M27 46h1v1h-1zm13 5h1v1h-1zm-12 1h1v1h-1zm-1 1h1v1h-1zm-5 20h1v1h-1z"/><path fill="#a34" d="M21 54h1v1h-1zm13 13h1v1h-1z"/><path fill="#b55" d="M44 69h1v1h-1z"/><path fill="#c35" d="M21 70h1v1h-1z"/><path fill="#c12" d="M34 42h1v1h-1zm5 1h1v1h-1zm-11 7h1v1h-1zm8 0h1v1h-1zm0 2h1v1h-1zm-7 1h1v1h-1zm3 0h1v1h-1zm4 1h1v1h-1zm-7 2h1v1h-1zm1 0h1v1h-1zm-6 1h1v1h-1zm5 0h1v1h-1zm-2 1h1v1h-1zm10 4h1v1h-1zm-11 1h1v1h-1zm19 1h1v1h-1zm-16 1h1v1h-1zm3 1h1v1h-1zm2 0h1v1h-1zm8 0h1v1h-1zm-1 6h1v1h-1zm-5 2h1v1h-1z"/><path fill="#c45" d="M42 44h1v1h-1zm-17 7h1v1h-1zm-2 1h1v1h-1zm12 22h1v1h-1z"/><path fill="#665" d="M31 14h1v1h-1zm4 6h1v1h-1zm7 9h1v1h-1z"/><path fill="#eaa" d="M36 38h1v1h-1zm-8 5h1v1h-1zm3 1h1v1h-1zm7 3h1v1h-1zM23 63h1v1h-1zm11 1h1v1h-1zm2 9h1v1h-1z"/><path fill="#c77" d="M26 51h1v1h-1zm-7 20h1v1h-1z"/><path fill="#dab" d="M20 53h1v1h-1zm6 11h1v1h-1z"/><path fill="#812" d="M36 58h1v1h-1zm5 18h1v1h-1z"/><path fill="#ecc" d="M23 59h1v1h-1zm7 5h1v1h-1zm4 4h1v1h-1zm-14 6h1v1h-1z"/><path fill="#aaa" d="M0 2h1v1H0zm65 0h1v1h-1zM29 12h1v1h-1zm-8 13h1v1h-1zm3 2h1v1h-1zm18 0h1v1h-1zm-25 2h1v1h-1zm29 1h1v1h-1zm-27 1h1v1h-1zm29 0h1v1h-1zM1 86h1v1H1zm63 0h1v1h-1zM2 87h1v1H2zm1 0h1v1H3zm1 0h1v1H4zm1 0h56v1H5zm56 0h1v1h-1zm1 0h1v1h-1zm1 0h1v1h-1zM4 88h1v1H4zm1 0h56v1H5zm56 0h1v1h-1z"/><path fill="#888" d="M0 5h1v1H0zm65 0h1v1h-1zM0 6h1v1H0zm65 0h1v1h-1zM0 7h1v1H0zm65 0h1v1h-1zM0 8h1v73H0zm65 0h1v73h-1zm-37 4h1v1h-1zm0 2h1v1h-1zm8 7h1v1h-1zm2 8h1v1h-1zM0 81h1v2H0zm65 0h1v2h-1zM0 83h1v1H0zm65 0h1v1h-1zM1 87h1v1H1zm63 0h1v1h-1zM2 88h1v1H2zm61 0h1v1h-1z"/><path fill="#222" d="M34 20h1v1h-1zm-9 5h1v1h-1zm17 5h1v1h-1zm10 3h1v1h-1z"/><path fill="#945" d="M24 46h1v1h-1z"/><path fill="#b23" d="M19 70h1v1h-1z"/><path fill="#776" d="M32 15h1v1h-1zm-8 7h1v1h-1z"/><path fill="#d45" d="M33 38h1v1h-1zm1 1h1v1h-1zm2 1h1v1h-1zm-3 2h1v1h-1zm-9 2h2v1h-2zm-6 1h1v1h-1zm13 2h1v1h-1zm4 2h1v1h-1zm-6 1h1v1h-1zm-6 1h1v1h-1zm10 2h1v1h-1zm-9 2h1v1h-1zm10 1h1v1h-1zm-2 6h1v1h-1zm2 0h1v1h-1zm7 0h1v1h-1zm-9 2h1v1h-1zm-14 1h1v1h-1zm15 0h1v1h-1zm-8 3h1v1h-1zm10 5h1v1h-1zm5 0h1v1h-1zm-3 1h1v1h-1zm2 0h1v1h-1z"/><path fill="#c99" d="M36 44h1v1h-1zm2 11h1v1h-1zm-1 2h1v1h-1zm-6 11h1v1h-1zm-6 2h1v1h-1zm12 6h1v1h-1z"/><path fill="#d77" d="M22 51h1v1h-1zm9 15h1v1h-1z"/><path fill="#912" d="M39 52h1v1h-1zm-7 15h1v1h-1z"/><path fill="#a99" d="M24 21h1v1h-1zm1 0h1v1h-1zm16 12h1v1h-1z"/><path fill="#901" d="M35 43h1v1h-1zm1 0h1v1h-1zm-3 1h1v1h-1zm8 0h1v1h-1zm-9 1h1v1h-1zm-12 1h1v1h-1zm1 0h1v1h-1zm5 0h1v1h-1zm12 7h1v1h-1zm-1 2h1v1h-1zm-1 2h1v1h-1zM18 67h1v1h-1zm13 0h1v1h-1zm-3 1h1v1h-1zm16 0h1v1h-1zm-19 1h1v1h-1zm18 1h1v1h-1zm-1 3h1v1h-1zm-21 1h1v1h-1zm16 1h1v1h-1zm4 0h1v1h-1z"/><path fill="#c55" d="M28 59h1v1h-1z"/><path fill="#443" d="M26 12h1v1h-1zm6 4h1v1h-1z"/><path fill="#edd" d="M49 31h1v1h-1zM34 45h1v1h-1zm7 0h1v1h-1zM17 67h1v1h-1z"/><path fill="#d67" d="M33 39h1v1h-1zm0 2h1v1h-1zm4 1h1v1h-1zm-7 1h1v1h-1zm0 1h1v1h-1zm-2 5h1v1h-1zm-8 2h1v1h-1zm8 4h1v1h-1zm-4 8h1v1h-1zm19 0h1v1h-1zm2 0h1v1h-1zm-24 1h1v1h-1zm25 0h1v1h-1zm-11 1h1v1h-1zm5 5h1v1h-1zm-6 3h1v1h-1z"/><path fill="#b77" d="M37 44h1v1h-1z"/><path fill="#c78" d="M19 46h1v1h-1zm8 5h1v1h-1zm16 21h1v1h-1z"/><path fill="#b66" d="M32 58h1v1h-1zM18 68h1v1h-1z"/><path fill="#b78" d="M34 59h1v1h-1zm1 10h1v1h-1zm-9 1h1v1h-1z"/><path fill="#e9a" d="M32 38h1v1h-1zm4 3h1v1h-1zm3 1h1v1h-1zm-2 5h1v1h-1zm-10 1h1v1h-1zm2 0h1v1h-1zm-7 2h1v1h-1zm1 0h1v1h-1zm7 0h1v1h-1zm-6 4h1v1h-1zm10 1h1v1h-1zm9 7h1v1h-1zm-24 2h1v1h-1zm22 2h1v1h-1zm-18 2h1v1h-1z"/><path fill="#822" d="M34 44h1v1h-1z"/><path fill="#dcc" d="M34 23h1v1h-1zm-17 9h1v1h-1z"/><path fill="#100" d="M41 32h2v1h-2zm2 1h5v1h-5z"/><path fill="#fdd" d="M31 37h1v1h-1zm3 0h1v1h-1zm-12 3h1v1h-1zm2 1h1v1h-1zm-2 3h1v1h-1zm-5 1h1v1h-1zm16 1h1v1h-1zm4 0h1v1h-1zm-3 2h1v1h-1zm1 0h1v1h-1zm-4 3h1v1h-1zm4 0h1v1h-1zm-10 5h1v1h-1zm7 0h1v1h-1zm8 7h1v1h-1zm-24 2h1v1h-1zm14 0h1v1h-1zm-3 1h1v1h-1zm10 7h1v1h-1zm6 0h1v1h-1z"/><path fill="#daa" d="M42 45h1v1h-1zM21 55h1v1h-1zm1 2h1v1h-1zm5 2h1v1h-1zm9 0h1v1h-1zM21 75h1v1h-1zm21 0h1v1h-1z"/><path fill="#c89" d="M39 53h1v1h-1zm-6 14h1v1h-1zm8 10h1v1h-1z"/><path fill="#111" d="M29 14h1v1h-1zm1 1h1v1h-1zm1 2h1v1h-1zm1 1h1v1h-1zm1 2h1v1h-1zm1 1h1v1h-1zm-8 2h1v1h-1zm9 0h1v1h-1zm-10 1h1v1h-1zm11 0h1v1h-1zm-12 1h1v1h-1zm-1 1h1v1h-1zm1 0h1v1h-1zm13 0h1v1h-1zm-15 1h1v1h-1zm16 0h1v1h-1zm-17 1h1v1h-1zm17 0h1v1h-1zm1 0h1v1h-1zm-19 1h1v1h-1zm1 0h1v1h-1zm19 0h1v1h-1zm-22 1h1v1h-1zm22 0h1v1h-1zm1 0h1v1h-1zm-25 1h1v1h-1zm26 0h1v1h-1zm3 1h1v1h-1zm1 0h1v1h-1zm4 1h1v1h-1zm1 0h1v1h-1z"/><path fill="#801" d="M40 44h1v1h-1zm-18 2h1v1h-1zm3 0h1v1h-1zm9 12h1v1h-1zm-10 1h1v1h-1zm1 0h1v1h-1zm10 0h1v1h-1zm-6 9h1v1h-1zm6 0h1v1h-1zm-9 1h1v1h-1zm10 0h1v1h-1z"/><path fill="#d99" d="M32 54h1v1h-1z"/><path fill="#fcd" d="M22 63h1v1h-1zm24 0h1v1h-1zm-7 9h1v1h-1z"/><path fill="#433" d="M30 14h1v1h-1zm1 1h1v1h-1zm4 6h1v1h-1zm-9 1h1v1h-1zm1 0h1v1h-1zm7 0h1v1h-1zm-11 1h1v1h-1zm14 1h1v1h-1zm-17 6h1v1h-1zm-7 2h1v1h-1z"/><path fill="#544" d="M34 19h1v1h-1zm4 6h1v1h-1zm7 6h1v1h-1zm4 1h1v1h-1z"/><path fill="#c67" d="M27 45h1v1h-1zm-2 19h1v1h-1z"/><path fill="#999" d="M0 3h1v1H0zm65 0h1v1h-1zM0 4h1v1H0zm65 0h1v1h-1zM27 23h1v1h-1zm-4 5h1v1h-1zm20 0h1v1h-1zm-29 3h1v1h-1zm39 2h1v1h-1zM3 88h1v1H3zm59 0h1v1h-1z"/><path fill="#322" d="M30 16h1v1h-1zm6 9h1v1h-1zm-14 1h1v1h-1zm-2 2h1v1h-1zm20 0h1v1h-1zm1 1h1v1h-1zm-24 1h1v1h-1zm22 0h1v1h-1zm9 2h1v1h-1zm-6 1h1v1h-1z"/><path fill="#fde" d="M32 47h1v1h-1zm-1 1h1v1h-1zm2 0h1v1h-1zm-7 5h1v1h-1zm8 1h1v1h-1zm6 7h1v1h-1z"/><path fill="#d66" d="M33 64h1v1h-1z"/><path fill="#766" d="M27 13h1v1h-1zm-2 9h1v1h-1zm-3 2h1v1h-1zm16 0h1v1h-1zm8 7h1v1h-1zm4 1h1v1h-1z"/><path fill="#a01" d="M34 43h1v1h-1zm3 0h1v1h-1zm-12 2h1v1h-1zm1 0h1v1h-1zm0 2h1v1h-1zm13 4h1v1h-1zm-1 1h1v1h-1zm-17 1h1v1h-1zm1 1h1v1h-1zm15 0h1v1h-1zm-15 1h1v1h-1zm14 1h1v1h-1zm-13 1h1v1h-1zm12 0h1v1h-1zm-11 1h1v1h-1zm6 0h1v1h-1zm-1 1h1v1h-1zm-1 5h1v1h-1zm17 1h1v1h-1zm-27 1h1v1h-1zm26 0h1v1h-1zm-25 1h1v1h-1zm11 0h1v1h-1zm5 0h1v1h-1zm9 0h1v1h-1zm-25 1h1v2h-1zm17 0h1v1h-1zm7 1h1v1h-1zm-1 2h1v1h-1zm-22 1h1v1h-1zm22 0h1v1h-1zm-21 1h1v1h-1zm20 1h1v1h-1zm-3 1h1v1h-1zm1 0h1v1h-1zm1 0h1v1h-1z"/><path fill="#d9a" d="M31 45h1v1h-1z"/><path fill="#a23" d="M32 46h1v1h-1zM22 56h1v1h-1zm1 2h1v1h-1zm7 1h1v1h-1zm-8 6h1v1h-1zm23 1h1v1h-1zm-2 5h1v1h-1zm-23 2h1v1h-1z"/><path fill="#b67" d="M31 58h1v1h-1zm-9 17h1v1h-1z"/><path fill="#fee" d="M35 37h1v1h-1zm-13 4h1v1h-1zm9 1h1v1h-1zm-8 1h1v1h-1zm7 3h1v1h-1zm-7 1h1v1h-1zm9 1h1v1h-1zm1 2h1v1h-1zm-9 3h1v1h-1zm10 0h1v1h-1zm-8 4h1v1h-1zm5 4h1v1h-1zm1 0h1v1h-1zm1 0h1v1h-1zm1 0h1v1h-1zm1 0h1v1h-1zm1 0h1v1h-1zm1 0h1v1h-1zm1 0h1v1h-1zm1 0h1v1h-1zm2 0h1v1h-1zm1 0h1v1h-1zm-17 1h1v1h-1zm20 0h1v1h-1zm-26 1h1v1h-1zm2 0h1v1h-1zm12 0h1v1h-1zm-9 2h1v1h-1zm3 0h1v1h-1zm14 0h1v1h-1zm-17 2h1v1h-1zm2 0h1v1h-1zm11 0h1v1h-1zm8 1h1v1h-1zm-8 2h1v1h-1zm-4 2h1v1h-1zm5 1h1v1h-1zm0 4h1v1h-1z"/><path fill="#fcc" d="M26 49h1v1h-1zm6 1h1v1h-1zm1 6h1v1h-1zm-1 9h1v1h-1z"/><path fill="#655" d="M27 12h1v1h-1zm2 1h1v1h-1zm-6 9h1v1h-1zm16 4h1v1h-1z"/><path fill="#c34" d="M36 39h1v1h-1zm-1 1h1v1h-1zm-3 3h1v1h-1zm-6 1h1v1h-1zm3 0h1v1h-1zm-10 1h1v1h-1zm3 0h1v1h-1zm4 3h1v1h-1zm4 1h1v1h-1zm6 0h1v1h-1zm3 0h1v1h-1zm-19 3h1v1h-1zm10 0h1v1h-1zm1 0h1v1h-1zm-2 9h1v1h-1zm-1 1h1v1h-1zm-3 1h1v1h-1zm17 0h1v1h-1zm-20 1h1v1h-1zm20 0h1v1h-1zm2 0h1v1h-1zm-16 2h1v1h-1zm1 0h1v1h-1zm6 0h1v1h-1zm-11 2h1v1h-1zm2 0h1v1h-1zm14 3h1v1h-1zm0 1h1v1h-1z"/><path fill="#a12" d="M24 64h1v1h-1zm-4 3h1v1h-1z"/><path fill="#c88" d="M23 65h1v1h-1zm22 2h1v1h-1z"/><path fill="#c23" d="M34 40h1v1h-1zm1 1h1v1h-1zm-8 3h1v1h-1zm7 5h1v1h-1zm-12 3h1v1h-1zm7 0h1v1h-1zm6 2h1v1h-1zm0 1h1v1h-1zm-11 1h1v1h-1zm4 1h1v1h-1zm1 5h1v1h-1zm6 0h1v1h-1zm5 0h1v1h-1zm-20 3h1v1h-1zm8 2h1v1h-1zm13 1h1v1h-1z"/><path fill="#d35" d="M36 42h1v1h-1z"/><path fill="#dbc" d="M20 47h1v1h-1z"/><path fill="#922" d="M33 58h1v1h-1z"/><path fill="#b45" d="M17 66h1v1h-1zm19 4h1v1h-1zm6 4h1v1h-1z"/><path fill="#833" d="M28 69h1v1h-1z"/><path fill="#e99" d="M23 42h1v1h-1zm4 7h1v1h-1zm8 3h1v1h-1z"/><path fill="#c56" d="M40 50h1v1h-1zM28 60h1v1h-1zm2 0h1v1h-1z"/><path fill="#666" d="M29 15h1v1h-1zm8 8h1v1h-1zm-16 3h1v1h-1zm-1 1h1v1h-1zm20 0h1v1h-1zm-21 1h1v1h-1zm22 0h1v1h-1zM0 88h1v1H0zm1 0h1v1H1zm63 0h1v1h-1zm1 0h1v1h-1zM1 89h1v1H1zm1 0h1v1H2zm1 0h1v1H3zm1 0h58v1H4zm58 0h1v1h-1zm1 0h1v1h-1zm1 0h1v1h-1z"/><path fill="#555" d="M33 17h1v1h-1zm3 5h1v1h-1zm-10 2h1v1h-1zm-4 1h1v1h-1zm15 2h1v1h-1zm-19 2h1v1h-1zm25 1h1v1h-1zm-28 2h1v1h-1z"/><path fill="#d56" d="M35 39h1v1h-1zm-4 4h1v1h-1zm10 0h1v1h-1zm-21 2h1v1h-1zm1 0h1v1h-1zm8 4h1v1h-1zm8 0h1v1h-1zm1 0h1v1h-1zm-17 2h1v1h-1zm9 0h1v1h-1zm5 2h1v1h-1zm-7 3h1v1h-1zm0 5h1v1h-1zm5 1h1v1h-1zm-14 3h1v1h-1zm15 0h1v1h-1zm7 2h1v1h-1zm-3 7h1v1h-1z"/><path fill="#d78" d="M23 41h1v1h-1zm1 2h1v1h-1zm3 4h1v1h-1zm3 0h1v1h-1zm0 1h1v1h-1zm-6 2h1v1h-1zm8 2h1v1h-1zm-1 4h1v1h-1zm11 6h1v1h-1zm2 1h1v1h-1zm-17 4h1v1h-1zm-6 2h1v1h-1z"/><path fill="#b12" d="M32 44h1v1h-1zm-1 2h1v1h-1zm0 8h1v1h-1zm7 8h1v1h-1z"/><path fill="#a66" d="M21 47h1v1h-1zm18 30h1v1h-1z"/><path fill="#eab" d="M36 48h1v1h-1zm-11 6h1v1h-1zm19 8h1v1h-1zm-3 1h1v1h-1zm-11 3h1v1h-1zm10 3h1v1h-1z"/><path fill="#998" d="M16 32h1v1h-1z"/><path fill="#923" d="M39 44h1v1h-1zm-1 10h1v1h-1zm-1 2h1v1h-1zm-12 4h1v1h-1z"/></svg>