<svg xmlns="http://www.w3.org/2000/svg" width="66" height="90" baseProfile="tiny" version="1.2"><path fill="#a22" d="M16 22h1v1h-1zm32 0h1v1h-1zm-28 2h1v1h-1zm7 0h1v1h-1zm10 0h1v1h-1zm7 0h1v1h-1zm-21 1h1v1h-1zm18 0h1v1h-1zm-13 8h1v1h-1zm8 0h1v1h-1zm1 7h1v1h-1zm-5 2h1v1h-1zm10 4h1v1h-1zm-8 2h1v1h-1zm-9 3h1v1h-1zm-8 6h1v1h-1zm30 0h1v1h-1zm-31 1h1v1h-1zm32 0h1v1h-1zm-28 2h1v1h-1zm7 0h1v1h-1zm10 0h1v1h-1zm7 0h1v1h-1zm-21 1h1v1h-1zm18 0h1v1h-1z"/><path fill="#c67" d="M23 30h1v1h-1zm18 0h1v1h-1z"/><path fill="#ebc" d="M38 36h1v1h-1zm-4 1h1v1h-1zm4 9h1v1h-1zm-1 4h1v1h-1zm-18 7h1v1h-1zm26 0h1v1h-1zm-20 4h1v1h-1zm14 0h1v1h-1zm0 3h1v1h-1zm-20 4h1v1h-1zm26 0h1v1h-1z"/><path fill="#a66" d="M26 71h1v1h-1zm12 0h1v1h-1zm-20 1h1v1h-1zm28 0h1v1h-1z"/><path fill="#ddd" d="M3 0h1v1H3zm1 0h1v1H4zm1 0h56v1H5zm56 0h1v1h-1zm1 0h1v1h-1zM2 1h1v1H2zm61 0h1v1h-1zM1 6h1v1H1zm63 0h1v1h-1zM1 7h1v1H1zm63 0h1v1h-1zM1 8h1v1H1zm63 0h1v1h-1zM1 9h1v73H1zm63 0h1v73h-1zM1 82h1v1H1zm63 0h1v1h-1zM1 83h1v1H1zm63 0h1v1h-1zM2 84h1v1H2zm61 0h1v1h-1zM3 85h1v1H3zm1 0h1v1H4zm1 0h1v1H5zm1 0h1v1H6zm1 0h2v1H7zm50 0h2v1h-2zm2 0h1v1h-1zm1 0h1v1h-1zm1 0h1v1h-1zm1 0h1v1h-1z"/><path fill="#b66" d="M23 20h1v1h-1zm18 0h1v1h-1zm-16 1h1v1h-1zm14 0h1v1h-1zm-20 4h1v1h-1zm26 0h1v1h-1zM34 43h1v1h-1zm-4 5h1v1h-1zM19 61h1v1h-1zm26 0h1v1h-1z"/><path fill="#999" d="M0 3h1v1H0zm65 0h1v1h-1zM0 4h1v1H0zm65 0h1v1h-1zM3 88h1v1H3zm59 0h1v1h-1z"/><path fill="#955" d="M18 36h1v1h-1zm28 0h1v1h-1z"/><path fill="#722" d="M19 36h1v1h-1zm26 0h1v1h-1z"/><path fill="#934" d="M23 36h1v1h-1zm18 0h1v1h-1z"/><path fill="#c88" d="M28 39h1v1h-1zM18 56h1v1h-1zm28 0h1v1h-1z"/><path fill="#dbb" d="M23 55h1v1h-1zm18 0h1v1h-1zM12 68h1v1h-1zm40 0h1v1h-1zm-37 3h1v1h-1zm34 0h1v1h-1zm-32 1h1v1h-1z"/><path fill="#c33" d="M20 18h1v1h-1zm24 0h1v1h-1zm-19 1h1v1h-1zm14 0h1v1h-1zm-24 1h1v1h-1zm34 0h1v1h-1zm-36 2h1v1h-1zm38 0h1v1h-1zm-39 1h1v1h-1zm40 0h1v1h-1zm-29 1h1v1h-1zm18 0h1v1h-1zm-28 6h1v1h-1zm38 0h1v1h-1zm-34 4h1v1h-1zm30 0h1v1h-1zm-20 3h1v1h-1zm13 3h1v1h-1zm1 1h1v1h-1zm-11 1h1v1h-1zm1 5h1v1h-1zm-9 7h1v1h-1zm18 0h2v1h-2zm-23 1h1v1h-1zm30 0h1v1h-1zm-32 1h1v1h-1zm34 0h1v1h-1zm-21 1h1v1h-1zm-15 1h1v1h-1zm38 0h1v1h-1zm-39 1h1v1h-1zm1 0h1v1h-1zm38 0h1v1h-1zm1 0h1v1h-1z"/><path fill="#d77" d="M17 18h1v1h-1zm30 0h1v1h-1zm-32 1h1v1h-1zm34 0h1v1h-1zm-21 1h1v1h-1zm8 0h1v1h-1zm-7 1h1v1h-1zm6 0h1v1h-1zm-16 2h1v1h-1zm26 0h1v1h-1zm-21 1h1v1h-1zm16 0h1v1h-1zm-11 2h1v1h-1zm6 0h1v1h-1zm-6 1h1v1h-1zm6 0h1v1h-1zm-10 4h1v1h-1zm1 0h1v1h-1zm12 0h1v1h-1zm1 0h1v1h-1zm-17 2h1v1h-1zm20 0h1v1h-1zm-18 6h1v1h-1zm10 2h1v1h-1zm-4 4h1v1h-1zm2 2h1v1h-1zm6 0h1v1h-1zm-11 2h1v1h-1zm1 0h1v1h-1zm6 2h1v1h-1zm-17 3h1v1h-1zm9 0h1v1h-1zm21 0h1v1h-1zm-32 1h1v1h-1zm34 0h1v1h-1zm-9 5h1v1h-1zm-11 2h1v1h-1zm6 0h1v1h-1zm-6 1h1v1h-1zm6 0h1v1h-1zm-10 4h1v1h-1zm1 0h1v1h-1zm13 0h1v1h-1zm-19 2h1v1h-1zm2 0h1v1h-1zm20 0h1v1h-1zm2 0h1v1h-1z"/><path fill="#daa" d="M23 19h1v1h-1zm18 0h1v1h-1zm-26 2h1v1h-1zm34 0h1v1h-1zm-38 9h1v1h-1zm42 0h1v1h-1zm-41 2h1v1h-1zm40 0h1v1h-1zm-18 7h1v1h-1zm4 0h1v1h-1zm-12 2h1v1h-1zm-4 5h1v1h-1zm13 2h1v1h-1zm-7 14h1v1h-1zm8 0h1v1h-1zm-25 4h1v1h-1zm42 0h1v1h-1z"/><path fill="#b56" d="M11 29h1v1h-1zm42 0h1v1h-1zM23 56h1v1h-1zm18 0h1v1h-1zm-16 1h1v1h-1zm14 0h1v1h-1zm-14 1h1v1h-1zm14 0h1v1h-1zm-28 7h1v1h-1zm42 0h1v1h-1z"/><path fill="#d78" d="M24 34h1v1h-1zm14 33h1v1h-1zm-20 1h1v1h-1zm28 0h1v1h-1z"/><path fill="#b34" d="M26 39h1v1h-1zm1 22h1v1h-1zm10 0h1v1h-1z"/><path fill="#dab" d="M31 43h1v1h-1z"/><path fill="#712" d="M22 72h1v1h-1zm20 0h1v1h-1z"/><g fill="#fff"><path d="M4 1h1v1H4zm1 0h1v1H5zm1 0h54v1H6zm54 0h1v1h-1zm1 0h1v1h-1zM3 2h1v1H3zm1 0h1v1H4zm1 0h56v1H5zm56 0h1v1h-1zm1 0h1v1h-1zM2 3h1v1H2zm1 0h1v1H3zm1 0h2v1H4zm2 0h54v1H6zm54 0h2v1h-2zm2 0h1v1h-1zm1 0h1v1h-1zM2 4h1v2H2zm1 0h1v3H3zm1 0h1v1H4zm1 0h56v13H5zm56 0h1v1h-1zm1 0h1v3h-1zm1 0h1v2h-1z"/><path d="M4 5h58v2H4zM3 7h1v1H3zm1 0h1v1H4zm57 0h1v1h-1zm1 0h1v1h-1zM3 8h1v73H3zm1 0h1v73H4zm57 0h1v74h-1zm1 0h1v73h-1zM5 17h11v1H5zm11 0h1v1h-1zm9 0h1v1h-1zm1 0h13v1H26zm13 0h1v1h-1zm9 0h1v1h-1zm1 0h12v1H49zM5 18h10v1H5zm22 0h1v1h-1zm1 0h9v1h-9zm9 0h1v1h-1zm13 0h11v1H50zM5 19h8v2H5zm8 0h1v1h-1zm8 0h1v1h-1zm8 0h7v1h-7zm14 0h1v1h-1zm8 0h1v1h-1zm1 0h9v2h-9zm-22 1h5v1h-5zM5 21h7v1H5zm25 0h1v1h-1zm1 0h3v2h-3zm3 0h1v1h-1zm19 0h8v1h-8zM5 22h6v60H5zm6 0h1v1h-1zm7 0h2v1h-2zm4 0h1v1h-1zm1 0h1v1h-1zm18 0h1v1h-1zm1 0h1v1h-1zm3 0h2v1h-2zm8 0h1v1h-1zm1 0h7v60h-7zm-37 1h1v1h-1zm7 0h1v1h-1zm1 0h1v1h-1zm6 0h1v1h-1zm1 0h1v12h-1zm1 0h1v1h-1zm6 0h1v1h-1zm1 0h1v1h-1zm7 0h1v1h-1zm-31 1h1v2h-1zm9 0h1v1h-1zm14 0h1v1h-1zm9 0h1v2h-1zm-28 1h1v1h-1zm1 0h1v4h-1zm5 0h1v4h-1zm12 0h1v4h-1zm5 0h1v4h-1zm1 0h1v1h-1zm-28 1h1v1h-1z"/><path d="M20 26h3v2h-3zm22 0h3v2h-3zm6 0h1v1h-1zm-32 1h1v1h-1zm32 0h1v1h-1zm-32 1h1v2h-1zm4 0h1v1h-1zm24 0h1v1h-1zm4 0h1v2h-1zm-23 1h1v1h-1zm14 0h1v1h-1zm-22 1h1v1h-1zm7 0h1v1h-1zm1 0h1v1h-1zm6 0h1v1h-1zm2 0h1v1h-1zm6 0h1v1h-1zm1 0h1v1h-1zm7 0h1v1h-1zm-36 1h1v1h-1zm7 0h1v1h-1zm1 0h1v1h-1zm4 0h1v1h-1zm1 0h1v1h-1zm7 0h3v4h-3zm9 0h1v1h-1zm1 0h1v1h-1zm4 0h1v1h-1zm1 0h1v1h-1zm7 0h1v1h-1zm-42 1h1v26h-1zm10 0h1v1h-1zm9 0h1v1h-1zm4 0h1v1h-1zm9 0h1v1h-1zm10 0h8v26h-8zm-41 1h1v24h-1z"/><path d="M30 33h5v2h-5zm22 0h9v24h-9zm-39 1h1v1h-1zm7 0h1v1h-1zm1 0h1v1h-1z"/><path d="M29 34h7v1h-7zm14 0h1v1h-1zm1 0h1v1h-1zm7 0h1v1h-1zm-38 1h2v20h-2zm37 0h11v20H50zm-35 1h1v18h-1zm1 0h1v1h-1zm10 0h1v1h-1zm22 0h1v1h-1z"/><path d="M49 36h12v18H49zm-33 1h4v16h-4zm4 0h1v1h-1zm1 0h1v1h-1zm1 0h1v1h-1zm1 0h2v1h-2zm17 0h1v1h-1zm1 0h1v2h-1zm1 0h1v1h-1zm1 0h1v1h-1zm1 0h1v1h-1z"/><path d="M45 37h16v16H45zm-25 1h4v1h-4z"/><path d="M42 38h19v2H42zm-22 1h3v3h-3zm3 0h1v1h-1zm7 1h1v1h-1zm1 0h1v1h-1zm2 0h1v1h-1zm1 0h2v1h-2zm8 0h1v1h-1zm1 0h18v4H43zm-14 1h1v1h-1zm7 0h1v1h-1zm-16 1h2v10h-2zm8 0h1v1h-1zm9 0h1v2h-1zm-10 1h1v1h-1zm5 0h1v1h-1zm1 0h1v1h-1zm-6 1h1v3h-1zm4 0h3v2h-3zm12 0h1v2h-1zm1 0h17v8H44zm-10 1h1v1h-1zm6 0h1v1h-1zm-8 1h1v1h-1zm1 0h1v1h-1zm4 0h1v2h-1zm6 0h1v1h-1zm-15 1h1v1h-1z"/><path d="M43 47h18v5H43zm-21 1h1v1h-1zm6 0h1v1h-1zm1 0h1v1h-1zm7 0h1v1h-1zm-14 1h1v3h-1zm7 0h1v1h-1zm1 0h1v1h-1zm4 0h1v1h-1zm1 0h1v1h-1zm-12 1h1v1h-1zm9 0h1v1h-1zm1 0h1v1h-1z"/><path d="M42 50h19v2H42zm-19 1h1v2h-1zm18 0h1v1h-1zm-21 1h1v1h-1zm1 0h1v1h-1zm1 0h1v1h-1zm2 0h1v1h-1zm7 0h1v1h-1zm1 0h1v1h-1zm1 0h1v1h-1zm7 0h1v1h-1zm1 0h1v1h-1zm1 0h1v1h-1zm1 0h1v1h-1zm1 0h1v1h-1zm-28 1h1v1h-1zm32 0h1v1h-1zm-35 2h1v1h-1zm7 0h1v1h-1zm1 0h1v1h-1zm8 0h2v1h-2zm2 0h1v1h-1zm3 0h1v1h-1zm1 0h1v1h-1zm8 0h1v1h-1zm1 0h1v1h-1zm7 0h1v1h-1zm-21 1h5v1h-5zm-9 1h1v1h-1zm9 0h1v1h-1zm1 0h3v2h-3zm3 0h1v1h-1zm9 0h1v1h-1zm-32 1h1v1h-1zm7 0h1v1h-1zm1 0h1v1h-1zm3 0h1v1h-1zm1 0h1v1h-1zm1 0h1v1h-1zm16 0h1v1h-1zm1 0h1v1h-1zm1 0h1v1h-1zm3 0h1v1h-1zm1 0h1v1h-1zm7 0h1v1h-1zm-36 1h1v1h-1zm7 0h1v1h-1zm1 0h1v1h-1zm6 0h1v1h-1zm1 0h1v25h-1zm1 0h1v1h-1zm6 0h1v1h-1zm1 0h1v1h-1zm7 0h1v1h-1zm-31 1h1v2h-1zm9 0h1v1h-1zm14 0h1v1h-1zm9 0h1v2h-1zm-28 1h1v1h-1zm1 0h1v4h-1zm5 0h1v4h-1zm12 0h1v4h-1zm5 0h1v4h-1zm1 0h1v1h-1zm-28 1h1v1h-1z"/><path d="M20 62h3v2h-3zm22 0h3v2h-3zm6 0h1v1h-1zm-32 1h1v1h-1zm32 0h1v1h-1zm-32 1h1v2h-1zm4 0h1v1h-1zm24 0h1v1h-1zm4 0h1v2h-1zm-23 1h1v1h-1zm14 0h1v1h-1zm-22 1h1v1h-1zm7 0h1v1h-1zm1 0h1v1h-1zm6 0h1v1h-1zm2 0h1v1h-1zm6 0h1v1h-1zm1 0h1v1h-1zm7 0h1v1h-1zm-36 1h1v1h-1zm7 0h2v1h-2zm4 0h1v1h-1zm1 0h1v1h-1zm8 0h3v17h-3zm10 0h1v1h-1zm1 0h1v1h-1zm3 0h2v1h-2zm8 0h1v1h-1zm-42 1h1v16h-1zm19 0h1v1h-1zm4 0h1v1h-1zm19 0h8v14h-8zm-41 1h1v15h-1zm5 0h1v1h-1z"/><path d="M30 69h5v15h-5zm17 0h1v1h-1zm5 0h9v13h-9zm-39 1h1v1h-1zm8 0h1v1h-1z"/><path d="M29 70h7v14h-7zm14 0h1v1h-1zm8 0h1v1h-1zm-38 1h2v13h-2z"/><path d="M28 71h9v13h-9zm22 0h11v11H50zm-35 1h1v12h-1zm1 0h1v1h-1z"/><path d="M26 72h13v12H26zm22 0h1v1h-1zm1 0h12v10H49z"/><path d="M16 73h45v9H16zM3 81h1v1H3zm1 0h1v2H4zm58 0h1v1h-1zM3 82h1v1H3zm2 0h1v1H5zm1 0h54v1H6zm54 0h1v1h-1zm1 0h1v1h-1zm1 0h1v1h-1zM3 83h1v1H3zm1 0h1v1H4zm1 0h1v1H5zm1 0h1v1H6zm1 0h52v1H7zm52 0h1v1h-1zm1 0h1v1h-1zm1 0h1v1h-1zm1 0h1v1h-1zM5 84h1v1H5zm1 0h1v1H6zm1 0h1v1H7zm1 0h50v1H8zm50 0h1v1h-1zm1 0h1v1h-1zm1 0h1v1h-1z"/></g><path fill="#922" d="M20 20h1v1h-1zm24 0h1v1h-1zM32 38h1v1h-1zm-3 1h1v1h-1zm12 10h1v1h-1zm-19 7h1v1h-1zm20 0h1v1h-1zM28 69h1v1h-1zm8 0h1v1h-1z"/><path fill="#b23" d="M28 22h1v1h-1zm8 0h1v1h-1zm-7 1h1v1h-1zm6 0h1v1h-1zm-23 1h1v1h-1zm18 0h1v1h-1zm4 0h1v1h-1zm18 0h1v1h-1zm-28 1h1v1h-1zm16 0h1v1h-1zm-12 6h1v1h-1zm8 0h1v1h-1zm-9 3h1v1h-1zm9 3h1v1h-1zm3 1h1v1h-1zm-14 2h1v1h-1zm-2 2h1v1h-1zm18 0h1v1h-1zm-15 1h1v1h-1zm-1 6h1v1h-1zm1 3h1v1h-1zm2 0h1v1h-1zm-7 2h1v1h-1zm18 0h1v1h-1zm3 0h1v1h-1zm1 0h1v1h-1zm-17 1h1v1h-1zm3 4h1v1h-1zm6 0h1v1h-1zm-23 1h1v1h-1zm18 0h1v1h-1zm4 0h1v1h-1zm18 0h1v1h-1zm-41 1h1v1h-1zm13 0h1v1h-1zm16 0h1v1h-1zm13 0h1v1h-1zm-31 4h1v1h-1zm20 0h1v1h-1zm-14 2h1v1h-1zm8 0h1v1h-1zm-19 3h1v1h-1zm30 0h1v1h-1z"/><path fill="#ecd" d="M28 54h1v1h-1zm8 1h1v1h-1zm-10 5h1v1h-1zm12 0h1v1h-1zm-7 5h1v1h-1z"/><path fill="#c99" d="M18 20h1v1h-1zm28 0h1v1h-1zM30 31h1v1h-1zm4 0h1v1h-1zm8 17h1v1h-1zm-19 1h1v1h-1zm7 18h1v1h-1zm4 0h1v1h-1z"/><path fill="#888" d="M0 5h1v1H0zm65 0h1v1h-1zM0 6h1v1H0zm65 0h1v1h-1zM0 7h1v1H0zm65 0h1v1h-1zM0 8h1v73H0zm65 0h1v73h-1zM0 81h1v2H0zm65 0h1v2h-1zM0 83h1v1H0zm65 0h1v1h-1zM1 87h1v1H1zm63 0h1v1h-1zM2 88h1v1H2zm61 0h1v1h-1z"/><path fill="#eab" d="M23 17h1v1h-1zm18 0h1v1h-1zm-24 5h1v1h-1zm13 0h1v1h-1zm4 0h1v1h-1zm13 0h1v1h-1zm-32 6h1v1h-1zm34 0h1v1h-1zM37 41h1v1h-1zm5 0h1v1h-1zm-20 2h1v1h-1zm3 1h1v1h-1zm0 1h1v1h-1zm5 5h1v1h-1zm-6 3h1v1h-1zm-10 2h1v1h-1zm36 0h1v1h-1zm-35 2h1v1h-1zm34 0h1v1h-1zm4 2h1v1h-1zm-38 2h1v1h-1zm34 0h1v1h-1zm-34 3h1v1h-1zm34 0h1v1h-1z"/><path fill="#c66" d="M18 18h1v1h-1zm28 0h1v1h-1zm-20 1h1v1h-1zm12 0h1v1h-1zm-24 1h1v1h-1zm36 0h1v1h-1zm-33 5h1v1h-1zm30 0h1v1h-1zm-20 1h1v1h-1zm10 0h1v1h-1zm-10 1h1v1h-1zm10 0h1v1h-1zm-11 3h1v1h-1zm12 0h1v1h-1zm-21 2h1v1h-1zm7 0h1v1h-1zm16 0h1v1h-1zm7 0h1v1h-1zm-26 1h1v1h-1zm22 0h1v1h-1zm-17 2h1v1h-1zm12 0h1v1h-1zm-11 5h1v1h-1zm4 1h1v1h-1zm11 1h1v1h-1zm-18 2h1v1h-1zm6 0h1v1h-1zm-1 6h1v1h-1zm4 1h1v1h-1zm7 0h1v1h-1zm-4 1h1v1h-1zm3 0h1v1h-1zm-12 1h1v1h-1zm-3 2h1v1h-1zm16 0h1v1h-1zm-22 2h1v1h-1zm11 0h1v1h-1zm17 0h1v1h-1zm-35 3h1v1h-1zm42 0h1v1h-1zm-26 2h1v1h-1zm10 0h1v1h-1zm-10 1h1v1h-1zm10 0h1v1h-1zm-22 2h1v1h-1zm34 0h1v1h-1zm-32 3h1v1h-1zm7 0h1v1h-1zm16 0h1v1h-1zm7 0h1v1h-1zm-7 2h1v1h-1z"/><path fill="#edd" d="M22 21h1v1h-1zm20 0h1v1h-1zM20 31h1v1h-1zm24 0h1v1h-1zm-15 2h1v1h-1zm-1 1h1v1h-1zm-3 2h1v1h-1zm14 0h1v1h-1zm-6 1h1v1h-1zm-4 1h1v1h-1zm-4 5h1v1h-1zm15 0h1v1h-1zm-18 4h1v1h-1zm-3 8h1v1h-1zm9 0h1v1h-1zm17 0h1v1h-1zm-20 1h1v1h-1zm14 0h1v1h-1zm-6 9h1v1h-1zm-12 2h1v1h-1zm22 0h1v1h-1zm-14 2h1v1h-1zm6 0h1v1h-1zm-7 1h1v1h-1zm8 0h1v1h-1zm-11 2h1v1h-1zm14 0h1v1h-1z"/><path fill="#a11" d="M24 35h2v1h-2z"/><path fill="#a55" d="M34 38h1v1h-1z"/><path fill="#cab" d="M47 72h1v1h-1z"/><path fill="#ccc" d="M1 0h1v1H1zm1 0h1v1H2zm61 0h1v1h-1zm1 0h1v1h-1zM1 2h1v1H1zm63 0h1v1h-1zM1 84h1v1H1zm63 0h1v1h-1zM2 85h1v1H2zm61 0h1v1h-1zM4 86h1v1H4zm1 0h1v1H5zm1 0h1v1H6zm1 0h52v1H7zm52 0h1v1h-1zm1 0h1v1h-1zm1 0h1v1h-1z"/><path fill="#c34" d="M22 18h1v1h-1zm20 0h1v1h-1zm-16 2h1v1h-1zm12 0h1v1h-1zm-11 9h1v1h-1zm10 0h1v1h-1zm-5 7h1v1h-1zm1 0h1v1h-1zm-7 10h1v1h-1zm4 0h1v1h-1zm8 5h1v1h-1zm-11 4h1v1h-1zm-4 9h1v1h-1zm18 0h1v1h-1zm-15 5h1v1h-1zm12 0h1v1h-1z"/><path fill="#fee" d="M20 19h1v1h-1zm8 0h1v1h-1zm8 0h1v1h-1zm8 0h1v1h-1zm-27 1h1v1h-1zm12 0h1v1h-1zm6 0h1v1h-1zm12 0h1v1h-1zm-27 1h1v1h-1zm1 0h1v1h-1zm5 0h1v1h-1zm12 0h1v1h-1zm5 0h1v1h-1zm1 0h1v1h-1zm-24 1h1v1h-1zm1 0h1v1h-1zm3 0h1v1h-1zm3 0h1v1h-1zm10 0h1v1h-1zm3 0h1v1h-1zm3 0h1v1h-1zm1 0h1v1h-1zm-30 1h1v1h-1zm36 0h1v1h-1zm-22 1h1v1h-1zm8 0h1v1h-1zm-23 2h1v1h-1zm6 0h1v1h-1zm26 0h1v1h-1zm6 0h1v1h-1zm-38 1h1v1h-1zm6 0h1v1h-1zm26 0h1v1h-1zm6 0h1v1h-1zm-23 2h1v1h-1zm-14 1h1v1h-1zm36 0h1v1h-1zm-28 1h1v1h-1zm5 0h1v1h-1zm10 0h1v1h-1zm5 0h1v1h-1zm-22 1h1v1h-1zm6 0h1v1h-1zm12 0h1v1h-1zm6 0h1v1h-1zm-27 1h1v1h-1zm30 0h1v1h-1zm-25 1h1v1h-1zm20 0h1v1h-1zm-15 1h1v1h-1zm1 0h1v1h-1zm9 0h1v1h-1zm-12 2h1v1h-1zm7 0h1v1h-1zm-8 1h1v1h-1zm12 0h1v1h-1zm-9 1h1v1h-1zm5 0h1v1h-1zm-3 1h1v1h-1zm3 0h1v1h-1zm-4 1h1v1h-1zm11 0h1v1h-1zm-17 1h1v1h-1zm3 0h1v1h-1zm9 2h1v1h-1zm3 0h1v1h-1zm3 0h1v1h-1zm-3 1h1v1h-1zm1 0h1v1h-1zm-13 2h1v1h-1zm14 1h1v1h-1zm-13 1h1v1h-1zm5 0h1v1h-1zm11 0h1v1h-1zm-15 1h1v1h-1zm4 0h1v1h-1zm-3 1h1v1h-1zm8 0h1v1h-1zm-2 1h1v1h-1zm-8 1h1v1h-1zm1 1h1v1h-1zm-5 1h1v1h-1zm11 0h1v1h-1zm9 0h1v1h-1zm-25 1h1v1h-1zm30 0h1v1h-1zm-27 1h1v1h-1zm6 0h1v1h-1zm12 0h1v1h-1zm6 0h1v1h-1zm-24 1h1v1h-1zm7 0h1v1h-1zm10 0h1v1h-1zm7 0h1v1h-1zm-30 1h1v1h-1zm36 0h1v1h-1zm-22 1h1v1h-1zm8 0h1v1h-1zm-23 2h1v2h-1zm6 0h1v1h-1zm26 0h1v1h-1zm6 0h1v2h-1zm-32 1h1v1h-1zm26 0h1v1h-1zm-17 2h1v1h-1zm8 0h1v1h-1zm-22 1h1v1h-1zm36 0h1v1h-1zm-26 1h1v1h-1zm3 0h1v1h-1zm10 0h1v1h-1zm3 0h1v1h-1zm-20 1h1v1h-1zm1 0h1v1h-1zm5 0h1v1h-1zm12 0h1v1h-1zm5 0h1v1h-1zm1 0h1v1h-1zm-22 2h1v1h-1zm20 0h1v1h-1zm-15 1h1v1h-1zm10 0h1v1h-1z"/><path fill="#912" d="M21 20h1v1h-1zm22 0h1v1h-1zM22 30h1v1h-1zm20 0h1v1h-1zM20 56h1v1h-1zm24 0h1v1h-1zM22 66h1v1h-1zm20 0h1v1h-1z"/><path fill="#eaa" d="M19 17h1v1h-1zm26 0h1v1h-1zm-32 3h1v1h-1zm38 0h1v1h-1zm-35 3h1v1h-1zm32 0h1v1h-1zm-33 2h1v1h-1zm16 0h1v1h-1zm2 0h1v1h-1zm16 0h1v1h-1zm-21 1h1v1h-1zm8 0h1v1h-1zm-8 1h1v1h-1zm8 0h1v1h-1zm-8 3h1v1h-1zm8 0h1v1h-1zm1 0h1v1h-1zm-14 2h1v1h-1zm18 0h1v1h-1zm-23 2h1v1h-1zm28 0h1v1h-1zm-16 1h1v1h-1zm5 0h1v1h-1zm1 5h1v1h-1zm-6 1h1v1h-1zm-5 7h1v1h-1zm1 0h1v1h-1zm13 1h1v1h-1zm-4 2h1v1h-1zm5 2h1v1h-1zm-27 3h1v1h-1zm38 0h1v1h-1zm-21 2h1v1h-1zm4 0h1v1h-1zm-3 3h1v1h-1zm2 0h1v1h-1zm-5 2h1v1h-1zm8 0h1v1h-1zm-22 2h1v1h-1zm36 0h1v1h-1zm-23 1h1v1h-1zm1 0h1v1h-1zm9 0h1v1h-1zm-14 2h1v1h-1zm18 0h1v1h-1z"/><path fill="#aaa" d="M0 2h1v1H0zm65 0h1v1h-1zM1 86h1v1H1zm63 0h1v1h-1zM2 87h1v1H2zm1 0h1v1H3zm1 0h1v1H4zm1 0h56v1H5zm56 0h1v1h-1zm1 0h1v1h-1zm1 0h1v1h-1zM4 88h1v1H4zm1 0h56v1H5zm56 0h1v1h-1z"/><path fill="#933" d="M22 20h1v1h-1zm20 0h1v1h-1zM30 54h1v1h-1z"/><path fill="#fef" d="M36 29h1v1h-1zM20 70h1v1h-1zm24 0h1v1h-1z"/><path fill="#711" d="M20 36h1v1h-1zm1 0h1v1h-1zm1 0h1v1h-1zm21 0h1v1h-1zm1 0h1v1h-1zM31 54h1v1h-1zm1 0h1v1h-1zm1 0h1v1h-1zM20 72h1v1h-1zm1 0h1v1h-1zm22 0h1v1h-1zm1 0h1v1h-1z"/><path fill="#c78" d="M40 36h1v1h-1zm-5 1h1v1h-1zm2 1h1v1h-1zm-7 1h1v1h-1z"/><path fill="#777" d="M0 84h1v1H0zm65 0h1v1h-1zM0 85h1v1H0zm65 0h1v1h-1zM0 86h1v1H0zm65 0h1v1h-1zM0 87h1v1H0zm65 0h1v1h-1z"/><path fill="#bbb" d="M0 1h1v1H0zm1 0h1v1H1zm63 0h1v1h-1zm1 0h1v1h-1zM1 85h1v1H1zm63 0h1v1h-1zM2 86h1v1H2zm1 0h1v1H3zm59 0h1v1h-1zm1 0h1v1h-1z"/><path fill="#a23" d="M17 21h1v1h-1zm7 0h1v1h-1zm16 0h1v1h-1zm7 0h1v1h-1zm-32 2h1v1h-1zm34 0h1v1h-1zm-38 5h1v1h-1zm42 0h1v1h-1zM36 39h1v1h-1zm2 2h1v1h-1zM24 57h1v1h-1zm16 0h1v1h-1zm-25 2h1v1h-1zm34 0h1v1h-1zm-38 5h1v1h-1zm42 0h1v1h-1z"/><path fill="#d66" d="M11 24h1v1h-1zm42 0h1v1h-1zm-38 5h1v1h-1zm6 0h1v1h-1zm22 0h1v1h-1zm6 0h1v1h-1zm-29 4h1v1h-1zm24 0h1v1h-1zM24 45h1v1h-1zm7 6h1v1h-1zm1 0h1v1h-1zm-13 8h1v1h-1zm26 0h1v1h-1zM21 69h1v1h-1zm22 0h1v1h-1zm-19 1h1v1h-1z"/><path fill="#823" d="M27 70h1v1h-1zm10 0h1v1h-1zm-18 2h1v1h-1zm26 0h1v1h-1z"/><path fill="#d99" d="M20 17h1v1h-1zm1 0h1v1h-1zm22 0h1v1h-1zm1 0h1v1h-1zm-28 1h1v1h-1zm32 0h1v1h-1zm-25 5h1v1h-1zm4 0h1v1h-1zm1 0h1v1h-1zm8 0h1v1h-1zm1 0h1v1h-1zm4 0h1v1h-1zm-27 1h1v1h-1zm36 0h1v1h-1zm-36 7h1v1h-1zm36 0h1v1h-1zm-27 2h1v1h-1zm18 0h1v1h-1zm-9 2h1v1h-1zm1 0h1v1h-1zm1 0h1v1h-1zm-7 1h1v1h-1zm3 1h1v1h-1zm5 1h1v1h-1zm4 4h1v1h-1zm-17 2h1v1h-1zm6 0h1v1h-1zm-6 1h1v1h-1zm17 2h1v1h-1zm-4 3h1v1h-1zm6 0h1v1h-1zm-11 1h1v1h-1zm-10 2h1v1h-1zm1 0h1v1h-1zm23 0h1v1h-1zm-28 1h1v1h-1zm20 0h1v1h-1zm12 0h1v1h-1zm-25 3h1v1h-1zm18 0h1v1h-1zm-18 2h1v1h-1zm18 0h1v1h-1zm-27 1h1v1h-1zm36 0h1v1h-1zm-25 8h1v1h-1zm14 0h1v1h-1zm-23 1h1v1h-1zm32 0h1v1h-1zm-30 1h1v1h-1zm28 0h1v1h-1z"/><path fill="#c55" d="M23 18h1v1h-1zm18 0h1v1h-1zm-25 1h1v1h-1zm32 0h1v1h-1zm-35 2h1v1h-1zm38 0h1v1h-1zm-39 1h1v1h-1zm40 0h1v1h-1zm-32 1h1v1h-1zm1 0h1v1h-1zm9 0h1v1h-1zm4 0h1v1h-1zm9 0h1v1h-1zm1 0h1v1h-1zm-29 1h1v1h-1zm34 0h1v1h-1zm-35 1h1v1h-1zm15 0h1v1h-1zm6 0h1v1h-1zm15 0h1v1h-1zm-34 6h1v1h-1zm32 0h1v1h-1zm-22 2h1v1h-1zm2 3h1v1h-1zm1 0h1v1h-1zm-3 1h1v1h-1zm-1 1h1v1h-1zm16 2h1v1h-1zm-9 1h1v1h-1zm1 0h1v1h-1zm-7 3h1v1h-1zm-2 2h1v1h-1zm13 3h1v1h-1zm-24 8h1v1h-1zm38 0h1v1h-1zm-39 1h1v1h-1zm40 0h1v1h-1zm-32 1h1v1h-1zm2 0h1v1h-1zm20 0h1v1h-1zm1 0h1v1h-1zm1 0h1v1h-1zm-29 1h1v1h-1zm34 0h1v1h-1zm-20 1h1v1h-1zm6 0h1v1h-1zm-20 5h1v1h-1zm1 1h1v1h-1zm32 0h1v1h-1zm-21 1h1v1h-1z"/><path fill="#c45" d="M27 20h1v1h-1zm10 0h1v1h-1zm-17 9h1v1h-1zm24 0h1v1h-1zm-29 1h1v1h-1zm34 0h1v1h-1zm-19 6h1v1h-1zm7 0h1v1h-1zm2 10h1v1h-1zm-15 8h1v1h-1zm-8 1h1v1h-1zm32 0h1v1h-1zm-21 2h1v1h-1zm10 0h1v1h-1zm-16 2h1v1h-1zm9 0h1v1h-1zm4 0h1v1h-1zm15 7h1v1h-1zm-12 2h1v1h-1z"/><path fill="#b45" d="M42 47h1v1h-1zM26 58h1v1h-1zm12 0h1v1h-1zm-24 3h1v1h-1zm36 0h1v1h-1zm-33 3h1v1h-1zm30 0h1v1h-1z"/><path fill="#fdd" d="M17 17h1v1h-1zm30 0h1v1h-1zm-32 1h1v1h-1zm34 0h1v1h-1zm-27 1h1v1h-1zm20 0h1v1h-1zm-24 4h1v1h-1zm28 0h1v1h-1zm-29 1h1v1h-1zm14 0h1v1h-1zm2 0h1v1h-1zm14 0h1v1h-1zm-32 2h1v1h-1zm34 0h1v1h-1zm-34 1h1v1h-1zm34 0h1v1h-1zm-23 2h1v1h-1zm-2 4h1v1h-1zm1 0h1v1h-1zm10 0h1v1h-1zm4 0h1v1h-1zm1 0h1v1h-1zm-21 1h1v1h-1zm17 0h1v1h-1zm9 0h1v1h-1zm-12 5h1v1h-1zm-7 1h1v1h-1zm9 1h1v1h-1zm-7 2h1v1h-1zm10 1h1v1h-1zm2 2h1v1h-1zm-6 4h1v1h-1zm-10 1h1v1h-1zm-7 2h1v1h-1zm8 0h1v1h-1zm14 0h1v1h-1zm8 0h1v1h-1zm-32 1h1v1h-1zm22 0h1v1h-1zm12 0h1v1h-1zm-20 2h1v1h-1zm6 0h1v1h-1zm-13 1h1v1h-1zm20 0h1v1h-1zm-21 1h1v1h-1zm22 0h1v1h-1zm-12 2h1v1h-1zm2 0h1v1h-1zm-18 2h1v1h-1zm34 0h1v1h-1zm-34 1h1v1h-1zm34 0h1v1h-1zm-27 1h1v1h-1zm20 0h1v1h-1zm-27 3h1v1h-1zm5 0h1v1h-1zm24 0h1v1h-1zm5 0h1v1h-1zm-33 1h1v1h-1zm6 0h1v1h-1zm20 0h1v1h-1zm6 0h1v1h-1zm-24 1h1v1h-1zm1 0h1v1h-1zm14 0h1v1h-1zm1 0h1v1h-1zm-21 1h1v1h-1zm26 0h1v1h-1z"/><path fill="#d67" d="M24 18h1v1h-1zm16 0h1v1h-1zm-2 36h1v1h-1zm-14 6h1v1h-1z"/><path fill="#b22" d="M19 24h1v1h-1zm10 0h1v1h-1zm6 0h1v1h-1zm10 0h1v1h-1zm-33 1h1v1h-1zm6 0h1v1h-1zm12 0h1v1h-1zm4 0h1v1h-1zm12 0h1v1h-1zm6 0h1v1h-1zm-35 1h1v1h-1zm30 0h1v1h-1zm-29 1h1v1h-1zm28 0h1v1h-1zm-17 2h1v1h-1zm6 0h1v1h-1zm-10 5h1v1h-1zm3 3h1v1h-1zm10 0h1v1h-1zm1 2h1v1h-1zm-15 3h1v1h-1zm10 0h1v1h-1zm1 1h1v1h-1zm6 0h1v1h-1zm1 0h1v1h-1zm-6 1h1v1h-1zm3 0h1v1h-1zm-4 1h1v1h-1zm4 0h1v1h-1zm-15 2h1v1h-1zm15 3h1v1h-1zm-1 2h1v1h-1zm-6 1h1v1h-1zm5 0h1v1h-1zm-10 3h1v1h-1zm2 4h1v1h-1zm6 0h1v1h-1zm10 0h1v1h-1zm-33 1h1v1h-1zm18 0h1v1h-1zm4 0h1v1h-1zm18 0h1v1h-1zm-35 1h1v1h-1zm30 0h1v1h-1zm-29 1h1v1h-1zm28 0h1v1h-1zm-17 2h1v1h-1zm6 0h1v1h-1z"/><path fill="#a12" d="M11 27h1v1h-1zm42 0h1v1h-1zm-29 1h1v1h-1zm6 0h1v1h-1zm4 0h1v1h-1zm6 0h1v1h-1zm-28 1h1v1h-1zm6 0h1v1h-1zm5 0h1v1h-1zm7 0h1v1h-1zm4 0h1v1h-1zm7 0h1v1h-1zm5 0h1v1h-1zm6 0h1v1h-1zm-40 1h1v1h-1zm9 0h1v1h-1zm8 0h1v1h-1zm6 0h1v1h-1zm8 0h1v1h-1zm9 0h1v1h-1zm-39 1h1v1h-1zm38 0h1v1h-1zm-23 1h1v1h-1zm8 0h1v1h-1zm-21 1h1v1h-1zm12 0h1v1h-1zm22 0h1v1h-1zm-33 1h1v1h-1zm10 0h1v1h-1zm22 0h1v1h-1zm-29 1h1v1h-1zm1 0h1v1h-1zm2 0h1v1h-1zm1 0h1v1h-1zm16 0h1v1h-1zm1 0h1v1h-1zm1 0h1v1h-1zm1 0h1v1h-1zm2 0h1v1h-1zm1 0h1v1h-1zm-12 7h1v1h-1zm-3 1h1v1h-1zm12 2h1v1h-1zm-19 1h1v1h-1zm6 0h1v1h-1zm-6 1h1v1h-1zm7 0h1v1h-1zm5 0h1v1h-1zm-11 1h1v1h-1zm8 0h1v1h-1zm1 0h1v1h-1zm8 0h1v1h-1zm-1 1h1v1h-1zm-15 1h1v1h-1zm15 0h1v1h-1zm-12 3h2v1h-2zm2 0h1v1h-1zm5 0h2v1h-2zm4 2h1v1h-1zm-17 5h1v1h-1zm20 0h1v1h-1zm-31 3h1v1h-1zm42 0h1v1h-1zm-29 1h1v1h-1zm6 0h1v1h-1zm4 0h1v1h-1zm6 0h1v1h-1zm-28 1h1v1h-1zm6 0h1v1h-1zm5 0h1v1h-1zm7 0h1v1h-1zm4 0h1v1h-1zm7 0h1v1h-1zm5 0h1v1h-1zm6 0h1v1h-1zm-40 1h1v1h-1zm17 0h1v1h-1zm6 0h1v1h-1zm17 0h1v1h-1zm-39 1h1v1h-1zm38 0h1v1h-1zm-37 1h1v1h-1zm14 0h1v1h-1zm8 0h1v1h-1zm14 0h1v1h-1zm-35 1h1v1h-1zm34 0h1v1h-1zm-24 1h1v1h-1zm14 0h1v1h-1zm-20 1h1v1h-1zm1 0h1v1h-1zm1 0h1v1h-1zm1 0h1v1h-1zm20 0h1v1h-1zm1 0h1v1h-1zm1 0h1v1h-1zm1 0h1v1h-1z"/><path fill="#d9a" d="M31 28h1v1h-1zm2 0h1v1h-1zm-5 31h1v1h-1zm8 0h1v1h-1zm-5 5h1v1h-1zm2 0h1v1h-1z"/><path fill="#e9a" d="M14 29h1v1h-1zm36 0h1v1h-1zm-23 1h1v1h-1zm-11 3h1v1h-1zm32 0h1v1h-1zm-17 2h1v1h-1zm3 11h1v1h-1zm6 1h1v1h-1zm-21 6h1v1h-1zm26 0h1v1h-1zm-9 13h1v1h-1zm-13 3h1v1h-1zm18 0h1v1h-1z"/><path fill="#b77" d="M13 33h1v1h-1zm38 0h1v1h-1zm-37 1h1v1h-1zm36 0h1v1h-1zM29 54h1v1h-1zM13 69h1v1h-1zm38 0h1v1h-1z"/><path fill="#caa" d="M15 35h1v1h-1zm34 0h1v1h-1zm-32 1h1v1h-1zm30 0h1v1h-1z"/><path fill="#ebb" d="M18 17h1v1h-1zm28 0h1v1h-1zm-20 1h1v1h-1zm12 0h1v1h-1zm-24 1h1v1h-1zm36 0h1v1h-1zm-31 2h1v1h-1zm26 0h1v1h-1zm-34 2h1v1h-1zm42 0h1v1h-1zm-28 5h1v1h-1zm14 0h1v1h-1zm-23 2h1v1h-1zm2 0h1v1h-1zm28 0h1v1h-1zm2 0h1v1h-1zm-33 2h1v1h-1zm34 0h1v1h-1zm-31 1h1v1h-1zm28 0h1v1h-1zm-18 5h1v1h-1zm13 1h1v1h-1zm-18 1h1v1h-1zm4 2h1v1h-1zm11 1h1v1h-1zm-2 4h1v1h-1zm-4 2h1v1h-1zm6 0h1v1h-1zm-1 2h1v1h-1zm-2 1h1v1h-1zm-17 1h1v1h-1zm28 0h1v1h-1zm-22 3h1v1h-1zm16 0h1v1h-1zm-24 1h1v1h-1zm32 0h1v1h-1zm-33 1h1v1h-1zm2 0h1v1h-1zm30 0h1v1h-1zm2 0h1v1h-1zm-38 1h1v1h-1zm5 0h1v1h-1zm32 0h1v1h-1zm-23 5h1v1h-1zm-9 2h1v1h-1zm32 0h1v1h-1zm-31 1h1v1h-1zm30 0h1v1h-1zm-32 1h1v1h-1zm34 0h1v1h-1zm-31 1h1v1h-1zm28 0h1v1h-1zm-23 1h1v1h-1zm18 0h1v1h-1z"/><path fill="#b88" d="M24 72h1v1h-1zm16 0h1v1h-1z"/><path fill="#c56" d="M24 19h1v1h-1zm16 0h1v1h-1zm-18 4h1v1h-1zm20 0h1v1h-1zm-28 5h1v1h-1zm15 0h1v1h-1zm6 0h1v1h-1zm15 0h1v1h-1zm-23 4h1v1h-1zm10 0h1v1h-1zm1 1h1v1h-1zm-15 8h1v1h-1zm15 1h1v1h-1zm-2 1h1v1h-1zm-10 2h1v1h-1zm7 2h1v1h-1zm-6 1h1v1h-1zm-1 2h1v1h-1zm10 0h1v1h-1zm-9 1h1v1h-1zm-9 3h1v1h-1zm28 0h1v1h-1zm-32 2h1v1h-1zm36 0h1v1h-1zm-15 1h1v1h-1zm-18 4h1v1h-1zm30 0h1v1h-1zm-33 3h1v1h-1zm15 0h1v1h-1zm6 0h1v1h-1zm15 0h1v1h-1zm-29 1h1v1h-1zm22 0h1v1h-1zm-17 1h1v1h-1zm12 0h1v1h-1z"/><path fill="#b44" d="M26 23h1v1h-1zm12 0h1v1h-1zm-21 5h1v1h-1zm30 0h1v1h-1zm-18 9h1v1h-1zm-1 3h1v1h-1zm11 3h1v1h-1zM26 56h1v1h-1zm12 0h1v1h-1zm-12 3h1v1h-1zm12 0h1v1h-1z"/><path fill="#911" d="M20 30h1v1h-1zm24 0h1v1h-1zm-15 1h1v1h-1zm6 0h1v1h-1zm-22 1h1v1h-1zm38 0h1v1h-1zm-37 1h1v1h-1zm36 0h1v1h-1zm-32 2h1v1h-1zm28 0h1v1h-1zM31 48h1v1h-1zm-7 1h1v1h-1zm-3 7h1v1h-1zm22 0h1v1h-1zM20 66h1v1h-1zm1 0h1v1h-1zm22 0h1v1h-1zm1 0h1v1h-1zm-15 1h1v1h-1zm6 0h1v1h-1zm-22 1h1v1h-1zm38 0h1v1h-1zm-37 1h1v1h-1zm13 0h1v1h-1zm10 0h1v1h-1zm13 0h1v1h-1zm-34 1h1v1h-1zm10 0h1v1h-1zm12 0h1v1h-1zm10 0h1v1h-1zm-30 1h1v1h-1zm5 0h1v1h-1zm18 0h1v1h-1zm5 0h1v1h-1z"/><path fill="#833" d="M16 71h1v1h-1zm32 0h1v1h-1z"/><path fill="#d88" d="M25 18h1v1h-1zm14 0h1v1h-1zm-21 1h1v1h-1zm9 0h1v1h-1zm10 0h1v1h-1zm9 0h1v1h-1zm-30 1h1v1h-1zm32 0h1v1h-1zm-25 1h1v1h-1zm18 0h1v1h-1zm-27 1h1v1h-1zm36 0h1v1h-1zm-37 2h1v1h-1zm38 0h1v1h-1zm-26 2h1v1h-1zm14 0h1v1h-1zm-16 1h1v1h-1zm2 0h1v1h-1zm6 0h1v1h-1zm2 0h1v1h-1zm6 0h1v1h-1zm2 0h1v1h-1zm-23 5h1v1h-1zm28 0h1v1h-1zm-27 1h1v1h-1zm26 0h1v1h-1zm-5 1h1v1h-1zm-1 3h1v1h-1zm1 1h1v1h-1zm-1 2h1v1h-1zm-14 1h1v1h-1zm4 1h1v1h-1zm-1 3h1v1h-1zm0 5h1v1h-1zm1 2h1v1h-1zm12 1h1v1h-1zm1 0h1v1h-1zm-28 5h1v1h-1zm36 0h1v1h-1zm-37 2h1v1h-1zm38 0h1v1h-1zm-26 2h1v1h-1zm6 0h1v1h-1zm2 0h1v1h-1zm6 0h1v1h-1zm-16 1h1v1h-1zm2 0h1v1h-1zm6 0h1v1h-1zm2 0h1v1h-1zm6 0h1v1h-1zm2 0h1v1h-1zm-22 1h1v1h-1zm26 0h1v1h-1zm-32 1h1v1h-1zm38 0h1v1h-1zm-32 4h1v1h-1zm26 0h1v1h-1z"/><path fill="#ecc" d="M24 17h1v1h-1zm16 0h1v1h-1zm-21 2h1v1h-1zm26 0h1v1h-1zm-21 1h1v1h-1zm1 0h1v1h-1zm14 0h1v1h-1zm1 0h1v1h-1zm-28 1h1v1h-1zm4 0h1v1h-1zm32 0h1v1h-1zm4 0h1v1h-1zm-37 1h1v1h-1zm34 0h1v1h-1zm-23 2h1v1h-1zm12 0h1v1h-1zm-25 1h1v1h-1zm9 0h1v1h-1zm3 0h1v1h-1zm3 0h1v1h-1zm8 0h1v1h-1zm3 0h1v1h-1zm3 0h1v1h-1zm9 0h1v1h-1zm-38 3h1v1h-1zm15 0h1v1h-1zm8 0h1v1h-1zm15 0h1v1h-1zm-34 1h1v1h-1zm14 0h1v1h-1zm2 0h1v1h-1zm14 0h1v1h-1zm-32 2h1v1h-1zm2 0h1v1h-1zm4 0h1v1h-1zm22 0h1v1h-1zm4 0h1v1h-1zm2 0h1v1h-1zm-33 1h1v1h-1zm3 0h1v1h-1zm26 0h1v1h-1zm3 0h1v1h-1zm-25 2h1v1h-1zm18 0h1v1h-1zm-12 1h1v1h-1zm7 0h1v1h-1zm-5 2h1v1h-1zm0 2h1v1h-1zm6 0h1v1h-1zm1 1h1v1h-1zm-13 6h1v1h-1zm3 0h1v1h-1zm-1 1h1v1h-1zm10 1h1v1h-1zm-4 1h1v1h-1zm-3 3h1v1h-1zm-18 5h1v1h-1zm40 0h1v1h-1zm-34 2h1v1h-1zm28 0h1v1h-1zm-29 1h1v1h-1zm30 0h1v1h-1zm-34 1h1v1h-1zm9 0h1v1h-1zm6 0h1v1h-1zm8 0h1v1h-1zm6 0h1v1h-1zm9 0h1v1h-1zm-38 3h1v1h-1zm15 0h1v1h-1zm8 0h1v1h-1zm15 0h1v1h-1zm-34 1h1v1h-1zm9 0h1v1h-1zm12 0h1v1h-1zm9 0h1v1h-1zm-29 1h1v1h-1zm28 0h1v1h-1z"/><path fill="#b33" d="M21 18h1v1h-1zm22 0h1v1h-1zm-26 1h1v1h-1zm30 0h1v1h-1zm-33 2h1v1h-1zm36 0h1v1h-1zm-37 2h1v1h-1zm38 0h1v1h-1zm-40 2h1v1h-1zm16 0h1v1h-1zm10 0h1v1h-1zm16 0h1v1h-1zm-39 1h1v1h-1zm36 0h1v1h-1zm-36 1h1v1h-1zm36 0h1v1h-1zm-28 2h1v1h-1zm20 0h1v1h-1zm-5 5h1v1h-1zm2 0h1v1h-1zm-13 4h1v1h-1zm1 0h1v1h-1zm-3 3h1v1h-1zm3 0h1v1h-1zm13 0h1v1h-1zm-14 1h1v1h-1zm3 1h1v1h-1zm7 3h1v1h-1zm1 6h1v1h-1zm-17 2h1v1h-1zm24 0h1v1h-1zm-7 1h1v1h-1zm-1 1h1v2h-1zm-22 1h1v1h-1zm36 0h1v1h-1zm-22 1h1v1h-1zm8 0h1v1h-1zm-13 2h1v1h-1zm18 0h1v1h-1zm-27 2h1v1h-1zm36 0h1v1h-1zm-36 1h1v1h-1zm36 0h1v1h-1zm-37 3h1v1h-1zm38 0h1v1h-1z"/><path fill="#fde" d="M22 28h1v1h-1zm20 0h1v1h-1zm-20 4h1v1h-1zm20 0h1v1h-1zM31 46h1v1h-1z"/><path fill="#fcd" d="M38 29h1v1h-1zm-2 13h1v1h-1zm0 7h1v1h-1zm2 1h1v1h-1zm-9 1h1v1h-1zm-4 1h1v1h-1z"/><path fill="#eee" d="M3 1h1v1H3zm59 0h1v1h-1zM2 2h1v1H2zm61 0h1v1h-1zM1 3h1v1H1zm63 0h1v1h-1zM1 4h1v1H1zm63 0h1v1h-1zM1 5h1v1H1zm63 0h1v1h-1zM2 6h1v1H2zm61 0h1v1h-1zM2 7h1v1H2zm61 0h1v1h-1zM2 8h1v74H2zm61 0h1v74h-1zM32 55h1v1h-1zM2 82h1v1H2zm61 0h1v1h-1zM2 83h1v1H2zm61 0h1v1h-1zM3 84h1v1H3zm1 0h1v1H4zm57 0h1v1h-1zm1 0h1v1h-1zM9 85h48v1H9z"/><path fill="#a33" d="M21 24h1v1h-1zm22 0h1v1h-1zm-24 6h1v1h-1zm11 0h1v1h-1zm4 0h1v1h-1zm11 0h1v1h-1zm-16 2h1v1h-1zm-6 16h1v1h-1zm-2 12h1v1h-1zm22 0h1v1h-1zm-13 6h1v1h-1zm4 0h1v1h-1z"/><path fill="#a34" d="M35 32h1v1h-1zm-4 6h1v1h-1zm-7 12h1v1h-1zm-5 6h1v1h-1zm26 0h1v1h-1zM19 66h1v1h-1zm26 0h1v1h-1zm-16 2h1v1h-1zm6 0h1v1h-1z"/><path fill="#a44" d="M19 20h1v1h-1zm26 0h1v1h-1zM35 54h1v1h-1z"/><path fill="#b12" d="M22 24h1v1h-1zm20 0h1v1h-1zm-31 2h1v1h-1zm1 0h1v1h-1zm6 0h1v1h-1zm6 0h1v1h-1zm6 0h1v1h-1zm4 0h1v1h-1zm6 0h1v1h-1zm6 0h1v1h-1zm6 0h1v1h-1zm1 0h1v1h-1zm-41 1h1v1h-1zm5 0h1v1h-1zm7 0h1v1h-1zm6 0h1v1h-1zm4 0h1v1h-1zm6 0h1v1h-1zm7 0h1v1h-1zm5 0h1v1h-1zm-40 1h1v1h-1zm6 0h1v1h-1zm28 0h1v1h-1zm6 0h1v1h-1zm-33 1h1v1h-1zm26 0h1v1h-1zm-31 3h1v1h-1zm36 0h1v1h-1zm-13 1h1v1h-1zm1 1h1v1h-1zm-17 1h1v1h-1zm22 0h1v1h-1zm-6 2h1v1h-1zm1 1h1v1h-1zm-7 4h1v1h-1zm-8 1h1v1h-1zm0 1h1v1h-1zm6 0h1v1h-1zm6 0h1v1h-1zm6 0h1v1h-1zm1 0h1v1h-1zm-19 1h1v1h-1zm6 0h1v1h-1zm7 0h1v1h-1zm5 0h1v1h-1zm-6 1h1v1h-1zm6 0h1v1h-1zm-7 1h1v1h-1zm7 0h1v1h-1zm-15 4h1v1h-1zm13 0h1v1h-1zm-12 1h1v1h-1zm4 1h1v1h-1zm2 0h1v1h-1zm1 0h1v1h-1zm-9 2h1v1h-1zm13 0h1v1h-1zm-1 1h1v1h-1zm-18 4h1v1h-1zm-1 1h1v1h-1zm28 0h1v1h-1zm-35 1h1v1h-1zm1 0h1v1h-1zm6 0h1v1h-1zm6 0h1v1h-1zm6 0h1v1h-1zm4 0h1v1h-1zm6 0h1v1h-1zm6 0h1v1h-1zm6 0h1v1h-1zm1 0h1v1h-1zm-41 1h1v1h-1zm5 0h1v1h-1zm7 0h1v1h-1zm6 0h1v1h-1zm4 0h1v1h-1zm6 0h1v1h-1zm7 0h1v1h-1zm5 0h1v1h-1zm-40 1h1v1h-1zm6 0h1v1h-1zm28 0h1v1h-1zm6 0h1v1h-1zm-33 1h1v1h-1zm26 0h1v1h-1z"/><path fill="#d89" d="M31 26h1v1h-1zm2 0h1v1h-1zm-14 2h1v1h-1zm26 0h1v1h-1zm-32 1h1v1h-1zm38 0h1v1h-1zm-26 3h1v1h-1zm14 0h1v1h-1zm1 10h1v1h-1zM22 53h1v1h-1zm21 0h1v1h-1zm-25 2h1v1h-1zm28 0h1v1h-1zm-30 1h1v1h-1zm32 0h1v1h-1zm-21 3h1v1h-1zm10 0h1v1h-1zm-23 8h1v1h-1zm36 0h1v1h-1z"/><path fill="#b78" d="M24 36h1v1h-1zM14 70h1v1h-1zm36 0h1v1h-1z"/><path fill="#e99" d="M22 17h1v1h-1zm20 0h1v1h-1zM23 53h1v1h-1zm15 0h1v1h-1z"/><path fill="#b55" d="M18 21h1v1h-1zm28 0h1v1h-1zm-21 1h1v1h-1zm1 0h1v1h-1zm12 0h1v1h-1zm1 0h1v1h-1zm-15 7h1v1h-1zm16 0h1v1h-1zm-5 10h1v1h-1zm-6 8h1v1h-1zm-5 18h1v1h-1zm16 0h1v1h-1z"/><path fill="#c77" d="M23 26h1v1h-1zm18 0h1v1h-1zM30 38h1v1h-1zm-7 24h1v1h-1zm18 0h1v1h-1zm-18 4h1v1h-1zm18 0h1v1h-1z"/><path fill="#923" d="M12 31h1v1h-1zm40 0h1v1h-1zm-19 7h1v1h-1zM12 67h1v1h-1zm40 0h1v1h-1z"/><path fill="#811" d="M15 34h1v1h-1zm34 0h1v1h-1zm-32 1h1v1h-1zm30 0h1v1h-1zm-5 1h1v1h-1zm-8 18h1v1h-1zM15 70h1v1h-1zm34 0h1v1h-1zm-32 1h1v1h-1zm7 0h1v1h-1zm1 0h1v1h-1zm14 0h1v1h-1zm1 0h1v1h-1zm7 0h1v1h-1z"/><path fill="#822" d="M16 35h1v1h-1zm32 0h1v1h-1z"/><path fill="#844" d="M23 72h1v1h-1zm18 0h1v1h-1z"/><path fill="#666" d="M0 88h1v1H0zm1 0h1v1H1zm63 0h1v1h-1zm1 0h1v1h-1zM1 89h1v1H1zm1 0h1v1H2zm1 0h1v1H3zm1 0h58v1H4zm58 0h1v1h-1zm1 0h1v1h-1zm1 0h1v1h-1z"/><path fill="#c44" d="M19 18h1v1h-1zm26 0h1v1h-1zm-18 3h1v1h-1zm1 0h1v1h-1zm8 0h1v1h-1zm1 0h1v1h-1zm-8 1h1v1h-1zm6 0h1v1h-1zm-17 2h1v1h-1zm28 0h1v1h-1zm-23 4h1v1h-1zm4 0h1v1h-1zm10 0h1v1h-1zm4 0h1v1h-1zm-10 8h1v1h-1zm3 0h1v1h-1zm1 0h1v1h-1zm1 0h1v1h-1zm-11 3h1v1h-1zm15 0h1v1h-1zm-16 1h1v1h-1zm11 2h1v1h-1zm-11 1h1v1h-1zm2 4h1v1h-1zm12 1h1v1h-1zm2 0h1v1h-1zm-21 6h1v1h-1zm4 0h1v1h-1zm2 0h1v1h-1zm20 0h1v1h-1zm-17 2h1v1h-1zm1 2h1v1h-1zm6 0h1v1h-1zm-17 2h1v1h-1zm28 0h1v1h-1zm-19 4h1v1h-1zm10 0h1v1h-1zm-17 1h1v1h-1zm7 0h1v1h-1zm10 0h1v1h-1zm7 0h1v1h-1z"/></svg>