<svg xmlns="http://www.w3.org/2000/svg" width="66" height="90" baseProfile="tiny" version="1.2"><path fill="#bbb" d="M0 1h1v1H0zm1 0h1v1H1zm63 0h1v1h-1zm1 0h1v1h-1zM29 19h1v1h-1zm1 0h1v1h-1zm1 0h1v1h-1zm2 0h1v1h-1zm1 0h1v1h-1zm1 0h1v1h-1zM12 41h1v1h-1zm40 0h1v1h-1zm-40 5h1v1h-1zm40 0h1v1h-1zm-5 11h1v1h-1zm-36 1h1v1h-1zm7 0h1v1h-1zm28 0h1v1h-1zm7 0h1v1h-1zm-31 3h1v1h-1zm20 0h1v1h-1zm-18 1h1v1h-1zm16 0h1v1h-1zm-14 6h1v1h-1zm12 0h1v1h-1zM1 85h1v1H1zm63 0h1v1h-1zM2 86h1v1H2zm1 0h1v1H3zm59 0h1v1h-1zm1 0h1v1h-1z"/><path fill="#554" d="M18 25h1v1h-1zm28 0h1v1h-1zm-35 6h1v1h-1zm42 0h1v1h-1z"/><path fill="#c34" d="M21 31h1v1h-1zm22 0h1v1h-1zm-23 1h1v1h-1zm24 0h1v1h-1zm-25 1h1v1h-1zm26 0h1v1h-1zm-27 1h1v1h-1zm28 0h1v1h-1zm-29 1h1v1h-1zm30 0h1v1h-1zm-24 4h1v1h-1zm18 0h1v1h-1zm-15 7h1v1h-1zm12 0h1v1h-1zm-12 2h1v1h-1zm12 0h1v1h-1zm-20 2h1v1h-1zm10 0h1v1h-1zm8 0h1v1h-1zm10 0h1v1h-1zm-28 1h1v1h-1zm13 0h1v1h-1zm2 0h1v1h-1zm13 0h1v1h-1zm-24 5h1v1h-1zm20 0h1v1h-1zm-14 3h1v1h-1zm8 0h1v1h-1z"/><path fill="#c9a" d="M29 39h1v1h-1zm6 0h1v1h-1zM23 59h1v1h-1zm18 0h1v1h-1z"/><path fill="#110" d="M30 22h1v1h-1zm1 0h3v1h-3zm3 0h1v1h-1zm-8 1h1v1h-1zm12 0h1v1h-1zm-15 1h1v1h-1zm18 0h1v1h-1zm-20 1h1v1h-1zm1 0h1v1h-1zm20 0h1v1h-1zm1 0h1v1h-1zm-23 1h1v1h-1zm1 0h1v1h-1zm22 0h1v1h-1zm1 0h1v1h-1zm-25 1h1v1h-1zm26 0h1v1h-1zm-27 1h1v1h-1zm28 0h1v1h-1zm-29 1h1v1h-1zm30 0h1v1h-1zm-31 1h1v1h-1zm32 0h1v1h-1zm-33 1h1v1h-1zm34 0h1v1h-1zM11 56h1v1h-1zm42 0h1v1h-1zm-41 2h1v1h-1zm40 0h1v1h-1zm-39 1h1v1h-1zm38 0h1v1h-1zm-37 1h1v1h-1zm36 0h1v1h-1zm-35 1h1v1h-1zm34 0h1v1h-1zm-32 1h1v1h-1zm30 0h1v1h-1zm-30 1h1v1h-1zm1 0h1v1h-1zm28 0h1v1h-1zm1 0h1v1h-1zm-27 1h1v1h-1zm24 0h1v1h-1zm-22 1h1v1h-1zm20 0h1v1h-1zm-17 1h1v1h-1zm1 0h1v1h-1zm12 0h1v1h-1zm1 0h1v1h-1zm-14 1h1v1h-1zm5 0h1v1h-1zm1 0h3v1h-3zm3 0h1v1h-1zm5 0h1v1h-1zm-8 1h1v1h-1zm2 0h1v1h-1z"/><path fill="#812" d="M25 30h1v1h-1zm14 0h1v1h-1zm-17 2h1v1h-1zm20 0h1v1h-1z"/><path fill="#c02" d="M23 30h1v1h-1zm18 0h1v1h-1zm-23 5h1v1h-1zm28 0h1v1h-1zm-31 5h1v1h-1zm34 0h1v1h-1zm-34 1h1v1h-1zm34 0h1v1h-1zm-34 1h1v1h-1zm9 0h1v1h-1zm16 0h1v1h-1zm9 0h1v1h-1zm-34 1h1v1h-1zm9 0h1v1h-1zm16 0h1v1h-1zm9 0h1v1h-1zm-33 1h1v1h-1zm8 0h1v1h-1zm1 0h1v1h-1zm14 0h1v1h-1zm1 0h1v1h-1zm8 0h1v1h-1zm-24 1h1v1h-1zm16 0h1v1h-1zm-24 3h1v1h-1zm32 0h1v1h-1z"/><path fill="#b13" d="M38 44h1v1h-1z"/><path fill="#d56" d="M30 27h1v1h-1zm4 0h1v1h-1zm-8 1h1v1h-1zm12 0h1v1h-1zm-16 2h1v1h-1zm20 0h1v1h-1zm-23 2h1v1h-1zm26 0h1v1h-1zm-27 1h1v1h-1zm28 0h1v1h-1zm-14 2h1v1h-1zm-6 2h1v1h-1zm12 0h1v1h-1zm-23 1h1v1h-1zm9 0h1v1h-1zm16 0h1v1h-1zm9 0h1v1h-1zm-22 9h1v1h-1zm10 0h1v1h-1zm-10 1h1v1h-1zm10 0h1v1h-1zm-8 11h1v1h-1zm6 0h1v1h-1z"/><path fill="#ecc" d="M18 39h1v1h-1zm28 0h1v1h-1zm-18 1h1v1h-1zm8 0h1v1h-1zm-15 3h1v1h-1zm22 0h1v1h-1zm-22 1h1v1h-1zm22 0h1v1h-1zm-29 3h1v1h-1zm36 0h1v1h-1zm-28 1h1v1h-1zm20 0h1v1h-1z"/><path fill="#a23" d="M16 51h1v1h-1zm32 0h1v1h-1z"/><path fill="#aaa" d="M0 2h1v1H0zm65 0h1v1h-1zM25 20h1v1h-1zm1 0h1v1h-1zm12 0h1v1h-1zm1 0h1v1h-1zm-17 1h1v1h-1zm20 0h1v1h-1zM7 38h1v1H7zm50 0h1v1h-1zM7 49h1v1H7zm50 0h1v1h-1zM19 59h1v1h-1zm26 0h1v1h-1zm-19 4h1v1h-1zm12 0h1v1h-1zm-8 1h1v1h-1zm1 0h1v1h-1zm1 0h1v1h-1zm1 0h1v1h-1zm1 0h1v1h-1zM1 86h1v1H1zm63 0h1v1h-1zM2 87h1v1H2zm1 0h1v1H3zm1 0h1v1H4zm1 0h56v1H5zm56 0h1v1h-1zm1 0h1v1h-1zm1 0h1v1h-1zM4 88h1v1H4zm1 0h56v1H5zm56 0h1v1h-1z"/><path fill="#eed" d="M7 50h1v1H7zm50 0h1v1h-1z"/><path fill="#ccc" d="M1 0h1v1H1zm1 0h1v1H2zm61 0h1v1h-1zm1 0h1v1h-1zM1 2h1v1H1zm63 0h1v1h-1zM28 19h1v1h-1zm8 0h1v1h-1zm-15 2h1v1h-1zm22 0h1v1h-1zm-24 1h1v1h-1zm26 0h1v1h-1zm-29 2h1v1h-1zm13 0h1v1h-1zm6 0h1v1h-1zm13 0h1v1h-1zm-23 1h1v1h-1zm14 0h1v1h-1zm-18 2h1v1h-1zm22 0h1v1h-1zM13 37h1v1h-1zm38 0h1v1h-1zM13 50h1v1h-1zm38 0h1v1h-1zM17 64h1v1h-1zm30 0h1v1h-1zM1 84h1v1H1zm63 0h1v1h-1zM2 85h1v1H2zm61 0h1v1h-1zM4 86h1v1H4zm1 0h1v1H5zm1 0h1v1H6zm1 0h52v1H7zm52 0h1v1h-1zm1 0h1v1h-1zm1 0h1v1h-1z"/><path fill="#cbb" d="M24 20h1v1h-1zm16 0h1v1h-1zM27 63h1v1h-1zm10 0h1v1h-1z"/><path fill="#222" d="M26 24h1v1h-1zm12 0h1v1h-1zM11 34h1v1h-1zm42 0h1v1h-1zM9 38h1v1H9zm3 0h1v1h-1zm43 0h1v1h-1zM12 54h1v1h-1zm40 0h1v1h-1zm-41 3h1v1h-1zm42 0h1v1h-1z"/><path fill="#eaa" d="M26 27h1v1h-1zm12 0h1v1h-1zm-9 7h2v1h-2zm2 0h1v1h-1zm2 0h1v1h-1zm1 0h2v1h-2z"/><path fill="#dcc" d="M15 33h1v1h-1zm34 0h1v1h-1z"/><path fill="#888" d="M0 5h1v1H0zm65 0h1v1h-1zM0 6h1v1H0zm65 0h1v1h-1zM0 7h1v1H0zm65 0h1v1h-1zM0 8h1v73H0zm65 0h1v73h-1zM25 21h1v1h-1zm14 0h1v1h-1zm-17 1h1v1h-1zm20 0h1v1h-1zm-24 7h1v1h-1zm28 0h1v1h-1zm-29 1h1v1h-1zm30 0h1v1h-1zM8 52h1v1H8zm48 0h1v1h-1zm-44 7h1v1h-1zm40 0h1v1h-1zm-30 3h1v1h-1zm20 0h1v1h-1zm-26 1h1v1h-1zm32 0h1v1h-1zm-22 1h1v1h-1zm12 0h1v1h-1zm-19 1h1v1h-1zm12 0h1v1h-1zm1 0h1v1h-1zm1 0h1v1h-1zm12 0h1v1h-1zM0 81h1v2H0zm65 0h1v2h-1zM0 83h1v1H0zm65 0h1v1h-1zM1 87h1v1H1zm63 0h1v1h-1zM2 88h1v1H2zm61 0h1v1h-1z"/><path fill="#544" d="M28 21h1v1h-1zm8 0h1v1h-1zm-12 1h1v1h-1zm16 0h1v1h-1zM10 32h1v1h-1zm1 0h1v1h-1zm42 0h1v1h-1zm1 0h1v1h-1zM7 40h1v1H7zm50 0h1v1h-1zM7 47h1v1H7zm50 0h1v1h-1zm-44 7h1v1h-1zm1 0h1v1h-1zm36 0h1v1h-1zm1 0h1v1h-1zm-37 2h1v1h-1zm36 0h1v1h-1zm-30 6h1v1h-1zm24 0h1v1h-1zm-17 3h1v1h-1zm10 0h1v1h-1z"/><path fill="#d9a" d="M14 46h1v1h-1zm36 0h1v1h-1zm-34 6h1v1h-1zm32 0h1v1h-1z"/><path fill="#822" d="M25 51h1v1h-1zm14 0h1v1h-1zm-15 8h1v1h-1zm16 0h1v1h-1z"/><path fill="#443" d="M13 52h1v1h-1zm38 0h1v1h-1z"/><path fill="#b77" d="M32 54h1v1h-1z"/><path fill="#fdd" d="M28 26h1v1h-1zm8 0h1v1h-1zm-16 4h1v1h-1zm24 0h1v1h-1zm-13 3h1v1h-1zm1 0h1v1h-1zm1 0h1v1h-1zm-6 1h1v1h-1zm10 0h1v1h-1zm-15 5h1v1h-1zm20 0h1v1h-1zm-21 6h1v1h-1zm22 0h1v1h-1zm-15 2h1v1h-1zm8 0h1v1h-1zm-7 1h1v1h-1zm6 0h1v1h-1zm-3 1h1v1h-1zm-15 5h1v1h-1zm30 0h1v1h-1zm-26 4h1v1h-1zm9 0h1v1h-1zm4 0h1v1h-1zm9 0h1v1h-1z"/><path fill="#801" d="M31 28h1v1h-1zm1 0h1v1h-1zm1 0h1v1h-1zm-10 3h1v1h-1zm18 0h1v1h-1zm-11 6h1v1h-1zm4 0h1v1h-1zm-6 1h1v1h-1zm8 0h1v1h-1zm-9 2h1v1h-1zm10 0h1v1h-1zm-14 8h1v1h-1zm1 1h1v1h-1zm16 0h1v1h-1zm-15 1h1v1h-1zm14 0h1v1h-1zm-12 1h1v1h-1zm10 0h1v1h-1zm-8 1h1v1h-1zm6 0h1v1h-1zm-12 6h1v1h-1zm18 0h1v1h-1zm-16 1h1v1h-1zm14 0h1v1h-1zm-12 1h1v1h-1zm1 0h1v1h-1zm8 0h1v1h-1zm1 0h1v1h-1z"/><path fill="#ddc" d="M11 29h1v1h-1zm42 0h1v1h-1z"/><path fill="#c78" d="M27 41h1v1h-1zm10 0h1v1h-1z"/><path fill="#ddd" d="M3 0h1v1H3zm1 0h1v1H4zm1 0h56v1H5zm56 0h1v1h-1zm1 0h1v1h-1zM2 1h1v1H2zm61 0h1v1h-1zM1 6h1v1H1zm63 0h1v1h-1zM1 7h1v1H1zm63 0h1v1h-1zM1 8h1v1H1zm63 0h1v1h-1zM1 9h1v73H1zm63 0h1v73h-1zM27 19h1v1h-1zm10 0h1v1h-1zm-14 1h1v1h-1zm18 0h1v1h-1zM12 42h1v1h-1zm40 0h1v1h-1zm-40 3h1v1h-1zm40 0h1v1h-1zm-37 9h1v1h-1zm34 0h1v1h-1zM9 55h1v1H9zm46 0h1v1h-1zm-27 8h1v1h-1zm8 0h1v1h-1zM1 82h1v1H1zm63 0h1v1h-1zM1 83h1v1H1zm63 0h1v1h-1zM2 84h1v1H2zm61 0h1v1h-1zM3 85h1v1H3zm1 0h1v1H4zm1 0h1v1H5zm1 0h1v1H6zm1 0h2v1H7zm50 0h2v1h-2zm2 0h1v1h-1zm1 0h1v1h-1zm1 0h1v1h-1zm1 0h1v1h-1z"/><path fill="#333" d="M16 27h1v1h-1zm4 0h1v1h-1zm24 0h1v1h-1zm4 0h1v1h-1zm-33 1h1v1h-1zm34 0h1v1h-1zM9 35h1v1H9zm46 0h1v1h-1zM12 49h1v1h-1zm40 0h1v1h-1zM8 51h1v1H8zm4 0h1v1h-1zm40 0h1v1h-1zm4 0h1v1h-1zm-41 7h1v1h-1zm34 0h1v1h-1zM29 68h1v1h-1zm6 0h1v1h-1z"/><path fill="#ebc" d="M24 56h1v1h-1zm16 0h1v1h-1z"/><path fill="#baa" d="M15 25h1v1h-1zm34 0h1v1h-1z"/><path fill="#dab" d="M31 29h1v1h-1zm2 0h1v1h-1zm-6 24h1v1h-1zm10 0h1v1h-1z"/><path fill="#fde" d="M21 42h1v1h-1zm22 0h1v1h-1zM23 55h1v1h-1zm18 0h1v1h-1z"/><path fill="#a45" d="M31 61h1v1h-1zm2 0h1v1h-1z"/><path fill="#221" d="M31 21h1v1h-1zm2 0h1v1h-1zM8 37h1v1H8zm48 0h1v1h-1zM7 42h1v1H7zm50 0h1v1h-1zm-47 6h2v1h-2zm43 0h2v1h-2zm-42 4h1v1h-1zm42 0h1v1h-1z"/><path fill="#c99" d="M30 29h1v1h-1zm4 0h1v1h-1z"/><path fill="#c13" d="M16 38h1v1h-1zm32 0h1v1h-1zm-33 1h1v1h-1zm34 0h1v1h-1zm-27 2h2v1h-2zm19 0h2v1h-2zM30 51h1v1h-1zm4 0h1v1h-1z"/><path fill="#c88" d="M29 61h1v1h-1zm6 0h1v1h-1z"/><path fill="#111" d="M27 22h1v1h-1zm1 0h1v1h-1zm1 0h1v1h-1zm6 0h1v1h-1zm1 0h1v1h-1zm1 0h1v1h-1zm-13 1h1v1h-1zm1 0h1v1h-1zm14 0h1v1h-1zm1 0h1v1h-1zm-18 1h1v1h-1zm20 0h1v1h-1zm-22 1h1v1h-1zm3 0h1v1h-1zm18 0h1v1h-1zm3 0h1v1h-1zm-25 1h1v1h-1zm26 0h1v1h-1zm-27 1h1v1h-1zm28 0h1v1h-1zm-29 1h1v1h-1zm30 0h1v1h-1zm-31 1h1v1h-1zm32 0h1v1h-1zm-33 1h1v1h-1zm34 0h1v1h-1zm-35 1h1v1h-1zm36 0h1v1h-1zm-36 1h1v1h-1zm36 0h1v1h-1zm-37 1h1v1h-1zm1 0h1v1h-1zm36 0h1v1h-1zm1 0h1v1h-1zm-39 1h1v1h-1zm1 0h1v1h-1zm38 0h1v1h-1zm1 0h1v1h-1zm-40 1h1v1h-1zm40 0h1v1h-1zm-40 1h1v2h-1zm40 0h1v2h-1zm-41 1h1v1h-1zm42 0h1v1h-1zm-42 1h1v3h-1zm42 0h1v3h-1zm-42 3h1v1h-1zm42 0h1v1h-1zM8 47h1v1H8zm48 0h1v1h-1zM8 48h1v1H8zm48 0h1v1h-1zM8 49h1v1H8zm48 0h1v1h-1zM8 50h1v1H8zm1 0h1v1H9zm46 0h1v1h-1zm1 0h1v1h-1zM9 51h1v1H9zm46 0h1v1h-1zM9 52h1v2H9zm46 0h1v2h-1zm-45 1h1v1h-1zm44 0h1v1h-1zm-44 1h1v1h-1zm1 0h1v1h-1zm42 0h1v1h-1zm1 0h1v1h-1zm-44 1h1v1h-1zm1 0h1v1h-1zm42 0h1v1h-1zm1 0h1v1h-1zm-42 1h1v1h-1zm40 0h1v1h-1zm-40 1h1v1h-1zm1 0h1v1h-1zm38 0h1v1h-1zm1 0h1v1h-1zm-39 1h1v1h-1zm38 0h1v1h-1zm-37 1h1v1h-1zm36 0h1v1h-1zm-35 1h1v1h-1zm34 0h1v1h-1zm-33 1h1v1h-1zm32 0h1v1h-1zm-30 1h1v1h-1zm28 0h1v1h-1zm-27 1h1v1h-1zm26 0h1v1h-1zm-24 1h1v1h-1zm22 0h1v1h-1zm-23 1h1v1h-1zm3 0h1v1h-1zm1 0h1v1h-1zm16 0h1v1h-1zm1 0h1v1h-1zm3 0h1v1h-1zm-22 1h1v1h-1zm5 0h1v1h-1zm1 0h1v1h-1zm8 0h1v1h-1zm1 0h1v1h-1zm5 0h1v1h-1z"/><path fill="#d77" d="M30 35h1v1h-1zm4 0h1v1h-1zm-12 5h1v1h-1zm20 0h1v1h-1zm-25 5h1v1h-1zm30 0h1v1h-1z"/><path fill="#a12" d="M17 40h1v1h-1zm30 0h1v1h-1zm-25 6h1v1h-1zm20 0h1v1h-1zm-27 2h1v1h-1zm34 0h1v1h-1z"/><path fill="#eee" d="M3 1h1v1H3zm59 0h1v1h-1zM2 2h1v1H2zm61 0h1v1h-1zM1 3h1v1H1zm63 0h1v1h-1zM1 4h1v1H1zm63 0h1v1h-1zM1 5h1v1H1zm63 0h1v1h-1zM2 6h1v1H2zm61 0h1v1h-1zM2 7h1v1H2zm61 0h1v1h-1zM2 8h1v74H2zm61 0h1v74h-1zM26 19h1v1h-1zm12 0h1v1h-1zm-21 4h1v1h-1zm30 0h1v1h-1zm-17 1h1v1h-1zm4 0h1v1h-1zm-11 2h1v1h-1zm18 0h1v1h-1zM9 32h1v1H9zm46 0h1v1h-1zM8 34h1v1H8zm48 0h1v1h-1zm-42 1h1v1h-1zm36 0h1v1h-1zM7 37h1v1H7zm50 0h1v1h-1zm-45 6h1v2h-1zm40 0h1v2h-1zm-38 9h1v1h-1zm36 0h1v1h-1zM8 53h1v1H8zm48 0h1v1h-1zm-27 1h1v1h-1zm6 0h1v1h-1zm-14 6h1v1h-1zm22 0h1v1h-1zm-18 2h1v1h-1zm14 0h1v1h-1zm-10 1h1v1h-1zm6 0h1v1h-1zm-15 3h1v1h-1zm24 0h1v1h-1zm-22 1h1v1h-1zm20 0h1v1h-1zm-17 1h1v1h-1zm14 0h1v1h-1zM2 82h1v1H2zm61 0h1v1h-1zM2 83h1v1H2zm61 0h1v1h-1zM3 84h1v1H3zm1 0h1v1H4zm57 0h1v1h-1zm1 0h1v1h-1zM9 85h48v1H9z"/><path fill="#777" d="M26 21h1v1h-1zm12 0h1v1h-1zm-21 4h1v1h-1zm30 0h1v1h-1zm-32 1h1v1h-1zm34 0h1v1h-1zm-35 8h1v1h-1zm36 0h1v1h-1zM7 39h1v1H7zm50 0h1v1h-1zM15 55h1v1h-1zm34 0h1v1h-1zm-31 4h1v1h-1zm28 0h1v1h-1zm-25 3h1v1h-1zm22 0h1v1h-1zm-18 2h1v1h-1zm14 0h1v1h-1zm-10 1h1v1h-1zm6 0h1v1h-1zm-14 1h1v1h-1zm22 0h1v1h-1zM0 84h1v1H0zm65 0h1v1h-1zM0 85h1v1H0zm65 0h1v1h-1zM0 86h1v1H0zm65 0h1v1h-1zM0 87h1v1H0zm65 0h1v1h-1z"/><path fill="#fcd" d="M25 27h1v1h-1zm14 0h1v1h-1zM20 52h1v1h-1zm24 0h1v1h-1z"/><path fill="#d66" d="M29 50h1v1h-1zm6 0h1v1h-1z"/><path fill="#766" d="M23 22h1v1h-1zm18 0h1v1h-1zm-19 4h1v1h-1zm20 0h1v1h-1zm-29 2h1v1h-1zm38 0h1v1h-1zm-38 8h1v1h-1zm38 0h1v1h-1zM12 48h1v1h-1zm40 0h1v1h-1zm-42 8h1v1h-1zm44 0h1v1h-1z"/><path fill="#fcc" d="M29 26h1v1h-1zm6 0h1v1h-1zm-12 2h1v1h-1zm18 0h1v1h-1zm-22 3h1v1h-1zm26 0h1v1h-1zm-27 1h1v1h-1zm28 0h1v1h-1zm-32 8h1v1h-1zm36 0h1v1h-1zm-32 8h1v1h-1zm28 0h1v1h-1zm-15 1h1v1h-1zm2 0h1v1h-1zm-7 8h1v1h-1zm12 0h1v1h-1zm-9 1h1v1h-1zm6 0h1v1h-1z"/><path fill="#e89" d="M27 27h1v1h-1zm10 0h1v1h-1zm-13 1h1v1h-1zm16 0h1v1h-1zm-12 7h1v1h-1zm8 0h1v1h-1zm-11 1h1v1h-1zm14 0h1v1h-1zm-16 2h1v1h-1zm18 0h1v1h-1zM29 49h1v1h-1zm6 0h1v1h-1zm-4 1h1v1h-1zm2 0h1v1h-1zm-14 1h1v1h-1zm26 0h1v1h-1zm-20 6h1v1h-1zm14 0h1v1h-1zm-12 1h1v1h-1zm10 0h1v1h-1z"/><path fill="#701" d="M27 29h1v1h-1zm10 0h1v1h-1zm-6 8h1v1h-1zm1 0h1v1h-1zm1 0h1v1h-1zm-4 1h1v1h-1zm6 0h1v1h-1zm-9 13h1v1h-1zm12 0h1v1h-1zm-11 1h2v1h-2zm9 0h2v1h-2zm-7 1h7v1h-7z"/><path fill="#c35" d="M24 39h1v1h-1zm16 0h1v1h-1zM27 49h1v1h-1zm10 0h1v1h-1zm-17 5h1v1h-1zm24 0h1v1h-1z"/><path fill="#b12" d="M26 43h1v1h-1zm12 0h1v1h-1zm-12 1h1v1h-1z"/><path fill="#caa" d="M30 54h1v1h-1zm4 0h1v1h-1z"/><path fill="#988" d="M31 20h1v1h-1zm1 0h1v1h-1zm1 0h1v1h-1zm-14 3h1v1h-1zm26 0h1v1h-1zm-28 1h1v1h-1zm30 0h1v1h-1zM21 61h1v1h-1zm22 0h1v1h-1zm-19 2h1v1h-1zm16 0h1v1h-1z"/><path fill="#b02" d="M28 28h1v1h-1zm8 0h1v1h-1zm-11 1h1v1h-1zm14 0h1v1h-1zm-20 5h1v1h-1zm26 0h1v1h-1zm-15 2h1v1h-1zm4 0h1v1h-1zm-17 1h1v1h-1zm11 0h1v1h-1zm8 0h1v1h-1zm11 0h1v1h-1zm-30 1h1v1h-1zm30 0h1v1h-1zm-21 1h1v1h-1zm12 0h1v1h-1zm-22 1h1v1h-1zm9 0h1v1h-1zm14 0h1v1h-1zm9 0h1v1h-1zm-32 1h1v1h-1zm9 0h1v1h-1zm14 0h1v1h-1zm9 0h1v1h-1zm-32 1h1v1h-1zm6 0h1v1h-1zm3 0h1v1h-1zm14 0h1v1h-1zm3 0h1v1h-1zm6 0h1v1h-1zm-32 1h1v1h-1zm6 0h1v1h-1zm1 0h1v1h-1zm2 0h1v1h-1zm14 0h1v1h-1zm2 0h1v1h-1zm1 0h1v1h-1zm6 0h1v1h-1zm-33 1h1v1h-1zm7 0h1v1h-1zm1 0h1v1h-1zm18 0h1v1h-1zm1 0h1v1h-1zm7 0h1v1h-1zm-34 1h1v1h-1zm8 0h1v1h-1zm18 0h1v1h-1zm8 0h1v1h-1zm-34 1h1v1h-1zm9 0h1v1h-1zm16 0h1v1h-1zm9 0h1v1h-1zm-34 1h1v1h-1zm9 0h1v1h-1zm16 0h1v1h-1zm9 0h1v1h-1zm-24 1h1v1h-1zm14 0h1v1h-1zm-23 1h1v1h-1zm10 0h1v1h-1zm12 0h1v1h-1zm10 0h1v1h-1zm-21 1h1v1h-1zm10 0h1v1h-1zm-20 1h1v1h-1zm12 0h1v1h-1zm6 0h1v1h-1zm12 0h1v1h-1zm-28 3h1v1h-1zm26 0h1v1h-1zm-25 1h1v1h-1zm24 0h1v1h-1zm-17 4h1v1h-1zm10 0h1v1h-1z"/><path fill="#c45" d="M17 41h1v1h-1zm30 0h1v1h-1zm-32 8h1v1h-1zm34 0h1v1h-1z"/><path fill="#bba" d="M32 19h1v1h-1zm-20 9h1v1h-1zm40 0h1v1h-1zM17 57h1v1h-1z"/><path fill="#d67" d="M29 27h1v1h-1zm6 0h1v1h-1zm-12 2h1v1h-1zm18 0h1v1h-1zm-21 2h1v1h-1zm24 0h1v1h-1zm-27 3h1v1h-1zm30 0h1v1h-1zm-16 1h1v1h-1zm2 0h1v1h-1zm-6 1h1v1h-1zm10 0h1v1h-1zm-12 1h1v1h-1zm14 0h1v1h-1zm-25 6h1v1h-1zm36 0h1v1h-1zm-36 1h1v1h-1zm36 0h1v1h-1zm-22 5h1v1h-1zm8 0h1v1h-1zm-16 4h1v1h-1zm24 0h1v1h-1zm-20 4h1v1h-1zm16 0h1v1h-1zm-14 1h1v1h-1zm12 0h1v1h-1zm-8 1h1v1h-1zm4 0h1v1h-1z"/><path fill="#c67" d="M18 38h1v1h-1zm28 0h1v1h-1zm-29 4h1v1h-1zm30 0h1v1h-1z"/><path fill="#d88" d="M29 35h1v1h-1zm6 0h1v1h-1zm-18 8h1v1h-1zm30 0h1v1h-1zm-30 1h1v1h-1zm30 0h1v1h-1z"/><path fill="#ebb" d="M30 26h1v1h-1zm4 0h1v1h-1zm-6 8h1v1h-1zm8 0h1v1h-1zm-20 1h1v1h-1zm32 0h1v1h-1zm-33 2h1v1h-1zm34 0h1v1h-1zM18 55h1v1h-1zm28 0h1v1h-1z"/><path fill="#d78" d="M28 27h1v1h-1zm8 0h1v1h-1zm-11 1h1v1h-1zm14 0h1v1h-1zm-18 2h1v1h-1zm22 0h1v1h-1zm-17 6h1v1h-1zm12 0h1v1h-1zm-14 1h1v1h-1zm16 0h1v1h-1zm-26 5h1v1h-1zm36 0h1v1h-1zm-36 3h1v1h-1zm36 0h1v1h-1zm-22 3h1v1h-1zm8 0h1v1h-1zm-18 1h1v1h-1zm28 0h1v1h-1zm-16 1h1v1h-1zm4 0h1v1h-1zm-13 4h1v1h-1zm22 0h1v1h-1zm-21 1h1v1h-1zm20 0h1v1h-1zm-19 1h1v1h-1zm18 0h1v1h-1zm-10 3h1v1h-1zm1 0h1v1h-1zm1 0h1v1h-1z"/><path fill="#fee" d="M21 29h1v1h-1zm22 0h1v1h-1zm-18 2h1v1h-1zm14 0h1v1h-1zm-22 2h1v1h-1zm13 0h1v1h-1zm4 0h1v1h-1zm13 0h1v1h-1zm-23 3h1v1h-1zm16 0h1v1h-1zm-21 1h1v1h-1zm26 0h1v1h-1zm-18 5h1v1h-1zm10 0h1v1h-1zm-10 3h1v1h-1zm10 0h1v1h-1zm-18 5h1v1h-1zm4 0h1v1h-1zm18 0h1v1h-1zm4 0h1v1h-1zm-20 2h1v1h-1zm14 0h1v1h-1zm-18 1h1v1h-1zm22 0h1v1h-1zm-21 1h1v1h-1zm20 0h1v1h-1zm-32 3h1v1h-1zm44 0h1v1h-1zm-23 1h1v1h-1zm1 0h1v1h-1zm1 0h1v1h-1zm-6 3h1v1h-1zm10 0h1v1h-1z"/><path fill="#a67" d="M29 29h1v1h-1zm6 0h1v1h-1zm-11 2h1v1h-1zm16 0h1v1h-1zm-9 7h1v1h-1zm2 0h1v1h-1z"/><path fill="#998" d="M30 20h1v1h-1zm4 0h1v1h-1z"/><path fill="#eab" d="M31 26h1v1h-1zm1 0h1v1h-1zm1 0h1v1h-1zm-7 9h1v1h-1zm12 0h1v1h-1zm-8 14h1v1h-1zm4 0h1v1h-1zm-19 1h1v1h-1zm34 0h1v1h-1zm-21 8h1v1h-1zm8 0h1v1h-1z"/><path fill="#823" d="M28 29h1v1h-1zm8 0h1v1h-1zm-6 9h1v1h-1zm4 0h1v1h-1zM24 50h1v1h-1zm16 0h1v1h-1z"/><path fill="#711" d="M28 39h1v1h-1zm8 0h1v1h-1z"/><path fill="#c24" d="M23 40h1v1h-1zm18 0h1v1h-1zM19 53h1v1h-1zm26 0h1v1h-1z"/><path fill="#923" d="M21 33h1v1h-1zm22 0h1v1h-1z"/><path fill="#934" d="M28 53h1v1h-1zm8 0h1v1h-1zm-14 5h1v1h-1zm20 0h1v1h-1z"/><path fill="#b88" d="M31 54h1v1h-1zm2 0h1v1h-1z"/><path fill="#100" d="M27 23h11v1H27zm-3 1h2v1h-2zm15 0h2v1h-2zM16 62h1v1h-1zm32 0h1v1h-1zm-29 2h1v1h-1zm26 0h1v1h-1zm-24 1h1v1h-1zm22 0h1v1h-1zm-20 1h2v1h-2zm17 0h2v1h-2zm-14 1h4v1h-4zm9 0h4v1h-4zm-3 1h1v1h-1z"/><path fill="#e9a" d="M32 34h1v1h-1zm-18 7h1v1h-1zm36 0h1v1h-1zm-23 5h1v1h-1zm10 0h1v1h-1z"/><g fill="#fff"><path d="M4 1h1v1H4zm1 0h1v1H5zm1 0h54v1H6zm54 0h1v1h-1zm1 0h1v1h-1zM3 2h1v1H3zm1 0h1v1H4zm1 0h56v1H5zm56 0h1v1h-1zm1 0h1v1h-1zM2 3h1v1H2zm1 0h1v1H3zm1 0h2v1H4zm2 0h54v1H6zm54 0h2v1h-2zm2 0h1v1h-1zm1 0h1v1h-1zM2 4h1v2H2zm1 0h1v3H3zm1 0h1v1H4zm1 0h56v15H5zm56 0h1v1h-1zm1 0h1v3h-1zm1 0h1v2h-1z"/><path d="M4 5h58v2H4zM3 7h1v1H3zm1 0h1v1H4zm57 0h1v1h-1zm1 0h1v1h-1zM3 8h1v73H3zm1 0h1v73H4zm57 0h1v74h-1zm1 0h1v73h-1zM5 19h20v1H5zm20 0h1v1h-1zm14 0h1v1h-1zm1 0h21v1H40zM5 20h17v1H5zm17 0h1v1h-1zm20 0h1v1h-1zm1 0h18v1H43zM5 21h15v1H5zm15 0h1v1h-1zm24 0h1v1h-1zm1 0h16v1H45zM5 22h13v1H5zm13 0h1v1h-1zm28 0h1v1h-1zm1 0h14v1H47zM5 23h12v1H5zm43 0h13v1H48zM5 24h10v1H5zm10 0h1v1h-1zm16 0h1v1h-1zm1 0h1v1h-1zm1 0h1v1h-1zm16 0h1v1h-1zm1 0h11v1H50zM5 25h9v1H5zm9 0h1v1h-1zm12 0h1v1h-1zm1 0h11v1H27zm11 0h1v1h-1zm12 0h1v1h-1zm1 0h10v1H51zM5 26h8v1H5zm8 0h1v1h-1zm11 0h3v1h-3zm3 0h1v1h-1zm10 0h1v1h-1zm1 0h3v1h-3zm13 0h1v1h-1zm1 0h9v1h-9zM5 27h7v2H5zm7 0h1v1h-1zm10 0h2v1h-2zm2 0h1v1h-1zm16 0h1v1h-1zm1 0h2v1h-2zm11 0h1v1h-1zm1 0h8v2h-8zm-33 1h1v1h-1zm1 0h1v1h-1zm1 0h1v1h-1zm20 0h1v1h-1zm1 0h1v1h-1zm1 0h1v1h-1zM5 29h6v1H5zm14 0h1v1h-1zm1 0h1v1h-1zm24 0h1v1h-1zm1 0h1v1h-1zm9 0h7v1h-7zM5 30h5v2H5zm5 0h1v1h-1zm8 0h2v1h-2zm10 0h9v3h-9zm17 0h2v1h-2zm9 0h1v1h-1zm1 0h6v2h-6zm-38 1h2v1h-2z"/><path d="M26 31h13v2H26zm20 0h2v1h-2zM5 32h4v2H5zm11 0h1v1h-1zm1 0h1v1h-1z"/><path d="M24 32h17v1H24zm23 0h1v1h-1zm1 0h1v1h-1zm8 0h5v2h-5zm-40 1h1v1h-1zm7 0h6v1h-6zm6 0h1v1h-1zm6 0h1v1h-1zm1 0h6v1h-6zm12 0h1v1h-1zM5 34h3v3H5zm10 0h1v2h-1zm1 0h1v1h-1zm6 0h5v1h-5zm16 0h5v1h-5zm10 0h1v1h-1zm1 0h1v2h-1zm8 0h4v3h-4zm-36 1h4v1h-4zm4 0h1v1h-1zm14 0h1v1h-1zm1 0h4v1h-4zm-26 1h1v3h-1zm1 0h1v1h-1zm5 0h4v1h-4zm21 0h4v1h-4zm8 0h1v1h-1zm1 0h1v3h-1zM5 37h2v45H5zm15 0h3v2h-3zm3 0h1v1h-1zm18 0h1v1h-1zm1 0h3v2h-3zm16 0h3v45h-3zm-45 1h1v1h-1z"/><path d="M19 38h4v1h-4zm26 0h1v12h-1zm6 0h1v1h-1zm-38 1h1v10h-1zm1 0h1v1h-1zm5 0h3v2h-3zm11 0h1v1h-1zm1 0h3v10h-3zm3 0h1v1h-1z"/><path d="M43 39h3v2h-3zm7 0h1v1h-1zm1 0h1v10h-1zm-33 1h1v1h-1zm11 0h7v8h-7zm17 0h1v1h-1zm-28 1h3v6h-3zm3 0h1v1h-1z"/><path d="M28 41h9v6h-9zm15 0h1v1h-1zm1 0h3v6h-3z"/><path d="M27 43h11v2H27zm-6 3h1v1h-1zm22 0h1v1h-1zm-25 1h1v1h-1zm1 0h3v3h-3zm24 0h3v3h-3zm3 0h1v1h-1zm-32 1h1v1h-1zm16 0h1v1h-1zm4 0h1v1h-1zm16 0h1v1h-1zm-37 1h1v1h-1zm1 0h1v3h-1zm8 0h1v5h-1z"/><path d="M42 49h4v1h-4zm8 0h1v3h-1zm1 0h1v1h-1zm-31 1h3v2h-3zm22 0h3v2h-3zM7 51h1v33H7zm8 0h1v1h-1zm8 0h1v4h-1z"/><path d="M41 51h4v1h-4zm8 0h1v1h-1zm8 0h4v31h-4zm-42 1h1v2h-1zm6 0h4v1h-4zm19 0h4v1h-4zm9 0h1v2h-1zm-33 1h1v1h-1zm8 0h2v3h-2zm2 0h1v1h-1zm12 0h1v1h-1zm1 0h4v1h-4zm9 0h1v1h-1zM8 54h1v30H8zm8 0h1v1h-1zm10 0h3v3h-3zm10 0h6v1h-6zm12 0h1v1h-1z"/><path d="M56 54h5v28h-5zm-40 1h1v1h-1zm1 0h1v2h-1zm12 0h12v1H29zm18 0h1v2h-1zm1 0h1v1h-1zM9 56h1v28H9zm9 0h1v2h-1zm7 0h1v1h-1zm4 0h10v1H29zm10 0h1v1h-1z"/><path d="M46 56h2v1h-2zm9 0h6v26h-6zm-36 1h1v1h-1zm8 0h1v1h-1zm1 0h9v1h-9zm9 0h1v1h-1zm8 0h2v1h-2zm-35 1h1v26h-1zm9 0h1v1h-1zm1 0h1v1h-1zm24 0h1v1h-1zm1 0h1v1h-1z"/><path d="M54 58h7v24h-7zm-43 1h1v25h-1zm9 0h1v1h-1zm1 0h1v1h-1zm1 0h1v1h-1zm20 0h1v1h-1zm1 0h1v1h-1zm1 0h1v1h-1z"/><path d="M53 59h8v23h-8zm-41 1h1v1h-1zm10 0h2v1h-2zm2 0h1v1h-1zm16 0h1v1h-1zm1 0h2v1h-2zm11 0h1v1h-1zm-40 1h1v23h-1zm1 0h1v1h-1zm10 0h1v1h-1zm1 0h3v1h-3zm14 0h3v1h-3zm3 0h1v1h-1zm10 0h1v1h-1z"/><path d="M52 61h9v21h-9zm-39 1h1v22h-1zm1 0h1v1h-1zm12 0h1v1h-1zm1 0h11v1H27zm11 0h1v1h-1zm12 0h1v1h-1z"/><path d="M51 62h10v20H51zm-37 1h1v21h-1zm1 0h1v1h-1zm15 0h1v1h-1zm1 0h1v1h-1zm1 0h1v1h-1zm1 0h1v1h-1zm1 0h1v1h-1zm15 0h1v1h-1z"/><path d="M50 63h11v19H50zm-35 1h2v20h-2z"/><path d="M48 64h13v18H48zm-31 1h1v19h-1zm1 0h1v1h-1zm28 0h1v1h-1z"/><path d="M47 65h14v17H47zm-29 1h2v18h-2z"/><path d="M45 66h16v16H45zm-25 1h2v17h-2z"/><path d="M43 67h18v15H43zm-21 1h3v16h-3z"/><path d="M40 68h21v14H40z"/><path d="M25 69h36v13H25zM3 81h1v1H3zm1 0h1v2H4zm58 0h1v1h-1zM3 82h1v1H3zm2 0h1v1H5zm1 0h54v1H6zm54 0h1v1h-1zm1 0h1v1h-1zm1 0h1v1h-1zM3 83h1v1H3zm1 0h1v1H4zm1 0h1v1H5zm1 0h1v1H6zm19 0h34v1H25zm34 0h1v1h-1zm1 0h1v1h-1zm1 0h1v1h-1zm1 0h1v1h-1zM5 84h1v1H5zm1 0h1v1H6zm1 0h1v1H7zm1 0h50v1H8zm50 0h1v1h-1zm1 0h1v1h-1zm1 0h1v1h-1z"/></g><path fill="#aa9" d="M27 20h1v1h-1zm10 0h1v1h-1zm-23 6h1v1h-1zm36 0h1v1h-1zm-37 1h1v1h-1zm38 0h1v1h-1zM29 64h1v1h-1zm6 0h1v1h-1z"/><path fill="#322" d="M30 21h1v1h-1zm4 0h1v1h-1zm-9 1h1v1h-1zm14 0h1v1h-1zM12 32h1v1h-1zm40 0h1v1h-1zM9 36h1v1H9zm1 0h1v1h-1zm44 0h1v1h-1zm1 0h1v1h-1zM9 37h1v1H9zm46 0h1v1h-1zm-3 1h1v1h-1zM7 41h1v1H7zm50 0h1v1h-1zM7 46h1v1H7zm50 0h1v1h-1zm-46 3h1v1h-1zm42 0h1v1h-1zm-42 1h1v1h-1zm1 0h1v1h-1zm40 0h1v1h-1zm1 0h1v1h-1zm-42 1h1v1h-1zm42 0h1v1h-1zm-39 6h1v1h-1zm36 0h1v1h-1zm-32 4h1v1h-1zm28 0h1v1h-1zm-25 2h1v1h-1zm22 0h1v1h-1zm-25 1h1v1h-1zm5 0h1v1h-1zm18 0h1v1h-1zm5 0h1v1h-1zm-20 1h1v1h-1zm12 0h1v1h-1z"/><path fill="#655" d="M14 28h1v1h-1zm36 0h1v1h-1zm-37 1h1v1h-1zm38 0h1v1h-1zM15 56h1v1h-1zm34 0h1v1h-1zm-33 2h1v1h-1zm32 0h1v1h-1zm-26 5h1v1h-1zm20 0h1v1h-1z"/><path fill="#daa" d="M19 56h1v1h-1zm26 0h1v1h-1zm-20 4h1v1h-1zm14 0h1v1h-1z"/><path fill="#666" d="M21 23h1v1h-1zm22 0h1v1h-1zm-24 1h1v1h-1zm8 0h1v1h-1zm10 0h1v1h-1zm8 0h1v1h-1zm-21 1h1v1h-1zm16 0h1v1h-1zm-24 1h1v1h-1zm32 0h1v1h-1zm-29 2h1v1h-1zm26 0h1v1h-1zm-34 2h1v1h-1zm42 0h1v1h-1zm-37 1h1v1h-1zm32 0h1v1h-1zm-36 8h1v1h-1zm40 0h1v1h-1zM9 54h1v1H9zm46 0h1v1h-1zm-39 3h1v1h-1zm32 0h1v1h-1zm-31 2h1v1h-1zm30 0h1v1h-1zm-29 1h1v1h-1zm28 0h1v1h-1zm-31 2h1v1h-1zm34 0h1v1h-1zm-21 3h1v1h-1zm8 0h1v1h-1zM0 88h1v1H0zm1 0h1v1H1zm63 0h1v1h-1zm1 0h1v1h-1zM1 89h1v1H1zm1 0h1v1H2zm1 0h1v1H3zm1 0h58v1H4zm58 0h1v1h-1zm1 0h1v1h-1zm1 0h1v1h-1z"/><path fill="#901" d="M30 28h1v1h-1zm4 0h1v1h-1zm-8 1h1v1h-1zm12 0h1v1h-1zm-14 1h1v1h-1zm16 0h1v1h-1zm-21 5h1v1h-1zm26 0h1v1h-1zm-16 2h1v1h-1zm6 0h1v1h-1zm-8 2h1v1h-1zm10 0h1v1h-1zm-11 2h1v1h-1zm12 0h1v1h-1zm-15 6h1v1h-1zm18 0h1v1h-1zm-17 1h1v1h-1zm16 0h1v1h-1zm1 0h1v1h-1zm-15 2h1v1h-1zm12 0h1v1h-1zm-8 2h1v1h-1zm1 0h1v1h-1zm1 0h1v1h-1zm1 0h1v1h-1zm1 0h1v1h-1zm-15 3h1v1h-1zm26 0h1v1h-1zm-25 1h1v1h-1zm24 0h1v1h-1zm-22 1h1v1h-1zm20 0h1v1h-1zm-13 3h1v1h-1zm1 0h1v1h-1zm4 0h1v1h-1zm1 0h1v1h-1z"/><path fill="#444" d="M12 31h1v1h-1zm40 0h1v1h-1zm-42 2h1v1h-1zm44 0h1v1h-1zM8 36h1v1H8zm48 0h1v1h-1zM13 53h1v1h-1zm38 0h1v1h-1zM24 67h1v1h-1zm16 0h1v1h-1z"/><path fill="#999" d="M0 3h1v1H0zm65 0h1v1h-1zM0 4h1v1H0zm65 0h1v1h-1zM28 20h1v1h-1zm1 0h1v1h-1zm6 0h1v1h-1zm1 0h1v1h-1zm-12 1h1v1h-1zm16 0h1v1h-1zm-19 1h1v1h-1zm22 0h1v1h-1zm-15 2h1v1h-1zm8 0h1v1h-1zm-26 7h1v1h-1zm44 0h1v1h-1zM8 35h1v1H8zm48 0h1v1h-1zm-44 5h1v1h-1zm40 0h1v1h-1zm-40 7h1v1h-1zm40 0h1v1h-1zm-38 6h1v1h-1zm36 0h1v1h-1zm-34 3h1v1h-1zm32 0h1v1h-1zm-28 4h1v1h-1zm24 0h1v1h-1zm-21 2h1v1h-1zm18 0h1v1h-1zm-16 1h1v1h-1zm14 0h1v1h-1zm-12 1h1v1h-1zm10 0h1v1h-1zM3 88h1v1H3zm59 0h1v1h-1z"/><g fill="#211"><path d="M32 21h1v1h-1zm-6 1h1v1h-1zm12 0h1v1h-1zm-15 1h1v1h-1zm18 0h1v1h-1zm-20 1h1v1h-1zm22 0h1v1h-1zm-24 1h1v1h-1zm26 0h1v1h-1zm-27 1h1v1h-1zm28 0h1v1h-1zm-29 1h1v1h-1zm30 0h1v1h-1zm-31 1h1v1h-1zm32 0h1v1h-1zm-33 1h1v1h-1zm34 0h1v1h-1zm-35 1h1v1h-1zm36 0h1v1h-1zm-37 1h1v1h-1zm38 0h1v1h-1zm-38 1h1v1h-1zm38 0h1v1h-1zm-39 1h1v1h-1zm40 0h1v1h-1zm-41 2h1v1h-1zm2 0h1v1h-1zm38 0h1v1h-1zm2 0h1v1h-1zm-42 1h1v1h-1zm42 0h1v1h-1zm-43 1h1v1h-1zm44 0h1v1h-1zM8 38h1v1H8zm2 0h1v1h-1zm44 0h1v1h-1zm2 0h1v1h-1zM8 39h1v1H8zm1 0h1v1H9zm1 0h1v2h-1zm44 0h1v2h-1zm1 0h1v1h-1zm1 0h1v1h-1zM8 40h1v2H8zm1 0h1v1H9zm46 0h1v1h-1zm1 0h1v2h-1zM9 41h1v1H9zm1 0h1v1h-1zm44 0h1v1h-1zm1 0h1v1h-1zM8 42h1v1H8zm1 0h1v1H9zm1 0h1v3h-1zm1 0h1v2h-1zm42 0h1v2h-1zm1 0h1v3h-1zm1 0h1v1h-1zm1 0h1v1h-1zM7 43h1v2H7zm1 0h1v1H8zm1 0h1v1H9zm46 0h1v1h-1zm1 0h1v1h-1zm1 0h1v2h-1zM8 44h1v1H8zm1 0h1v3H9zm2 0h1v1h-1zm42 0h1v1h-1zm2 0h1v3h-1zm1 0h1v1h-1zM7 45h1v1H7zm1 0h1v1H8zm2 0h1v1h-1zm1 0h1v1h-1zm42 0h1v1h-1zm1 0h1v1h-1zm2 0h1v1h-1zm1 0h1v1h-1zM8 46h1v1H8zm2 0h1v1h-1zm1 0h1v1h-1zm42 0h1v1h-1z"/><path d="M54 46h2v1h-2zm2 0h1v1h-1zM9 47h1v2H9zm1 0h1v1h-1zm1 0h1v1h-1zm42 0h1v1h-1zm1 0h1v1h-1zm1 0h1v2h-1zM9 49h1v1H9zm1 0h1v1h-1zm44 0h1v1h-1zm1 0h1v1h-1zm-45 1h1v1h-1zm44 0h1v1h-1zm-44 1h1v1h-1zm44 0h1v1h-1zm-44 1h1v1h-1zm44 0h1v1h-1zm-43 1h1v1h-1zm42 0h1v1h-1zm-41 2h1v1h-1zm40 0h1v1h-1zm-39 1h1v1h-1zm38 0h1v1h-1zm-37 2h1v1h-1zm36 0h1v1h-1zm-35 1h1v1h-1zm34 0h1v1h-1zm-33 1h1v1h-1zm32 0h1v1h-1zm-31 1h1v1h-1zm30 0h1v1h-1zm-28 1h1v1h-1zm26 0h1v1h-1zm-25 1h1v1h-1zm24 0h1v1h-1zm-22 1h1v1h-1zm20 0h1v1h-1zm-17 1h1v1h-1zm14 0h1v1h-1zm-10 1h1v1h-1zm1 0h1v1h-1zm1 0h1v1h-1zm1 0h1v1h-1zm1 0h1v1h-1zm1 0h1v1h-1zm1 0h1v1h-1zm-5 2h1v1h-1zm4 0h1v1h-1z"/></g><path fill="#d45" d="M31 27h1v1h-1zm1 0h1v1h-1zm1 0h1v1h-1zm-9 2h1v1h-1zm16 0h1v1h-1zm-24 7h1v1h-1zm12 0h1v1h-1zm8 0h1v1h-1zm12 0h1v1h-1zm-23 2h1v1h-1zm14 0h1v1h-1zm-22 8h1v1h-1zm30 0h1v1h-1zm-21 1h1v1h-1zm12 0h1v1h-1zm-6 4h1v1h-1zm-13 1h1v1h-1zm26 0h1v1h-1zm-24 3h1v1h-1zm22 0h1v1h-1z"/><path fill="#b78" d="M26 30h1v1h-1zm12 0h1v1h-1zm-6 8h1v1h-1z"/><path fill="#877" d="M19 60h1v1h-1zm26 0h1v1h-1zm-25 1h1v1h-1zm24 0h1v1h-1zm-21 2h1v1h-1zm18 0h1v1h-1zm-14 5h1v1h-1zm10 0h1v1h-1z"/><path fill="#665" d="M27 21h1v1h-1zm10 0h1v1h-1zm-22 6h1v1h-1zm34 0h1v1h-1zm-37 2h1v1h-1zm40 0h1v1h-1zM13 60h1v1h-1zm38 0h1v1h-1zm-32 1h1v1h-1zm26 0h1v1h-1z"/><path fill="#887" d="M20 23h1v1h-1zm24 0h1v1h-1zm-26 1h1v1h-1zm28 0h1v1h-1zm-30 1h1v1h-1zm32 0h1v1h-1zM9 33h1v1H9zm46 0h1v1h-1zM13 51h1v1h-1zm38 0h1v1h-1zM30 65h1v1h-1zm4 0h1v1h-1z"/><path fill="#a01" d="M29 28h1v1h-1zm6 0h1v1h-1zm-13 3h1v1h-1zm20 0h1v1h-1zm-21 1h1v1h-1zm22 0h1v1h-1zm-23 1h1v1h-1zm24 0h1v1h-1zm-26 3h1v1h-1zm13 0h1v1h-1zm1 0h1v1h-1zm1 0h1v1h-1zm13 0h1v1h-1zm-19 2h1v1h-1zm10 0h1v1h-1zm-20 1h1v1h-1zm30 0h1v1h-1zm-21 1h1v1h-1zm12 0h1v1h-1zm-12 2h1v1h-1zm12 0h1v1h-1zm-16 3h1v1h-1zm20 0h1v1h-1zm-19 1h1v1h-1zm18 0h1v1h-1zm-16 3h1v1h-1zm14 0h1v1h-1zm-23 1h1v1h-1zm32 0h1v1h-1zm-20 1h1v1h-1zm8 0h1v1h-1zm-19 1h1v1h-1zm30 0h1v1h-1zm-29 1h1v1h-1zm28 0h1v1h-1zm-25 3h1v1h-1zm22 0h1v1h-1zm-19 2h1v1h-1zm16 0h1v1h-1zm-14 1h1v1h-1zm12 0h1v1h-1zm-7 1h1v1h-1zm1 0h1v1h-1zm1 0h1v1h-1z"/><path fill="#555" d="M12 30h1v1h-1zm40 0h1v1h-1zM14 55h1v1h-1zm36 0h1v1h-1zm-35 2h1v1h-1zm34 0h1v1h-1zm-35 4h1v1h-1zm36 0h1v1h-1zm-26 3h1v1h-1zm16 0h1v1h-1zm-12 4h1v1h-1zm8 0h1v1h-1z"/><path fill="#332" d="M10 35h1v1h-1zm44 0h1v1h-1z"/><path fill="#945" d="M26 52h1v1h-1zm12 0h1v1h-1zm-12 8h1v1h-1zm12 0h1v1h-1zm-6 1h1v1h-1z"/><path fill="#433" d="M29 21h1v1h-1zm6 0h1v1h-1zm-13 2h1v1h-1zm20 0h1v1h-1zm-22 1h1v1h-1zm24 0h1v1h-1zm-27 2h1v1h-1zm30 0h1v1h-1zm-33 3h1v1h-1zm36 0h1v1h-1zm-37 1h1v1h-1zm38 0h1v1h-1zm-36 2h1v1h-1zm34 0h1v1h-1zm-38 1h1v1h-1zm42 0h1v1h-1zM9 34h1v1H9zm1 0h1v1h-1zm44 0h1v1h-1zm1 0h1v1h-1zM12 52h1v1h-1zm40 0h1v1h-1zm-40 1h1v1h-1zm40 0h1v1h-1zm-39 2h1v1h-1zm38 0h1v1h-1zm-35 4h1v1h-1zm32 0h1v1h-1zm-31 1h1v1h-1zm30 0h1v1h-1z"/><path fill="#776" d="M14 27h1v1h-1zm36 0h1v1h-1zM7 48h1v1H7zm50 0h1v1h-1zM17 58h1v1h-1zm30 0h1v1h-1z"/><path fill="#c23" d="M27 28h1v1h-1zm10 0h1v1h-1zm-20 8h1v1h-1zm12 0h1v1h-1zm6 0h1v1h-1zm12 0h1v1h-1zm-31 1h1v1h-1zm11 0h1v1h-1zm10 0h1v1h-1zm11 0h1v1h-1zm-23 2h1v1h-1zm14 0h1v1h-1zm-15 1h1v1h-1zm16 0h1v1h-1zm-15 6h1v1h-1zm14 0h1v1h-1zm-22 1h1v1h-1zm30 0h1v1h-1zm-30 1h1v1h-1zm30 0h1v1h-1zm-30 1h1v1h-1zm30 0h1v1h-1zm-22 9h1v1h-1zm14 0h1v1h-1z"/><path fill="#edd" d="M27 30h1v1h-1zm10 0h1v1h-1zm-15 3h1v1h-1zm20 0h1v1h-1zm-21 1h1v1h-1zm22 0h1v1h-1zM24 51h1v1h-1zm16 0h1v1h-1z"/><path fill="#b66" d="M19 36h1v1h-1zm26 0h1v1h-1zM22 47h1v1h-1zm20 0h1v1h-1z"/><path fill="#a56" d="M23 49h1v1h-1zm18 0h1v1h-1zM30 61h1v1h-1zm4 0h1v1h-1z"/><path fill="#b34" d="M17 53h1v1h-1zm30 0h1v1h-1z"/><path fill="#a99" d="M23 21h1v1h-1zm18 0h1v1h-1zm-21 1h1v1h-1zm24 0h1v1h-1zm-26 1h1v1h-1zm28 0h1v1h-1zM28 64h1v1h-1zm8 0h1v1h-1zm-13 3h1v1h-1zm18 0h1v1h-1z"/><path fill="#e99" d="M22 29h1v1h-1zm20 0h1v1h-1zm-15 6h1v1h-1zm10 0h1v1h-1zm-5 15h1v1h-1z"/><path fill="#dbb" d="M32 29h1v1h-1zm-9 3h1v1h-1zm18 0h1v1h-1zm-21 3h1v1h-1zm24 0h1v1h-1zM20 57h1v1h-1zm24 0h1v1h-1zm-16 4h1v1h-1zm8 0h1v1h-1z"/><path fill="#912" d="M20 34h1v1h-1zm24 0h1v1h-1zm-26 3h1v1h-1zm28 0h1v1h-1zM18 54h1v1h-1zm28 0h1v1h-1zm-25 3h1v1h-1zm22 0h1v1h-1z"/><path fill="#c12" d="M26 38h1v1h-1zm12 0h1v1h-1zm-22 1h1v1h-1zm32 0h1v1h-1zm-24 2h1v1h-1zm16 0h1v1h-1zm-17 1h1v1h-1zm18 0h1v1h-1zm-25 3h1v1h-1zm9 0h2v1h-2zm13 0h1v1h-1zm1 0h1v1h-1zm9 0h1v1h-1zm-32 1h1v1h-1zm32 0h1v1h-1zm-32 1h1v1h-1zm9 0h1v1h-1zm14 0h1v1h-1zm9 0h1v1h-1zm-31 3h1v1h-1zm30 0h1v1h-1zm-29 2h1v1h-1zm28 0h1v1h-1zm-23 5h1v1h-1zm18 0h1v1h-1z"/></svg>