<svg xmlns="http://www.w3.org/2000/svg" baseProfile="tiny" version="1.2" viewBox="0 0 66 90"><path fill="#edd" d="M31 33h1v1h-1zm2 0h1v1h-1zm-1 22h1v1h-1z"/><path fill="#988" d="M28 13h1v1h-1zm8 0h1v1h-1zm-15 8h1v1h-1zm22 0h1v1h-1zm-14 4h1v1h-1zm6 0h1v1h-1zm-7 9h1v1h-1zm8 0h1v1h-1zM25 49h1v1h-1zm14 0h1v1h-1zm-16 1h1v1h-1zm18 0h1v1h-1zm-11 6h1v1h-1zm4 0h1v1h-1zm-10 3h1v1h-1zm6 0h1v1h-1zm4 0h1v1h-1zm6 0h1v1h-1zm-19 8h1v1h-1zm22 0h1v1h-1zm-17 5h1v1h-1zm12 0h1v1h-1z"/><path fill="#777" d="M26 14h1v1h-1zm12 0h1v1h-1zm-16 2h1v1h-1zm20 0h1v1h-1zm-25 7h1v1h-1zm4 0h1v1h-1zm22 0h1v1h-1zm4 0h1v1h-1zm-30 7h1v1h-1zm30 0h1v1h-1zm-25 2h1v1h-1zm20 0h1v1h-1zm-13 3h1v1h-1zm6 0h1v1h-1zm-6 6h1v1h-1zm6 0h1v1h-1zm-11 9h1v1h-1zm16 0h1v1h-1zm-18 1h1v1h-1zm20 0h1v1h-1zm-21 5h2v1h-2zm21 0h2v1h-2zm-13 4h1v1h-1zm6 0h1v1h-1zm-14 5h1v1h-1zm22 0h1v1h-1zm-14 5h1v1h-1zm6 0h1v1h-1zm-7 2h1v1h-1zm8 0h1v1h-1zM0 84h1v1H0zm65 0h1v1h-1zM0 85h1v1H0zm65 0h1v1h-1zM0 86h1v1H0zm65 0h1v1h-1zM0 87h1v1H0zm65 0h1v1h-1z"/><path fill="#555" d="M27 14h1v1h-1zm10 0h1v1h-1zm-14 4h1v1h-1zm18 0h1v1h-1zM24 30h1v1h-1zm16 0h1v1h-1zm-12 5h1v1h-1zm8 0h1v1h-1zm-4 1h1v1h-1zm-6 4h1v1h-1zm12 0h1v1h-1zM25 50h1v1h-1zm14 0h1v1h-1zm-17 2h1v1h-1zm20 0h1v1h-1zm-12 5h1v1h-1zm4 0h1v1h-1zm-6 1h1v1h-1zm8 0h1v1h-1z"/><path fill="#ccb" d="M22 15h1v1h-1zm20 0h1v1h-1zM25 40h1v1h-1zm14 0h1v1h-1zm-8 33h1v1h-1zm2 0h1v1h-1zm-10 1h1v1h-1zm18 0h1v1h-1z"/><path fill="#776" d="M24 15h1v1h-1zm16 0h1v1h-1zm-12 7h1v1h-1zm8 0h1v1h-1zm-5 26h1v1h-1zm2 0h1v1h-1z"/><path fill="#544" d="M25 15h1v1h-1zm14 0h1v1h-1zm-17 2h1v1h-1zm20 0h1v1h-1zm-21 1h1v1h-1zm22 0h1v1h-1zm-23 1h1v1h-1zm24 0h1v1h-1zm-16 4h1v1h-1zm8 0h1v1h-1zM23 35h1v1h-1zm18 0h1v1h-1zm-13 3h1v1h-1zm8 0h1v1h-1zm-6 3h1v1h-1zm4 0h1v1h-1zm-6 8h1v1h-1zm8 0h1v1h-1zm-16 5h1v1h-1zm24 0h1v1h-1zm-26 2h1v1h-1zm28 0h1v1h-1zm-29 3h1v1h-1zm30 0h1v1h-1zm-21 1h1v1h-1zm12 0h1v1h-1zm-13 8h1v1h-1zm14 0h1v1h-1zm-17 1h1v1h-1zm4 0h1v1h-1zm12 0h1v1h-1zm4 0h1v1h-1zm-18 2h1v1h-1zm6 0h1v1h-1zm4 0h1v1h-1zm6 0h1v1h-1zm-11 5h1v1h-1zm6 0h1v1h-1z"/><path fill="#666" d="M31 13h1v1h-1zm2 0h1v1h-1zm-5 2h1v1h-1zm8 0h1v1h-1zm-14 6h1v1h-1zm20 0h1v1h-1zm-13 1h1v1h-1zm6 0h1v1h-1zm-15 1h1v1h-1zm24 0h1v1h-1zM26 33h1v1h-1zm12 0h1v1h-1zm-11 1h1v1h-1zm10 0h1v1h-1zM27 49h1v1h-1zm10 0h1v1h-1zm-14 2h1v1h-1zm3 0h1v1h-1zm12 0h1v1h-1zm3 0h1v1h-1zm-21 2h1v1h-1zm24 0h1v1h-1zM29 64h1v1h-1zm6 0h1v1h-1zm-6 3h1v1h-1zm6 0h1v1h-1zm-9 4h1v1h-1zm12 0h1v1h-1zm-17 1h1v1h-1zM0 88h1v1H0zm1 0h1v1H1zm63 0h1v1h-1zm1 0h1v1h-1zM1 89h1v1H1zm1 0h1v1H2zm1 0h1v1H3zm1 0h58v1H4zm58 0h1v1h-1zm1 0h1v1h-1zm1 0h1v1h-1z"/><path fill="#221" d="M29 14h1v1h-1zm6 0h1v1h-1zm-3 2h1v1h-1zm-9 1h1v1h-1zm18 0h1v1h-1zm-19 1h1v1h-1zm20 0h1v1h-1zm-21 2h1v1h-1zm22 0h1v1h-1zm-23 2h1v1h-1zm24 0h1v1h-1zm-26 2h1v1h-1zm28 0h1v1h-1zm-29 1h1v1h-1zm30 0h1v1h-1zM30 37h1v1h-1zm4 0h1v1h-1zm-4 12h1v1h-1zm4 0h1v1h-1zM18 59h1v1h-1zm28 0h1v1h-1zm-26 7h1v1h-1zm24 0h1v1h-1zm-26 1h1v1h-1zm28 0h1v1h-1zm-22 1h1v1h-1zm16 0h1v1h-1zm-16 1h1v1h-1zm1 0h1v1h-1zm14 0h1v1h-1zm1 0h1v1h-1z"/><path fill="#baa" d="M21 16h1v1h-1zm22 0h1v1h-1zm-23 1h1v1h-1zm24 0h1v1h-1zM18 55h1v1h-1zm28 0h1v1h-1z"/><path fill="#322" d="M24 16h1v1h-1zm6 0h1v1h-1zm4 0h1v1h-1zm6 0h1v1h-1zm-19 3h1v1h-1zm3 0h1v1h-1zm16 0h1v1h-1zm3 0h1v1h-1zm-25 3h1v1h-1zm1 0h1v1h-1zm26 0h1v1h-1zm1 0h1v1h-1zm-28 1h1v1h-1zm28 0h1v1h-1zm-23 6h1v1h-1zm18 0h1v1h-1zm-18 2h1v1h-1zm18 0h1v1h-1zm-23 1h1v1h-1zm28 0h1v1h-1zm-22 2h1v1h-1zm16 0h1v1h-1zm-11 2h1v1h-1zm6 0h1v1h-1zm-3 5h1v1h-1zm-6 9h1v1h-1zm12 0h1v1h-1zm-7 1h3v1h-3zm-8 1h1v1h-1zm1 0h1v1h-1zm3 0h1v1h-1zm10 0h1v1h-1zm3 0h1v1h-1zm1 0h1v1h-1zm-19 1h1v1h-1zm20 0h1v1h-1zm-21 1h1v1h-1zm7 0h1v1h-1zm8 0h1v1h-1zm7 0h1v1h-1zm-25 3h1v1h-1zm1 0h1v1h-1zm12 0h1v1h-1zm2 0h1v1h-1zm12 0h1v1h-1zm1 0h1v1h-1zm-28 1h1v1h-1zm28 0h1v1h-1zm-29 2h1v1h-1zm10 0h1v1h-1zm10 0h1v1h-1zm10 0h1v1h-1zm-24 4h1v1h-1zm18 0h1v1h-1zm-14 1h1v1h-1zm10 0h1v1h-1zm-14 1h1v1h-1zm9 0h1v1h-1zm9 0h1v1h-1zm-18 2h1v1h-1zm18 0h1v1h-1zm-16 2h1v1h-1zm14 0h1v1h-1zm-14 2h1v1h-1zm4 0h1v1h-1zm6 0h1v1h-1zm4 0h1v1h-1zm-12 1h1v1h-1zm10 0h1v1h-1zm-6 1h1v1h-1zm1 0h1v1h-1zm1 0h1v1h-1zm-7 1h1v1h-1zm12 0h1v1h-1z"/><path fill="#333" d="M25 18h1v1h-1zm6 0h1v1h-1zm2 0h1v1h-1zm6 0h1v1h-1zm-20 3h1v1h-1zm26 0h1v1h-1zm-17 7h1v1h-1zm8 0h1v1h-1zm-13 2h1v1h-1zm18 0h1v1h-1zm-13 1h1v1h-1zm8 0h1v1h-1zm-17 3h1v1h-1zm26 0h1v1h-1zm-18 1h1v1h-1zm10 0h1v1h-1zm-6 6h1v1h-1zm2 0h1v1h-1zm-3 10h1v1h-1zm4 0h1v1h-1zm-12 3h1v1h-1zm2 0h1v1h-1zm16 0h1v1h-1zm2 0h1v1h-1zm-22 1h1v1h-1zm24 0h1v1h-1zm-12 3h1v1h-1zm-6 5h1v1h-1zm2 0h1v1h-1zm8 0h1v1h-1zm2 0h1v1h-1zm-15 2h1v1h-1zm18 0h1v1h-1z"/><path fill="#a99" d="M29 28h1v1h-1zm6 0h1v1h-1zm-15 1h1v1h-1zm24 0h1v1h-1zM27 48h1v1h-1zm10 0h1v1h-1zm-9 3h1v1h-1zm-8 8h1v1h-1zm24 0h1v1h-1zM28 69h1v1h-1zm8 0h1v1h-1z"/><path fill="#ccc" d="M1 0h1v1H1zm1 0h1v1H2zm61 0h1v1h-1zm1 0h1v1h-1zM1 2h1v1H1zm63 0h1v1h-1zM30 15h1v1h-1zm2 0h1v1h-1zm2 0h1v1h-1zm-7 1h1v1h-1zm10 0h1v1h-1zm-12 1h1v1h-1zm14 0h1v1h-1zm-20 1h1v1h-1zm26 0h1v1h-1zm-23 2h1v1h-1zm10 0h1v1h-1zm10 0h1v1h-1zm-16 1h1v1h-1zm12 0h1v1h-1zm-17 1h1v1h-1zm22 0h1v1h-1zm-23 3h1v1h-1zm24 0h1v1h-1zm-24 1h1v2h-1zm24 0h1v2h-1zm-24 2h1v1h-1zm24 0h1v1h-1zm-14 1h1v1h-1zm4 0h1v1h-1zm-13 2h1v1h-1zm22 0h1v1h-1zm-17 1h1v1h-1zm12 0h1v1h-1zm-16 1h1v1h-1zm20 0h1v1h-1zm-19 1h1v1h-1zm6 0h1v1h-1zm6 0h1v1h-1zm6 0h1v1h-1zm-22 1h1v1h-1zm5 0h1v1h-1zm16 0h1v1h-1zm5 0h1v1h-1zm-18 2h1v1h-1zm10 0h1v1h-1zm-6 1h1v1h-1zm2 0h1v1h-1zm-4 9h1v1h-1zm6 0h1v1h-1zm-4 3h1v1h-1zm2 0h1v1h-1zm-12 1h1v1h-1zm6 0h1v1h-1zm10 0h1v1h-1zm6 0h1v1h-1zm-23 1h1v1h-1zm24 0h1v1h-1zm-20 1h1v1h-1zm16 0h1v1h-1zm-17 1h1v1h-1zm18 0h1v1h-1zm-19 1h1v1h-1zm20 0h1v1h-1zm-25 2h1v1h-1zm4 0h1v1h-1zm22 0h1v1h-1zm4 0h1v1h-1zm-27 3h1v1h-1zm24 0h1v1h-1zm-24 1h1v2h-1zm24 0h1v2h-1zm-24 2h1v1h-1zm24 0h1v1h-1zm-23 3h1v1h-1zm22 0h1v1h-1zm-21 2h1v1h-1zm5 0h1v1h-1zm10 0h1v1h-1zm5 0h1v1h-1zm-17 3h1v1h-1zm14 0h1v1h-1zm-12 1h1v1h-1zm10 0h1v1h-1zm-7 1h1v1h-1zm2 0h1v1h-1zm2 0h1v1h-1zm-7 3h1v1h-1zm10 0h1v1h-1zM1 84h1v1H1zm63 0h1v1h-1zM2 85h1v1H2zm61 0h1v1h-1zM4 86h1v1H4zm1 0h1v1H5zm1 0h1v1H6zm1 0h52v1H7zm52 0h1v1h-1zm1 0h1v1h-1zm1 0h1v1h-1z"/><path fill="#888" d="M0 5h1v1H0zm65 0h1v1h-1zM0 6h1v1H0zm65 0h1v1h-1zM0 7h1v1H0zm65 0h1v1h-1zM0 8h1v73H0zm65 0h1v73h-1zm-40 6h1v1h-1zm14 0h1v1h-1zm-16 1h1v1h-1zm18 0h1v1h-1zm-15 1h1v1h-1zm12 0h1v1h-1zM21 30h1v1h-1zm22 0h1v1h-1zm-14 2h1v1h-1zm6 0h1v1h-1zm-5 3h1v1h-1zm1 0h1v1h-1zm2 0h1v1h-1zm1 0h1v1h-1zm-8 1h1v1h-1zm12 0h1v1h-1zm-9 2h1v1h-1zm6 0h1v1h-1zm-6 10h1v1h-1zm6 0h1v1h-1zm-6 2h1v1h-1zm6 0h1v1h-1zm-9 2h1v1h-1zm12 0h1v1h-1zm-11 3h1v1h-1zm10 0h1v1h-1zm-6 1h3v1h-3zm-6 1h1v1h-1zm14 0h1v1h-1zm-18 1h1v1h-1zm22 0h1v1h-1zm-17 6h1v1h-1zm12 0h1v1h-1zm-20 4h1v1h-1zm28 0h1v1h-1zm-16 2h1v1h-1zm4 0h1v1h-1zm-12 3h1v1h-1zm20 0h1v1h-1zm-14 3h1v1h-1zm8 0h1v1h-1zM0 81h1v2H0zm65 0h1v2h-1zM0 83h1v1H0zm65 0h1v1h-1zM1 87h1v1H1zm63 0h1v1h-1zM2 88h1v1H2zm61 0h1v1h-1z"/><path fill="#665" d="M32 13h1v1h-1zm-13 6h1v1h-1zm26 0h1v1h-1zM30 30h1v1h-1zm4 0h1v1h-1zM22 67h1v1h-1zm20 0h1v1h-1zm-14 3h1v1h-1zm8 0h1v1h-1z"/><g fill="#211"><path d="M30 14h1v1h-1zm1 0h3v1h-3zm3 0h1v1h-1zm-7 1h1v1h-1zm10 0h1v1h-1zm-12 1h1v1h-1zm14 0h1v1h-1zm-11 1h1v1h-1zm1 0h1v1h-1zm6 0h1v1h-1zm1 0h1v1h-1zm-10 1h1v1h-1zm1 0h1v1h-1zm10 0h1v1h-1zm1 0h1v1h-1zm-13 1h1v1h-1zm14 0h1v1h-1zm-15 1h1v1h-1zm2 0h1v1h-1zm12 0h1v1h-1zm2 0h1v1h-1zm-20 1h1v1h-1zm3 0h1v1h-1zm2 0h1v1h-1zm14 0h1v1h-1zm2 0h1v1h-1zm3 0h1v1h-1zm-22 1h1v1h-1zm1 0h1v1h-1zm8 0h1v1h-1zm1 0h1v1h-1zm1 0h1v1h-1zm8 0h1v1h-1zm1 0h1v1h-1zm-23 1h1v1h-1zm3 0h1v1h-1zm1 0h1v3h-1zm6 0h1v1h-1zm6 0h1v1h-1zm6 0h1v3h-1zm1 0h1v1h-1zm3 0h1v1h-1zm-26 1h1v6h-1zm3 0h1v2h-1zm6 0h1v1h-1zm1 0h1v1h-1zm6 0h1v1h-1zm1 0h1v1h-1zm6 0h1v2h-1zm3 0h1v6h-1zm-27 1h1v1h-1zm3 0h1v2h-1zm7 0h1v1h-1zm8 0h1v1h-1zm7 0h1v2h-1zm3 0h1v1h-1zm-29 1h1v1h-1z"/><path d="M18 26h2v1h-2zm4 0h1v1h-1zm1 0h1v1h-1zm3 0h1v1h-1zm1 0h1v1h-1zm1 0h1v1h-1zm8 0h1v1h-1zm1 0h2v1h-2zm4 0h1v1h-1zm1 0h2v1h-2zm4 0h1v1h-1zm1 0h1v1h-1zm-30 1h1v1h-1zm1 0h1v1h-1zm3 0h2v1h-2zm2 0h1v1h-1zm3 0h1v1h-1zm1 0h1v1h-1zm1 0h1v1h-1zm8 0h1v1h-1zm1 0h1v1h-1zm1 0h1v1h-1zm3 0h1v1h-1zm1 0h2v1h-2zm4 0h1v1h-1zm1 0h1v1h-1zm-29 1h1v1h-1zm3 0h1v1h-1zm1 0h2v1h-2zm5 0h1v1h-1zm10 0h1v1h-1zm4 0h2v1h-2zm2 0h1v1h-1zm3 0h1v1h-1zm-28 1h1v1h-1zm4 0h1v1h-1zm6 0h1v1h-1zm8 0h1v1h-1zm6 0h1v1h-1zm4 0h1v1h-1zm-27 1h1v1h-1zm3 0h1v1h-1zm7 0h1v1h-1zm6 0h1v1h-1zm7 0h1v1h-1zm3 0h1v1h-1zm-26 1h1v1h-1zm1 0h1v1h-1zm2 0h1v1h-1zm9 0h1v1h-1zm1 0h1v1h-1zm1 0h1v1h-1zm9 0h1v1h-1zm2 0h1v1h-1zm1 0h1v1h-1zm-25 1h1v1h-1zm3 0h1v1h-1zm18 0h1v1h-1zm3 0h1v1h-1zm-24 1h1v1h-1zm1 0h1v1h-1zm3 0h1v1h-1zm16 0h1v1h-1zm3 0h1v1h-1zm1 0h1v1h-1zm-23 1h1v1h-1zm4 0h1v1h-1zm14 0h1v1h-1zm4 0h1v1h-1zm-21 1h1v1h-1zm4 0h1v1h-1zm12 0h1v1h-1zm4 0h1v1h-1zm-19 1h1v1h-1zm4 0h1v1h-1zm1 0h1v1h-1zm8 0h1v1h-1zm1 0h1v1h-1zm4 0h1v1h-1zm-17 1h1v1h-1zm1 0h1v1h-1zm6 0h3v1h-3zm8 0h1v1h-1zm1 0h1v1h-1zm-17 1h1v1h-1zm3 0h1v1h-1zm1 0h1v1h-1zm10 0h1v1h-1zm1 0h1v1h-1zm3 0h1v1h-1zm-12 1h1v1h-1zm1 0h1v1h-1zm1 0h1v1h-1zm1 0h1v1h-1zm1 0h1v1h-1zm1 0h1v1h-1zm1 0h1v1h-1zm-4 10h1v1h-1zm1 0h1v1h-1zm1 0h1v1h-1zm-6 1h1v1h-1zm10 0h1v1h-1zm-12 1h1v1h-1zm14 0h1v1h-1zm-11 1h1v1h-1zm1 0h1v1h-1zm6 0h1v1h-1zm1 0h1v1h-1zm-10 1h1v1h-1zm1 0h1v1h-1zm5 0h1v1h-1zm5 0h1v1h-1zm1 0h1v1h-1zm-13 1h1v1h-1zm14 0h1v1h-1zm-18 1h1v1h-1zm3 0h1v1h-1zm16 0h1v1h-1zm3 0h1v1h-1zm-23 1h1v1h-1zm3 0h1v1h-1zm1 0h1v1h-1zm16 0h1v1h-1zm1 0h1v1h-1zm3 0h1v1h-1zm-24 1h1v1h-1zm2 0h1v1h-1zm1 0h1v1h-1zm9 0h1v1h-1zm9 0h1v1h-1zm1 0h1v1h-1zm2 0h1v1h-1zm-25 1h1v1h-1zm3 0h1v2h-1zm1 0h1v3h-1zm6 0h1v1h-1zm2 0h1v1h-1zm2 0h1v1h-1zm2 0h1v1h-1zm6 0h1v3h-1zm1 0h1v2h-1zm3 0h1v1h-1zm-26 1h1v1h-1zm9 0h1v1h-1zm8 0h1v1h-1zm9 0h1v1h-1zm-27 1h1v1h-1zm1 0h1v6h-1zm2 0h1v1h-1zm1 0h1v1h-1zm6 0h1v2h-1zm8 0h1v2h-1zm6 0h1v1h-1zm1 0h1v1h-1zm2 0h1v6h-1zm1 0h1v1h-1zm-29 1h1v1h-1z"/><path d="M18 61h2v1h-2zm3 0h2v2h-2zm2 0h1v1h-1zm3 0h1v1h-1zm1 0h1v1h-1zm10 0h1v1h-1zm1 0h1v1h-1zm3 0h1v1h-1zm1 0h2v2h-2zm4 0h1v1h-1zm1 0h1v1h-1zm-30 1h1v1h-1zm1 0h1v1h-1zm5 0h1v1h-1zm3 0h1v1h-1zm1 0h2v1h-2zm9 0h2v1h-2zm2 0h1v1h-1zm3 0h1v1h-1zm5 0h1v1h-1zm1 0h1v1h-1zm-30 1h1v1h-1zm1 0h1v1h-1zm3 0h1v1h-1zm1 0h1v1h-1zm1 0h1v1h-1zm4 0h1v1h-1zm10 0h1v1h-1zm4 0h1v1h-1zm1 0h1v1h-1zm1 0h1v1h-1zm3 0h1v1h-1zm1 0h1v1h-1zm-29 1h1v1h-1zm4 0h1v1h-1zm6 0h1v1h-1zm8 0h1v1h-1zm6 0h1v1h-1zm4 0h1v1h-1zm-24 1h1v1h-1zm20 0h1v1h-1zm-23 1h1v1h-1zm3 0h1v1h-1zm9 0h1v1h-1zm2 0h1v1h-1zm9 0h1v1h-1zm3 0h1v1h-1zm-25 1h1v1h-1zm3 0h1v1h-1zm18 0h1v1h-1zm3 0h1v1h-1zm-24 1h1v1h-1zm24 0h1v1h-1zm-23 1h1v1h-1zm22 0h1v1h-1zm-21 1h1v1h-1zm4 0h1v1h-1zm12 0h1v1h-1zm4 0h1v1h-1zm-19 1h1v1h-1zm4 0h1v1h-1zm1 0h1v1h-1zm8 0h1v1h-1zm1 0h1v1h-1zm4 0h1v1h-1zm-17 1h1v1h-1zm6 0h2v1h-2zm2 0h1v1h-1zm1 0h2v1h-2zm7 0h1v1h-1zm-14 1h1v1h-1zm12 0h1v1h-1zm-10 1h1v1h-1zm1 0h1v1h-1zm1 0h1v1h-1zm4 0h1v1h-1zm1 0h1v1h-1zm1 0h1v1h-1z"/></g><path fill="#332" d="M20 20h1v1h-1zm3 0h1v1h-1zm18 0h1v1h-1zm3 0h1v1h-1zM29 49h1v1h-1zm6 0h1v1h-1zm-11 9h1v1h-1zm16 0h1v1h-1zM24 74h1v1h-1zm16 0h1v1h-1z"/><path fill="#100" d="M25 39h1v1h-1zm14 0h1v1h-1zm-11 1h1v1h-1zm8 0h1v1h-1zm-9 35h1v1h-1zm10 0h1v1h-1zm-5 1h1v1h-1z"/><path fill="#766" d="M30 13h1v1h-1zm4 0h1v1h-1zm-13 4h1v1h-1zm5 0h1v1h-1zm12 0h1v1h-1zm5 0h1v1h-1zM26 37h1v1h-1zm12 0h1v1h-1zm-6 11h1v1h-1zm-11 4h1v1h-1zm22 0h1v1h-1zm-24 2h1v1h-1zm26 0h1v1h-1zm-16 3h1v1h-1zm6 0h1v1h-1zm-8 1h1v1h-1zm10 0h1v1h-1zm-20 7h1v1h-1zm3 0h1v1h-1zm10 0h1v1h-1zm4 0h1v1h-1zm10 0h1v1h-1zm3 0h1v1h-1zm-21 3h1v1h-1zm12 0h1v1h-1zm-11 1h1v1h-1zm10 0h1v1h-1zm6 3h1v1h-1zm-15 1h1v1h-1zm8 0h1v1h-1z"/><path fill="#222" d="M26 15h1v1h-1zm12 0h1v1h-1zm-7 1h1v1h-1zm2 0h1v1h-1zm-6 1h1v1h-1zm10 0h1v1h-1zm-10 8h1v1h-1zm10 0h1v1h-1zm-20 3h1v1h-1zm30 0h1v1h-1zm-17 4h1v1h-1zm4 0h1v1h-1zm-5 33h1v1h-1zm6 0h1v1h-1zm-7 1h1v1h-1zm8 0h1v1h-1zm-15 2h1v1h-1zm22 0h1v1h-1zm-24 1h1v1h-1zm26 0h1v1h-1zm-15 7h1v1h-1zm4 0h1v1h-1z"/><path fill="#998" d="M21 37h1v1h-1zm22 0h1v1h-1zM29 54h1v1h-1zm6 0h1v1h-1z"/><path fill="#aaa" d="M0 2h1v1H0zm65 0h1v1h-1zM31 12h1v1h-1zm1 0h1v1h-1zm1 0h1v1h-1zm-7 1h1v1h-1zm12 0h1v1h-1zm-14 1h1v1h-1zm16 0h1v1h-1zm-11 1h1v1h-1zm6 0h1v1h-1zm-8 5h1v1h-1zm10 0h1v1h-1zm-8 1h1v1h-1zm6 0h1v1h-1zm-15 3h1v1h-1zm24 0h1v1h-1zm-12 6h1v1h-1zm-7 1h1v1h-1zm14 0h1v1h-1zm-17 7h1v1h-1zm20 0h1v1h-1zm-14 3h1v1h-1zm8 0h1v1h-1zM26 56h1v1h-1zm12 0h1v1h-1zm-12 3h1v1h-1zm12 0h1v1h-1zm-9 4h1v1h-1zm6 0h1v1h-1zm-15 1h1v1h-1zm4 0h1v1h-1zm16 0h1v1h-1zm4 0h1v1h-1zm-13 1h1v1h-1zm2 0h1v1h-1zm-1 3h1v1h-1zm0 2h1v1h-1zm-3 3h1v1h-1zm6 0h1v1h-1zM1 86h1v1H1zm63 0h1v1h-1zM2 87h1v1H2zm1 0h1v1H3zm1 0h1v1H4zm1 0h56v1H5zm56 0h1v1h-1zm1 0h1v1h-1zm1 0h1v1h-1zM4 88h1v1H4zm1 0h56v1H5zm56 0h1v1h-1z"/><path fill="#cbb" d="M29 12h1v1h-1zm6 0h1v1h-1zm-4 3h1v1h-1zm2 0h1v1h-1zm-9 3h1v1h-1zm16 0h1v1h-1zm-17 1h1v1h-1zm18 0h1v1h-1zM30 47h1v1h-1zm4 0h1v1h-1zm-2 3h1v1h-1zm0 15h1v1h-1zm-9 4h1v1h-1zm18 0h1v1h-1zm-17 1h1v1h-1zm16 0h1v1h-1z"/><path fill="#433" d="M28 14h1v1h-1zm8 0h1v1h-1zm-7 2h1v1h-1zm6 0h1v1h-1zm-11 7h1v1h-1zm7 0h1v1h-1zm2 0h1v1h-1zm7 0h1v1h-1zm-19 1h1v1h-1zm6 0h1v1h-1zm10 0h1v1h-1zm6 0h1v1h-1zm-17 1h1v1h-1zm12 0h1v1h-1zm-12 3h1v1h-1zm12 0h1v1h-1zm-11 2h1v1h-1zm10 0h1v1h-1zm-13 2h1v1h-1zm16 0h1v1h-1zm-17 1h1v1h-1zm18 0h1v1h-1zm-19 1h1v1h-1zm20 0h1v1h-1zm-17 1h1v1h-1zm14 0h1v1h-1zm-15 1h1v1h-1zm16 0h1v1h-1zM24 51h1v1h-1zm16 0h1v1h-1zm-17 2h1v1h-1zm18 0h1v1h-1zm-18 2h1v1h-1zm18 0h1v1h-1zm-22 1h1v1h-1zm26 0h1v1h-1zm-18 3h1v1h-1zm10 0h1v1h-1zm-16 5h1v1h-1zm22 0h1v1h-1zm-19 3h1v1h-1zm16 0h1v1h-1zm-13 3h1v1h-1zm10 0h1v1h-1zm-8 1h1v1h-1zm6 0h1v1h-1z"/><path fill="#655" d="M23 16h1v1h-1zm18 0h1v1h-1zm-21 2h1v1h-1zm24 0h1v1h-1zm-17 5h1v1h-1zm5 0h1v1h-1zm5 0h1v1h-1zm-8 6h1v1h-1zm6 0h1v1h-1zm-15 1h1v1h-1zm24 0h1v1h-1zm-19 2h1v1h-1zm14 0h1v1h-1zM29 51h1v1h-1zm6 0h1v1h-1zm-15 7h1v1h-1zm24 0h1v1h-1zm-20 7h1v1h-1zm16 0h1v1h-1zm-15 2h1v1h-1zm14 0h1v1h-1zm-16 3h1v1h-1zm18 0h1v1h-1zm-10 1h1v1h-1zm1 0h1v1h-1zm1 0h1v1h-1z"/><path fill="#443" d="M24 17h1v1h-1zm16 0h1v1h-1zm-22 4h1v1h-1zm28 0h1v1h-1zm-25 8h1v1h-1zm22 0h1v1h-1zM28 50h1v1h-1zm8 0h1v1h-1zm-15 9h1v1h-1zm22 0h1v1h-1zm-26 5h1v1h-1zm30 0h1v1h-1z"/><path fill="#dcc" d="M32 33h1v1h-1zm-5 33h1v1h-1zm10 0h1v1h-1z"/><path fill="#999" d="M0 3h1v1H0zm65 0h1v1h-1zM0 4h1v1H0zm65 0h1v1h-1zm-38 9h1v1h-1zm10 0h1v1h-1zm-19 7h1v1h-1zm28 0h1v1h-1zm-22 4h1v1h-1zm2 0h1v1h-1zm12 0h1v1h-1zm2 0h1v1h-1zm-16 5h1v1h-1zm2 0h1v1h-1zm12 0h1v1h-1zm2 0h1v1h-1zm-9 1h1v1h-1zm2 0h1v1h-1zm-15 3h1v1h-1zm28 0h1v1h-1zm-14 2h1v1h-1zm-12 1h1v1h-1zm24 0h1v1h-1zm-16 1h1v1h-1zm8 0h1v1h-1zm-8 11h1v1h-1zm8 0h1v1h-1zm0 3h1v1h-1zm-5 19h1v1h-1zm2 0h1v1h-1zm-8 5h1v1h-1zm14 0h1v1h-1zM3 88h1v1H3zm59 0h1v1h-1z"/><path fill="#bba" d="M30 12h1v1h-1zm4 0h1v1h-1z"/><path fill="#877" d="M29 13h1v1h-1zm6 0h1v1h-1zm-7 3h1v1h-1zm8 0h1v1h-1zm-5 5h1v1h-1zm1 0h1v1h-1zm1 0h1v1h-1zM21 32h1v1h-1zm22 0h1v1h-1zM30 48h1v1h-1zm4 0h1v1h-1zm-8 1h1v1h-1zm12 0h1v1h-1zm-10 8h1v1h-1zm8 0h1v1h-1zm-19 1h1v1h-1zm30 0h1v1h-1zM20 71h1v1h-1zm24 0h1v1h-1z"/><path fill="#110" d="M29 18h1v1h-1zm6 0h1v1h-1zm-4 14h3v1h-3zm-10 4h1v1h-1zm22 0h1v1h-1zm-21 1h1v1h-1zm20 0h1v1h-1zm-18 1h1v1h-1zm16 0h1v1h-1zm-14 1h1v1h-1zm12 0h1v1h-1zm-11 1h1v1h-1zm2 0h1v1h-1zm1 0h1v1h-1zm4 0h1v1h-1zm1 0h1v1h-1zm2 0h1v1h-1zm-7 13h1v1h-1zm1 0h1v1h-1zm2 0h1v1h-1zm1 0h1v1h-1zm-3 14h1v1h-1zm1 0h1v1h-1zm1 0h1v1h-1zm-13 3h1v1h-1zm24 0h1v1h-1zm-23 1h1v1h-1zm22 0h1v1h-1zm-21 1h1v1h-1zm20 0h1v1h-1zm-19 1h1v1h-1zm1 0h1v1h-1zm16 0h1v1h-1zm1 0h1v1h-1zm-16 1h1v1h-1zm1 0h1v1h-1zm12 0h1v1h-1zm1 0h1v1h-1zm-11 1h1v1h-1zm1 0h1v1h-1zm6 0h1v1h-1zm1 0h1v1h-1zm-5 1h1v1h-1zm2 0h1v1h-1z"/><path fill="#aa9" d="M25 22h1v1h-1zm14 0h1v1h-1z"/><path fill="#554" d="M31 36h1v1h-1zm2 0h1v1h-1zm-4 1h1v1h-1zm6 0h1v1h-1zm-11 2h1v1h-1zm16 0h1v1h-1zM21 53h1v1h-1zm22 0h1v1h-1z"/><path fill="#bbb" d="M0 1h1v1H0zm1 0h1v1H1zm63 0h1v1h-1zm1 0h1v1h-1zM29 19h1v1h-1zm6 0h1v1h-1zm-18 3h1v1h-1zm30 0h1v1h-1zm-17 2h1v1h-1zm4 0h1v1h-1zm-17 7h1v1h-1zm30 0h1v1h-1zm-20 2h1v1h-1zm10 0h1v1h-1zm-12 3h1v1h-1zm14 0h1v1h-1zm-9 2h1v1h-1zm2 0h1v1h-1zm2 0h1v1h-1zm-3 9h1v1h-1zm1 0h1v1h-1zm1 0h1v1h-1zm-7 1h1v1h-1zm12 0h1v1h-1zm-14 1h1v1h-1zm16 0h1v1h-1zm-10 1h1v1h-1zm4 0h1v1h-1zm-9 2h1v1h-1zm14 0h1v1h-1zm-10 4h1v1h-1zm6 0h1v1h-1zM17 66h1v1h-1zm8 0h1v1h-1zm14 0h1v1h-1zm8 0h1v1h-1zm-16 2h1v1h-1zm2 0h1v1h-1zm-14 2h1v1h-1zm26 0h1v1h-1zM1 85h1v1H1zm63 0h1v1h-1zM2 86h1v1H2zm1 0h1v1H3zm59 0h1v1h-1zm1 0h1v1h-1z"/><g fill="#fff"><path d="M4 1h1v1H4zm1 0h1v1H5zm1 0h54v1H6zm54 0h1v1h-1zm1 0h1v1h-1zM3 2h1v1H3zm1 0h1v1H4zm1 0h56v1H5zm56 0h1v1h-1zm1 0h1v1h-1zM2 3h1v1H2zm1 0h1v1H3zm1 0h2v1H4zm2 0h54v1H6zm54 0h2v1h-2zm2 0h1v1h-1zm1 0h1v1h-1zM2 4h1v2H2zm1 0h1v3H3zm1 0h1v1H4zm1 0h56v8H5zm56 0h1v1h-1zm1 0h1v3h-1zm1 0h1v2h-1z"/><path d="M4 5h58v2H4zM3 7h1v1H3zm1 0h1v1H4zm57 0h1v1h-1zm1 0h1v1h-1zM3 8h1v73H3zm1 0h1v73H4zm57 0h1v74h-1zm1 0h1v73h-1zM5 12h22v1H5zm33 0h23v1H38zM5 13h19v1H5zm19 0h1v1h-1zm16 0h1v1h-1zm1 0h20v1H41zM5 14h18v1H5zm37 0h19v1H42zM5 15h16v1H5zm16 0h1v1h-1zm22 0h1v1h-1zm1 0h17v1H44zM5 16h15v2H5zm15 0h1v1h-1zm24 0h1v1h-1zm1 0h16v2H45zM5 18h14v1H5zm41 0h15v1H46zM5 19h13v2H5zm13 0h1v1h-1zm12 0h1v1h-1zm1 0h3v1h-3zm3 0h1v1h-1zm12 0h1v1h-1zm1 0h14v2H47zm-19 1h2v1h-2zm2 0h1v1h-1zm4 0h1v1h-1zm1 0h2v1h-2zM5 21h12v61H5zm12 0h1v1h-1zm10 0h1v1h-1zm10 0h1v1h-1zm10 0h1v1h-1zm1 0h13v61H48zm-22 1h1v1h-1zm12 0h1v1h-1zm-13 1h1v1h-1zm1 0h1v1h-1zm12 0h1v1h-1zm1 0h1v1h-1zm-14 1h1v2h-1zm6 0h3v5h-3zm8 0h1v2h-1z"/><path d="M30 25h5v4h-5zm-6 1h1v1h-1zm1 0h1v1h-1zm14 0h1v1h-1zm1 0h1v1h-1zm-15 1h1v1h-1zm14 0h1v1h-1zm-14 1h1v2h-1zm14 0h1v2h-1zm-8 1h1v1h-1zm1 0h1v1h-1zm1 0h1v1h-1zm-8 1h1v1h-1zm1 0h1v1h-1zm12 0h1v1h-1zm1 0h1v1h-1zm-13 1h1v1h-1zm12 0h1v1h-1zm-21 1h1v1h-1zm10 0h1v1h-1zm1 0h1v1h-1zm8 0h1v1h-1zm1 0h1v1h-1zm10 0h1v1h-1zm-30 1h1v23h-1zm11 0h1v1h-1zm1 0h1v1h-1zm1 0h1v1h-1zm4 0h1v1h-1zm1 0h1v1h-1zm1 0h1v1h-1zm11 0h14v23H47zm-29 1h1v1h-1zm13 0h1v1h-1zm1 0h1v1h-1zm1 0h1v1h-1zm13 0h1v1h-1zm-28 1h1v19h-1z"/><path d="M46 35h15v19H46zm-27 1h1v17h-1z"/><path d="M45 36h16v17H45zm-25 1h1v15h-1z"/><path d="M44 37h17v15H44zm-23 1h1v13h-1z"/><path d="M43 38h18v13H43zm-21 1h1v11h-1z"/><path d="M42 39h19v11H42zm-19 1h2v9h-2z"/><path d="M40 40h21v9H40zm-15 1h2v7h-2z"/><path d="M38 41h23v7H38z"/><path d="M27 42h34v5H27zm0 5h1v1h-1zm10 0h1v1h-1zm-19 7h1v1h-1zm13 0h1v1h-1zm1 0h1v1h-1zm1 0h1v1h-1zm13 0h1v1h-1zm-18 1h1v1h-1zm1 0h1v1h-1zm1 0h1v1h-1zm4 0h1v1h-1zm1 0h1v1h-1zm1 0h1v1h-1zm-19 1h1v1h-1zm10 0h1v1h-1zm1 0h1v1h-1zm8 0h1v1h-1zm1 0h1v1h-1zm10 0h1v1h-1zm-21 1h1v1h-1zm12 0h1v1h-1zm-13 1h1v1h-1zm1 0h1v1h-1zm12 0h1v1h-1zm1 0h1v1h-1zm-14 1h1v2h-1zm6 0h1v1h-1zm1 0h1v6h-1zm1 0h1v1h-1zm6 0h1v2h-1z"/><path d="M30 60h5v4h-5zm-5 1h1v1h-1zm14 0h1v1h-1zm-15 1h1v1h-1zm1 0h1v1h-1zm14 0h1v1h-1zm1 0h1v1h-1zm-15 1h1v2h-1zm14 0h1v2h-1zm-8 1h3v1h-3zm-6 1h1v1h-1zm14 0h1v1h-1zm-13 1h1v1h-1zm12 0h1v1h-1zm-21 1h1v1h-1zm10 0h1v1h-1zm10 0h1v1h-1zm10 0h1v1h-1zm-30 1h1v16h-1zm11 0h2v1h-2zm7 0h2v1h-2zm12 0h14v14H47zm-17 1h1v1h-1zm1 0h3v1h-3zm3 0h1v1h-1zm-16 1h1v14h-1z"/><path d="M46 70h15v12H46zm-27 1h1v13h-1z"/><path d="M45 71h16v11H45zm-25 1h1v1h-1zm24 0h1v1h-1zm-24 1h1v11h-1zm1 0h1v1h-1zm22 0h1v1h-1z"/><path d="M44 73h17v9H44zm-23 1h2v10h-2z"/><path d="M42 74h19v8H42zm-19 1h1v9h-1zm1 0h1v1h-1zm16 0h1v1h-1z"/><path d="M41 75h20v7H41zm-17 1h2v8h-2zm2 0h1v1h-1zm12 0h1v1h-1z"/><path d="M39 76h22v6H39z"/><path d="M26 77h35v5H26zM3 81h1v1H3zm1 0h1v2H4zm58 0h1v1h-1zM3 82h1v1H3zm2 0h1v1H5zm1 0h54v1H6zm54 0h1v1h-1zm1 0h1v1h-1zm1 0h1v1h-1zM3 83h1v1H3zm1 0h1v1H4zm1 0h1v1H5zm1 0h1v1H6zm1 0h52v1H7zm52 0h1v1h-1zm1 0h1v1h-1zm1 0h1v1h-1zm1 0h1v1h-1zM5 84h1v1H5zm1 0h1v1H6zm1 0h1v1H7zm1 0h50v1H8zm50 0h1v1h-1zm1 0h1v1h-1zm1 0h1v1h-1z"/></g><path fill="#ddd" d="M3 0h1v1H3zm1 0h1v1H4zm1 0h56v1H5zm56 0h1v1h-1zm1 0h1v1h-1zM2 1h1v1H2zm61 0h1v1h-1zM1 6h1v1H1zm63 0h1v1h-1zM1 7h1v1H1zm63 0h1v1h-1zM1 8h1v1H1zm63 0h1v1h-1zM1 9h1v73H1zm63 0h1v73h-1zm-36 3h1v1h-1zm8 0h1v1h-1zm-11 1h1v1h-1zm14 0h1v1h-1zm-8 7h1v1h-1zm2 0h1v1h-1zm-6 2h1v1h-1zm10 0h1v1h-1zm-13 3h1v1h-1zm16 0h1v1h-1zm-11 1h1v1h-1zm6 0h1v1h-1zm-6 1h1v1h-1zm6 0h1v1h-1zm-11 1h1v1h-1zm16 0h1v1h-1zM23 39h1v1h-1zm18 0h1v1h-1zM22 50h1v1h-1zm20 0h1v1h-1zm-23 3h1v1h-1zm26 0h1v1h-1zm-15 1h1v1h-1zm4 0h1v1h-1zm-10 6h1v1h-1zm16 0h1v1h-1zm-11 1h1v1h-1zm6 0h1v1h-1zm-6 1h1v1h-1zm6 0h1v1h-1zm-11 1h1v1h-1zm16 0h1v1h-1zm-10 1h1v1h-1zm4 0h1v1h-1zm-8 3h1v1h-1zm12 0h1v1h-1zm-9 2h1v1h-1zm6 0h1v1h-1zM1 82h1v1H1zm63 0h1v1h-1zM1 83h1v1H1zm63 0h1v1h-1zM2 84h1v1H2zm61 0h1v1h-1zM3 85h1v1H3zm1 0h1v1H4zm1 0h1v1H5zm1 0h1v1H6zm1 0h2v1H7zm50 0h2v1h-2zm2 0h1v1h-1zm1 0h1v1h-1zm1 0h1v1h-1zm1 0h1v1h-1z"/><path fill="#eee" d="M3 1h1v1H3zm59 0h1v1h-1zM2 2h1v1H2zm61 0h1v1h-1zM1 3h1v1H1zm63 0h1v1h-1zM1 4h1v1H1zm63 0h1v1h-1zM1 5h1v1H1zm63 0h1v1h-1zM2 6h1v1H2zm61 0h1v1h-1zM2 7h1v1H2zm61 0h1v1h-1zM2 8h1v74H2zm61 0h1v74h-1zm-36 4h1v1h-1zm10 0h1v1h-1zm-14 2h1v1h-1zm18 0h1v1h-1zm-13 7h1v1h-1zm8 0h1v1h-1zm-12 6h1v1h-1zm16 0h1v1h-1zm-13 4h1v1h-1zm10 0h1v1h-1zm-7 3h1v1h-1zm4 0h1v1h-1zm-7 7h1v1h-1zm10 0h1v1h-1zm-9 6h1v1h-1zm8 0h1v1h-1zm-11 1h1v1h-1zm14 0h1v1h-1zm-16 1h1v1h-1zm18 0h1v1h-1zm-10 6h1v1h-1zm2 0h1v1h-1zm-6 2h1v1h-1zm10 0h1v1h-1zm-13 4h1v1h-1zm16 0h1v1h-1zm-14 4h1v1h-1zm12 0h1v1h-1zm-10 2h1v1h-1zm8 0h1v1h-1zm-6 1h1v1h-1zm4 0h1v1h-1zm-16 1h1v1h-1zm28 0h1v1h-1zM2 82h1v1H2zm61 0h1v1h-1zM2 83h1v1H2zm61 0h1v1h-1zM3 84h1v1H3zm1 0h1v1H4zm57 0h1v1h-1zm1 0h1v1h-1zM9 85h48v1H9z"/><path fill="#111" d="M30 17h1v1h-1zm1 0h1v1h-1zm1 0h1v1h-1zm1 0h1v1h-1zm1 0h1v1h-1zm-6 1h1v1h-1zm2 0h1v1h-1zm4 0h1v1h-1zm2 0h1v1h-1zm-10 1h1v1h-1zm1 0h1v1h-1zm10 0h1v1h-1zm1 0h1v1h-1zm-13 1h1v1h-1zm14 0h1v1h-1zm-15 1h1v1h-1zm16 0h1v1h-1zm-16 1h1v1h-1zm16 0h1v1h-1zm-10 1h1v1h-1zm4 0h1v1h-1zm-7 6h1v1h-1zm10 0h1v1h-1zm-19 1h1v1h-1zm10 0h1v1h-1zm8 0h1v1h-1zm10 0h1v1h-1zm-28 1h1v1h-1zm11 0h1v1h-1zm1 0h1v1h-1zm4 0h1v1h-1zm1 0h1v1h-1zm11 0h1v1h-1zm-27 1h1v1h-1zm26 0h1v1h-1zm-26 1h1v1h-1zm26 0h1v1h-1zm-25 1h1v1h-1zm24 0h1v1h-1zm-24 1h1v1h-1zm1 0h1v1h-1zm22 0h1v1h-1zm1 0h1v1h-1zm-22 1h1v1h-1zm20 0h1v1h-1zm-19 1h1v1h-1zm18 0h1v1h-1zm-16 1h1v1h-1zm14 0h1v1h-1zm-12 1h1v1h-1zm1 0h1v1h-1zm8 0h1v1h-1zm1 0h1v1h-1zm-6 1h1v1h-1zm1 0h1v1h-1zm1 0h1v1h-1zm-3 12h1v1h-1zm1 0h1v1h-1zm1 0h1v1h-1zm1 0h1v1h-1zm1 0h1v1h-1zm-6 1h1v1h-1zm1 0h1v1h-1zm6 0h1v1h-1zm1 0h1v1h-1zm-10 1h1v1h-1zm1 0h1v1h-1zm10 0h1v1h-1zm1 0h1v1h-1zm-13 1h1v1h-1zm1 0h1v1h-1zm12 0h1v1h-1zm1 0h1v1h-1zm-14 1h1v1h-1zm14 0h1v1h-1zm-15 1h1v1h-1zm16 0h1v1h-1zm-10 1h1v1h-1zm4 0h1v1h-1zm-5 1h1v1h-1zm6 0h1v1h-1zm-8 5h1v1h-1zm10 0h1v1h-1zm-19 1h1v1h-1zm10 0h1v1h-1zm8 0h1v1h-1zm10 0h1v1h-1zm-28 1h1v1h-1zm11 0h1v1h-1zm1 0h1v1h-1zm4 0h1v1h-1zm1 0h1v1h-1zm11 0h1v1h-1zm-27 1h1v1h-1zm11 0h1v1h-1zm4 0h1v1h-1zm11 0h1v1h-1zm-26 1h1v1h-1zm26 0h1v1h-1zm-25 1h1v1h-1zm24 0h1v1h-1zm-23 1h1v1h-1zm22 0h1v1h-1zm-21 1h1v1h-1zm20 0h1v1h-1zm-19 1h1v1h-1zm18 0h1v1h-1zm-16 1h1v1h-1zm14 0h1v1h-1zm-12 1h1v1h-1zm10 0h1v1h-1zm-7 1h1v1h-1zm1 0h1v1h-1zm1 0h1v1h-1zm1 0h1v1h-1zm1 0h1v1h-1z"/><path fill="#444" d="M32 18h1v1h-1zm-10 1h1v1h-1zm6 0h1v1h-1zm8 0h1v1h-1zm6 0h1v1h-1zm-23 1h1v1h-1zm26 0h1v1h-1zm-15 2h1v1h-1zm4 0h1v1h-1zm-17 2h1v1h-1zm30 0h1v1h-1zm-30 5h1v1h-1zm30 0h1v1h-1zm-23 2h1v1h-1zm16 0h1v1h-1zm-15 2h1v1h-1zm14 0h1v1h-1zm-13 1h1v1h-1zm12 0h1v1h-1zm-8 2h1v1h-1zm4 0h1v1h-1zm-9 17h1v1h-1zm14 0h1v1h-1zm-20 2h1v1h-1zm26 0h1v1h-1zM24 66h1v1h-1zm16 0h1v1h-1z"/><path fill="#887" d="M30 21h1v1h-1zm4 0h1v1h-1z"/></svg>