<svg xmlns="http://www.w3.org/2000/svg" width="66" height="90" baseProfile="tiny" version="1.2"><path fill="#d45" d="M31 41h1v1h-1zm1 0h1v1h-1zm1 0h1v1h-1zm2 1h1v1h-1zm-7 2h1v1h-1zm8 0h1v1h-1zm-9 5h1v1h-1zm10 0h1v1h-1z"/><path fill="#e88" d="M34 41h1v1h-1zm5 5h1v1h-1zm-12 2h1v1h-1z"/><path fill="#443" d="M29 18h1v1h-1zm9 20h1v1h-1zm0 24h1v1h-1zm-1 6h1v1h-1z"/><path fill="#ffe" d="M22 30h1v1h-1z"/><path fill="#b34" d="M27 40h1v1h-1zm3 8h1v1h-1zm4 0h1v1h-1z"/><path fill="#b23" d="M29 39h1v1h-1zm6 0h1v1h-1zm2 1h1v1h-1zm-7 3h1v1h-1zm4 0h1v1h-1zm-5 4h1v1h-1z"/><path fill="#ccc" d="M1 0h1v1H1zm1 0h1v1H2zm61 0h1v1h-1zm1 0h1v1h-1zM1 2h1v1H1zm63 0h1v1h-1zM24 13h1v1h-1zm-5 2h1v1h-1zm5 1h1v1h-1zm1 0h1v1h-1zm-13 1h1v1h-1zm4 0h1v1h-1zm-1 1h1v1h-1zm-2 3h1v1h-1zm12 0h1v1h-1zm3 0h1v1h-1zm-15 3h1v1h-1zm15 0h1v1h-1zm-2 1h1v1h-1zm-11 2h1v1h-1zm2 0h1v1h-1zm4 0h1v1h-1zm-5 1h1v1h-1zm3 0h1v1h-1zm4 2h1v1h-1zm6 5h1v1h-1zm6 0h1v1h-1zm4 6h1v1h-1zM26 53h1v1h-1zm12 0h1v1h-1zm2 3h1v1h-1zm5 4h1v1h-1zm1 2h1v1h-1zm-8 1h1v1h-1zm9 0h1v1h-1zm-11 1h1v1h-1zm3 0h1v1h-1zm3 0h1v1h-1zm9 0h1v1h-1zm-12 3h1v1h-1zm12 0h1v1h-1zm-13 1h1v1h-1zm9 0h1v1h-1zm-1 1h1v1h-1zM1 84h1v1H1zm63 0h1v1h-1zM2 85h1v1H2zm61 0h1v1h-1zM4 86h1v1H4zm1 0h1v1H5zm1 0h1v1H6zm1 0h52v1H7zm52 0h1v1h-1zm1 0h1v1h-1zm1 0h1v1h-1z"/><path fill="#fee" d="M21 15h1v1h-1zm-2 8h1v1h-1zm4 16h1v1h-1zm4 0h1v1h-1zm5 0h1v1h-1zm5 0h1v1h-1zm-11 1h1v1h-1zm6 0h1v1h-1zm6 0h1v1h-1zm-9 1h1v1h-1zm6 0h1v1h-1zm-8 1h1v1h-1zm1 5h1v1h-1zm8 0h1v1h-1zm-10 2h1v1h-1zm12 0h1v1h-1zm-11 1h1v1h-1zm1 1h1v1h-1zm8 0h1v1h-1zm8 22h1v1h-1z"/><path fill="#111" d="M30 25h1v1h-1zm-18 1h1v1h-1zm8 0h1v1h-1zm1 0h1v1h-1zm1 0h1v1h-1zm7 1h1v1h-1zm-16 1h1v1h-1zm15 0h1v1h-1zm-14 1h1v1h-1zm13 0h1v1h-1zm-12 1h1v1h-1zm1 0h1v1h-1zm10 0h1v1h-1zm-9 1h1v1h-1zm1 0h1v1h-1zm5 0h1v1h-1zm1 0h1v1h-1zm-1 17h1v1h-1zm18 0h1v1h-1zm-17 1h1v1h-1zm1 2h1v1h-1zm14 0h1v1h-1zm-13 1h1v1h-1zm1 0h1v1h-1zm10 0h1v1h-1zm1 0h1v1h-1zm-9 1h1v1h-1zm6 0h1v1h-1zm8 6h2v1h-2zm-9 9h1v1h-1zm9 1h2v1h-2zm9 0h1v1h-1zm-17 1h1v1h-1zm1 1h1v1h-1zm15 0h1v1h-1zm-14 1h1v1h-1zm13 0h1v1h-1zm-12 1h1v1h-1zm10 0h1v1h-1zm-9 1h1v1h-1zm1 0h1v1h-1zm1 0h1v1h-1zm4 0h1v1h-1zm1 0h1v1h-1z"/><path fill="#eaa" d="M36 49h1v1h-1z"/><path fill="#bbb" d="M0 1h1v1H0zm1 0h1v1H1zm63 0h1v1h-1zm1 0h1v1h-1zM18 13h1v1h-1zm8 1h1v1h-1zm-12 1h1v1h-1zm5 2h1v1h-1zm11 1h1v1h-1zm-19 1h1v1h-1zm11 2h1v1h-1zm-5 4h1v1h-1zm1 1h1v1h-1zm10 28h1v1h-1zm18 2h1v1h-1zm-5 2h1v1h-1zm-1 1h1v1h-1zm8 1h1v1h-1zm1 0h1v1h-1zm-15 1h1v1h-1zm13 0h1v1h-1zm2 0h1v1h-1zm-1 1h1v1h-1zm0 7h1v1h-1zm-1 1h1v1h-1zm2 1h1v1h-1zm-3 1h1v1h-1zm-5 1h1v1h-1zm8 1h1v1h-1zM1 85h1v1H1zm63 0h1v1h-1zM2 86h1v1H2zm1 0h1v1H3zm59 0h1v1h-1zm1 0h1v1h-1z"/><path fill="#c12" d="M35 45h1v1h-1z"/><path fill="#c34" d="M36 45h1v1h-1zm-10 2h1v1h-1zm5 0h1v1h-1zm7 0h1v1h-1z"/><path fill="#aa9" d="M16 29h1v1h-1zm8 16h1v1h-1zm26 23h1v1h-1z"/><path fill="#c23" d="M30 42h1v1h-1z"/><g fill="#fff"><path d="M4 1h1v1H4zm1 0h1v1H5zm1 0h54v1H6zm54 0h1v1h-1zm1 0h1v1h-1zM3 2h1v1H3zm1 0h1v1H4zm1 0h56v1H5zm56 0h1v1h-1zm1 0h1v1h-1zM2 3h1v1H2zm1 0h1v1H3zm1 0h2v1H4zm2 0h54v1H6zm54 0h2v1h-2zm2 0h1v1h-1zm1 0h1v1h-1zM2 4h1v2H2zm1 0h1v3H3zm1 0h1v1H4zm1 0h56v9H5zm56 0h1v1h-1zm1 0h1v3h-1zm1 0h1v2h-1z"/><path d="M4 5h58v2H4zM3 7h1v1H3zm1 0h1v1H4zm57 0h1v1h-1zm1 0h1v1h-1zM3 8h1v73H3zm1 0h1v73H4zm57 0h1v74h-1zm1 0h1v73h-1zM5 13h11v1H5zm11 0h1v1h-1zm9 0h1v1h-1zm1 0h35v1H26zM5 14h10v1H5zm22 0h1v1h-1zm1 0h33v1H28zM5 15h8v2H5zm8 0h1v1h-1zm16 0h32v1H29zm1 1h31v1H30zM5 17h7v1H5zm25 0h1v1h-1zm1 0h30v3H31zM5 18h6v64H5zm6 0h1v1h-1zm7 0h2v1h-2zm4 0h1v1h-1zm1 0h1v1h-1zm-6 1h1v1h-1zm7 0h1v1h-1zm1 0h1v1h-1zm-9 1h1v2h-1zm9 0h1v1h-1zm7 0h29v15H32zm-12 1h1v1h-1zm1 0h1v4h-1zm5 0h1v1h-1zm-10 1h1v1h-1z"/><path d="M20 22h3v2h-3zm6 0h1v2h-1zm-10 1h1v1h-1zm0 1h1v2h-1zm4 0h1v1h-1zm6 0h1v1h-1zm-1 1h1v1h-1zm-8 1h1v1h-1zm7 0h1v1h-1zm1 0h1v1h-1zm6 0h30v9H31zm-20 1h1v1h-1zm7 0h1v1h-1zm1 0h1v1h-1zm4 0h1v1h-1zm1 0h1v1h-1zm-13 1h1v56h-1zm9 0h1v1h-1zm1 0h1v1h-1zm9 0h1v1h-1zm-18 1h1v55h-1z"/><path d="M30 29h31v6H30zm-17 1h1v1h-1zm7 0h1v1h-1zm1 0h1v1h-1z"/><path d="M29 30h32v5H29zm-16 1h2v53h-2z"/><path d="M28 31h33v4H28zm-13 1h1v52h-1zm1 0h1v1h-1z"/><path d="M26 32h35v3H26zm-10 1h4v51h-4zm4 0h1v1h-1zm2 0h1v1h-1z"/><path d="M23 33h38v2H23z"/><path d="M20 34h41v1H20zm0 1h8v1h-8zm17 0h24v1H37zm-17 1h6v1h-6zm6 0h1v1h-1zm13 0h22v1H39zm-19 1h5v1h-5zm20 0h21v1H40zm-20 1h4v1h-4zm21 0h20v1H41zm-21 1h3v2h-3zm22 0h19v2H42zm-13 1h1v1h-1zm1 0h1v1h-1zm1 0h1v1h-1zm2 0h1v1h-1zm1 0h1v1h-1zm1 0h1v1h-1zm-15 1h2v43h-2zm8 0h1v1h-1zm8 0h1v1h-1zm7 0h18v14H43zm-15 1h1v1h-1zm-1 1h1v4h-1zm5 0h1v4h-1zm5 0h1v4h-1z"/><path d="M31 44h3v2h-3zm0 2h1v1h-1zm2 0h1v1h-1zm-6 1h1v1h-1zm10 0h1v1h-1zm-9 1h1v1h-1zm8 0h1v1h-1zm-14 1h1v35h-1zm7 0h2v1h-2zm5 0h1v1h-1zm1 0h1v1h-1zm7 0h19v6H42zm-11 1h1v1h-1zm1 0h1v1h-1zm1 0h1v1h-1zm-10 1h1v33h-1z"/><path d="M41 51h20v4H41zm-17 1h1v32h-1zm7 0h1v1h-1zm2 0h1v1h-1z"/><path d="M40 52h21v3H40zm-15 1h1v31h-1z"/><path d="M39 53h22v2H39zm-13 1h1v30h-1zm1 0h1v1h-1zm10 0h1v1h-1z"/><path d="M38 54h23v1H38zm-11 1h4v29h-4zm7 0h8v1h-8zm8 0h1v1h-1zm1 0h1v1h-1zm1 0h1v1h-1zm1 0h16v1H45zm-14 1h8v1h-8zm17 0h1v1h-1zm1 0h12v1H49zm-18 1h6v1h-6zm6 0h1v1h-1zm13 0h11v1H50zm-19 1h5v1h-5zm12 0h2v1h-2zm8 0h1v1h-1zm1 0h9v2h-9zm-21 1h4v1h-4zm0 1h3v3h-3zm3 0h1v1h-1zm9 0h1v1h-1zm1 0h1v1h-1zm9 0h8v1h-8zm-13 1h1v1h-1zm1 0h1v1h-1zm1 0h1v1h-1zm3 0h1v1h-1zm1 0h1v1h-1zm7 0h1v1h-1zm1 0h7v21h-7zm-15 1h1v1h-1zm1 0h1v1h-1zm7 0h1v1h-1zm-16 1h2v21h-2zm8 0h1v1h-1zm9 0h1v2h-1zm-10 1h1v1h-1zm5 0h1v4h-1zm1 0h1v1h-1zm-6 1h1v2h-1z"/><path d="M42 65h3v2h-3zm6 0h1v1h-1zm0 1h1v1h-1zm-10 1h1v1h-1zm6 0h1v1h-1zm4 0h1v2h-1zm-9 1h1v1h-1zm-6 1h1v15h-1zm6 0h1v1h-1zm1 0h1v1h-1zm7 0h1v1h-1zm-6 1h1v1h-1zm1 0h1v1h-1zm3 0h2v1h-2zm8 0h1v1h-1zm-19 1h1v1h-1zm19 0h8v11h-8zm-19 1h1v12h-1z"/><path d="M52 72h9v10h-9zm-17 1h1v11h-1zm8 0h1v1h-1zm8 0h1v1h-1zm-15 1h1v10h-1zm1 0h1v1h-1z"/><path d="M50 74h11v8H50zm-13 1h2v9h-2zm11 0h1v1h-1z"/><path d="M49 75h12v7H49z"/><path d="M39 76h22v6H39zM3 81h1v1H3zm1 0h1v2H4zm58 0h1v1h-1zM3 82h1v1H3zm2 0h1v1H5zm1 0h54v1H6zm54 0h1v1h-1zm1 0h1v1h-1zm1 0h1v1h-1zM3 83h1v1H3zm1 0h1v1H4zm1 0h1v1H5zm1 0h1v1H6zm1 0h52v1H7zm52 0h1v1h-1zm1 0h1v1h-1zm1 0h1v1h-1zm1 0h1v1h-1zM5 84h1v1H5zm1 0h1v1H6zm1 0h1v1H7zm1 0h50v1H8zm50 0h1v1h-1zm1 0h1v1h-1zm1 0h1v1h-1z"/></g><path fill="#baa" d="M23 13h1v1h-1zm-6 5h1v1h-1zm-1 1h1v1h-1zm15 2h1v1h-1zm-3 1h1v1h-1zm2 13h1v1h-1zm-3 1h1v1h-1zm7 1h1v1h-1zm6 8h1v1h-1zm-2 12h1v1h-1zm15 5h1v1h-1zm-4 2h1v1h-1zm-13 2h1v1h-1zm13 1h1v1h-1zm-12 2h1v1h-1zm15 2h1v1h-1zm-5 4h1v1h-1z"/><path fill="#333" d="M20 14h1v1h-1zm6 2h1v1h-1zm-13 2h1v1h-1zm-1 1h1v1h-1zm1 7h1v1h-1zm17 0h1v1h-1zm-7 6h1v1h-1zm9 4h1v1h-1zm9 5h1v1h-1zM27 53h1v1h-1zm10 0h1v1h-1zm10 5h1v1h-1zm-2 1h1v1h-1zm6 3h1v1h-1zm-10 5h1v1h-1zm4 2h1v1h-1zm-7 3h1v1h-1z"/><path fill="#ccb" d="M15 28h1v1h-1z"/><path fill="#110" d="M25 31h1v1h-1zm-5 1h1v1h-1zm1 0h1v1h-1zm1 0h1v1h-1zm6 21h1v1h-1zm8 0h1v1h-1zm-5 1h3v1h-3zm18 19h1v1h-1zm-2 1h1v1h-1zm-4 1h1v1h-1z"/><path fill="#d89" d="M30 39h1v1h-1z"/><path fill="#aaa" d="M0 2h1v1H0zm65 0h1v1h-1zM19 13h1v1h-1zm4 2h1v1h-1zm-10 1h1v1h-1zm2 1h1v1h-1zm0 4h1v1h-1zm13 2h1v1h-1zm3 1h1v1h-1zm-20 2h1v1h-1zm16 0h1v1h-1zm-15 2h1v1h-1zm11 0h1v1h-1zm-5 1h1v1h-1zm0 1h1v1h-1zm-3 1h1v1h-1zm19 4h1v1h-1zm3 1h1v1h-1zm-7 1h1v1h-1zm-8 5h1v1h-1zm18 2h1v1h-1zm-16 7h1v1h-1zm1 1h1v1h-1zm11 2h1v1h-1zm5 2h1v1h-1zm9 2h1v1h-1zm-17 6h1v1h-1zm3 1h1v1h-1zm-3 2h1v1h-1zm20 2h1v1h-1zm-19 1h1v1h-1zM1 86h1v1H1zm63 0h1v1h-1zM2 87h1v1H2zm1 0h1v1H3zm1 0h1v1H4zm1 0h56v1H5zm56 0h1v1h-1zm1 0h1v1h-1zm1 0h1v1h-1zM4 88h1v1H4zm1 0h56v1H5zm56 0h1v1h-1z"/><path fill="#ddc" d="M22 17h1v1h-1z"/><path fill="#edd" d="M27 18h1v1h-1zm4 25h1v1h-1zm2 0h1v1h-1zm6 5h1v1h-1zm-8 1h1v1h-1zm2 0h1v1h-1zm1 3h1v1h-1zm8 8h1v1h-1zm2 1h1v1h-1zm-5 14h1v1h-1z"/><path fill="#cbb" d="M26 20h1v1h-1zm-1 4h1v1h-1zm-9 2h1v1h-1zm9 15h1v1h-1zm27 19h1v1h-1zm-7 11h1v1h-1z"/><path fill="#ecd" d="M35 48h1v1h-1z"/><path fill="#888" d="M0 5h1v1H0zm65 0h1v1h-1zM0 6h1v1H0zm65 0h1v1h-1zM0 7h1v1H0zm65 0h1v1h-1zM0 8h1v73H0zm65 0h1v73h-1zm-40 6h1v1h-1zm-7 1h1v1h-1zm9 0h1v1h-1zm-4 2h1v1h-1zm-9 1h1v1h-1zm-1 2h1v1h-1zm12 3h1v1h-1zm-7 5h1v1h-1zm23 12h1v1h-1zm-17 6h1v1h-1zm2 4h1v1h-1zm11 8h1v1h-1zm14 5h1v1h-1zm-12 2h1v1h-1zm0 1h1v1h-1zm6 1h1v1h-1zm6 1h1v1h-1zm-6 4h1v1h-1zm-5 3h1v1h-1zM0 81h1v2H0zm65 0h1v2h-1zM0 83h1v1H0zm65 0h1v1h-1zM1 87h1v1H1zm63 0h1v1h-1zM2 88h1v1H2zm61 0h1v1h-1z"/><path fill="#554" d="M23 14h1v1h-1zm-10 3h1v1h-1zm7 8h1v1h-1zm17 13h1v1h-1zm5 6h1v1h-1zm-1 5h1v1h-1zm11 12h1v1h-1zm-4 9h1v1h-1z"/><path fill="#322" d="M17 15h1v1h-1zm5 1h1v1h-1zm-8 1h1v1h-1zm3 0h1v1h-1zm11 1h1v1h-1zm-15 1h1v1h-1zm2 0h1v1h-1zm14 0h1v1h-1zm-17 1h1v1h-1zm9 0h1v1h-1zm6 0h1v1h-1zm-16 1h1v1h-1zm13 0h1v1h-1zm3 0h1v1h-1zm-13 1h1v2h-1zm-3 2h1v1h-1zm11 1h1v1h-1zm-3 1h1v1h-1zm9 1h1v1h-1zm8 10h1v1h-1zm5 5h1v1h-1zm-5 10h1v1h-1zm7 5h1v1h-1zm1 0h1v1h-1zm5 2h1v1h-1zm-9 1h1v1h-1zm10 0h1v1h-1zm-14 1h1v1h-1zm-1 1h1v1h-1zm2 1h1v1h-1zm7 0h1v1h-1zm-4 1h1v1h-1zm13 0h1v1h-1zm-3 1h1v1h-1zm0 1h1v1h-1zm3 1h1v1h-1zm-11 1h1v1h-1zm9 1h1v1h-1zm1 1h1v1h-1zm-16 2h1v1h-1zm11 1h1v1h-1zm1 1h1v1h-1zm-3 1h1v1h-1z"/><path fill="#ebb" d="M29 38h1v1h-1zm6 0h1v1h-1zm-1 7h1v1h-1zm-2 4h1v1h-1zm-3 2h1v1h-1zm6 0h1v1h-1z"/><path fill="#c67" d="M28 40h1v1h-1z"/><path fill="#d56" d="M29 42h1v1h-1zm-3 1h1v1h-1zm13 2h1v1h-1zm-9 1h1v1h-1zm8 2h1v1h-1zm-7 3h1v1h-1zm2 0h1v1h-1z"/><path fill="#666" d="M26 15h1v1h-1zm-15 5h1v1h-1zm18 2h1v1h-1zm0 1h1v1h-1zm-16 6h1v1h-1zm7 0h2v1h-2zm-6 1h1v1h-1zm15 7h1v1h-1zm6 0h1v1h-1zm-10 1h1v1h-1zm14 0h1v1h-1zm-1 1h1v1h-1zm2 18h1v1h-1zm0 1h1v1h-1zm-1 2h1v1h-1zm7 0h1v1h-1zm-1 2h1v1h-1zm-10 3h1v1h-1zm0 1h1v1h-1zm14 2h1v1h-1zm-2 3h1v1h-1zm-4 1h1v1h-1zM0 88h1v1H0zm1 0h1v1H1zm63 0h1v1h-1zm1 0h1v1h-1zM1 89h1v1H1zm1 0h1v1H2zm1 0h1v1H3zm1 0h58v1H4zm58 0h1v1h-1zm1 0h1v1h-1zm1 0h1v1h-1z"/><path fill="#988" d="M28 19h1v1h-1zm-3 3h1v1h-1zm-6 2h1v1h-1zm-6 1h1v1h-1zm12 3h1v1h-1zm-2 12h1v1h-1zm17 3h1v1h-1zm3 13h1v1h-1zm5 1h1v1h-1zm2 4h1v1h-1zm-9 1h1v1h-1zm9 1h1v1h-1zm0 7h1v1h-1z"/><path fill="#665" d="M19 21h1v1h-1zm5 7h1v1h-1zm2 3h1v1h-1zm-2 8h1v1h-1zm18 7h1v1h-1zm-3 3h1v1h-1zm14 14h1v1h-1zm-13 5h1v1h-1zm0 5h1v1h-1z"/><path fill="#c35" d="M33 47h1v1h-1z"/><path fill="#776" d="M25 17h1v1h-1zm15 46h1v1h-1zm-2 11h1v1h-1z"/><path fill="#fdd" d="M33 39h1v1h-1zm-8 3h1v1h-1zm14 0h1v1h-1zm-14 5h1v1h-1zm4 1h1v1h-1zm8 2h1v1h-1z"/><path fill="#d88" d="M39 43h1v1h-1z"/><path fill="#b12" d="M26 42h1v1h-1zm6 0h1v1h-1zm6 0h1v1h-1zm-3 5h1v1h-1z"/><path fill="#d9a" d="M30 44h1v1h-1z"/><path fill="#fcc" d="M39 47h1v1h-1zm-5 3h1v1h-1z"/><path fill="#a01" d="M31 48h1v1h-1zm1 0h1v1h-1zm1 0h1v1h-1z"/><path fill="#655" d="M18 14h1v1h-1zm-4 2h1v1h-1zm12 2h1v1h-1zm-4 1h1v1h-1zm-5 2h1v1h-1zm10 2h1v1h-1zm-1 3h1v1h-1zm-9 2h1v1h-1zm10 9h1v1h-1zm10 0h1v1h-1zm-11 2h1v1h-1zm14 0h1v1h-1zm-18 5h1v1h-1zm0 1h1v1h-1zm18 2h1v1h-1zm-17 2h1v1h-1zm15 9h1v1h-1zm3 1h1v1h-1zm9 0h1v1h-1zm-1 4h1v1h-1zm-12 2h1v2h-1zm13 2h1v1h-1zm-7 1h1v1h-1zm10 0h1v1h-1zm-13 3h1v1h-1zm6 4h1v1h-1z"/><path fill="#a12" d="M32 38h1v1h-1z"/><path fill="#c66" d="M26 41h1v1h-1z"/><path fill="#b56" d="M30 38h1v1h-1zm4 0h1v1h-1z"/><path fill="#b45" d="M28 39h1v1h-1zm8 0h1v1h-1z"/><path fill="#c45" d="M28 45h1v1h-1z"/><path fill="#100" d="M44 75h1v1h-1z"/><path fill="#ddd" d="M3 0h1v1H3zm1 0h1v1H4zm1 0h56v1H5zm56 0h1v1h-1zm1 0h1v1h-1zM2 1h1v1H2zm61 0h1v1h-1zM1 6h1v1H1zm63 0h1v1h-1zM1 7h1v1H1zm63 0h1v1h-1zM1 8h1v1H1zm63 0h1v1h-1zM1 9h1v73H1zm63 0h1v73h-1zm-47 4h1v1h-1zm-2 1h1v1h-1zm7 1h1v1h-1zm9 5h1v1h-1zm-16 2h1v1h-1zm0 1h1v1h-1zm7 1h1v1h-1zm9 1h1v1h-1zm-7 4h1v1h-1zm1 0h1v1h-1zm4 0h1v1h-1zm-1 1h1v1h-1zm-3 2h1v1h-1zm0 5h1v1h-1zm6 0h1v1h-1zm2 0h1v1h-1zm6 0h1v1h-1zm-15 1h1v1h-1zm4 0h1v1h-1zm8 0h1v1h-1zm4 0h1v1h-1zM25 48h1v1h-1zm17 0h1v1h-1zm-19 2h1v1h-1zm18 0h1v1h-1zm-11 2h1v1h-1zm17 4h1v1h-1zm2 1h1v1h-1zm-4 1h1v1h-1zm-6 1h1v1h-1zm4 2h1v1h-1zm-10 2h1v1h-1zm16 2h1v1h-1zm0 1h1v1h-1zm-7 1h1v1h-1zm-9 1h1v1h-1zm10 2h1v1h-1zm1 0h1v1h-1zm-2 1h1v1h-1zm6 0h1v1h-1zm-8 1h1v1h-1zm-4 1h1v1h-1zm9 0h1v1h-1zM1 82h1v1H1zm63 0h1v1h-1zM1 83h1v1H1zm63 0h1v1h-1zM2 84h1v1H2zm61 0h1v1h-1zM3 85h1v1H3zm1 0h1v1H4zm1 0h1v1H5zm1 0h1v1H6zm1 0h2v1H7zm50 0h2v1h-2zm2 0h1v1h-1zm1 0h1v1h-1zm1 0h1v1h-1zm1 0h1v1h-1z"/><path fill="#555" d="M24 15h1v1h-1zm-6 2h1v1h-1zm-6 1h1v1h-1zm8 1h1v1h-1zm10 0h1v1h-1zm-15 1h1v1h-1zm12 2h1v1h-1zm-13 2h1v1h-1zm-3 1h1v1h-1zm13 0h1v1h-1zm1 24h1v1h-1zm4 5h1v1h-1zm6 0h1v1h-1zm11 3h1v1h-1zm-8 4h1v1h-1zm1 0h1v1h-1zm3 1h1v1h-1zm5 2h1v1h-1zm-9 5h1v1h-1z"/><path fill="#221" d="M16 18h1v1h-1zm31 42h1v1h-1zm-1 6h1v1h-1zm-10 4h1v1h-1z"/><path fill="#fef" d="M36 42h1v1h-1zm1 0h1v1h-1zm-5 10h1v1h-1z"/><path fill="#c02" d="M29 44h1v1h-1zm6 0h1v1h-1zm-6 1h1v1h-1z"/><path fill="#211" d="M20 16h1v1h-1zm1 0h1v1h-1zm-2 4h1v1h-1zm1 0h1v1h-1zm2 0h1v1h-1zm7 0h1v1h-1zm-17 1h1v1h-1zm6 0h1v1h-1zm5 0h1v1h-1zm7 0h1v1h-1zm-19 1h1v1h-1zm1 0h1v1h-1zm5 0h1v1h-1zm1 0h1v1h-1zm6 0h1v1h-1zm6 0h1v1h-1zm-19 1h1v1h-1zm1 0h1v1h-1zm5 0h1v1h-1zm1 0h1v1h-1zm6 0h1v1h-1zm6 0h1v1h-1zm-18 1h1v1h-1zm6 0h1v1h-1zm6 0h1v1h-1zm6 0h1v1h-1zm-18 1h1v1h-1zm6 0h1v1h-1zm1 0h1v1h-1zm4 0h1v1h-1zm6 0h1v1h-1zm0 1h1v1h-1zm-16 1h1v1h-1zm1 1h1v1h-1zm1 1h1v1h-1zm10 1h1v1h-1zm-6 1h1v1h-1zm1 0h1v1h-1zm1 0h1v1h-1zm1 0h1v1h-1zm-3 1h1v1h-1zm4 11h1v1h-1zm18 0h1v1h-1zm-18 1h1v2h-1zm18 0h1v2h-1zm-18 2h1v1h-1zm18 0h1v1h-1zm-18 1h1v1h-1zm18 0h1v1h-1zm-17 1h1v1h-1zm16 0h1v1h-1zm0 1h1v1h-1zm-16 1h1v1h-1zm1 0h1v1h-1zm14 0h1v1h-1zm1 0h1v1h-1zm-14 1h1v1h-1zm12 0h1v1h-1zm-8 2h1v1h-1zm1 0h1v1h-1zm2 0h1v1h-1zm1 0h1v1h-1zm-4 1h1v1h-1zm4 0h1v1h-1zm8 5h1v1h-1zm-7 4h1v1h-1zm7 0h1v1h-1zm3 0h1v1h-1zm-11 1h1v1h-1zm7 0h1v1h-1zm5 0h1v1h-1zm6 0h1v1h-1zm-18 1h1v1h-1zm6 0h1v1h-1zm6 0h1v1h-1zm1 0h1v1h-1zm5 0h1v1h-1zm1 0h1v1h-1zm-19 1h1v1h-1zm6 0h1v1h-1zm7 0h1v1h-1zm5 0h1v1h-1zm1 0h1v1h-1zm-19 1h1v1h-1zm6 0h1v1h-1zm6 0h1v1h-1zm6 0h1v1h-1zm-17 1h1v1h-1zm6 0h1v1h-1zm4 0h1v1h-1zm1 0h1v1h-1zm6 0h1v1h-1zm-17 1h1v1h-1zm7 0h1v1h-1zm9 1h1v1h-1zm-1 1h1v1h-1zm-1 1h1v1h-1zm-10 1h1v1h-1zm3 1h1v1h-1zm1 0h2v1h-2zm-1 1h1v1h-1z"/><path fill="#877" d="M29 17h1v1h-1zm-5 3h1v1h-1zm-5 9h1v1h-1zm17 7h1v1h-1zm-10 1h1v1h-1zm12 0h1v1h-1zm-14 6h1v1h-1zm15 14h1v1h-1zm-1 13h1v1h-1zm8 1h1v1h-1z"/><path fill="#a99" d="M27 19h1v1h-1zm3 8h1v1h-1zm-13 5h1v1h-1zm14 3h1v1h-1zm11 7h1v1h-1zm-18 2h1v1h-1zm-2 3h1v1h-1zm13 5h1v1h-1zm16 7h1v1h-1zM41 71h1v2h-1z"/><path fill="#c13" d="M34 42h1v1h-1zm-5 1h1v1h-1zm6 0h1v1h-1z"/><path fill="#ebc" d="M30 50h1v1h-1z"/><path fill="#999" d="M0 3h1v1H0zm65 0h1v1h-1zM0 4h1v1H0zm65 0h1v1h-1zm-45 9h2v1h-2zm2 0h1v1h-1zm-6 1h1v1h-1zm7 5h1v1h-1zm-9 1h1v1h-1zm17 2h1v1h-1zm0 1h1v1h-1zm-17 2h1v1h-1zm14 1h1v1h-1zm-14 1h1v1h-1zm9 2h1v1h-1zm9 6h1v1h-1zm1 0h1v1h-1zm7 11h1v1h-1zm-2 4h1v1h-1zm2 1h1v1h-1zm-11 1h1v1h-1zm10 0h1v1h-1zm3 4h1v1h-1zm3 0h1v1h-1zm1 2h1v1h-1zm-5 2h1v1h-1zm-5 2h1v1h-1zm1 0h1v1h-1zm-4 3h1v1h-1zm0 1h1v1h-1zm3 3h1v1h-1zm3 2h1v1h-1zm7 2h1v1h-1zM3 88h1v1H3zm59 0h1v1h-1z"/><path fill="#433" d="M22 14h1v1h-1zm3 1h1v1h-1zm2 2h1v1h-1zm-1 2h1v1h-1zm-8 1h1v1h-1zm-1 4h1v1h-1zm6 0h1v1h-1zm4 0h1v1h-1zm0 1h1v1h-1zm2 3h1v1h-1zm-12 2h1v1h-1zm14 6h1v1h-1zm2 0h1v1h-1zm-8 3h1v2h-1zm14 0h1v1h-1zm-15 1h1v1h-1zm16 0h1v1h-1zm-17 1h1v1h-1zm1 1h1v1h-1zm21 15h1v1h-1zm-7 2h1v1h-1zm-3 2h1v1h-1zm8 2h1v1h-1zm3 0h1v1h-1zm-9 4h1v1h-1zm-3 2h1v1h-1z"/><path fill="#b02" d="M31 42h1v1h-1zm2 0h1v1h-1zm-4 4h1v1h-1zm6 0h1v1h-1zm-5 1h1v1h-1zm4 0h1v1h-1z"/><path fill="#777" d="M17 14h1v1h-1zm11 2h1v1h-1zm-5 7h1v1h-1zm2 4h1v1h-1zm1 0h1v1h-1zm-2 3h1v1h-1zm0 2h1v1h-1zm-2 11h1v1h-1zm5 8h1v1h-1zm20 6h1v1h-1zm-12 3h1v1h-1zm6 6h1v1h-1zm0 3h1v1h-1zm1 3h1v1h-1zm9 0h1v1h-1zm-1 1h1v1h-1zM0 84h1v1H0zm65 0h1v1h-1zM0 85h1v1H0zm65 0h1v1h-1zM0 86h1v1H0zm65 0h1v1h-1zM0 87h1v1H0zm65 0h1v1h-1z"/><path fill="#dcc" d="M18 19h1v1h-1zm-1 1h1v1h-1zm3 7h1v1h-1zm16 40h1v1h-1zm13 3h1v1h-1zm-10 2h1v1h-1z"/><path fill="#a23" d="M31 38h1v1h-1zm2 0h1v1h-1z"/><path fill="#d66" d="M39 44h1v1h-1zm-7 7h1v1h-1z"/><path fill="#d78" d="M28 46h1v1h-1zm10 0h1v1h-1zm-8 5h1v1h-1zm4 0h1v1h-1z"/><path fill="#332" d="M21 14h1v1h-1zm-6 2h1v1h-1zm8 4h1v1h-1zm5 17h1v1h-1zm14 20h1v1h-1zm-3 1h1v1h-1zm12 3h1v1h-1zm1 1h1v1h-1zm-11 1h1v1h-1zm-4 1h1v1h-1zm0 9h1v1h-1z"/><path fill="#887" d="M16 16h1v1h-1zm12 20h1v1h-1zm9 15h1v1h-1zm9 8h1v1h-1z"/><path fill="#998" d="M18 16h1v1h-1zm24 31h1v1h-1zm2 9h1v1h-1zm4 3h1v1h-1zm0 13h1v1h-1z"/><path fill="#222" d="M24 17h1v1h-1zm6 3h1v1h-1zm-18 7h1v1h-1zm16 2h1v1h-1zm-1 1h1v1h-1zm-11 1h1v1h-1zm8 10h1v1h-1zm16 0h1v1h-1zm-17 1h1v1h-1zm5 10h1v1h-1zm4 1h1v1h-1zm16 8h1v1h-1zm1 1h1v1h-1zm-15 1h1v1h-1zm18 0h1v1h-1z"/><path fill="#fcd" d="M31 39h1v1h-1z"/><path fill="#d99" d="M34 39h1v1h-1zm-9 4h1v1h-1z"/><path fill="#d77" d="M36 40h1v1h-1zm0 6h1v1h-1zm-4 1h1v1h-1zm3 3h1v1h-1z"/><path fill="#c56" d="M27 41h1v1h-1zm11 0h1v1h-1z"/><path fill="#eee" d="M3 1h1v1H3zm59 0h1v1h-1zM2 2h1v1H2zm61 0h1v1h-1zM1 3h1v1H1zm63 0h1v1h-1zM1 4h1v1H1zm63 0h1v1h-1zM1 5h1v1H1zm63 0h1v1h-1zM2 6h1v1H2zm61 0h1v1h-1zM2 7h1v1H2zm61 0h1v1h-1zM2 8h1v74H2zm61 0h1v74h-1zm-43 7h1v1h-1zm8 0h1v1h-1zm-11 1h1v1h-1zm12 0h1v1h-1zm-9 1h1v1h-1zm1 0h1v1h-1zm5 0h1v1h-1zm-6 1h1v1h-1zm1 0h1v1h-1zm3 0h1v1h-1zm-10 1h1v1h-1zm14 1h1v1h-1zm-15 2h1v1h-1zm6 0h1v1h-1zm-6 1h1v1h-1zm15 2h1v1h-1zm-14 1h1v1h-1zm8 1h1v1h-1zm5 0h1v1h-1zm-5 1h1v1h-1zm4 0h1v1h-1zm-9 1h1v1h-1zm2 1h1v1h-1zm8 1h1v1h-1zm-6 2h1v1h-1zm7 2h1v1h-1zm8 0h1v1h-1zm2 1h1v1h-1zm-6 1h1v1h-1zm9 2h1v1h-1zm-19 2h1v1h-1zm20 0h1v1h-1zm-20 7h1v1h-1zm9 7h1v1h-1zm1 0h1v1h-1zm1 0h1v1h-1zm6 1h1v1h-1zm-3 2h1v1h-1zm6 0h1v1h-1zm-7 1h1v1h-1zm12 0h1v1h-1zm-9 1h1v1h-1zm-1 1h1v1h-1zm13 1h1v1h-1zm-14 1h1v1h-1zm9 2h1v1h-1zm6 0h1v1h-1zm-6 1h1v1h-1zm6 0h1v1h-1zm-15 2h1v1h-1zm14 1h1v1h-1zm-13 1h1v1h-1zm3 0h1v1h-1zm-2 1h1v1h-1zm5 0h1v1h-1zm1 0h1v1h-1zm-9 1h1v1h-1zm12 0h1v1h-1zm-5 1h1v1h-1zM2 82h1v1H2zm61 0h1v1h-1zM2 83h1v1H2zm61 0h1v1h-1zM3 84h1v1H3zm1 0h1v1H4zm57 0h1v1h-1zm1 0h1v1h-1zM9 85h48v1H9z"/><path fill="#766" d="M24 14h1v1h-1zm-9 1h1v1h-1zm8 1h1v1h-1zm-4 3h1v1h-1zm4 3h1v1h-1zm-8 3h1v1h-1zm6 0h1v1h-1zm2 1h1v1h-1zm-1 3h1v1h-1zm7 7h1v1h-1zm6 0h1v1h-1zm7 7h1v1h-1zm-20 3h1v1h-1zm27 12h1v1h-1zm-13 1h1v1h-1zm9 5h1v1h-1zm-4 1h1v1h-1zm-2 5h1v1h-1zm5 2h1v1h-1z"/><path fill="#544" d="M16 15h1v1h-1zm11 1h1v1h-1zm-2 2h1v1h-1zm-4 1h1v1h-1zm-7 2h1v1h-1zm15 3h1v1h-1zm-13 3h1v1h-1zm11 1h1v1h-1zm-9 4h1v1h-1zm12 4h1v1h-1zm4 0h1v1h-1zm-7 2h1v1h-1zm12 2h1v1h-1zm1 2h1v1h-1zm2 3h1v1h-1zm-18 2h1v1h-1zm17 10h1v1h-1zm7 1h1v1h-1zm-11 1h1v1h-1zm0 1h1v1h-1zm14 0h1v1h-1zm-17 2h1v1h-1zm9 0h1v1h-1zm1 0h1v1h-1zm-9 2h1v1h-1zm15 0h1v1h-1zm-15 3h1v1h-1zm14 2h1v1h-1z"/><path fill="#e89" d="M30 41h1v1h-1zm6 2h1v1h-1zm-10 1h1v1h-1zm0 1h1v1h-1zm-1 1h1v1h-1zm12 2h1v1h-1z"/><path fill="#d67" d="M37 41h1v1h-1zm1 2h1v1h-1zm-13 1h1v1h-1zm0 1h1v1h-1zm1 1h1v1h-1zm8 0h1v1h-1zm-8 2h1v1h-1zm2 2h1v1h-1zm1 0h1v1h-1zm7 0h1v1h-1z"/><path fill="#e9a" d="M28 43h1v1h-1zm10 1h1v1h-1zm0 1h1v1h-1zm-10 4h1v1h-1z"/><path fill="#444" d="M19 14h1v1h-1zm0 2h1v1h-1zm9 1h1v1h-1zm1 4h1v1h-1zm-14 5h1v1h-1zm11 3h1v1h-1zm0 9h1v1h-1zm10 22h1v1h-1zm11 7h1v1h-1zm-3 1h1v1h-1zm-9 3h1v1h-1zm2 0h1v1h-1zm4 4h1v1h-1z"/><path fill="#bba" d="M15 24h1v1h-1z"/><path fill="#eab" d="M34 44h1v1h-1zm-4 1h1v1h-1z"/></svg>