<svg xmlns="http://www.w3.org/2000/svg" width="66" height="90" baseProfile="tiny" version="1.2"><path fill="#b34" d="M28 39h1v1h-1z"/><path fill="#777" d="M17 17h1v1h-1zm30 0h1v1h-1zm-18 3h1v1h-1zm6 0h1v1h-1zm-11 3h1v1h-1zm16 0h1v1h-1zm-17 2h1v1h-1zm18 0h1v1h-1zm-12 1h1v1h-1zm6 0h1v1h-1zm-10 4h1v1h-1zm1 0h1v1h-1zm12 0h1v1h-1zm1 0h1v1h-1zm-15 3h1v1h-1zm0 2h1v1h-1zm0 3h1v1h-1zm-7 15h1v1h-1zm9 0h1v1h-1zm3 0h1v1h-1zm18 0h1v1h-1zm-24 8h1v1h-1zm6 0h1v1h-1zm6 0h1v1h-1zm6 0h1v1h-1zm-12 1h1v1h-1zm-6 3h1v1h-1zm18 0h1v1h-1zm-15 1h1v1h-1zm12 0h1v1h-1zm-25 2h1v1h-1zm9 0h1v1h-1zm20 0h1v1h-1zm9 0h1v1h-1zM0 84h1v1H0zm65 0h1v1h-1zM0 85h1v1H0zm65 0h1v1h-1zM0 86h1v1H0zm65 0h1v1h-1zM0 87h1v1H0zm65 0h1v1h-1z"/><path fill="#333" d="M20 17h1v1h-1zm24 0h1v1h-1zm-19 1h1v1h-1zm14 0h1v1h-1zm-24 1h1v1h-1zm34 0h1v1h-1zm-36 2h1v1h-1zm38 0h1v1h-1zm-39 1h1v1h-1zm40 0h1v1h-1zm-25 2h1v1h-1zm10 0h1v1h-1zm-8 7h1v1h-1zm3 4h1v1h-1zm8 4h1v1h-1zm1 1h1v1h-1zm-18 7h1v1h-1zm15 3h1v1h-1zm-10 6h1v1h-1zm-16 2h1v1h-1zm40 0h1v1h-1zm-31 1h1v1h-1zm22 0h1v1h-1z"/><path fill="#776" d="M15 18h1v1h-1zm34 0h1v1h-1zm-21 1h1v1h-1zm8 0h1v1h-1zm-7 6h1v1h-1zm6 0h1v1h-1zm-21 8h1v1h-1zm36 0h1v1h-1zM35 62h1v1h-1zm-10 4h1v1h-1zm14 0h1v1h-1z"/><path fill="#665" d="M26 18h1v1h-1zm12 0h1v1h-1zm-11 7h1v1h-1zm10 0h1v1h-1zm-20 6h1v1h-1zm7 0h1v1h-1zm16 0h1v1h-1zm7 0h1v1h-1zM15 64h1v1h-1zm34 0h1v1h-1z"/><path fill="#aa9" d="M28 25h1v1h-1zm8 0h1v1h-1zm-8 1h1v1h-1zm8 0h1v1h-1zM23 67h1v1h-1zm18 0h1v1h-1z"/><path fill="#a23" d="M33 37h1v1h-1zm3 1h1v1h-1z"/><path fill="#ebc" d="M38 39h1v1h-1zm-10 6h1v1h-1zm10 0h1v1h-1zm-1 4h1v1h-1z"/><path fill="#b02" d="M31 41h1v1h-1zm2 0h1v1h-1zm-3 1h1v1h-1zm5 1h1v1h-1zm1 1h1v1h-1zm-7 1h1v1h-1zm1 1h1v1h-1zm5 0h1v1h-1z"/><path fill="#b12" d="M32 41h1v1h-1zm7 2h1v1h-1z"/><path fill="#444" d="M19 17h1v1h-1zm26 0h1v1h-1zm-26 2h1v1h-1zm26 0h1v1h-1zm-18 1h1v1h-1zm1 0h1v1h-1zm8 0h1v1h-1zm1 0h1v1h-1zm-19 3h1v1h-1zm28 0h1v1h-1zm-29 4h1v1h-1zm10 0h1v1h-1zm10 0h1v1h-1zm10 0h1v1h-1zm-18 9h1v1h-1zm-5 6h1v1h-1zm18 4h1v1h-1zm-17 7h1v1h-1zm10 0h1v1h-1zm-9 5h1v1h-1zm12 0h1v1h-1zm9 5h1v1h-1zm-27 1h1v1h-1zm24 0h1v1h-1zm-3 7h1v1h-1z"/><path fill="#887" d="M14 21h1v1h-1zm36 0h1v1h-1zm-27 5h1v1h-1zm16 10h1v1h-1zM25 61h1v1h-1zm14 0h1v1h-1zm-14 1h1v1h-1zm14 0h1v1h-1z"/><path fill="#ddc" d="M18 22h1v1h-1zm28 0h1v1h-1zm-29 1h1v1h-1zm30 0h1v1h-1z"/><path fill="#c77" d="M30 37h1v1h-1z"/><path fill="#d56" d="M31 40h1v1h-1zm5 2h1v1h-1zm-3 4h1v1h-1zm-6 1h1v1h-1zm2 2h1v1h-1zm7 0h1v1h-1zm-4 1h1v1h-1zm1 0h1v1h-1z"/><path fill="#d67" d="M34 40h1v1h-1zm-4 4h1v1h-1zm2 2h1v1h-1zm6 0h1v1h-1zm-11 2h1v1h-1zm1 0h1v1h-1zm6 2h1v1h-1z"/><path fill="#d89" d="M39 41h1v1h-1z"/><path fill="#ccb" d="M12 56h1v1h-1zm40 0h1v1h-1z"/><path fill="#998" d="M18 19h1v1h-1zm28 0h1v1h-1zM30 30h1v1h-1zm4 0h1v1h-1zm8 17h1v1h-1zm-22 5h1v1h-1zm24 0h1v1h-1z"/><path fill="#ecc" d="M31 38h1v1h-1zm6 0h1v1h-1zm-4 10h1v1h-1z"/><path fill="#d45" d="M32 40h1v1h-1zm1 0h1v1h-1zm-7 3h1v1h-1zm0 1h1v1h-1zm13 1h1v1h-1zm-2 3h1v1h-1z"/><path fill="#a01" d="M31 47h1v1h-1zm1 0h1v1h-1zm1 0h1v1h-1z"/><g fill="#fff"><path d="M4 1h1v1H4zm1 0h1v1H5zm1 0h54v1H6zm54 0h1v1h-1zm1 0h1v1h-1zM3 2h1v1H3zm1 0h1v1H4zm1 0h56v1H5zm56 0h1v1h-1zm1 0h1v1h-1zM2 3h1v1H2zm1 0h1v1H3zm1 0h2v1H4zm2 0h54v1H6zm54 0h2v1h-2zm2 0h1v1h-1zm1 0h1v1h-1zM2 4h1v2H2zm1 0h1v3H3zm1 0h1v1H4zm1 0h56v12H5zm56 0h1v1h-1zm1 0h1v3h-1zm1 0h1v2h-1z"/><path d="M4 5h58v2H4zM3 7h1v1H3zm1 0h1v1H4zm57 0h1v1h-1zm1 0h1v1h-1zM3 8h1v73H3zm1 0h1v73H4zm57 0h1v74h-1zm1 0h1v73h-1zM5 16h11v1H5zm11 0h1v1h-1zm9 0h1v1h-1zm1 0h13v1H26zm13 0h1v1h-1zm9 0h1v1h-1zm1 0h12v1H49zM5 17h10v1H5zm22 0h1v1h-1zm1 0h9v1h-9zm9 0h1v1h-1zm13 0h11v1H50zM5 18h8v2H5zm8 0h1v1h-1zm8 0h1v1h-1zm8 0h7v1h-7zm14 0h1v1h-1zm8 0h1v1h-1zm1 0h9v2h-9zm-22 1h5v1h-5zM5 20h7v1H5zm25 0h1v1h-1zm1 0h3v2h-3zm3 0h1v1h-1zm19 0h8v1h-8zM5 21h6v61H5zm6 0h1v1h-1zm7 0h2v1h-2zm4 0h1v1h-1zm1 0h1v1h-1zm18 0h1v1h-1zm1 0h1v1h-1zm3 0h2v1h-2zm8 0h1v1h-1zm1 0h7v61h-7zm-37 1h1v1h-1zm7 0h1v1h-1zm1 0h1v1h-1zm6 0h1v1h-1zm1 0h1v12h-1zm1 0h1v1h-1zm6 0h1v1h-1zm1 0h1v1h-1zm7 0h1v1h-1zm-31 1h1v2h-1zm9 0h1v1h-1zm14 0h1v1h-1zm9 0h1v2h-1zm-28 1h1v1h-1zm1 0h1v4h-1zm5 0h1v4h-1zm12 0h1v4h-1zm5 0h1v4h-1zm1 0h1v1h-1zm-28 1h1v1h-1z"/><path d="M20 25h3v2h-3zm22 0h3v2h-3zm6 0h1v1h-1zm-32 1h1v1h-1zm32 0h1v1h-1zm-32 1h1v2h-1zm4 0h1v1h-1zm24 0h1v1h-1zm4 0h1v2h-1zm-23 1h1v1h-1zm14 0h1v1h-1zm-22 1h1v1h-1zm7 0h1v1h-1zm1 0h1v1h-1zm6 0h1v1h-1zm2 0h1v1h-1zm6 0h1v1h-1zm1 0h1v1h-1zm7 0h1v1h-1zm-36 1h1v1h-1zm7 0h1v1h-1zm1 0h1v1h-1zm4 0h1v1h-1zm1 0h1v1h-1zm7 0h3v4h-3zm9 0h1v1h-1zm1 0h1v1h-1zm4 0h1v1h-1zm1 0h1v1h-1zm7 0h1v1h-1zm-42 1h1v26h-1zm10 0h1v1h-1zm9 0h1v1h-1zm4 0h1v1h-1zm9 0h1v1h-1zm10 0h8v26h-8zm-41 1h1v24h-1z"/><path d="M30 32h5v2h-5zm22 0h9v24h-9zm-39 1h1v1h-1zm7 0h1v1h-1zm1 0h1v1h-1z"/><path d="M29 33h7v1h-7zm14 0h1v1h-1zm1 0h1v1h-1zm7 0h1v1h-1zm-38 1h2v20h-2zm37 0h11v20H50zm-35 1h1v18h-1zm1 0h1v1h-1zm10 0h1v1h-1zm22 0h1v1h-1z"/><path d="M49 35h12v18H49zm-33 1h4v16h-4zm4 0h1v1h-1zm1 0h1v1h-1zm1 0h1v1h-1zm1 0h2v1h-2zm17 0h1v1h-1zm1 0h1v2h-1zm1 0h1v1h-1zm1 0h1v1h-1zm1 0h1v1h-1z"/><path d="M45 36h16v16H45zm-25 1h4v1h-4z"/><path d="M42 37h19v2H42zm-22 1h3v3h-3zm3 0h1v1h-1zm7 1h1v1h-1zm1 0h1v1h-1zm3 0h2v1h-2zm8 0h1v1h-1zm1 0h18v4H43zm-14 1h1v1h-1zm7 0h1v1h-1zm-16 1h2v10h-2zm8 0h1v1h-1zm9 0h1v2h-1zm-10 1h1v1h-1zm5 0h1v1h-1zm1 0h1v1h-1zm-6 1h1v3h-1zm4 0h3v2h-3zm12 0h1v2h-1zm1 0h17v8H44zm-10 1h1v1h-1zm6 0h1v1h-1zm-8 1h1v1h-1zm1 0h1v1h-1zm4 0h1v2h-1zm6 0h1v1h-1zm-15 1h1v1h-1z"/><path d="M43 46h18v5H43zm-21 1h1v1h-1zm6 0h1v1h-1zm1 0h1v1h-1zm7 0h1v1h-1zm-14 1h1v3h-1zm7 0h1v1h-1zm1 0h1v1h-1zm4 0h1v1h-1zm1 0h1v1h-1zm-12 1h1v1h-1zm9 0h1v1h-1zm1 0h1v1h-1z"/><path d="M42 49h19v2H42zm-19 1h1v2h-1zm18 0h1v1h-1zm-21 1h1v1h-1zm1 0h1v1h-1zm1 0h1v1h-1zm2 0h1v1h-1zm7 0h1v1h-1zm1 0h1v1h-1zm1 0h1v1h-1zm7 0h1v1h-1zm1 0h1v1h-1zm1 0h1v1h-1zm1 0h1v1h-1zm1 0h1v1h-1zm-28 1h1v1h-1zm32 0h1v1h-1zm-35 2h1v1h-1zm7 0h1v1h-1zm1 0h1v1h-1zm8 0h2v1h-2zm2 0h1v1h-1zm3 0h1v1h-1zm1 0h1v1h-1zm8 0h1v1h-1zm1 0h1v1h-1zm7 0h1v1h-1zm-21 1h5v1h-5zm-9 1h1v1h-1zm9 0h1v1h-1zm1 0h3v2h-3zm3 0h1v1h-1zm9 0h1v1h-1zm-32 1h1v1h-1zm7 0h1v1h-1zm1 0h1v1h-1zm3 0h1v1h-1zm1 0h1v1h-1zm1 0h1v1h-1zm16 0h1v1h-1zm1 0h1v1h-1zm1 0h1v1h-1zm3 0h1v1h-1zm1 0h1v1h-1zm7 0h1v1h-1zm-36 1h1v1h-1zm7 0h1v1h-1zm1 0h1v1h-1zm6 0h1v1h-1zm1 0h1v26h-1zm1 0h1v1h-1zm6 0h1v1h-1zm1 0h1v1h-1zm7 0h1v1h-1zm-31 1h1v2h-1zm9 0h1v1h-1zm14 0h1v1h-1zm9 0h1v2h-1zm-28 1h1v1h-1zm1 0h1v4h-1zm5 0h1v4h-1zm12 0h1v4h-1zm5 0h1v4h-1zm1 0h1v1h-1zm-28 1h1v1h-1z"/><path d="M20 61h3v2h-3zm22 0h3v2h-3zm6 0h1v1h-1zm-32 1h1v1h-1zm32 0h1v1h-1zm-32 1h1v2h-1zm4 0h1v1h-1zm24 0h1v1h-1zm4 0h1v2h-1zm-23 1h1v1h-1zm14 0h1v1h-1zm-22 1h1v1h-1zm7 0h2v1h-2zm7 0h1v1h-1zm2 0h1v1h-1zm6 0h2v1h-2zm8 0h1v1h-1zm-36 1h1v1h-1zm7 0h2v1h-2zm4 0h1v1h-1zm1 0h1v1h-1zm8 0h3v18h-3zm10 0h1v1h-1zm1 0h1v1h-1zm3 0h2v1h-2zm8 0h1v1h-1zm-42 1h1v17h-1zm19 0h1v1h-1zm4 0h1v1h-1zm19 0h8v15h-8zm-41 1h1v16h-1z"/><path d="M30 68h5v16h-5zm22 0h9v14h-9zm-39 1h1v1h-1zm8 0h1v1h-1z"/><path d="M29 69h7v15h-7zm14 0h1v1h-1zm8 0h1v1h-1zm-38 1h2v14h-2z"/><path d="M28 70h9v14h-9zm22 0h11v12H50zm-35 1h1v13h-1zm1 0h1v1h-1z"/><path d="M26 71h13v13H26zm22 0h1v1h-1zm1 0h12v11H49z"/><path d="M16 72h45v10H16zM3 81h1v1H3zm1 0h1v2H4zm58 0h1v1h-1zM3 82h1v1H3zm2 0h1v1H5zm1 0h54v1H6zm54 0h1v1h-1zm1 0h1v1h-1zm1 0h1v1h-1zM3 83h1v1H3zm1 0h1v1H4zm1 0h1v1H5zm1 0h1v1H6zm1 0h52v1H7zm52 0h1v1h-1zm1 0h1v1h-1zm1 0h1v1h-1zm1 0h1v1h-1zM5 84h1v1H5zm1 0h1v1H6zm1 0h1v1H7zm1 0h50v1H8zm50 0h1v1h-1zm1 0h1v1h-1zm1 0h1v1h-1z"/></g><path fill="#211" d="M20 19h1v1h-1zm24 0h1v1h-1zm-25 4h1v1h-1zm1 0h1v1h-1zm2 0h1v1h-1zm7 0h1v1h-1zm6 0h1v1h-1zm7 0h1v1h-1zm2 0h1v1h-1zm1 0h1v1h-1zm-33 1h1v1h-1zm6 0h1v1h-1zm5 0h1v1h-1zm18 0h1v1h-1zm5 0h1v1h-1zm6 0h1v1h-1zm-41 1h1v1h-1zm1 0h1v1h-1zm5 0h1v1h-1zm1 0h1v1h-1zm6 0h1v1h-1zm6 0h1v1h-1zm4 0h1v1h-1zm6 0h1v1h-1zm6 0h1v1h-1zm1 0h1v1h-1zm5 0h1v1h-1zm1 0h1v1h-1zm-42 1h1v1h-1zm1 0h1v1h-1zm5 0h1v1h-1zm1 0h1v1h-1zm6 0h1v1h-1zm6 0h1v1h-1zm4 0h1v1h-1zm6 0h1v1h-1zm6 0h1v1h-1zm1 0h1v1h-1zm5 0h1v1h-1zm1 0h1v1h-1zm-41 1h1v1h-1zm6 0h1v1h-1zm6 0h1v1h-1zm6 0h1v1h-1zm4 0h1v1h-1zm6 0h1v1h-1zm6 0h1v1h-1zm6 0h1v1h-1zm-40 1h1v1h-1zm6 0h1v1h-1zm1 0h1v1h-1zm4 0h1v1h-1zm6 0h1v1h-1zm6 0h1v1h-1zm6 0h1v1h-1zm4 0h1v1h-1zm1 0h1v1h-1zm6 0h1v1h-1zm-23 1h1v1h-1zm6 0h1v1h-1zm-22 1h1v1h-1zm38 0h1v1h-1zm-37 1h1v1h-1zm14 0h1v1h-1zm8 0h1v1h-1zm14 0h1v1h-1zm-35 1h1v1h-1zm12 0h1v1h-1zm10 0h1v1h-1zm12 0h1v1h-1zm-24 1h1v1h-1zm1 0h1v1h-1zm12 0h1v1h-1zm-19 1h1v1h-1zm1 0h1v1h-1zm1 0h1v1h-1zm1 0h1v1h-1zm1 0h1v1h-1zm16 0h1v1h-1zm1 0h1v1h-1zm1 0h1v1h-1zm1 0h1v1h-1zm1 0h1v1h-1zm1 0h1v1h-1zm1 0h1v1h-1zm-17 2h1v1h-1zm9 0h1v1h-1zm1 0h1v1h-1zm0 1h1v1h-1zm1 1h1v1h-1zm-15 3h1v1h-1zm-1 1h1v1h-1zm18 0h1v1h-1zm-18 1h1v1h-1zm18 0h1v1h-1zm1 0h1v1h-1zm-19 1h1v1h-1zm18 0h1v2h-1zm1 0h1v1h-1zm-19 1h1v1h-1zm19 0h1v1h-1zm-18 1h1v1h-1zm17 0h1v1h-1zm-17 1h1v1h-1zm16 1h1v1h-1zm1 0h1v1h-1zm-16 1h1v1h-1zm14 0h1v1h-1zm-13 1h1v1h-1zm13 0h1v1h-1zm-12 1h1v1h-1zm11 0h1v1h-1zm-8 1h1v1h-1zm1 0h1v1h-1zm2 0h1v1h-1zm1 0h1v1h-1zm1 0h2v1h-2zm-10 2h1v1h-1zm13 0h1v1h-1zm1 0h1v1h-1zm-2 1h1v1h-1zm-18 4h1v1h-1zm3 0h1v1h-1zm20 0h1v1h-1zm3 0h1v1h-1zm-33 1h1v1h-1zm6 0h1v1h-1zm28 0h1v1h-1zm6 0h1v1h-1zm-41 1h1v1h-1zm1 0h1v1h-1zm5 0h1v1h-1zm1 0h1v1h-1zm6 0h1v1h-1zm6 0h1v1h-1zm4 0h1v1h-1zm6 0h1v1h-1zm6 0h1v1h-1zm1 0h1v1h-1zm5 0h1v1h-1zm1 0h1v1h-1zm-42 1h1v1h-1zm1 0h1v1h-1zm5 0h1v1h-1zm1 0h1v1h-1zm6 0h1v1h-1zm6 0h1v1h-1zm4 0h1v1h-1zm6 0h1v1h-1zm6 0h1v1h-1zm1 0h1v1h-1zm5 0h1v1h-1zm1 0h1v1h-1zm-41 1h1v1h-1zm6 0h1v1h-1zm6 0h1v1h-1zm6 0h1v1h-1zm4 0h1v1h-1zm6 0h1v1h-1zm6 0h1v1h-1zm6 0h1v1h-1zm-40 1h1v1h-1zm6 0h1v1h-1zm1 0h1v1h-1zm4 0h1v1h-1zm6 0h1v1h-1zm6 0h1v1h-1zm6 0h1v1h-1zm4 0h1v1h-1zm1 0h1v1h-1zm6 0h1v1h-1zm-30 1h1v1h-1zm7 0h1v1h-1zm6 0h1v1h-1zm7 0h1v1h-1zm-29 1h1v1h-1zm38 0h1v1h-1zm-37 1h1v1h-1zm36 0h1v1h-1zm-35 1h1v1h-1zm34 0h1v1h-1zm-24 1h1v1h-1zm14 0h1v1h-1zm-19 1h2v1h-2zm2 0h1v1h-1zm20 0h1v1h-1zm1 0h2v1h-2zm-21 1h1v1h-1zm20 0h1v1h-1z"/><path fill="#222" d="M24 20h1v1h-1zm16 0h1v1h-1zm-13 3h1v1h-1zm10 0h1v1h-1zm-25 7h1v1h-1zm40 0h1v1h-1zm-16 2h1v1h-1zm-20 2h1v1h-1zm32 0h1v1h-1zm-12 2h1v1h-1zm6 6h1v1h-1zm-17 8h1v1h-1zm3 1h1v1h-1zm9 1h1v1h-1zm-11 2h1v1h-1zm1 1h1v1h-1zm-10 1h1v1h-1zm30 0h1v1h-1zm-27 3h1v1h-1zm24 0h1v1h-1zm-16 9h1v1h-1zm8 0h1v1h-1z"/><path fill="#eed" d="M21 21h1v1h-1zm22 0h1v1h-1zM22 41h1v1h-1z"/><path fill="#988" d="M31 25h1v1h-1zm2 0h1v1h-1zm-20 3h1v1h-1zm38 0h1v1h-1zm-12 3h1v1h-1zm1 10h1v1h-1zM21 52h1v1h-1zm1 0h1v1h-1zm21 0h1v1h-1zm-25 2h1v1h-1zm28 0h1v1h-1zm-23 4h1v1h-1zm4 0h1v1h-1zm10 0h1v1h-1zm4 0h1v1h-1zm-27 8h1v1h-1zm36 0h1v1h-1zm-34 2h1v1h-1zm32 0h1v1h-1z"/><path fill="#dcc" d="M26 28h1v1h-1zm12 0h1v1h-1zm-10 5h1v1h-1zm12 9h1v1h-1zm-2 7h1v1h-1zm-13 2h1v1h-1zm3 2h1v1h-1zm0 1h1v1h-1zm8 0h1v1h-1zm-5 10h1v1h-1zm2 0h1v1h-1zm-18 2h1v1h-1zm34 0h1v1h-1z"/><path fill="#fde" d="M32 38h1v1h-1zm-1 7h1v1h-1z"/><path fill="#c23" d="M30 41h1v1h-1zm-1 1h1v1h-1zm2 4h1v1h-1z"/><path fill="#c55" d="M38 41h1v1h-1z"/><path fill="#c02" d="M29 44h1v1h-1zm6 1h1v1h-1z"/><path fill="#877" d="M16 19h1v1h-1zm32 0h1v1h-1zm-23 7h1v1h-1zm14 0h1v1h-1zm2 0h1v1h-1zm-22 6h1v1h-1zm26 0h1v1h-1zm-5 1h1v1h-1zm0 2h1v1h-1zm-5 1h1v1h-1zm2 1h1v1h-1zM23 62h1v1h-1zm18 0h1v1h-1zm-23 5h1v1h-1zm28 0h1v1h-1zm-32 2h1v1h-1zm36 0h1v1h-1z"/><path fill="#666" d="M23 19h1v1h-1zm18 0h1v1h-1zm-16 1h1v1h-1zm14 0h1v1h-1zm-28 3h1v1h-1zm42 0h1v1h-1zm-26 3h1v1h-1zm10 0h1v1h-1zm-22 2h1v1h-1zm6 0h1v1h-1zm22 0h1v1h-1zm6 0h1v1h-1zm-26 1h1v1h-1zm18 0h1v1h-1zm-21 3h1v1h-1zm1 0h1v1h-1zm22 0h1v1h-1zm1 0h1v1h-1zm-18 2h1v1h-1zm12 0h1v1h-1zm-14 9h1v1h-1zm0 1h1v1h-1zm15 7h1v1h-1zm-15 3h1v1h-1zm16 0h1v1h-1zm-21 4h1v1h-1zm26 0h1v1h-1zm-34 1h1v1h-1zm42 0h1v1h-1zm-34 1h1v1h-1zm26 0h1v1h-1zm-18 1h1v1h-1zm10 0h1v1h-1zm-10 1h1v1h-1zm10 0h1v1h-1zm-20 5h1v1h-1zm30 0h1v1h-1zm-26 1h1v1h-1zm22 0h1v1h-1zm-19 1h1v1h-1zm16 0h1v1h-1zm-14 1h1v1h-1zm12 0h1v1h-1zm-20 1h1v1h-1zm28 0h1v1h-1zM0 88h1v1H0zm1 0h1v1H1zm63 0h1v1h-1zm1 0h1v1h-1zM1 89h1v1H1zm1 0h1v1H2zm1 0h1v1H3zm1 0h58v1H4zm58 0h1v1h-1zm1 0h1v1h-1zm1 0h1v1h-1z"/><path fill="#b45" d="M34 37h1v1h-1zm1 1h1v1h-1z"/><path fill="#e89" d="M28 43h1v1h-1zm11 3h1v1h-1zm-4 3h1v1h-1zm-5 1h1v1h-1z"/><path fill="#d99" d="M35 37h1v1h-1z"/><path fill="#c78" d="M28 38h1v1h-1z"/><path fill="#d78" d="M30 38h1v1h-1zm-1 3h1v1h-1z"/><path fill="#eab" d="M37 40h1v1h-1zm1 2h1v1h-1zm-13 1h1v1h-1zm0 1h1v1h-1zm11 2h1v1h-1zm-6 3h1v1h-1z"/><path fill="#b13" d="M38 40h1v1h-1zm-12 2h1v1h-1z"/><path fill="#ddd" d="M3 0h1v1H3zm1 0h1v1H4zm1 0h56v1H5zm56 0h1v1h-1zm1 0h1v1h-1zM2 1h1v1H2zm61 0h1v1h-1zM1 6h1v1H1zm63 0h1v1h-1zM1 7h1v1H1zm63 0h1v1h-1zM1 8h1v1H1zm63 0h1v1h-1zM1 9h1v73H1zm63 0h1v73h-1zm-47 7h1v1h-1zm30 0h1v1h-1zm-32 1h1v1h-1zm34 0h1v1h-1zm-27 1h1v1h-1zm20 0h1v1h-1zm-20 2h1v1h-1zm20 0h1v1h-1zm-11 3h1v1h-1zm2 0h1v1h-1zm-18 2h1v1h-1zm34 0h1v1h-1zm-34 1h1v1h-1zm34 0h1v1h-1zm-27 1h1v1h-1zm20 0h1v1h-1zm-22 3h1v1h-1zm24 0h1v1h-1zm-20 2h1v1h-1zm1 0h1v1h-1zm4 0h1v1h-1zm6 0h1v1h-1zm4 0h1v1h-1zm1 0h1v1h-1zm-21 1h1v1h-1zm17 0h1v1h-1zm9 0h1v1h-1zm-20 2h1v1h-1zm14 0h1v1h-1zm-6 1h1v1h-1zm-7 3h1v1h-1zm14 6h1v1h-1zm-18 1h1v1h-1zm2 4h1v1h-1zm-7 2h1v1h-1zm8 0h1v1h-1zm14 0h1v1h-1zm8 0h1v1h-1zm-32 1h1v1h-1zm22 0h1v1h-1zm12 0h1v1h-1zm-30 1h1v1h-1zm26 0h1v1h-1zm-20 1h1v1h-1zm4 0h1v1h-1zm6 0h1v1h-1zm4 0h1v1h-1zm-17 1h1v1h-1zm20 0h1v1h-1zm-21 1h1v1h-1zm22 0h1v1h-1zm-12 2h1v1h-1zm2 0h1v1h-1zm-18 2h1v1h-1zm34 0h1v1h-1zm-34 1h1v1h-1zm34 0h1v1h-1zm-27 1h1v1h-1zm20 0h1v1h-1zm-22 3h1v1h-1zm1 0h1v1h-1zm22 0h1v1h-1zm1 0h1v1h-1zm-28 1h1v1h-1zm6 0h1v1h-1zm20 0h1v1h-1zm6 0h1v1h-1zm-24 1h1v1h-1zm1 0h1v1h-1zm4 0h1v1h-1zm6 0h1v1h-1zm4 0h1v1h-1zm1 0h1v1h-1zm-21 1h1v1h-1zm9 0h1v1h-1zm8 0h1v1h-1zm9 0h1v1h-1zm-20 2h1v1h-1zm14 0h1v1h-1zM1 82h1v1H1zm63 0h1v1h-1zM1 83h1v1H1zm63 0h1v1h-1zM2 84h1v1H2zm61 0h1v1h-1zM3 85h1v1H3zm1 0h1v1H4zm1 0h1v1H5zm1 0h1v1H6zm1 0h2v1H7zm50 0h2v1h-2zm2 0h1v1h-1zm1 0h1v1h-1zm1 0h1v1h-1zm1 0h1v1h-1z"/><path fill="#544" d="M16 18h1v1h-1zm32 0h1v1h-1zm-21 1h1v1h-1zm10 0h1v1h-1zm-16 3h1v1h-1zm9 0h1v1h-1zm4 0h1v1h-1zm9 0h1v1h-1zm-29 2h1v1h-1zm36 0h1v1h-1zm-30 4h1v1h-1zm24 0h1v1h-1zm-29 1h1v1h-1zm34 0h1v1h-1zm-33 1h1v1h-1zm32 0h1v1h-1zm-18 5h1v1h-1zm7 0h1v1h-1zM24 45h1v1h-1zm0 8h1v1h-1zm-8 1h1v1h-1zm32 0h1v1h-1zm-35 2h1v1h-1zm14 0h1v1h-1zm10 0h1v1h-1zm14 0h1v1h-1zm-25 1h1v1h-1zm12 0h1v1h-1zm-18 1h1v1h-1zm1 0h1v1h-1zm9 0h1v1h-1zm4 0h1v1h-1zm9 0h1v1h-1zm1 0h1v1h-1zm-30 2h1v1h-1zm36 0h1v1h-1zm-33 3h1v1h-1zm-2 2h1v1h-1zm34 0h1v1h-1zm-33 1h1v1h-1zm32 0h1v1h-1zm-21 1h1v1h-1zm10 0h1v1h-1z"/><path fill="#a34" d="M31 37h1v1h-1z"/><path fill="#c66" d="M27 39h1v1h-1z"/><path fill="#c12" d="M34 41h1v1h-1zm1 1h1v1h-1zm-6 1h1v1h-1zm7 0h1v1h-1zm-1 1h1v1h-1zm4 0h1v1h-1zm-5 2h1v1h-1z"/><path fill="#c34" d="M35 41h1v1h-1zm4 1h1v1h-1zm-13 3h1v1h-1zm4 0h1v1h-1zm-4 1h1v1h-1zm12 1h1v1h-1z"/><path fill="#fcd" d="M36 41h1v1h-1zm-11 1h1v1h-1zm3 0h1v1h-1zm8 6h1v1h-1z"/><path fill="#322" d="M21 17h1v1h-1zm22 0h1v1h-1zm-26 1h1v1h-1zm30 0h1v1h-1zm-25 1h1v1h-1zm20 0h1v1h-1zm-28 1h1v1h-1zm3 0h1v1h-1zm30 0h1v1h-1zm3 0h1v1h-1zm-22 1h1v1h-1zm8 0h1v1h-1zm-23 1h1v1h-1zm2 0h1v1h-1zm14 0h1v1h-1zm6 0h1v1h-1zm14 0h1v1h-1zm2 0h1v1h-1zm-39 1h1v1h-1zm9 0h1v1h-1zm9 0h1v1h-1zm4 0h1v1h-1zm9 0h1v1h-1zm9 0h1v1h-1zm-41 1h1v1h-1zm13 0h1v1h-1zm16 0h1v1h-1zm13 0h1v1h-1zm-39 1h1v1h-1zm36 0h1v1h-1zm-36 1h1v1h-1zm36 0h1v1h-1zm-39 1h1v1h-1zm42 0h1v1h-1zm-11 1h1v1h-1zm-23 1h1v1h-1zm11 0h1v1h-1zm4 0h1v1h-1zm11 0h1v1h-1zm-17 1h1v1h-1zm8 0h1v1h-1zm-9 3h1v1h-1zm10 0h1v1h-1zm2 0h1v1h-1zm-13 4h1v1h-1zm1 0h1v1h-1zm12 0h1v1h-1zm-14 2h1v1h-1zm-1 1h1v1h-1zm-1 1h1v1h-1zm18 0h1v1h-1zm-16 7h1v1h-1zm1 3h1v1h-1zm11 0h1v1h-1zm-17 2h1v1h-1zm1 0h1v1h-1zm18 0h1v1h-1zm3 0h1v1h-1zm1 0h1v1h-1zm1 0h1v1h-1zm-7 1h1v1h-1zm-1 1h1v2h-1zm-22 1h1v1h-1zm10 0h1v1h-1zm16 0h1v1h-1zm10 0h1v1h-1zm-22 1h1v1h-1zm8 0h1v1h-1zm-21 1h1v1h-1zm14 0h1v1h-1zm6 0h1v1h-1zm14 0h1v1h-1zm-37 1h1v1h-1zm11 0h1v1h-1zm7 0h1v1h-1zm4 0h1v1h-1zm7 0h1v1h-1zm11 0h1v1h-1zm-41 1h1v1h-1zm13 0h1v1h-1zm16 0h1v1h-1zm13 0h1v1h-1zm-39 1h1v1h-1zm36 0h1v1h-1zm-36 1h1v1h-1zm36 0h1v1h-1zm-39 1h1v1h-1zm42 0h1v1h-1zm-31 1h1v1h-1zm20 0h1v1h-1zm-29 1h1v1h-1zm38 0h1v1h-1zm-39 1h1v1h-1zm16 0h1v1h-1zm8 0h1v1h-1zm16 0h1v1h-1zm-35 3h1v1h-1zm10 0h1v1h-1zm10 0h1v1h-1zm10 0h1v1h-1zm-31 1h1v1h-1zm32 0h1v1h-1zm-29 1h1v1h-1zm26 0h1v1h-1z"/><path fill="#221" d="M16 21h1v1h-1zm32 0h1v1h-1zm-18 3h1v1h-1zm4 0h1v1h-1zm-6 8h1v1h-1zm-9 3h1v1h-1zm26 0h1v1h-1zM32 52h1v1h-1zm-10 3h1v1h-1zm20 0h1v1h-1zm-26 2h1v1h-1zm32 0h1v1h-1zm-21 2h1v1h-1zm2 0h1v1h-1zm6 0h1v1h-1zm2 0h1v1h-1zm-14 1h1v1h-1zm7 0h1v1h-1zm4 0h1v1h-1zm7 0h1v1h-1z"/><path fill="#443" d="M29 21h1v1h-1zm6 0h1v1h-1zm-9 1h1v1h-1zm12 0h1v1h-1zm-3 13h1v1h-1zm-11 4h1v1h-1zm16 8h1v1h-1zM27 63h1v1h-1zm10 0h1v1h-1zm-14 8h1v1h-1z"/><path fill="#d66" d="M31 50h1v1h-1z"/><path fill="#aaa" d="M0 2h1v1H0zm65 0h1v1h-1zM19 16h1v1h-1zm26 0h1v1h-1zm-22 2h1v1h-1zm18 0h1v1h-1zm-28 1h1v1h-1zm38 0h1v1h-1zm-36 1h1v1h-1zm34 0h1v1h-1zm-33 2h1v1h-1zm32 0h1v1h-1zm-33 2h1v1h-1zm16 0h1v1h-1zm2 0h1v1h-1zm16 0h1v1h-1zm-38 5h1v1h-1zm17 0h1v1h-1zm8 0h1v1h-1zm17 0h1v1h-1zm-41 2h1v1h-1zm11 0h1v1h-1zm18 0h1v1h-1zm11 0h1v1h-1zm-34 2h1v1h-1zm28 0h1v1h-1zm-31 1h1v1h-1zm15 0h1v1h-1zm5 0h1v1h-1zm14 0h1v1h-1zm-32 1h1v1h-1zm30 0h1v1h-1zm-9 3h1v1h-1zm4 2h1v1h-1zm-20 5h1v1h-1zm17 3h1v1h-1zm-26 7h1v1h-1zm38 0h1v1h-1zm-21 2h1v1h-1zm4 0h1v1h-1zm-3 3h1v1h-1zm2 0h1v1h-1zm-5 2h1v1h-1zm8 0h1v1h-1zm-22 2h1v1h-1zm36 0h1v1h-1zm-39 1h1v1h-1zm16 0h1v1h-1zm10 0h1v1h-1zm16 0h1v1h-1zM1 86h1v1H1zm63 0h1v1h-1zM2 87h1v1H2zm1 0h1v1H3zm1 0h1v1H4zm1 0h56v1H5zm56 0h1v1h-1zm1 0h1v1h-1zm1 0h1v1h-1zM4 88h1v1H4zm1 0h56v1H5zm56 0h1v1h-1z"/><path fill="#554" d="M23 17h1v1h-1zm18 0h1v1h-1zm-28 3h1v1h-1zm38 0h1v1h-1zm-12 1h1v1h-1zm-19 1h1v1h-1zm24 0h1v1h-1zm-29 1h1v1h-1zm34 0h1v1h-1zm-25 5h1v1h-1zm16 0h1v1h-1zm-15 9h1v1h-1zM12 57h1v1h-1zm40 0h1v1h-1z"/><path fill="#edd" d="M22 31h1v1h-1zm20 0h1v1h-1zm-13 6h1v1h-1z"/><path fill="#110" d="M17 34h1v1h-1zm30 0h1v1h-1zm-27 1h1v1h-1zm1 0h1v1h-1zm22 0h1v1h-1zm1 0h1v1h-1zM31 53h1v1h-1zm1 0h1v1h-1zm1 0h1v1h-1zM15 69h1v1h-1zm34 0h1v1h-1zm-32 1h1v1h-1zm8 0h1v1h-1zm14 0h1v1h-1zm8 0h1v1h-1zm-27 1h1v1h-1zm1 0h1v1h-1zm22 0h1v1h-1zm1 0h1v1h-1z"/><path fill="#eaa" d="M34 38h1v1h-1zm2 1h1v1h-1zm-10 1h1v1h-1zm4 0h1v1h-1z"/><path fill="#c56" d="M34 42h1v1h-1zm-4 1h1v1h-1zm0 4h1v1h-1z"/><path fill="#d88" d="M28 44h1v1h-1z"/><path fill="#999" d="M0 3h1v1H0zm65 0h1v1h-1zM0 4h1v1H0zm65 0h1v1h-1zM20 16h1v1h-1zm1 0h1v1h-1zm1 0h1v1h-1zm20 0h1v1h-1zm1 0h1v1h-1zm1 0h1v1h-1zm-28 1h1v1h-1zm32 0h1v1h-1zm-25 5h1v1h-1zm4 0h1v1h-1zm1 0h1v1h-1zm8 0h1v1h-1zm1 0h1v1h-1zm4 0h1v1h-1zm-27 1h1v1h-1zm36 0h1v1h-1zm-19 4h1v1h-1zm2 0h1v1h-1zm-19 3h1v1h-1zm36 0h1v1h-1zm-34 2h1v1h-1zm7 0h1v1h-1zm18 0h1v1h-1zm7 0h1v1h-1zm-17 2h1v1h-1zm1 0h1v1h-1zm1 0h1v1h-1zm1 0h1v1h-1zm-7 1h1v1h-1zm3 1h1v1h-1zm-8 7h1v1h-1zm0 1h1v1h-1zm1 4h1v1h-1zm18 1h1v1h-1zm-18 3h1v1h-1zm15 0h1v1h-1zm-22 1h1v1h-1zm20 0h1v1h-1zm12 0h1v1h-1zm-25 3h1v1h-1zm18 0h1v1h-1zm-27 3h1v1h-1zm36 0h1v1h-1zm-20 7h1v1h-1zm4 0h1v1h-1zm-9 1h1v1h-1zm14 0h1v1h-1zm-21 2h1v1h-1zm28 0h1v1h-1zM3 88h1v1H3zm59 0h1v1h-1z"/><path fill="#888" d="M0 5h1v1H0zm65 0h1v1h-1zM0 6h1v1H0zm65 0h1v1h-1zM0 7h1v1H0zm65 0h1v1h-1zM0 8h1v73H0zm65 0h1v73h-1zm-40 9h1v1h-1zm14 0h1v1h-1zm-21 1h1v1h-1zm9 0h1v1h-1zm10 0h1v1h-1zm9 0h1v1h-1zm-23 2h1v1h-1zm18 0h1v1h-1zm-28 3h1v1h-1zm38 0h1v1h-1zm-26 2h1v1h-1zm14 0h1v1h-1zm-8 1h1v1h-1zm2 0h1v1h-1zm-14 1h1v1h-1zm26 0h1v1h-1zm-27 4h1v1h-1zm7 0h1v1h-1zm21 0h1v1h-1zm-6 6h1v1h-1zm-1 2h1v1h-1zm-14 1h1v1h-1zm4 11h1v1h-1zm12 1h1v1h-1zm1 0h1v1h-1zm-26 3h1v1h-1zm2 0h1v1h-1zm28 0h1v1h-1zm2 0h1v1h-1zm-34 2h1v1h-1zm36 0h1v1h-1zm-37 2h1v1h-1zm38 0h1v1h-1zm-20 2h1v1h-1zm2 0h1v1h-1zm-2 1h1v1h-1zm2 0h1v1h-1zm-14 1h1v1h-1zm26 0h1v1h-1zm-32 1h1v1h-1zm38 0h1v1h-1zm-32 4h1v1h-1zm26 0h1v1h-1zm-21 3h1v1h-1zm16 0h1v1h-1zM0 81h1v2H0zm65 0h1v2h-1zM0 83h1v1H0zm65 0h1v1h-1zM1 87h1v1H1zm63 0h1v1h-1zM2 88h1v1H2zm61 0h1v1h-1z"/><path fill="#332" d="M23 23h1v1h-1zm18 0h1v1h-1zm-19 5h1v1h-1zm-9 1h1v1h-1zm38 0h1v1h-1zm-34 4h1v1h-1zm30 0h1v1h-1zm-20 3h1v1h-1zm13 4h1v1h-1zM22 53h1v1h-1zm8 0h1v1h-1zm10 0h2v1h-2zm-23 1h1v1h-1zm30 0h1v1h-1zm-32 1h1v1h-1zm34 0h1v1h-1zm-36 2h1v1h-1zm38 0h1v1h-1zm-38 1h1v1h-1zm38 0h1v1h-1zm-21 7h1v1h-1zm4 0h1v1h-1z"/><path fill="#fcc" d="M25 45h1v1h-1zm2 1h1v1h-1zm10 1h1v1h-1zm-8 3h1v1h-1z"/><path fill="#e88" d="M28 49h1v1h-1z"/><path fill="#655" d="M18 17h1v1h-1zm28 0h1v1h-1zm-22 1h1v1h-1zm16 0h1v1h-1zm-26 1h1v1h-1zm36 0h1v1h-1zm-33 5h1v1h-1zm2 0h1v1h-1zm26 0h1v1h-1zm2 0h1v1h-1zm-18 3h1v1h-1zm6 0h1v1h-1zm-9 2h1v1h-1zm12 0h1v1h-1zm-1 2h1v1h-1zm1 1h1v1h-1zm-15 8h1v1h-1zm19 1h1v1h-1zm-16 8h1v1h-1zm1 1h1v1h-1zm13 0h1v1h-1zm-4 1h1v1h-1zm-9 1h1v1h-1zm-9 1h1v1h-1zm28 0h1v1h-1zm-32 2h1v1h-1zm9 0h1v1h-1zm18 0h1v1h-1zm9 0h1v1h-1zm-32 1h1v1h-1zm7 0h1v1h-1zm4 0h1v1h-1zm6 0h1v1h-1zm4 0h1v1h-1zm7 0h1v1h-1zm-21 1h1v1h-1zm14 0h1v1h-1zm-22 3h1v1h-1zm30 0h1v1h-1zm-33 3h1v1h-1zm36 0h1v1h-1zm-39 1h1v1h-1zm10 0h1v1h-1zm22 0h1v1h-1zm10 0h1v1h-1zm-27 1h1v1h-1zm12 0h1v1h-1zm-14 2h1v1h-1zm16 0h1v1h-1z"/><path fill="#111" d="M21 19h1v1h-1zm22 0h1v1h-1zm-13 9h1v1h-1zm4 0h1v1h-1zm-22 1h1v1h-1zm8 0h1v1h-1zm1 0h1v1h-1zm1 0h1v1h-1zm20 0h1v1h-1zm1 0h1v1h-1zm1 0h1v1h-1zm8 0h1v1h-1zm-23 1h1v1h-1zm6 0h1v1h-1zm-22 1h1v1h-1zm38 0h1v1h-1zm-37 1h1v1h-1zm36 0h1v1h-1zm-35 1h1v1h-1zm1 0h1v1h-1zm32 0h1v1h-1zm1 0h1v1h-1zm-31 1h1v1h-1zm6 0h2v1h-2zm22 0h1v1h-1zm-24 1h1v1h-1zm20 0h1v1h-1zM23 46h1v1h-1zm18 1h1v1h-1zm-17 1h1v1h-1zm16 1h1v1h-1zm-12 3h2v1h-2zm6 1h1v1h-1zm-14 2h1v1h-1zm1 0h1v1h-1zm22 0h1v1h-1zm1 0h1v1h-1zm-14 9h1v1h-1zm4 0h1v1h-1zm-22 1h1v1h-1zm8 0h2v1h-2zm23 0h2v1h-2zm9 0h1v1h-1zm-23 1h1v1h-1zm6 0h1v1h-1zm-22 1h1v1h-1zm15 0h1v1h-1zm8 0h1v1h-1zm15 0h1v1h-1zm-37 1h1v1h-1zm13 0h1v1h-1zm10 0h1v1h-1zm13 0h1v1h-1zm-34 1h1v1h-1zm10 0h1v1h-1zm12 0h1v1h-1zm10 0h1v1h-1zm-30 1h1v1h-1zm1 0h1v1h-1zm4 0h1v1h-1zm1 0h1v1h-1zm16 0h1v1h-1zm1 0h1v1h-1zm4 0h1v1h-1zm1 0h1v1h-1z"/><path fill="#555" d="M18 20h1v1h-1zm28 0h1v1h-1zm-34 1h1v1h-1zm13 0h1v1h-1zm1 0h1v1h-1zm12 0h1v1h-1zm14 0h1v1h-1zm-30 1h1v1h-1zm20 0h1v1h-1zm-13 2h1v1h-1zm6 0h1v1h-1zm-21 3h1v1h-1zm36 0h1v1h-1zm-39 1h1v1h-1zm42 0h1v1h-1zm-26 3h1v1h-1zm-1 1h1v1h-1zm-8 3h1v1h-1zm10 0h1v1h-1zm1 0h1v1h-1zm17 0h1v1h-1zm-20 1h1v1h-1zm15 3h1v1h-1zM22 58h1v1h-1zm20 0h1v1h-1zm-27 1h1v1h-1zm34 0h1v1h-1zm-20 1h1v1h-1zm6 0h1v1h-1zm-6 3h1v1h-1zm6 0h1v1h-1zm-11 1h1v1h-1zm16 0h1v1h-1z"/><path fill="#cbb" d="M17 30h1v1h-1zm30 0h1v1h-1zm-18 4h1v1h-1zm9 1h1v1h-1zM25 60h1v1h-1zm3 0h1v1h-1zm8 0h1v1h-1zm3 0h1v1h-1zm-20 7h1v1h-1z"/><path fill="#daa" d="M31 42h1v1h-1zm4 5h1v1h-1z"/><path fill="#c45" d="M29 46h1v1h-1z"/><path fill="#ccc" d="M1 0h1v1H1zm1 0h1v1H2zm61 0h1v1h-1zm1 0h1v1h-1zM1 2h1v1H1zm63 0h1v1h-1zM24 16h1v1h-1zm16 0h1v1h-1zm-21 2h1v1h-1zm26 0h1v1h-1zm-21 1h1v1h-1zm1 0h1v1h-1zm14 0h1v1h-1zm1 0h1v1h-1zm-28 1h1v1h-1zm4 0h1v1h-1zm32 0h1v1h-1zm4 0h1v1h-1zm-37 1h1v1h-1zm34 0h1v1h-1zm-23 2h1v1h-1zm12 0h1v1h-1zm-25 1h1v1h-1zm9 0h1v1h-1zm3 0h1v1h-1zm3 0h1v1h-1zm8 0h1v1h-1zm3 0h1v1h-1zm3 0h1v1h-1zm9 0h1v1h-1zm-38 3h1v1h-1zm15 0h1v1h-1zm8 0h1v1h-1zm15 0h1v1h-1zm-34 1h1v1h-1zm14 0h1v1h-1zm2 0h1v1h-1zm14 0h1v1h-1zm-32 2h1v1h-1zm6 0h1v1h-1zm22 0h1v1h-1zm6 0h1v1h-1zm-33 1h1v1h-1zm3 0h1v1h-1zm26 0h1v1h-1zm3 0h1v1h-1zm-25 2h1v1h-1zm18 0h1v1h-1zm-5 1h1v1h-1zm-5 2h1v1h-1zm-1 15h1v1h-1zm-12 7h1v1h-1zm28 0h1v1h-1zm-29 1h1v1h-1zm9 0h1v1h-1zm12 0h1v1h-1zm9 0h1v1h-1zm-34 1h1v1h-1zm9 0h1v1h-1zm20 0h1v1h-1zm9 0h1v1h-1zm-38 3h1v1h-1zm15 0h1v1h-1zm8 0h1v1h-1zm15 0h1v1h-1zm-34 1h1v1h-1zm9 0h1v1h-1zm12 0h1v1h-1zm9 0h1v1h-1zm-29 1h1v1h-1zm28 0h1v1h-1zM1 84h1v1H1zm63 0h1v1h-1zM2 85h1v1H2zm61 0h1v1h-1zM4 86h1v1H4zm1 0h1v1H5zm1 0h1v1H6zm1 0h52v1H7zm52 0h1v1h-1zm1 0h1v1h-1zm1 0h1v1h-1z"/><path fill="#baa" d="M23 16h1v1h-1zm18 0h1v1h-1zm-24 5h1v1h-1zm13 0h1v1h-1zm4 0h1v1h-1zm13 0h1v1h-1zm-32 6h1v1h-1zm34 0h1v1h-1zm-31 5h1v1h-1zm28 0h1v1h-1zM22 42h1v1h-1zm2 10h1v1h-1zm-10 2h1v1h-1zm36 0h1v1h-1zm-35 2h1v1h-1zm34 0h1v1h-1zm-38 2h1v1h-1zm42 0h1v1h-1zm-38 2h1v1h-1zm34 0h1v1h-1zm-34 3h1v1h-1zm34 0h1v1h-1zm-37 4h1v1h-1zm40 0h1v1h-1zm-35 4h1v1h-1zm30 0h1v1h-1z"/><path fill="#fee" d="M36 28h1v1h-1zm-7 11h1v1h-1zm3 0h1v1h-1zm-4 1h1v1h-1zm11 0h1v1h-1zm-5 3h1v1h-1zm3 0h1v1h-1zm0 1h1v1h-1zm1 0h1v1h-1zm-13 2h1v1h-1zm14 1h1v1h-1zm-8 1h1v1h-1zm-4 1h1v1h-1zm4 0h1v1h-1zm5 1h1v1h-1zM20 69h1v1h-1zm24 0h1v1h-1z"/><path fill="#fdd" d="M33 38h1v1h-1zm2 2h1v1h-1zm3 3h1v1h-1zm-4 6h1v1h-1z"/><path fill="#ffe" d="M17 68h1v1h-1zm30 0h1v1h-1z"/><path fill="#bbb" d="M0 1h1v1H0zm1 0h1v1H1zm63 0h1v1h-1zm1 0h1v1h-1zM18 16h1v1h-1zm28 0h1v1h-1zm-20 1h1v1h-1zm12 0h1v1h-1zm-24 1h1v1h-1zm36 0h1v1h-1zm-31 2h1v1h-1zm26 0h1v1h-1zm-34 2h1v1h-1zm42 0h1v1h-1zm-28 5h1v1h-1zm14 0h1v1h-1zm-23 2h1v1h-1zm2 0h1v1h-1zm28 0h1v1h-1zm2 0h1v1h-1zm-33 2h1v1h-1zm34 0h1v1h-1zm-15 5h1v1h-1zm-6 1h1v1h-1zm13 1h1v1h-1zm-18 1h1v1h-1zm14 11h1v1h-1zm-2 1h1v1h-1zm-17 1h1v1h-1zm28 0h1v1h-1zm-23 2h1v1h-1zm18 0h1v1h-1zm-17 1h1v1h-1zm16 0h1v1h-1zm-24 1h1v1h-1zm3 0h1v1h-1zm26 0h1v1h-1zm3 0h1v1h-1zm-33 1h1v1h-1zm2 0h1v1h-1zm30 0h1v1h-1zm2 0h1v1h-1zm-33 1h1v1h-1zm32 0h1v1h-1zm-23 5h1v1h-1zm14 0h1v1h-1zm-23 2h1v1h-1zm32 0h1v1h-1zm-31 1h1v1h-1zm30 0h1v1h-1zm-32 1h1v1h-1zm30 0h1v1h-1zm4 0h1v1h-1zm-31 1h1v1h-1zm28 0h1v1h-1zm-23 1h1v1h-1zm18 0h1v1h-1zm-26 1h1v1h-1zm34 0h1v1h-1zM1 85h1v1H1zm63 0h1v1h-1zM2 86h1v1H2zm1 0h1v1H3zm59 0h1v1h-1zm1 0h1v1h-1z"/><path fill="#eee" d="M3 1h1v1H3zm59 0h1v1h-1zM2 2h1v1H2zm61 0h1v1h-1zM1 3h1v1H1zm63 0h1v1h-1zM1 4h1v1H1zm63 0h1v1h-1zM1 5h1v1H1zm63 0h1v1h-1zM2 6h1v1H2zm61 0h1v1h-1zM2 7h1v1H2zm61 0h1v1h-1zM2 8h1v74H2zm61 0h1v74h-1zM20 18h1v1h-1zm8 0h1v1h-1zm8 0h1v1h-1zm8 0h1v1h-1zm-27 1h1v1h-1zm12 0h1v1h-1zm6 0h1v1h-1zm12 0h1v1h-1zm-27 1h1v1h-1zm1 0h1v1h-1zm5 0h1v1h-1zm12 0h1v1h-1zm5 0h1v1h-1zm1 0h1v1h-1zm-24 1h1v1h-1zm4 0h1v1h-1zm3 0h1v1h-1zm10 0h1v1h-1zm3 0h1v1h-1zm4 0h1v1h-1zm-30 1h1v1h-1zm36 0h1v1h-1zm-22 1h1v1h-1zm8 0h1v1h-1zm-23 2h1v1h-1zm6 0h1v1h-1zm26 0h1v1h-1zm6 0h1v1h-1zm-38 1h1v1h-1zm6 0h1v1h-1zm26 0h1v1h-1zm6 0h1v1h-1zm-23 2h1v1h-1zm-14 1h1v1h-1zm36 0h1v1h-1zm-28 1h1v1h-1zm5 0h1v1h-1zm10 0h1v1h-1zm5 0h1v1h-1zm-22 1h1v1h-1zm6 0h1v1h-1zm12 0h1v1h-1zm6 0h1v1h-1zm-27 1h1v1h-1zm30 0h1v1h-1zm-25 1h1v1h-1zm20 0h1v1h-1zm-15 1h1v1h-1zm1 0h1v1h-1zm9 0h1v1h-1zm-12 2h1v1h-1zm7 0h1v1h-1zm-8 1h1v1h-1zm12 0h1v1h-1zm-9 1h1v1h-1zm-2 3h1v1h-1zm15 2h1v1h-1zm-14 5h1v1h-1zm16 0h1v1h-1zm-14 2h1v1h-1zm6 1h1v1h-1zm-8 1h1v1h-1zm1 1h1v1h-1zm-5 1h1v1h-1zm10 0h1v1h-1zm1 0h1v1h-1zm9 0h1v1h-1zm-25 1h1v1h-1zm30 0h1v1h-1zm-27 1h1v1h-1zm6 0h1v1h-1zm12 0h1v1h-1zm6 0h1v1h-1zm-24 1h1v1h-1zm7 0h1v1h-1zm10 0h1v1h-1zm7 0h1v1h-1zm-30 1h1v1h-1zm36 0h1v1h-1zm-22 1h1v1h-1zm8 0h1v1h-1zm-23 2h1v1h-1zm6 0h1v1h-1zm26 0h1v1h-1zm6 0h1v1h-1zm-38 1h1v1h-1zm6 0h1v1h-1zm26 0h1v1h-1zm6 0h1v1h-1zm-23 2h1v1h-1zm8 0h1v1h-1zm-22 1h1v1h-1zm36 0h1v1h-1zm-26 1h1v1h-1zm3 0h1v1h-1zm10 0h1v1h-1zm3 0h1v1h-1zm-20 1h1v1h-1zm1 0h1v1h-1zm5 0h1v1h-1zm12 0h1v1h-1zm5 0h1v1h-1zm1 0h1v1h-1zm-22 2h1v1h-1zm20 0h1v1h-1zm-15 1h1v1h-1zm10 0h1v1h-1zM2 82h1v1H2zm61 0h1v1h-1zM2 83h1v1H2zm61 0h1v1h-1zM3 84h1v1H3zm1 0h1v1H4zm57 0h1v1h-1zm1 0h1v1h-1zM9 85h48v1H9z"/><path fill="#a12" d="M32 37h1v1h-1zm-3 1h1v1h-1zm8 1h1v1h-1zm-3 8h1v1h-1z"/><path fill="#fef" d="M33 39h1v1h-1z"/><path fill="#e9a" d="M34 45h1v1h-1zm-8 2h1v1h-1zm9 3h1v1h-1z"/><path fill="#433" d="M22 17h1v1h-1zm20 0h1v1h-1zm-16 2h1v1h-1zm12 0h1v1h-1zm-15 8h1v1h-1zm18 0h1v1h-1zm-14 1h1v1h-1zm10 0h1v1h-1zm-2 3h1v1h-1zm-12 4h1v1h-1zm8 0h1v1h-1zm2 0h1v1h-1zm1 0h1v1h-1zm2 0h1v1h-1zm5 0h1v1h-1zm-16 3h1v1h-1zm1 0h1v1h-1zm14 0h1v1h-1zM24 49h1v1h-1zm-5 4h1v1h-1zm4 0h1v1h-1zm22 0h1v1h-1zm-18 1h1v1h-1zm-8 1h1v1h-1zm7 0h1v1h-1zm2 0h1v1h-1zm10 0h1v1h-1zm7 0h1v1h-1zm-16 2h1v1h-1zm6 0h1v1h-1zm-17 2h1v1h-1zm28 0h1v1h-1zm-19 1h1v1h-1zm10 0h1v1h-1zm-14 3h1v1h-1zm18 0h1v1h-1zm-14 1h1v1h-1zm10 0h1v1h-1zm-18 1h1v1h-1zm26 0h1v1h-1zm-16 2h1v1h-1zm6 0h1v1h-1zm-9 1h1v1h-1zm12 0h1v1h-1z"/><path fill="#766" d="M24 17h1v1h-1zm16 0h1v1h-1zm-21 5h1v1h-1zm26 0h1v1h-1zM13 32h1v1h-1zm9 0h1v1h-1zm20 0h1v1h-1zm9 0h1v1h-1zM38 53h1v1h-1zm-23 1h1v1h-1zm34 0h1v1h-1zm-25 5h1v1h-1zm16 0h1v1h-1zm-20 9h1v1h-1zm24 0h1v1h-1z"/><path fill="#a99" d="M14 28h1v1h-1zm36 0h1v1h-1zm-23 1h1v1h-1zm10 0h1v1h-1zm3 17h1v1h-1zm-15 1h1v1h-1zm-6 5h1v1h-1zm21 0h1v1h-1zm5 0h1v1h-1zm-17 6h1v1h-1zm8 0h1v1h-1zm-8 3h1v1h-1zm8 0h1v1h-1zm-5 2h1v1h-1zm2 0h1v1h-1zm-5 2h1v1h-1zm8 0h1v1h-1zm-13 3h1v1h-1zm18 0h1v1h-1z"/><path fill="#b23" d="M27 40h1v1h-1zm-1 1h1v1h-1zm10 4h1v1h-1z"/><path fill="#ebb" d="M27 41h1v1h-1zm5 7h1v1h-1zm6 0h1v1h-1z"/></svg>