<svg xmlns="http://www.w3.org/2000/svg" width="66" height="90" baseProfile="tiny" version="1.2"><path fill="#a99" d="M18 16h1v1h-1zm1 0h1v1h-1zm7 0h1v1h-1zm12 0h1v1h-1zm7 0h1v1h-1zm1 0h1v1h-1zm-30 1h1v1h-1zm32 0h1v1h-1zm-20 2h1v1h-1zm8 0h1v1h-1zm-9 2h1v1h-1zm10 0h1v1h-1zm-20 1h1v1h-1zm30 0h1v1h-1zm-25 4h1v1h-1zm20 0h1v1h-1zm-26 1h1v1h-1zm32 0h1v1h-1zm-20 5h1v1h-1zm8 0h1v1h-1zm-16 5h1v1h-1zm4 0h1v1h-1zm1 0h1v1h-1zm14 0h1v1h-1zm1 0h1v1h-1zm4 0h1v1h-1zm-19 1h1v1h-1zm14 0h1v1h-1zM19 57h1v1h-1zm14 3h1v1h-1zm-1 2h1v1h-1z"/><path fill="#ebb" d="M25 39h1v1h-1zm14 0h1v1h-1zm-14 3h1v1h-1zm14 0h1v1h-1zm-21 4h1v1h-1zm28 0h1v1h-1zm-22 6h1v1h-1zm16 0h1v1h-1zm-18 5h1v1h-1zm20 0h1v1h-1zm-18 3h1v1h-1zm4 0h1v1h-1zm8 0h1v1h-1zm4 0h1v1h-1zm-13 1h1v1h-1zm10 0h1v1h-1zm-8 1h1v1h-1zm6 0h1v1h-1zm-9 4h1v1h-1zm3 0h1v1h-1zm6 0h1v1h-1zm3 0h1v1h-1zm-12 2h1v1h-1zm10 0h1v1h-1zm2 0h1v1h-1z"/><g fill="#c02"><path d="M21 42h1v1h-1zm1 0h2v1h-2zm19 0h2v1h-2zm2 0h1v2h-1zm-23 1h1v1h-1zm1 0h1v1h-1zm3 0h1v1h-1zm16 0h1v1h-1zm4 0h1v1h-1zm-25 1h1v3h-1zm6 0h1v4h-1zm14 0h1v4h-1zm6 0h1v3h-1zm-29 1h1v1h-1zm32 0h1v1h-1zm-32 1h1v1h-1zm32 0h1v1h-1zm-28 1h1v1h-1zm24 0h1v1h-1zm-23 1h4v1h-4zm19 0h4v1h-4zM21 61h4v1h-4zm19 0h4v1h-4zm-20 1h1v1h-1zm5 0h1v5h-1zm14 0h1v5h-1zm5 0h1v1h-1zm-25 1h1v3h-1zm26 0h1v3h-1zm-29 1h1v1h-1zm32 0h1v1h-1zm-28 2h1v1h-1z"/><path d="M24 66h2v1h-2zm16 0h1v1h-1zm4 0h1v1h-1zm-23 1h3v1h-3zm20 0h3v1h-3z"/></g><path fill="#d88" d="M28 46h1v1h-1zm8 0h1v1h-1zm-20 2h1v1h-1zm32 0h1v1h-1zM29 65h1v1h-1zm6 0h1v1h-1zm5 0h1v1h-1z"/><path fill="#c24" d="M22 39h1v1h-1zm20 0h1v1h-1zm-15 2h1v1h-1zm10 0h1v1h-1zm9 0h1v1h-1zm-26 5h1v1h-1zm24 0h1v1h-1zm-2 3h1v1h-1zM28 61h1v1h-1zm8 0h1v1h-1z"/><path fill="#c34" d="M23 39h1v1h-1zm18 0h1v1h-1zm-16 1h1v1h-1zm14 0h1v1h-1zm-21 1h1v1h-1zm4 2h1v1h-1zm20 0h1v1h-1zm-16 3h1v1h-1zm12 0h1v1h-1zm-22 1h1v1h-1zm32 0h1v1h-1zm-23 1h1v1h-1zm14 0h1v1h-1zm-17 1h1v1h-1zm5 0h1v1h-1zm10 0h1v1h-1zm4 0h1v1h-1zm-15 1h1v1h-1zm12 0h1v1h-1zm-14 1h1v1h-1zm16 0h1v1h-1zM17 61h1v1h-1zm30 0h1v1h-1zm-19 1h1v1h-1zm8 0h1v1h-1zm-10 1h1v1h-1zm12 0h1v1h-1zm-18 4h1v1h-1zm8 0h1v1h-1zm8 0h1v1h-1zm8 0h1v1h-1z"/><path fill="#dbc" d="M17 50h1v1h-1zm30 0h1v1h-1zM22 71h1v1h-1z"/><path fill="#c56" d="M19 51h1v1h-1zm26 0h1v1h-1zM18 69h1v1h-1zm28 0h1v1h-1z"/><path fill="#ddd" d="M3 0h1v1H3zm1 0h1v1H4zm1 0h56v1H5zm56 0h1v1h-1zm1 0h1v1h-1zM2 1h1v1H2zm61 0h1v1h-1zM1 6h1v1H1zm63 0h1v1h-1zM1 7h1v1H1zm63 0h1v1h-1zM1 8h1v1H1zm63 0h1v1h-1zM1 9h1v73H1zm63 0h1v73h-1zm-45 6h1v1h-1zm26 0h1v1h-1zm-21 2h1v1h-1zm16 0h1v1h-1zm-23 2h1v1h-1zm30 0h1v1h-1zm-19 1h1v1h-1zm8 0h1v1h-1zm-7 1h1v1h-1zm6 0h1v1h-1zm-20 2h1v1h-1zm34 0h1v1h-1zm-34 2h1v1h-1zm34 0h1v1h-1zm-36 3h1v1h-1zm13 0h1v1h-1zm12 0h1v1h-1zm13 0h1v1h-1zm-36 3h1v1h-1zm34 0h1v1h-1zm-28 3h1v1h-1zm2 0h1v1h-1zm18 0h1v1h-1zm2 0h1v1h-1zm-18 2h1v1h-1zm14 0h1v1h-1zm-22 1h1v1h-1zm30 0h1v1h-1zm-25 1h1v1h-1zm1 0h1v1h-1zm18 0h1v1h-1zm1 0h1v1h-1zm-16 1h1v1h-1zm12 0h1v1h-1zm-23 5h1v1h-1zm34 0h1v1h-1zm-34 2h1v1h-1zm34 0h1v1h-1zm-20 2h1v1h-1zm6 0h1v1h-1zm-21 3h1v1h-1zm36 0h1v1h-1zm-30 6h1v1h-1zm24 0h1v1h-1zm-31 3h1v1h-1zm3 0h1v1h-1zm32 0h1v1h-1zm3 0h1v1h-1zm-36 5h1v1h-1zm34 0h1v1h-1zm-17 2h1v1h-1zM1 82h1v1H1zm63 0h1v1h-1zM1 83h1v1H1zm63 0h1v1h-1zM2 84h1v1H2zm61 0h1v1h-1zM3 85h1v1H3zm1 0h1v1H4zm1 0h1v1H5zm1 0h1v1H6zm1 0h2v1H7zm50 0h2v1h-2zm2 0h1v1h-1zm1 0h1v1h-1zm1 0h1v1h-1zm1 0h1v1h-1z"/><path fill="#ccb" d="M20 15h1v1h-1zm24 0h1v1h-1zm-28 6h1v1h-1zm32 0h1v1h-1zm-30 4h1v1h-1zm28 0h1v1h-1zm-22 6h1v1h-1zm16 0h1v1h-1zM13 49h1v1h-1zm38 0h1v1h-1z"/><path fill="#cbb" d="M21 20h1v1h-1zm22 0h1v1h-1zM18 33h1v1h-1zm28 0h1v1h-1zm-6 3h1v1h-1zm-13 1h1v1h-1zm10 0h1v1h-1zm-13 1h1v1h-1zm16 0h1v1h-1zm-5 4h1v1h-1zM25 57h1v1h-1zm14 0h1v1h-1zM23 71h1v1h-1zm18 0h1v1h-1z"/><path fill="#111" d="M14 26h1v1h-1zm17 0h1v1h-1zm2 0h1v1h-1zm17 0h1v1h-1zm-36 1h1v1h-1zm16 0h1v1h-1zm1 0h1v1h-1zm2 0h1v1h-1zm1 0h1v1h-1zm16 0h1v1h-1zm-36 1h1v1h-1zm1 0h1v1h-1zm15 0h1v1h-1zm4 0h1v1h-1zm15 0h1v1h-1zm1 0h1v1h-1zm-21 1h1v1h-1zm6 0h1v1h-1zm-7 1h1v1h-1zm8 0h1v1h-1zm-18 1h1v1h-1zm28 0h1v1h-1zm-22 1h1v1h-1zm16 0h1v1h-1zM14 47h1v1h-1zm17 0h1v1h-1zm2 0h1v1h-1zm17 0h1v1h-1zm-36 1h1v1h-1zm17 0h1v1h-1zm2 0h1v1h-1zm17 0h1v1h-1zm-36 1h1v1h-1zm16 0h1v1h-1zm4 0h1v1h-1zm16 0h1v1h-1zm-21 1h1v1h-1zm6 0h1v1h-1zm-19 2h1v1h-1zm11 0h1v1h-1zm10 0h1v1h-1zm11 0h1v1h-1zm-29 1h1v1h-1zm6 0h1v1h-1zm1 0h1v1h-1zm12 0h1v1h-1zm1 0h1v1h-1zm6 0h1v1h-1zM14 66h1v1h-1zm17 0h1v1h-1zm2 0h1v1h-1zm17 0h1v1h-1zm-36 1h1v1h-1zm16 0h1v1h-1zm1 0h1v1h-1zm2 0h1v1h-1zm1 0h1v1h-1zm16 0h1v1h-1zm-36 1h1v1h-1zm1 0h1v1h-1zm34 0h1v1h-1zm1 0h1v1h-1zm-22 3h1v1h-1zm8 0h1v1h-1zm-18 1h1v1h-1zm28 0h1v1h-1z"/><path fill="#dab" d="M27 69h1v1h-1zm10 0h1v1h-1z"/><path fill="#444" d="M20 21h1v1h-1zm24 0h1v1h-1zm-12 3h1v1h-1zm-6 1h1v1h-1zm12 0h1v1h-1zm-10 1h1v1h-1zm2 0h1v1h-1zm4 0h1v1h-1zm2 0h1v1h-1zm-18 3h1v1h-1zm28 0h1v1h-1zM14 50h1v1h-1zm2 0h1v1h-1zm32 0h1v1h-1zm2 0h1v1h-1zm-11 5h1v1h-1zm-7 9h1v1h-1zm-19 2h1v1h-1zm38 0h1v1h-1zm-36 1h1v1h-1zm34 0h1v1h-1zm-34 3h1v1h-1zm34 0h1v1h-1zm-33 1h1v1h-1zm32 0h1v1h-1zm-28 2h1v1h-1zm24 0h1v1h-1z"/><path fill="#d99" d="M26 51h1v1h-1z"/><path fill="#776" d="M22 22h1v1h-1zm20 0h1v1h-1zm-10 1h1v1h-1zm-2 2h1v1h-1zm4 0h1v1h-1zm-16 3h1v1h-1zm28 0h1v1h-1zM29 49h1v1h-1zm6 0h1v1h-1zm-7 4h1v1h-1z"/><path fill="#d67" d="M24 39h1v1h-1zm16 0h1v1h-1zm-20 1h1v1h-1zm24 0h1v1h-1zm-24 2h1v1h-1zm24 0h1v1h-1zm-28 1h1v1h-1zm32 0h1v1h-1zm-20 1h1v1h-1zm8 0h1v1h-1zm-15 3h1v1h-1zm22 0h1v1h-1zm-20 4h1v1h-1zm18 0h1v1h-1zm-23 9h1v1h-1zm5 0h1v1h-1zm18 0h1v1h-1zm5 0h1v1h-1zm-17 4h1v1h-1zm6 0h1v1h-1zm-13 2h1v1h-1zm20 0h1v1h-1zm-17 3h1v1h-1zm14 0h1v1h-1zm0 1h1v1h-1z"/><path fill="#ebc" d="M21 40h1v1h-1zm22 0h1v1h-1zm-21 1h1v1h-1zm20 0h1v1h-1zm-25 6h1v1h-1zm30 0h1v1h-1zM23 57h1v1h-1zm18 0h1v1h-1zm-23 6h1v1h-1zm28 0h1v1h-1zm-25 5h1v1h-1zm7 0h1v1h-1zm15 0h1v1h-1z"/><path fill="#daa" d="M19 70h1v1h-1zm26 0h1v1h-1z"/><path fill="#bbb" d="M0 1h1v1H0zm1 0h1v1H1zm63 0h1v1h-1zm1 0h1v1h-1zM21 15h1v1h-1zm3 0h1v1h-1zm16 0h1v1h-1zm3 0h1v1h-1zm-17 5h1v1h-1zm12 0h1v1h-1zm-12 2h1v1h-1zm12 0h1v1h-1zm-11 5h1v1h-1zm10 0h1v1h-1zm-21 1h1v1h-1zm8 0h1v1h-1zm16 0h1v1h-1zm8 0h1v1h-1zm-30 2h1v1h-1zm8 0h1v1h-1zm12 0h1v1h-1zm8 0h1v1h-1zm-26 1h1v1h-1zm1 0h1v1h-1zm22 0h1v1h-1zm1 0h1v1h-1zm-23 5h1v1h-1zm3 0h1v1h-1zm19 0h1v1h-1zm-27 2h1v1h-1zm32 0h1v1h-1zm-34 2h1v1h-1zm36 0h1v1h-1zm-19 1h1v1h-1zm2 0h1v1h-1zm-1 2h1v1h-1zm-17 4h1v1h-1zm34 0h1v1h-1zm-17 1h1v1h-1zm-1 2h1v1h-1zm2 0h1v1h-1zm-18 2h1v1h-1zm34 0h1v1h-1zm-20 5h1v1h-1zm6 0h1v1h-1zm-8 1h1v1h-1zm3 0h1v1h-1zm4 0h1v1h-1zm3 0h1v1h-1zm-9 1h1v1h-1zm8 0h1v1h-1zm-21 3h1v1h-1zm34 0h1v1h-1zm-20 5h1v1h-1zm6 0h1v1h-1zm-18 2h1v1h-1zm30 0h1v1h-1zm-26 2h1v1h-1zm22 0h1v1h-1zm-17 2h1v1h-1zm12 0h1v1h-1zM1 85h1v1H1zm63 0h1v1h-1zM2 86h1v1H2zm1 0h1v1H3zm59 0h1v1h-1zm1 0h1v1h-1z"/><path fill="#998" d="M22 16h1v1h-1zm20 0h1v1h-1zM21 28h1v1h-1zm22 0h1v1h-1z"/><path fill="#aa9" d="M20 19h1v1h-1zm24 0h1v1h-1zm-20 6h1v1h-1zm16 0h1v1h-1zM19 37h1v1h-1zm7 0h1v1h-1zm19 0h1v1h-1zm-30 6h1v1h-1zm34 0h1v1h-1z"/><path fill="#766" d="M25 19h1v1h-1zm5 0h1v1h-1zm4 0h1v1h-1zm5 0h1v1h-1zm-8 2h1v1h-1zm2 0h1v1h-1zM15 48h1v1h-1zm34 0h1v1h-1zm-13 5h1v1h-1zm-17 2h1v1h-1zm26 0h1v1h-1zm-27 2h1v1h-1zm28 0h1v1h-1zm-30 1h1v1h-1zm12 0h1v1h-1zm1 0h1v1h-1zm6 0h1v1h-1zm1 0h1v1h-1zm12 0h1v1h-1zm-32 1h1v1h-1zm32 0h1v1h-1zm-18 6h1v1h-1zm4 0h1v1h-1z"/><path fill="#ddc" d="M24 24h1v1h-1zm16 0h1v1h-1z"/><path fill="#e99" d="M17 41h1v1h-1zm30 0h1v1h-1zm-18 3h1v1h-1zm6 0h1v1h-1zm-17 5h1v1h-1zm28 0h1v1h-1zm-27 9h1v1h-1zm26 0h1v1h-1zm-6 1h1v1h-1zm-13 3h1v1h-1zm12 0h1v1h-1zm-13 5h1v1h-1zm2 0h1v1h-1z"/><path fill="#fcc" d="M26 43h1v1h-1zm-5 1h1v1h-1zm22 0h1v1h-1zm-19 1h1v1h-1zm16 0h1v1h-1zm-18 2h1v1h-1zm20 0h1v1h-1zm2 2h1v1h-1zm-19 1h1v1h-1zm14 0h1v1h-1zM18 65h1v1h-1zm28 0h1v1h-1z"/><path fill="#c45" d="M23 58h1v1h-1zm18 0h1v1h-1zm-25 8h1v1h-1zm32 0h1v1h-1zm-30 2h1v1h-1zm28 0h1v1h-1zm-26 2h1v1h-1zm24 0h1v1h-1z"/><path fill="#ccc" d="M1 0h1v1H1zm1 0h1v1H2zm61 0h1v1h-1zm1 0h1v1h-1zM1 2h1v1H1zm63 0h1v1h-1zM25 15h1v1h-1zm14 0h1v1h-1zm-22 1h1v1h-1zm30 0h1v1h-1zm-27 1h1v1h-1zm9 0h1v1h-1zm6 0h1v1h-1zm9 0h1v1h-1zm-26 1h1v1h-1zm1 0h1v1h-1zm11 0h1v1h-1zm4 0h1v1h-1zm11 0h1v1h-1zm1 0h1v1h-1zm-19 1h1v1h-1zm10 0h1v1h-1zm-21 1h1v1h-1zm32 0h1v1h-1zm-19 2h1v1h-1zm6 0h1v1h-1zm-17 1h1v1h-1zm28 0h1v1h-1zm-17 4h1v1h-1zm3 0h1v1h-1zm3 0h1v1h-1zm-18 2h1v1h-1zm14 0h1v1h-1zm2 0h1v1h-1zm14 0h1v1h-1zm-25 5h1v1h-1zm20 0h1v1h-1zm-22 2h1v1h-1zm24 0h1v1h-1zm-23 2h1v1h-1zm22 0h1v1h-1zm-26 2h1v1h-1zm30 0h1v1h-1zm-18 2h1v1h-1zm-4 10h1v1h-1zm14 0h1v1h-1zm-23 1h1v1h-1zm32 0h1v1h-1zm-21 1h1v1h-1zm10 0h1v1h-1zm-19 1h1v1h-1zm28 0h1v1h-1zm-18 1h1v1h-1zm8 0h1v1h-1zM26 70h1v1h-1zm2 2h1v1h-1zm8 0h1v1h-1zM1 84h1v1H1zm63 0h1v1h-1zM2 85h1v1H2zm61 0h1v1h-1zM4 86h1v1H4zm1 0h1v1H5zm1 0h1v1H6zm1 0h52v1H7zm52 0h1v1h-1zm1 0h1v1h-1zm1 0h1v1h-1z"/><path fill="#fee" d="M31 19h1v1h-1zm2 0h1v1h-1zM21 41h1v1h-1zm22 0h1v1h-1zm-17 8h1v1h-1zm-6 11h1v1h-1zm24 0h1v1h-1zm-27 3h1v1h-1zm30 0h1v1h-1zm-30 2h1v1h-1zm4 0h1v1h-1zm22 0h1v1h-1zm4 0h1v1h-1zm-29 2h1v1h-1zm1 0h1v1h-1zm26 0h1v1h-1zm1 0h1v1h-1zm-27 1h1v1h-1zm5 0h1v1h-1zm16 0h1v1h-1zm5 0h1v1h-1zm-24 1h1v1h-1zm22 0h1v1h-1z"/><path fill="#d45" d="M21 39h1v1h-1zm22 0h1v1h-1zm-17 1h1v1h-1zm12 0h1v1h-1zm-18 5h1v1h-1zm24 0h1v1h-1zm-16 2h1v1h-1zm8 0h1v1h-1zm-19 1h1v1h-1zm30 0h1v1h-1zM22 58h1v1h-1zm20 0h1v1h-1zm-24 1h1v1h-1zm1 0h1v1h-1zm26 0h1v1h-1zm1 0h1v1h-1zm-29 1h1v1h-1zm30 0h1v1h-1zm-31 2h1v1h-1zm32 0h1v1h-1zm-28 2h1v1h-1zm24 0h1v1h-1zm-18 1h1v1h-1zm12 0h1v1h-1zm-19 1h1v1h-1zm4 0h1v1h-1zm18 0h1v1h-1zm4 0h1v1h-1z"/><path fill="#665" d="M20 18h1v1h-1zm24 0h1v1h-1zM14 29h1v1h-1zm36 0h1v1h-1zm-31 2h1v1h-1zm26 0h1v1h-1zm-30 9h1v1h-1zm1 0h1v1h-1zm32 0h1v1h-1zm1 0h1v1h-1zM34 62h1v1h-1z"/><path fill="#d66" d="M45 43h1v1h-1zm-6 18h1v1h-1z"/><path fill="#eab" d="M18 45h1v1h-1zm28 0h1v1h-1zm-22 1h1v1h-1zm16 0h1v1h-1zm-17 1h1v1h-1zm18 0h1v1h-1zm-22 1h1v1h-1zm26 0h1v1h-1zM17 62h1v1h-1zm30 0h1v1h-1zm-31 5h1v1h-1zm32 0h1v1h-1z"/><g fill="#fff"><path d="M4 1h1v1H4zm1 0h1v1H5zm1 0h54v1H6zm54 0h1v1h-1zm1 0h1v1h-1zM3 2h1v1H3zm1 0h1v1H4zm1 0h56v1H5zm56 0h1v1h-1zm1 0h1v1h-1zM2 3h1v1H2zm1 0h1v1H3zm1 0h2v1H4zm2 0h54v1H6zm54 0h2v1h-2zm2 0h1v1h-1zm1 0h1v1h-1zM2 4h1v2H2zm1 0h1v3H3zm1 0h1v1H4zm1 0h56v11H5zm56 0h1v1h-1zm1 0h1v3h-1zm1 0h1v2h-1z"/><path d="M4 5h58v2H4zM3 7h1v1H3zm1 0h1v1H4zm57 0h1v1h-1zm1 0h1v1h-1zM3 8h1v73H3zm1 0h1v73H4zm57 0h1v74h-1zm1 0h1v73h-1zM5 15h13v1H5zm13 0h1v1h-1zm9 0h1v1h-1zm1 0h9v1h-9zm9 0h1v1h-1zm9 0h1v1h-1zm1 0h14v1H47zM5 16h11v1H5zm11 0h1v1h-1zm13 0h7v1h-7zm19 0h1v1h-1zm1 0h12v1H49zM5 17h10v1H5zm10 0h1v1h-1zm15 0h5v1h-5zm19 0h1v1h-1zm1 0h11v1H50zM5 18h9v2H5zm9 0h1v1h-1zm17 0h3v1h-3zm19 0h1v1h-1zm1 0h10v2H51zm-29 1h1v1h-1zm1 0h1v1h-1zm9 0h1v2h-1zm9 0h1v1h-1zm1 0h1v1h-1zM5 20h8v62H5zm15 0h1v1h-1zm5 0h1v1h-1zm14 0h1v1h-1zm5 0h1v1h-1zm8 0h9v62h-9zm-26 1h1v1h-1zm12 0h1v1h-1zm-20 1h1v1h-1zm9 0h1v1h-1zm10 0h1v1h-1zm9 0h1v1h-1zm-24 1h2v3h-2zm5 0h1v4h-1zm10 0h1v4h-1zm4 0h2v3h-2zm-24 1h1v1h-1z"/><path d="M21 24h3v1h-3zm22 0h1v1h-1zm4 0h1v1h-1zm-26 1h1v1h-1zm22 0h1v1h-1zm-25 1h1v1h-1zm28 0h1v1h-1zm-28 1h1v1h-1zm8 0h1v1h-1zm12 0h1v1h-1zm8 0h1v1h-1zm-27 1h1v1h-1zm6 0h1v1h-1zm7 0h1v14h-1zm7 0h1v1h-1zm6 0h1v1h-1zm-32 1h1v12h-1zm8 0h3v1h-3zm3 0h1v1h-1zm16 0h1v1h-1zm1 0h3v1h-3zm10 0h10v12H51z"/><path d="M31 30h3v10h-3zm-17 1h1v8h-1zm16 0h1v1h-1zm4 0h1v1h-1zm16 0h11v8H50zm-35 1h1v6h-1z"/><path d="M29 32h7v6h-7zm20 0h12v6H49zm-33 1h2v4h-2z"/><path d="M28 33h9v4h-9zm19 0h14v4H47zm-29 1h2v2h-2zm2 0h1v1h-1z"/><path d="M25 34h15v2H25zm19 0h1v1h-1zm1 0h16v2H45z"/><path d="M20 35h41v1H20zm-2 1h1v1h-1zm8 0h1v1h-1zm1 0h11v1H27zm11 0h1v1h-1zm8 0h1v1h-1zm-30 1h1v1h-1zm12 0h1v1h-1zm8 0h1v1h-1zm12 0h13v1H48zm-33 1h1v1h-1zm15 0h5v1h-5zm19 0h1v1h-1zm-35 1h1v1h-1zm36 0h1v1h-1zm-19 1h1v1h-1zm2 0h1v1h-1zm-20 1h1v1h-1zm7 0h1v1h-1zm4 0h1v1h-1zm1 0h1v1h-1zm14 0h1v1h-1zm1 0h1v1h-1zm4 0h1v1h-1zm7 0h1v1h-1zm-32 1h1v1h-1zm7 0h1v1h-1zm6 0h1v1h-1zm6 0h1v1h-1zm7 0h1v1h-1zm-27 1h1v1h-1zm9 0h1v1h-1zm10 0h1v1h-1zm9 0h1v1h-1zm-24 1h1v3h-1zm1 0h1v1h-1zm4 0h1v4h-1zm10 0h1v4h-1zm4 0h1v1h-1zm1 0h1v3h-1zm-25 1h1v1h-1z"/><path d="M21 45h3v1h-3zm20 0h3v1h-3zm6 0h1v1h-1zm-30 1h1v1h-1zm4 0h1v1h-1zm2 0h1v1h-1zm18 0h2v1h-2zm2 0h1v1h-1zm4 0h1v1h-1zm-29 1h1v1h-1zm28 0h1v1h-1zm-28 1h1v1h-1zm8 0h1v1h-1zm12 0h1v1h-1zm8 0h1v1h-1zm-27 1h1v1h-1zm6 0h1v1h-1zm7 0h1v12h-1zm6 0h1v1h-1zm1 0h1v1h-1zm6 0h1v1h-1zm-32 1h1v10h-1zm7 0h1v1h-1zm1 0h4v1h-4zm19 0h4v1h-4zm4 0h1v1h-1zm7 0h10v10H51z"/><path d="M31 51h3v8h-3zm-17 1h1v6h-1zm16 0h1v1h-1zm4 0h1v1h-1zm16 0h11v6H50zm-35 1h1v4h-1zm14 0h1v1h-1z"/><path d="M30 53h5v4h-5zm5 0h1v1h-1zm14 0h12v4H49zm-33 1h1v2h-1zm1 0h1v1h-1z"/><path d="M28 54h9v2h-9zm19 0h1v1h-1zm1 0h13v2H48zm-31 1h1v1h-1z"/><path d="M47 55h14v1H47zm-31 1h1v1h-1zm13 0h7v1h-7zm19 0h1v1h-1zm-18 1h1v1h-1zm4 0h1v1h-1zm-20 1h1v1h-1zm36 0h1v1h-1zm-29 1h3v1h-3zm3 0h1v1h-1zm16 0h1v1h-1zm1 0h3v1h-3zm-22 1h1v1h-1zm6 0h1v1h-1zm14 0h1v1h-1zm6 0h1v1h-1zm-27 1h1v1h-1zm8 0h1v1h-1zm12 0h1v1h-1zm8 0h1v1h-1zm-28 1h1v1h-1zm9 0h1v4h-1zm10 0h1v4h-1zm9 0h1v1h-1zm-25 1h1v1h-1zm1 0h2v3h-2zm19 0h2v3h-2zm2 0h1v1h-1zm-26 1h1v1h-1z"/><path d="M21 64h3v1h-3zm22 0h1v1h-1zm4 0h1v1h-1zm-29 2h1v1h-1zm9 0h1v1h-1zm10 0h1v1h-1zm9 0h1v1h-1zm-20 1h1v1h-1zm12 0h1v1h-1zm-18 1h1v1h-1zm5 0h1v1h-1zm7 0h1v16h-1zm7 0h1v1h-1zm5 0h1v1h-1zm-31 1h1v15h-1zm9 0h1v1h-1zm1 0h1v1h-1zm18 0h1v1h-1zm1 0h1v1h-1zm9 0h10v13H51zm-37 1h1v1h-1z"/><path d="M31 70h3v14h-3zm19 0h1v1h-1zm-36 1h1v13h-1zm1 0h1v1h-1z"/><path d="M30 71h5v13h-5zm20 0h11v11H50zm-35 1h1v12h-1zm1 0h1v1h-1z"/><path d="M29 72h7v12h-7zm19 0h1v1h-1zm1 0h12v10H49zm-33 1h2v11h-2zm11 0h1v1h-1z"/><path d="M28 73h9v11h-9zm9 0h1v1h-1zm10 0h14v9H47z"/><path d="M18 74h43v8H18zM3 81h1v1H3zm1 0h1v2H4zm58 0h1v1h-1zM3 82h1v1H3zm2 0h1v1H5zm1 0h54v1H6zm54 0h1v1h-1zm1 0h1v1h-1zm1 0h1v1h-1zM3 83h1v1H3zm1 0h1v1H4zm1 0h1v1H5zm1 0h1v1H6zm1 0h52v1H7zm52 0h1v1h-1zm1 0h1v1h-1zm1 0h1v1h-1zm1 0h1v1h-1zM5 84h1v1H5zm1 0h1v1H6zm1 0h1v1H7zm1 0h50v1H8zm50 0h1v1h-1zm1 0h1v1h-1zm1 0h1v1h-1z"/></g><path fill="#222" d="M21 18h1v1h-1zm1 0h1v1h-1zm20 0h1v1h-1zm1 0h1v1h-1zm-23 5h1v1h-1zm24 0h1v1h-1zm-28 8h1v1h-1zm32 0h1v1h-1zm-25 1h1v1h-1zm18 0h1v1h-1zM13 44h1v1h-1zm38 0h1v1h-1zm-33 8h1v1h-1zm28 0h1v1h-1zM14 62h1v1h-1zm36 0h1v1h-1z"/><path fill="#fcd" d="M23 41h1v1h-1zm18 0h1v1h-1zm-3 2h1v1h-1zm-11 5h1v1h-1zm-7 1h1v1h-1zm1 8h1v1h-1zm5 1h1v1h-1zm12 0h1v1h-1zm-18 1h1v1h-1zm24 0h1v1h-1zm-25 2h1v1h-1zm26 0h1v1h-1zm-21 3h1v1h-1zm16 0h1v1h-1zm-16 5h1v1h-1zm16 0h1v1h-1z"/><path fill="#c35" d="M23 49h1v1h-1zm-2 13h1v1h-1zm22 0h1v1h-1z"/><path fill="#110" d="M15 29h1v1h-1zm15 0h1v1h-1zm4 0h1v1h-1zm15 0h1v1h-1zm-33 1h1v1h-1zm13 0h1v1h-1zm6 0h1v1h-1zm13 0h1v1h-1zm-21 1h1v1h-1zm10 0h1v1h-1zM15 50h1v1h-1zm15 0h1v1h-1zm4 0h1v1h-1zm15 0h1v1h-1zm-33 1h1v1h-1zm13 0h1v1h-1zm6 0h1v1h-1zm13 0h1v1h-1zm-31 1h1v1h-1zm30 0h1v1h-1zm-29 1h1v1h-1zm9 0h1v1h-1zm10 0h1v1h-1zm9 0h1v1h-1zM30 68h1v1h-1zm4 0h1v1h-1zm-19 1h1v1h-1zm14 0h1v1h-1zm6 0h1v1h-1zm14 0h1v1h-1zm-33 1h1v1h-1zm12 0h1v1h-1zm1 0h1v1h-1zm6 0h1v1h-1zm1 0h1v1h-1zm12 0h1v1h-1zm-30 1h1v1h-1zm28 0h1v1h-1zm-24 1h1v1h-1zm1 0h1v1h-1zm18 0h1v1h-1zm1 0h1v1h-1zm-19 1h1v1h-1zm18 0h1v1h-1z"/><path fill="#100" d="M17 31h1v1h-1zm11 0h1v1h-1zm8 0h1v1h-1zm11 0h1v1h-1zm-29 1h3v1h-3zm7 0h2v1h-2zm13 0h2v1h-2zm6 0h3v1h-3zm-23 1h4v1h-4zm19 0h4v1h-4zM28 52h1v1h-1zm8 0h1v1h-1zM17 71h1v1h-1zm10 0h1v1h-1zm10 0h1v1h-1zm10 0h1v1h-1zm-28 1h3v1h-3zm5 0h3v1h-3zm14 0h3v1h-3zm5 0h3v1h-3zm-21 1h1v1h-1zm20 0h1v1h-1z"/><path fill="#aaa" d="M0 2h1v1H0zm65 0h1v1h-1zM27 16h1v1h-1zm10 0h1v1h-1zm-23 3h1v1h-1zm36 0h1v1h-1zm-27 1h1v1h-1zm8 0h1v1h-1zm2 0h1v1h-1zm8 0h1v1h-1zm-9 2h1v1h-1zm-14 2h1v1h-1zm28 0h1v1h-1zm-31 2h1v1h-1zm34 0h1v1h-1zm-21 2h1v1h-1zm8 0h1v1h-1zm-14 3h1v1h-1zm1 0h1v1h-1zm18 0h1v1h-1zm1 0h1v1h-1zm-4 6h1v1h-1zm6 1h1v1h-1zm-29 1h1v1h-1zm34 0h1v1h-1zm-1 2h1v1h-1zm-35 1h1v1h-1zm38 0h1v1h-1zm-23 8h1v1h-1zm8 0h1v1h-1zm-9 1h1v1h-1zm10 0h1v1h-1zM16 68h1v1h-1zm32 0h1v1h-1zm-18 2h1v1h-1zm4 0h1v1h-1zm-10 1h1v1h-1zm5 0h1v1h-1zm6 0h1v1h-1zm5 0h1v1h-1zM1 86h1v1H1zm63 0h1v1h-1zM2 87h1v1H2zm1 0h1v1H3zm1 0h1v1H4zm1 0h56v1H5zm56 0h1v1h-1zm1 0h1v1h-1zm1 0h1v1h-1zM4 88h1v1H4zm1 0h56v1H5zm56 0h1v1h-1z"/><path fill="#dcc" d="M24 19h1v1h-1zm16 0h1v1h-1zm-21 8h1v1h-1zm26 0h1v1h-1zm-25 2h1v1h-1zm24 0h1v1h-1zM16 49h1v1h-1zm32 0h1v1h-1zm-30 2h1v1h-1zm28 0h1v1h-1zm-8 19h1v1h-1zm4 1h1v1h-1z"/><path fill="#544" d="M14 20h1v1h-1zm1 0h1v1h-1zm34 0h1v1h-1zm1 0h1v1h-1zm-22 1h1v1h-1zm2 0h1v1h-1zm4 0h1v1h-1zm2 0h1v1h-1zm-23 1h1v1h-1zm6 0h1v1h-1zm26 0h1v1h-1zm6 0h1v1h-1zm-25 1h1v1h-1zm12 0h1v1h-1zm-6 2h1v1h-1zm-16 1h1v1h-1zm5 0h1v1h-1zm22 0h1v1h-1zm5 0h1v1h-1zm-31 2h1v1h-1zm30 0h1v1h-1zm-25 2h1v1h-1zm1 0h1v1h-1zm2 0h1v1h-1zm14 0h1v1h-1zm2 0h1v1h-1zm1 0h1v1h-1zM15 41h1v1h-1zm34 0h1v1h-1zm-17 4h1v1h-1zm0 1h1v1h-1zm-2 1h1v1h-1zm4 0h1v1h-1zm-17 4h1v1h-1zm30 0h1v1h-1zm-18 1h1v1h-1zm6 0h1v1h-1zm-14 1h1v1h-1zm-2 3h1v1h-1zm26 0h1v1h-1zm-30 4h1v1h-1zm34 0h1v1h-1zm-19 1h1v1h-1zm4 0h1v1h-1zm-3 1h1v1h-1zm2 0h1v1h-1z"/><path fill="#443" d="M17 27h1v1h-1zm30 0h1v1h-1zM25 56h1v1h-1zm14 0h1v1h-1zm-25 4h1v1h-1zm36 0h1v1h-1zm-21 8h1v1h-1zm6 0h1v1h-1z"/><path fill="#e89" d="M20 39h1v1h-1zm24 0h1v1h-1zm-18 2h1v1h-1zm12 0h1v1h-1zm-10 4h1v1h-1zm8 0h1v1h-1zm-12 4h1v1h-1zm16 0h1v1h-1zm-18 3h1v1h-1zm1 0h1v1h-1zm18 0h1v1h-1zm1 0h1v1h-1zm-21 8h1v1h-1zm22 0h1v1h-1zm-15 4h1v1h-1zm8 0h1v1h-1zm3 3h1v1h-1zm-17 1h1v1h-1zm20 0h1v1h-1z"/><path fill="#c23" d="M45 40h1v1h-1zm-21 2h1v1h-1zm16 0h1v1h-1zm-17 1h1v1h-1zm5 0h1v1h-1zm8 0h1v1h-1zm5 0h1v1h-1zm-15 2h1v1h-1zm12 0h1v1h-1zm-14 2h1v1h-1zm16 0h1v1h-1zm-23 2h1v1h-1zm30 0h1v1h-1zm-29 1h1v1h-1zm2 8h1v1h-1zm1 0h1v1h-1zm22 0h1v1h-1zm1 0h1v1h-1zm-18 1h1v1h-1zm12 0h1v1h-1zm-11 1h1v1h-1zm10 0h1v1h-1zm-18 2h1v1h-1zm26 0h1v1h-1zm-25 1h1v1h-1zm24 0h1v1h-1zm-18 1h1v1h-1zm12 0h1v1h-1zm-10 2h1v1h-1zm8 0h1v1h-1zm7 0h1v1h-1zm-26 1h1v1h-1zm30 0h1v1h-1zm-28 2h1v1h-1zm26 0h1v1h-1zm-21 1h1v1h-1zm16 0h1v1h-1z"/><path fill="#ede" d="M47 59h1v1h-1z"/><path fill="#221" d="M23 18h1v1h-1zm18 0h1v1h-1zm-25 5h1v1h-1zm32 0h1v1h-1z"/><path fill="#332" d="M26 19h1v1h-1zm12 0h1v1h-1zM14 61h1v1h-1zm36 0h1v1h-1zm-19 2h1v1h-1zm2 0h1v1h-1z"/><path fill="#555" d="M23 22h1v1h-1zm8 0h1v1h-1zm2 0h1v1h-1zm8 0h1v1h-1zm-21 2h1v1h-1zm24 0h1v1h-1zm-29 3h1v1h-1zm34 0h1v1h-1zm-20 1h1v1h-1zm2 0h1v1h-1zm2 0h1v1h-1zm2 0h1v1h-1zm-18 4h1v1h-1zm30 0h1v1h-1zm-33 9h1v1h-1zm36 0h1v1h-1zm-37 2h1v1h-1zm38 0h1v1h-1zM32 65h1v1h-1zm5 5h1v1h-1z"/><path fill="#fde" d="M19 39h1v1h-1zm26 0h1v1h-1zm-23 1h1v1h-1zm2 17h1v1h-1zm16 0h1v1h-1z"/><path fill="#433" d="M24 18h1v1h-1zm16 0h1v1h-1zm-21 1h1v1h-1zm26 0h1v1h-1zm-17 3h1v1h-1zm8 0h1v1h-1zm-5 1h1v1h-1zm2 0h1v1h-1zm-20 3h1v1h-1zm38 0h1v1h-1zM14 42h1v1h-1zm36 0h1v1h-1zm-19 2h1v1h-1zm2 0h1v1h-1zm-2 5h1v1h-1zm2 0h1v1h-1zm-9 4h1v1h-1zm16 0h1v1h-1zm-15 2h1v1h-1zm-3 1h1v1h-1zm1 0h1v1h-1zm18 0h1v1h-1zm1 0h1v1h-1zm-29 6h1v1h-1zm38 0h1v1h-1zm-32 9h1v1h-1zm26 0h1v1h-1z"/><path fill="#edd" d="M30 39h1v1h-1zm4 0h1v1h-1zm-6 2h1v1h-1zm8 0h1v1h-1zM18 58h1v1h-1zm28 0h1v1h-1zm-17 3h1v1h-1zm6 0h1v1h-1zm-20 2h1v1h-1zm34 0h1v1h-1z"/><path fill="#e9a" d="M18 40h1v1h-1zm6 0h1v1h-1zm16 0h1v1h-1zm6 0h1v1h-1zm-17 7h1v1h-1zm6 0h1v1h-1zm-14 5h1v1h-1zm22 0h1v1h-1zm-18 7h1v1h-1zm2 0h1v1h-1zm10 0h1v1h-1zm-15 3h1v1h-1zm20 0h1v1h-1zm-18 1h1v1h-1zm16 0h1v1h-1zm-23 3h1v1h-1zm30 0h1v1h-1zm-10 1h1v1h-1zm-14 1h1v1h-1zm18 0h1v1h-1zm-21 1h1v1h-1zm24 0h1v1h-1z"/><path fill="#fdd" d="M23 40h1v1h-1zm4 0h1v1h-1zm10 0h1v1h-1zm4 0h1v1h-1zm1 0h1v1h-1zm-23 1h1v1h-1zm26 0h1v1h-1zm-29 1h1v1h-1zm2 0h1v1h-1zm28 0h1v1h-1zm2 0h1v1h-1zm-19 1h1v1h-1zm6 0h1v1h-1zm-18 1h2v1h-2zm29 0h1v1h-1zm1 0h1v1h-1zm-10 4h1v1h-1zm6 9h1v1h-1zm-17 3h1v1h-1zm12 0h1v1h-1z"/><path fill="#d77" d="M29 45h1v1h-1zm6 0h1v1h-1zm-16 5h1v1h-1zm9 15h1v1h-1zm8 0h1v1h-1zm-11 5h1v1h-1z"/><path fill="#d89" d="M28 49h1v1h-1zm8 0h1v1h-1zm2 2h1v1h-1z"/><path fill="#988" d="M15 18h1v1h-1zm10 0h1v1h-1zm14 0h1v1h-1zm10 0h1v1h-1zm-20 5h1v1h-1zm6 0h1v1h-1zm-8 6h1v1h-1zm10 0h1v1h-1zm-20 9h1v1h-1zm1 0h1v1h-1zm1 0h1v1h-1zm8 0h1v1h-1zm10 0h1v1h-1zm8 0h1v1h-1zm1 0h1v1h-1zm1 0h1v1h-1zM16 57h1v1h-1zm32 0h1v1h-1zm-34 2h1v1h-1zm36 0h1v1h-1zM19 73h1v1h-1zm26 0h1v1h-1z"/><path fill="#777" d="M16 18h1v1h-1zm1 0h1v1h-1zm11 0h2v1h-2zm7 0h2v1h-2zm12 0h1v1h-1zm1 0h1v1h-1zm-30 1h1v1h-1zm28 0h1v1h-1zm-29 1h1v1h-1zm12 0h1v1h-1zm6 0h1v1h-1zm12 0h1v1h-1zm-19 3h1v1h-1zm8 0h1v1h-1zm-7 1h1v1h-1zm6 0h1v1h-1zm-3 2h1v1h-1zm-19 1h1v1h-1zm38 0h1v1h-1zm-28 1h1v1h-1zm18 0h1v1h-1zm-14 2h1v1h-1zm10 0h1v1h-1zm-8 1h1v1h-1zm6 0h1v1h-1zm-19 8h1v1h-1zm1 0h1v1h-1zm11 0h1v1h-1zm8 0h1v1h-1zm11 0h1v1h-1zm1 0h1v1h-1zm-18 1h1v1h-1zm4 0h1v1h-1zm-3 2h1v1h-1zm2 0h1v1h-1zm-3 2h1v1h-1zm4 0h1v1h-1zm-4 2h1v1h-1zm4 0h1v1h-1zm-7 10h1v1h-1zm10 0h1v1h-1zm-10 1h1v1h-1zm10 0h1v1h-1zm-22 4h1v1h-1zm34 0h1v1h-1zM0 84h1v1H0zm65 0h1v1h-1zM0 85h1v1H0zm65 0h1v1h-1zM0 86h1v1H0zm65 0h1v1h-1zM0 87h1v1H0zm65 0h1v1h-1z"/><path fill="#333" d="M14 21h1v1h-1zm3 0h1v1h-1zm30 0h1v1h-1zm3 0h1v1h-1zm-31 5h1v1h-1zm26 0h1v1h-1zm-24 4h1v1h-1zm22 0h1v1h-1zm-17 1h1v1h-1zm12 0h1v1h-1zm-13 2h1v1h-1zm14 0h1v1h-1zM13 47h1v1h-1zm38 0h1v1h-1zm-32 7h1v1h-1zm26 0h1v1h-1zm-25 2h1v1h-1zm24 0h1v1h-1zM30 66h1v1h-1zm4 0h1v1h-1zm-7 6h1v1h-1zm10 0h1v1h-1z"/><path fill="#887" d="M28 25h1v1h-1zm8 0h1v1h-1z"/><path fill="#322" d="M27 20h1v1h-1zm10 0h1v1h-1zm-23 2h1v1h-1zm7 0h1v1h-1zm22 0h1v1h-1zm7 0h1v1h-1zm-24 2h1v1h-1zm12 0h1v1h-1zm-18 1h1v1h-1zm24 0h1v1h-1zm-24 2h1v1h-1zm8 0h1v1h-1zm8 0h1v1h-1zm8 0h1v1h-1zm-17 1h1v1h-1zm10 0h1v1h-1zm-21 1h1v1h-1zm10 0h1v1h-1zm12 0h1v1h-1zm10 0h1v1h-1zm-33 1h1v1h-1zm2 0h1v1h-1zm3 0h1v1h-1zm24 0h1v1h-1zm3 0h1v1h-1zm2 0h1v1h-1zm-27 2h1v1h-1zm20 0h1v1h-1zM14 43h1v1h-1zm36 0h1v1h-1zM17 53h1v1h-1zm30 0h1v1h-1zm-27 2h1v1h-1zm24 0h1v1h-1zm-23 1h1v1h-1zm3 0h1v1h-1zm16 0h1v1h-1zm3 0h1v1h-1zM24 73h1v1h-1zm16 0h1v1h-1z"/><path fill="#877" d="M30 23h1v1h-1zm4 0h1v1h-1zm-5 16h1v1h-1zm6 0h1v1h-1zm-3 5h1v1h-1zM17 57h1v1h-1zm9 0h1v1h-1zm2 0h1v1h-1zm8 0h1v1h-1zm2 0h1v1h-1zm9 0h1v1h-1zm-32 1h1v1h-1zm2 0h1v1h-1zm30 0h1v1h-1zm2 0h1v1h-1zm-19 5h1v1h-1zm4 0h1v1h-1zm-2 3h1v1h-1zm-18 3h1v1h-1zm36 0h1v1h-1z"/><path fill="#e88" d="M17 43h1v1h-1zm30 0h1v1h-1zM29 63h1v1h-1zm6 0h1v1h-1z"/><path fill="#c66" d="M27 50h1v1h-1zm10 0h1v1h-1z"/><path fill="#999" d="M0 3h1v1H0zm65 0h1v1h-1zM0 4h1v1H0zm65 0h1v1h-1zM20 16h1v1h-1zm1 0h1v1h-1zm2 0h1v1h-1zm1 0h1v1h-1zm1 0h1v1h-1zm14 0h1v1h-1zm1 0h1v1h-1zm1 0h1v1h-1zm2 0h1v1h-1zm1 0h1v1h-1zm-25 1h1v1h-1zm26 0h1v1h-1zm-18 1h1v1h-1zm10 0h1v1h-1zm-15 2h1v1h-1zm20 0h1v1h-1zm-29 1h1v1h-1zm12 0h1v1h-1zm14 0h1v1h-1zm12 0h1v1h-1zm-23 3h1v1h-1zm8 0h1v1h-1zm-10 2h1v1h-1zm12 0h1v1h-1zm-13 3h1v1h-1zm14 0h1v1h-1zm-14 2h1v1h-1zm14 0h1v1h-1zm-18 6h1v1h-1zm1 0h1v1h-1zm1 0h1v1h-1zm18 0h1v1h-1zm1 0h1v1h-1zm1 0h1v1h-1zm-15 1h1v1h-1zm8 0h1v1h-1zM19 52h1v1h-1zm26 0h1v1h-1zm-27 2h1v1h-1zm28 0h1v1h-1zm-20 1h1v1h-1zm12 0h1v1h-1zm-21 1h1v1h-1zm30 0h1v1h-1zm-2 1h1v1h-1zm-14 3h1v1h-1zm-16 6h1v1h-1zm34 0h1v1h-1zm-31 4h1v1h-1zm28 0h1v1h-1zM3 88h1v1H3zm59 0h1v1h-1z"/><path fill="#baa" d="M25 17h1v1h-1zm14 0h1v1h-1zm-24 5h1v1h-1zm34 0h1v1h-1zm-32 4h1v1h-1zm12 0h1v1h-1zm6 0h1v1h-1zm12 0h1v1h-1zM22 36h1v1h-1zm20 0h1v1h-1zm-24 1h1v1h-1zm28 0h1v1h-1zm-26 1h1v1h-1zm-2 1h1v1h-1zm28 0h1v1h-1zm-30 2h1v1h-1z"/><path fill="#655" d="M15 19h1v1h-1zm14 0h1v1h-1zm6 0h1v1h-1zm14 0h1v1h-1zm-19 1h1v1h-1zm4 0h1v1h-1zm-18 2h1v1h-1zm14 0h1v1h-1zm4 0h1v1h-1zm14 0h1v1h-1zM19 33h1v1h-1zm26 0h1v1h-1zm-15 8h1v1h-1zm4 0h1v1h-1zm-19 1h1v1h-1zm34 0h1v1h-1zm-18 1h1v1h-1zm2 0h1v1h-1zm-7 9h1v1h-1zm12 0h1v1h-1zm-15 1h1v1h-1zm18 0h1v1h-1zm-15 1h1v1h-1zm12 0h1v1h-1zm-12 2h1v1h-1zm12 0h1v1h-1zm-23 3h1v1h-1zm14 0h1v1h-1zm6 0h1v1h-1zm14 0h1v1h-1zm-19 1h1v1h-1zm4 0h1v1h-1z"/><path fill="#666" d="M16 19h1v1h-1zm32 0h1v1h-1zm-33 2h1v1h-1zm34 0h1v1h-1zm-24 6h1v1h-1zm14 0h1v1h-1zm-17 1h1v1h-1zm20 0h1v1h-1zM29 40h1v1h-1zm6 0h1v1h-1zm-6 1h1v1h-1zm6 0h1v1h-1zm-3 6h1v1h-1zm-19 1h1v1h-1zm38 0h1v1h-1zm-21 3h1v1h-1zm4 0h1v1h-1zm-12 2h1v1h-1zm20 0h1v1h-1zm-24 3h1v1h-1zm28 0h1v1h-1zm-16 3h1v1h-1zm4 0h1v1h-1zm-3 2h1v1h-1zm2 0h1v1h-1zm-3 1h1v1h-1zm2 1h1v1h-1zm-1 5h1v1h-1zm2 0h1v1h-1zm-5 1h1v1h-1zm8 0h1v1h-1zm-11 2h1v1h-1zm14 0h1v1h-1zm-14 2h1v1h-1zm14 0h1v1h-1zM0 88h1v1H0zm1 0h1v1H1zm63 0h1v1h-1zm1 0h1v1h-1zM1 89h1v1H1zm1 0h1v1H2zm1 0h1v1H3zm1 0h58v1H4zm58 0h1v1h-1zm1 0h1v1h-1zm1 0h1v1h-1z"/><path fill="#ecd" d="M20 52h1v1h-1zm24 0h1v1h-1z"/><path fill="#c13" d="M19 40h1v1h-1zm-2 2h1v1h-1zm30 0h1v1h-1zm-31 2h1v1h-1zm32 0h1v1h-1zm-29 3h1v1h-1zm26 0h1v1h-1zm1 3h1v1h-1zm-21 1h1v1h-1zm14 0h1v1h-1zm-15 7h1v1h-1zm16 0h1v1h-1zm-20 3h1v1h-1zm24 0h1v1h-1zm-23 5h1v1h-1zm5 3h1v1h-1zm12 0h1v1h-1z"/><path fill="#eaa" d="M16 61h1v1h-1zm32 0h1v1h-1zm-30 3h1v1h-1zm28 0h1v1h-1z"/><path fill="#eee" d="M3 1h1v1H3zm59 0h1v1h-1zM2 2h1v1H2zm61 0h1v1h-1zM1 3h1v1H1zm63 0h1v1h-1zM1 4h1v1H1zm63 0h1v1h-1zM1 5h1v1H1zm63 0h1v1h-1zM2 6h1v1H2zm61 0h1v1h-1zM2 7h1v1H2zm61 0h1v1h-1zM2 8h1v74H2zm61 0h1v74h-1zm-37 7h1v1h-1zm12 0h1v1h-1zm-10 1h1v1h-1zm8 0h1v1h-1zm-15 1h1v1h-1zm1 0h1v1h-1zm1 0h1v1h-1zm18 0h1v1h-1zm1 0h1v1h-1zm1 0h1v1h-1zm-17 1h1v1h-1zm12 0h1v1h-1zm-17 1h1v1h-1zm22 0h1v1h-1zm-30 1h1v1h-1zm6 0h1v1h-1zm5 0h1v1h-1zm16 0h1v1h-1zm5 0h1v1h-1zm6 0h1v1h-1zm-33 1h1v1h-1zm1 0h1v1h-1zm13 0h1v1h-1zm13 0h1v1h-1zm1 0h1v1h-1zm-29 2h1v1h-1zm4 0h1v1h-1zm22 0h1v1h-1zm4 0h1v1h-1zm-32 1h1v1h-1zm34 0h1v1h-1zm-32 1h1v1h-1zm30 0h1v1h-1zm-27 3h1v1h-1zm24 0h1v1h-1zm-30 2h1v1h-1zm36 0h1v1h-1zm-34 2h1v1h-1zm32 0h1v1h-1zm-21 1h1v1h-1zm10 0h1v1h-1zm-13 1h1v1h-1zm16 0h1v1h-1zm-21 2h1v1h-1zm26 0h1v1h-1zm-16 2h1v1h-1zm6 0h1v1h-1zm-20 7h1v1h-1zm34 0h1v1h-1zM27 55h1v1h-1zm10 0h1v1h-1zm-22 2h1v1h-1zm34 0h1v1h-1zm-32 2h1v1h-1zm14 0h1v1h-1zm2 0h1v1h-1zm-1 2h1v1h-1zm-17 3h1v1h-1zm34 0h1v1h-1zm-36 4h1v1h-1zm38 0h1v1h-1zm-20 1h1v1h-1zm2 0h1v1h-1zm16 2h1v1h-1zm-31 2h1v1h-1zm28 0h1v1h-1zM2 82h1v1H2zm61 0h1v1h-1zM2 83h1v1H2zm61 0h1v1h-1zM3 84h1v1H3zm1 0h1v1H4zm57 0h1v1h-1zm1 0h1v1h-1zM9 85h48v1H9z"/><path fill="#888" d="M0 5h1v1H0zm65 0h1v1h-1zM0 6h1v1H0zm65 0h1v1h-1zM0 7h1v1H0zm65 0h1v1h-1zM0 8h1v73H0zm65 0h1v73h-1zm-48 9h1v1h-1zm1 0h1v1h-1zm8 0h1v1h-1zm1 0h2v1h-2zm9 0h2v1h-2zm2 0h1v1h-1zm8 0h1v1h-1zm1 0h1v1h-1zm-23 6h1v1h-1zm16 0h1v1h-1zm-10 1h1v1h-1zm4 0h1v1h-1zm-5 1h1v1h-1zm6 0h1v1h-1zm-12 1h1v1h-1zm18 0h1v1h-1zm-13 3h1v1h-1zm8 0h1v1h-1zm-17 1h1v1h-1zm11 0h1v1h-1zm4 0h1v1h-1zm11 0h1v1h-1zm-19 3h1v1h-1zm12 0h1v1h-1zm-12 5h1v1h-1zm12 0h1v1h-1zm-11 1h1v1h-1zm10 0h1v1h-1zm-9 1h1v1h-1zm8 0h1v1h-1zm-6 5h1v1h-1zm4 0h1v1h-1zm-5 15h1v1h-1zm6 0h1v1h-1zm-22 1h1v1h-1zm38 0h1v1h-1zm-21 3h1v1h-1zm4 0h1v1h-1zm-21 3h1v1h-1zm38 0h1v1h-1zm-31 4h1v1h-1zm24 0h1v1h-1zm-27 1h1v1h-1zm30 0h1v1h-1zM0 81h1v2H0zm65 0h1v2h-1zM0 83h1v1H0zm65 0h1v1h-1zM1 87h1v1H1zm63 0h1v1h-1zM2 88h1v1H2zm61 0h1v1h-1z"/><path fill="#554" d="M18 20h1v1h-1zm28 0h1v1h-1zm-27 9h1v1h-1zm26 0h1v1h-1zM30 42h1v1h-1zm4 0h1v1h-1zm-4 1h1v1h-1zm4 0h1v1h-1zm9 10h1v1h-1zM27 70h1v1h-1z"/><g fill="#211"><path d="M21 21h3v1h-3zm3 0h1v1h-1zm16 0h1v1h-1zm1 0h3v1h-3zm-21 1h1v1h-1zm4 0h2v1h-2zm15 0h2v1h-2zm5 0h1v1h-1zm-31 1h1v1h-1zm1 0h1v1h-1zm5 0h1v3h-1zm6 0h1v4h-1zm14 0h1v4h-1zm6 0h1v3h-1zm5 0h1v1h-1zm1 0h1v1h-1zm-38 1h1v1h-1zm1 0h1v1h-1zm2 0h1v1h-1zm15 0h1v1h-1zm2 0h1v1h-1zm15 0h1v1h-1zm2 0h1v1h-1zm1 0h1v1h-1zm-38 1h1v1h-1zm1 0h1v1h-1zm2 0h1v1h-1zm15 0h1v1h-1zm2 0h1v1h-1zm15 0h1v1h-1zm2 0h1v1h-1zm1 0h1v1h-1zm-31 1h1v1h-1zm4 0h1v1h-1zm16 0h1v1h-1zm4 0h1v1h-1zm-23 1h4v1h-4zm19 0h4v1h-4zm-16 3h1v1h-1zm16 0h1v1h-1zm-19 2h1v1h-1zm6 0h1v1h-1zm10 0h1v1h-1zm6 0h1v1h-1zm-23 1h1v1h-1zm24 0h1v1h-1zM14 44h1v1h-1zm36 0h1v1h-1zm-37 1h1v2h-1zm1 0h1v1h-1zm17 0h1v1h-1zm2 0h1v1h-1zm17 0h1v1h-1zm1 0h1v2h-1zm-37 1h1v1h-1zm17 0h1v1h-1zm2 0h1v1h-1z"/><path d="M50 46h2v1h-2zm-20 2h1v1h-1zm4 0h1v1h-1zm-19 1h1v1h-1zm34 0h1v1h-1zm-34 2h1v1h-1zm13 0h1v1h-1zm8 0h1v1h-1zm13 0h1v1h-1zm-29 2h1v1h-1zm24 0h1v1h-1zm-24 1h1v1h-1zm1 0h1v1h-1zm1 0h2v1h-2zm2 0h1v1h-1zm1 0h1v1h-1zm14 0h1v1h-1zm1 0h1v1h-1zm1 0h2v1h-2zm2 0h1v1h-1zm1 0h1v1h-1zm-23 1h1v1h-1zm1 0h2v1h-2zm2 0h1v1h-1zm16 0h1v1h-1zm1 0h2v1h-2zm2 0h1v1h-1zm-30 8h1v1h-1zm1 0h1v1h-1zm36 0h1v1h-1zm1 0h1v1h-1zm-38 1h1v1h-1zm1 0h1v1h-1zm17 0h1v1h-1zm2 0h1v1h-1zm17 0h1v1h-1zm1 0h1v1h-1zm-38 1h1v1h-1zm1 0h1v1h-1zm17 0h1v1h-1zm2 0h1v1h-1zm17 0h1v1h-1zm1 0h1v1h-1zm-35 4h1v1h-1zm14 0h1v1h-1zm4 0h1v1h-1zm14 0h1v1h-1zm-31 1h1v1h-1zm30 0h1v1h-1zm-21 1h1v1h-1zm12 0h1v1h-1zm-17 2h1v1h-1zm22 0h1v1h-1z"/></g><path fill="#bba" d="M22 15h2v1h-2zm19 0h2v1h-2zM23 36h1v1h-1zm18 0h1v1h-1z"/><path fill="#d78" d="M27 42h1v1h-1zm10 0h1v1h-1zm-8 4h1v1h-1zm6 0h1v1h-1zm-9 1h1v1h-1zm12 0h1v1h-1zm7 3h1v1h-1zm-23 1h1v1h-1zm20 0h1v1h-1zM23 62h1v1h-1zm18 0h1v1h-1zm-13 1h1v1h-1zm8 0h1v1h-1zm-12 2h1v1h-1z"/><path fill="#d56" d="M28 42h1v1h-1zm8 0h1v1h-1zm-17 1h1v1h-1zm5 1h1v1h-1zm2 0h1v1h-1zm12 0h1v1h-1zm2 0h1v1h-1zm-19 5h1v1h-1zm22 0h1v1h-1zm-22 2h1v1h-1zm22 0h1v1h-1zm-18 7h1v1h-1zm14 0h1v1h-1zm-17 2h1v1h-1zm20 0h1v1h-1zm-17 1h1v1h-1zm-8 7h1v1h-1zm30 0h1v1h-1z"/><path fill="#c12" d="M25 43h1v1h-1zm14 0h1v1h-1zm-19 1h1v1h-1zm24 0h1v1h-1zm-24 4h1v1h-1zm8 0h1v1h-1zm8 0h1v1h-1zm8 0h1v1h-1zm-24 3h1v1h-1zm24 0h1v1h-1zM24 62h1v1h-1zm16 0h1v1h-1zm-24 1h1v1h-1zm32 0h1v1h-1zm-32 2h1v1h-1zm4 0h1v1h-1zm24 0h1v1h-1zm4 0h1v1h-1zm-24 2h1v1h-1zm16 0h1v1h-1zm-13 1h1v1h-1zm10 0h1v1h-1zm-16 2h1v1h-1zm1 0h1v1h-1zm1 0h1v1h-1zm18 0h1v1h-1zm1 0h1v1h-1zm1 0h1v1h-1z"/></svg>