<svg xmlns="http://www.w3.org/2000/svg" baseProfile="tiny" version="1.2" viewBox="0 0 66 90"><g fill="#fff"><path d="M4 1h1v1H4zm1 0h1v1H5zm1 0h54v1H6zm54 0h1v1h-1zm1 0h1v1h-1zM3 2h1v1H3zm1 0h1v1H4zm1 0h56v1H5zm56 0h1v1h-1zm1 0h1v1h-1zM2 3h1v1H2zm1 0h1v1H3zm1 0h2v1H4zm2 0h54v1H6zm54 0h2v1h-2zm2 0h1v1h-1zm1 0h1v1h-1zM2 4h1v2H2zm1 0h1v3H3zm1 0h1v1H4zm1 0h56v7H5zm56 0h1v1h-1zm1 0h1v3h-1zm1 0h1v2h-1z"/><path d="M4 5h58v2H4zM3 7h1v1H3zm1 0h1v1H4zm57 0h1v1h-1zm1 0h1v1h-1zM3 8h1v73H3zm1 0h1v73H4zm57 0h1v74h-1zm1 0h1v73h-1zM5 11h7v1H5zm15 0h1v1h-1zm1 0h40v1H21zM5 12h5v1H5zm5 0h1v1h-1zm12 0h1v1h-1zm1 0h38v1H23zM5 13h4v1H5zm18 0h1v1h-1zm1 0h37v1H24zM5 14h3v2H5zm19 0h1v1h-1zm1 0h36v2H25zm-10 1h2v1h-2zm2 0h1v1h-1zM5 16h2v66H5zm8 0h1v1h-1zm6 0h1v1h-1zm6 0h1v1h-1zm1 0h35v1H26zm-14 1h1v1h-1zm8 0h1v1h-1zm6 0h4v1h-4zm4 0h1v1h-1zm4 0h1v1h-1zm1 0h26v1H35zm-15 1h1v1h-1zm6 0h2v1h-2zm11 0h1v1h-1zm1 0h23v1H38zm-27 1h1v2h-1zm4 0h2v2h-2zm2 0h1v1h-1zm9 0h1v1h-1zm13 0h22v1H39zm-22 1h1v1h-1zm23 0h21v1H40zm-24 1h1v1h-1zm25 0h20v1H41zm-29 1h1v1h-1zm8 0h1v1h-1zm10 0h1v1h-1zm1 0h3v1h-3zm3 0h1v1h-1zm7 0h1v1h-1zm1 0h19v2H42zm-29 1h1v1h-1zm6 0h1v1h-1zm10 0h1v1h-1zm6 0h1v1h-1zM7 24h1v1H7zm7 0h1v1h-1zm1 0h1v1h-1zm1 0h1v1h-1zm1 0h1v1h-1zm1 0h1v1h-1zm10 0h1v1h-1zm8 0h1v1h-1zm6 0h6v1h-6zm6 0h1v1h-1zm1 0h12v1H49zM7 25h1v59H7zm25 0h1v1h-1zm10 0h2v1h-2zm2 0h1v1h-1zm9 0h8v1h-8zM8 26h1v58H8zm23 0h3v1h-3zm6 0h1v1h-1zm5 0h1v1h-1zm13 0h6v1h-6zM9 27h1v57H9zm22 0h1v1h-1zm1 0h2v1h-2zm5 0h1v1h-1zm19 0h5v1h-5zm-46 1h1v56h-1zm1 0h1v1h-1zm10 0h2v14h-2zm36 0h4v2h-4zm-46 1h3v18h-3zm7 0h1v1h-1z"/><path d="M19 29h4v13h-4zm9 0h1v1h-1zm8 0h1v1h-1zm11 0h1v1h-1zm1 0h2v1h-2z"/><path d="M14 30h9v12h-9zm9 0h1v1h-1zm6 0h1v1h-1zm6 0h1v1h-1zm10 0h1v1h-1zm6 0h1v1h-1zm7 0h3v52h-3zm-35 1h1v11h-1zm8 0h3v1h-3zm13 0h1v1h-1zm8 0h1v1h-1zm-28 1h1v1h-1zm20 0h1v1h-1zm-20 1h1v9h-1zm23 0h1v1h-1zm1 0h2v2h-2zm5 0h1v2h-1zm-28 1h1v8h-1zm1 0h1v1h-1z"/><path d="M47 34h3v1h-3zm-21 1h2v7h-2zm11 0h2v7h-2zm11 0h1v1h-1zm-20 1h4v7h-4zm4 0h1v1h-1z"/><path d="M33 36h6v6h-6zm11 0h1v1h-1zm8 0h1v1h-1z"/><path d="M32 37h7v5h-7zm7 0h1v1h-1zm6 0h1v1h-1zm6 0h1v1h-1zm-12 1h1v4h-1zm8 0h3v1h-3zm3 0h1v1h-1zm7 0h1v1h-1zm-17 1h1v1h-1zm17 0h4v43h-4zm-17 1h1v2h-1z"/><path d="M56 40h5v42h-5zm-15 1h1v1h-1z"/><path d="M55 41h6v41h-6zm-41 1h4v1h-4zm4 0h1v1h-1zm8 0h1v1h-1zm1 0h10v1H27zm26 0h1v1h-1z"/><path d="M54 42h7v40h-7zm-40 1h2v1h-2zm2 0h1v1h-1zm12 0h1v1h-1zm1 0h6v1h-6z"/><path d="M51 43h10v39H51zm-37 1h1v1h-1zm1 0h1v1h-1zm14 0h1v1h-1zm1 0h4v1h-4z"/><path d="M48 44h13v1H48zm-34 1h1v1h-1zm16 0h1v1h-1zm1 0h2v1h-2zm18 0h12v1H49zm-27 1h1v1h-1zm9 0h1v1h-1zm1 0h1v1h-1zm8 0h1v1h-1zm1 0h1v1h-1zm8 0h1v1h-1zm1 0h11v3H50zm-39 1h2v37h-2zm2 0h1v1h-1zm6 0h1v1h-1zm6 0h1v1h-1zm6 0h1v1h-1zm7 0h1v1h-1zm5 0h1v1h-1zm-25 1h1v1h-1zm8 0h1v1h-1zm11 0h1v1h-1zm7 0h1v1h-1zm-8 1h1v1h-1zm9 0h1v1h-1zm-24 1h1v1h-1zm1 0h1v3h-1zm1 0h1v1h-1zm13 0h1v1h-1zm4 0h2v2h-2zm5 0h1v3h-1zm-28 1h1v1h-1z"/><path d="M21 51h3v1h-3zm15 0h1v1h-1zm0 1h1v1h-1zm4 0h1v1h-1zm1 0h1v1h-1zm-23 1h1v1h-1zm8 0h1v1h-1zm10 0h1v1h-1zm14 0h1v1h-1zm-13 1h1v1h-1zm7 0h1v1h-1zm6 0h11v12H50zm-37 1h1v1h-1zm7 0h1v1h-1zm4 0h1v1h-1zm7 0h1v10h-1zm7 0h1v1h-1zm1 0h1v1h-1zm3 0h1v1h-1zm-29 1h1v9h-1zm19 0h1v1h-1z"/><path d="M49 56h12v8H49zm-35 1h1v6h-1zm16 0h3v6h-3zm18 0h1v1h-1zm-33 1h1v4h-1z"/><path d="M29 58h5v4h-5zm18 0h1v1h-1zm1 0h13v4H48zm-32 1h1v2h-1z"/><path d="M28 59h7v2h-7zm7 0h1v1h-1zm11 0h15v2H46zm-29 1h1v1h-1zm10 0h1v1h-1zm8 0h1v1h-1zm-1 1h1v1h-1zm13 0h1v1h-1zm-14 1h1v1h-1zm15 0h1v1h-1zm-16 1h1v1h-1zm-12 1h1v1h-1zm1 0h1v1h-1zm1 0h1v1h-1zm1 0h1v1h-1zm1 0h1v1h-1zm15 0h1v1h-1zm1 0h1v1h-1zm1 0h1v1h-1zm1 0h1v1h-1zm-23 1h1v1h-1zm6 0h1v1h-1zm12 0h1v1h-1zm7 0h1v1h-1zm-26 1h1v1h-1zm8 0h1v1h-1zm24 0h1v1h-1zm-28 1h1v1h-1zm14 0h1v1h-1zm9 0h1v3h-1zm-28 1h1v1h-1zm4 0h3v2h-3zm15 0h1v1h-1zm4 0h2v2h-2zm-4 1h1v1h-1zm0 1h1v1h-1zm9 0h1v1h-1zm-27 1h1v1h-1zm8 0h1v1h-1zm24 0h1v1h-1zm-31 1h1v1h-1zm6 0h1v1h-1zm18 0h1v1h-1zm7 0h11v10H50zm-37 1h1v11h-1zm8 0h3v1h-3zm10 0h1v11h-1zm8 0h1v1h-1zm1 0h2v1h-2zm2 0h1v1h-1zm-28 1h1v1h-1zm16 0h1v1h-1zm2 0h1v10h-1z"/><path d="M49 74h12v8H49zm-35 1h1v9h-1zm16 0h4v9h-4z"/><path d="M48 75h13v7H48zm-33 1h1v8h-1zm1 0h1v1h-1zm12 0h1v1h-1zm1 0h6v8h-6z"/><path d="M47 76h14v6H47zm-31 1h2v7h-2zm11 0h9v7h-9zm9 0h1v1h-1zm9 0h1v1h-1z"/><path d="M46 77h15v5H46z"/><path d="M18 78h43v4H18zM3 81h1v1H3zm1 0h1v2H4zm58 0h1v1h-1zM3 82h1v1H3zm2 0h1v1H5zm1 0h54v1H6zm54 0h1v1h-1zm1 0h1v1h-1zm1 0h1v1h-1zM3 83h1v1H3zm1 0h1v1H4zm1 0h1v1H5zm1 0h1v1H6zm12 0h41v1H18zm41 0h1v1h-1zm1 0h1v1h-1zm1 0h1v1h-1zm1 0h1v1h-1zM5 84h1v1H5zm1 0h1v1H6zm1 0h1v1H7zm1 0h50v1H8zm50 0h1v1h-1zm1 0h1v1h-1zm1 0h1v1h-1z"/></g><path fill="#554" d="M14 12h1v1h-1zm18 11h1v1h-1zm13 4h1v1h-1zm-26 1h1v1h-1zm24 8h1v1h-1z"/><path fill="#222" d="M17 14h1v1h-1zm-5 1h1v1h-1zm5 7h1v1h-1zm11 0h1v1h-1zm-13 1h1v1h-1zm8 1h1v1h-1zm11 0h1v1h-1zm-11 1h1v1h-1zm15 0h1v1h-1zm-27 2h1v1h-1zm41 2h1v1h-1zm1 1h1v1h-1zm-27 1h1v1h-1zm18 10h1v1h-1zm2 4h1v1h-1zm-14 5h1v1h-1zm-17 4h1v1h-1zm12 4h1v1h-1zm11 2h1v1h-1zm1 1h1v1h-1zm9 5h1v1h-1zM36 76h1v1h-1zm3 1h1v1h-1zm3 0h1v1h-1z"/><path fill="#776" d="M11 17h1v1h-1zm12 1h1v1h-1zm3 2h1v1h-1zm25 19h1v1h-1zm-34 5h1v1h-1zm16 2h1v1h-1zM17 61h1v1h-1zm-1 1h1v1h-1z"/><path fill="#eab" d="M28 48h1v1h-1zm8 0h1v1h-1zm-10 2h1v1h-1zm21 2h1v1h-1zm-10 1h1v1h-1zm-20 2h1v1h-1zm23 1h1v1h-1zm1 0h1v1h-1zm-20 1h1v1h-1zm2 0h1v1h-1zm3 8h1v1h-1zm1 5h1v1h-1zm7 0h1v1h-1zm1 2h1v1h-1zm3 1h1v1h-1zm7 0h1v1h-1z"/><path fill="#d67" d="M38 48h1v1h-1zm-18 3h1v1h-1zm26 0h1v1h-1zm-11 1h1v1h-1zm0 2h1v1h-1zm10 0h1v1h-1zm-21 2h1v1h-1zm-7 10h1v1h-1zm2 0h1v1h-1zm25 1h1v1h-1zm-24 1h1v1h-1zm26 0h1v1h-1zm0 1h1v1h-1zm-20 4h1v1h-1zm-4 1h1v1h-1zm18 0h1v1h-1zm1 0h1v1h-1z"/><path fill="#d9a" d="M23 62h1v1h-1z"/><path fill="#999" d="M0 3h1v1H0zm65 0h1v1h-1zM0 4h1v1H0zm65 0h1v1h-1zm-50 7h1v1h-1zm1 0h1v1h-1zm3 3h1v1h-1zm3 2h1v1h-1zm8 2h1v1h-1zm4 0h1v1h-1zm-11 1h1v1h-1zm14 0h1v1h-1zm-23 1h1v1h-1zm-3 2h1v1h-1zm9 1h1v1h-1zm8 0h1v1h-1zm6 0h1v1h-1zm-8 1h1v1h-1zm-10 1h1v1h-1zm15 0h1v1h-1zm17 0h1v1h-1zm1 0h1v1h-1zm-4 3h1v1h-1zm-7 1h1v1h-1zm4 1h1v1h-1zm-7 2h1v1h-1zm6 1h1v1h-1zm0 1h1v1h-1zm9 0h1v1h-1zm3 2h1v1h-1zm-9 1h1v1h-1zm4 2h1v1h-1zm-5 3h1v1h-1zm9 0h1v1h-1zm-34 1h1v1h-1zm8 0h1v1h-1zm0 2h1v1h-1zm3 0h1v1h-1zm-1 2h1v1h-1zm-13 2h1v1h-1zm19 5h1v1h-1zm10 3h1v1h-1zm-5 1h1v1h-1zm3 0h1v1h-1zm-23 4h1v1h-1zm6 0h1v1h-1zm9 0h1v1h-1zm-2 3h1v1h-1zm-1 6h1v1h-1zm2 3h1v1h-1zm10 1h1v1h-1zM3 88h1v1H3zm59 0h1v1h-1z"/><path fill="#dcc" d="M19 11h1v1h-1zm8 20h1v1h-1zm0 12h1v1h-1zm10 2h1v1h-1zm7 0h1v1h-1zm6 7h1v1h-1zm-3 1h1v1h-1zm-12 2h1v1h-1zm11 0h1v1h-1zm-16 1h1v1h-1zm15 0h1v1h-1zm-20 1h1v1h-1zm-5 5h1v1h-1zm4 0h1v1h-1zm-8 3h1v1h-1zm12 0h1v1h-1zm6 1h1v1h-1zm0 5h1v1h-1zm-16 3h1v1h-1z"/><path fill="#544" d="M19 13h1v1h-1zm1 0h1v1h-1zm-10 1h1v1h-1zm10 1h1v1h-1zm3 0h1v1h-1zm1 1h1v1h-1zm0 3h1v1h-1zm0 1h1v1h-1zm-1 2h1v1h-1zm-1 2h1v1h-1zm3 0h1v1h-1zm2 0h1v1h-1zm-6 1h1v1h-1zm5 0h1v1h-1zm4 1h1v1h-1zm20 0h1v1h-1zm-34 1h1v1h-1zm5 0h1v1h-1zm9 0h1v1h-1zm24 1h1v1h-1zm-27 1h1v1h-1zm17 0h1v1h-1zm-7 3h1v1h-1zm11 9h1v1h-1zm-8 2h1v1h-1zm-22 1h1v1h-1zm17 1h1v1h-1zm-20 1h1v1h-1zm34 2h1v1h-1zm-16 2h1v1h-1zm0 6h1v1h-1zm2 2h1v1h-1zm-13 1h1v1h-1zm18 0h2v1h-2zm4 0h1v1h-1zm-19 1h1v1h-1zm20 1h1v1h-1zm-28 1h1v1h-1zm10 0h1v1h-1zm-11 1h1v1h-1zm11 0h1v1h-1zm1 0h1v1h-1zm-12 1h1v1h-1zm13 0h1v1h-1zm19 0h1v1h-1zm-15 1h1v1h-1zm-20 2h1v1h-1zm18 3h1v1h-1z"/><path fill="#877" d="M8 15h1v1H8zm20 4h1v1h-1zm9 5h1v1h-1zm-1 2h1v1h-1zm18 1h1v1h-1zm-19 2h1v1h-1zm16 2h1v1h-1zm-1 2h1v1h-1zm-9 2h1v1h-1zm-22 8h1v1h-1zm16 1h1v1h-1zm-4 5h1v1h-1zm-4 7h1v1h-1zm-7 2h1v1h-1zm4 0h1v1h-1zm2 1h1v1h-1zm23 6h1v1h-1zm0 7h1v1h-1zm-19 1h1v1h-1zm16 0h1v1h-1zm-21 4h1v1h-1z"/><path fill="#c24" d="M19 49h1v1h-1zm5 3h1v1h-1zm-3 1h1v1h-1zm2 0h1v1h-1zm15 13h1v1h-1z"/><path fill="#b02" d="M19 52h1v1h-1zm6 0h1v1h-1zm-1 1h1v1h-1zm14 0h1v1h-1zm5 0h1v1h-1zM21 66h1v1h-1zm1 0h1v1h-1zm1 0h1v1h-1zm17 0h1v1h-1zm1 0h1v1h-1zm-17 1h1v1h-1zm-8 1h1v1h-1zm9 1h1v1h-1zm-6 1h1v1h-1zm19 0h1v1h-1zm5 0h1v1h-1zm-23 1h1v1h-1zm4 0h1v1h-1zm15 0h1v1h-1zm3 0h1v1h-1z"/><path fill="#bbb" d="M0 1h1v1H0zm1 0h1v1H1zm63 0h1v1h-1zm1 0h1v1h-1zM14 13h1v1h-1zm10 2h1v1h-1zm-10 1h1v1h-1zm-5 2h1v1H9zm7 0h1v1h-1zm13 0h1v1h-1zm-9 2h1v1h-1zm2 2h1v1h-1zm4 1h1v1h-1zm-15 1h1v1h-1zm2 0h1v1h-1zm20 1h1v1h-1zm3 0h1v1h-1zm3 0h1v1h-1zm-26 1h1v1h-1zm2 0h1v1h-1zm1 0h1v1h-1zm-6 1h1v1h-1zm10 1h1v1h-1zm19 0h1v1h-1zm-13 1h1v1h-1zm8 1h1v1h-1zm16 0h1v1h-1zm-2 2h1v1h-1zm4 0h1v1h-1zm3 0h1v1h-1zm-11 2h1v1h-1zm-2 2h1v1h-1zm0 1h1v1h-1zm9 1h1v1h-1zm2 0h1v1h-1zm-5 2h1v1h-1zm3 0h1v1h-1zm-12 2h1v1h-1zm-18 2h1v1h-1zm2 0h1v1h-1zm9 3h1v1h-1zm2 1h1v1h-1zm16 3h1v1h-1zm-35 1h1v1h-1zm-2 2h1v1h-1zm9 4h1v1h-1zm6 0h1v1h-1zm17 1h1v1h-1zm1 2h1v1h-1zm-10 2h1v1h-1zm-1 1h1v1h-1zm15 4h1v1h-1zm-21 1h1v1h-1zm18 2h1v1h-1zm1 3h1v1h-1zm-13 2h1v1h-1zM1 85h1v1H1zm63 0h1v1h-1zM2 86h1v1H2zm1 0h1v1H3zm59 0h1v1h-1zm1 0h1v1h-1z"/><path fill="#a23" d="M39 45h1v1h-1zm3 0h1v1h-1z"/><path fill="#e9a" d="M27 49h1v1h-1zm-9 1h1v1h-1zm29 0h1v1h-1zm-9 4h1v1h-1zm-15 2h1v1h-1zm-1 1h1v1h-1zm-2 8h1v1h-1zm4 0h1v1h-1zm10 2h1v1h-1zm-8 2h1v1h-1zm21 0h1v1h-1zm-31 2h1v1h-1zm20 2h1v1h-1zm-17 1h1v1h-1z"/><path fill="#d88" d="M34 50h1v1h-1zm-6 16h1v1h-1z"/><path fill="#322" d="M18 14h1v1h-1zm-9 2h1v1H9zm2 0h1v1h-1zm-3 1h1v1H8zm6 0h1v1h-1zm7 0h1v1h-1zm-8 1h1v1h-1zm-3 1h1v1h-1zm8 0h1v1h-1zm-8 1h1v1h-1zm-3 1h1v1H7zm3 0h1v1h-1zm24 0h1v1h-1zm-19 1h1v1h-1zm9 0h1v1h-1zM9 23h1v1H9zm30 0h1v1h-1zm-9 1h1v1h-1zm10 0h1v1h-1zm-11 1h1v1h-1zm6 0h1v1h-1zm-13 1h1v1h-1zm4 0h1v1h-1zm-9 1h1v1h-1zm17 1h1v1h-1zm8 0h1v1h-1zm4 0h1v1h-1zm1 0h1v1h-1zm-7 1h1v1h-1zm15 1h1v1h-1zm-16 1h1v1h-1zm2 0h1v1h-1zm2 0h1v1h-1zm7 0h1v1h-1zm6 0h1v1h-1zm-29 1h1v1h-1zm24 0h1v1h-1zm-13 1h1v1h-1zm8 0h1v1h-1zm8 0h1v1h-1zm0 1h1v1h-1zm0 1h1v1h-1zm3 0h1v1h-1zm-8 1h1v1h-1zm0 1h1v1h-1zm6 0h1v1h-1zm-13 1h1v1h-1zm3 3h1v1h-1zm8 0h1v1h-1zm-11 2h1v1h-1zm4 1h1v1h-1zm-32 4h1v1h-1zm34 0h1v1h-1zm-15 1h1v1h-1zm15 3h1v1h-1zm-2 4h1v1h-1zm-9 2h1v1h-1zm-18 1h1v1h-1zm6 0h1v1h-1zm13 0h1v1h-1zm5 0h1v1h-1zm0 1h1v1h-1zm-25 1h1v1h-1zm8 0h1v1h-1zm-8 1h1v1h-1zm8 0h1v1h-1zm10 0h1v1h-1zm-21 3h1v1h-1zm-1 1h1v1h-1zm19 0h1v1h-1zm-3 1h1v1h-1zm18 0h1v1h-1zm-15 3h1v1h-1zm16 1h1v1h-1zm-33 2h1v1h-1zm12 0h1v1h-1zm-1 1h1v1h-1zm17 1h1v1h-1z"/><path fill="#c78" d="M43 45h1v1h-1zm-3 4h1v1h-1z"/><path fill="#c45" d="M17 47h1v1h-1zm-1 2h1v1h-1zm5 0h1v1h-1zm23 3h1v1h-1zm-19 1h1v1h-1zm12 11h1v1h-1zm-1 1h1v1h-1zm6 2h1v1h-1z"/><path fill="#c34" d="M17 48h1v1h-1zm3 0h1v1h-1zm4 0h1v1h-1zm22 0h1v1h-1zm-21 1h1v1h-1zm10 0h1v1h-1zm-15 1h1v1h-1zm4 0h1v1h-1zm20 0h1v1h-1zm-24 2h1v1h-1zm8 0h1v1h-1zm-9 1h1v1h-1zm16 0h1v1h-1zm-18 1h1v1h-1zm10 0h1v1h-1zm18 11h1v1h-1zm-2 1h1v1h-1zm-15 1h1v1h-1zm18 0h1v1h-1zm0 3h1v1h-1zm-11 1h1v1h-1zm8 0h1v1h-1z"/><path fill="#c77" d="M41 49h1v1h-1z"/><path fill="#fde" d="M23 52h1v1h-1zm18 15h1v1h-1zm-14 2h1v1h-1z"/><path fill="#ebb" d="M45 46h1v1h-1zm-10 1h1v1h-1zm9 0h1v1h-1zm-10 2h1v1h-1zm-16 3h1v1h-1zm25 2h1v1h-1zm-16 1h1v1h-1zm-5 1h1v1h-1zm17 1h1v1h-1zm3 0h1v1h-1zm-25 7h1v1h-1zm1 1h1v1h-1zm9 2h1v1h-1zm20 0h1v1h-1zm-30 3h1v1h-1zm28 1h1v1h-1z"/><path fill="#a99" d="M17 11h1v1h-1zm5 2h1v1h-1zm1 7h1v1h-1zm10 0h1v1h-1zm2 0h1v1h-1zm-14 1h1v1h-1zm14 1h1v1h-1zm12 3h1v1h-1zm-20 3h1v1h-1zm16 7h1v1h-1zm-3 7h1v1h-1zm-24 2h1v1h-1zm31 4h1v1h-1zm-32 9h1v1h-1zm15 7h1v1h-1zm-1 3h1v1h-1zm6 6h1v1h-1zm12 2h1v1h-1z"/><path fill="#766" d="M13 12h1v1h-1zm8 1h1v1h-1zM9 14h1v1H9zm4 0h1v1h-1zm-3 3h1v1h-1zm12 1h1v1h-1zm-10 2h1v1h-1zm10 1h1v1h-1zm18 1h1v1h-1zm-30 2h1v1h-1zm28 0h1v1h-1zm-25 1h1v1h-1zm28 0h1v1h-1zm0 1h1v1h-1zm10 0h1v1h-1zm-28 2h1v1h-1zm32 0h1v1h-1zm-18 1h1v1h-1zm-10 1h1v1h-1zm1 1h1v1h-1zm26 0h1v1h-1zm-21 1h1v1h-1zm8 0h1v1h-1zm1 0h1v1h-1zm10 2h1v1h-1zm2 2h1v1h-1zm0 2h1v1h-1zm-34 5h1v1h-1zm4 0h1v1h-1zm11 3h1v1h-1zm-3 2h1v1h-1zm-3 5h1v1h-1zm2 0h1v1h-1zm-15 2h1v1h-1zm21 5h1v1h-1zm-8 3h1v1h-1zM19 75h1v1h-1z"/><path fill="#fee" d="M54 26h1v1h-1zM21 46h1v1h-1zm2 0h1v1h-1zm-3 1h1v1h-1zm4 0h1v1h-1zm-6 2h1v1h-1zm-1 1h1v1h-1zm10 1h1v1h-1zm12 0h1v1h-1zm-18 1h1v1h-1zm24 1h1v1h-1zm-26 1h1v1h-1zm6 0h1v1h-1zm-4 1h1v1h-1zm2 0h1v1h-1zm7 8h1v1h-1zm6 3h1v1h-1zm4 1h1v1h-1zm-13 1h1v1h-1zm12 0h1v1h-1zm-22 1h1v1h-1zm9 1h1v1h-1zm11 1h1v1h-1zm7 0h1v1h-1zm-7 1h1v1h-1zm1 0h1v1h-1z"/><path fill="#edd" d="M46 43h1v1h-1zm-6 12h1v1h-1zm3 2h1v1h-1zm-14 5h1v1h-1zM17 73h1v1h-1zm10 0h1v1h-1zm-6 2h1v1h-1zm2 0h1v1h-1zm17 0h1v1h-1zm1 0h1v1h-1z"/><path fill="#c67" d="M38 45h1v1h-1zm5 1h1v1h-1zm-3 17h1v1h-1zm1 0h1v1h-1z"/><path fill="#b34" d="M19 46h1v1h-1zm0 17h1v1h-1zm23 0h1v1h-1zm2 1h1v1h-1z"/><path fill="#ecc" d="M42 46h1v1h-1zm-5 1h1v1h-1zm9 0h1v1h-1zm1 2h1v1h-1zm-13 4h1v1h-1zm10 0h1v1h-1zm-28 1h1v1h-1zm2 9h1v1h-1zm8 0h1v1h-1zm16 5h1v1h-1zm-18 4h1v1h-1zm13 2h1v1h-1z"/><path fill="#fcd" d="M26 54h1v1h-1zm17 10h1v1h-1zm2 2h1v1h-1zm-19 1h1v1h-1zm-4 8h1v1h-1z"/><path fill="#ccc" d="M1 0h1v1H1zm1 0h1v1H2zm61 0h1v1h-1zm1 0h1v1h-1zM1 2h1v1H1zm63 0h1v1h-1zm-51 9h1v1h-1zm8 1h1v1h-1zm-6 1h1v1h-1zm1 0h1v1h-1zm1 0h1v1h-1zm-5 1h1v1h-1zm-1 1h1v1h-1zm7 0h1v1h-1zM7 16h1v1H7zm3 0h1v1h-1zm15 1h1v1h-1zM9 19h1v1H9zm11 0h1v1h-1zM9 20h1v1H9zm12 0h1v1h-1zm9 0h1v1h-1zm4 0h1v1h-1zM9 21h1v1H9zm19 0h1v1h-1zm8 0h1v1h-1zm-9 1h1v1h-1zm-17 1h1v1h-1zm26 0h1v1h-1zm2 0h1v1h-1zm3 0h1v1h-1zM8 25h1v1H8zm4 0h1v1h-1zm33 0h1v1h-1zm6 0h1v1h-1zm-34 1h1v1h-1zm22 0h1v1h-1zm4 0h1v1h-1zm-4 1h1v1h-1zm8 0h1v1h-1zm-11 1h1v1h-1zm1 0h1v1h-1zm15 0h1v1h-1zm-37 1h1v1h-1zm1 0h1v1h-1zm30 0h1v1h-1zm-16 1h1v1h-1zm24 0h1v1h-1zm3 0h1v1h-1zm-29 2h1v1h-1zm6 1h1v1h-1zm10 0h1v1h-1zm11 0h1v1h-1zm-12 1h1v1h-1zm12 0h1v1h-1zm-19 1h1v1h-1zm19 0h1v1h-1zm-1 2h1v1h-1zm-2 2h1v1h-1zm4 0h1v1h-1zm-9 1h1v1h-1zm-27 2h1v1h-1zm4 0h1v1h-1zm14 0h1v1h-1zm-21 1h1v1h-1zm31 0h1v1h-1zm1 0h1v1h-1zm-27 1h1v1h-1zm18 0h1v1h-1zm7 0h1v1h-1zm-30 2h1v1h-1zm13 0h1v1h-1zm1 2h1v1h-1zm19 2h1v1h-1zm-35 1h1v1h-1zm16 3h1v1h-1zm18 1h1v1h-1zm-35 1h1v1h-1zm1 12h1v1h-1zm1 4h1v1h-1zm10 2h1v1h-1zm-6 1h1v1h-1zm26 1h1v1h-1zM1 84h1v1H1zm63 0h1v1h-1zM2 85h1v1H2zm61 0h1v1h-1zM4 86h1v1H4zm1 0h1v1H5zm1 0h1v1H6zm1 0h52v1H7zm52 0h1v1h-1zm1 0h1v1h-1zm1 0h1v1h-1z"/><path fill="#eee" d="M3 1h1v1H3zm59 0h1v1h-1zM2 2h1v1H2zm61 0h1v1h-1zM1 3h1v1H1zm63 0h1v1h-1zM1 4h1v1H1zm63 0h1v1h-1zM1 5h1v1H1zm63 0h1v1h-1zM2 6h1v1H2zm61 0h1v1h-1zM2 7h1v1H2zm61 0h1v1h-1zM2 8h1v74H2zm61 0h1v74h-1zm-51 3h1v1h-1zm-3 2h1v1H9zm-1 1h1v1H8zm6 1h1v1h-1zm17 2h1v1h-1zm1 0h1v1h-1zm1 0h1v1h-1zm5 2h1v1h-1zm-27 2h1v1h-1zm9 0h1v1h-1zm20 0h1v1h-1zm-12 4h1v1h-1zm24 0h1v1h-1zm-30 2h1v1h-1zm33 0h1v1h-1zm-27 1h1v1h-1zm28 0h1v1h-1zm-42 1h1v1h-1zm36 0h1v1h-1zm-16 2h1v1h-1zm-9 2h1v1h-1zm13 1h1v1h-1zm-10 1h1v1h-1zm16 0h1v1h-1zm9 0h1v1h-1zm-7 3h1v1h-1zm-5 2h1v1h-1zm1 1h1v1h-1zm-5 1h1v1h-1zm-2 1h1v1h-1zm15 0h1v1h-1zm0 6h1v1h-1zm-17 8h1v1h-1zm1 1h1v1h-1zm-17 1h1v1h-1zm10 0h1v1h-1zm18 1h1v1h-1zm-29 1h1v1h-1zm12 0h1v1h-1zm-14 2h1v1h-1zm35 1h1v1h-1zm-18 1h1v1h-1zm-18 7h1v1h-1zm18 0h1v1h-1zm18 1h1v1h-1zm-34 2h1v1h-1zm14 0h1v1h-1zM2 82h1v1H2zm61 0h1v1h-1zM2 83h1v1H2zm61 0h1v1h-1zM3 84h1v1H3zm1 0h1v1H4zm57 0h1v1h-1zm1 0h1v1h-1zM9 85h48v1H9z"/><path fill="#665" d="M29 19h1v1h-1zm8 2h1v1h-1zm6 6h1v1h-1zm-7 4h1v1h-1zm9 12h1v1h-1zm-32 6h1v1h-1zm15 6h1v1h-1zm7 7h1v1h-1zm-2 2h1v1h-1zm-2 3h1v1h-1z"/><path fill="#daa" d="M19 45h1v1h-1zm17 1h1v1h-1zM23 67h1v1h-1z"/><path fill="#a12" d="M37 46h1v1h-1zm7 0h1v1h-1zM24 63h1v1h-1zm14 0h1v1h-1zm5 0h1v1h-1zm-25 1h1v1h-1zm8 0h1v1h-1z"/><path fill="#d99" d="M45 48h1v1h-1zM21 62h1v1h-1zm-2 2h1v1h-1zm6 7h1v1h-1z"/><path fill="#b13" d="M46 49h1v1h-1zM27 65h1v1h-1z"/><path fill="#ddd" d="M3 0h1v1H3zm1 0h1v1H4zm1 0h56v1H5zm56 0h1v1h-1zm1 0h1v1h-1zM2 1h1v1H2zm61 0h1v1h-1zM1 6h1v1H1zm63 0h1v1h-1zM1 7h1v1H1zm63 0h1v1h-1zM1 8h1v1H1zm63 0h1v1h-1zM1 9h1v73H1zm63 0h1v73h-1zm-46 7h1v1h-1zm-7 2h1v1h-1zm17 0h1v1h-1zm8 0h1v1h-1zm3 2h1v1h-1zm-24 1h1v1h-1zm-3 2h1v1h-1zm9 1h1v1h-1zm-1 1h1v1h-1zm17 0h1v1h-1zm-23 1h1v1h-1zm4 0h1v1h-1zm9 0h1v1h-1zm5 2h1v1h-1zm-15 1h1v1h-1zm29 1h1v1h-1zm-16 1h1v1h-1zm7 0h1v1h-1zm-1 1h1v1h-1zm17 0h1v1h-1zm-22 1h2v1h-2zm2 0h1v1h-1zm16 2h1v1h-1zm3 2h1v1h-1zm-9 1h1v1h-1zm1 1h1v1h-1zm2 1h1v1h-1zm4 0h1v1h-1zm-31 2h1v1h-1zm6 0h1v1h-1zm22 1h1v1h-1zm-13 1h1v1h-1zm-1 1h1v1h-1zm15 0h1v1h-1zM36 56h1v1h-1zm-17 1h1v1h-1zm17 3h1v1h-1zm-21 2h1v1h-1zm17 2h1v1h-1zm-19 1h1v1h-1zm37 2h1v1h-1zm0 3h1v1h-1zm-18 3h1v1h-1zm7 2h1v1h-1zm3 0h1v1h-1zm-24 2h1v1h-1zm8 0h1v1h-1zM1 82h1v1H1zm63 0h1v1h-1zM1 83h1v1H1zm63 0h1v1h-1zM2 84h1v1H2zm61 0h1v1h-1zM3 85h1v1H3zm1 0h1v1H4zm1 0h1v1H5zm1 0h1v1H6zm1 0h2v1H7zm50 0h2v1h-2zm2 0h1v1h-1zm1 0h1v1h-1zm1 0h1v1h-1zm1 0h1v1h-1z"/><path fill="#655" d="M18 12h1v1h-1zm4 2h1v1h-1zm-2 2h1v1h-1zm1 0h1v1h-1zm-4 2h1v1h-1zm18 1h1v1h-1zm-4 2h1v1h-1zM7 22h1v1H7zm26 1h1v1h-1zm-13 1h1v1h-1zm-2 1h1v1h-1zm28 1h1v1h-1zm-13 4h1v1h-1zm10 0h1v1h-1zm1 0h1v1h-1zm-10 2h1v1h-1zm13 0h1v1h-1zm-18 1h1v1h-1zm8 1h1v1h-1zm20 2h1v1h-1zm-14 1h1v1h-1zm1 1h1v1h-1zm2 1h1v1h-1zm-3 2h1v1h-1zm2 1h1v1h-1zm-24 1h1v1h-1zm2 0h1v1h-1zm16 0h1v1h-1zm4 1h1v1h-1zm-27 1h1v1h-1zm12 0h1v1h-1zm1 1h1v1h-1zm4 5h1v1h-1zm-15 6h1v1h-1zm25 1h1v1h-1zm3 0h1v1h-1zm-12 5h1v1h-1zm13 0h1v1h-1zm0 2h1v1h-1zm-18 1h1v1h-1zm4 2h1v1h-1z"/><path fill="#221" d="M17 17h1v1h-1zm-7 1h1v1h-1zm8 3h1v1h-1zm8 0h1v1h-1zm4 0h1v1h-1zm6 1h1v1h-1zm1 1h1v1h-1zm-3 2h1v1h-1zm-14 1h1v1h-1zm9 2h1v1h-1zm14 0h1v1h-1zm-11 1h1v1h-1zm-8 1h1v1h-1zm23 1h1v1h-1zm-8 1h1v1h-1zm15 0h1v1h-1zm-8 3h1v1h-1zm1 1h1v1h-1zm1 13h1v1h-1zm-14 6h1v1h-1zm2 2h1v1h-1zm12 16h1v1h-1z"/><path fill="#100" d="M14 28h1v1h-1zm18 7h1v1h-1zM22 77h1v1h-1zm18 0h2v1h-2z"/><path fill="#a01" d="M22 45h1v1h-1zm18 0h2v1h-2zm-19 9h2v1h-2zm19 0h2v1h-2z"/><path fill="#fdd" d="M39 46h1v1h-1zm-12 4h1v1h-1zm15 1h1v1h-1zm-25 1h1v1h-1zm1 2h1v1h-1zm23 1h1v1h-1zm-3 2h1v1h-1zm0 7h1v1h-1zm0 1h1v1h-1zm5 0h1v1h-1zm1 1h1v1h-1zm-5 3h1v1h-1zm-21 1h1v1h-1zm4 0h1v1h-1zm22 2h1v1h-1zm-24 1h1v1h-1zm4 0h1v1h-1z"/><path fill="#c02" d="M20 49h1v1h-1zm4 0h1v1h-1zm14 1h1v1h-1zm5 0h1v1h-1zm-27 1h1v1h-1zm3 0h1v1h-1zm6 0h1v1h-1zm12 0h1v1h-1zm1 0h1v1h-1zm5 0h1v1h-1zm-5 1h1v1h-1zm5 0h1v1h-1zm-23 1h1v1h-1zm19 13h1v1h-1zm3 0h1v1h-1zm-23 2h1v1h-1zm19 0h1v1h-1zm5 0h1v1h-1zm-24 1h1v1h-1zm24 0h1v1h-1zm-22 2h1v1h-1zm2 0h1v1h-1z"/><path fill="#aa9" d="M25 19h1v1h-1zm20 21h1v1h-1zm-27 5h1v1h-1zm-3 25h1v1h-1z"/><path fill="#110" d="M12 27h1v1h-1zm8 0h1v1h-1zm-5 1h3v1h-3zm21 6h1v1h-1zm16 7h1v1h-1zm-3 1h1v1h-1zm1 0h1v1h-1zM16 57h1v1h-1zm19 18h1v1h-1zm-17 1h1v1h-1zm8 0h1v1h-1zm11 0h1v1h-1zm7 0h1v1h-1z"/><path fill="#ddc" d="M27 27h1v1h-1zm11 3h1v1h-1z"/><path fill="#e88" d="M35 51h1v1h-1zm-18 2h1v1h-1zm29 1h1v1h-1zm-9 1h1v1h-1z"/><path fill="#211" d="M14 14h1v1h-1zm1 3h1v1h-1zm1 0h1v1h-1zm-8 1h1v1H8zm6 0h1v1h-1zm4 0h1v1h-1zM7 19h1v1H7zm1 0h1v1H8zm5 0h1v1h-1zm6 0h1v1h-1zM7 20h1v1H7zm1 0h1v1H8zm5 0h1v1h-1zm6 0h1v1h-1zM8 21h1v1H8zm5 0h1v1h-1zm6 0h1v1h-1zM8 22h1v1H8zm6 0h1v1h-1zm4 0h1v1h-1zm7 0h1v1h-1zm-1 1h1v1h-1zm1 0h1v1h-1zm-1 1h1v1h-1zm7 0h1v1h-1zm1 0h1v1h-1zm1 0h1v1h-1zm-11 1h1v1h-1zm2 0h1v1h-1zm6 0h1v1h-1zm-1 1h1v1h-1zm6 0h1v1h-1zm3 0h1v1h-1zm-24 1h1v1h-1zm4 0h1v1h-1zm11 0h1v1h-1zm6 0h1v1h-1zm3 0h1v1h-1zm-8 1h1v1h-1zm5 0h1v1h-1zm15 0h1v1h-1zm-20 1h1v1h-1zm1 0h1v1h-1zm2 0h1v1h-1zm1 0h1v1h-1zm7 0h1v1h-1zm1 0h1v1h-1zm-17 1h1v1h-1zm15 0h1v1h-1zm1 0h1v1h-1zm-1 1h1v1h-1zm8 0h1v1h-1zm1 0h1v1h-1zm-11 1h1v1h-1zm2 0h1v1h-1zm6 0h1v1h-1zm4 0h1v1h-1zm6 0h1v1h-1zm-20 1h1v1h-1zm9 0h1v1h-1zm6 0h1v1h-1zm5 0h1v1h-1zm1 0h1v1h-1zm-26 1h1v1h-1zm1 0h1v1h-1zm1 0h1v1h-1zm12 0h1v1h-1zm6 0h1v1h-1zm5 0h1v1h-1zm1 0h1v1h-1zm-12 1h1v1h-1zm6 0h1v1h-1zm5 0h1v1h-1zm-10 1h1v1h-1zm4 0h1v1h-1zm6 0h1v1h-1zm-16 1h1v1h-1zm1 0h1v1h-1zm1 2h1v1h-1zm1 1h1v1h-1zm7 1h1v1h-1zm-4 1h1v1h-1zm-3 1h1v1h-1zm1 0h1v1h-1zm0 1h1v1h-1zm1 0h1v1h-1zm-31 5h1v1h-1zm35 0h1v1h-1zm-35 1h1v2h-1zm16 0h1v1h-1zm19 0h1v1h-1zm-19 1h1v1h-1zm2 0h1v1h-1zm17 0h1v1h-1zm-35 1h1v1h-1zm16 0h1v1h-1zm2 0h1v1h-1zm17 0h1v1h-1zm-35 1h1v1h-1zm16 0h1v1h-1zm3 0h1v1h-1zm15 0h1v1h-1zm1 0h1v1h-1zm-20 1h1v1h-1zm19 0h1v1h-1zm-1 1h1v1h-1zm-2 2h1v1h-1zm-28 1h1v1h-1zm1 0h1v1h-1zm8 0h1v1h-1zm18 0h1v1h-1zm-24 2h1v1h-1zm1 0h3v1h-3zm3 0h1v1h-1zm15 0h1v1h-1zm1 0h2v1h-2zm2 0h1v1h-1zm-23 1h1v1h-1zm6 0h1v1h-1zm12 0h1v1h-1zm5 0h1v1h-1zm2 0h1v1h-1zm-30 6h1v1h-1zm35 0h1v1h-1zm-35 1h1v2h-1zm16 0h1v1h-1zm2 0h1v1h-1zm17 0h1v1h-1zm-19 1h1v1h-1zm2 0h1v1h-1zm17 0h1v1h-1zm-35 1h1v1h-1zm16 0h1v1h-1zm2 0h1v1h-1zm16 0h1v1h-1zm1 0h1v1h-1zm-35 1h1v1h-1zm18 0h1v1h-1zm1 0h1v1h-1zm15 0h1v1h-1zm-34 1h1v1h-1zm1 0h1v1h-1zm14 0h1v1h-1zm1 0h1v1h-1zm4 1h1v1h-1zm1 1h1v1h-1zm-17 1h1v1h-1zm3 1h1v1h-1zm1 0h1v1h-1zm1 0h1v1h-1zm17 0h2v1h-2z"/><path fill="#eaa" d="M20 46h1v1h-1zm4 0h1v1h-1zm-3 1h1v1h-1zm2 0h1v1h-1zm-7 1h1v1h-1zm1 1h1v1h-1zm25 1h1v1h-1zm-21 6h1v1h-1zm19 1h1v1h-1zm1 0h1v1h-1zM28 71h1v1h-1zm15 2h1v1h-1zm-18 1h1v1h-1z"/><path fill="#fef" d="M26 49h1v1h-1zm17 6h1v1h-1z"/><path fill="#e89" d="M18 51h1v1h-1zm21 5h1v1h-1zm3 0h1v1h-1zm2 0h1v1h-1zM18 68h1v1h-1zm5 2h1v1h-1zm-5 2h1v1h-1zm8 0h1v1h-1z"/><path fill="#c13" d="M41 48h1v1h-1zm-3 1h1v1h-1zm5 0h1v1h-1zm-15 1h1v1h-1zm16 1h1v1h-1zM20 66h1v1h-1zm4 0h1v1h-1zm-5 1h1v1h-1zm6 0h1v1h-1z"/><path fill="#aaa" d="M0 2h1v1H0zm65 0h1v1h-1zm-51 9h1v1h-1zm-3 1h1v1h-1zm7 1h1v1h-1zm2 1h1v1h-1zm-8 2h1v1h-1zm13 2h1v1h-1zm10 0h1v1h-1zm-8 1h1v1h-1zm4 1h1v1h-1zm-19 1h1v1h-1zm5 0h1v1h-1zM7 23h1v1H7zm11 0h1v1h-1zm32 2h1v1h-1zM9 26h1v1H9zm16 0h1v1h-1zm3 0h1v1h-1zm25 0h1v1h-1zm-28 1h1v1h-1zm21 0h1v1h-1zm-13 1h1v1h-1zm-10 1h1v1h-1zm6 0h1v1h-1zm7 1h1v1h-1zm16 0h1v1h-1zm-23 2h1v1h-1zm18 3h1v1h-1zm5 0h1v1h-1zm-6 2h1v1h-1zm11 0h1v1h-1zm-2 3h1v1h-1zm-11 2h1v1h-1zm-8 1h1v1h-1zm-8 1h1v1h-1zm11 0h1v1h-1zm3 0h1v1h-1zm-28 2h1v1h-1zm2 1h1v1h-1zm33 0h1v1h-1zm-36 1h1v1h-1zm16 4h1v1h-1zm3 3h1v1h-1zm-3 2h1v1h-1zm8 0h1v1h-1zm-16 1h1v1h-1zm2 0h1v1h-1zm13 1h1v1h-1zm-18 1h1v1h-1zm8 0h1v1h-1zm9 1h1v1h-1zm12 1h1v1h-1zm-14 1h1v1h-1zm12 0h1v1h-1zm1 1h1v1h-1zm-15 2h1v1h-1zm-16 1h1v1h-1zm23 8h1v1h-1zm-1 2h1v1h-1zm7 0h1v1h-1zM1 86h1v1H1zm63 0h1v1h-1zM2 87h1v1H2zm1 0h1v1H3zm1 0h1v1H4zm1 0h56v1H5zm56 0h1v1h-1zm1 0h1v1h-1zm1 0h1v1h-1zM4 88h1v1H4zm1 0h56v1H5zm56 0h1v1h-1z"/><path fill="#433" d="M15 12h1v1h-1zm-3 1h1v1h-1zm9 1h1v1h-1zM8 16h1v1H8zm10 1h1v1h-1zm1 1h1v1h-1zm5 0h1v1h-1zm6 1h1v1h-1zm1 0h1v1h-1zm2 0h1v1h-1zm1 0h1v1h-1zm-6 1h1v1h-1zm8 0h1v1h-1zm-12 1h1v1h-1zm1 0h1v1h-1zm-9 1h1v1h-1zm1 1h1v1h-1zm23 0h1v1h-1zm-28 3h1v1h-1zm35 0h1v1h-1zm2 0h1v1h-1zm-34 1h1v1h-1zm37 0h1v1h-1zm-12 1h1v1h-1zm-15 1h1v1h-1zm14 1h1v1h-1zm17 0h1v1h-1zm-10 1h1v1h-1zm-1 1h1v1h-1zm-15 3h1v1h-1zm11 1h1v1h-1zm7 0h1v1h-1zm-1 1h1v1h-1zm-6 2h1v1h-1zm11 1h1v1h-1zm-11 3h1v1h-1zm-4 1h1v1h-1zm-20 1h1v1h-1zm10 0h1v1h-1zm20 1h1v1h-1zm-18 1h1v1h-1zm19 0h1v1h-1zm-19 1h1v1h-1zm4 0h1v1h-1zm-20 2h1v1h-1zm35 0h1v1h-1zm-17 2h1v1h-1zm1 2h1v1h-1zm-18 1h1v1h-1zm6 4h1v1h-1zm4 0h1v1h-1zm16 2h1v1h-1zm1 0h1v1h-1zm-6 2h1v1h-1zm11 0h1v1h-1zm-13 4h1v1h-1zm-2 1h1v1h-1zm17 0h1v1h-1zm-35 1h1v1h-1zm35 0h1v1h-1zm-19 5h1v1h-1zm-1 1h1v1h-1zm-8 2h1v1h-1zm4 0h1v1h-1z"/><path fill="#998" d="M23 14h1v1h-1zm-4 8h1v1h-1zm0 4h1v1h-1zm-7 2h1v1h-1zm33 8h1v1h-1zM29 70h1v1h-1z"/><path fill="#cbb" d="M21 15h1v1h-1zm1 2h1v1h-1zm-10 1h1v1h-1zm9 1h1v1h-1zm1 4h1v1h-1zm26 4h2v1h-2zm2 0h1v1h-1zm-8 4h1v1h-1zm3 0h1v1h-1zm-15 2h1v1h-1zm13 0h1v1h-1zm6 7h1v1h-1zm5 1h1v1h-1zm-13 3h1v1h-1zm-14 2h1v1h-1zm-12 4h1v1h-1zm14 1h1v1h-1zm9 11h1v1h-1zm5 0h1v1h-1zm4 4h1v1h-1zm-18 2h1v1h-1zm-14 1h1v1h-1zm13 3h1v1h-1zm-4 3h1v1h-1z"/><path fill="#ccb" d="M19 17h1v1h-1zm24 12h1v1h-1zm10 0h1v1h-1zm-3 40h1v1h-1z"/><path fill="#baa" d="M37 22h1v1h-1zm-7 1h1v1h-1zm-3 2h1v1h-1zm19 0h1v1h-1zm-2 3h1v1h-1zm-18 2h1v1h-1zm13 6h1v1h-1zm-17 6h1v1h-1zm-6 16h1v1h-1zm24 0h1v1h-1zm1 0h1v1h-1zm7 5h1v1h-1z"/><path fill="#c55" d="M26 47h1v1h-1zm2 2h1v1h-1z"/><path fill="#d78" d="M43 48h1v1h-1zm-6 1h1v1h-1zm-2 1h1v1h-1zm-1 1h1v1h-1zm8 1h1v1h-1zm-15 1h1v1h-1zm1 0h1v1h-1zm8 1h1v1h-1zm8 1h1v1h-1zm-7 1h1v1h-1zm-15 7h1v1h-1zm15 0h1v1h-1zm5 2h1v1h-1zm-26 1h1v1h-1zm9 0h1v1h-1zm9 2h1v1h-1zm1 0h1v1h-1zm-1 1h1v1h-1zm1 0h1v1h-1zm4 3h1v1h-1zm-20 1h1v1h-1zm19 1h1v1h-1zm5 0h1v1h-1z"/><path fill="#ecd" d="M28 54h1v1h-1zm-6 1h1v1h-1zm22 19h1v1h-1z"/><path fill="#443" d="M17 12h1v1h-1zm-1 2h1v1h-1zm2 6h1v1h-1zm17 1h1v1h-1zm4 1h1v1h-1zm1 4h1v1h-1zm0 1h1v1h-1zm4 0h1v1h-1zm-6 1h1v1h-1zm3 0h1v1h-1zm-15 5h1v1h-1zm16 1h1v1h-1zm4 0h1v1h-1zm-2 6h1v1h-1zm3 1h1v1h-1zm-32 7h1v1h-1zm17 1h1v1h-1zm-7 9h1v1h-1zm12 1h1v1h-1zm2 0h1v1h-1zm3 0h1v1h-1zm-27 5h1v1h-1zm32 8h1v1h-1z"/><path fill="#988" d="M20 12h1v1h-1zm-3 4h1v1h-1zm-2 2h1v1h-1zm16 0h1v1h-1zm1 0h1v1h-1zm1 0h1v1h-1zm-8 2h1v1h-1zm4 0h1v1h-1zm3 0h1v1h-1zM9 22h1v1H9zm10 2h1v1h-1zm10 0h1v1h-1zm-14 1h1v1h-1zm10 0h1v1h-1zm19 1h1v1h-1zm-2 1h1v1h-1zm5 3h1v1h-1zm-23 1h1v1h-1zm19 1h1v1h-1zm6 0h1v1h-1zm6 4h1v1h-1zm-10 2h1v1h-1zm0 1h1v1h-1zm-25 5h1v1h-1zm-5 1h1v1h-1zm-2 26h1v1h-1zm23 3h1v1h-1z"/><path fill="#666" d="M11 13h1v1h-1zm22 8h1v1h-1zm6 0h1v1h-1zm-29 1h1v1h-1zm11 1h1v1h-1zm10 0h1v1h-1zm4 1h1v1h-1zm-21 1h1v1h-1zm27 2h1v1h-1zm12 0h1v1h-1zm-27 1h1v1h-1zm25 0h1v1h-1zm-20 2h1v1h-1zm-1 2h1v1h-1zm1 0h1v1h-1zm8 2h1v1h-1zm3 1h1v1h-1zm8 4h1v1h-1zm-14 5h1v1h-1zm2 0h1v1h-1zm-4 1h1v1h-1zm14 1h1v1h-1zm0 10h1v1h-1zm-10 2h1v1h-1zm-1 4h1v1h-1zm9 0h1v1h-1zm-31 1h1v1h-1zm15 2h1v1h-1zm-15 1h1v1h-1zm17 6h1v1h-1zm-7 3h1v1h-1zm-8 1h1v1h-1zM0 88h1v1H0zm1 0h1v1H1zm63 0h1v1h-1zm1 0h1v1h-1zM1 89h1v1H1zm1 0h1v1H2zm1 0h1v1H3zm1 0h58v1H4zm58 0h1v1h-1zm1 0h1v1h-1zm1 0h1v1h-1z"/><path fill="#444" d="M11 14h1v1h-1zm-2 1h1v1H9zm1 0h1v1h-1zm9 0h1v1h-1zm3 4h1v1h-1zm10 0h1v1h-1zm-10 1h1v1h-1zm-8 1h1v1h-1zm13 0h1v1h-1zm11 0h1v1h-1zm-25 1h1v1h-1zm-2 1h1v1h-1zm12 3h1v1h-1zm25 2h1v1h-1zm5 0h1v1h-1zm-8 1h1v1h-1zm9 0h1v1h-1zm1 0h1v1h-1zm-23 1h1v1h-1zm-7 2h1v1h-1zm17 1h1v1h-1zm8 2h1v1h-1zm1 1h1v1h-1zm2 1h1v1h-1zm-10 2h1v1h-1zm-24 5h1v1h-1zm6 0h1v1h-1zm20 1h1v1h-1zm2 0h1v1h-1zm-13 1h1v1h-1zm-20 1h1v1h-1zm20 0h1v1h-1zm-3 3h1v1h-1zm17 1h1v1h-1zm-35 1h1v1h-1zm20 0h1v1h-1zm-3 3h1v1h-1zm17 2h1v1h-1zm-28 1h1v1h-1zm2 1h1v1h-1zm2 0h1v1h-1zm-4 1h1v1h-1zm3 1h1v1h-1zm14 0h1v1h-1zm-8 3h1v1h-1zm2 2h1v1h-1zm-1 5h1v1h-1z"/><path fill="#dab" d="M25 45h1v1h-1zm14 17h1v1h-1zm-18 5h1v1h-1z"/><path fill="#ebc" d="M39 47h1v1h-1zm-20 1h1v1h-1zm20 2h1v1h-1zm-13 2h1v1h-1zm-1 3h1v1h-1zm-7 1h1v1h-1zm8 0h1v1h-1zm1 8h1v1h-1zm15 5h1v1h-1zm-1 1h1v1h-1zm6 0h1v1h-1zm-27 2h1v1h-1zm26 0h1v1h-1z"/><path fill="#d45" d="M46 52h1v1h-1zm-6 1h1v1h-1zm1 0h1v1h-1zm-23 2h1v1h-1zm8 0h1v1h-1zm-4 10h1v1h-1zm18 0h1v1h-1zm1 0h1v1h-1zm-25 5h1v1h-1zm12 0h1v1h-1zm7 0h1v1h-1zm7 0h1v1h-1zm-15 1h1v1h-1zm19 0h1v1h-1zm-10 1h1v1h-1zm9 0h1v1h-1zm-1 1h1v1h-1z"/><path fill="#c88" d="M22 62h1v1h-1z"/><path fill="#333" d="M16 12h1v1h-1zm-1 2h1v1h-1zm9 3h1v1h-1zM7 18h1v1H7zm19 4h1v1h-1zm-3 1h1v1h-1zM8 24h1v1H8zm32 1h1v1h-1zm8 1h1v1h-1zm-22 1h1v1h-1zm-13 1h1v1h-1zm36 0h1v1h-1zm8 4h1v1h-1zm-23 3h1v1h-1zm22 3h1v1h-1zm-14 2h1v1h-1zm7 1h1v1h-1zm2 1h1v1h-1zm-4 5h1v1h-1zm-34 4h1v1h-1zm18 0h1v1h-1zm4 5h1v1h-1zm-1 1h1v1h-1zm-13 4h1v1h-1zm24 1h1v1h-1zm-11 2h1v1h-1zm13 0h1v1h-1zm-33 1h1v1h-1zm15 0h1v1h-1zm19 0h1v1h-1zm-16 2h1v1h-1zm-19 1h1v1h-1zm18 1h1v1h-1zm-16 5h1v1h-1zm1 1h1v1h-1zm21 0h1v1h-1zm8 1h1v1h-1z"/><path fill="#555" d="M27 20h1v1h-1zm10 0h1v1h-1zm-8 1h1v1h-1zm-8 1h1v1h-1zm17 0h1v1h-1zm-26 2h1v1h-1zm11 3h1v1h-1zm14 3h1v1h-1zm1 1h1v1h-1zm1 2h1v1h-1zm13 5h1v1h-1zm-30 5h1v1h-1zm4 1h1v1h-1zm10 1h1v1h-1zm10 1h1v1h-1zm-13 1h1v1h-1zm-3 1h1v1h-1zm19 6h1v1h-1zm-23 3h1v1h-1zm18 5h1v1h-1zm-27 1h1v1h-1zm15 3h1v1h-1zm1 3h1v1h-1zm-20 1h1v1h-1zm2 1h1v1h-1zm19 1h1v1h-1zm4 5h1v1h-1zm5 0h1v1h-1z"/><path fill="#111" d="M8 23h1v1H8zm8 0h1v1h-1zm-7 1h1v1H9zm0 1h1v1H9zm1 0h1v1h-1zm0 1h1v1h-1zm1 0h1v1h-1zm10 0h1v1h-1zm3 0h1v2h-1zm-11 1h1v1h-1zm6 0h1v1h-1zm-1 1h1v1h-1zm6 0h1v1h-1zm0 1h1v1h-1zm1 2h1v1h-1zm1 1h1v1h-1zm1 1h1v1h-1zm1 0h1v1h-1zm9 0h1v1h-1zm3 0h1v1h-1zm-12 1h1v1h-1zm1 0h1v1h-1zm1 0h1v1h-1zm4 0h1v1h-1zm1 0h1v1h-1zm5 0h1v1h-1zm-9 1h1v1h-1zm2 0h1v1h-1zm7 0h1v1h-1zm0 1h1v1h-1zm8 1h1v1h-1zm8 0h1v1h-1zm-15 1h1v1h-1zm14 0h1v1h-1zm-1 1h1v1h-1zm1 0h1v1h-1zm-2 1h1v1h-1zm1 0h1v1h-1zm-3 1h1v1h-1zm-4 1h1v1h-1zm1 0h1v1h-1zM32 53h1v1h-1zm-18 1h1v1h-1zm16 0h1v1h-1zm3 0h1v1h-1zm-18 1h1v1h-1zm14 0h1v1h-1zm4 0h1v1h-1zm15 0h1v1h-1zm-33 1h1v1h-1zm1 0h1v1h-1zm12 0h1v1h-1zm1 0h1v1h-1zm5 0h1v1h-1zm13 0h1v1h-1zm-30 1h1v1h-1zm10 0h1v1h-1zm1 0h1v1h-1zm7 0h1v1h-1zm11 0h1v1h-1zm-10 1h1v1h-1zm9 0h1v1h-1zm-25 3h1v1h-1zm4 0h1v1h-1zm14 0h1v1h-1zm5 0h1v1h-1zM30 71h1v1h-1zm3 1h1v1h-1zm15 0h1v1h-1zm-33 1h1v1h-1zm14 0h1v1h-1zm4 0h1v1h-1zm14 0h1v1h-1zm-31 1h1v1h-1zm12 0h1v1h-1zm6 0h1v1h-1zm12 0h1v1h-1zm1 0h1v1h-1zm-30 1h1v1h-1zm9 0h1v1h-1zm1 0h1v1h-1zm9 0h1v1h-1zm9 0h1v1h-1zm1 0h1v1h-1zm-27 1h1v1h-1zm1 0h1v1h-1zm4 0h1v1h-1zm1 0h1v1h-1zm13 0h1v1h-1zm1 0h1v1h-1zm3 0h1v1h-1zm1 0h1v1h-1zm-22 1h1v1h-1zm2 0h1v1h-1z"/><path fill="#c89" d="M40 62h1v1h-1zm1 0h1v1h-1z"/><path fill="#a13" d="M20 63h1v1h-1z"/><path fill="#d66" d="M24 51h1v1h-1zm21 4h1v1h-1z"/><path fill="#888" d="M0 5h1v1H0zm65 0h1v1h-1zM0 6h1v1H0zm65 0h1v1h-1zM0 7h1v1H0zm65 0h1v1h-1zM0 8h1v73H0zm65 0h1v73h-1zm-53 4h1v1h-1zm3 4h1v1h-1zm6 2h1v1h-1zm2 3h1v1h-1zm18 3h1v1h-1zm-24 1h1v1h-1zm2 0h1v1h-1zm33 1h1v1h-1zm-16 1h1v1h-1zm-11 1h1v1h-1zm6 0h1v1h-1zm4 3h1v1h-1zm-6 4h1v1h-1zm11 3h1v1h-1zm9 1h1v1h-1zm-8 3h1v1h-1zm-4 1h1v1h-1zm-13 1h1v1h-1zm5 5h1v1h-1zm-12 7h1v1h-1zm-4 10h1v1h-1zm21 9h1v1h-1zM0 81h1v2H0zm65 0h1v2h-1zM0 83h1v1H0zm65 0h1v1h-1zM1 87h1v1H1zm63 0h1v1h-1zM2 88h1v1H2zm61 0h1v1h-1z"/><path fill="#777" d="M19 12h1v1h-1zm-6 1h1v1h-1zm0 2h1v1h-1zm3 1h1v1h-1zm-9 1h1v1H7zm2 0h1v1H9zm3 2h1v1h-1zm2 0h1v1h-1zm22 0h1v1h-1zm2 1h1v1h-1zm-6 1h1v1h-1zm-18 2h1v1h-1zm25 1h1v1h-1zm-28 1h1v1h-1zm23 1h1v1h-1zm11 0h1v1h-1zm-11 1h1v1h-1zm17 0h1v1h-1zm-12 2h1v1h-1zm12 0h1v1h-1zm5 0h1v1h-1zm-8 1h1v1h-1zm-19 1h1v1h-1zm24 0h1v1h-1zm2 0h1v1h-1zm2 0h1v1h-1zm-25 1h1v1h-1zm3 1h1v1h-1zm17 0h1v1h-1zm-25 1h1v1h-1zm8 1h1v1h-1zm4 0h1v1h-1zm11 2h1v1h-1zm3 2h1v1h-1zm-15 4h1v1h-1zm-11 1h1v1h-1zm3 3h1v1h-1zm-17 6h1v1h-1zm2 0h1v1h-1zm32 1h1v1h-1zm-29 5h1v1h-1zm26 1h1v1h-1zm-17 1h1v1h-1zm1 1h1v1h-1zm-14 2h1v1h-1zm20 1h1v1h-1zm-20 8h1v1h-1zm31 1h1v1h-1zm-18 2h1v1h-1zm-8 1h1v1h-1zM0 84h1v1H0zm65 0h1v1h-1zM0 85h1v1H0zm65 0h1v1h-1zM0 86h1v1H0zm65 0h1v1h-1zM0 87h1v1H0zm65 0h1v1h-1z"/><path fill="#b45" d="M20 45h1v1h-1zm4 0h1v1h-1zm-6 1h1v1h-1zm5 3h1v1h-1zm2 14h1v1h-1zm14 0h1v1h-1zm-3 1h1v1h-1zm-14 8h1v1h-1zm18 0h1v1h-1zm1 0h1v1h-1z"/><path fill="#a02" d="M21 45h1v1h-1zm2 0h1v1h-1zm0 9h1v1h-1z"/><path fill="#c56" d="M26 46h1v1h-1zm-8 1h1v1h-1zm9 0h1v1h-1zm-7 7h1v1h-1zm4 0h1v1h-1zm-3 9h1v1h-1zm2 0h1v1h-1zm22 1h1v1h-1zm-10 3h1v1h-1zm4 0h1v1h-1zm-2 3h1v1h-1zm-16 2h1v1h-1zm2 0h1v1h-1z"/><path fill="#e99" d="M22 47h1v1h-1zm18 0h1v1h-1zm1 0h1v1h-1zm3 2h1v1h-1zm-18 2h1v1h-1zm21 0h1v1h-1zm-13 1h1v1h-1zm5 0h1v1h-1zM26 68h1v1h-1zm21 0h1v1h-1zm-29 1h1v1h-1zm3 1h1v1h-1z"/><path fill="#c23" d="M21 48h1v1h-1zm2 0h1v1h-1zm16 0h1v1h-1zm3 0h1v1h-1zm-5 2h1v1h-1zm-21 2h1v1h-1zm21 0h1v1h-1zm9 1h1v1h-1zM16 67h1v1h-1zm28 1h1v1h-1zm0 1h1v1h-1z"/><path fill="#b12" d="M36 47h1v1h-1zm9 0h1v1h-1zm-6 2h1v1h-1zm3 0h1v1h-1zm-26 1h1v1h-1zm23 4h1v1h-1zM17 65h1v1h-1zm18 1h1v1h-1zm11 0h1v1h-1zm-26 1h1v1h-1zm17 2h1v1h-1zm-12 1h1v1h-1z"/><path fill="#dbb" d="M42 62h1v1h-1z"/><path fill="#bba" d="M18 11h1v1h-1zm10 16h1v1h-1zm-7 15h1v1h-1zm2 0h1v1h-1zm6 8h1v1h-1z"/><path fill="#332" d="M22 15h1v1h-1zm1 1h1v1h-1zm0 1h1v1h-1zm4 6h1v1h-1zm19 18h1v1h-1zm-30 5h1v1h-1zm12 0h1v1h-1zm-13 1h1v1h-1zm15 2h1v1h-1zm-7 12h1v1h-1zm26 5h1v1h-1zm-32 8h1v1h-1z"/><path fill="#b23" d="M25 46h1v1h-1zm2 2h1v1h-1zm8 0h1v1h-1zm7 6h1v1h-1zm-4 17h1v1h-1z"/><path fill="#d77" d="M38 46h1v1h-1zm-22 7h1v1h-1zm4 3h1v1h-1zm15 9h1v1h-1zm4 0h1v1h-1zm5 5h1v1h-1zm-19 3h1v1h-1z"/><path fill="#c12" d="M22 48h1v1h-1zm18 0h1v1h-1zm-21 2h1v1h-1zm6 0h1v1h-1zm3 1h1v1h-1zm11 2h1v1h-1zm3 0h1v1h-1zm-4 14h1v1h-1zm5 0h1v1h-1zm-18 1h1v1h-1zm3 0h1v1h-1zm9 0h1v1h-1zm-21 1h1v1h-1zm12 0h1v1h-1zm10 0h1v1h-1zm-18 1h1v1h-1zm4 0h1v1h-1zm-2 1h1v1h-1zm18 0h1v1h-1zm1 0h1v1h-1z"/><path fill="#d89" d="M22 49h1v1h-1zm22 14h1v1h-1zm-19 1h1v1h-1zm21 1h1v1h-1zm-27 6h1v1h-1zm23 1h1v1h-1z"/><path fill="#887" d="M10 13h1v1h-1zm3 4h1v1h-1zm16 5h1v1h-1zm-1 8h1v1h-1zm21 0h1v1h-1zm-2 9h1v1h-1zm-5 3h1v1h-1zm-17 1h1v1h-1z"/><path fill="#fcc" d="M42 47h1v1h-1zm-17 1h1v1h-1zm2 4h1v1h-1zm-8 3h1v1h-1zm1 2h1v1h-1zm4 0h1v1h-1zm13 9h1v1h-1zm-20 1h1v1h-1zm1 0h1v1h-1zm22 3h1v1h-1zm-4 1h1v1h-1z"/><path fill="#d56" d="M46 50h1v1h-1zm-24 3h1v1h-1zm14 2h1v1h-1zm-17 1h1v1h-1zm6 0h1v1h-1zm13 0h1v1h-1zm5 0h1v1h-1zm-22 9h1v1h-1zm2 0h1v1h-1zm4 1h1v1h-1zm10 1h1v1h-1zm-13 1h1v1h-1zm-4 1h1v1h-1zm4 0h1v1h-1zm15 1h1v1h-1zm-22 1h1v1h-1zm0 1h1v1h-1zm10 0h1v1h-1zm-9 1h1v1h-1zm19 0h1v1h-1zm-17 1h1v1h-1zm1 0h1v1h-1zm2 0h1v1h-1zm1 0h1v1h-1zm15 0h1v1h-1zm3 0h1v1h-1z"/></svg>