<svg xmlns="http://www.w3.org/2000/svg" width="66" height="90" baseProfile="tiny" version="1.2"><path fill="#222" d="M34 15h1v1h-1zm-4 7h1v1h-1zm-10 2h1v1h-1zm24 0h1v1h-1zM7 26h1v1H7zm50 0h1v1h-1zM7 47h1v1H7zm50 0h1v1h-1zm-36 1h1v1h-1zm12 4h1v1h-1zm-21 9h1v1h-1zm40 0h1v1h-1zm-42 1h1v1h-1zm44 0h1v1h-1zM9 63h1v1H9zm46 0h1v1h-1zm-44 2h1v1h-1zm1 0h1v1h-1zm4 0h1v1h-1zm3 0h1v1h-1zm26 0h1v1h-1zm3 0h1v1h-1zm4 0h1v1h-1zm1 0h1v1h-1zm-36 2h1v1h-1zm30 0h1v1h-1zm-31 2h1v1h-1zm15 0h1v1h-1zm17 0h1v1h-1zM7 70h1v1H7zm25 0h1v1h-1zm25 0h1v1h-1zm-36 1h1v1h-1zm22 0h1v1h-1zm-33 2h1v1h-1zm44 0h1v1h-1zm-39 2h1v1h-1zm34 0h1v1h-1z"/><path fill="#aa9" d="M9 13h1v1H9zm46 0h1v1h-1zm-19 2h1v1h-1zM9 16h1v1H9zm46 0h1v1h-1zm-28 6h1v1h-1zm-1 47h1v1h-1z"/><path fill="#766" d="M11 13h1v1h-1zm42 0h1v1h-1zm-26 1h1v1h-1zm10 0h1v1h-1zm-19 1h1v1h-1zm11 0h1v1h-1zm17 0h1v1h-1zm-27 1h1v1h-1zm2 0h1v1h-1zm8 0h1v1h-1zm14 0h1v1h-1zm2 0h1v1h-1zm-21 1h1v1h-1zm7 0h1v1h-1zM5 18h1v1H5zm54 0h1v1h-1zm-42 1h1v1h-1zm30 0h1v1h-1zm-20 5h1v1h-1zm4 0h1v1h-1zm-2 1h1v1h-1zm1 11h1v1h-1zM9 37h1v1H9zm46 0h1v1h-1zm-35 1h1v1h-1zm24 0h1v1h-1zm-21 5h1v1h-1zm-5 6h1v1h-1zm21 0h1v1h-1zm7 0h1v1h-1zm-19 2h1v1h-1zm3 8h1v1h-1zM9 60h1v1H9zm46 0h1v1h-1zm-35 1h1v1h-1zm24 0h1v1h-1zm-8 1h1v1h-1zm1 3h1v1h-1zm-14 1h1v1h-1zm7 1h1v1h-1zm-1 2h1v1h-1zm7 2h1v1h-1zm-18 1h1v1h-1zm13 0h1v1h-1zm15 0h1v1h-1z"/><path fill="#a01" d="M33 38h1v1h-1z"/><path fill="#ebc" d="M35 41h1v1h-1zm-20 2h1v1h-1zm34 0h1v1h-1zm-13 1h1v1h-1zm2 2h1v1h-1zM8 47h1v1H8zm48 0h1v1h-1zm-39 2h1v1h-1zm30 0h1v1h-1z"/><path fill="#cbb" d="M16 12h1v1h-1zm32 0h1v1h-1zm-14 5h1v1h-1zm-11 6h1v1h-1zm4 2h1v1h-1zm8 1h1v1h-1zm-22 1h1v1h-1zm1 0h1v1h-1zm17 0h1v1h-1zm1 0h1v1h-1zm18 0h1v1h-1zm1 0h1v1h-1zM13 37h1v1h-1zm1 0h1v1h-1zm18 0h1v1h-1zm18 0h1v1h-1zm1 0h1v1h-1zm-41 1h1v1h-1zm44 0h1v1h-1zm-27 1h1v1h-1zM7 42h1v1H7zm50 0h1v1h-1zM7 45h1v1H7zm50 0h1v1h-1zm-20 3h1v1h-1zm-7 2h1v1h-1zM17 72h1v1h-1zm30 0h1v1h-1z"/><path fill="#666" d="M16 13h1v1h-1zm32 0h1v1h-1zM7 15h1v1H7zm50 0h1v1h-1zM6 16h1v1H6zm52 0h1v1h-1zm-35 4h1v1h-1zm7 0h1v1h-1zm9 0h1v1h-1zm-1 1h1v1h-1zm1 0h1v1h-1zm-13 1h1v1h-1zm12 2h1v1h-1zm-22 3h1v1h-1zm32 0h1v1h-1zM9 28h1v1H9zm46 0h1v1h-1zm-25 1h1v1h-1zm-18 7h1v1h-1zm3 0h1v1h-1zm34 0h1v1h-1zm3 0h1v1h-1zm-36 1h1v1h-1zm2 0h1v1h-1zm28 0h1v1h-1zm2 0h1v1h-1zm-9 6h1v1h-1zm0 1h1v1h-1zM5 46h1v1H5zm54 0h1v1h-1zm-48 6h1v1h-1zm42 0h1v1h-1zm-41 7h1v1h-1zm3 0h1v1h-1zm34 0h1v1h-1zm3 0h1v1h-1zm-34 1h1v1h-1zm28 0h1v1h-1zm-30 1h1v1h-1zm32 0h1v1h-1zm-20 2h1v1h-1zm-17 1h1v1h-1zm42 0h1v1h-1zm-15 2h1v1h-1zm1 0h1v1h-1zm0 1h1v1h-1zm-24 1h1v1h-1zm34 0h1v1h-1zM5 69h1v1H5zm54 0h1v1h-1zm-44 1h1v1h-1zm34 0h1v1h-1zm-16 2h1v1h-1zm6 0h1v1h-1zm-10 1h1v1h-1zm-2 1h1v1h-1zm-16 1h1v1h-1zm42 0h1v1h-1zM0 88h1v1H0zm1 0h1v1H1zm63 0h1v1h-1zm1 0h1v1h-1zM1 89h1v1H1zm1 0h1v1H2zm1 0h1v1H3zm1 0h58v1H4zm58 0h1v1h-1zm1 0h1v1h-1zm1 0h1v1h-1z"/><path fill="#221" d="M15 15h1v1h-1zm34 0h1v1h-1zm-39 1h1v1h-1zm44 0h1v1h-1zM9 17h1v1H9zm46 0h1v1h-1zm-44 2h1v1h-1zm42 0h1v1h-1zm-13 1h1v1h-1zm-21 7h1v1h-1zm26 0h1v1h-1zM6 42h1v1H6zm52 0h1v1h-1zm-34 1h1v1h-1zm-14 7h1v1h-1zm44 0h1v1h-1zM15 61h1v1h-1zm17 0h1v1h-1zm17 0h1v1h-1zm-32 1h1v1h-1zm30 0h1v1h-1zm-29 1h1v1h-1zm28 0h1v1h-1zm-13 1h1v1h-1zm4 0h1v1h-1zM6 65h1v1H6zm52 0h1v1h-1zm-34 1h1v1h-1zm9 9h1v1h-1z"/><path fill="#d88" d="M31 40h1v1h-1zm7 2h1v1h-1z"/><path fill="#c34" d="M36 40h1v1h-1zm-17 1h1v1h-1zm26 0h1v1h-1zm-10 1h1v1h-1zM8 44h1v1H8zm2 0h1v1h-1zm44 0h1v1h-1zm2 0h1v1h-1zm-37 1h1v1h-1zm26 0h1v1h-1zm-8 1h1v1h-1zM9 47h1v1H9zm46 0h1v1h-1z"/><path fill="#444" d="M33 13h1v1h-1zm-5 1h1v1h-1zm-17 1h1v1h-1zm2 0h1v1h-1zm1 0h1v1h-1zm5 0h1v1h-1zm26 0h1v1h-1zm5 0h1v1h-1zm1 0h1v1h-1zm2 0h1v1h-1zm-17 1h1v1h-1zm-21 3h1v1h-1zm34 0h1v1h-1zm-39 1h1v1h-1zm44 0h1v1h-1zm-36 4h1v1h-1zm28 0h1v1h-1zm-28 2h1v1h-1zm28 0h1v1h-1zm-15 3h1v1h-1zm-21 8h1v1h-1zm25 0h1v1h-1zm19 0h1v1h-1zM8 39h1v1H8zm36 0h1v1h-1zm12 0h1v1h-1zm-17 1h1v1h-1zm-18 1h1v1h-1zm18 1h1v1h-1zm-17 4h1v1h-1zm20 0h1v1h-1zm-2 1h1v1h-1zm-5 3h1v1h-1zm-1 2h1v1h-1zm-24 8h1v1h-1zm7 0h1v1h-1zm18 0h1v1h-1zm12 0h1v1h-1zm7 0h1v1h-1zm-26 2h1v1h-1zm1 0h1v1h-1zm15 0h1v1h-1zm-8 1h1v1h-1zm3 0h1v1h-1zm-18 1h1v1h-1zm18 1h1v1h-1zm-17 4h1v1h-1zm20 0h1v1h-1zM9 70h1v1H9zm31 0h1v1h-1zm15 0h1v1h-1zm-21 5h1v1h-1z"/><path fill="#776" d="M33 17h1v1h-1zM5 23h1v1H5zm3 0h1v1H8zm48 0h1v1h-1zm3 0h1v1h-1zm-31 2h1v1h-1zm2 1h1v1h-1zM7 38h1v1H7zm50 0h1v1h-1zM11 62h1v1h-1zm42 0h1v1h-1zM7 64h1v1H7zm50 0h1v1h-1zm-26 1h1v1h-1zm4 6h1v1h-1zm-19 1h1v1h-1zm32 0h1v1h-1z"/><path fill="#998" d="M31 22h1v1h-1zm-11 1h1v1h-1zm9 0h1v1h-1zm15 0h1v1h-1zM26 63h1v1h-1zm7 0h1v1h-1zm9 1h1v1h-1zm-14 3h1v1h-1z"/><path fill="#bbb" d="M0 1h1v1H0zm1 0h1v1H1zm63 0h1v1h-1zm1 0h1v1h-1zM34 12h1v1h-1zm-7 1h1v1h-1zm-15 1h1v1h-1zm3 0h1v1h-1zm16 0h1v1h-1zm2 0h1v1h-1zm16 0h1v1h-1zm3 0h1v1h-1zm-42 1h1v1h-1zm18 0h1v1h-1zm26 0h1v1h-1zm-30 1h1v1h-1zm3 0h1v1h-1zM5 17h1v1H5zm3 0h1v1H8zm48 0h1v1h-1zm3 0h1v1h-1zm-41 1h1v1h-1zm20 0h1v1h-1zm8 0h1v1h-1zM7 19h1v1H7zm13 0h1v1h-1zm21 0h1v1h-1zm3 0h1v1h-1zm13 0h1v1h-1zM7 20h1v1H7zm5 0h1v1h-1zm40 0h1v1h-1zm5 0h1v1h-1zM7 21h1v1H7zm50 0h1v1h-1zM7 22h1v1H7zm6 0h1v1h-1zm1 0h1v1h-1zm6 0h1v1h-1zm24 0h1v1h-1zm6 0h1v1h-1zm1 0h1v1h-1zm6 0h1v1h-1zm-22 1h1v1h-1zm-25 1h1v1h-1zm44 0h1v1h-1zm-36 1h1v1h-1zm16 0h1v1h-1zm12 0h1v1h-1zm-13 2h1v1h-1zm4 1h1v1h-1zm-2 1h1v1h-1zm-23 6h1v1h-1zm3 0h1v1h-1zm16 0h1v1h-1zm2 0h1v1h-1zm16 0h1v1h-1zm3 0h1v1h-1zM9 36h1v1H9zm46 0h1v1h-1zm-24 1h1v1h-1zm7 0h1v1h-1zm1 1h1v1h-1zm-16 8h1v1h-1zM5 47h1v1H5zm54 0h1v1h-1zm-19 1h1v1h-1zm-19 1h1v1h-1zm22 0h1v1h-1zM7 50h1v1H7zm50 0h1v1h-1zm-47 2h1v1h-1zm44 0h1v1h-1zm-42 6h1v1h-1zm1 0h1v1h-1zm2 0h1v1h-1zm16 0h1v1h-1zm2 0h1v1h-1zm16 0h1v1h-1zm2 0h1v1h-1zm1 0h1v1h-1zM9 59h1v1H9zm46 0h1v1h-1zm-41 1h1v1h-1zm18 0h1v1h-1zm6 0h1v1h-1zm12 0h1v1h-1zm-40 1h1v1h-1zm7 0h1v1h-1zm22 0h1v1h-1zm8 0h1v1h-1zm7 0h1v1h-1zM9 62h1v1H9zm18 0h1v1h-1zm3 0h1v1h-1zm25 0h1v1h-1zM8 63h1v1H8zm11 0h1v1h-1zm26 0h1v1h-1zm11 0h1v1h-1zm-18 1h1v1h-1zM7 65h1v1H7zm13 0h1v1h-1zm24 0h1v1h-1zm13 0h1v1h-1zM7 66h1v1H7zm8 0h1v1h-1zm34 0h1v1h-1zm8 0h1v1h-1zM7 67h1v1H7zm5 0h1v1h-1zm40 0h1v1h-1zm5 0h1v1h-1zM7 68h1v1H7zm13 0h1v1h-1zm11 0h1v1h-1zm13 0h1v1h-1zm13 0h1v1h-1zm-39 1h1v1h-1zm5 0h1v1h-1zm23 0h1v1h-1zm-27 1h1v1h-1zm15 0h1v1h-1zm11 0h1v1h-1zM9 71h1v1H9zm7 0h1v1h-1zm21 0h1v1h-1zm3 0h1v1h-1zm8 0h1v1h-1zm7 0h1v1h-1zm-34 1h1v1h-1zm22 0h1v1h-1zM7 73h1v1H7zm23 0h1v1h-1zm27 0h1v1h-1zm-47 2h1v1h-1zm44 0h1v1h-1zM1 85h1v1H1zm63 0h1v1h-1zM2 86h1v1H2zm1 0h1v1H3zm59 0h1v1h-1zm1 0h1v1h-1z"/><g fill="#fff"><path d="M4 1h1v1H4zm1 0h1v1H5zm1 0h54v1H6zm54 0h1v1h-1zm1 0h1v1h-1zM3 2h1v1H3zm1 0h1v1H4zm1 0h56v1H5zm56 0h1v1h-1zm1 0h1v1h-1zM2 3h1v1H2zm1 0h1v1H3zm1 0h2v1H4zm2 0h54v1H6zm54 0h2v1h-2zm2 0h1v1h-1zm1 0h1v1h-1zM2 4h1v2H2zm1 0h1v3H3zm1 0h1v1H4zm1 0h56v8H5zm56 0h1v1h-1zm1 0h1v3h-1zm1 0h1v2h-1z"/><path d="M4 5h58v2H4zM3 7h1v1H3zm1 0h1v1H4zm57 0h1v1h-1zm1 0h1v1h-1zM3 8h1v73H3zm1 0h1v73H4zm57 0h1v74h-1zm1 0h1v73h-1zM5 12h4v1H5zm4 0h1v1H9zm9 0h1v1h-1zm1 0h9v1h-9zm17 0h1v1h-1zm1 0h9v1h-9zm9 0h1v1h-1zm9 0h1v1h-1zm1 0h5v1h-5zM5 13h3v1H5zm15 0h6v1h-6zm6 0h1v1h-1zm12 0h1v1h-1zm1 0h6v1h-6zm18 0h4v1h-4zM5 14h2v1H5zm16 0h4v1h-4zm4 0h1v1h-1zm14 0h1v1h-1zm1 0h4v1h-4zm18 0h3v1h-3zM5 15h1v1H5zm17 0h2v1h-2zm2 0h1v1h-1zm16 0h3v1h-3zm19 0h2v1h-2zM5 16h1v1H5zm7 0h1v1h-1zm1 0h2v1h-2zm2 0h1v1h-1zm7 0h1v1h-1zm1 0h1v1h-1zm8 0h3v1h-3zm10 0h1v2h-1zm1 0h1v1h-1zm7 0h1v1h-1zm1 0h2v1h-2zm2 0h1v1h-1zm7 0h1v1h-1zm1 0h1v66h-1zm-37 1h1v1h-1zm6 0h1v1h-1zm6 0h1v1h-1zm-7 1h1v1h-1zm8 0h1v1h-1zM9 19h1v1H9zm9 0h1v1h-1zm18 0h1v1h-1zm10 0h1v1h-1zm9 0h1v1h-1zM9 20h1v2H9zm4 0h2v2h-2zm5 0h1v2h-1zm13 0h2v2h-2zm2 0h1v1h-1zm13 0h1v2h-1zm4 0h2v2h-2zm5 0h1v2h-1zm-22 1h1v1h-1zm-15 1h1v1h-1zm18 0h1v1h-1zm10 0h1v1h-1zm-36 1h1v1h-1zm18 0h1v1h-1zm26 0h1v1h-1zm-43 1h1v1h-1zm5 0h1v1h-1zm7 0h1v1h-1zm6 0h1v1h-1zm12 0h1v17h-1zm7 0h1v1h-1zm5 0h1v1h-1zM5 25h1v15H5zm8 0h2v1h-2zm9 0h1v1h-1zm1 0h1v15h-1zm8 0h1v1h-1zm1 0h1v1h-1zm1 0h1v1h-1zm9 0h1v1h-1zm8 0h2v1h-2z"/><path d="M59 25h2v15h-2zm-37 1h2v13h-2zm2 0h1v1h-1zm16 0h3v13h-3zM6 27h1v11H6z"/><path d="M21 27h4v11h-4zm4 0h1v1h-1zm14 0h5v11h-5zm19 0h3v11h-3zM7 28h1v9H7z"/><path d="M20 28h6v9h-6zm6 0h1v1h-1zm12 0h7v9h-7zm19 0h4v9h-4zM8 29h2v7H8z"/><path d="M18 29h10v7H18zm10 0h1v1h-1zm8 0h1v1h-1zm1 0h10v7H37zm18 0h6v7h-6z"/><path d="M10 30h51v5H10zm0 5h1v1h-1zm18 0h1v1h-1zm8 0h1v1h-1zm18 0h1v1h-1zM8 36h1v1H8zm18 0h1v1h-1zm30 0h1v1h-1zm-31 1h1v1h-1zm-1 1h1v1h-1zm-11 1h2v1h-2zm9 0h1v1h-1zm9 0h1v1h-1zm1 0h1v1h-1zm1 0h1v1h-1zm9 0h1v1h-1zm8 0h2v1h-2zm-39 1h1v1h-1zm5 0h1v1h-1zm7 0h1v1h-1zm6 0h1v1h-1zm19 0h1v1h-1zm5 0h1v1h-1zm-43 1h1v1h-1zm18 0h1v1h-1zm13 0h1v1h-1zm13 0h1v1h-1zm-36 1h1v1h-1zm18 0h1v1h-1zm10 0h1v1h-1zM9 43h1v2H9zm4 0h2v2h-2zm5 0h1v2h-1zm13 0h2v2h-2zm2 0h1v1h-1zm13 0h1v2h-1zm4 0h2v2h-2zm5 0h1v2h-1zm-22 1h1v1h-1zM9 45h1v1H9zm9 0h1v1h-1zm18 0h1v1h-1zm10 0h1v1h-1zm9 0h1v1h-1zm-27 1h1v1h-1zm8 0h1v1h-1zm-13 1h1v1h-1zm6 0h1v1h-1zm6 0h1v1h-1zm6 0h1v17h-1zM5 48h1v1H5zm7 0h1v1h-1zm1 0h2v1h-2zm2 0h1v1h-1zm7 0h1v1h-1zm1 0h1v15h-1zm8 0h3v1h-3zm11 0h1v1h-1zm7 0h1v1h-1zm1 0h2v1h-2zm2 0h1v1h-1zm7 0h1v1h-1zM5 49h1v14H5z"/><path d="M22 49h2v13h-2zm2 0h1v1h-1zm16 0h3v13h-3zm19 0h2v14h-2zM6 50h1v11H6z"/><path d="M21 50h4v11h-4zm18 0h1v1h-1zm4 0h1v11h-1zm15 0h3v11h-3zM7 51h1v9H7z"/><path d="M20 51h6v9h-6zm6 0h1v1h-1zm12 0h1v1h-1zm1 0h6v9h-6zm18 0h4v9h-4zM8 52h1v7H8zm1 0h1v1H9zm9 0h1v1h-1z"/><path d="M19 52h9v7h-9zm18 0h9v7h-9zm9 0h1v1h-1zm9 0h1v1h-1zm1 0h5v7h-5z"/><path d="M9 53h52v5H9zm0 5h1v1H9zm1 0h1v1h-1zm8 0h10v1H18zm10 0h1v1h-1zm8 0h1v1h-1zm10 0h1v1h-1zm8 0h1v1h-1zm1 0h6v1h-6zM8 59h1v1H8zm11 0h1v1h-1zm7 0h1v1h-1zm12 0h7v1h-7zm7 0h1v1h-1zm11 0h1v1h-1zm-31 1h1v1h-1zm14 0h5v1h-5zm-15 1h1v1h-1zm-11 1h2v1h-2zm9 0h1v1h-1zm9 0h1v1h-1zm1 0h1v1h-1zm1 0h1v1h-1zm9 0h1v1h-1zm8 0h2v1h-2zm-39 1h1v1h-1zm5 0h1v1h-1zm7 0h1v1h-1zm6 0h1v1h-1zm19 0h1v1h-1zm5 0h1v1h-1zm-43 1h1v1h-1zm18 0h1v1h-1zm13 0h1v1h-1zm13 0h1v1h-1zm-36 1h1v1h-1zm18 0h1v1h-1zm10 0h1v1h-1zM9 66h1v2H9zm4 0h2v2h-2zm5 0h1v2h-1zm13 0h2v2h-2zm2 0h1v1h-1zm13 0h1v2h-1zm4 0h2v2h-2zm5 0h1v2h-1zm-22 1h1v1h-1zM9 68h1v1H9zm9 0h1v1h-1zm18 0h1v1h-1zm10 0h1v1h-1zm9 0h1v1h-1zm-27 1h1v1h-1zm8 0h1v1h-1zm-13 1h1v1h-1zm6 0h1v1h-1zm6 0h1v1h-1zm6 0h1v14h-1zM5 71h1v1H5zm7 0h1v1h-1zm1 0h2v1h-2zm2 0h1v1h-1zm7 0h1v1h-1zm1 0h1v13h-1zm8 0h3v1h-3zm11 0h1v1h-1zm7 0h1v1h-1zm1 0h2v1h-2zm2 0h1v1h-1zm7 0h1v1h-1zM5 72h1v10H5z"/><path d="M22 72h2v12h-2zm2 0h1v1h-1zm16 0h3v12h-3zm19 0h2v10h-2zM6 73h1v10H6z"/><path d="M21 73h4v11h-4zm18 0h1v1h-1zm4 0h1v11h-1zm15 0h3v9h-3zM7 74h1v10H7z"/><path d="M20 74h6v10h-6zm6 0h1v1h-1zm12 0h1v1h-1zm1 0h6v10h-6zm18 0h4v8h-4zM8 75h1v9H8zm1 0h1v1H9zm9 0h1v1h-1z"/><path d="M19 75h9v9h-9zm18 0h9v9h-9zm9 0h1v1h-1zm9 0h1v1h-1zm1 0h5v7h-5z"/><path d="M9 76h52v6H9zm-6 5h1v1H3zm1 0h1v2H4zm58 0h1v1h-1zM3 82h1v1H3zm2 0h1v1H5zm4 0h51v1H9zm51 0h1v1h-1zm1 0h1v1h-1zm1 0h1v1h-1zM3 83h1v1H3zm1 0h1v1H4zm1 0h1v1H5zm1 0h1v1H6zm3 0h50v1H9zm50 0h1v1h-1zm1 0h1v1h-1zm1 0h1v1h-1zm1 0h1v1h-1zM5 84h1v1H5zm1 0h1v1H6zm1 0h1v1H7zm1 0h50v1H8zm50 0h1v1h-1zm1 0h1v1h-1zm1 0h1v1h-1z"/></g><path fill="#a99" d="M13 12h1v1h-1zm18 0h1v1h-1zm20 0h1v1h-1zm-33 1h1v1h-1zm28 0h1v1h-1zm-8 1h1v1h-1zm1 1h1v1h-1zm-28 1h1v1h-1zm42 0h1v1h-1zm-33 2h1v1h-1zm24 0h1v1h-1zm-13 1h1v1h-1zm-19 5h1v1h-1zm40 0h1v1h-1zm-28 1h1v1h-1zm13 0h1v1h-1zm-1 11h1v1h-1zm-24 1h1v1h-1zm14 0h1v1h-1zm26 0h1v1h-1zm-24 1h1v1h-1zm-5 4h1v1h-1zm-3 4h1v1h-1zm24 0h1v1h-1zm-8 13h1v1h-1zm-24 1h1v1h-1zm40 0h1v1h-1zm-34 4h1v1h-1zm11 0h1v1h-1zm17 0h1v1h-1zm-32 1h1v1h-1zm9 0h1v1h-1zm4 0h1v1h-1zm23 0h1v1h-1zM9 69h1v1H9zm11 0h1v1h-1zm15 0h1v1h-1zm9 0h1v1h-1zm11 0h1v1h-1zm-37 2h1v1h-1zm28 0h1v1h-1zm-26 2h1v1h-1zm24 0h1v1h-1z"/><path fill="#887" d="M17 13h1v1h-1zm30 0h1v1h-1zM34 27h1v1h-1zm-5 9h1v1h-1zm-10 1h1v1h-1zm26 0h1v1h-1z"/><path fill="#eed" d="M19 13h1v1h-1zm26 0h1v1h-1z"/><path fill="#dbb" d="M17 38h1v1h-1zm30 0h1v1h-1zM9 39h1v1H9zm46 0h1v1h-1zM8 40h1v1H8zm48 0h1v1h-1zm-18 1h1v1h-1zm-18 1h1v1h-1zm24 0h1v1h-1zM7 43h1v1H7zm50 0h1v1h-1zM7 44h1v1H7zm50 0h1v1h-1zm-37 1h1v1h-1zm24 0h1v1h-1z"/><path fill="#d9a" d="M14 42h1v1h-1zm36 0h1v1h-1z"/><path fill="#e89" d="M33 40h1v1h-1zm-23 2h1v1h-1zm44 0h1v1h-1zm-26 2h1v1h-1zm5 1h1v1h-1zm-4 4h1v1h-1z"/><path fill="#d56" d="M11 41h1v1h-1zm42 0h1v1h-1zm-15 2h1v1h-1zm-19 1h1v1h-1zm19 0h1v1h-1zm7 0h1v1h-1zm-30 1h1v1h-1zm2 0h1v1h-1zm30 0h1v1h-1zm2 0h1v1h-1zM8 46h1v1H8zm19 0h1v1h-1zm29 0h1v1h-1zm-28 2h1v1h-1zm-16 1h1v1h-1zm3 0h1v1h-1zm15 0h1v1h-1zm3 0h1v1h-1zm1 0h1v1h-1zm15 0h1v1h-1zm3 0h1v1h-1z"/><path fill="#b02" d="M30 42h1v1h-1zm5 2h1v1h-1zm-24 1h1v1h-1zm18 0h1v1h-1zm24 0h1v1h-1zm-41 1h1v1h-1zm18 0h1v1h-1zm4 0h1v1h-1zm18 0h1v1h-1z"/><path fill="#ccc" d="M1 0h1v1H1zm1 0h1v1H2zm61 0h1v1h-1zm1 0h1v1h-1zM1 2h1v1H1zm63 0h1v1h-1zM29 12h1v1h-1zm8 1h1v1h-1zm-17 1h1v1h-1zm24 0h1v1h-1zm-22 3h1v1h-1zm-9 2h1v1h-1zm1 0h1v1h-1zm14 0h1v1h-1zm22 0h1v1h-1zm1 0h1v1h-1zm-36 1h1v1h-1zm21 0h1v1h-1zm13 0h1v1h-1zm-34 1h1v1h-1zm21 0h1v1h-1zm13 0h1v1h-1zm-17 1h1v1h-1zm6 1h1v1h-1zM5 24h1v1H5zm3 0h1v1H8zm9 0h1v1h-1zm2 0h1v1h-1zm11 0h1v1h-1zm15 0h1v1h-1zm2 0h1v1h-1zm9 0h1v1h-1zm3 0h1v1h-1zM9 25h1v1H9zm21 0h1v1h-1zm25 0h1v1h-1zm-45 1h1v1h-1zm7 0h1v1h-1zm30 0h1v1h-1zm7 0h1v1h-1zm-34 1h1v1h-1zm24 0h1v1h-1zm-14 8h1v1h-1zm4 0h1v1h-1zm-7 1h1v1h-1zm-3 3h1v1h-1zM5 40h1v1H5zm17 0h1v1h-1zm20 0h1v1h-1zm17 0h1v1h-1zm-18 2h1v1h-1zm-22 9h1v1h-1zm26 0h1v1h-1zm-15 7h1v1h-1zm4 0h1v1h-1zm-7 1h1v1h-1zm-3 3h1v1h-1zM5 63h1v1H5zm12 0h1v1h-1zm5 0h1v1h-1zm8 0h1v1h-1zm12 0h1v1h-1zm5 0h1v1h-1zm12 0h1v1h-1zm-24 1h1v1h-1zm6 1h1v1h-1zm-5 1h1v1h-1zm0 1h1v1h-1zm-8 1h1v1h-1zM8 70h1v1H8zm48 0h1v1h-1zm-29 1h1v1h-1zm-17 1h1v1h-1zm18 0h1v1h-1zm26 0h1v1h-1zm-42 1h2v1h-2zm2 0h2v1h-2zm17 0h1v1h-1zm1 0h1v1h-1zm1 0h1v1h-1zm16 0h1v1h-1zm1 0h1v1h-1zm1 0h2v1h-2zm-32 1h1v1h-1zm26 0h1v1h-1zM1 84h1v1H1zm63 0h1v1h-1zM2 85h1v1H2zm61 0h1v1h-1zM4 86h1v1H4zm1 0h1v1H5zm1 0h1v1H6zm1 0h52v1H7zm52 0h1v1h-1zm1 0h1v1h-1zm1 0h1v1h-1z"/><path fill="#999" d="M0 3h1v1H0zm65 0h1v1h-1zM0 4h1v1H0zm65 0h1v1h-1zm-51 8h1v1h-1zm18 0h1v1h-1zm18 0h1v1h-1zM9 18h1v1H9zm17 0h1v1h-1zm29 0h1v1h-1zm-32 1h1v1h-1zm2 1h1v1h-1zm3 0h1v1h-1zm-3 1h1v1h-1zm3 0h1v1h-1zm-13 3h1v1h-1zm11 0h1v1h-1zm11 0h1v1h-1zm12 0h1v1h-1zm-33 1h1v1h-1zm32 0h1v1h-1zm-37 1h1v1h-1zm42 0h1v1h-1zm-23 1h1v1h-1zm-3 1h1v1h-1zm-16 1h1v1h-1zm42 0h1v1h-1zm-25 7h1v1h-1zm-3 2h1v1h-1zm12 1h1v1h-1zm-11 1h1v1h-1zm14 0h1v1h-1zm-18 1h1v1h-1zm3 2h1v1h-1zm16 0h1v1h-1zm-16 1h1v1h-1zm-3 3h1v1h-1zm20 0h1v1h-1zm-26 3h1v1h-1zm32 0h1v1h-1zm-13 2h1v1h-1zm-7 7h1v1h-1zm-3 2h1v1h-1zm3 0h1v1h-1zm1 0h1v1h-1zm8 1h1v1h-1zm3 1h1v1h-1zm-18 1h1v1h-1zm-12 1h1v1h-1zm3 0h1v1h-1zm38 0h1v1h-1zm3 0h1v1h-1zm-29 1h1v1h-1zm3 0h1v1h-1zm13 0h1v1h-1zm-16 1h1v1h-1zm8 1h1v1h-1zm-11 2h1v1h-1zm6 0h1v1h-1zm2 0h1v1h-1zm12 0h1v1h-1zm-13 2h1v1h-1zm-13 1h1v1h-1zm32 0h1v1h-1zM3 88h1v1H3zm59 0h1v1h-1z"/><path fill="#888" d="M0 5h1v1H0zm65 0h1v1h-1zM0 6h1v1H0zm65 0h1v1h-1zM0 7h1v1H0zm65 0h1v1h-1zM0 8h1v73H0zm65 0h1v73h-1zm-55 5h1v1h-1zm18 0h1v1h-1zm26 0h1v1h-1zm-43 1h1v1h-1zm42 0h1v1h-1zm-28 1h1v1h-1zm10 0h1v1h-1zm-17 1h1v1h-1zm28 0h1v1h-1zm-31 1h1v1h-1zm25 0h1v1h-1zm9 0h1v1h-1zM7 18h1v1H7zm15 0h1v1h-1zm20 0h1v1h-1zm15 0h1v1h-1zm-47 1h1v1h-1zm44 0h1v1h-1zm-13 2h1v1h-1zM9 23h1v1H9zm46 0h1v1h-1zm-19 3h1v1h-1zm2 1h1v1h-1zm-22 2h1v1h-1zm32 0h1v1h-1zm-31 7h1v1h-1zm18 0h1v1h-1zm12 0h1v1h-1zM8 37h1v1H8zm48 0h1v1h-1zm-15 7h1v1h-1zM7 46h1v1H7zm50 0h1v1h-1zm-33 2h1v1h-1zm-13 2h1v1h-1zm42 0h1v1h-1zm-24 2h1v1h-1zm-12 7h1v1h-1zm12 0h1v1h-1zm6 0h1v1h-1zm12 0h1v1h-1zM8 60h1v1H8zm11 0h1v1h-1zm11 0h1v1h-1zm15 0h1v1h-1zm11 0h1v1h-1zm-25 3h1v1h-1zm7 2h1v1h-1zm3 2h1v1h-1zm-3 1h1v1h-1zM7 69h1v1H7zm50 0h1v1h-1zm-33 2h1v1h-1zm5 0h1v1h-1zM0 81h1v2H0zm65 0h1v2h-1zM0 83h1v1H0zm65 0h1v1h-1zM1 87h1v1H1zm63 0h1v1h-1zM2 88h1v1H2zm61 0h1v1h-1z"/><path fill="#edd" d="M10 12h1v1h-1zm44 0h1v1h-1zM6 15h1v1H6zm52 0h1v1h-1zM10 29h1v1h-1zm44 0h1v1h-1z"/><path fill="#a02" d="M31 38h1v1h-1z"/><path fill="#b13" d="M48 46h1v1h-1z"/><path fill="#ccb" d="M11 12h1v1h-1zm42 0h1v1h-1zm-11 5h1v1h-1zm-4 52h1v1h-1z"/><path fill="#d99" d="M29 38h1v1h-1zm-16 4h1v1h-1zm38 0h1v1h-1zm-21 5h1v1h-1z"/><path fill="#daa" d="M35 38h1v1h-1zm-17 1h1v1h-1zm28 0h1v1h-1z"/><path fill="#e9a" d="M15 40h1v1h-1zm34 0h1v1h-1zm-31 1h1v1h-1zm28 0h1v1h-1zm-19 1h1v1h-1zm-15 1h1v1h-1zm25 0h1v1h-1zm15 0h1v1h-1zM9 46h1v1H9zm17 0h1v1h-1zm9 0h1v1h-1zm20 0h1v1h-1zm-37 2h1v1h-1zm28 0h1v1h-1z"/><path fill="#e99" d="M29 41h1v1h-1zm-1 2h1v1h-1zm0 4h1v1h-1z"/><path fill="#665" d="M9 14h1v1H9zm20 0h1v1h-1zm26 0h1v1h-1zm-35 1h1v1h-1zm24 0h1v1h-1zm-7 2h1v1h-1zm-1 7h1v1h-1zm-1 1h1v1h-1zm-23 1h1v1h-1zm40 0h1v1h-1zM38 38h1v1h-1zm0 2h1v1h-1zM16 52h1v1h-1zm32 0h1v1h-1zm-15 7h1v1h-1zm-17 1h1v1h-1zm32 0h1v1h-1zm-10 1h1v1h-1zm0 2h1v1h-1z"/><path fill="#333" d="M26 16h1v1h-1zm12 0h1v1h-1zm-11 1h1v1h-1zm-15 2h1v1h-1zm12 0h1v1h-1zm28 0h1v1h-1zm-18 1h1v1h-1zm0 1h1v1h-1zm-15 1h1v1h-1zm26 0h1v1h-1zm-24 3h1v1h-1zm22 0h1v1h-1zm-11 4h1v1h-1zm-6 10h1v1h-1zm-6 1h1v1h-1zM5 42h1v1H5zm54 0h1v1h-1zm-34 4h1v1h-1zm-5 1h1v1h-1zm24 0h1v1h-1zm-18 3h1v1h-1zm0 12h1v1h-1zm-6 1h1v1h-1zM5 65h1v1H5zm54 0h1v1h-1zm-42 1h1v1h-1zm30 0h1v1h-1zm-22 3h1v1h-1zm-5 1h1v1h-1zm24 0h1v1h-1zm-18 3h1v1h-1z"/><path fill="#111" d="M21 23h1v1h-1zm3 0h1v1h-1zM6 24h1v1H6zm15 0h1v1h-1zm18 0h1v1h-1zm4 0h1v1h-1zm15 0h1v1h-1zM7 25h1v1H7zm13 0h1v1h-1zm5 0h1v1h-1zm14 0h1v1h-1zm5 0h1v1h-1zm13 0h1v1h-1zM8 26h1v1H8zm11 0h1v1h-1zm7 0h1v1h-1zm11 0h1v1h-1zm1 0h1v1h-1zm7 0h1v1h-1zm11 0h1v1h-1zM9 27h1v1H9zm1 0h1v1h-1zm8 0h1v1h-1zm10 0h1v1h-1zm8 0h1v1h-1zm10 0h1v1h-1zm8 0h1v1h-1zm1 0h1v1h-1zm-43 1h1v1h-1zm1 0h2v1h-2zm2 0h1v1h-1zm15 0h1v1h-1zm1 0h1v1h-1zm1 0h1v1h-1zm1 0h1v1h-1zm1 0h1v1h-1zm15 0h1v1h-1zm1 0h2v1h-2zm2 0h1v1h-1zM24 46h1v1h-1zm16 0h1v1h-1zM6 47h1v1H6zm15 0h1v1h-1zm18 0h1v1h-1zm4 0h1v1h-1zm15 0h1v1h-1zM7 48h1v1H7zm13 0h1v1h-1zm5 0h1v1h-1zm14 0h1v1h-1zm5 0h1v1h-1zm13 0h1v1h-1zM8 49h1v1H8zm11 0h1v1h-1zm1 0h1v1h-1zm6 0h1v1h-1zm12 0h1v1h-1zm6 0h1v1h-1zm1 0h1v1h-1zm11 0h1v1h-1zM9 50h1v1H9zm9 0h1v1h-1zm1 0h1v1h-1zm8 0h1v1h-1zm1 0h1v1h-1zm8 0h1v1h-1zm9 0h1v1h-1zm1 0h1v1h-1zm9 0h1v1h-1zm-44 1h1v1h-1zm1 0h1v1h-1zm3 0h1v1h-1zm1 0h1v1h-1zm13 0h1v1h-1zm1 0h1v1h-1zm1 0h1v1h-1zm2 0h1v1h-1zm1 0h1v1h-1zm2 0h1v1h-1zm12 0h1v1h-1zm1 0h1v1h-1zm3 0h1v1h-1zm1 0h1v1h-1zm-40 1h1v1h-1zm1 0h1v1h-1zm36 0h1v1h-1zm1 0h1v1h-1zm-20 9h1v1h-1zm2 0h1v1h-1zm-9 8h1v1h-1zm16 0h1v1h-1zM6 70h1v1H6zm15 0h1v1h-1zm18 0h1v1h-1zm4 0h1v1h-1zm15 0h1v1h-1zM7 71h1v1H7zm13 0h1v1h-1zm5 0h1v1h-1zm14 0h1v1h-1zm5 0h1v1h-1zm13 0h1v1h-1zM7 72h1v1H7zm1 0h1v1H8zm11 0h1v1h-1zm1 0h1v1h-1zm6 0h1v1h-1zm12 0h1v1h-1zm6 0h1v1h-1zm1 0h1v1h-1zm11 0h1v1h-1zm1 0h1v1h-1zM8 73h1v1H8zm1 0h1v1H9zm9 0h1v1h-1zm1 0h1v1h-1zm8 0h1v1h-1zm1 0h1v1h-1zm8 0h1v1h-1zm9 0h1v1h-1zm1 0h1v1h-1zm9 0h1v1h-1zm1 0h1v1h-1zm-45 1h1v1h-1zm1 0h1v1h-1zm3 0h1v1h-1zm1 0h1v1h-1zm13 0h1v1h-1zm1 0h1v1h-1zm1 0h1v1h-1zm2 0h1v1h-1zm1 0h1v1h-1zm2 0h1v1h-1zm12 0h1v1h-1zm1 0h1v1h-1zm3 0h1v1h-1zm1 0h1v1h-1zm-40 1h1v1h-1zm1 0h1v1h-1zm36 0h1v1h-1zm1 0h1v1h-1z"/><path fill="#b24" d="M30 38h1v1h-1z"/><path fill="#d45" d="M16 41h1v1h-1zm32 0h1v1h-1zm-38 2h1v1h-1zm35 0h1v1h-1zm9 0h1v1h-1zm-42 2h1v1h-1zm14 0h1v1h-1zm26 0h1v1h-1zm-33 1h1v1h-1zm26 0h1v1h-1zm-27 1h1v1h-1zm9 0h1v1h-1zm19 0h1v1h-1zm-36 1h1v1h-1zm7 0h1v1h-1zm30 0h1v1h-1zm7 0h1v1h-1z"/><path fill="#cbc" d="M28 49h1v1h-1z"/><path fill="#eee" d="M3 1h1v1H3zm59 0h1v1h-1zM2 2h1v1H2zm61 0h1v1h-1zM1 3h1v1H1zm63 0h1v1h-1zM1 4h1v1H1zm63 0h1v1h-1zM1 5h1v1H1zm63 0h1v1h-1zM2 6h1v1H2zm61 0h1v1h-1zM2 7h1v1H2zm61 0h1v1h-1zM2 8h1v74H2zm61 0h1v74h-1zm-35 4h1v1h-1zM8 13h1v1H8zm48 0h1v1h-1zm-26 3h1v1h-1zm-19 1h1v1h-1zm5 0h1v1h-1zm1 0h1v1h-1zm30 0h1v1h-1zm1 0h1v1h-1zm5 0h1v1h-1zm-43 1h1v1h-1zm31 0h1v1h-1zm13 0h1v1h-1zM9 22h1v1H9zm46 0h1v1h-1zm-38 1h1v1h-1zm19 0h1v1h-1zm5 0h1v1h-1zm6 0h1v1h-1zm-12 1h1v1h-1zm-20 1h1v1h-1zm34 0h1v1h-1zM6 26h1v1H6zm52 0h1v1h-1zM8 28h1v1H8zm11 0h1v1h-1zm26 0h1v1h-1zm11 0h1v1h-1zm-39 7h1v1h-1zm18 0h1v1h-1zm12 0h1v1h-1zM7 37h1v1H7zm50 0h1v1h-1zM6 38h1v1H6zm15 0h1v1h-1zm22 0h1v1h-1zm15 0h1v1h-1zm-18 1h1v1h-1zm1 7h1v1h-1zm-16 4h1v1h-1zm11 2h1v1h-1zm-19 6h1v1h-1zm18 0h1v1h-1zm12 0h1v1h-1zM7 60h1v1H7zm50 0h1v1h-1zM6 61h1v1H6zm15 0h1v1h-1zm22 0h1v1h-1zm15 0h1v1h-1zm-18 1h1v1h-1zm-5 1h1v1h-1zm-18 1h1v1h-1zm19 0h1v1h-1zm11 0h1v1h-1zM9 65h1v1H9zm46 0h1v1h-1zm-23 3h1v1h-1zm-22 1h1v1h-1zm31 0h1v1h-1zm13 0h1v1h-1zm-43 1h1v1h-1zm6 0h1v1h-1zm30 0h1v1h-1zm6 0h1v1h-1zm-23 1h1v1h-1zm-5 2h1v1h-1zm11 2h1v1h-1zM2 82h1v1H2zm61 0h1v1h-1zM2 83h1v1H2zm61 0h1v1h-1zM3 84h1v1H3zm1 0h1v1H4zm57 0h1v1h-1zm1 0h1v1h-1zM9 85h48v1H9z"/><path fill="#777" d="M29 13h1v1h-1zm6 0h1v1h-1zm-16 1h1v1h-1zm26 0h1v1h-1zm-7 3h1v1h-1zm-5 2h1v1h-1zm-16 3h1v1h-1zm8 0h1v1h-1zm8 0h1v1h-1zm4 0h1v1h-1zm10 0h1v1h-1zM7 23h1v1H7zm50 0h1v1h-1zm-24 1h1v1h-1zm1 5h1v1h-1zm-18 7h1v1h-1zm18 0h1v1h-1zm14 0h1v1h-1zm-21 1h1v1h-1zm10 0h1v1h-1zm6 2h1v1h-1zm-19 1h1v1h-1zM7 41h1v1H7zm50 0h1v1h-1zm-32 1h1v1h-1zm-2 3h1v1h-1zm-4 3h1v1h-1zm26 0h1v1h-1zM16 59h1v1h-1zm18 0h1v1h-1zm14 0h1v1h-1zm-21 1h1v1h-1zm10 0h1v1h-1zM7 61h1v1H7zm4 0h1v1h-1zm42 0h1v1h-1zm4 0h1v1h-1zm-14 1h1v1h-1zm-19 1h1v1h-1zm8 0h1v1h-1zm-7 2h1v1h-1zm-2 3h1v1h-1zm-11 2h1v1h-1zm24 0h1v1h-1zm1 0h1v1h-1zm15 0h1v1h-1zm-33 1h1v1h-1zm26 0h1v1h-1zm-34 1h1v1h-1zm2 0h1v1h-1zm1 0h1v1h-1zm18 0h1v1h-1zm18 0h1v1h-1zm1 0h1v1h-1zm2 0h1v1h-1zM0 84h1v1H0zm65 0h1v1h-1zM0 85h1v1H0zm65 0h1v1h-1zM0 86h1v1H0zm65 0h1v1h-1zM0 87h1v1H0zm65 0h1v1h-1z"/><path fill="#ebb" d="M30 39h1v1h-1zm-11 1h1v1h-1zm26 0h1v1h-1zm-33 4h1v1h-1zm40 0h1v1h-1zm-21 1h1v1h-1zm-13 1h1v1h-1zm28 0h1v1h-1zm-27 1h1v1h-1zm15 0h1v1h-1zm11 0h1v1h-1zm-29 1h1v1h-1zm32 0h1v1h-1z"/><path fill="#eaa" d="M34 39h1v1h-1zm-22 1h1v1h-1zm40 0h1v1h-1zm-26 1h1v1h-1zm11 3h1v1h-1zm-10 1h1v1h-1zm-16 3h1v1h-1zm42 0h1v1h-1zm-18 1h1v1h-1z"/><path fill="#c24" d="M27 41h1v1h-1zm7 0h1v1h-1zM8 43h1v1H8zm48 0h1v1h-1zm-22 1h1v1h-1z"/><path fill="#211" d="M12 15h1v1h-1zm18 0h1v1h-1zm22 0h1v1h-1zm-40 3h1v1h-1zm1 0h1v1h-1zm1 0h1v1h-1zm1 0h1v1h-1zm16 0h1v1h-1zm1 0h1v1h-1zm1 0h1v1h-1zm16 0h1v1h-1zm1 0h1v1h-1zm1 0h1v1h-1zm1 0h1v1h-1zM6 19h1v1H6zm2 0h1v1H8zm8 0h1v1h-1zm14 0h1v1h-1zm4 0h1v1h-1zm14 0h1v1h-1zm8 0h1v1h-1zm2 0h1v1h-1zM5 20h1v1H5zm1 0h1v1H6zm5 0h1v2h-1zm5 0h1v1h-1zm5 0h1v1h-1zm3 0h1v1h-1zm5 0h1v1h-1zm6 0h1v1h-1zm8 0h1v1h-1zm5 0h1v1h-1zm5 0h1v2h-1zm5 0h1v1h-1zm1 0h1v1h-1zM5 21h1v1H5zm1 0h1v1H6zm10 0h1v1h-1zm5 0h1v1h-1zm1 0h1v1h-1zm2 0h1v1h-1zm5 0h1v1h-1zm6 0h1v1h-1zm5 0h1v1h-1zm2 0h1v1h-1zm1 0h1v1h-1zm5 0h1v1h-1zm10 0h1v1h-1zm1 0h1v1h-1zM6 22h1v1H6zm5 0h1v1h-1zm5 0h1v1h-1zm5 0h1v1h-1zm1 0h1v1h-1zm2 0h1v1h-1zm5 0h1v1h-1zm5 0h1v1h-1zm6 0h1v1h-1zm2 0h1v1h-1zm1 0h1v1h-1zm5 0h1v1h-1zm5 0h1v1h-1zm5 0h1v1h-1zM6 23h1v1H6zm6 0h1v1h-1zm1 0h1v1h-1zm1 0h1v1h-1zm1 0h1v1h-1zm15 0h1v1h-1zm1 0h1v1h-1zm1 0h1v1h-1zm1 0h1v1h-1zm1 0h1v1h-1zm5 0h1v1h-1zm1 0h1v1h-1zm3 0h1v1h-1zm6 0h1v1h-1zm1 0h1v1h-1zm1 0h1v1h-1zm1 0h1v1h-1zm6 0h1v1h-1zM7 24h1v1H7zm18 0h1v1h-1zm32 0h1v1h-1zm-31 1h1v1h-1zm12 0h1v1h-1zm-18 1h1v1h-1zm7 0h1v1h-1zm17 0h1v1h-1zm-27 1h1v1h-1zm30 0h1v1h-1zm-19 1h1v1h-1zM5 43h1v1H5zm1 0h1v1H6zm15 0h1v1h-1zm22 0h1v1h-1zm15 0h1v1h-1zm1 0h1v1h-1zM5 44h1v1H5zm1 0h1v1H6zm15 0h1v1h-1zm1 0h1v1h-1zm2 0h1v1h-1zm16 0h1v1h-1zm2 0h1v1h-1zm1 0h1v1h-1zm15 0h1v1h-1zm1 0h1v1h-1zM6 45h1v1H6zm15 0h1v1h-1zm1 0h1v1h-1zm2 0h1v1h-1zm16 0h1v1h-1zm2 0h1v1h-1zm1 0h1v1h-1zm15 0h1v1h-1zM6 46h1v1H6zm15 0h1v1h-1zm18 0h1v1h-1zm4 0h1v1h-1zm15 0h1v1h-1zm-34 1h1v1h-1zm1 0h1v1h-1zm13 1h1v1h-1zM7 49h1v1H7zm30 0h1v1h-1zm20 0h1v1h-1zM8 50h1v1H8zm48 0h1v1h-1zm-43 1h2v1h-2zm19 0h1v1h-1zm18 0h2v1h-2zm-19 1h1v1h-1zm-18 9h1v1h-1zm1 0h1v1h-1zm36 0h1v1h-1zm1 0h1v1h-1zm-38 3h2v1h-2zm18 0h1v1h-1zm1 0h1v1h-1zm18 0h2v1h-2zM8 65h1v1H8zm22 0h1v1h-1zm4 0h1v1h-1zm22 0h1v1h-1zM5 66h1v1H5zm1 0h1v1H6zm5 0h1v1h-1zm5 0h1v1h-1zm5 0h1v1h-1zm8 0h1v1h-1zm6 0h1v1h-1zm8 0h1v1h-1zm5 0h1v1h-1zm5 0h1v1h-1zm5 0h1v1h-1zm1 0h1v1h-1zM5 67h1v1H5zm1 0h1v1H6zm5 0h1v1h-1zm5 0h1v1h-1zm5 0h1v1h-1zm1 0h1v1h-1zm2 0h1v1h-1zm5 0h1v1h-1zm6 0h1v1h-1zm5 0h1v1h-1zm2 0h1v1h-1zm1 0h1v1h-1zm5 0h1v1h-1zm5 0h1v1h-1zm5 0h1v1h-1zm1 0h1v1h-1zM6 68h1v1H6zm5 0h1v1h-1zm5 0h1v1h-1zm5 0h1v1h-1zm1 0h1v1h-1zm2 0h1v1h-1zm5 0h1v1h-1zm5 0h1v1h-1zm1 0h1v1h-1zm5 0h1v1h-1zm2 0h1v1h-1zm1 0h1v1h-1zm5 0h1v1h-1zm5 0h1v1h-1zm5 0h1v1h-1zM6 69h1v1H6zm6 0h1v1h-1zm3 0h1v1h-1zm6 0h1v1h-1zm9 0h1v1h-1zm3 0h1v1h-1zm1 0h1v1h-1zm5 0h1v1h-1zm4 0h1v1h-1zm6 0h1v1h-1zm3 0h1v1h-1zm6 0h1v1h-1zm-34 1h1v1h-1zm1 0h1v1h-1zm13 1h1v1h-1zm-1 1h1v1h-1zm-24 2h2v1h-2zm19 0h1v1h-1zm18 0h2v1h-2zm-19 1h1v1h-1z"/><path fill="#dcc" d="M23 18h1v1h-1zm-7 17h1v1h-1zm32 0h1v1h-1zM27 48h1v1h-1zM6 49h1v1H6zm52 0h1v1h-1zm-46 1h1v1h-1zm3 0h1v1h-1zm34 0h1v1h-1zm3 0h1v1h-1zM6 72h1v1H6zm52 0h1v1h-1z"/><path fill="#a12" d="M12 38h1v1h-1zm1 0h1v1h-1zm1 0h1v1h-1zm1 0h1v1h-1zm17 0h1v1h-1zm17 0h1v1h-1zm1 0h1v1h-1zm1 0h1v1h-1zm1 0h1v1h-1zm-42 1h1v1h-1zm7 0h1v1h-1zm30 0h1v1h-1zm7 0h1v1h-1z"/><path fill="#c66" d="M36 39h1v1h-1zm-8 1h1v1h-1zm-13 7h1v1h-1zm34 0h1v1h-1z"/><path fill="#eab" d="M10 40h1v1h-1zm44 0h1v1h-1zm-34 3h1v1h-1zm24 0h1v1h-1zm-24 1h1v1h-1zm24 0h1v1h-1zM9 48h1v1H9zm46 0h1v1h-1z"/><path fill="#c67" d="M11 38h1v1h-1zm42 0h1v1h-1zm-42 1h1v1h-1zm42 0h1v1h-1zm-22 3h1v1h-1zm-19 5h1v1h-1zm40 0h1v1h-1z"/><path fill="#b44" d="M34 38h1v1h-1z"/><path fill="#b23" d="M35 39h1v1h-1zm-20 3h1v1h-1zm34 0h1v1h-1zm-38 4h1v1h-1zm42 0h1v1h-1zm-40 1h1v1h-1zm1 0h1v1h-1zm18 0h1v1h-1zm18 0h1v1h-1zm1 0h1v1h-1z"/><path fill="#ddd" d="M3 0h1v1H3zm1 0h1v1H4zm1 0h56v1H5zm56 0h1v1h-1zm1 0h1v1h-1zM2 1h1v1H2zm61 0h1v1h-1zM1 6h1v1H1zm63 0h1v1h-1zM1 7h1v1H1zm63 0h1v1h-1zM1 8h1v1H1zm63 0h1v1h-1zM1 9h1v73H1zm63 0h1v73h-1zm-47 3h1v1h-1zm18 0h1v1h-1zm12 0h1v1h-1zM7 14h1v1H7zm50 0h1v1h-1zm-36 1h1v1h-1zm22 0h1v1h-1zm-3 1h1v1h-1zm-23 2h1v1h-1zm30 0h1v1h-1zm-15 1h1v1h-1zm-5 1h1v1h-1zm0 1h1v1h-1zm1 1h1v1h-1zm6 2h1v1h-1zm-22 1h1v1h-1zm28 0h1v1h-1zm12 0h1v1h-1zm-31 1h1v1h-1zm22 0h1v1h-1zM7 27h1v1H7zm50 0h1v1h-1zm-40 2h1v1h-1zm30 0h1v1h-1zm-36 6h1v1h-1zm18 0h1v1h-1zm24 0h1v1h-1zm-16 1h1v1h-1zm-17 1h1v1h-1zm24 0h1v1h-1zm-21 4h1v1h-1zM8 51h1v1H8zm48 0h1v1h-1zm-28 1h1v1h-1zm-17 6h1v1h-1zm18 0h1v1h-1zm24 0h1v1h-1zm-16 1h1v1h-1zm-17 1h1v1h-1zm24 0h1v1h-1zm-32 2h1v1h-1zm3 0h1v1h-1zm34 0h1v1h-1zm3 0h1v1h-1zm-18 1h1v1h-1zm-11 1h1v1h-1zm5 1h1v1h-1zm-1 1h1v1h-1zm0 1h1v1h-1zm-14 1h1v1h-1zm1 0h1v1h-1zm36 0h1v1h-1zm1 0h1v1h-1zm-34 1h1v1h-1zm30 0h1v1h-1zm-37 1h1v1h-1zm6 0h1v1h-1zm32 0h1v1h-1zm6 0h1v1h-1zm-20 1h1v1h-1zM8 74h1v1H8zm48 0h1v1h-1zm-28 1h1v1h-1zM1 82h1v1H1zm63 0h1v1h-1zM1 83h1v1H1zm63 0h1v1h-1zM2 84h1v1H2zm61 0h1v1h-1zM3 85h1v1H3zm1 0h1v1H4zm1 0h1v1H5zm1 0h1v1H6zm1 0h2v1H7zm50 0h2v1h-2zm2 0h1v1h-1zm1 0h1v1h-1zm1 0h1v1h-1zm1 0h1v1h-1z"/><path fill="#baa" d="M30 12h1v1h-1zm-17 2h1v1h-1zm17 0h1v1h-1zm2 0h1v1h-1zm19 0h1v1h-1zm-34 1h1v1h-1zm30 0h1v1h-1zm-27 5h1v1h-1zm0 1h1v1h-1zm24 0h1v1h-1zm-3 1h1v1h-1zm-15 1h1v1h-1zm3 3h1v1h-1zm-14 1h1v1h-1zm34 0h1v1h-1zm-35 8h1v1h-1zm18 0h1v1h-1zm18 0h1v1h-1zm-32 1h1v1h-1zm28 0h1v1h-1zm-13 1h1v1h-1zm-7 10h1v1h-1zm10 2h1v1h-1zm-2 1h1v1h-1zm-17 2h1v1h-1zm30 0h1v1h-1zm-15 6h1v1h-1zm-14 1h1v1h-1zm-8 4h1v1h-1zm2 0h1v1h-1zm40 0h1v1h-1zm2 0h1v1h-1zm-34 3h1v1h-1zm24 0h1v2h-1zm-24 1h1v1h-1zm7 1h1v1h-1zM5 70h1v1H5zm21 0h1v1h-1zm33 0h1v1h-1z"/><path fill="#544" d="M12 13h1v1h-1zm3 0h1v1h-1zm34 0h1v1h-1zm3 0h1v1h-1zm-17 1h1v1h-1zm1 0h1v1h-1zM8 15h1v1H8zm24 0h1v1h-1zm24 0h1v1h-1zm-21 1h1v1h-1zm8 1h1v1h-1zM8 18h1v1H8zm3 0h1v1h-1zm13 0h1v1h-1zm3 0h1v1h-1zm26 0h1v1h-1zm3 0h1v1h-1zm-34 1h1v1h-1zm4 0h1v1h-1zm13 0h1v1h-1zm3 0h1v1h-1zm-32 2h1v1h-1zm44 0h1v1h-1zm-39 1h1v1h-1zm34 0h1v1h-1zm-38 1h1v1h-1zm16 0h1v1h-1zm26 0h1v1h-1zM9 24h1v1H9zm46 0h1v1h-1zm3 1h1v1h-1zm-25 4h1v1h-1zm-4 8h1v1h-1zm-11 1h1v1h-1zm1 0h1v1h-1zm26 0h1v1h-1zm1 0h1v1h-1zM7 39h1v1H7zm13 0h1v1h-1zm37 0h1v1h-1zm-14 1h1v1h-1zm-4 5h1v1h-1zM29 60h1v1h-1zm-11 1h1v1h-1zm16 0h1v1h-1zm12 0h1v1h-1zM7 62h1v1H7zm12 0h1v1h-1zm1 0h1v1h-1zm25 0h1v1h-1zm12 0h1v1h-1zm-30 1h1v1h-1zm16 0h1v1h-1zm-33 3h1v1h-1zm44 0h1v1h-1zm-15 2h1v1h-1zm-20 1h1v1h-1zm26 0h1v1h-1zm-27 1h1v1h-1zm15 0h1v1h-1zm13 0h1v1h-1zm-11 3h1v1h-1z"/><path fill="#988" d="M36 13h1v1h-1zm-20 1h1v1h-1zm10 0h1v1h-1zm22 0h1v1h-1zm-36 3h1v1h-1zm16 0h1v1h-1zm24 0h1v1h-1zm-11 3h1v1h-1zm-31 2h1v1h-1zm28 0h1v1h-1zm16 0h1v1h-1zm-43 3h1v1h-1zm25 0h1v1h-1zm17 0h1v1h-1zm-37 1h1v1h-1zm23 0h1v1h-1zm9 0h1v1h-1zM10 36h1v1h-1zm44 0h1v1h-1zm-24 1h1v1h-1zm-10 4h1v1h-1zm22 0h1v1h-1zm2 0h1v1h-1zm-7 10h1v1h-1zm-27 8h1v1h-1zm44 0h1v1h-1zm-34 5h1v1h-1zm24 0h1v1h-1zm-33 9h1v1h-1zm42 0h1v1h-1zm-16 1h1v1h-1zm-2 1h1v1h-1z"/><path fill="#554" d="M25 16h1v1h-1zM6 25h1v1H6zm13 0h1v1h-1zm26 0h1v1h-1zM19 39h1v1h-1zm26 0h1v1h-1zm-23 3h1v1h-1zm20 0h1v1h-1zM19 61h1v1h-1zm26 0h1v1h-1zm-3 4h1v1h-1zm-30 3h1v1h-1zm40 0h1v1h-1z"/><path fill="#fcc" d="M30 40h1v1h-1zm6 3h1v1h-1zm-8 2h1v1h-1z"/><path fill="#c13" d="M12 41h1v1h-1zm3 0h1v1h-1zm34 0h1v1h-1zm3 0h1v1h-1zm-35 3h1v1h-1zm30 0h1v1h-1zm-34 2h1v1h-1zm38 0h1v1h-1z"/><path fill="#c02" d="M13 41h1v1h-1zm1 0h1v1h-1zm18 0h1v1h-1zm18 0h1v1h-1zm1 0h1v1h-1zm-17 1h1v1h-1zm-23 1h1v1h-1zm5 0h1v1h-1zm32 0h1v1h-1zm5 0h1v1h-1zm-42 1h1v1h-1zm5 0h1v1h-1zm13 0h1v1h-1zm19 0h1v1h-1zm5 0h1v1h-1zm-37 1h1v1h-1zm32 0h1v1h-1zm-33 1h1v1h-1zm34 0h1v1h-1z"/><path fill="#dab" d="M32 42h1v1h-1z"/><path fill="#fee" d="M19 36h1v1h-1zm26 0h1v1h-1zm-10 4h1v1h-1zm-18 1h1v1h-1zm19 0h1v1h-1zm11 0h1v1h-1zM9 42h1v1H9zm46 0h1v1h-1zm-23 3h1v1h-1zm-22 1h1v1h-1zm44 0h1v1h-1zm-43 1h1v1h-1zm6 0h1v1h-1zm30 0h1v1h-1zm6 0h1v1h-1zm-23 1h1v1h-1z"/><path fill="#b12" d="M9 40h1v1H9zm9 0h1v1h-1zm28 0h1v1h-1zm9 0h1v1h-1zm-18 1h1v1h-1zM8 42h1v1H8zm4 0h1v1h-1zm7 0h1v1h-1zm26 0h1v1h-1zm7 0h1v1h-1zm4 0h1v1h-1zm-21 3h1v1h-1zm-19 1h1v1h-1z"/><path fill="#d77" d="M14 40h1v1h-1zm36 0h1v1h-1z"/><path fill="#d67" d="M32 40h1v1h-1zm5 2h1v1h-1zm-7 2h1v1h-1zm-1 2h1v1h-1zm7 1h1v1h-1zm-1 1h1v1h-1zm1 0h1v1h-1zm-23 1h1v1h-1zm1 0h1v1h-1zm2 0h1v1h-1zm15 0h1v1h-1zm1 0h1v1h-1zm16 0h1v1h-1zm2 0h1v1h-1zm1 0h1v1h-1z"/><path fill="#100" d="M32 52h1v1h-1zm0 23h1v1h-1z"/><path fill="#655" d="M30 13h1v1h-1zm4 0h1v1h-1zm-16 1h1v1h-1zm28 0h1v1h-1zm-8 1h1v1h-1zm-25 2h1v1h-1zm1 0h1v1h-1zm22 0h1v1h-1zm14 0h1v1h-1zm1 0h1v1h-1zm-32 3h1v1h-1zm19 0h1v1h-1zm7 0h1v1h-1zm-22 1h1v1h-1zm7 0h1v1h-1zm-11 2h1v1h-1zm26 0h1v1h-1zm-32 1h1v1h-1zm38 0h1v1h-1zm-41 1h1v1h-1zm44 0h1v1h-1zm-39 1h1v1h-1zm10 0h1v1h-1zm7 0h1v1h-1zm17 0h1v1h-1zM31 36h1v1h-1zm2 0h1v1h-1zm-22 1h1v1h-1zm25 0h1v1h-1zm17 0h1v1h-1zm-27 1h1v1h-1zm13 1h1v1h-1zm1 2h1v1h-1zm-11 9h1v1h-1zm9 0h1v1h-1zm-25 9h1v1h-1zm1 0h1v1h-1zm17 0h1v1h-1zm19 0h1v1h-1zm1 0h1v1h-1zm-40 1h1v1h-1zm25 0h1v1h-1zm17 0h1v1h-1zm-27 1h1v1h-1zm13 1h1v1h-1zM8 64h1v1H8zm32 0h1v1h-1zm16 0h1v1h-1zm-30 1h1v1h-1zm-7 2h1v1h-1zm19 0h1v1h-1zm7 0h1v1h-1zm-28 1h1v1h-1zm30 0h1v1h-1zM8 69h1v1H8zm19 0h1v1h-1zm29 0h1v1h-1zM8 71h1v1H8zm20 0h1v1h-1zm28 0h1v1h-1zM9 72h1v1H9zm3 0h1v1h-1zm3 0h1v1h-1zm15 0h1v1h-1zm4 0h1v1h-1zm15 0h1v1h-1zm3 0h1v1h-1zm3 0h1v1h-1zm-39 3h1v1h-1zm32 0h1v1h-1z"/><path fill="#555" d="M9 15h1v1H9zm17 0h1v1h-1zm29 0h1v1h-1zM8 16h1v1H8zm31 0h1v1h-1zm17 0h1v1h-1zm-35 1h1v1h-1zm11 0h1v1h-1zm8 1h1v1h-1zm-21 3h1v1h-1zm26 0h1v1h-1zm-23 2h1v1h-1zm20 0h1v1h-1zm-28 1h1v1h-1zm18 0h1v1h-1zm8 0h1v1h-1zm10 0h1v1h-1zm-33 1h1v1h-1zm30 0h1v1h-1zm-34 1h2v1h-2zm18 0h1v1h-1zm2 0h1v1h-1zm17 0h2v1h-2zm-39 1h1v1h-1zm15 0h1v1h-1zm27 0h1v1h-1zm-35 1h1v1h-1zm28 0h1v1h-1zm-34 1h1v1h-1zm3 0h1v1h-1zm34 0h1v1h-1zm3 0h1v1h-1zm-39 7h2v1h-2zm19 0h1v1h-1zm18 0h2v1h-2zm-22 1h1v1h-1zM8 38h1v1H8zm48 0h1v1h-1zm-31 1h1v1h-1zm-4 1h1v1h-1zm3 1h1v1h-1zm-1 3h1v1h-1zM8 48h1v1H8zm48 0h1v1h-1zM9 49h1v1H9zm46 0h1v1h-1zM32 59h1v1h-1zm-4 1h1v1h-1zM8 61h1v1H8zm48 0h1v1h-1zm-31 1h1v1h-1zm-4 1h1v1h-1zm-5 1h1v1h-1zm8 0h1v1h-1zm24 0h1v1h-1zm-26 1h1v1h-1zm11 0h1v1h-1zm-14 1h1v1h-1zm11 0h1v1h-1zm15 0h1v1h-1zm-22 1h1v1h-1zm3 1h1v1h-1zm1 2h1v1h-1zm-17 1h1v1h-1zm7 0h1v1h-1zm30 0h1v1h-1zm7 0h1v1h-1zm-16 2h1v1h-1z"/><path fill="#b34" d="M28 39h1v1h-1zm1 0h1v1h-1zm2 8h1v1h-1z"/><path fill="#fcd" d="M15 44h1v1h-1zm34 0h1v1h-1zm-36 1h1v1h-1zm38 0h1v1h-1zm-41 2h1v1h-1zm44 0h1v1h-1zm-20 1h1v1h-1z"/><path fill="#443" d="M31 13h1v1h-1zm-14 1h1v1h-1zm30 0h1v1h-1zM7 16h1v1H7zm13 0h1v1h-1zm37 0h1v1h-1zm-36 2h1v1h-1zm4 0h1v1h-1zM13 29h1v1h-1zm38 0h1v1h-1zm-34 8h1v1h-1zm30 0h1v1h-1zM9 38h1v1H9zm28 0h1v1h-1zm18 0h1v1h-1zm-15 4h1v1h-1zm-15 7h1v1h-1zM9 61h1v1H9zm28 0h1v1h-1zm18 0h1v1h-1zM8 62h1v1H8zm48 0h1v1h-1zm-37 2h1v1h-1zm24 0h1v1h-1zm2 0h1v1h-1zm-5 1h1v1h-1zm-30 2h1v1h-1zm44 0h1v1h-1z"/><path fill="#877" d="M8 14h1v1H8zm48 0h1v1h-1zm-27 4h1v1h-1zm-4 1h1v1h-1zm12 0h1v1h-1zm1 0h1v1h-1zm-15 3h1v1h-1zm5 2h1v1h-1zm6 2h1v1h-1zM11 36h1v1h-1zm42 0h1v1h-1zm-19 1h1v1h-1zm2 1h1v1h-1zM6 39h1v1H6zm15 0h1v1h-1zm37 0h1v1h-1zM5 41h1v1H5zm54 0h1v1h-1zm-34 4h1v1h-1zm13 2h1v1h-1zM11 59h1v1h-1zm42 0h1v1h-1zm-19 1h1v1h-1zm2 1h1v1h-1zM6 62h1v1H6zm10 0h1v1h-1zm5 0h1v1h-1zm27 0h1v1h-1zm10 0h1v1h-1zm-45 1h1v1h-1zm1 0h1v1h-1zm23 0h1v1h-1zm13 0h1v1h-1zm1 0h1v1h-1zM5 64h1v1H5zm4 0h1v1H9zm46 0h1v1h-1zm4 0h1v1h-1zm-42 1h1v1h-1zm30 0h1v1h-1zm-37 3h1v1h-1zm15 0h1v1h-1zm12 0h1v1h-1zm17 0h1v1h-1zm-16 2h1v1h-1zm-9 5h1v1h-1z"/><path fill="#bba" d="M14 14h1v1h-1zm36 0h1v1h-1zm-13 2h1v1h-1zM13 35h1v1h-1zm38 0h1v1h-1zM14 58h1v1h-1zm36 0h1v1h-1zm-4 1h1v1h-1zm-33 1h1v1h-1zm18 0h1v1h-1zm20 0h1v1h-1zM34 73h1v1h-1z"/><path fill="#ddc" d="M34 16h1v1h-1zm-24 1h1v1h-1zm44 0h1v1h-1zM16 58h1v1h-1zm32 0h1v1h-1zm-33 9h1v1h-1zm34 0h1v1h-1z"/><path fill="#c56" d="M16 38h1v1h-1zm32 0h1v1h-1zM8 41h1v1H8zm48 0h1v1h-1zm-30 1h1v1h-1z"/><path fill="#aaa" d="M0 2h1v1H0zm65 0h1v1h-1zM12 12h1v1h-1zm3 0h1v1h-1zm18 0h1v1h-1zm16 0h1v1h-1zm3 0h1v1h-1zm-18 2h1v1h-1zm-18 2h1v1h-1zm32 0h1v1h-1zm-29 1h1v1h-1zm7 0h1v1h-1zm4 0h1v1h-1zm15 0h1v1h-1zm-10 1h1v1h-1zm-8 1h1v1h-1zm10 1h1v1h-1zm7 0h1v1h-1zm-32 1h1v1h-1zm25 0h1v1h-1zm15 0h1v1h-1zm-34 2h1v1h-1zm28 0h1v1h-1zm-24 1h1v1h-1zm20 0h1v1h-1zm-14 2h1v1h-1zm-16 1h1v1h-1zm40 0h1v1h-1zm-23 2h1v1h-1zm-14 8h1v1h-1zm34 0h1v1h-1zm-8 8h1v1h-1zm-21 5h1v1h-1zm24 0h1v1h-1zM15 60h1v1h-1zm11 0h1v1h-1zm7 0h1v1h-1zm16 0h1v1h-1zm-14 1h1v1h-1zm-17 1h1v1h-1zm16 0h1v1h-1zm12 0h1v1h-1zm-31 1h1v1h-1zm34 0h1v1h-1zm-23 1h1v1h-1zm6 1h1v1h-1zm-20 1h1v1h-1zm25 0h1v1h-1zm15 0h1v1h-1zm-15 1h1v1h-1zm4 1h1v1h-1zm-30 3h1v1h-1zm42 0h1v1h-1zm-18 1h1v1h-1zm1 0h1v1h-1zm-19 3h1v1h-1zm30 0h1v1h-1zM1 86h1v1H1zm63 0h1v1h-1zM2 87h1v1H2zm1 0h1v1H3zm1 0h1v1H4zm1 0h56v1H5zm56 0h1v1h-1zm1 0h1v1h-1zm1 0h1v1h-1zM4 88h1v1H4zm1 0h56v1H5zm56 0h1v1h-1z"/><path fill="#110" d="M27 27h1v1h-1zm10 0h1v1h-1zm-27 1h1v1h-1zm1 0h1v1h-1zm5 0h1v1h-1zm1 0h1v1h-1zm12 0h1v1h-1zm6 0h1v1h-1zm12 0h1v1h-1zm1 0h1v1h-1zm5 0h1v1h-1zm1 0h1v1h-1zM37 50h1v1h-1zm-27 1h1v1h-1zm7 0h1v1h-1zm11 0h1v1h-1zm7 0h1v1h-1zm12 0h1v1h-1zm7 0h1v1h-1zM37 73h1v1h-1zm-27 1h1v1h-1zm7 0h1v1h-1zm11 0h1v1h-1zm7 0h1v1h-1zm12 0h1v1h-1zm7 0h1v1h-1z"/><path fill="#fde" d="M15 39h1v1h-1zm34 0h1v1h-1zm-33 8h1v1h-1zm32 0h1v1h-1z"/><path fill="#c23" d="M30 41h1v1h-1zm-1 1h1v1h-1zm-12 1h1v1h-1zm9 0h1v1h-1zm8 0h1v1h-1zm13 0h1v1h-1zm-21 1h1v1h-1zM8 45h1v1H8zm22 0h1v1h-1zm26 0h1v1h-1zm-42 1h1v1h-1zm18 0h1v1h-1zm18 0h1v1h-1z"/><path fill="#c12" d="M31 41h1v1h-1zm2 0h1v1h-1zm-22 1h1v1h-1zm5 0h1v1h-1zm32 0h1v1h-1zm5 0h1v1h-1zm-24 1h1v1h-1zm6 0h1v1h-1zm-1 2h1v1h-1zm-3 1h1v1h-1zm2 0h1v1h-1z"/><path fill="#ecc" d="M17 40h1v1h-1zm30 0h1v1h-1zm-37 9h1v1h-1zm44 0h1v1h-1zm-41 1h1v1h-1zm1 0h1v1h-1zm17 0h1v1h-1zm1 0h1v1h-1zm1 0h1v1h-1zm17 0h1v1h-1zm1 0h1v1h-1z"/><path fill="#c45" d="M27 40h1v1h-1zm6 2h1v1h-1zm-14 1h1v1h-1zm11 0h1v1h-1zm3 4h1v1h-1z"/><path fill="#433" d="M13 13h2v1h-2zm19 0h1v1h-1zm18 0h2v1h-2zm-40 1h1v1h-1zm44 0h1v1h-1zm-38 1h1v1h-1zm11 0h1v1h-1zm4 0h1v1h-1zm6 0h1v1h-1zm11 0h1v1h-1zm-4 1h1v1h-1zM6 17h1v1H6zm14 0h1v1h-1zm5 0h1v1h-1zm14 0h1v1h-1zm5 0h1v1h-1zm14 0h1v1h-1zm-42 1h1v1h-1zm27 0h1v1h-1zm5 0h1v1h-1zm-8 1h1v1h-1zM8 20h1v1H8zm48 0h1v1h-1zM8 21h1v1H8zm48 0h1v1h-1zm-44 1h1v1h-1zm27 0h1v1h-1zm13 0h1v1h-1zm-36 1h1v1h-1zm21 0h1v1h-1zm11 0h1v1h-1zM8 25h1v1H8zm48 0h1v1h-1zM9 26h1v1H9zm46 0h1v1h-1zm-26 1h1v1h-1zm-15 2h1v1h-1zm36 0h1v1h-1zm-23 9h1v1h-1zm11 1h1v1h-1zM6 40h1v1H6zm19 0h1v1h-1zm33 0h1v1h-1zm-33 1h1v1h-1zm18 0h1v1h-1zm-19 1h1v1h-1zM6 48h1v1H6zm52 0h1v1h-1zM9 51h1v1H9zm46 0h1v1h-1zm-25 1h1v1h-1zm-3 9h1v1h-1zm3 0h1v1h-1zm8 1h1v1h-1zM6 63h1v1H6zm19 0h1v1h-1zm33 0h1v1h-1zm-33 1h1v1h-1zm2 0h1v1h-1zm7 0h1v1h-1zm-10 1h1v1h-1zm11 0h1v1h-1zM8 66h1v1H8zm48 0h1v1h-1zM8 67h1v1H8zm26 0h1v1h-1zm22 0h1v1h-1zm-37 1h1v1h-1zm26 0h1v1h-1zm-8 1h1v1h-1zm-6 1h1v1h-1zM6 71h1v1H6zm52 0h1v1h-1zm-33 1h1v1h-1zM9 74h1v1H9zm46 0h1v1h-1zm-25 1h1v1h-1z"/><path fill="#332" d="M33 15h1v1h-1zm-14 3h1v1h-1zm26 0h1v1h-1zm-10 1h1v1h-1zm-9 2h1v1h-1zM5 22h1v1H5zm54 0h1v1h-1zm-23 6h1v1h-1zm8 12h1v1h-1zM18 51h1v1h-1zm28 0h1v1h-1zm-2 12h1v1h-1zm-14 1h1v1h-1zm-19 5h1v1h-1zm21 0h1v1h-1zm21 0h1v1h-1z"/><path fill="#322" d="M17 16h1v1h-1zm11 0h1v1h-1zm19 0h1v1h-1zM7 17h1v1H7zm11 0h1v1h-1zm28 0h1v1h-1zm11 0h1v1h-1zM6 18h1v1H6zm24 0h1v1h-1zm4 0h1v1h-1zm3 0h1v1h-1zm2 0h1v1h-1zm19 0h1v1h-1zM5 19h1v1H5zm14 0h1v1h-1zm2 0h1v1h-1zm8 0h1v1h-1zm14 0h1v1h-1zm2 0h1v1h-1zm14 0h1v1h-1zm-42 1h1v1h-1zm5 0h1v1h-1zm4 0h1v1h-1zm16 0h1v1h-1zm5 0h1v1h-1zm-30 1h1v1h-1zm30 0h1v1h-1zM8 22h1v1H8zm27 0h1v1h-1zm21 0h1v1h-1zm-31 1h1v1h-1zm-1 1h1v1h-1zM8 27h1v1H8zm27 0h1v1h-1zm21 0h1v1h-1zM7 40h1v1H7zm50 0h1v1h-1zM6 41h1v1H6zm33 0h1v1h-1zm19 0h1v1h-1zm-37 1h1v1h-1zm22 0h1v1h-1zm-21 1h1v1h-1zm18 0h1v1h-1zm2 0h1v1h-1zM5 45h1v1H5zm54 0h1v1h-1zm-33 3h1v1h-1zm17 0h1v1h-1zm-16 1h1v1h-1zm-10 1h1v1h-1zm30 0h1v1h-1zm-35 2h1v1h-1zm3 0h1v1h-1zm34 0h1v1h-1zm3 0h1v1h-1zM35 62h1v1h-1zM7 63h1v1H7zm50 0h1v1h-1zM6 64h1v1H6zm6 0h1v1h-1zm3 0h1v1h-1zm24 0h1v1h-1zm10 0h1v1h-1zm3 0h1v1h-1zm6 0h1v1h-1zm-43 1h1v1h-1zm6 0h1v1h-1zm8 0h1v1h-1zm14 0h1v1h-1zm6 0h1v1h-1zm-27 1h1v1h-1zm4 0h1v1h-1zm8 0h1v1h-1zm6 0h1v1h-1zm2 0h1v1h-1zm-16 1h1v1h-1zM5 68h1v1H5zm3 0h1v1H8zm22 0h1v1h-1zm26 0h1v1h-1zm3 0h1v1h-1zm-46 1h1v1h-1zm1 0h1v1h-1zm36 0h1v1h-1zm1 0h1v1h-1zm-38 1h1v1h-1zm1 0h1v1h-1zm36 0h1v1h-1zm1 0h1v1h-1zm-25 1h1v1h-1zm1 1h1v1h-1zm-10 1h1v1h-1zm30 0h1v1h-1zm-29 1h1v1h-1zm28 0h1v1h-1zm-34 1h1v1h-1zm40 0h1v1h-1z"/><path fill="#fdd" d="M12 39h1v1h-1zm40 0h1v1h-1zm-18 1h1v1h-1zm-6 2h1v1h-1zm-1 1h1v1h-1zm0 1h1v1h-1zm-13 1h1v1h-1zm36 0h1v1h-1zm-33 1h1v1h-1zm30 0h1v1h-1z"/><path fill="#d78" d="M16 39h1v1h-1zm32 0h1v1h-1zm-35 1h1v1h-1zm24 0h1v1h-1zm14 0h1v1h-1zM9 41h1v1H9zm46 0h1v1h-1zm-38 1h1v1h-1zm30 0h1v1h-1zm-37 3h1v1h-1zm27 0h1v1h-1zm1 0h1v1h-1zm16 0h1v1h-1zm-17 2h1v1h-1zm-8 1h1v1h-1zm-18 1h1v1h-1zm42 0h1v1h-1z"/></svg>