<svg xmlns="http://www.w3.org/2000/svg" width="66" height="90" baseProfile="tiny" version="1.2"><path fill="#c77" d="M27 76h1v1h-1z"/><path fill="#934" d="M22 78h1v1h-1z"/><path fill="#a99" d="M26 52h1v1h-1z"/><path fill="#c89" d="M21 78h1v1h-1z"/><path fill="#e99" d="M33 74h1v1h-1zm-12 1h1v1h-1z"/><path fill="#b24" d="M18 77h1v1h-1z"/><path fill="#b77" d="M27 77h1v1h-1z"/><path fill="#275" d="M27 17h1v1h-1zm-14 1h1v1h-1zm5 1h1v1h-1zm-5 1h1v1h-1zm24 0h1v1h-1zm-18 4h1v1h-1zm30 1h1v1h-1zm-2 2h1v1h-1zm-36 1h1v1h-1zm26 0h1v1h-1zm7 2h1v1h-1zm2 0h1v1h-1zm6 1h1v1h-1zm1 4h1v1h-1zm-21 1h1v1h-1zm20 0h1v1h-1zm-4 1h1v1h-1zm-15 2h1v1h-1zm15 0h1v1h-1zm-9 1h1v1h-1zm1 1h1v1h-1zm6 2h1v1h-1zm8 1h1v1h-1zm-3 5h1v1h-1zm-11 5h1v1h-1zm4 2h1v1h-1zm-26 1h1v1h-1zm19 0h1v1h-1zm7 0h1v1h-1zm-10 1h1v1h-1zm1 0h1v1h-1zm-15 1h1v1h-1zm26 0h1v1h-1zm-27 1h1v1h-1zm22 0h1v1h-1zm-30 3h1v1h-1zm1 0h1v1h-1zm39 0h1v1h-1zm1 0h1v1h-1zm-22 2h1v1h-1zm18 1h1v1h-1zm9 1h1v1h-1z"/><path fill="#164" d="M33 24h1v1h-1zm21 4h1v1h-1zm-37 1h1v1h-1zm19 0h1v1h-1zm-8 1h1v1h-1zm1 1h1v1h-1zm-7 3h1v1h-1zm17 2h1v1h-1zm-7 4h1v1h-1zm1 0h1v1h-1zm15 2h1v1h-1zm-22 7h1v1h-1zm-3 1h1v1h-1zm2 0h1v1h-1zm19 0h1v1h-1zM15 64h1v1h-1zm14 1h1v1h-1zm-18 1h1v1h-1zm42 0h1v1h-1z"/><path fill="#655" d="M37 25h1v1h-1zM26 43h1v1h-1zm-1 1h1v1h-1z"/><path fill="#8a9" d="M41 28h1v1h-1zm-9 1h1v1h-1zm-17 4h1v1h-1zm5 13h1v1h-1zm8 3h1v1h-1zm5 0h1v1h-1zm-3 11h1v1h-1zm9 5h1v1h-1zm13 2h1v1h-1zM8 68h1v1H8z"/><path fill="#052" d="M34 21h1v1h-1zm1 0h1v1h-1zm1 0h1v1h-1zm3 0h1v1h-1zm1 0h1v2h-1zm-13 1h1v1h-1zm-4 5h1v1h-1zm1 0h1v1h-1zm16 0h1v1h-1zm1 0h1v1h-1zm1 0h1v1h-1zm-21 1h1v1h-1zm4 0h1v1h-1zm17 0h1v1h-1zm-24 1h1v1h-1zm2 0h1v1h-1zm7 0h1v1h-1zm8 0h1v1h-1zm-22 1h1v1h-1zm5 0h1v1h-1zm1 0h1v1h-1zm1 0h1v1h-1zm-6 1h1v1h-1zm1 1h1v1h-1zm1 1h1v1h-1zm27 0h1v1h-1zm1 0h1v1h-1zm-26 1h1v1h-1zm27 0h1v1h-1zm3 6h1v1h-1zm-31 1h1v1h-1zm1 0h1v1h-1zm29 2h1v1h-1zm-33 2h2v1h-2zm2 0h1v1h-1zm1 0h1v1h-1zm3 0h1v1h-1zm8 3h1v1h-1zm4 0h1v1h-1zm1 0h1v1h-1zm1 0h2v1h-2zm3 1h1v1h-1zm1 0h1v1h-1zm-14 1h1v1h-1zm16 0h1v1h-1zm1 0h1v1h-1zm-18 1h1v1h-1zm1 0h1v1h-1zm17 0h1v1h-1zm2 1h1v1h-1zm1 0h1v1h-1zm-19 6h1v1h-1zm6 1h1v1h-1zm2 0h1v1h-1zm1 0h1v1h-1zm-13 1h1v1h-1zm14 0h1v1h-1zm-14 1h1v1h-1zm14 0h1v1h-1zm4 3h1v1h-1zm-24 1h1v1h-1zm8 0h1v1h-1zm22 0h1v1h-1zm1 0h1v1h-1zm-34 1h1v1h-1zm1 0h1v1h-1zm37 0h1v1h-1zm1 0h1v1h-1zM9 67h1v1H9zm46 0h1v1h-1zm1 0h1v1h-1z"/><path fill="#ebc" d="M15 49h1v1h-1zm1 1h1v1h-1zm10 19h1v1h-1zm7 0h1v1h-1z"/><path fill="#999" d="M0 3h1v1H0zm65 0h1v1h-1zM0 4h1v1H0zm65 0h1v1h-1zM40 31h1v1h-1zm-3 6h1v1h-1zM3 88h1v1H3zm59 0h1v1h-1z"/><path fill="#e9a" d="M19 50h1v1h-1zm9 24h1v1h-1z"/><path fill="#eff" d="M24 10h1v1h-1zm12 0h1v1h-1zm-1 1h1v1h-1zm-11 1h1v1h-1zm8 3h1v1h-1zm1 0h1v1h-1zm6 0h1v1h-1zm-15 2h1v1h-1zm13 10h1v1h-1zm-23 1h1v1h-1zm44 2h1v1h-1zm-2 1h1v1h-1zm-38 1h1v1h-1zm12 12h1v1h-1zm9 2h1v1h-1zm-20 8h1v1h-1zm23 4h1v1h-1zm-11 2h1v1h-1zm12 0h1v1h-1zm-3 3h1v1h-1zm-27 4h1v1h-1z"/><path fill="#8b9" d="M27 11h1v1h-1zm-4 1h1v1h-1zm3 1h1v1h-1zm10 1h1v1h-1zm8 0h1v1h-1zm2 4h1v1h-1zm-20 1h1v1h-1zm6 0h1v1h-1zm-15 1h1v1h-1zm13 0h1v1h-1zm19 2h1v1h-1zm3 4h1v1h-1zm-20 1h1v1h-1zm-17 3h1v1h-1zm20 1h1v1h-1zm4 3h1v1h-1zm-16 1h1v1h-1zm5 7h1v1h-1zm-17 3h1v1h-1zm27 1h1v1h-1zm5 0h1v1h-1zm-21 1h1v1h-1zm17 0h1v1h-1zm-16 5h1v1h-1zm10 1h1v1h-1zm3 0h1v1h-1zm-1 1h1v1h-1zm1 0h1v1h-1zm-16 1h1v1h-1zm5 1h1v1h-1zm10 0h1v1h-1zm8 1h1v1h-1zm-29 6h1v1h-1zm39 0h1v1h-1zm-35 1h1v1h-1zm15 0h1v1h-1zm24 4h1v1h-1z"/><path fill="#cdc" d="M35 12h1v1h-1zm2 7h1v1h-1zm5 1h1v1h-1zm7 0h1v1h-1zm0 12h1v1h-1zm0 2h1v1h-1zm2 0h1v1h-1zM16 46h1v1h-1zm29 1h1v1h-1zm10 1h1v1h-1zm-20 2h1v1h-1zm4 6h1v1h-1zm-11 4h1v1h-1zm4 0h1v1h-1zm-16 1h1v1h-1zm7 3h1v1h-1zM9 68h1v1H9z"/><path fill="#163" d="M28 22h1v1h-1zm14 11h1v1h-1z"/><path fill="#dcc" d="M38 30h1v1h-1zm-12 2h1v1h-1z"/><path fill="#666" d="M37 38h1v1h-1zM0 88h1v1H0zm1 0h1v1H1zm63 0h1v1h-1zm1 0h1v1h-1zM1 89h1v1H1zm1 0h1v1H2zm1 0h1v1H3zm1 0h58v1H4zm58 0h1v1h-1zm1 0h1v1h-1zm1 0h1v1h-1z"/><path fill="#eaa" d="M26 68h1v1h-1zm-5 6h1v1h-1zm4 0h1v1h-1z"/><path fill="#ced" d="M34 14h1v1h-1zm-21 2h1v1h-1zm31 1h1v1h-1zm1 2h1v1h-1zm1 4h1v1h-1zm-32 2h1v1h-1zm20 1h1v1h-1zm-7 1h1v1h-1zm26 1h1v1h-1zm-12 5h1v1h-1zm-21 6h1v1h-1zm25 1h1v1h-1z"/><path fill="#ecd" d="M18 52h1v1h-1zm4 24h1v1h-1z"/><path fill="#221" d="M36 38h1v1h-1zm-8 15h1v1h-1z"/><path fill="#ecc" d="M21 53h1v1h-1zm5 20h1v1h-1zm2 5h1v1h-1z"/><path fill="#254" d="M33 60h1v1h-1z"/><path fill="#abb" d="M45 66h1v1h-1z"/><path fill="#9ba" d="M36 11h1v1h-1zm2 2h1v1h-1zm-19 2h1v1h-1zm24 1h1v1h-1zm-5 1h1v1h-1zm-2 5h1v1h-1zm-26 5h1v1h-1zm2 3h1v1h-1zm18 0h1v1h-1zm6 0h1v1h-1zm-2 4h1v1h-1zm-16 1h1v1h-1zm1 1h1v1h-1zm30 1h1v1h-1zm-10 1h1v1h-1zm-15 3h1v1h-1zm3 0h1v1h-1zm21 0h1v1h-1zm-35 1h1v1h-1zm1 0h1v1h-1zm4 0h1v1h-1zm29 0h1v1h-1zm-4 1h1v1h-1zm-8 3h1v1h-1zm-3 3h1v1h-1zm11 1h1v1h-1zm0 1h1v1h-1zm-14 1h1v1h-1zm5 3h1v1h-1zm11 1h1v1h-1zm-14 1h1v1h-1zm-4 1h1v1h-1zm11 0h1v1h-1zm3 3h1v1h-1zm7 0h1v1h-1zm-5 3h1v1h-1zm-30 1h1v1h-1zm23 0h1v1h-1z"/><path fill="#074" d="M23 18h1v1h-1zm25 14h1v1h-1zM22 46h1v1h-1zm19 3h1v1h-1zM13 62h1v1h-1z"/><path fill="#baa" d="M30 25h1v1h-1zm-4 6h1v1h-1zm-2 6h1v1h-1z"/><path fill="#777" d="M24 38h1v1h-1zM0 84h1v1H0zm65 0h1v1h-1zM0 85h1v1H0zm65 0h1v1h-1zM0 86h1v1H0zm65 0h1v1h-1zM0 87h1v1H0zm65 0h1v1h-1z"/><path fill="#912" d="M24 76h1v1h-1z"/><path fill="#ddd" d="M3 0h1v1H3zm1 0h1v1H4zm1 0h56v1H5zm56 0h1v1h-1zm1 0h1v1h-1zM2 1h1v1H2zm61 0h1v1h-1zM1 6h1v1H1zm63 0h1v1h-1zM1 7h1v1H1zm63 0h1v1h-1zM1 8h1v1H1zm63 0h1v1h-1zM1 9h1v73H1zm63 0h1v73h-1zM30 24h1v1h-1zm-8 5h1v1h-1zm18 1h1v1h-1zm-12 1h1v1h-1zm-6 6h1v1h-1zm13 1h1v1h-1zm-12 1h1v1h-1zm11 4h1v1h-1zm-6 9h1v1h-1zm17 1h1v1h-1zM1 82h1v1H1zm63 0h1v1h-1zM1 83h1v1H1zm63 0h1v1h-1zM2 84h1v1H2zm61 0h1v1h-1zM3 85h1v1H3zm1 0h1v1H4zm1 0h1v1H5zm1 0h1v1H6zm1 0h2v1H7zm50 0h2v1h-2zm2 0h1v1h-1zm1 0h1v1h-1zm1 0h1v1h-1zm1 0h1v1h-1z"/><path fill="#365" d="M37 50h1v1h-1zM23 60h1v1h-1z"/><path fill="#edd" d="M16 51h1v1h-1zm11 16h1v1h-1zm-3 10h1v1h-1z"/><path fill="#c9a" d="M33 76h1v1h-1z"/><path fill="#9cb" d="M31 12h1v1h-1zm-1 2h1v1h-1zm8 0h1v1h-1zm-8 1h1v1h-1zm4 1h1v1h-1zm-2 2h1v1h-1zm9 3h1v1h-1zm-12 7h1v1h-1zm13 2h1v1h-1zM11 44h1v1h-1zm39 5h1v1h-1zm-4 2h1v1h-1zm-28 4h1v1h-1zm-2 1h1v1h-1zm14 2h1v1h-1zm-20 5h1v1h-1zm18 1h1v1h-1zm1 0h1v1h-1zm1 0h1v1h-1zm2 0h1v1h-1z"/><path fill="#988" d="M24 31h1v1h-1zm14 0h1v1h-1zM25 43h1v1h-1zm7 1h1v1h-1zm-5 10h1v1h-1z"/><path fill="#888" d="M0 5h1v1H0zm65 0h1v1h-1zM0 6h1v1H0zm65 0h1v1h-1zM0 7h1v1H0zm65 0h1v1h-1zM0 8h1v73H0zm65 0h1v73h-1zM28 25h1v1h-1zm8 0h1v1h-1zm-7 12h1v1h-1zM0 81h1v2H0zm65 0h1v2h-1zM0 83h1v1H0zm65 0h1v1h-1zM1 87h1v1H1zm63 0h1v1h-1zM2 88h1v1H2zm61 0h1v1h-1z"/><path fill="#386" d="M27 15h1v1h-1zm4 0h1v1h-1zm10 2h1v1h-1zm-14 1h1v1h-1zm23 1h1v1h-1zm0 1h1v1h-1zm-26 4h1v1h-1zm25 0h1v1h-1zm-16 1h1v1h-1zm8 0h1v1h-1zm15 0h1v1h-1zm-39 1h1v1h-1zm26 0h1v1h-1zm-31 1h1v1h-1zm15 1h1v1h-1zm26 1h1v1h-1zm-3 1h1v1h-1zm-2 1h1v1h-1zm-12 3h1v1h-1zm11 0h1v1h-1zm2 1h1v1h-1zm0 1h1v1h-1zm-34 1h1v1h-1zm11 2h1v1h-1zm1 1h1v1h-1zm8 1h1v1h-1zm-12 6h1v1h-1zm1 1h1v1h-1zm19 5h1v1h-1zm-26 4h1v1h-1zm2 0h1v1h-1zm4 0h1v1h-1zm3 0h1v1h-1zm19 0h1v1h-1zm-32 4h1v1h-1zm30 0h1v1h-1zm-15 1h1v1h-1zm9 0h1v1h-1zm1 0h1v1h-1zm7 0h1v1h-1zm-26 1h1v1h-1z"/><path fill="#443" d="M25 32h1v1h-1z"/><path fill="#b88" d="M25 78h1v1h-1z"/><path fill="#c99" d="M30 78h1v1h-1zm-1 1h1v1h-1z"/><path fill="#798" d="M39 22h1v1h-1zm-15 6h1v1h-1zm-11 3h1v1h-1zm9 30h1v1h-1zm-7 5h1v1h-1z"/><path fill="#375" d="M26 23h1v1h-1zm6 0h1v1h-1zm1 14h1v1h-1zm-12 5h1v1h-1zm28 0h1v1h-1zm-37 3h1v1h-1zm26 5h1v1h-1zm-12 1h1v1h-1zm14 0h1v1h-1zm8 11h1v1h-1zm-34 3h1v1h-1zm17 0h1v1h-1zm10 0h1v1h-1zm-27 1h1v1h-1z"/><path fill="#bcc" d="M17 42h1v1h-1zm20 23h1v1h-1z"/><path fill="#b02" d="M33 75h1v1h-1z"/><path fill="#333" d="M33 32h1v1h-1zm7 12h1v1h-1zm-14 9h1v1h-1z"/><path fill="#eab" d="M22 74h1v1h-1z"/><path fill="#eee" d="M3 1h1v1H3zm59 0h1v1h-1zM2 2h1v1H2zm61 0h1v1h-1zM1 3h1v1H1zm63 0h1v1h-1zM1 4h1v1H1zm63 0h1v1h-1zM1 5h1v1H1zm63 0h1v1h-1zM2 6h1v1H2zm61 0h1v1h-1zM2 7h1v1H2zm61 0h1v1h-1zM2 8h1v74H2zm61 0h1v74h-1zm-19 5h1v1h-1zm2 4h1v1h-1zm-29 5h1v1h-1zm3 1h1v1h-1zm17 0h1v1h-1zm-5 1h1v1h-1zm6 0h1v1h-1zm-9 2h1v1h-1zm-4 4h1v1h-1zm23 0h1v1h-1zm10 1h1v1h-1zm-27 3h1v1h-1zm-21 2h1v1h-1zm21 0h1v1h-1zm4 1h1v1h-1zm9 0h1v1h-1zm6 0h1v1h-1zm-19 1h1v1h-1zm-1 1h1v1h-1zm6 0h1v1h-1zm7 0h1v1h-1zm-2 1h1v1h-1zm-14 4h1v1h-1zm15 0h1v1h-1zm5 0h1v1h-1zm-37 1h1v1h-1zm16 0h1v1h-1zm7 0h1v1h-1zm5 0h1v1h-1zm-9 5h1v1h-1zm0 4h1v1h-1zm8 0h1v1h-1zm-10 3h1v1h-1zm23 3h1v1h-1zm5 5h1v1h-1zm0 3h1v1h-1zM2 82h1v1H2zm61 0h1v1h-1zM2 83h1v1H2zm61 0h1v1h-1zM3 84h1v1H3zm1 0h1v1H4zm57 0h1v1h-1zm1 0h1v1h-1zM9 85h48v1H9z"/><path fill="#dee" d="M38 11h1v1h-1zm-24 3h1v1h-1zm4 2h1v1h-1zm10 2h1v1h-1zm11 0h1v1h-1zm-21 7h1v1h-1zm35 6h1v1h-1zm-25 2h1v1h-1zm-1 1h1v1h-1zm-12 2h1v1h-1zm13 4h1v1h-1zm-6 2h1v1h-1zm8 0h1v1h-1zm16 0h1v1h-1zm10 0h1v1h-1zm-6 3h1v1h-1zm-19 6h1v1h-1zm18 0h1v1h-1zm-2 1h1v1h-1zm-5 2h1v1h-1zm-20 1h1v1h-1zm21 3h1v1h-1zm-22 1h1v1h-1zm-9 6h1v1h-1zm38 2h1v1h-1zm8 0h1v1h-1z"/><path fill="#211" d="M37 24h1v1h-1zm-8 1h1v1h-1zm10 6h1v1h-1zm-16 7h1v1h-1zm7 0h1v1h-1zm11 6h1v1h-1z"/><path fill="#073" d="M24 26h1v1h-1zm20 5h1v1h-1zM32 58h1v1h-1z"/><path fill="#7a8" d="M14 17h1v1h-1zm2 7h1v1h-1zm17 2h1v1h-1zm1 1h1v1h-1zm-18 1h1v1h-1zm12 0h1v1h-1zm11 0h1v1h-1zm8 1h1v1h-1zm8 5h1v1h-1zm-17 1h1v1h-1zm12 6h1v1h-1zm-5 2h1v1h-1zm-31 1h1v1h-1zm32 0h1v1h-1zm-25 2h1v1h-1zm15 6h1v1h-1zm-14 7h1v1h-1zm13 0h1v1h-1zm-17 2h1v1h-1zm3 1h1v1h-1zm14 3h1v1h-1zm11 1h1v1h-1z"/><path fill="#adc" d="M9 25h1v1H9zm41 40h1v1h-1z"/><path fill="#fde" d="M20 50h1v1h-1zm6 21h1v1h-1zm7 1h1v1h-1z"/><path fill="#fdd" d="M20 53h1v1h-1zm6 17h1v1h-1zm0 2h1v1h-1zm0 4h1v1h-1z"/><path fill="#a45" d="M22 77h1v1h-1z"/><path fill="#544" d="M23 37h1v1h-1z"/><path fill="#e89" d="M16 49h1v1h-1zm18 19h1v1h-1zm-7 5h1v1h-1z"/><path fill="#d66" d="M31 75h1v1h-1z"/><path fill="#ded" d="M24 11h1v1h-1zm6 0h1v1h-1zm1 0h1v1h-1zm1 5h1v1h-1zm6 6h1v1h-1zm10 2h1v1h-1zm-35 3h1v1h-1zm2 0h1v1h-1zm34 0h1v1h-1zm-38 2h1v1h-1zm14 0h1v1h-1zm9 1h1v1h-1zm-12 3h1v1h-1zm15 0h1v1h-1zm4 2h1v1h-1zm7 0h1v1h-1zm-21 2h1v1h-1zm5 1h1v1h-1zm14 0h1v1h-1zM9 41h1v1H9zm19 2h1v1h-1zm26 0h1v1h-1zm-2 1h1v1h-1zm-9 1h1v1h-1zm-28 1h1v1h-1zm36 4h1v1h-1zm-32 6h1v1h-1zm7 3h1v1h-1zm10 0h1v1h-1zm1 0h1v1h-1zm-10 2h1v1h-1zm12 2h1v1h-1zm12 2h1v1h-1zm-34 1h1v1h-1zm41 2h1v1h-1z"/><path fill="#496" d="M27 14h1v1h-1zm4 0h1v1h-1zm-12 3h1v1h-1zm-1 1h1v1h-1zm32 0h1v1h-1zm-18 2h1v1h-1zm18 1h1v1h-1zm-8 1h1v1h-1zm-31 4h1v1h-1zm11 0h1v1h-1zm-9 2h1v1h-1zm18 0h1v1h-1zm-2 4h1v1h-1zm16 0h1v1h-1zm11 0h1v1h-1zm-24 3h1v1h-1zm-14 3h1v1h-1zm11 3h1v1h-1zm19 6h1v1h-1zm5 1h1v1h-1zm-12 6h1v1h-1zm0 2h1v1h-1zm-25 1h1v1h-1zm-3 3h1v1h-1zm37 1h1v1h-1zm-36 1h1v1h-1zm1 0h1v1h-1zm12 0h1v1h-1zm19 0h1v1h-1zm-36 3h1v1h-1zm-1 1h1v1H9z"/><path fill="#587" d="M35 22h1v1h-1zm-9 7h1v1h-1zm8 20h1v1h-1zm19 18h1v1h-1z"/><path fill="#698" d="M14 24h1v1h-1zm8 11h1v1h-1zm17 2h1v1h-1zM26 50h1v1h-1zm19 1h1v1h-1zM35 62h1v1h-1z"/><path fill="#665" d="M39 30h1v1h-1zm-6 1h1v1h-1z"/><path fill="#d78" d="M34 69h1v1h-1zm-7 3h1v1h-1zm-1 2h1v1h-1z"/><path fill="#a01" d="M34 75h1v1h-1zm1 0h1v1h-1zm-4 1h1v1h-1z"/><path fill="#ede" d="M26 78h1v1h-1z"/><path fill="#fcd" d="M33 70h1v1h-1zm0 3h1v1h-1zm-4 1h1v1h-1z"/><path fill="#7a9" d="M31 13h1v1h-1zm-5 1h1v1h-1zm7 3h1v1h-1zm17 0h1v1h-1zm-12 1h1v1h-1zm-24 1h1v1h-1zm12 1h1v1h-1zm2 0h1v1h-1zm13 0h1v1h-1zm1 1h1v1h-1zm8 3h1v1h-1zm-3 2h1v1h-1zm-26 5h1v1h-1zm14 2h1v1h-1zm5 3h1v1h-1zm6 0h1v1h-1zm-30 4h1v1h-1zm7 1h1v1h-1zm21 0h1v1h-1zm13 1h1v1h-1zm-9 1h1v1h-1zm-12 2h1v1h-1zm1 0h1v1h-1zm-1 1h1v1h-1zm-12 1h1v1h-1zm2 0h1v1h-1zm19 1h1v1h-1zm-18 2h1v1h-1zm17 4h1v1h-1zm-21 1h1v1h-1zm10 2h1v1h-1zm3 0h1v1h-1zm5 0h1v1h-1zm6 1h1v1h-1zm5 4h1v1h-1zm-31 2h1v1h-1zm31 0h1v1h-1z"/><path fill="#274" d="M23 19h1v1h-1zm0 7h1v1h-1zm25 0h1v1h-1zm-17 9h1v1h-1zm20 2h1v1h-1zm-35 1h1v1h-1zm23 3h1v1h-1zm6 9h1v1h-1zm4 0h1v1h-1zm-22 1h1v1h-1zm20 0h1v1h-1zm-17 1h1v1h-1zm7 0h1v1h-1zm-15 5h1v1h-1zm23 1h1v1h-1zm-6 4h1v1h-1z"/><path fill="#aba" d="M49 41h1v1h-1zm-31 5h1v1h-1z"/><path fill="#fcc" d="M33 68h1v1h-1z"/><path fill="#174" d="M23 17h1v1h-1zm-4 2h1v1h-1zm16 1h1v1h-1zm-5 1h1v1h-1zm-16 1h1v1h-1zm11 1h1v1h-1zm20 0h1v1h-1zm-30 1h1v1h-1zm1 1h1v1h-1zm24 0h1v1h-1zm-30 1h1v1h-1zm39 0h1v1h-1zm6 0h1v1h-1zm-34 1h1v1h-1zm13 1h1v1h-1zm4 0h1v1h-1zm11 2h1v1h-1zm0 1h1v1h-1zm-30 1h1v1h-1zm1 0h1v1h-1zm0 1h1v1h-1zm1 0h1v1h-1zm26 0h1v1h-1zm3 1h1v1h-1zm-23 1h1v1h-1zm1 0h1v1h-1zm6 0h1v1h-1zm-22 1h1v1h-1zm1 1h1v1h-1zm34 1h1v1h-1zm3 0h1v1h-1zm-3 1h1v1h-1zm-27 2h1v1h-1zm2 0h1v1h-1zm6 0h1v1h-1zm13 0h1v1h-1zm2 1h1v1h-1zm1 0h1v1h-1zm-8 1h1v1h-1zm8 0h1v1h-1zm-16 4h1v1h-1zm3 0h1v1h-1zm7 1h1v1h-1zm-15 1h1v1h-1zm17 4h1v1h-1zm-7 1h1v1h-1zm0 1h1v1h-1zm8 0h1v1h-1zm-17 2h2v1h-2zm-5 1h1v1h-1zm12 0h1v1h-1zm2 0h1v1h-1zm7 0h1v1h-1zm1 1h1v1h-1zm1 0h1v1h-1zm1 0h1v1h-1zm4 0h1v1h-1zm-30 1h1v1h-1zm25 0h1v1h-1zm-26 2h1v1h-1zm35 0h1v1h-1zm-36 1h1v1h-1zm29 0h1v1h-1zm3 2h1v1h-1z"/><path fill="#586" d="M30 22h1v1h-1zm-5 37h1v1h-1zm9 2h1v1h-1zm13 5h1v1h-1z"/><path fill="#812" d="M26 77h1v1h-1z"/><path fill="#bbb" d="M0 1h1v1H0zm1 0h1v1H1zm63 0h1v1h-1zm1 0h1v1h-1zM28 24h1v1h-1zm-4 8h1v1h-1zm-2 6h1v1h-1zm10 5h1v1h-1zm8 0h1v1h-1zm1 2h1v1h-1zm-14 7h1v1h-1zM1 85h1v1H1zm63 0h1v1h-1zM2 86h1v1H2zm1 0h1v1H3zm59 0h1v1h-1zm1 0h1v1h-1z"/><path fill="#687" d="M43 34h1v1h-1zm-7 16h1v1h-1zm4 15h1v1h-1zm-29 2h1v1h-1z"/><path fill="#d67" d="M18 50h1v1h-1zm0 1h1v1h-1zm1 0h1v1h-1zm8 17h1v1h-1zm0 6h1v1h-1zm3 1h1v1h-1z"/><path fill="#d77" d="M27 69h1v1h-1zm7 4h1v1h-1zm-15 3h1v1h-1zm2 0h1v1h-1z"/><path fill="#b78" d="M25 77h1v1h-1z"/><path fill="#486" d="M41 18h1v1h-1zm-10 1h1v1h-1zm-4 1h1v1h-1zm-1 1h1v1h-1zm3 1h1v1h-1zm-4 2h1v1h-1zm16 0h1v1h-1zm-26 2h1v1h-1zm10 0h1v1h-1zm19 0h1v1h-1zm-24 1h1v1h-1zm19 0h1v1h-1zm-8 2h1v1h-1zm22 1h1v1h-1zm-11 4h1v1h-1zm-15 2h1v1h-1zm-1 1h1v1h-1zm26 0h1v1h-1zm-12 3h1v1h-1zm5 1h1v1h-1zm-28 3h1v1h-1zm27 2h1v1h-1zm-9 1h2v1h-2zm8 1h1v1h-1zm11 0h1v1h-1zm-32 4h1v1h-1zm2 6h1v1h-1zm13 0h1v1h-1zm7 1h1v1h-1zm-6 1h1v1h-1zm10 0h1v1h-1zm-1 2h1v1h-1zm-31 2h1v1h-1zm19 0h1v1h-1zm6 0h1v1h-1zm3 0h1v1h-1zm-12 1h1v1h-1zm1 0h1v1h-1zM8 67h1v1H8z"/><path fill="#264" d="M17 34h1v1h-1zm2 1h1v1h-1zm30 5h1v1h-1zm-14 9h1v1h-1zm-10 2h1v1h-1zm-6 13h1v1h-1zm17 0h1v1h-1zm4 0h1v1h-1zm14 3h1v1h-1z"/><path fill="#877" d="M42 38h1v1h-1z"/><path fill="#9aa" d="M19 46h1v1h-1z"/><path fill="#c78" d="M28 79h1v1h-1z"/><path fill="#597" d="M27 13h1v1h-1zm-8 3h1v1h-1zm22 3h1v1h-1zm2 1h1v1h-1zm3 0h1v1h-1zm-33 1h1v1h-1zm10 0h1v1h-1zm23 0h1v1h-1zm-23 1h1v1h-1zm22 0h1v1h-1zm5 0h1v1h-1zm-27 1h1v1h-1zm0 1h1v1h-1zm0 1h1v1h-1zm25 0h1v1h-1zm-22 2h1v1h-1zm29 0h1v1h-1zm-37 4h1v1h-1zm3 1h1v1h-1zm30 0h1v1h-1zm-6 1h1v1h-1zm1 0h1v1h-1zm-18 1h1v1h-1zm2 0h1v1h-1zm10 0h1v1h-1zm-30 1h1v1h-1zm15 0h1v1h-1zm4 0h1v1h-1zm1 0h1v1h-1zm24 0h1v1h-1zm-1 1h1v1h-1zm-37 1h1v1h-1zm17 1h1v1h-1zm-15 1h1v1h-1zm7 1h1v1h-1zm-15 1h1v1h-1zm20 0h1v1h-1zm6 0h1v1h-1zm22 1h1v1h-1zm-39 1h1v1h-1zm-3 1h1v1h-1zm5 0h1v1h-1zm8 0h1v1h-1zm24 0h1v1h-1zm-2 1h1v1h-1zm-19 2h1v1h-1zm2 0h1v1h-1zm3 0h1v1h-1zm5 1h1v1h-1zm-15 1h1v1h-1zm15 1h1v1h-1zm8 0h1v1h-1zm-20 1h1v1h-1zm18 0h1v1h-1zm-2 1h1v1h-1zm-11 1h1v1h-1zm-3 1h1v1h-1zm6 1h1v1h-1zm-16 1h1v1h-1zm2 0h1v1h-1zm8 1h1v1h-1zm3 0h1v1h-1zm-21 2h1v1h-1zm31 0h1v1h-1zm3 0h1v1h-1zm-19 2h1v1h-1zm7 0h1v1h-1zm0 2h1v1h-1zm-2 2h1v1h-1zm14 0h1v1h-1z"/><path fill="#adb" d="M13 40h1v1h-1z"/><path fill="#d45" d="M34 71h1v1h-1zm-12 4h1v1h-1zm5 0h1v1h-1z"/><path fill="#923" d="M32 76h1v1h-1zm-9 1h1v1h-1z"/><path fill="#acb" d="M27 10h1v1h-1zm3 3h1v1h-1zm5 0h1v1h-1zm3 2h1v1h-1zm-5 1h1v1h-1zm5 0h1v1h-1zm2 0h1v1h-1zm4 0h1v1h-1zm6 0h1v1h-1zm-16 1h1v1h-1zm2 0h1v1h-1zm-6 1h1v2h-1zm6 1h1v1h-1zm-19 2h1v1h-1zm32 0h1v1h-1zm-36 1h1v1h-1zm28 1h1v1h-1zm-31 1h1v1h-1zm47 0h1v1h-1zm-46 1h1v1h-1zm9 0h1v1h-1zm25 0h1v1h-1zm10 0h1v1h-1zm-16 1h1v1h-1zm13 1h1v1h-1zm-4 1h1v1h-1zm-32 3h1v1h-1zm41 1h1v1h-1zm-39 1h1v1h-1zm5 1h1v1h-1zM9 35h1v1H9zm2 0h1v1h-1zm14 1h1v1h-1zm7 1h1v1h-1zm0 2h1v1h-1zm-18 1h1v1h-1zm7 0h1v1h-1zm10 1h1v1h-1zm-16 1h1v1h-1zm20 0h1v1h-1zm7 0h1v1h-1zm-21 1h1v1h-1zm36 0h1v1h-1zm-2 1h1v1h-1zm-33 1h1v1h-1zm6 0h1v1h-1zm2 0h1v1h-1zm23 0h1v1h-1zm-30 1h1v1h-1zm4 0h1v1h-1zm4 0h1v1h-1zm20 0h1v1h-1zm-4 1h1v1h-1zm2 0h1v1h-1zm-20 2h1v1h-1zm1 0h1v1h-1zm1 0h1v1h-1zm15 0h1v1h-1zm-18 1h1v1h-1zm14 3h1v1h-1zm-20 1h1v1h-1zm-1 1h1v1h-1zm14 0h1v1h-1zm1 0h1v1h-1zm4 1h1v1h-1zm2 1h1v1h-1zm2 4h1v1h-1zm2 0h1v1h-1zm1 0h1v1h-1zm-36 1h1v1h-1zm6 1h1v1h-1zm33 0h1v1h-1zm-23 1h1v1h-1zm4 0h1v1h-1zm15 0h1v1h-1zm-8 1h1v1h-1zm-22 1h1v1h-1zm-4 1h1v1h-1zm44 1h1v1h-1z"/><path fill="#285" d="M23 16h1v1h-1zm4 0h1v1h-1zm4 1h1v1h-1zm-12 1h1v1h-1zm24 1h1v1h-1zm-12 1h1v1h-1zm-17 1h1v1h-1zm4 2h1v1h-1zm22 0h1v1h-1zm2 0h1v1h-1zm2 2h1v1h-1zm-2 1h1v1h-1zm-7 2h1v1h-1zm16 0h1v1h-1zm0 5h1v1h-1zm-22 1h1v1h-1zm25 0h1v1h-1zm-21 1h1v1h-1zm-14 2h1v1h-1zm-1 3h1v1h-1zm28 0h1v1h-1zm-9 1h1v1h-1zm19 2h1v1h-1zm-4 2h1v1h-1zm-26 3h1v1h-1zm18 0h1v1h-1zm-8 8h1v1h-1zm1 0h1v1h-1zm1 0h1v1h-1zm8 2h1v1h-1zm-34 4h1v1h-1zm32 0h1v1h-1z"/><path fill="#042" d="M37 21h1v1h-1zm1 0h1v1h-1zm-6 1h2v1h-2zm1 1h1v1h-1zm-11 5h1v1h-1zm7 2h1v1h-1zm-9 5h1v1h-1zm-2 10h1v1h-1zm1 0h1v1h-1zm10 3h1v1h-1zm1 0h1v1h-1zm1 0h1v1h-1zm5 1h1v1h-1zm3 1h1v1h-1zm-16 9h1v1h-1zm1 0h1v1h-1zm8 0h1v1h-1zm-10 1h1v1h-1zm12 0h1v1h-1zm3 4h1v1h-1zm1 0h1v1h-1zm-22 1h1v1h-1zm1 0h1v1h-1zm1 0h1v1h-1zm1 0h1v1h-1zm24 0h1v1h-1zm1 0h1v1h-1z"/><path fill="#c12" d="M20 76h1v1h-1z"/><path fill="#ddc" d="M40 45h1v1h-1z"/><path fill="#bdc" d="M26 11h1v1h-1zm4 1h1v1h-1zm11 2h1v1h-1zm-9 3h1v1h-1zm2 1h1v1h-1zm2 0h1v1h-1zm-19 1h1v1h-1zm11 0h1v1h-1zm6 0h1v1h-1zm11 1h1v1h-1zm-2 2h1v1h-1zm-16 1h1v1h-1zM9 24h1v1H9zm8 1h1v1h-1zm5 0h1v1h-1zm17 0h1v1h-1zm-27 1h1v1h-1zm44 0h1v1h-1zm-19 3h1v1h-1zm12 0h1v1h-1zm-32 1h1v1h-1zm19 1h1v1h-1zm6 0h1v1h-1zm-25 1h1v1h-1zm18 0h1v1h-1zm-19 2h1v1h-1zm29 1h1v1h-1zm-31 1h1v1h-1zm20 0h1v1h-1zm-24 4h2v1h-2zm2 0h1v1h-1zm13 1h1v1h-1zm9 0h1v1h-1zm-22 1h1v1h-1zm4 0h1v1h-1zm21 1h1v1h-1zm-27 1h1v1h-1zm45 3h1v1h-1zm-3 1h1v1h-1zm-20 4h1v1h-1zm8 0h1v1h-1zm-1 1h1v1h-1zm-1 1h1v1h-1zm6 1h1v1h-1zm-24 1h1v1h-1zm-5 1h1v1h-1zm26 1h1v1h-1zm3 0h1v1h-1zm-31 1h1v1h-1zm16 0h1v1h-1zm20 0h1v1h-1zm-37 2h1v1h-1zm33 0h1v1h-1zm6 0h1v1h-1zm-33 2h1v1h-1zm4 1h1v1h-1zm2 0h1v1h-1zm1 0h1v1h-1zm1 0h1v1h-1zm-15 1h1v1h-1z"/><path fill="#444" d="M29 24h1v1h-1zm0 14h1v1h-1z"/><path fill="#697" d="M23 28h1v1h-1zm10 1h1v1h-1zm9 0h1v1h-1zm-21 1h1v1h-1zm-7 2h1v1h-1zm6 4h1v1h-1zm16 15h1v1h-1zm-13 7h1v1h-1z"/><path fill="#cbb" d="M34 44h1v1h-1z"/><path fill="#fee" d="M14 48h1v1h-1zm7 3h1v1h-1zm8 2h1v1h-1zm-3 14h1v1h-1zm7 4h1v1h-1zm-3 3h1v1h-1zm1 0h1v1h-1zm1 0h1v1h-1zm3 0h1v1h-1zm-15 1h1v1h-1zm-2 1h1v1h-1zm16 0h1v1h-1zm1 0h1v1h-1zm1 0h1v1h-1zm-16 1h1v1h-1zm8 0h1v1h-1zm-5 1h1v1h-1zm-1 1h1v1h-1z"/><path fill="#c23" d="M25 75h1v1h-1zm1 0h1v1h-1z"/><path fill="#801" d="M30 77h1v1h-1zm-1 1h1v1h-1z"/><path fill="#9ca" d="M26 12h1v1h-1zm12 0h1v1h-1zm-4 3h1v1h-1zm-4 1h1v1h-1zm-12 1h1v1h-1zm12 0h1v1h-1zm15 4h1v1h-1zm-30 1h1v1h-1zm29 2h1v1h-1zm-19 1h1v1h-1zm-4 1h1v1h-1zm-2 1h1v1h-1zm11 1h1v1h-1zm24 1h1v1h-1zm-18 3h1v1h-1zm11 3h1v1h-1zm-9 5h1v1h-1zm9 8h1v1h-1zm1 2h1v1h-1zm-26 1h1v1h-1zm10 4h1v1h-1zm8 0h1v1h-1zm-2 4h1v1h-1z"/><path fill="#8ba" d="M36 12h1v1h-1zm0 1h1v1h-1zm-1 1h1v1h-1zm1 1h1v1h-1zm8 0h1v1h-1zm-18 1h1v1h-1zm10 0h1v1h-1zm-10 1h1v1h-1zm14 0h1v1h-1zm-14 1h1v1h-1zm17 3h1v1h-1zm-25 3h1v1h-1zm38 0h1v1h-1zm-10 3h1v1h-1zm-1 1h1v1h-1zm5 0h1v1h-1zm-7 1h1v1h-1zm8 0h1v1h-1zm-9 3h1v1h-1zm-23 1h1v1h-1zm29 0h1v1h-1zm2 0h1v1h-1zm6 0h1v1h-1zm-42 5h1v1h-1zm32 1h1v1h-1zm-31 1h1v1h-1zm28 1h1v1h-1zm-31 3h1v1h-1zm25 0h1v1h-1zm8 1h1v1h-1zm-20 2h1v1h-1zm8 0h1v1h-1zm9 0h1v1h-1zm-7 4h1v1h-1zm-11 4h1v1h-1zm15 0h1v1h-1zm-23 3h1v1h-1zm24 2h1v1h-1zm-20 1h1v1h-1zm18 2h1v1h-1zm7 0h1v1h-1zm-35 1h1v1h-1zm39 1h1v1h-1z"/><path fill="#497" d="M41 16h1v1h-1zm-6 1h1v1h-1zm0 1h1v1h-1zm-8 1h1v1h-1zm8 0h1v1h-1zm-2 1h1v1h-1zm3 0h1v1h-1zm6 4h1v1h-1zm-32 1h1v1h-1zm9 0h1v1h-1zm10 8h1v1h-1zm-3 2h1v1h-1zm-15 1h1v1h-1zm4 2h1v1h-1zm4 1h1v1h-1zm1 1h1v1h-1zm7 7h1v1h-1zm17 0h1v1h-1zm-19 1h1v1h-1zm14 0h1v1h-1zm7 0h1v1h-1zm6 1h1v1h-1zm-30 4h1v1h-1zm19 0h1v1h-1zm-18 1h1v1h-1zm16 0h1v1h-1zm-5 3h1v1h-1zm-20 3h1v1h-1zm-3 4h1v1h-1zm42 0h1v1h-1z"/><g fill="#053"><path d="M31 21h1v1h-1zm1 0h2v1h-2zm-1 1h1v1h-1zm-14 6h1v1h-1zm-5 1h1v1h-1zm22 0h1v1h-1zm-15 2h1v1h-1zm1 3h1v1h-1zm26 0h1v1h-1zm0 1h1v1h-1zm-13 1h1v1h-1zm-17 5h1v1h-1zm28 3h1v1h-1zm1 0h1v1h-1zm-9 4h1v1h-1zm3 1h1v1h-1zm3 2h1v2h-1z"/><path d="M41 52h2v1h-2zm4 0h1v1h-1zm-1 1h1v1h-1zm-2 3h1v1h-1zm-16 2h1v1h-1zm23 4h1v1h-1zm1 0h1v1h-1zm-30 2h1v1h-1zm1 1h1v1h-1zm5 0h1v1h-1zm23 1h1v1h-1zm3 0h1v1h-1z"/></g><path fill="#6a8" d="M27 12h1v1h-1zm-4 1h1v2h-1zm18 2h1v1h-1zm-27 1h1v1h-1zm21 0h1v1h-1zm-22 1h1v1h-1zm20 1h1v1h-1zm7 0h1v1h-1zm-7 1h1v1h-1zm5 0h1v1h-1zm8 0h1v1h-1zm-32 1h1v1h-1zm15 1h1v1h-1zm-5 2h1v1h-1zm25 0h1v1h-1zm1 0h1v1h-1zm-8 2h1v1h-1zm-23 1h1v1h-1zm1 0h1v1h-1zm13 1h1v1h-1zm18 0h1v1h-1zm3 0h1v1h-1zm-35 1h1v1h-1zm24 0h1v1h-1zm-29 1h1v1h-1zm30 0h1v1h-1zm13 2h1v1h-1zm-10 1h1v1h-1zm-9 2h1v1h-1zm-14 1h1v1h-1zm26 0h1v1h-1zm-37 1h1v1h-1zm5 1h1v1h-1zm1 1h1v1h-1zm7 0h1v1h-1zm-9 2h1v1h-1zm17 0h1v1h-1zm8 1h1v1h-1zm-5 1h1v1h-1zm-22 2h1v1h-1zm21 0h1v1h-1zm-8 2h1v1h-1zm1 0h1v1h-1zm1 0h1v1h-1zm8 1h1v1h-1zm5 0h1v1h-1zm-3 1h1v1h-1zm1 0h1v1h-1zm-18 5h1v1h-1zm8 0h1v1h-1zm3 1h1v1h-1zm-17 2h1v1h-1zm1 0h1v1h-1zm3 0h1v1h-1zm2 0h1v1h-1zm9 0h1v1h-1zm1 0h1v1h-1zm-13 1h1v1h-1zm-5 1h1v1h-1zm1 1h1v1h-1zm0 1h1v1h-1zm23 0h1v1h-1zm10 0h1v1h-1zm-15 4h1v1h-1zm8 0h1v1h-1zm11 1h1v1h-1zm1 0h1v1h-1z"/><path fill="#bcb" d="M40 28h1v1h-1zm12 2h1v1h-1zm-40 7h1v1h-1zm5 9h1v1h-1zm0 18h1v1h-1zm34 3h1v1h-1z"/><path fill="#d99" d="M25 76h1v1h-1z"/><path fill="#c56" d="M36 75h1v1h-1zm-7 1h1v1h-1z"/><path fill="#aaa" d="M0 2h1v1H0zm65 0h1v1h-1zM42 37h1v1h-1zm-1 6h1v1h-1zM1 86h1v1H1zm63 0h1v1h-1zM2 87h1v1H2zm1 0h1v1H3zm1 0h1v1H4zm1 0h56v1H5zm56 0h1v1h-1zm1 0h1v1h-1zm1 0h1v1h-1zM4 88h1v1H4zm1 0h56v1H5zm56 0h1v1h-1z"/><path fill="#cdd" d="M23 11h1v1h-1zm17 4h1v1h-1zm3 0h1v1h-1zm-18 7h1v1h-1zm12 0h1v1h-1zm4 0h1v1h-1zm-21 2h1v1h-1zm15 3h1v1h-1zm3 0h1v1h-1zm6 0h1v1h-1zm-17 3h1v1h-1zm19 1h1v1h-1zm-11 4h1v1h-1zm5 2h1v1h-1zm6 0h1v1h-1zm3 1h1v1h-1zm-32 1h1v1h-1zm10 0h1v1h-1zm13 0h1v1h-1zM9 40h1v1H9zm22 0h1v1h-1zm19 0h1v1h-1zm-24 1h1v1h-1zm19 5h1v1h-1zm-5 1h1v1h-1zm1 0h1v1h-1zm12 2h1v1h-1zm-14 2h1v1h-1zm7 6h1v1h-1zm2 1h1v1h-1zm-24 2h1v1h-1zm23 0h1v1h-1zm-4 3h1v1h-1zm1 3h1v1h-1zm12 0h1v1h-1z"/><path fill="#063" d="M13 19h1v1h-1zm5 1h1v1h-1zm1 0h1v1h-1zm19 0h2v1h-2zm2 0h1v1h-1zm-22 1h1v1h-1zm1 0h1v2h-1zm8 0h1v1h-1zm1 0h1v1h-1zm-10 1h1v1h-1zm8 0h1v1h-1zm-12 1h1v1h-1zm5 0h1v1h-1zm-4 2h1v1h-1zm1 1h1v1h-1zm24 0h1v1h-1zm1 0h1v1h-1zm-30 1h1v1h-1zm5 0h1v1h-1zm1 0h1v1h-1zm5 0h1v1h-1zm3 0h1v1h-1zm18 0h1v1h-1zm5 0h1v1h-1zm-36 1h1v1h-1zm6 0h1v1h-1zm2 0h1v1h-1zm6 0h1v1h-1zm6 0h1v1h-1zm1 0h1v1h-1zm14 0h1v1h-1zm-34 1h1v1h-1zm6 0h1v1h-1zm9 0h1v1h-1zm1 0h1v1h-1zm1 0h1v1h-1zm16 0h1v1h-1zm4 0h1v1h-1zm-36 1h1v1h-1zm29 0h1v2h-1zm2 0h1v1h-1zm-30 1h1v1h-1zm5 0h1v1h-1zm25 0h1v1h-1zm-29 1h1v1h-1zm27 0h1v1h-1zm1 0h1v1h-1zm-27 1h1v1h-1zm2 1h1v1h-1zm2 0h1v1h-1zm14 0h1v1h-1zm6 0h1v1h-1zm-2 1h1v1h-1zm1 0h1v1h-1zm-14 1h1v1h-1zm21 0h1v1h-1zm-33 1h1v1h-1zm33 0h1v1h-1zm2 2h1v1h-1zm1 0h1v1h-1zm-24 1h1v1h-1zm21 0h1v1h-1zm-36 1h1v1h-1zm1 0h1v1h-1zm1 0h1v1h-1zm1 0h1v1h-1zm1 0h1v1h-1zm4 0h1v1h-1zm2 0h1v1h-1zm17 0h1v1h-1zm8 0h1v1h-1zm-26 1h1v1h-1zm9 0h1v1h-1zm7 0h1v1h-1zm-16 1h1v1h-1zm-2 1h1v1h-1zm1 0h1v1h-1zm1 0h1v1h-1zm-7 1h1v1h-1zm8 0h1v1h-1zm23 0h1v1h-1zm-15 2h1v1h-1zm1 0h1v1h-1zm-7 1h1v1h-1zm4 0h1v1h-1zm10 0h1v1h-1zm-13 1h1v1h-1zm1 0h1v1h-1zm15 0h1v1h-1zm2 0h1v1h-1zm1 0h1v1h-1zm1 0h1v1h-1zm1 0h1v1h-1zm-17 2h1v1h-1zm1 0h1v1h-1zm15 0h1v1h-1zm-1 3h1v1h-1zm-1 1h1v1h-1zm1 0h1v1h-1zm0 1h1v1h-1zm-5 1h1v1h-1zm1 0h1v1h-1zm1 0h1v1h-1zm-20 1h1v1h-1zm1 0h1v1h-1zm1 0h1v1h-1zm14 0h1v1h-1zm-17 1h1v1h-1zm11 0h1v1h-1zm10 0h1v1h-1zm-22 1h1v1h-1zm2 0h1v1h-1zm9 0h1v1h-1zm7 0h1v1h-1zm1 0h1v1h-1zm-20 1h1v1h-1zm11 0h1v1h-1zm14 0h1v1h-1zm7 0h1v1h-1zm-32 1h1v1h-1zm1 0h1v1h-1zm1 0h1v1h-1zm1 0h1v1h-1zm16 0h1v1h-1zm4 0h1v1h-1zm1 0h1v1h-1zm1 0h1v1h-1zm1 0h1v1h-1zm-27 1h1v1h-1zm4 0h1v1h-1zm17 0h1v1h-1zm8 1h1v1h-1zm-23 1h1v1h-1zm2 0h2v1h-2zm3 0h1v1h-1zm1 0h1v1h-1zm-18 1h1v1h-1zm44 0h1v1h-1z"/><path fill="#433" d="M36 24h1v1h-1zM26 44h1v1h-1z"/><path fill="#332" d="M33 44h1v1h-1z"/><path fill="#fef" d="M18 49h1v1h-1zm-4 1h1v1h-1z"/><path fill="#b45" d="M19 52h1v1h-1zm4 24h1v1h-1z"/><path fill="#a66" d="M31 77h1v1h-1z"/><path fill="#7b9" d="M14 15h1v1h-1zm12 0h1v1h-1zm9 0h1v1h-1zm-21 3h1v1h-1zm25 1h1v1h-1zm-5 1h1v1h-1zm12 2h1v1h-1zm4 3h1v1h-1zm-32 2h1v1h-1zm34 5h1v1h-1zm-35 5h1v1h-1zm22 2h1v1h-1zm6 3h1v1h-1zm-32 2h1v1h-1zm16 1h1v1h-1zm8 1h1v1h-1zm12 0h1v1h-1zm-15 7h1v1h-1zm-15 2h1v1h-1zm18 0h1v1h-1zm-20 4h1v1h-1zm-2 1h1v1h-1zm-2 3h1v1h-1z"/><path fill="#153" d="M34 22h1v1h-1zm-13 7h1v1h-1zm14 1h1v1h-1zm-14 5h1v1h-1zm16 16h1v1h-1zM20 65h1v1h-1zm22 0h1v1h-1zm-32 2h1v1h-1z"/><path fill="#111" d="M25 31h1v1h-1zm2 22h1v1h-1z"/><path fill="#475" d="M44 34h1v1h-1z"/><path fill="#c67" d="M17 51h1v1h-1zm13 25h1v1h-1zm-11 1h1v1h-1z"/><path fill="#d56" d="M20 51h1v1h-1zm1 1h1v1h-1zm6 18h1v1h-1zm7 0h1v1h-1zm-7 1h1v1h-1zm7 1h1v1h-1zm0 2h1v1h-1zm-11 1h1v1h-1zm5 0h1v1h-1zm1 0h1v1h-1z"/><path fill="#b12" d="M20 52h1v1h-1z"/><path fill="#c34" d="M24 75h1v1h-1zm8 0h1v1h-1z"/><g fill="#fff"><path d="M4 1h1v1H4zm1 0h1v1H5zm1 0h54v1H6zm54 0h1v1h-1zm1 0h1v1h-1zM3 2h1v1H3zm1 0h1v1H4zm1 0h56v1H5zm56 0h1v1h-1zm1 0h1v1h-1zM2 3h1v1H2zm1 0h1v1H3zm1 0h2v1H4zm2 0h54v1H6zm54 0h2v1h-2zm2 0h1v1h-1zm1 0h1v1h-1zM2 4h1v2H2zm1 0h1v3H3zm1 0h1v1H4zm1 0h56v6H5zm56 0h1v1h-1zm1 0h1v3h-1zm1 0h1v2h-1z"/><path d="M4 5h58v2H4zM3 7h1v1H3zm1 0h1v1H4zm57 0h1v1h-1zm1 0h1v1h-1zM3 8h1v73H3zm1 0h1v73H4zm57 0h1v74h-1zm1 0h1v73h-1zM5 10h18v4H5zm18 0h1v1h-1zm2 0h1v12h-1zm3 0h8v1h-8zm9 0h24v1H37zm-9 1h2v6h-2zm4 0h3v3h-3zm5 0h1v7h-1zm2 0h22v1H39zm0 1h1v1h-1zm1 0h21v1H40z"/><path d="M24 13h2v2h-2zm15 0h1v1h-1zm1 0h4v1h-4zm5 0h16v2H45zM5 14h9v2H5zm11 0h3v2h-3zm3 0h1v1h-1zm1 0h3v1h-3zm12 0h2v1h-2zm7 0h2v1h-2zm3 0h1v5h-1zm1 0h1v1h-1zm-28 1h1v1h-1zm5 0h1v1h-1zm1 0h2v8h-2zm3 0h1v1h-1zm21 0h5v2h-5zm5 0h1v1h-1zm1 0h10v8H51zM5 16h8v8H5zm10 0h3v2h-3zm5 0h1v1h-1zm4 0h1v1h-1zm15 0h1v1h-1zm-19 1h1v1h-1zm8 0h1v1h-1zm1 0h1v4h-1zm10 0h1v1h-1zm6 0h1v1h-1zm2 0h3v2h-3zm-32 1h2v3h-2zm2 0h1v1h-1z"/><path d="M20 18h3v4h-3zm4 0h1v1h-1zm13 0h1v1h-1zm7 0h1v1h-1zm1 0h1v1h-1zm-21 1h2v3h-2zm18 0h1v1h-1zm2 0h1v4h-1zm3 0h2v5h-2zm-32 2h1v1h-1zm1 0h1v2h-1zm4 1h1v1h-1zm4 0h1v1h-1zm-11 1h1v1h-1zm4 0h1v2h-1zm4 0h1v3h-1zm1 0h1v1h-1zm6 0h1v1h-1zm1 0h2v1h-2zm5 0h1v1h-1zm1 0h1v4h-1zm1 0h1v1h-1zm2 0h2v1h-2zm6 0h1v1h-1zm7 0h6v1h-6zm6 0h1v1h-1zm1 0h3v7h-3zM5 24h4v10H5zm6 0h1v1h-1zm1 0h2v2h-2zm14 0h1v1h-1zm1 0h1v3h-1zm4 0h1v3h-1z"/><path d="M34 24h2v1h-2zm5 0h1v1h-1zm4 0h1v1h-1zm3 0h2v1h-2zm5 0h5v1h-5zm-25 1h2v1h-2zm6 0h1v1h-1zm2 0h1v1h-1zm4 0h1v1h-1zm8 0h1v1h-1zm1 0h1v1h-1zm4 0h1v1h-1zm1 0h1v1h-1zm1 0h2v1h-2zm4 0h1v1h-1zM9 26h1v1H9zm4 0h2v1h-2zm5 0h1v1h-1zm8 0h1v1h-1zm2 0h1v1h-1zm2 0h2v1h-2zm6 0h3v1h-3zm9 0h1v1h-1zm1 0h1v1h-1zm5 0h1v1h-1zm2 0h1v2h-1zm4 0h4v4h-4zM9 27h1v7H9zm5 0h1v1h-1zm14 0h1v1h-1zm1 0h2v1h-2zm2 0h1v1h-1zm5 0h1v1h-1zm9 0h1v1h-1zm5 0h1v1h-1z"/><path d="M56 27h5v3h-5zm-46 1h1v1h-1zm5 0h1v1h-1zm29 0h1v1h-1zm5 0h1v1h-1zm3 0h1v1h-1zm-42 1h1v6h-1zm5 0h1v1h-1zm1 0h1v1h-1zm7 0h2v1h-2zm15 0h1v1h-1zm1 0h3v1h-3zm9 0h1v1h-1zm4 0h1v1h-1z"/><path d="M55 29h6v1h-6zm-44 1h1v5h-1zm5 0h1v1h-1zm6 0h2v3h-2zm2 0h1v1h-1zm2 0h1v1h-1zm5 0h3v1h-3zm6 0h1v3h-1zm4 0h1v3h-1zm6 0h1v1h-1zm4 0h1v1h-1zm3 0h1v1h-1zm1 0h2v1h-2zm2 0h1v1h-1zm2 0h2v52h-2zm-47 1h1v4h-1zm5 0h1v1h-1zm10 0h1v3h-1zm3 0h1v1h-1zm1 0h1v1h-1zm3 0h1v3h-1zm13 0h1v1h-1zm4 0h1v1h-1zm3 0h2v1h-2zm-41 1h1v1h-1zm15 0h1v1h-1zm2 0h1v1h-1zm1 0h1v1h-1zm7 0h1v1h-1zm2 0h1v1h-1zm6 0h1v1h-1zm4 0h1v1h-1zm3 0h2v1h-2z"/><path d="M58 32h3v10h-3zm-45 1h1v3h-1zm1 0h1v1h-1zm9 0h5v1h-5zm8 0h1v1h-1zm1 0h1v1h-1zm1 0h1v1h-1zm5 0h3v1h-3zm11 0h1v1h-1zm3 0h1v1h-1zm1 0h1v1h-1z"/><path d="M57 33h4v9h-4zM5 34h3v48H5zm3 0h1v1H8zm6 0h2v2h-2zm10 0h1v1h-1zm1 0h2v1h-2zm7 0h1v1h-1zm1 0h1v1h-1zm15 0h1v1h-1zm4 0h1v1h-1z"/><path d="M56 34h5v8h-5zM8 35h1v31H8zm8 0h1v1h-1zm1 0h1v1h-1zm19 0h1v2h-1zm1 0h1v1h-1zm5 0h3v2h-3zm9 0h1v1h-1zm4 0h1v1h-1zM9 36h1v4H9zm7 0h1v1h-1zm1 0h2v1h-2zm4 0h1v1h-1zm1 0h3v1h-3zm6 0h1v1h-1zm1 0h2v1h-2z"/><path d="M35 36h3v1h-3zm3 0h1v1h-1zm3 0h5v1h-5zm13 0h1v1h-1zm1 0h6v6h-6zm-45 1h2v3h-2zm10 0h1v1h-1zm1 0h1v3h-1zm4 0h1v2h-1zm3 0h1v3h-1zm3 0h1v1h-1zm3 0h1v2h-1zm4 0h1v3h-1zm3 0h1v3h-1zm4 0h1v3h-1zm8 0h1v1h-1z"/><path d="M54 37h7v5h-7zm-42 1h1v2h-1zm1 0h1v1h-1zm7 0h2v1h-2zm7 0h1v1h-1zm25 0h1v1h-1z"/><path d="M53 38h8v4h-8zm-40 1h3v1h-3zm3 0h1v1h-1zm6 0h1v1h-1zm2 0h1v1h-1zm1 0h1v1h-1zm4 0h1v1h-1zm2 0h1v1h-1zm3 0h1v1h-1zm1 0h1v1h-1zm2 0h1v1h-1zm5 0h1v1h-1zm2 0h2v1h-2z"/><path d="M52 39h9v3h-9zm-30 1h1v1h-1zm1 0h1v1h-1zm1 0h1v1h-1zm5 0h2v1h-2zm6 0h1v1h-1zm1 0h1v1h-1zm1 0h1v1h-1zm5 0h3v1h-3z"/><path d="M51 40h10v1H51zm-19 1h1v1h-1zm1 0h1v2h-1zm18 0h1v1h-1zM9 42h2v2H9zm2 0h1v1h-1zm12 0h5v1h-5z"/><path d="M31 42h4v1h-4zm7 0h1v1h-1zm1 0h2v1h-2zm2 0h1v1h-1zm10 0h5v1h-5zm-40 1h7v1h-7zm7 0h1v1h-1zm4 0h3v2h-3zm5 0h1v1h-1zm3 0h2v1h-2zm5 0h1v1h-1zm3 0h2v2h-2zm4 0h1v1h-1zm7 0h1v1h-1zm1 0h4v1h-4zm8 0h1v1h-1zM9 44h1v1H9zm22 0h1v2h-1zm4 0h1v1h-1zm13 0h4v1h-4zm8 0h1v1h-1zm1 0h4v23h-4zM9 45h1v20H9zm14 0h2v1h-2zm2 0h1v1h-1zm2 0h1v1h-1zm5 0h1v1h-1zm2 0h1v1h-1zm1 0h1v1h-1zm4 0h1v1h-1zm3 0h1v1h-1zm4 0h4v1h-4zm8 0h1v1h-1z"/><path d="M55 45h6v2h-6zm-45 1h4v13h-4zm4 0h1v1h-1zm10 0h1v1h-1zm1 0h1v1h-1zm7 0h1v1h-1zm1 0h1v1h-1zm1 0h1v1h-1zm6 0h2v1h-2zm2 0h1v1h-1zm4 0h2v1h-2zm2 0h1v1h-1zm4 0h1v1h-1z"/><path d="M53 46h8v1h-8zm-39 1h8v1h-8zm32 0h1v1h-1zm4 0h1v1h-1zm1 0h3v1h-3zm5 0h5v19h-5zm-41 1h1v1h-1zm1 0h6v1h-6zm6 0h1v1h-1zm26 0h1v1h-1zm1 0h2v1h-2zm2 0h1v1h-1zm-37 1h1v1h-1zm5 0h4v1h-4zm28 0h2v1h-2zm2 0h1v1h-1z"/><path d="M54 49h7v15h-7zm-33 1h1v1h-1zm1 0h1v1h-1zm8 0h5v1h-5zm16 0h1v1h-1zm1 0h1v1h-1z"/><path d="M52 50h9v11h-9zm-38 1h2v5h-2zm18 0h3v1h-3zm6 0h1v3h-1z"/><path d="M50 51h11v9H50zm-34 1h2v3h-2zm8 0h1v1h-1zm1 0h1v1h-1zm8 0h2v1h-2zm6 0h1v1h-1z"/><path d="M48 52h13v6H48zm-30 1h2v1h-2zm6 0h1v1h-1zm1 0h1v1h-1zm5 0h1v1h-1z"/><path d="M46 53h15v4H46zm-28 1h1v1h-1zm2 0h1v1h-1zm1 0h1v1h-1zm4 0h1v1h-1zm1 0h1v1h-1zm4 0h2v2h-2z"/><path d="M45 54h16v2H45zm-29 1h1v1h-1zm9 0h1v1h-1zm1 0h6v1h-6zm-12 1h1v2h-1zm1 0h1v1h-1zm11 0h1v1h-1zm1 0h4v1h-4zm4 0h1v1h-1zm3 0h1v1h-1zm-6 1h3v1h-3zm19 0h1v1h-1zm-33 1h1v1h-1zm3 0h1v1h-1zm1 0h1v1h-1zm10 0h2v1h-2zm21 0h1v1h-1zm-39 1h3v1h-3zm17 0h2v1h-2zm-17 1h2v2h-2zm2 0h1v1h-1zm13 0h3v1h-3zm19 0h3v1h-3zm7 0h10v1H51zm-36 1h1v1h-1zm4 0h1v1h-1zm4 0h1v1h-1zm1 0h3v3h-3zm6 0h3v3h-3zm3 0h1v1h-1zm4 0h1v1h-1zm1 0h1v1h-1zm1 0h1v1h-1zm13 0h1v1h-1zm1 0h8v1h-8zm-43 1h1v1h-1z"/><path d="M22 62h5v2h-5zm7 0h1v1h-1zm4 0h1v2h-1zm1 0h1v1h-1zm-13 1h1v1h-1zm7 0h1v1h-1z"/><path d="M29 63h6v1h-6zm6 0h1v1h-1zm6 0h2v1h-2zm5 0h3v1h-3zm3 0h1v1h-1zm-37 1h1v1h-1zm1 0h1v1h-1zm1 0h1v1h-1zm33 0h1v1h-1zm1 0h3v1h-3zm3 0h1v1h-1zm4 0h6v1h-6zM9 65h1v1H9zm43 0h1v1h-1zM8 66h1v1H8zm10 0h1v1h-1zm1 0h24v1H19zm24 0h1v1h-1zm-29 1h12v7H14zm14 0h21v1H28zm21 0h1v1h-1zm-39 1h1v1h-1z"/><path d="M11 68h15v6H11zm17 0h5v6h-5zm7 0h20v6H35z"/><path d="M8 69h18v5H8zm47 0h6v13h-6zM8 74h11v2H8zm11 0h1v1h-1z"/><path d="M36 74h25v1H36zm-17 1h1v1h-1zm18 0h24v7H37zM8 76h10v1H8zm0 1h9v7H8zm9 0h1v1h-1zm4 0h1v1h-1zm11 0h1v1h-1z"/><path d="M33 77h28v5H33zm-16 1h1v1h-1zm1 0h1v1h-1zm1 0h2v6h-2zm5 0h1v1h-1zm3 0h1v6h-1z"/><path d="M31 78h30v4H31zm-14 1h4v5h-4zm6 0h5v5h-5z"/><path d="M30 79h31v3H30z"/><path d="M21 80h40v2H21zM3 81h1v1H3zm1 0h1v2H4zm58 0h1v1h-1zM3 82h1v1H3zm2 0h1v1H5zm1 0h54v1H6zm54 0h1v1h-1zm1 0h1v1h-1zm1 0h1v1h-1zM3 83h1v1H3zm1 0h1v1H4zm1 0h1v1H5zm1 0h1v1H6zm1 0h52v1H7zm52 0h1v1h-1zm1 0h1v1h-1zm1 0h1v1h-1zm1 0h1v1h-1zM5 84h1v1H5zm1 0h1v1H6zm1 0h1v1H7zm1 0h50v1H8zm50 0h1v1h-1zm1 0h1v1h-1zm1 0h1v1h-1z"/></g><path fill="#efe" d="M26 10h1v1h-1zm-11 4h1v1h-1zm34 5h1v1h-1zm-33 4h1v1h-1zm15 0h1v1h-1zm12 0h1v1h-1zm-21 1h1v1h-1zm21 1h1v1h-1zm-11 1h1v1h-1zm18 0h1v1h-1zm4 0h1v1h-1zm1 2h1v1h-1zm-5 3h1v1h-1zm5 1h1v1h-1zm-25 1h1v1h-1zm24 0h1v1h-1zM9 34h1v1H9zm44 0h1v1h-1zm-41 1h1v1h-1zm40 0h1v1h-1zm-2 1h1v1h-1zm1 0h1v1h-1zm-11 2h1v1h-1zm11 1h1v1h-1zm-1 3h1v1h-1zm-22 2h1v1h-1zm15 0h1v1h-1zm-17 2h1v1h-1zm28 1h1v1h-1zm-19 5h1v1h-1zm2 1h1v1h-1zm-13 1h1v1h-1zm-7 1h1v1h-1zm-3 6h1v1h-1zm26 0h1v1h-1zm13 1h1v1h-1zm-26 1h1v1h-1zm27 1h1v1h-1z"/><path fill="#385" d="M23 15h1v1h-1zm8 1h1v1h-1zm0 2h1v1h-1zm12 0h1v1h-1zm-3 1h1v1h-1zm-17 1h1v1h-1zm-8 3h1v1h-1zm25 1h1v1h-1zm5 0h1v1h-1zm-21 1h1v1h-1zm12 3h1v1h-1zm10 0h1v1h-1zm-1 1h1v1h-1zm-9 4h1v1h-1zm19 0h1v1h-1zm-18 1h1v1h-1zm11 2h1v1h-1zm-31 2h1v1h-1zm31 0h1v1h-1zm3 0h1v1h-1zm-32 2h1v1h-1zm28 1h1v1h-1zm-28 1h1v1h-1zm10 1h1v1h-1zm21 3h1v1h-1zm-19 6h1v1h-1zm1 1h1v1h-1zm-11 4h1v1h-1zm18 1h1v1h-1zm-24 1h1v1h-1zm24 0h1v1h-1zm16 7h1v1h-1z"/><path fill="#ebb" d="M17 49h1v1h-1zm-2 1h1v1h-1zm2 0h1v1h-1zm3 24h1v1h-1zm3 0h1v1h-1zm1 0h1v1h-1z"/><path fill="#a12" d="M28 76h1v1h-1z"/><path fill="#dbb" d="M29 77h1v1h-1zm-8 2h1v1h-1z"/><path fill="#ccc" d="M1 0h1v1H1zm1 0h1v1H2zm61 0h1v1h-1zm1 0h1v1h-1zM1 2h1v1H1zm63 0h1v1h-1zM39 32h1v1h-1zm5 6h1v1h-1zM1 84h1v1H1zm63 0h1v1h-1zM2 85h1v1H2zm61 0h1v1h-1zM4 86h1v1H4zm1 0h1v1H5zm1 0h1v1H6zm1 0h52v1H7zm52 0h1v1h-1zm1 0h1v1h-1zm1 0h1v1h-1z"/><path fill="#5a8" d="M43 17h1v1h-1zm12 26h1v1h-1zM18 59h1v1h-1z"/><path fill="#555" d="M32 31h1v1h-1zm-2 6h1v1h-1zm6 0h1v1h-1zm7 0h1v1h-1zm-10 6h1v1h-1zm-5 11h1v1h-1z"/><path fill="#322" d="M32 32h1v1h-1zm11 6h1v1h-1z"/></svg>