<?xml version="1.0" encoding="UTF-8"?><svg baseProfile="tiny" viewBox="0 0 66 90" width="66px" height="90px" xmlns="http://www.w3.org/2000/svg" version="1.2"><g fill="#777"><rect y="84" width="1" height="1"/><rect width="1" height="1" x="65" y="84"/><rect y="85" width="1" height="1"/><rect width="1" height="1" x="65" y="85"/><rect width="1" height="1" y="86"/><rect x="65" y="86" width="1" height="1"/><rect width="1" height="1" y="87"/><rect width="1" height="1" x="65" y="87"/></g><g fill="#dee"><rect y="11" width="1" height="1" x="37"/><rect height="1" x="34" y="13" width="1"/><rect width="1" height="1" x="39" y="24"/><rect x="33" y="27" width="1" height="1"/><rect width="1" height="1" x="38" y="28"/><rect x="33" y="41" width="2" height="1"/><rect x="38" y="73" width="1" height="1"/></g><g fill="#888"><rect width="1" height="1" y="5"/><rect height="1" x="65" y="5" width="1"/><rect height="1" y="6" width="1"/><rect x="65" y="6" width="1" height="1"/><rect y="7" width="1" height="1"/><rect x="65" y="7" width="1" height="1"/><rect height="73" y="8" width="1"/><rect width="1" height="73" x="65" y="8"/><rect y="81" width="1" height="2"/><rect x="65" y="81" width="1" height="2"/><rect height="1" y="83" width="1"/><rect x="65" y="83" width="1" height="1"/><rect x="1" y="87" width="1" height="1"/><rect height="1" x="64" y="87" width="1"/><rect y="88" width="1" height="1" x="2"/><rect x="63" y="88" width="1" height="1"/></g><g fill="#8b9"><rect y="12" width="1" height="1" x="30"/><rect width="1" height="1" x="38" y="12"/><rect width="1" height="1" x="28" y="50"/><rect x="37" y="50" width="1" height="1"/></g><g fill="#eff"><rect y="51" width="1" height="1" x="32"/><rect height="1" x="34" y="76" width="1"/></g><g fill="#fff"><rect height="1" x="4" y="1" width="1"/><rect x="5" y="1" width="1" height="1"/><rect y="1" width="54" height="1" x="6"/><rect y="1" width="1" height="1" x="60"/><rect x="61" y="1" width="1" height="1"/><rect height="1" x="3" y="2" width="1"/><rect y="2" width="1" height="1" x="4"/><rect width="56" height="1" x="5" y="2"/><rect width="1" height="1" x="61" y="2"/><rect y="2" width="1" height="1" x="62"/><rect width="1" height="1" x="2" y="3"/><rect height="1" x="3" y="3" width="1"/><rect y="3" width="2" height="1" x="4"/><rect width="54" height="1" x="6" y="3"/><rect y="3" width="2" height="1" x="60"/><rect width="1" height="1" x="62" y="3"/><rect width="1" height="1" x="63" y="3"/><rect width="1" height="2" x="2" y="4"/><rect x="3" y="4" width="1" height="3"/><rect x="4" y="4" width="1" height="1"/><rect width="56" height="7" x="5" y="4"/><rect width="1" height="1" x="61" y="4"/><rect width="1" height="3" x="62" y="4"/><rect y="4" width="1" height="2" x="63"/><rect height="2" x="4" y="5" width="58"/><rect y="7" width="1" height="1" x="3"/><rect x="4" y="7" width="1" height="1"/><rect x="61" y="7" width="1" height="1"/><rect height="1" x="62" y="7" width="1"/><rect y="8" width="1" height="73" x="3"/><rect height="73" x="4" y="8" width="1"/><rect width="1" height="74" x="61" y="8"/><rect height="73" x="62" y="8" width="1"/><rect y="11" width="24" height="1" x="5"/><rect y="11" width="1" height="1" x="38"/><rect height="1" x="39" y="11" width="22"/><rect x="5" y="12" width="22" height="70"/><rect y="12" width="1" height="1" x="27"/><rect x="40" y="12" width="21" height="70"/><rect height="10" x="33" y="13" width="1"/><rect x="32" y="14" width="3" height="9"/><rect y="16" width="1" height="8" x="27"/><rect y="16" width="22" height="8" x="39"/><rect y="17" width="1" height="6" x="28"/><rect y="17" width="23" height="6" x="38"/><rect height="1" x="28" y="23" width="1"/><rect x="38" y="23" width="1" height="1"/><rect width="1" height="1" x="27" y="24"/><rect height="2" x="32" y="25" width="3"/><rect y="28" width="1" height="8" x="27"/><rect x="39" y="28" width="22" height="8"/><rect height="6" x="28" y="29" width="1"/><rect x="32" y="29" width="3" height="9"/><rect y="29" width="23" height="6" x="38"/><rect x="28" y="35" width="1" height="1"/><rect y="35" width="1" height="1" x="38"/><rect x="33" y="38" width="1" height="1"/><rect x="34" y="38" width="1" height="1"/><rect height="10" x="27" y="40" width="1"/><rect x="39" y="40" width="22" height="10"/><rect x="28" y="41" width="3" height="8"/><rect width="1" height="1" x="31" y="41"/><rect y="41" width="1" height="1" x="35"/><rect x="36" y="41" width="25" height="8"/><rect y="42" width="30" height="6" x="31"/><rect y="48" width="1" height="1" x="31"/><rect x="32" y="48" width="1" height="1"/><rect x="33" y="48" width="1" height="1"/><rect x="34" y="48" width="2" height="1"/><rect x="28" y="49" width="1" height="1"/><rect x="33" y="51" width="1" height="10"/><rect height="1" x="34" y="51" width="1"/><rect x="32" y="52" width="3" height="9"/><rect width="1" height="8" x="27" y="54"/><rect width="1" height="1" x="28" y="54"/><rect x="39" y="54" width="22" height="8"/><rect y="55" width="1" height="6" x="28"/><rect height="6" x="38" y="55" width="23"/><rect width="1" height="1" x="28" y="61"/><rect width="3" height="2" x="32" y="63"/><rect width="1" height="8" x="27" y="66"/><rect y="66" width="1" height="1" x="28"/><rect height="1" x="38" y="66" width="1"/><rect width="22" height="8" x="39" y="66"/><rect x="28" y="67" width="1" height="6"/><rect width="3" height="9" x="32" y="67"/><rect x="38" y="67" width="23" height="6"/><rect x="33" y="76" width="1" height="1"/><rect x="27" y="78" width="1" height="6"/><rect y="78" width="1" height="1" x="28"/><rect height="1" x="38" y="78" width="1"/><rect height="4" x="39" y="78" width="22"/><rect y="79" width="33" height="3" x="28"/><rect y="81" width="1" height="1" x="3"/><rect height="2" x="4" y="81" width="1"/><rect height="1" x="62" y="81" width="1"/><rect x="3" y="82" width="1" height="1"/><rect width="1" height="1" x="5" y="82"/><rect height="1" x="6" y="82" width="54"/><rect y="82" width="1" height="1" x="60"/><rect width="1" height="1" x="61" y="82"/><rect x="62" y="82" width="1" height="1"/><rect height="1" x="3" y="83" width="1"/><rect height="1" x="4" y="83" width="1"/><rect x="5" y="83" width="1" height="1"/><rect x="6" y="83" width="1" height="1"/><rect x="7" y="83" width="52" height="1"/><rect height="1" x="59" y="83" width="1"/><rect y="83" width="1" height="1" x="60"/><rect height="1" x="61" y="83" width="1"/><rect height="1" x="62" y="83" width="1"/><rect width="1" height="1" x="5" y="84"/><rect x="6" y="84" width="1" height="1"/><rect y="84" width="1" height="1" x="7"/><rect x="8" y="84" width="50" height="1"/><rect height="1" x="58" y="84" width="1"/><rect x="59" y="84" width="1" height="1"/><rect height="1" x="60" y="84" width="1"/></g><g fill="#9ba"><rect y="11" width="1" height="1" x="33"/><rect x="39" y="27" width="1" height="1"/><rect x="31" y="49" width="1" height="1"/><rect y="72" width="1" height="1" x="29"/><rect x="29" y="78" width="1" height="1"/></g><g fill="#375"><rect y="38" width="1" height="1" x="27"/><rect x="27" y="52" width="1" height="1"/><rect y="54" width="1" height="1" x="29"/><rect x="27" y="64" width="1" height="1"/><rect x="28" y="65" width="1" height="1"/><rect width="1" height="1" x="27" y="76"/></g><g fill="#efe"><rect width="1" height="1" x="29" y="11"/><rect y="38" width="1" height="1" x="32"/><rect y="49" width="1" height="1" x="38"/><rect width="1" height="1" x="38" y="54"/><rect width="1" height="1" x="28" y="73"/></g><g fill="#ced"><rect x="39" y="12" width="1" height="1"/><rect x="39" y="36" width="1" height="1"/><rect height="1" x="29" y="49" width="1"/><rect width="1" height="1" x="33" y="62"/><rect x="32" y="76" width="1" height="1"/></g><g fill="#385"><rect y="13" width="1" height="1" x="30"/><rect x="38" y="13" width="1" height="1"/><rect height="1" x="36" y="35" width="1"/><rect width="1" height="1" x="36" y="36"/><rect x="29" y="37" width="1" height="1"/><rect y="37" width="1" height="1" x="31"/><rect x="37" y="37" width="1" height="1"/><rect height="1" x="36" y="73" width="1"/><rect width="1" height="1" x="36" y="74"/></g><g fill="#052"><rect y="14" width="1" height="1" x="36"/><rect height="1" x="38" y="14" width="1"/><rect height="1" x="39" y="14" width="1"/><rect height="1" x="29" y="15" width="1"/><rect height="2" x="30" y="15" width="1"/><rect width="1" height="1" x="36" y="15"/><rect x="37" y="15" width="1" height="1"/><rect width="1" height="1" x="38" y="15"/><rect width="1" height="1" x="36" y="16"/><rect width="1" height="1" x="30" y="17"/><rect width="1" height="1" x="28" y="26"/><rect height="1" x="38" y="26" width="1"/><rect height="1" x="39" y="26" width="1"/><rect height="1" x="29" y="27" width="1"/><rect x="37" y="27" width="1" height="1"/><rect x="30" y="28" width="1" height="1"/><rect y="28" width="1" height="1" x="36"/><rect height="1" x="30" y="29" width="1"/><rect x="36" y="29" width="1" height="1"/><rect x="28" y="38" width="1" height="1"/><rect x="29" y="38" width="1" height="1"/><rect x="37" y="38" width="1" height="1"/><rect height="1" x="38" y="38" width="1"/><rect x="39" y="38" width="1" height="1"/><rect x="31" y="39" width="1" height="1"/><rect y="39" width="1" height="1" x="35"/><rect height="1" x="28" y="52" width="1"/><rect height="1" x="29" y="52" width="2"/><rect y="52" width="1" height="1" x="36"/><rect x="37" y="52" width="1" height="1"/><rect y="52" width="1" height="1" x="38"/><rect x="30" y="53" width="1" height="1"/><rect x="36" y="53" width="1" height="1"/><rect x="37" y="53" width="1" height="1"/><rect width="1" height="1" x="30" y="54"/><rect x="36" y="54" width="1" height="1"/><rect y="64" width="1" height="1" x="28"/><rect height="1" x="29" y="64" width="1"/><rect y="64" width="1" height="1" x="37"/><rect x="38" y="64" width="1" height="1"/><rect width="1" height="1" x="29" y="65"/><rect x="37" y="65" width="1" height="1"/><rect x="30" y="66" width="1" height="1"/><rect y="66" width="1" height="1" x="36"/><rect width="1" height="1" x="30" y="67"/><rect x="36" y="67" width="1" height="1"/><rect height="1" x="28" y="76" width="1"/><rect x="29" y="76" width="1" height="1"/><rect x="30" y="76" width="1" height="1"/><rect height="1" x="37" y="76" width="1"/><rect x="31" y="77" width="1" height="1"/><rect y="77" width="1" height="1" x="35"/></g><g fill="#598"><rect height="1" x="35" y="35" width="1"/><rect height="1" x="35" y="73" width="1"/></g><g fill="#9cb"><rect y="11" width="1" height="1" x="32"/><rect y="11" width="1" height="1" x="34"/><rect x="34" y="65" width="1" height="1"/></g><rect x="37" y="78" width="1" height="1" fill="#bcb"/><rect x="36" y="40" width="1" height="1" fill="#254"/><rect height="1" fill="#bcc" x="34" y="62" width="1"/><g fill="#999"><rect width="1" height="1" y="3"/><rect y="3" width="1" height="1" x="65"/><rect width="1" height="1" y="4"/><rect width="1" height="1" x="65" y="4"/><rect height="1" x="3" y="88" width="1"/><rect height="1" x="62" y="88" width="1"/></g><rect x="35" y="36" width="1" height="1" fill="#5a8"/><g fill="#ddd"><rect x="3" width="1" height="1"/><rect x="4" width="1" height="1"/><rect x="5" width="56" height="1"/><rect x="61" width="1" height="1"/><rect height="1" x="62" width="1"/><rect width="1" height="1" x="2" y="1"/><rect x="63" y="1" width="1" height="1"/><rect x="1" y="6" width="1" height="1"/><rect height="1" x="64" y="6" width="1"/><rect x="1" y="7" width="1" height="1"/><rect height="1" x="64" y="7" width="1"/><rect x="1" y="8" width="1" height="1"/><rect x="64" y="8" width="1" height="1"/><rect height="73" x="1" y="9" width="1"/><rect x="64" y="9" width="1" height="73"/><rect height="1" x="1" y="82" width="1"/><rect y="82" width="1" height="1" x="64"/><rect x="1" y="83" width="1" height="1"/><rect width="1" height="1" x="64" y="83"/><rect height="1" x="2" y="84" width="1"/><rect y="84" width="1" height="1" x="63"/><rect x="3" y="85" width="1" height="1"/><rect x="4" y="85" width="1" height="1"/><rect x="5" y="85" width="1" height="1"/><rect x="6" y="85" width="1" height="1"/><rect y="85" width="2" height="1" x="7"/><rect width="2" height="1" x="57" y="85"/><rect x="59" y="85" width="1" height="1"/><rect height="1" x="60" y="85" width="1"/><rect width="1" height="1" x="61" y="85"/><rect y="85" width="1" height="1" x="62"/></g><g fill="#486"><rect x="35" y="14" width="1" height="1"/><rect y="15" width="1" height="1" x="35"/><rect height="1" x="35" y="16" width="1"/><rect width="1" height="1" x="30" y="23"/><rect y="29" width="1" height="1" x="35"/><rect x="37" y="29" width="1" height="1"/><rect width="1" height="1" x="37" y="30"/><rect height="1" x="35" y="52" width="1"/><rect x="35" y="53" width="1" height="1"/><rect x="36" y="60" width="1" height="1"/><rect y="66" width="1" height="1" x="33"/><rect y="66" width="1" height="1" x="34"/><rect x="37" y="67" width="1" height="1"/><rect x="37" y="68" width="1" height="1"/></g><g fill="#042"><rect x="28" y="39" width="1" height="1"/><rect y="39" width="1" height="1" x="29"/><rect x="30" y="39" width="1" height="1"/><rect width="1" height="1" x="36" y="39"/><rect width="1" height="1" x="37" y="39"/><rect height="1" x="38" y="39" width="1"/><rect x="31" y="40" width="1" height="1"/><rect x="32" y="40" width="1" height="1"/><rect x="33" y="40" width="1" height="1"/><rect height="1" x="34" y="40" width="1"/><rect width="1" height="1" x="35" y="40"/><rect width="1" height="1" x="29" y="53"/><rect height="1" x="38" y="76" width="1"/><rect x="29" y="77" width="1" height="1"/><rect width="1" height="1" x="30" y="77"/><rect width="1" height="1" x="36" y="77"/><rect x="37" y="77" width="1" height="1"/></g><g fill="#174"><rect height="1" x="32" y="12" width="1"/><rect height="1" x="34" y="12" width="1"/><rect y="13" width="1" height="1" x="39"/><rect height="1" x="31" y="16" width="1"/><rect width="1" height="1" x="31" y="17"/><rect height="1" x="31" y="18" width="1"/><rect x="31" y="19" width="1" height="1"/><rect x="31" y="20" width="1" height="1"/><rect width="1" height="1" x="30" y="21"/><rect x="31" y="23" width="1" height="1"/><rect x="36" y="24" width="1" height="1"/><rect y="25" width="1" height="1" x="28"/><rect x="30" y="25" width="1" height="1"/><rect width="1" height="1" x="31" y="25"/><rect y="25" width="1" height="1" x="38"/><rect x="39" y="25" width="1" height="1"/><rect x="31" y="26" width="1" height="1"/><rect x="31" y="31" width="1" height="1"/><rect width="1" height="1" x="31" y="32"/><rect width="1" height="1" x="30" y="33"/><rect x="31" y="33" width="1" height="1"/><rect width="1" height="2" x="31" y="34"/><rect x="28" y="37" width="1" height="1"/><rect height="1" x="38" y="37" width="1"/><rect x="30" y="51" width="1" height="1"/><rect x="38" y="51" width="1" height="1"/><rect width="1" height="1" x="31" y="54"/><rect height="1" x="31" y="55" width="1"/><rect x="31" y="56" width="1" height="1"/><rect height="1" x="31" y="57" width="1"/><rect y="61" width="1" height="1" x="31"/><rect width="1" height="1" x="33" y="61"/><rect x="31" y="62" width="1" height="1"/><rect x="35" y="62" width="1" height="1"/><rect height="1" x="36" y="62" width="1"/><rect x="29" y="63" width="1" height="1"/><rect y="63" width="1" height="1" x="31"/><rect x="37" y="63" width="1" height="1"/><rect x="31" y="64" width="1" height="1"/><rect width="1" height="1" x="31" y="69"/><rect height="1" x="31" y="70" width="1"/><rect height="1" x="30" y="71" width="1"/><rect x="31" y="71" width="1" height="1"/><rect x="36" y="71" width="1" height="1"/><rect x="31" y="72" width="1" height="2"/><rect width="1" height="1" x="29" y="75"/><rect x="30" y="75" width="1" height="1"/><rect height="1" x="36" y="75" width="1"/><rect y="75" width="1" height="1" x="37"/><rect width="1" height="1" x="35" y="76"/><rect width="1" height="1" x="34" y="77"/></g><g fill="#7b9"><rect width="1" height="1" x="36" y="12"/><rect width="1" height="1" x="29" y="19"/><rect x="29" y="20" width="1" height="1"/><rect y="21" width="1" height="1" x="29"/><rect x="28" y="24" width="1" height="1"/><rect x="29" y="32" width="1" height="1"/><rect x="29" y="33" width="1" height="1"/><rect width="1" height="1" x="32" y="49"/><rect width="1" height="1" x="29" y="50"/><rect width="1" height="1" x="29" y="57"/><rect x="29" y="58" width="1" height="1"/><rect x="29" y="59" width="1" height="1"/><rect y="69" width="1" height="1" x="29"/><rect width="1" height="1" x="29" y="70"/><rect x="29" y="71" width="1" height="1"/></g><g fill="#275"><rect x="27" y="14" width="1" height="1"/><rect y="21" width="1" height="1" x="36"/><rect height="1" x="35" y="23" width="1"/><rect width="1" height="1" x="37" y="25"/><rect y="26" width="1" height="1" x="27"/><rect height="1" x="36" y="34" width="1"/><rect x="36" y="37" width="1" height="1"/><rect x="32" y="39" width="1" height="1"/><rect y="50" width="1" height="1" x="34"/><rect width="1" height="1" x="28" y="51"/><rect x="31" y="58" width="1" height="1"/><rect y="59" width="1" height="1" x="30"/><rect y="65" width="1" height="1" x="35"/><rect height="1" x="31" y="74" width="1"/></g><g fill="#7a8"><rect x="35" y="22" width="1" height="1"/><rect width="1" height="1" x="34" y="24"/><rect width="1" height="1" x="35" y="60"/></g><g fill="#bbb"><rect y="1" width="1" height="1"/><rect x="1" y="1" width="1" height="1"/><rect y="1" width="1" height="1" x="64"/><rect y="1" width="1" height="1" x="65"/><rect x="1" y="85" width="1" height="1"/><rect width="1" height="1" x="64" y="85"/><rect x="2" y="86" width="1" height="1"/><rect x="3" y="86" width="1" height="1"/><rect x="62" y="86" width="1" height="1"/><rect x="63" y="86" width="1" height="1"/></g><g fill="#acb"><rect x="31" y="11" width="1" height="1"/><rect x="35" y="11" width="1" height="1"/><rect width="1" height="1" x="28" y="12"/><rect height="1" x="27" y="15" width="1"/><rect y="15" width="1" height="1" x="39"/><rect width="1" height="1" x="27" y="39"/><rect x="39" y="39" width="1" height="1"/><rect width="1" height="1" x="30" y="49"/><rect x="36" y="49" width="1" height="1"/><rect x="39" y="50" width="1" height="1"/><rect height="1" x="39" y="62" width="1"/><rect y="65" width="1" height="1" x="33"/></g><g fill="#053"><rect x="28" y="14" width="1" height="1"/><rect x="28" y="15" width="1" height="1"/><rect x="37" y="16" width="1" height="1"/><rect width="1" height="1" x="30" y="27"/><rect width="1" height="1" x="38" y="27"/><rect x="31" y="28" width="1" height="1"/><rect y="28" width="1" height="1" x="35"/><rect width="1" height="1" x="30" y="30"/><rect height="1" x="36" y="30" width="1"/><rect height="1" x="39" y="52" width="1"/><rect y="55" width="1" height="1" x="30"/><rect width="1" height="1" x="39" y="64"/><rect y="65" width="1" height="1" x="30"/><rect width="1" height="1" x="36" y="68"/><rect width="1" height="1" x="36" y="76"/><rect x="39" y="76" width="1" height="1"/></g><g fill="#cdd"><rect x="38" y="16" width="1" height="1"/><rect y="27" width="1" height="1" x="32"/><rect x="28" y="40" width="1" height="1"/><rect x="32" y="62" width="1" height="1"/><rect x="27" y="77" width="1" height="1"/></g><g fill="#264"><rect x="29" y="28" width="1" height="1"/><rect x="28" y="53" width="1" height="1"/><rect height="1" x="38" y="53" width="1"/><rect x="37" y="66" width="1" height="1"/><rect width="1" height="1" x="32" y="78"/></g><g fill="#ccc"><rect x="1" width="1" height="1"/><rect width="1" height="1" x="2"/><rect x="63" width="1" height="1"/><rect height="1" x="64" width="1"/><rect x="1" y="2" width="1" height="1"/><rect x="64" y="2" width="1" height="1"/><rect width="1" height="1" x="1" y="84"/><rect x="64" y="84" width="1" height="1"/><rect x="2" y="85" width="1" height="1"/><rect width="1" height="1" x="63" y="85"/><rect x="4" y="86" width="1" height="1"/><rect height="1" x="5" y="86" width="1"/><rect height="1" x="6" y="86" width="1"/><rect x="7" y="86" width="52" height="1"/><rect x="59" y="86" width="1" height="1"/><rect height="1" x="60" y="86" width="1"/><rect width="1" height="1" x="61" y="86"/></g><g fill="#597"><rect y="12" width="1" height="1" x="31"/><rect y="13" width="1" height="1" x="27"/><rect height="1" x="29" y="13" width="1"/><rect y="22" width="1" height="1" x="37"/><rect x="33" y="23" width="1" height="1"/><rect x="37" y="23" width="1" height="1"/><rect y="30" width="1" height="1" x="35"/><rect height="1" x="35" y="31" width="1"/><rect width="1" height="1" x="35" y="32"/><rect y="33" width="1" height="2" x="35"/><rect x="29" y="36" width="1" height="1"/><rect x="37" y="36" width="1" height="1"/><rect width="1" height="1" x="38" y="36"/><rect x="37" y="60" width="1" height="1"/><rect x="37" y="61" width="1" height="1"/><rect height="1" x="28" y="62" width="1"/><rect x="35" y="64" width="1" height="1"/><rect y="67" width="1" height="1" x="35"/><rect x="35" y="68" width="1" height="1"/><rect y="69" width="1" height="1" x="35"/><rect width="1" height="1" x="35" y="70"/><rect x="35" y="71" width="1" height="2"/><rect height="1" x="37" y="71" width="1"/><rect x="37" y="73" width="1" height="1"/><rect x="29" y="74" width="1" height="1"/><rect width="1" height="1" x="37" y="74"/></g><g fill="#164"><rect x="31" y="14" width="1" height="1"/><rect y="15" width="1" height="1" x="31"/><rect y="24" width="1" height="1" x="31"/><rect y="29" width="1" height="1" x="31"/><rect height="1" x="31" y="30" width="1"/><rect y="51" width="1" height="1" x="35"/><rect x="31" y="52" width="1" height="1"/><rect x="31" y="53" width="1" height="1"/><rect x="37" y="54" width="1" height="1"/><rect width="1" height="1" x="31" y="67"/><rect height="1" x="31" y="68" width="1"/></g><g fill="#7a9"><rect x="29" y="17" width="1" height="1"/><rect x="29" y="18" width="1" height="1"/><rect x="29" y="23" width="1" height="1"/><rect height="1" x="29" y="29" width="1"/><rect x="29" y="30" width="1" height="1"/><rect x="29" y="31" width="1" height="1"/><rect x="29" y="35" width="1" height="1"/><rect height="1" x="34" y="49" width="1"/><rect height="1" x="30" y="50" width="1"/><rect height="1" x="29" y="55" width="1"/><rect x="29" y="56" width="1" height="1"/><rect y="67" width="1" height="1" x="29"/><rect height="1" x="29" y="68" width="1"/></g><g fill="#9ca"><rect x="33" y="39" width="1" height="1"/><rect width="1" height="1" x="39" y="74"/></g><g fill="#aaa"><rect y="2" width="1" height="1"/><rect x="65" y="2" width="1" height="1"/><rect x="1" y="86" width="1" height="1"/><rect x="64" y="86" width="1" height="1"/><rect y="87" width="1" height="1" x="2"/><rect x="3" y="87" width="1" height="1"/><rect x="4" y="87" width="1" height="1"/><rect x="5" y="87" width="56" height="1"/><rect x="61" y="87" width="1" height="1"/><rect width="1" height="1" x="62" y="87"/><rect width="1" height="1" x="63" y="87"/><rect x="4" y="88" width="1" height="1"/><rect width="56" height="1" x="5" y="88"/><rect x="61" y="88" width="1" height="1"/></g><g fill="#496"><rect x="35" y="12" width="1" height="1"/><rect height="1" x="37" y="13" width="1"/><rect x="31" y="22" width="1" height="1"/><rect height="1" x="29" y="24" width="1"/><rect width="1" height="1" x="37" y="24"/><rect x="27" y="25" width="1" height="1"/><rect width="1" height="1" x="34" y="39"/><rect width="1" height="1" x="37" y="59"/><rect height="1" x="31" y="60" width="1"/><rect width="1" height="1" x="29" y="62"/><rect x="37" y="62" width="1" height="1"/><rect x="38" y="62" width="1" height="1"/><rect width="1" height="1" x="38" y="74"/></g><g fill="#ded"><rect height="1" x="32" y="13" width="1"/><rect x="28" y="16" width="1" height="1"/><rect width="1" height="1" x="34" y="27"/><rect y="53" width="1" height="1" x="27"/><rect x="39" y="53" width="1" height="1"/><rect x="27" y="62" width="1" height="1"/><rect width="1" height="1" x="39" y="65"/><rect height="1" x="39" y="77" width="1"/></g><g fill="#274"><rect y="13" width="1" height="1" x="36"/><rect x="31" y="36" width="1" height="1"/></g><g fill="#074"><rect height="1" x="36" y="33" width="1"/><rect y="38" width="1" height="1" x="31"/><rect height="1" x="36" y="58" width="1"/></g><g fill="#364"><rect height="1" x="38" y="65" width="1"/><rect y="77" width="1" height="1" x="38"/></g><rect height="1" x="36" y="78" width="1" fill="#687"/><g fill="#cdc"><rect x="30" y="11" width="1" height="1"/><rect y="49" width="1" height="1" x="37"/></g><rect height="1" fill="#476" x="29" y="66" width="1"/><g fill="#6a8"><rect width="1" height="1" x="35" y="21"/><rect height="1" x="38" y="24" width="1"/><rect y="26" width="1" height="1" x="35"/><rect width="1" height="1" x="37" y="34"/><rect height="1" x="37" y="35" width="1"/><rect height="1" x="28" y="36" width="1"/><rect width="1" height="1" x="35" y="37"/><rect x="33" y="49" width="1" height="1"/><rect width="1" height="1" x="36" y="50"/><rect width="1" height="1" x="38" y="50"/><rect x="35" y="59" width="1" height="1"/><rect width="1" height="1" x="29" y="61"/><rect x="35" y="63" width="1" height="1"/><rect height="1" x="37" y="72" width="1"/><rect height="1" x="29" y="73" width="1"/><rect x="35" y="74" width="1" height="1"/><rect x="35" y="75" width="1" height="1"/></g><g fill="#153"><rect height="1" x="29" y="16" width="1"/><rect x="28" y="27" width="1" height="1"/><rect width="1" height="1" x="37" y="28"/><rect x="30" y="40" width="1" height="1"/><rect x="28" y="77" width="1" height="1"/><rect height="1" x="33" y="78" width="1"/><rect x="34" y="78" width="1" height="1"/></g><g fill="#497"><rect width="1" height="1" x="35" y="17"/><rect x="35" y="18" width="1" height="1"/><rect x="35" y="19" width="1" height="1"/><rect height="1" x="35" y="20" width="1"/><rect width="1" height="1" x="32" y="23"/><rect x="34" y="23" width="1" height="1"/><rect x="37" y="31" width="1" height="1"/><rect x="37" y="32" width="1" height="1"/><rect y="33" width="1" height="1" x="37"/><rect x="35" y="54" width="1" height="1"/><rect x="35" y="55" width="1" height="1"/><rect x="35" y="56" width="1" height="2"/><rect x="35" y="58" width="1" height="1"/><rect x="37" y="69" width="1" height="1"/><rect y="70" width="1" height="1" x="37"/><rect y="74" width="1" height="1" x="28"/><rect x="33" y="77" width="1" height="1"/></g><g fill="#587"><rect height="1" x="29" y="40" width="1"/><rect x="30" y="78" width="1" height="1"/></g><rect fill="#073" x="30" y="58" width="1" height="1"/><g fill="#365"><rect x="31" y="78" width="1" height="1"/><rect y="78" width="1" height="1" x="35"/></g><g fill="#666"><rect height="1" y="88" width="1"/><rect width="1" height="1" x="1" y="88"/><rect y="88" width="1" height="1" x="64"/><rect y="88" width="1" height="1" x="65"/><rect x="1" y="89" width="1" height="1"/><rect y="89" width="1" height="1" x="2"/><rect width="1" height="1" x="3" y="89"/><rect x="4" y="89" width="58" height="1"/><rect x="62" y="89" width="1" height="1"/><rect x="63" y="89" width="1" height="1"/><rect height="1" x="64" y="89" width="1"/></g><g fill="#eee"><rect height="1" x="3" y="1" width="1"/><rect x="62" y="1" width="1" height="1"/><rect width="1" height="1" x="2" y="2"/><rect x="63" y="2" width="1" height="1"/><rect x="1" y="3" width="1" height="1"/><rect width="1" height="1" x="64" y="3"/><rect height="1" x="1" y="4" width="1"/><rect y="4" width="1" height="1" x="64"/><rect y="5" width="1" height="1" x="1"/><rect x="64" y="5" width="1" height="1"/><rect x="2" y="6" width="1" height="1"/><rect x="63" y="6" width="1" height="1"/><rect y="7" width="1" height="1" x="2"/><rect width="1" height="1" x="63" y="7"/><rect width="1" height="74" x="2" y="8"/><rect width="1" height="74" x="63" y="8"/><rect y="28" width="1" height="1" x="28"/><rect x="27" y="36" width="1" height="1"/><rect x="38" y="40" width="1" height="1"/><rect y="41" width="1" height="1" x="32"/><rect x="27" y="50" width="1" height="1"/><rect x="38" y="61" width="1" height="1"/><rect x="27" y="65" width="1" height="1"/><rect width="1" height="1" x="2" y="82"/><rect width="1" height="1" x="63" y="82"/><rect width="1" height="1" x="2" y="83"/><rect x="63" y="83" width="1" height="1"/><rect x="3" y="84" width="1" height="1"/><rect height="1" x="4" y="84" width="1"/><rect width="1" height="1" x="61" y="84"/><rect height="1" x="62" y="84" width="1"/><rect height="1" x="9" y="85" width="48"/></g><g fill="#8ba"><rect width="1" height="1" x="29" y="12"/><rect x="37" y="12" width="1" height="1"/><rect x="29" y="22" width="1" height="1"/><rect height="1" x="32" y="24" width="1"/><rect y="24" width="1" height="1" x="33"/><rect x="29" y="34" width="1" height="1"/><rect x="35" y="49" width="1" height="1"/><rect x="29" y="60" width="1" height="1"/><rect x="32" y="65" width="1" height="1"/></g><g fill="#285"><rect y="12" width="1" height="1" x="33"/><rect height="1" x="30" y="24" width="1"/><rect width="1" height="1" x="29" y="25"/><rect x="30" y="34" width="1" height="1"/><rect width="1" height="1" x="30" y="37"/><rect y="38" width="1" height="1" x="35"/><rect height="1" x="32" y="50" width="1"/><rect x="35" y="50" width="1" height="1"/><rect height="1" x="37" y="51" width="1"/><rect y="59" width="1" height="1" x="36"/><rect height="1" x="30" y="62" width="1"/><rect x="27" y="63" width="1" height="1"/><rect width="1" height="1" x="30" y="72"/><rect y="72" width="1" height="1" x="36"/><rect x="27" y="75" width="1" height="1"/><rect x="31" y="75" width="1" height="1"/></g><g fill="#386"><rect y="13" width="1" height="1" x="28"/><rect width="1" height="1" x="37" y="17"/><rect x="37" y="18" width="1" height="1"/><rect x="37" y="19" width="1" height="1"/><rect y="20" width="1" height="1" x="37"/><rect height="1" x="31" y="21" width="1"/><rect width="1" height="1" x="37" y="21"/><rect x="30" y="22" width="1" height="1"/><rect width="1" height="1" x="36" y="22"/><rect height="1" x="36" y="23" width="1"/><rect width="1" height="1" x="35" y="27"/><rect x="30" y="35" width="1" height="1"/><rect y="36" width="1" height="1" x="30"/><rect y="37" width="1" height="1" x="27"/><rect width="1" height="1" x="31" y="50"/><rect x="27" y="51" width="1" height="1"/><rect width="1" height="1" x="29" y="51"/><rect x="37" y="55" width="1" height="1"/><rect y="56" width="1" height="1" x="37"/><rect y="57" width="1" height="1" x="37"/><rect x="37" y="58" width="1" height="1"/><rect y="59" width="1" height="1" x="31"/><rect y="60" width="1" height="1" x="30"/><rect height="1" x="30" y="61" width="1"/><rect x="36" y="61" width="1" height="1"/><rect height="1" x="32" y="66" width="1"/><rect y="73" width="1" height="1" x="30"/><rect x="30" y="74" width="1" height="1"/></g><g fill="#063"><rect x="31" y="13" width="1" height="1"/><rect x="35" y="13" width="1" height="1"/><rect width="1" height="1" x="29" y="14"/><rect x="30" y="14" width="1" height="1"/><rect y="14" width="1" height="1" x="37"/><rect width="1" height="1" x="36" y="17"/><rect height="1" x="30" y="18" width="1"/><rect height="1" x="36" y="18" width="1"/><rect y="19" width="1" height="1" x="30"/><rect height="1" x="36" y="19" width="1"/><rect x="30" y="20" width="1" height="1"/><rect x="36" y="20" width="1" height="1"/><rect x="35" y="24" width="1" height="1"/><rect y="25" width="1" height="1" x="36"/><rect y="26" width="1" height="1" x="29"/><rect x="30" y="26" width="1" height="1"/><rect x="36" y="26" width="1" height="1"/><rect x="37" y="26" width="1" height="1"/><rect x="31" y="27" width="1" height="1"/><rect x="36" y="27" width="1" height="1"/><rect width="1" height="1" x="32" y="28"/><rect height="1" x="33" y="28" width="1"/><rect x="34" y="28" width="1" height="1"/><rect width="1" height="1" x="30" y="31"/><rect x="36" y="31" width="1" height="1"/><rect x="30" y="32" width="1" height="1"/><rect x="36" y="32" width="1" height="1"/><rect x="39" y="37" width="1" height="1"/><rect x="30" y="38" width="1" height="1"/><rect height="1" x="36" y="38" width="1"/><rect y="51" width="1" height="1" x="31"/><rect x="36" y="51" width="1" height="1"/><rect width="1" height="1" x="39" y="51"/><rect width="1" height="1" x="36" y="55"/><rect x="30" y="56" width="1" height="1"/><rect x="36" y="56" width="1" height="1"/><rect width="1" height="1" x="30" y="57"/><rect width="1" height="1" x="36" y="57"/><rect x="32" y="61" width="1" height="1"/><rect width="1" height="1" x="34" y="61"/><rect y="61" width="1" height="1" x="35"/><rect x="28" y="63" width="1" height="1"/><rect x="30" y="63" width="1" height="1"/><rect x="36" y="63" width="1" height="1"/><rect x="38" y="63" width="1" height="1"/><rect y="63" width="1" height="1" x="39"/><rect x="30" y="64" width="1" height="1"/><rect width="1" height="1" x="36" y="64"/><rect width="1" height="1" x="31" y="65"/><rect y="65" width="1" height="1" x="36"/><rect x="31" y="66" width="1" height="1"/><rect width="1" height="1" x="35" y="66"/><rect x="30" y="68" width="1" height="1"/><rect x="30" y="69" width="1" height="1"/><rect x="36" y="69" width="1" height="1"/><rect y="70" width="1" height="1" x="30"/><rect width="1" height="1" x="36" y="70"/><rect y="75" width="1" height="1" x="28"/><rect width="1" height="1" x="38" y="75"/><rect width="1" height="1" x="39" y="75"/><rect y="76" width="1" height="1" x="31"/><rect x="32" y="77" width="1" height="1"/></g><g fill="#698"><rect x="35" y="25" width="1" height="1"/><rect x="33" y="50" width="1" height="1"/></g><rect height="1" fill="#798" x="37" y="40" width="1"/><g fill="#bdc"><rect height="1" x="36" y="11" width="1"/><rect y="27" width="1" height="1" x="27"/><rect x="27" y="74" width="1" height="1"/></g></svg>