<svg xmlns="http://www.w3.org/2000/svg" width="66" height="90" baseProfile="tiny" version="1.2"><path fill="#777" d="M0 84h1v1H0zm65 0h1v1h-1zM0 85h1v1H0zm65 0h1v1h-1zM0 86h1v1H0zm65 0h1v1h-1zM0 87h1v1H0zm65 0h1v1h-1z"/><path fill="#dee" d="M37 11h1v1h-1zm-3 2h1v1h-1zm5 11h1v1h-1zm-6 3h1v1h-1zm5 1h1v1h-1zm-5 13h2v1h-2zm5 32h1v1h-1z"/><path fill="#888" d="M0 5h1v1H0zm65 0h1v1h-1zM0 6h1v1H0zm65 0h1v1h-1zM0 7h1v1H0zm65 0h1v1h-1zM0 8h1v73H0zm65 0h1v73h-1zM0 81h1v2H0zm65 0h1v2h-1zM0 83h1v1H0zm65 0h1v1h-1zM1 87h1v1H1zm63 0h1v1h-1zM2 88h1v1H2zm61 0h1v1h-1z"/><path fill="#8b9" d="M30 12h1v1h-1zm8 0h1v1h-1zM28 50h1v1h-1zm9 0h1v1h-1z"/><path fill="#eff" d="M32 51h1v1h-1zm2 25h1v1h-1z"/><g fill="#fff"><path d="M4 1h1v1H4zm1 0h1v1H5zm1 0h54v1H6zm54 0h1v1h-1zm1 0h1v1h-1zM3 2h1v1H3zm1 0h1v1H4zm1 0h56v1H5zm56 0h1v1h-1zm1 0h1v1h-1zM2 3h1v1H2zm1 0h1v1H3zm1 0h2v1H4zm2 0h54v1H6zm54 0h2v1h-2zm2 0h1v1h-1zm1 0h1v1h-1zM2 4h1v2H2zm1 0h1v3H3zm1 0h1v1H4zm1 0h56v7H5zm56 0h1v1h-1zm1 0h1v3h-1zm1 0h1v2h-1z"/><path d="M4 5h58v2H4zM3 7h1v1H3zm1 0h1v1H4zm57 0h1v1h-1zm1 0h1v1h-1zM3 8h1v73H3zm1 0h1v73H4zm57 0h1v74h-1zm1 0h1v73h-1zM5 11h24v1H5zm33 0h1v1h-1zm1 0h22v1H39zM5 12h22v70H5zm22 0h1v1h-1zm13 0h21v70H40zm-7 1h1v10h-1z"/><path d="M32 14h3v9h-3zm-5 2h1v8h-1zm12 0h22v8H39zm-11 1h1v6h-1z"/><path d="M38 17h23v6H38zm-10 6h1v1h-1zm10 0h1v1h-1zm-11 1h1v1h-1zm5 1h3v2h-3zm-5 3h1v8h-1zm12 0h22v8H39zm-11 1h1v6h-1zm4 0h3v9h-3z"/><path d="M38 29h23v6H38zm-10 6h1v1h-1zm10 0h1v1h-1zm-5 3h1v1h-1zm1 0h1v1h-1zm-7 2h1v10h-1zm12 0h22v10H39zm-11 1h3v8h-3zm3 0h1v1h-1zm4 0h1v1h-1z"/><path d="M36 41h25v8H36z"/><path d="M31 42h30v6H31zm0 6h1v1h-1zm1 0h1v1h-1zm1 0h1v1h-1zm1 0h2v1h-2zm-6 1h1v1h-1zm5 2h1v10h-1zm1 0h1v1h-1z"/><path d="M32 52h3v9h-3zm-5 2h1v8h-1zm1 0h1v1h-1zm11 0h22v8H39zm-11 1h1v6h-1z"/><path d="M38 55h23v6H38zm-10 6h1v1h-1zm4 2h3v2h-3zm-5 3h1v8h-1zm1 0h1v1h-1zm10 0h1v1h-1zm1 0h22v8H39zm-11 1h1v6h-1zm4 0h3v9h-3z"/><path d="M38 67h23v6H38zm-5 9h1v1h-1zm-6 2h1v6h-1zm1 0h1v1h-1zm10 0h1v1h-1zm1 0h22v4H39z"/><path d="M28 79h33v3H28zM3 81h1v1H3zm1 0h1v2H4zm58 0h1v1h-1zM3 82h1v1H3zm2 0h1v1H5zm1 0h54v1H6zm54 0h1v1h-1zm1 0h1v1h-1zm1 0h1v1h-1zM3 83h1v1H3zm1 0h1v1H4zm1 0h1v1H5zm1 0h1v1H6zm1 0h52v1H7zm52 0h1v1h-1zm1 0h1v1h-1zm1 0h1v1h-1zm1 0h1v1h-1zM5 84h1v1H5zm1 0h1v1H6zm1 0h1v1H7zm1 0h50v1H8zm50 0h1v1h-1zm1 0h1v1h-1zm1 0h1v1h-1z"/></g><path fill="#9ba" d="M33 11h1v1h-1zm6 16h1v1h-1zm-8 22h1v1h-1zm-2 23h1v1h-1zm0 6h1v1h-1z"/><path fill="#375" d="M27 38h1v1h-1zm0 14h1v1h-1zm2 2h1v1h-1zm-2 10h1v1h-1zm1 1h1v1h-1zm-1 11h1v1h-1z"/><path fill="#efe" d="M29 11h1v1h-1zm3 27h1v1h-1zm6 11h1v1h-1zm0 5h1v1h-1zM28 73h1v1h-1z"/><path fill="#ced" d="M39 12h1v1h-1zm0 24h1v1h-1zM29 49h1v1h-1zm4 13h1v1h-1zm-1 14h1v1h-1z"/><path fill="#385" d="M30 13h1v1h-1zm8 0h1v1h-1zm-2 22h1v1h-1zm0 1h1v1h-1zm-7 1h1v1h-1zm2 0h1v1h-1zm6 0h1v1h-1zm-1 36h1v1h-1zm0 1h1v1h-1z"/><path fill="#052" d="M36 14h1v1h-1zm2 0h1v1h-1zm1 0h1v1h-1zm-10 1h1v1h-1zm1 0h1v2h-1zm6 0h1v1h-1zm1 0h1v1h-1zm1 0h1v1h-1zm-2 1h1v1h-1zm-6 1h1v1h-1zm-2 9h1v1h-1zm10 0h1v1h-1zm1 0h1v1h-1zm-10 1h1v1h-1zm8 0h1v1h-1zm-7 1h1v1h-1zm6 0h1v1h-1zm-6 1h1v1h-1zm6 0h1v1h-1zm-8 9h1v1h-1zm1 0h1v1h-1zm8 0h1v1h-1zm1 0h1v1h-1zm1 0h1v1h-1zm-8 1h1v1h-1zm4 0h1v1h-1zm-7 13h1v1h-1zm1 0h2v1h-2zm7 0h1v1h-1zm1 0h1v1h-1zm1 0h1v1h-1zm-8 1h1v1h-1zm6 0h1v1h-1zm1 0h1v1h-1zm-7 1h1v1h-1zm6 0h1v1h-1zm-8 10h1v1h-1zm1 0h1v1h-1zm8 0h1v1h-1zm1 0h1v1h-1zm-9 1h1v1h-1zm8 0h1v1h-1zm-7 1h1v1h-1zm6 0h1v1h-1zm-6 1h1v1h-1zm6 0h1v1h-1zm-8 9h1v1h-1zm1 0h1v1h-1zm1 0h1v1h-1zm7 0h1v1h-1zm-6 1h1v1h-1zm4 0h1v1h-1z"/><path fill="#598" d="M35 35h1v1h-1zm0 38h1v1h-1z"/><path fill="#9cb" d="M32 11h1v1h-1zm2 0h1v1h-1zm0 54h1v1h-1z"/><path fill="#bcb" d="M37 78h1v1h-1z"/><path fill="#254" d="M36 40h1v1h-1z"/><path fill="#bcc" d="M34 62h1v1h-1z"/><path fill="#999" d="M0 3h1v1H0zm65 0h1v1h-1zM0 4h1v1H0zm65 0h1v1h-1zM3 88h1v1H3zm59 0h1v1h-1z"/><path fill="#5a8" d="M35 36h1v1h-1z"/><path fill="#ddd" d="M3 0h1v1H3zm1 0h1v1H4zm1 0h56v1H5zm56 0h1v1h-1zm1 0h1v1h-1zM2 1h1v1H2zm61 0h1v1h-1zM1 6h1v1H1zm63 0h1v1h-1zM1 7h1v1H1zm63 0h1v1h-1zM1 8h1v1H1zm63 0h1v1h-1zM1 9h1v73H1zm63 0h1v73h-1zM1 82h1v1H1zm63 0h1v1h-1zM1 83h1v1H1zm63 0h1v1h-1zM2 84h1v1H2zm61 0h1v1h-1zM3 85h1v1H3zm1 0h1v1H4zm1 0h1v1H5zm1 0h1v1H6zm1 0h2v1H7zm50 0h2v1h-2zm2 0h1v1h-1zm1 0h1v1h-1zm1 0h1v1h-1zm1 0h1v1h-1z"/><path fill="#486" d="M35 14h1v1h-1zm0 1h1v1h-1zm0 1h1v1h-1zm-5 7h1v1h-1zm5 6h1v1h-1zm2 0h1v1h-1zm0 1h1v1h-1zm-2 22h1v1h-1zm0 1h1v1h-1zm1 7h1v1h-1zm-3 6h1v1h-1zm1 0h1v1h-1zm3 1h1v1h-1zm0 1h1v1h-1z"/><path fill="#042" d="M28 39h1v1h-1zm1 0h1v1h-1zm1 0h1v1h-1zm6 0h1v1h-1zm1 0h1v1h-1zm1 0h1v1h-1zm-7 1h1v1h-1zm1 0h1v1h-1zm1 0h1v1h-1zm1 0h1v1h-1zm1 0h1v1h-1zm-6 13h1v1h-1zm9 23h1v1h-1zm-9 1h1v1h-1zm1 0h1v1h-1zm6 0h1v1h-1zm1 0h1v1h-1z"/><path fill="#174" d="M32 12h1v1h-1zm2 0h1v1h-1zm5 1h1v1h-1zm-8 3h1v1h-1zm0 1h1v1h-1zm0 1h1v1h-1zm0 1h1v1h-1zm0 1h1v1h-1zm-1 1h1v1h-1zm1 2h1v1h-1zm5 1h1v1h-1zm-8 1h1v1h-1zm2 0h1v1h-1zm1 0h1v1h-1zm7 0h1v1h-1zm1 0h1v1h-1zm-8 1h1v1h-1zm0 5h1v1h-1zm0 1h1v1h-1zm-1 1h1v1h-1zm1 0h1v1h-1zm0 1h1v2h-1zm-3 3h1v1h-1zm10 0h1v1h-1zm-8 14h1v1h-1zm8 0h1v1h-1zm-7 3h1v1h-1zm0 1h1v1h-1zm0 1h1v1h-1zm0 1h1v1h-1zm0 4h1v1h-1zm2 0h1v1h-1zm-2 1h1v1h-1zm4 0h1v1h-1zm1 0h1v1h-1zm-7 1h1v1h-1zm2 0h1v1h-1zm6 0h1v1h-1zm-6 1h1v1h-1zm0 5h1v1h-1zm0 1h1v1h-1zm-1 1h1v1h-1zm1 0h1v1h-1zm5 0h1v1h-1zm-5 1h1v2h-1zm-2 3h1v1h-1zm1 0h1v1h-1zm6 0h1v1h-1zm1 0h1v1h-1zm-2 1h1v1h-1zm-1 1h1v1h-1z"/><path fill="#7b9" d="M36 12h1v1h-1zm-7 7h1v1h-1zm0 1h1v1h-1zm0 1h1v1h-1zm-1 3h1v1h-1zm1 8h1v1h-1zm0 1h1v1h-1zm3 16h1v1h-1zm-3 1h1v1h-1zm0 7h1v1h-1zm0 1h1v1h-1zm0 1h1v1h-1zm0 10h1v1h-1zm0 1h1v1h-1zm0 1h1v1h-1z"/><path fill="#275" d="M27 14h1v1h-1zm9 7h1v1h-1zm-1 2h1v1h-1zm2 2h1v1h-1zm-10 1h1v1h-1zm9 8h1v1h-1zm0 3h1v1h-1zm-4 2h1v1h-1zm2 11h1v1h-1zm-6 1h1v1h-1zm3 7h1v1h-1zm-1 1h1v1h-1zm5 6h1v1h-1zm-4 9h1v1h-1z"/><path fill="#7a8" d="M35 22h1v1h-1zm-1 2h1v1h-1zm1 36h1v1h-1z"/><path fill="#bbb" d="M0 1h1v1H0zm1 0h1v1H1zm63 0h1v1h-1zm1 0h1v1h-1zM1 85h1v1H1zm63 0h1v1h-1zM2 86h1v1H2zm1 0h1v1H3zm59 0h1v1h-1zm1 0h1v1h-1z"/><path fill="#acb" d="M31 11h1v1h-1zm4 0h1v1h-1zm-7 1h1v1h-1zm-1 3h1v1h-1zm12 0h1v1h-1zM27 39h1v1h-1zm12 0h1v1h-1zm-9 10h1v1h-1zm6 0h1v1h-1zm3 1h1v1h-1zm0 12h1v1h-1zm-6 3h1v1h-1z"/><path fill="#053" d="M28 14h1v1h-1zm0 1h1v1h-1zm9 1h1v1h-1zm-7 11h1v1h-1zm8 0h1v1h-1zm-7 1h1v1h-1zm4 0h1v1h-1zm-5 2h1v1h-1zm6 0h1v1h-1zm3 22h1v1h-1zm-9 3h1v1h-1zm9 9h1v1h-1zm-9 1h1v1h-1zm6 3h1v1h-1zm0 8h1v1h-1zm3 0h1v1h-1z"/><path fill="#cdd" d="M38 16h1v1h-1zm-6 11h1v1h-1zm-4 13h1v1h-1zm4 22h1v1h-1zm-5 15h1v1h-1z"/><path fill="#264" d="M29 28h1v1h-1zm-1 25h1v1h-1zm10 0h1v1h-1zm-1 13h1v1h-1zm-5 12h1v1h-1z"/><path fill="#ccc" d="M1 0h1v1H1zm1 0h1v1H2zm61 0h1v1h-1zm1 0h1v1h-1zM1 2h1v1H1zm63 0h1v1h-1zM1 84h1v1H1zm63 0h1v1h-1zM2 85h1v1H2zm61 0h1v1h-1zM4 86h1v1H4zm1 0h1v1H5zm1 0h1v1H6zm1 0h52v1H7zm52 0h1v1h-1zm1 0h1v1h-1zm1 0h1v1h-1z"/><path fill="#597" d="M31 12h1v1h-1zm-4 1h1v1h-1zm2 0h1v1h-1zm8 9h1v1h-1zm-4 1h1v1h-1zm4 0h1v1h-1zm-2 7h1v1h-1zm0 1h1v1h-1zm0 1h1v1h-1zm0 1h1v2h-1zm-6 3h1v1h-1zm8 0h1v1h-1zm1 0h1v1h-1zm-1 24h1v1h-1zm0 1h1v1h-1zm-9 1h1v1h-1zm7 2h1v1h-1zm0 3h1v1h-1zm0 1h1v1h-1zm0 1h1v1h-1zm0 1h1v1h-1zm0 1h1v2h-1zm2 0h1v1h-1zm0 2h1v1h-1zm-8 1h1v1h-1zm8 0h1v1h-1z"/><path fill="#164" d="M31 14h1v1h-1zm0 1h1v1h-1zm0 9h1v1h-1zm0 5h1v1h-1zm0 1h1v1h-1zm4 21h1v1h-1zm-4 1h1v1h-1zm0 1h1v1h-1zm6 1h1v1h-1zm-6 13h1v1h-1zm0 1h1v1h-1z"/><path fill="#7a9" d="M29 17h1v1h-1zm0 1h1v1h-1zm0 5h1v1h-1zm0 6h1v1h-1zm0 1h1v1h-1zm0 1h1v1h-1zm0 4h1v1h-1zm5 14h1v1h-1zm-4 1h1v1h-1zm-1 5h1v1h-1zm0 1h1v1h-1zm0 11h1v1h-1zm0 1h1v1h-1z"/><path fill="#9ca" d="M33 39h1v1h-1zm6 35h1v1h-1z"/><path fill="#aaa" d="M0 2h1v1H0zm65 0h1v1h-1zM1 86h1v1H1zm63 0h1v1h-1zM2 87h1v1H2zm1 0h1v1H3zm1 0h1v1H4zm1 0h56v1H5zm56 0h1v1h-1zm1 0h1v1h-1zm1 0h1v1h-1zM4 88h1v1H4zm1 0h56v1H5zm56 0h1v1h-1z"/><path fill="#496" d="M35 12h1v1h-1zm2 1h1v1h-1zm-6 9h1v1h-1zm-2 2h1v1h-1zm8 0h1v1h-1zm-10 1h1v1h-1zm7 14h1v1h-1zm3 20h1v1h-1zm-6 1h1v1h-1zm-2 2h1v1h-1zm8 0h1v1h-1zm1 0h1v1h-1zm0 12h1v1h-1z"/><path fill="#ded" d="M32 13h1v1h-1zm-4 3h1v1h-1zm6 11h1v1h-1zm-7 26h1v1h-1zm12 0h1v1h-1zm-12 9h1v1h-1zm12 3h1v1h-1zm0 12h1v1h-1z"/><path fill="#274" d="M36 13h1v1h-1zm-5 23h1v1h-1z"/><path fill="#074" d="M36 33h1v1h-1zm-5 5h1v1h-1zm5 20h1v1h-1z"/><path fill="#364" d="M38 65h1v1h-1zm0 12h1v1h-1z"/><path fill="#687" d="M36 78h1v1h-1z"/><path fill="#cdc" d="M30 11h1v1h-1zm7 38h1v1h-1z"/><path fill="#476" d="M29 66h1v1h-1z"/><path fill="#6a8" d="M35 21h1v1h-1zm3 3h1v1h-1zm-3 2h1v1h-1zm2 8h1v1h-1zm0 1h1v1h-1zm-9 1h1v1h-1zm7 1h1v1h-1zm-2 12h1v1h-1zm3 1h1v1h-1zm2 0h1v1h-1zm-3 9h1v1h-1zm-6 2h1v1h-1zm6 2h1v1h-1zm2 9h1v1h-1zm-8 1h1v1h-1zm6 1h1v1h-1zm0 1h1v1h-1z"/><path fill="#153" d="M29 16h1v1h-1zm-1 11h1v1h-1zm9 1h1v1h-1zm-7 12h1v1h-1zm-2 37h1v1h-1zm5 1h1v1h-1zm1 0h1v1h-1z"/><path fill="#497" d="M35 17h1v1h-1zm0 1h1v1h-1zm0 1h1v1h-1zm0 1h1v1h-1zm-3 3h1v1h-1zm2 0h1v1h-1zm3 8h1v1h-1zm0 1h1v1h-1zm0 1h1v1h-1zm-2 21h1v1h-1zm0 1h1v1h-1zm0 1h1v2h-1zm0 2h1v1h-1zm2 11h1v1h-1zm0 1h1v1h-1zm-9 4h1v1h-1zm5 3h1v1h-1z"/><path fill="#587" d="M29 40h1v1h-1zm1 38h1v1h-1z"/><path fill="#073" d="M30 58h1v1h-1z"/><path fill="#365" d="M31 78h1v1h-1zm4 0h1v1h-1z"/><path fill="#666" d="M0 88h1v1H0zm1 0h1v1H1zm63 0h1v1h-1zm1 0h1v1h-1zM1 89h1v1H1zm1 0h1v1H2zm1 0h1v1H3zm1 0h58v1H4zm58 0h1v1h-1zm1 0h1v1h-1zm1 0h1v1h-1z"/><path fill="#eee" d="M3 1h1v1H3zm59 0h1v1h-1zM2 2h1v1H2zm61 0h1v1h-1zM1 3h1v1H1zm63 0h1v1h-1zM1 4h1v1H1zm63 0h1v1h-1zM1 5h1v1H1zm63 0h1v1h-1zM2 6h1v1H2zm61 0h1v1h-1zM2 7h1v1H2zm61 0h1v1h-1zM2 8h1v74H2zm61 0h1v74h-1zM28 28h1v1h-1zm-1 8h1v1h-1zm11 4h1v1h-1zm-6 1h1v1h-1zm-5 9h1v1h-1zm11 11h1v1h-1zm-11 4h1v1h-1zM2 82h1v1H2zm61 0h1v1h-1zM2 83h1v1H2zm61 0h1v1h-1zM3 84h1v1H3zm1 0h1v1H4zm57 0h1v1h-1zm1 0h1v1h-1zM9 85h48v1H9z"/><path fill="#8ba" d="M29 12h1v1h-1zm8 0h1v1h-1zm-8 10h1v1h-1zm3 2h1v1h-1zm1 0h1v1h-1zm-4 10h1v1h-1zm6 15h1v1h-1zm-6 11h1v1h-1zm3 5h1v1h-1z"/><path fill="#285" d="M33 12h1v1h-1zm-3 12h1v1h-1zm-1 1h1v1h-1zm1 9h1v1h-1zm0 3h1v1h-1zm5 1h1v1h-1zm-3 12h1v1h-1zm3 0h1v1h-1zm2 1h1v1h-1zm-1 8h1v1h-1zm-6 3h1v1h-1zm-3 1h1v1h-1zm3 9h1v1h-1zm6 0h1v1h-1zm-9 3h1v1h-1zm4 0h1v1h-1z"/><path fill="#386" d="M28 13h1v1h-1zm9 4h1v1h-1zm0 1h1v1h-1zm0 1h1v1h-1zm0 1h1v1h-1zm-6 1h1v1h-1zm6 0h1v1h-1zm-7 1h1v1h-1zm6 0h1v1h-1zm0 1h1v1h-1zm-1 4h1v1h-1zm-5 8h1v1h-1zm0 1h1v1h-1zm-3 1h1v1h-1zm4 13h1v1h-1zm-4 1h1v1h-1zm2 0h1v1h-1zm8 4h1v1h-1zm0 1h1v1h-1zm0 1h1v1h-1zm0 1h1v1h-1zm-6 1h1v1h-1zm-1 1h1v1h-1zm0 1h1v1h-1zm6 0h1v1h-1zm-4 5h1v1h-1zm-2 7h1v1h-1zm0 1h1v1h-1z"/><path fill="#063" d="M31 13h1v1h-1zm4 0h1v1h-1zm-6 1h1v1h-1zm1 0h1v1h-1zm7 0h1v1h-1zm-1 3h1v1h-1zm-6 1h1v1h-1zm6 0h1v1h-1zm-6 1h1v1h-1zm6 0h1v1h-1zm-6 1h1v1h-1zm6 0h1v1h-1zm-1 4h1v1h-1zm1 1h1v1h-1zm-7 1h1v1h-1zm1 0h1v1h-1zm6 0h1v1h-1zm1 0h1v1h-1zm-6 1h1v1h-1zm5 0h1v1h-1zm-4 1h1v1h-1zm1 0h1v1h-1zm1 0h1v1h-1zm-4 3h1v1h-1zm6 0h1v1h-1zm-6 1h1v1h-1zm6 0h1v1h-1zm3 5h1v1h-1zm-9 1h1v1h-1zm6 0h1v1h-1zm-5 13h1v1h-1zm5 0h1v1h-1zm3 0h1v1h-1zm-3 4h1v1h-1zm-6 1h1v1h-1zm6 0h1v1h-1zm-6 1h1v1h-1zm6 0h1v1h-1zm-4 4h1v1h-1zm2 0h1v1h-1zm1 0h1v1h-1zm-7 2h1v1h-1zm2 0h1v1h-1zm6 0h1v1h-1zm2 0h1v1h-1zm1 0h1v1h-1zm-9 1h1v1h-1zm6 0h1v1h-1zm-5 1h1v1h-1zm5 0h1v1h-1zm-5 1h1v1h-1zm4 0h1v1h-1zm-5 2h1v1h-1zm0 1h1v1h-1zm6 0h1v1h-1zm-6 1h1v1h-1zm6 0h1v1h-1zm-8 5h1v1h-1zm10 0h1v1h-1zm1 0h1v1h-1zm-8 1h1v1h-1zm1 1h1v1h-1z"/><path fill="#698" d="M35 25h1v1h-1zm-2 25h1v1h-1z"/><path fill="#798" d="M37 40h1v1h-1z"/><path fill="#bdc" d="M36 11h1v1h-1zm-9 16h1v1h-1zm0 47h1v1h-1z"/></svg>