<svg xmlns="http://www.w3.org/2000/svg" width="66" height="90" baseProfile="tiny" version="1.2"><path fill="#6a8" d="M26 13h1v1h-1zm2 5h1v1h-1zm0 1h1v1h-1zm0 1h1v1h-1zm0 1h1v1h-1zm2 0h1v1h-1zm0 1h1v1h-1zm-2 1h1v1h-1zm10 3h1v1h-1zm-10 4h1v1h-1zm0 1h1v1h-1zm0 1h1v1h-1zm0 1h1v1h-1zm0 2h1v1h-1zm-1 1h1v1h-1zM13 50h1v1h-1zm8 0h1v1h-1zm32 0h1v1h-1zm2 0h1v1h-1zm-43 9h1v1h-1zm2 0h1v1h-1zm0 1h1v1h-1zm7 2h1v1h-1zm-9 9h1v1h-1zm33 3h1v1h-1z"/><path fill="#375" d="M30 14h1v1h-1zm7 1h1v1h-1zm0 12h1v1h-1zm0 12h1v1h-1zM10 52h1v1h-1zm0 12h1v1h-1zm7 2h1v1h-1zm32 0h1v1h-1zM10 76h1v1h-1z"/><path fill="#153" d="M28 16h1v1h-1zm-1 11h1v1h-1zm2 13h1v1h-1zm25 14h1v1h-1zM16 78h1v1h-1zm34 0h1v1h-1zm1 0h1v1h-1z"/><path fill="#073" d="M29 25h1v1h-1zm19 33h1v1h-1zm-34 3h1v1h-1zm4 13h1v1h-1z"/><path fill="#abb" d="M54 78h1v1h-1z"/><path fill="#9cb" d="M31 11h1v1h-1zm2 0h1v1h-1zm3 7h1v1h-1zm0 1h1v1h-1zm0 1h1v1h-1zm0 1h1v1h-1zm0 9h1v1h-1zm0 1h1v1h-1zm0 1h1v1h-1zm0 1h1v1h-1zm15 32h1v1h-1zm-5 8h1v1h-1z"/><path fill="#174" d="M33 12h1v1h-1zm2 9h1v1h-1zm-8 4h1v1h-1zm7 0h1v1h-1zm1 0h1v1h-1zm2 0h1v1h-1zm-3 1h1v1h-1zm-4 1h1v1h-1zm-1 6h1v1h-1zm5 3h1v1h-1zm-7 1h1v1h-1zm7 0h1v1h-1zM17 50h1v1h-1zm32 0h1v1h-1zm3 0h1v1h-1zm-33 1h1v1h-1zm26 0h1v1h-1zm10 0h1v1h-1zm-42 7h1v1h-1zm40 0h1v1h-1zm-6 1h1v1h-1zm-31 2h1v1h-1zm2 0h1v1h-1zm-5 1h1v1h-1zm-1 1h1v1h-1zm6 0h1v1h-1zm2 0h1v1h-1zm26 0h1v1h-1zm1 0h1v1h-1zm7 0h1v1h-1zm-40 2h1v1h-1zm-1 6h1v1h-1zm6 0h1v1h-1zm29 3h1v1h-1zm-30 1h1v1h-1zm1 0h1v1h-1zm27 0h1v1h-1zm2 0h1v1h-1zm5 0h1v1h-1zm1 0h1v1h-1zm-40 1h1v1h-1z"/><path fill="#364" d="M52 78h1v1h-1z"/><path fill="#666" d="M0 88h1v1H0zm1 0h1v1H1zm63 0h1v1h-1zm1 0h1v1h-1zM1 89h1v1H1zm1 0h1v1H2zm1 0h1v1H3zm1 0h58v1H4zm58 0h1v1h-1zm1 0h1v1h-1zm1 0h1v1h-1z"/><path fill="#ddd" d="M3 0h1v1H3zm1 0h1v1H4zm1 0h56v1H5zm56 0h1v1h-1zm1 0h1v1h-1zM2 1h1v1H2zm61 0h1v1h-1zM1 6h1v1H1zm63 0h1v1h-1zM1 7h1v1H1zm63 0h1v1h-1zM1 8h1v1H1zm63 0h1v1h-1zM1 9h1v73H1zm63 0h1v73h-1zm-8 44h1v1h-1zM1 82h1v1H1zm63 0h1v1h-1zM1 83h1v1H1zm63 0h1v1h-1zM2 84h1v1H2zm61 0h1v1h-1zM3 85h1v1H3zm1 0h1v1H4zm1 0h1v1H5zm1 0h1v1H6zm1 0h2v1H7zm50 0h2v1h-2zm2 0h1v1h-1zm1 0h1v1h-1zm1 0h1v1h-1zm1 0h1v1h-1z"/><path fill="#eee" d="M3 1h1v1H3zm59 0h1v1h-1zM2 2h1v1H2zm61 0h1v1h-1zM1 3h1v1H1zm63 0h1v1h-1zM1 4h1v1H1zm63 0h1v1h-1zM1 5h1v1H1zm63 0h1v1h-1zM2 6h1v1H2zm61 0h1v1h-1zM2 7h1v1H2zm61 0h1v1h-1zM2 8h1v74H2zm61 0h1v74h-1zm-35 3h1v1h-1zm10 4h1v1h-1zM27 28h1v1h-1zm-1 8h1v1h-1zm12 3h1v1h-1zm-7 2h1v1h-1zm2 0h1v1h-1zm13 8h1v1h-1zm9 0h1v1h-1zm-45 1h1v1h-1zm45 4h1v1h-1zm-9 6h1v1h-1zm-36 5h1v1h-1zm36 7h1v1h-1zm-35 1h1v1h-1zm-9 9h1v1H2zm61 0h1v1h-1zM2 83h1v1H2zm61 0h1v1h-1zM3 84h1v1H3zm1 0h1v1H4zm57 0h1v1h-1zm1 0h1v1h-1zM9 85h48v1H9z"/><path fill="#586" d="M28 40h1v1h-1zM13 78h1v1h-1z"/><path fill="#ccc" d="M1 0h1v1H1zm1 0h1v1H2zm61 0h1v1h-1zm1 0h1v1h-1zM1 2h1v1H1zm63 0h1v1h-1zM1 84h1v1H1zm63 0h1v1h-1zM2 85h1v1H2zm61 0h1v1h-1zM4 86h1v1H4zm1 0h1v1H5zm1 0h1v1H6zm1 0h52v1H7zm52 0h1v1h-1zm1 0h1v1h-1zm1 0h1v1h-1z"/><path fill="#7b9" d="M29 12h1v1h-1zm9 13h1v1h-1zm-1 11h1v1h-1zM17 49h1v1h-1zm-6 1h1v1h-1zm1 0h1v1h-1zm7 0h1v1h-1zm28 0h1v1h-1zm7 0h1v1h-1zm-32 1h1v1h-1zm30 5h1v1h-1zm0 1h1v1h-1zm-30 6h1v1h-1zm0 12h1v1h-1z"/><path fill="#064" d="M34 33h1v1h-1zM18 70h1v1h-1z"/><path fill="#acc" d="M20 59h1v1h-1z"/><path fill="#acb" d="M30 11h1v1h-1zm4 0h1v1h-1zm-7 1h1v1h-1zm6 1h1v1h-1zm-7 2h1v1h-1zm10 7h1v1h-1zm0 12h1v1h-1zm-10 5h1v1h-1zM13 49h1v1h-1zm40 0h1v1h-1zm-8 1h1v1h-1zm11 0h1v1h-1zm-7 1h1v1h-1zm-29 4h1v1h-1zm0 1h1v1h-1zm0 1h1v1h-1zm0 1h1v1h-1zm26 3h1v1h-1zm3 1h1v1h-1zm7 0h1v1h-1zm-12 1h1v1h-1zm-28 2h1v1h-1zm34 0h1v1h-1zm-4 1h1v1h-1zm-26 1h1v1h-1zm0 1h1v1h-1zm0 1h1v1h-1zm0 1h1v1h-1zm24 5h1v1h-1z"/><path fill="#597" d="M34 12h1v1h-1zm-3 11h1v1h-1zm1 0h1v1h-1zm1 1h1v1h-1zm-5 12h1v1h-1zm2 1h1v1h-1zM16 50h1v1h-1zm32 0h1v1h-1zm2 0h1v1h-1zm-38 5h1v1h-1zm0 1h1v1h-1zm0 1h1v1h-1zm0 1h1v1h-1zm2 0h1v1h-1zm40 2h1v1h-1zm-42 1h1v1h-1zm37 4h1v1h-1zm-37 2h1v1h-1zm0 1h1v1h-1zm0 1h1v1h-1zm0 1h1v1h-1zm42 2h1v1h-1zm-42 1h1v1h-1zm42 0h1v1h-1zm-42 1h1v1h-1zm2 0h1v1h-1zm7 0h1v1h-1zm33 0h1v1h-1zm-40 1h1v1h-1z"/><path fill="#285" d="M29 13h1v1h-1zm5 8h1v1h-1zm-5 3h1v1h-1zm-1 1h1v1h-1zm7 9h1v1h-1zm-6 3h1v1h-1zm6 0h1v1h-1zM14 50h1v1h-1zm6 1h1v1h-1zm26 0h1v1h-1zm1 0h1v1h-1zm7 0h1v1h-1zm0 6h1v1h-1zm0 1h1v1h-1zm-41 1h1v1h-1zm5 0h1v1h-1zm30 0h1v1h-1zm5 0h1v1h-1zm-34 3h1v1h-1zm-9 1h1v1h-1zm44 6h1v1h-1zm0 1h1v1h-1zm-41 2h1v1h-1zm40 1h1v2h-1zm-43 2h1v1h-1z"/><path fill="#999" d="M0 3h1v1H0zm65 0h1v1h-1zM0 4h1v1H0zm65 0h1v1h-1zM3 88h1v1H3zm59 0h1v1h-1z"/><path fill="#476" d="M36 16h1v1h-1z"/><path fill="#7a9" d="M27 24h1v1h-1zm11 13h1v1h-1zM15 49h1v1h-1zm36 0h1v1h-1zm-31 1h1v1h-1zm26 0h1v1h-1zm6 2h1v1h-1zm-7 1h1v1h-1zm7 0h1v1h-1zm0 1h1v1h-1zm0 1h1v1h-1zm-40 5h1v1h-1zm9 5h1v1h-1zm-9 7h1v1h-1z"/><path fill="#adc" d="M20 71h1v1h-1z"/><g fill="#fff"><path d="M4 1h1v1H4zm1 0h1v1H5zm1 0h54v1H6zm54 0h1v1h-1zm1 0h1v1h-1zM3 2h1v1H3zm1 0h1v1H4zm1 0h56v1H5zm56 0h1v1h-1zm1 0h1v1h-1zM2 3h1v1H2zm1 0h1v1H3zm1 0h2v1H4zm2 0h54v1H6zm54 0h2v1h-2zm2 0h1v1h-1zm1 0h1v1h-1zM2 4h1v2H2zm1 0h1v3H3zm1 0h1v1H4zm1 0h56v7H5zm56 0h1v1h-1zm1 0h1v3h-1zm1 0h1v2h-1z"/><path d="M4 5h58v2H4zM3 7h1v1H3zm1 0h1v1H4zm57 0h1v1h-1zm1 0h1v1h-1zM3 8h1v73H3zm1 0h1v73H4zm57 0h1v74h-1zm1 0h1v73h-1zM5 11h23v1H5zm32 0h24v1H37zM5 12h21v36H5zm21 0h1v1h-1zm12 0h1v1h-1zm1 0h22v36H39zm-7 1h1v10h-1z"/><path d="M31 14h2v9h-2zm2 0h1v1h-1zm0 1h1v8h-1zm-7 1h1v8h-1zm11 0h1v1h-1zm1 0h23v8H38zm-11 1h1v6h-1z"/><path d="M37 17h24v7H37zm-10 6h1v1h-1zm-1 1h1v1h-1zm12 0h1v1h-1zm-7 1h3v2h-3zm-5 3h1v8h-1zm11 0h1v1h-1zm1 0h23v8H38zm-11 1h1v6h-1zm4 0h2v9h-2zm2 0h1v1h-1z"/><path d="M37 29h24v7H37zm-4 1h1v8h-1zm-6 5h1v1h-1zm11 1h1v1h-1zm-7 2h1v1h-1zm1 0h1v1h-1zm-6 2h1v44h-1zm11 0h1v1h-1zm1 0h23v8H38zm-11 1h3v43h-3zm3 0h1v1h-1zm4 0h1v1h-1z"/><path d="M35 41h26v7H35z"/><path d="M30 42h31v6H30zM5 48h9v1H5zm9 0h1v1h-1zm1 0h1v1h-1zm1 0h1v1h-1zm1 0h1v1h-1zm1 0h1v1h-1zm1 0h29v1H19zm29 0h1v1h-1zm1 0h1v1h-1zm1 0h1v1h-1zm1 0h2v1h-2zm2 0h1v1h-1zm1 0h7v1h-7zM5 49h6v1H5zm6 0h1v1h-1zm10 0h1v1h-1zm1 0h24v1H22zm34 0h5v1h-5zM5 50h5v32H5zm18 0h21v34H23zm21 0h1v1h-1zm13 0h4v32h-4zm-42 1h1v1h-1zm1 0h1v10h-1zm34 0h2v10h-2z"/><path d="M15 52h2v9h-2zm2 0h1v1h-1zm0 1h1v8h-1zm5 0h1v1h-1zm22 0h1v1h-1zm-34 1h1v8h-1zm11 0h25v7H21zm35 0h5v8h-5zm-45 1h1v6h-1z"/><path d="M55 55h6v6h-6zm-34 6h1v1h-1zm1 0h24v1H22zm22 1h1v1h-1zm-29 1h3v2h-3zm35 0h2v2h-2zm-28 2h1v1h-1zm22 0h1v9h-1zm-34 1h1v8h-1zm1 0h1v1h-1z"/><path d="M21 66h25v7H21zm34 0h1v1h-1zm1 0h5v8h-5zm-45 1h1v6h-1zm4 0h2v9h-2zm2 0h1v1h-1zm33 0h2v9h-2z"/><path d="M55 67h6v6h-6zm-38 1h1v7h-1zm4 5h1v1h-1zm1 0h23v1H22zm23 0h1v1h-1zm-1 1h1v1h-1zm-27 1h1v1h-1zm-1 1h1v1h-1zm34 0h1v1h-1zm1 0h1v1h-1zm-29 1h1v1h-1zm22 0h1v1h-1zm-34 1h1v6h-1zm11 0h25v6H21zm34 0h1v1h-1zm1 0h5v4h-5z"/><path d="M11 79h50v3H11zm-8 2h1v1H3zm1 0h1v2H4zm58 0h1v1h-1zM3 82h1v1H3zm2 0h1v1H5zm1 0h54v1H6zm54 0h1v1h-1zm1 0h1v1h-1zm1 0h1v1h-1zM3 83h1v1H3zm1 0h1v1H4zm1 0h1v1H5zm1 0h1v1H6zm1 0h52v1H7zm52 0h1v1h-1zm1 0h1v1h-1zm1 0h1v1h-1zm1 0h1v1h-1zM5 84h1v1H5zm1 0h1v1H6zm1 0h1v1H7zm1 0h50v1H8zm50 0h1v1h-1zm1 0h1v1h-1zm1 0h1v1h-1z"/></g><path fill="#888" d="M0 5h1v1H0zm65 0h1v1h-1zM0 6h1v1H0zm65 0h1v1h-1zM0 7h1v1H0zm65 0h1v1h-1zM0 8h1v73H0zm65 0h1v73h-1zM0 81h1v2H0zm65 0h1v2h-1zM0 83h1v1H0zm65 0h1v1h-1zM1 87h1v1H1zm63 0h1v1h-1zM2 88h1v1H2zm61 0h1v1h-1z"/><path fill="#386" d="M27 13h1v1h-1zm8 0h1v1h-1zm-9 1h1v1h-1zm3 8h1v1h-1zm6 0h1v1h-1zm-9 4h1v1h-1zm4 3h1v1h-1zm0 1h1v1h-1zm0 1h1v1h-1zm0 1h1v1h-1zm0 1h1v1h-1zm0 1h1v2h-1zm-1 1h1v1h-1zm0 1h1v1h-1zm-3 2h1v1h-1zm5 1h1v1h-1zm20 11h1v1h-1zm-41 1h1v1h-1zm2 0h1v1h-1zm42 8h1v1h-1zm-36 1h2v1h-2zm30 0h1v1h-1zm-35 1h1v1h-1zm1 1h1v1h-1zm33 0h1v1h-1zm5 3h1v1h-1zm-37 1h1v1h-1zm39 5h1v1h-1zm-41 2h1v1h-1zm39 3h1v1h-1zm-2 1h1v1h-1z"/><path fill="#385" d="M35 24h1v1h-1zm-7 13h1v1h-1zm19 23h1v1h-1zm6 1h1v1h-1zm-1 1h1v1h-1zM19 72h1v1h-1zm28 0h1v1h-1zm-34 2h1v1h-1z"/><path fill="#587" d="M36 28h1v1h-1zm9 49h1v1h-1zm8 1h1v1h-1z"/><path fill="#efe" d="M36 11h1v1h-1zm-5 2h1v1h-1zm-9 37h1v1h-1zm0 12h1v1h-1zm-7 14h1v1h-1zm-4 2h1v1h-1z"/><path fill="#042" d="M36 15h1v1h-1zm-9 24h1v1h-1zm1 0h1v1h-1zm1 0h1v1h-1zm6 0h1v1h-1zm1 0h1v1h-1zm-6 1h1v1h-1zm1 0h1v1h-1zm1 0h1v1h-1zm1 0h1v1h-1zm1 0h1v1h-1zM20 53h1v1h-1zm26 0h1v1h-1zM20 65h1v1h-1zm1 11h1v1h-1zm34 0h1v1h-1zm-43 1h1v1h-1zm1 0h1v1h-1zm5 0h1v1h-1zm1 0h1v1h-1zm1 0h1v1h-1zm26 0h1v1h-1zm1 0h1v1h-1zm1 0h1v1h-1zm5 0h1v1h-1zm1 0h1v1h-1z"/><path fill="#ced" d="M33 27h1v1h-1zM20 49h1v1h-1zm29 4h1v1h-1zm0 1h1v4h-1zm0 4h1v1h-1zm-39 4h1v1h-1zm5 0h1v1h-1zm35 0h1v1h-1zm-1 1h1v1h-1zm0 1h1v1h-1zm0 5h1v2h-1zm0 2h1v2h-1zm0 2h1v1h-1z"/><path fill="#bcb" d="M44 52h1v1h-1z"/><path fill="#aaa" d="M0 2h1v1H0zm65 0h1v1h-1zM1 86h1v1H1zm63 0h1v1h-1zM2 87h1v1H2zm1 0h1v1H3zm1 0h1v1H4zm1 0h56v1H5zm56 0h1v1h-1zm1 0h1v1h-1zm1 0h1v1h-1zM4 88h1v1H4zm1 0h56v1H5zm56 0h1v1h-1z"/><path fill="#052" d="M34 14h1v1h-1zm3 0h1v1h-1zm-9 1h1v1h-1zm1 0h1v1h-1zm5 0h1v1h-1zm1 0h1v1h-1zm-6 1h1v1h-1zm5 0h1v1h-1zm1 0h1v1h-1zm0 1h1v1h-1zm-8 9h1v1h-1zm10 0h1v1h-1zm-9 1h1v1h-1zm8 0h1v1h-1zm-7 1h1v1h-1zm6 0h1v1h-1zm-6 1h1v1h-1zm6 0h1v1h-1zm-8 9h1v1h-1zm1 0h1v1h-1zm8 0h1v1h-1zm1 0h1v1h-1zm-7 1h1v1h-1zm4 0h1v1h-1zM11 52h1v1h-1zm2 0h1v1h-1zm5 0h1v1h-1zm1 0h1v1h-1zm1 0h1v1h-1zm1 0h1v1h-1zm24 0h1v1h-1zm1 0h1v1h-1zm2 0h1v1h-1zm5 0h1v1h-1zm1 0h1v1h-1zm1 0h1v1h-1zm-43 1h1v1h-1zm1 0h1v1h-1zm5 0h1v1h-1zm1 0h1v1h-1zm28 0h1v2h-1zm1 0h1v1h-1zm5 0h1v1h-1zm1 0h1v1h-1zm-41 1h1v1h-1zm5 0h1v1h-1zm1 0h1v1h-1zm29 0h1v1h-1zm5 0h1v1h-1zm-6 1h1v1h-1zm-36 9h1v1h-1zm9 0h1v1h-1zm1 0h1v1h-1zm24 0h1v1h-1zm1 0h1v1h-1zm9 0h1v1h-1zm-43 1h1v1h-1zm7 0h1v1h-1zm27 0h1v1h-1zm1 0h1v1h-1zm7 0h1v1h-1zm-41 1h1v1h-1zm5 0h1v1h-1zm1 0h1v1h-1zm28 0h1v1h-1zm1 0h1v1h-1zm5 0h1v1h-1zm-40 1h1v1h-1zm6 0h1v1h-1zm28 0h1v1h-1zm1 0h1v1h-1zm5 0h1v1h-1zm-42 9h1v1h-1zm1 0h1v1h-1zm7 0h1v1h-1zm1 0h1v1h-1zm25 0h1v1h-1zm1 0h1v1h-1zm1 0h1v1h-1zm7 0h1v1h-1zm-40 1h1v1h-1zm35 0h1v1h-1zm3 0h1v1h-1z"/><path fill="#ded" d="M27 16h1v1h-1zm4 11h1v1h-1zM10 53h1v1h-1zm39 6h1v1h-1zm0 1h1v1h-1zm7 5h1v1h-1zm-1 8h1v1h-1zm-6 1h1v1h-1zm0 1h1v1h-1zm7 2h1v1h-1z"/><path fill="#074" d="M34 20h1v1h-1zm1 13h1v1h-1zm-1 1h1v1h-1zm0 1h1v1h-1zM13 51h1v1h-1zm37 10h1v1h-1zM18 71h1v1h-1zm29 0h1v1h-1zm6 0h1v1h-1zm-5 2h1v1h-1z"/><path fill="#9ca" d="M32 11h1v1h-1zm4 12h1v1h-1zM18 49h1v1h-1zm30 0h1v1h-1zm4 11h1v1h-1zm0 3h1v1h-1zm-37 2h1v1h-1zm41 9h1v1h-1z"/><path fill="#9ba" d="M37 12h1v1h-1zm-1 5h1v1h-1zm0 12h1v1h-1zm0 6h1v1h-1zm-4 4h1v1h-1zm4 1h1v1h-1zm10 14h1v1h-1zm6 5h1v1h-1zm-35 3h1v1h-1zm28 3h1v1h-1z"/><path fill="#497" d="M28 13h1v1h-1zm2 4h1v1h-1zm0 1h1v1h-1zm0 1h1v1h-1zm0 1h1v1h-1zm3 3h1v1h-1zm-7 2h1v1h-1zm4 0h1v1h-1zm6 11h1v1h-1zM14 55h1v1h-1zm0 1h1v2h-1zm40 5h1v1h-1zm-43 1h1v1h-1zm3 1h1v1h-1zm0 1h1v1h-1zm0 5h1v1h-1zm0 1h1v1h-1zm0 1h1v1h-1zm0 1h1v2h-1zm33 1h1v1h-1zm0 1h1v1h-1z"/><path fill="#163" d="M30 13h1v1h-1zm4 17h1v1h-1zM14 66h1v1h-1zm38 0h1v1h-1zm2 0h1v1h-1z"/><path fill="#7a8" d="M38 14h1v1h-1zm0 24h1v1h-1zM16 49h1v1h-1zm34 0h1v1h-1zm-30 5h1v1h-1z"/><path fill="#8a9" d="M22 64h1v1h-1zm-2 2h1v1h-1zm32 1h1v1h-1zM21 77h1v1h-1z"/><path fill="#cdd" d="M35 11h1v1h-1zM12 49h1v1h-1zm5 2h1v1h-1zm32 1h1v1h-1zM16 62h1v1h-1zm33 5h1v2h-1zM10 77h1v1h-1z"/><path fill="#063" d="M34 13h1v1h-1zm-6 1h1v1h-1zm7 0h1v1h-1zm-1 3h1v1h-1zm-5 1h1v1h-1zm5 0h1v1h-1zm1 0h1v1h-1zm-6 1h1v1h-1zm5 0h1v1h-1zm1 0h1v1h-1zm-6 1h1v1h-1zm6 0h1v1h-1zm-1 4h1v1h-1zm-6 2h1v1h-1zm1 0h1v1h-1zm6 0h1v1h-1zm-6 1h1v1h-1zm5 0h1v1h-1zm-4 1h1v1h-1zm1 0h1v1h-1zm1 0h1v1h-1zm1 0h1v1h-1zm1 1h1v1h-1zm-5 2h1v1h-1zm5 0h1v1h-1zm1 0h1v1h-1zm-6 1h1v1h-1zm5 0h1v1h-1zm1 0h1v1h-1zm2 5h1v1h-1zm-8 1h1v1h-1zm5 0h1v1h-1zm1 0h1v1h-1zM21 51h1v1h-1zm27 0h1v1h-1zm5 0h1v1h-1zm3 0h1v1h-1zm-43 4h1v1h-1zm5 0h1v1h-1zm30 0h1v1h-1zm5 0h1v1h-1zm-40 1h1v1h-1zm5 0h1v1h-1zm1 0h1v1h-1zm28 0h1v1h-1zm1 0h1v1h-1zm5 0h1v1h-1zm-40 1h1v1h-1zm5 0h1v1h-1zm1 0h1v1h-1zm28 0h1v1h-1zm1 0h1v1h-1zm5 0h1v1h-1zm-35 1h1v1h-1zm1 0h1v1h-1zm28 0h1v1h-1zm-32 3h1v1h-1zm2 0h1v1h-1zm32 0h1v1h-1zm2 0h2v1h-2zm-33 1h1v1h-1zm30 0h1v1h-1zm5 0h1v1h-1zm-42 1h1v1h-1zm2 0h1v1h-1zm6 0h1v1h-1zm2 0h1v1h-1zm24 0h1v1h-1zm3 0h1v1h-1zm5 0h1v1h-1zm2 0h1v1h-1zm1 0h1v1h-1zm-43 1h1v1h-1zm5 0h1v1h-1zm1 0h1v1h-1zm28 0h1v1h-1zm1 0h1v1h-1zm5 0h1v1h-1zm-35 1h1v1h-1zm30 0h1v1h-1zm5 0h1v1h-1zm-40 3h1v1h-1zm5 0h1v1h-1zm1 0h1v1h-1zm-6 1h1v1h-1zm5 0h1v1h-1zm1 0h1v1h-1zm28 0h1v1h-1zm1 0h1v1h-1zm5 0h1v1h-1zm-40 1h1v1h-1zm6 0h1v1h-1zm28 0h2v1h-2zm6 0h1v1h-1zm-5 1h1v1h-1zm-30 1h1v1h-1zm30 0h1v1h-1zm-30 1h1v1h-1zm-7 2h1v1h-1zm9 0h1v1h-1zm1 0h1v1h-1zm24 0h1v1h-1zm10 0h1v1h-1zm1 0h1v1h-1zm-43 1h1v1h-1zm5 0h1v1h-1zm30 0h1v1h-1zm5 0h1v1h-1zm-36 1h1v1h-1z"/><path fill="#486" d="M30 15h1v1h-1zm0 1h1v1h-1zm-1 7h1v1h-1zm1 3h1v1h-1zm5 9h1v1h-1zm-5 1h1v1h-1zM15 50h1v1h-1zm3 0h1v1h-1zm34 1h1v1h-1zm-38 1h1v1h-1zm0 1h1v1h-1zm0 1h1v1h-1zm-1 6h1v1h-1zm7 2h1v1h-1zm26 0h1v1h-1zm8 0h1v1h-1zm1 0h1v1h-1zm-39 4h1v1h-1zm34 0h1v1h-1zm1 0h1v1h-1zm-37 1h1v1h-1zm0 1h1v1h-1z"/><path fill="#798" d="M21 53h1v1h-1zm-2 25h1v1h-1z"/><path fill="#254" d="M15 78h1v1h-1zm2 0h1v1h-1z"/><path fill="#777" d="M0 84h1v1H0zm65 0h1v1h-1zM0 85h1v1H0zm65 0h1v1h-1zM0 86h1v1H0zm65 0h1v1h-1zM0 87h1v1H0zm65 0h1v1h-1z"/><path fill="#8b9" d="M28 12h1v1h-1zm7 0h1v1h-1zm1 0h1v1h-1zm2 1h1v1h-1zm-10 9h1v1h-1zm0 12h1v1h-1zm21 15h1v1h-1zm3 9h1v1h-1zm-32 3h1v1h-1zm25 1h1v1h-1zM20 73h1v1h-1zm32 1h1v1h-1zm-3 2h1v1h-1z"/><path fill="#365" d="M35 40h1v1h-1zM11 65h1v1h-1zm3 13h1v1h-1z"/><path fill="#143" d="M11 77h1v1h-1z"/><path fill="#698" d="M28 17h1v1h-1zm0 12h1v1h-1zm19 49h1v1h-1z"/><path fill="#dee" d="M32 27h1v1h-1zm6 0h1v1h-1zm-5 11h1v1h-1zm-1 3h1v1h-1zm14 14h1v1h-1zm0 1h1v3h-1zm0 3h1v1h-1zm9 2h1v1h-1zm-9 6h1v1h-1zm0 1h1v3h-1zm0 3h1v1h-1zm-24 3h1v1h-1zm-2 4h1v1h-1z"/><path fill="#164" d="M28 28h1v1h-1zm27 25h1v1h-1zM15 77h1v1h-1z"/><path fill="#475" d="M18 78h1v1h-1zm30 0h1v1h-1z"/><path fill="#496" d="M30 12h1v1h-1zm6 1h1v1h-1zm-2 9h1v1h-1zm1 1h1v1h-1zm-7 1h1v1h-1zm8 0h1v1h-1zm-1 12h1v1h-1zm-9 1h1v1h-1zm27 23h1v1h-1zm-34 1h1v1h-1zm28 0h1v1h-1zm-35 1h1v1h-1zm7 11h1v1h-1zm-8 1h1v1h-1zm8 0h1v1h-1zm1 0h1v1h-1zm26 0h1v1h-1zm9 0h1v1h-1zm-39 3h1v1h-1z"/><path fill="#8ba" d="M31 24h1v1h-1zm1 0h1v1h-1zm5 0h1v1h-1zM14 49h1v1h-1zm38 0h1v1h-1zm-30 3h1v1h-1zm30 12h1v1h-1zm-35 1h1v1h-1zm35 3h1v1h-1zm0 1h1v1h-1zm0 1h1v1h-1zm0 1h1v2h-1zm0 2h1v1h-1zm0 2h1v1h-1zm-30 1h1v1h-1z"/><path fill="#cdc" d="M27 40h1v1h-1zm27 9h1v1h-1zm-3 13h1v1h-1zm-5 16h1v1h-1z"/><path fill="#bbb" d="M0 1h1v1H0zm1 0h1v1H1zm63 0h1v1h-1zm1 0h1v1h-1zM1 85h1v1H1zm63 0h1v1h-1zM2 86h1v1H2zm1 0h1v1H3zm59 0h1v1h-1zm1 0h1v1h-1z"/><path fill="#bdc" d="M29 11h1v1h-1zm-3 16h1v1h-1zm-7 22h1v1h-1zm28 0h1v1h-1zm-3 2h1v1h-1zm-24 9h1v1h-1zm24 4h1v1h-1zm-24 8h1v1h-1zm-10 2h1v1h-1zm7 2h1v1h-1zm27 0h1v1h-1z"/><path fill="#275" d="M31 12h1v1h-1zm1 0h1v1h-1zm5 1h1v1h-1zm-8 8h1v1h-1zm1 2h1v1h-1zm4 0h1v1h-1zm-4 1h1v1h-1zm6 1h1v1h-1zm-7 9h1v1h-1zm7 3h1v1h-1zm-6 1h1v1h-1zM11 51h1v1h-1zm43 4h1v1h-1zm0 1h1v1h-1zM12 66h1v1h-1zm42 1h1v1h-1zm0 1h1v1h-1zm-7 7h1v1h-1z"/><path fill="#053" d="M27 14h1v1h-1zm2 0h1v1h-1zm7 0h1v1h-1zm-9 1h1v1h-1zm2 2h1v1h-1zm7 9h1v1h-1zm-1 1h1v1h-1zm-1 1h1v1h-1zm-5 2h1v1h-1zm6 0h1v1h-1zM18 51h1v1h-1zm-6 1h1v1h-1zm35 0h1v1h-1zm9 0h1v1h-1zm-37 3h1v1h-1zm-7 9h1v1h-1zm42 0h1v1h-1zm2 0h1v1h-1zm-43 1h1v1h-1zm5 2h1v1h-1zm29 1h1v1h-1zm1 0h1v1h-1zm5 0h1v1h-1zm3 8h1v1h-1z"/><path fill="#274" d="M33 39h1v1h-1zM14 51h1v1h-1zm5 8h1v1h-1zm29 2h1v1h-1zm5 11h1v1h-1zm-41 3h1v1h-1zm1 0h1v1h-1zm38 2h1v1h-1z"/><path fill="#264" d="M11 53h1v1h-1zm1 1h1v1h-1zm43 11h1v1h-1zm0 12h1v1h-1zm-6 1h1v1h-1z"/><path fill="#eff" d="M11 54h1v1h-1zm0 7h1v1h-1z"/><path fill="#9aa" d="M12 78h1v1h-1z"/></svg>