<?xml version="1.0" encoding="UTF-8"?><svg xmlns="http://www.w3.org/2000/svg" version="1.2" baseProfile="tiny" viewBox="0 0 66 90" width="66px" height="90px"><g fill="#6a8"><rect width="1" height="1" x="26" y="13"/><rect x="28" y="18" width="1" height="1"/><rect height="1" x="28" y="19" width="1"/><rect x="28" y="20" width="1" height="1"/><rect x="28" y="21" width="1" height="1"/><rect x="30" y="21" width="1" height="1"/><rect x="30" y="22" width="1" height="1"/><rect y="23" width="1" height="1" x="28"/><rect x="38" y="26" width="1" height="1"/><rect y="30" width="1" height="1" x="28"/><rect width="1" height="1" x="28" y="31"/><rect x="28" y="32" width="1" height="1"/><rect height="1" x="28" y="33" width="1"/><rect x="28" y="35" width="1" height="1"/><rect height="1" x="27" y="36" width="1"/><rect width="1" height="1" x="13" y="50"/><rect x="21" y="50" width="1" height="1"/><rect y="50" width="1" height="1" x="53"/><rect x="55" y="50" width="1" height="1"/><rect x="12" y="59" width="1" height="1"/><rect x="14" y="59" width="1" height="1"/><rect x="14" y="60" width="1" height="1"/><rect y="62" width="1" height="1" x="21"/><rect height="1" x="12" y="71" width="1"/><rect x="45" y="74" width="1" height="1"/></g><g fill="#375"><rect y="14" width="1" height="1" x="30"/><rect x="37" y="15" width="1" height="1"/><rect width="1" height="1" x="37" y="27"/><rect width="1" height="1" x="37" y="39"/><rect width="1" height="1" x="10" y="52"/><rect x="10" y="64" width="1" height="1"/><rect height="1" x="17" y="66" width="1"/><rect x="49" y="66" width="1" height="1"/><rect height="1" x="10" y="76" width="1"/></g><g fill="#153"><rect width="1" height="1" x="28" y="16"/><rect width="1" height="1" x="27" y="27"/><rect y="40" width="1" height="1" x="29"/><rect y="54" width="1" height="1" x="54"/><rect x="16" y="78" width="1" height="1"/><rect x="50" y="78" width="1" height="1"/><rect height="1" x="51" y="78" width="1"/></g><g fill="#073"><rect x="29" y="25" width="1" height="1"/><rect height="1" x="48" y="58" width="1"/><rect x="14" y="61" width="1" height="1"/><rect height="1" x="18" y="74" width="1"/></g><rect width="1" height="1" fill="#abb" x="54" y="78"/><g fill="#9cb"><rect height="1" x="31" y="11" width="1"/><rect height="1" x="33" y="11" width="1"/><rect height="1" x="36" y="18" width="1"/><rect y="19" width="1" height="1" x="36"/><rect x="36" y="20" width="1" height="1"/><rect x="36" y="21" width="1" height="1"/><rect y="30" width="1" height="1" x="36"/><rect height="1" x="36" y="31" width="1"/><rect width="1" height="1" x="36" y="32"/><rect x="36" y="33" width="1" height="1"/><rect height="1" x="51" y="65" width="1"/><rect y="73" width="1" height="1" x="46"/></g><g fill="#174"><rect y="12" width="1" height="1" x="33"/><rect y="21" width="1" height="1" x="35"/><rect height="1" x="27" y="25" width="1"/><rect x="34" y="25" width="1" height="1"/><rect x="35" y="25" width="1" height="1"/><rect y="25" width="1" height="1" x="37"/><rect width="1" height="1" x="34" y="26"/><rect y="27" width="1" height="1" x="30"/><rect x="29" y="33" width="1" height="1"/><rect x="34" y="36" width="1" height="1"/><rect x="27" y="37" width="1" height="1"/><rect x="34" y="37" width="1" height="1"/><rect height="1" x="17" y="50" width="1"/><rect x="49" y="50" width="1" height="1"/><rect x="52" y="50" width="1" height="1"/><rect width="1" height="1" x="19" y="51"/><rect x="45" y="51" width="1" height="1"/><rect y="51" width="1" height="1" x="55"/><rect y="58" width="1" height="1" x="13"/><rect x="53" y="58" width="1" height="1"/><rect x="47" y="59" width="1" height="1"/><rect x="16" y="61" width="1" height="1"/><rect height="1" x="18" y="61" width="1"/><rect x="13" y="62" width="1" height="1"/><rect x="12" y="63" width="1" height="1"/><rect width="1" height="1" x="18" y="63"/><rect width="1" height="1" x="20" y="63"/><rect y="63" width="1" height="1" x="46"/><rect x="47" y="63" width="1" height="1"/><rect x="54" y="63" width="1" height="1"/><rect height="1" x="14" y="65" width="1"/><rect y="71" width="1" height="1" x="13"/><rect x="19" y="71" width="1" height="1"/><rect width="1" height="1" x="48" y="74"/><rect width="1" height="1" x="18" y="75"/><rect x="19" y="75" width="1" height="1"/><rect width="1" height="1" x="46" y="75"/><rect x="48" y="75" width="1" height="1"/><rect x="53" y="75" width="1" height="1"/><rect height="1" x="54" y="75" width="1"/><rect width="1" height="1" x="14" y="76"/></g><rect height="1" x="52" y="78" fill="#364" width="1"/><g fill="#666"><rect height="1" y="88" width="1"/><rect y="88" width="1" height="1" x="1"/><rect y="88" width="1" height="1" x="64"/><rect x="65" y="88" width="1" height="1"/><rect width="1" height="1" x="1" y="89"/><rect x="2" y="89" width="1" height="1"/><rect y="89" width="1" height="1" x="3"/><rect height="1" x="4" y="89" width="58"/><rect y="89" width="1" height="1" x="62"/><rect x="63" y="89" width="1" height="1"/><rect x="64" y="89" width="1" height="1"/></g><g fill="#ddd"><rect x="3" width="1" height="1"/><rect width="1" height="1" x="4"/><rect width="56" height="1" x="5"/><rect width="1" height="1" x="61"/><rect width="1" height="1" x="62"/><rect height="1" x="2" y="1" width="1"/><rect width="1" height="1" x="63" y="1"/><rect x="1" y="6" width="1" height="1"/><rect x="64" y="6" width="1" height="1"/><rect y="7" width="1" height="1" x="1"/><rect x="64" y="7" width="1" height="1"/><rect x="1" y="8" width="1" height="1"/><rect y="8" width="1" height="1" x="64"/><rect x="1" y="9" width="1" height="73"/><rect x="64" y="9" width="1" height="73"/><rect x="56" y="53" width="1" height="1"/><rect x="1" y="82" width="1" height="1"/><rect width="1" height="1" x="64" y="82"/><rect x="1" y="83" width="1" height="1"/><rect height="1" x="64" y="83" width="1"/><rect height="1" x="2" y="84" width="1"/><rect width="1" height="1" x="63" y="84"/><rect x="3" y="85" width="1" height="1"/><rect x="4" y="85" width="1" height="1"/><rect x="5" y="85" width="1" height="1"/><rect x="6" y="85" width="1" height="1"/><rect x="7" y="85" width="2" height="1"/><rect y="85" width="2" height="1" x="57"/><rect width="1" height="1" x="59" y="85"/><rect y="85" width="1" height="1" x="60"/><rect height="1" x="61" y="85" width="1"/><rect x="62" y="85" width="1" height="1"/></g><g fill="#eee"><rect x="3" y="1" width="1" height="1"/><rect x="62" y="1" width="1" height="1"/><rect x="2" y="2" width="1" height="1"/><rect height="1" x="63" y="2" width="1"/><rect y="3" width="1" height="1" x="1"/><rect x="64" y="3" width="1" height="1"/><rect x="1" y="4" width="1" height="1"/><rect y="4" width="1" height="1" x="64"/><rect x="1" y="5" width="1" height="1"/><rect x="64" y="5" width="1" height="1"/><rect x="2" y="6" width="1" height="1"/><rect x="63" y="6" width="1" height="1"/><rect x="2" y="7" width="1" height="1"/><rect x="63" y="7" width="1" height="1"/><rect x="2" y="8" width="1" height="74"/><rect width="1" height="74" x="63" y="8"/><rect height="1" x="28" y="11" width="1"/><rect x="38" y="15" width="1" height="1"/><rect x="27" y="28" width="1" height="1"/><rect y="36" width="1" height="1" x="26"/><rect height="1" x="38" y="39" width="1"/><rect height="1" x="31" y="41" width="1"/><rect x="33" y="41" width="1" height="1"/><rect x="46" y="49" width="1" height="1"/><rect y="49" width="1" height="1" x="55"/><rect height="1" x="10" y="50" width="1"/><rect x="55" y="54" width="1" height="1"/><rect x="46" y="60" width="1" height="1"/><rect height="1" x="10" y="65" width="1"/><rect y="72" width="1" height="1" x="46"/><rect x="11" y="73" width="1" height="1"/><rect y="82" width="1" height="1" x="2"/><rect x="63" y="82" width="1" height="1"/><rect width="1" height="1" x="2" y="83"/><rect x="63" y="83" width="1" height="1"/><rect height="1" x="3" y="84" width="1"/><rect x="4" y="84" width="1" height="1"/><rect width="1" height="1" x="61" y="84"/><rect y="84" width="1" height="1" x="62"/><rect height="1" x="9" y="85" width="48"/></g><g fill="#586"><rect y="40" width="1" height="1" x="28"/><rect x="13" y="78" width="1" height="1"/></g><g fill="#ccc"><rect x="1" width="1" height="1"/><rect width="1" height="1" x="2"/><rect x="63" width="1" height="1"/><rect height="1" x="64" width="1"/><rect y="2" width="1" height="1" x="1"/><rect height="1" x="64" y="2" width="1"/><rect height="1" x="1" y="84" width="1"/><rect y="84" width="1" height="1" x="64"/><rect y="85" width="1" height="1" x="2"/><rect width="1" height="1" x="63" y="85"/><rect x="4" y="86" width="1" height="1"/><rect x="5" y="86" width="1" height="1"/><rect x="6" y="86" width="1" height="1"/><rect height="1" x="7" y="86" width="52"/><rect width="1" height="1" x="59" y="86"/><rect y="86" width="1" height="1" x="60"/><rect height="1" x="61" y="86" width="1"/></g><g fill="#7b9"><rect x="29" y="12" width="1" height="1"/><rect y="25" width="1" height="1" x="38"/><rect x="37" y="36" width="1" height="1"/><rect height="1" x="17" y="49" width="1"/><rect width="1" height="1" x="11" y="50"/><rect height="1" x="12" y="50" width="1"/><rect width="1" height="1" x="19" y="50"/><rect y="50" width="1" height="1" x="47"/><rect x="54" y="50" width="1" height="1"/><rect y="51" width="1" height="1" x="22"/><rect x="52" y="56" width="1" height="1"/><rect width="1" height="1" x="52" y="57"/><rect width="1" height="1" x="22" y="63"/><rect height="1" x="22" y="75" width="1"/></g><g fill="#064"><rect height="1" x="34" y="33" width="1"/><rect x="18" y="70" width="1" height="1"/></g><rect y="59" width="1" fill="#acc" height="1" x="20"/><g fill="#acb"><rect width="1" height="1" x="30" y="11"/><rect x="34" y="11" width="1" height="1"/><rect width="1" height="1" x="27" y="12"/><rect x="33" y="13" width="1" height="1"/><rect width="1" height="1" x="26" y="15"/><rect width="1" height="1" x="36" y="22"/><rect height="1" x="36" y="34" width="1"/><rect x="26" y="39" width="1" height="1"/><rect width="1" height="1" x="13" y="49"/><rect height="1" x="53" y="49" width="1"/><rect x="45" y="50" width="1" height="1"/><rect y="50" width="1" height="1" x="56"/><rect x="49" y="51" width="1" height="1"/><rect height="1" x="20" y="55" width="1"/><rect x="20" y="56" width="1" height="1"/><rect width="1" height="1" x="20" y="57"/><rect y="58" width="1" height="1" x="20"/><rect x="46" y="61" width="1" height="1"/><rect x="49" y="62" width="1" height="1"/><rect width="1" height="1" x="56" y="62"/><rect width="1" height="1" x="44" y="63"/><rect y="65" width="1" height="1" x="16"/><rect x="50" y="65" width="1" height="1"/><rect x="46" y="66" width="1" height="1"/><rect x="20" y="67" width="1" height="1"/><rect y="68" width="1" height="1" x="20"/><rect width="1" height="1" x="20" y="69"/><rect x="20" y="70" width="1" height="1"/><rect x="44" y="75" width="1" height="1"/></g><g fill="#597"><rect x="34" y="12" width="1" height="1"/><rect x="31" y="23" width="1" height="1"/><rect x="32" y="23" width="1" height="1"/><rect y="24" width="1" height="1" x="33"/><rect x="28" y="36" width="1" height="1"/><rect height="1" x="30" y="37" width="1"/><rect x="16" y="50" width="1" height="1"/><rect x="48" y="50" width="1" height="1"/><rect width="1" height="1" x="50" y="50"/><rect x="12" y="55" width="1" height="1"/><rect width="1" height="1" x="12" y="56"/><rect x="12" y="57" width="1" height="1"/><rect y="58" width="1" height="1" x="12"/><rect y="58" width="1" height="1" x="14"/><rect width="1" height="1" x="54" y="60"/><rect height="1" x="12" y="61" width="1"/><rect x="49" y="65" width="1" height="1"/><rect height="1" x="12" y="67" width="1"/><rect height="1" x="12" y="68" width="1"/><rect x="12" y="69" width="1" height="1"/><rect height="1" x="12" y="70" width="1"/><rect height="1" x="54" y="72" width="1"/><rect x="12" y="73" width="1" height="1"/><rect height="1" x="54" y="73" width="1"/><rect x="12" y="74" width="1" height="1"/><rect height="1" x="14" y="74" width="1"/><rect x="21" y="74" width="1" height="1"/><rect y="74" width="1" height="1" x="54"/><rect x="14" y="75" width="1" height="1"/></g><g fill="#285"><rect width="1" height="1" x="29" y="13"/><rect width="1" height="1" x="34" y="21"/><rect y="24" width="1" height="1" x="29"/><rect height="1" x="28" y="25" width="1"/><rect x="35" y="34" width="1" height="1"/><rect x="29" y="37" width="1" height="1"/><rect height="1" x="35" y="37" width="1"/><rect y="50" width="1" height="1" x="14"/><rect y="51" width="1" height="1" x="20"/><rect x="46" y="51" width="1" height="1"/><rect y="51" width="1" height="1" x="47"/><rect height="1" x="54" y="51" width="1"/><rect x="54" y="57" width="1" height="1"/><rect x="54" y="58" width="1" height="1"/><rect height="1" x="13" y="59" width="1"/><rect width="1" height="1" x="18" y="59"/><rect y="59" width="1" height="1" x="48"/><rect width="1" height="1" x="53" y="59"/><rect height="1" x="19" y="62" width="1"/><rect width="1" height="1" x="10" y="63"/><rect x="54" y="69" width="1" height="1"/><rect x="54" y="70" width="1" height="1"/><rect y="72" width="1" height="1" x="13"/><rect height="2" x="53" y="73" width="1"/><rect y="75" width="1" height="1" x="10"/></g><g fill="#999"><rect width="1" height="1" y="3"/><rect x="65" y="3" width="1" height="1"/><rect height="1" y="4" width="1"/><rect x="65" y="4" width="1" height="1"/><rect height="1" x="3" y="88" width="1"/><rect x="62" y="88" width="1" height="1"/></g><rect x="36" y="16" width="1" height="1" fill="#476"/><g fill="#7a9"><rect x="27" y="24" width="1" height="1"/><rect height="1" x="38" y="37" width="1"/><rect height="1" x="15" y="49" width="1"/><rect height="1" x="51" y="49" width="1"/><rect x="20" y="50" width="1" height="1"/><rect width="1" height="1" x="46" y="50"/><rect y="52" width="1" height="1" x="52"/><rect width="1" height="1" x="45" y="53"/><rect x="52" y="53" width="1" height="1"/><rect x="52" y="54" width="1" height="1"/><rect height="1" x="52" y="55" width="1"/><rect y="60" width="1" height="1" x="12"/><rect width="1" height="1" x="21" y="65"/><rect y="72" width="1" height="1" x="12"/></g><rect width="1" height="1" x="20" y="71" fill="#adc"/><g fill="#fff"><rect x="4" y="1" width="1" height="1"/><rect height="1" x="5" y="1" width="1"/><rect height="1" x="6" y="1" width="54"/><rect width="1" height="1" x="60" y="1"/><rect height="1" x="61" y="1" width="1"/><rect x="3" y="2" width="1" height="1"/><rect x="4" y="2" width="1" height="1"/><rect height="1" x="5" y="2" width="56"/><rect width="1" height="1" x="61" y="2"/><rect x="62" y="2" width="1" height="1"/><rect y="3" width="1" height="1" x="2"/><rect x="3" y="3" width="1" height="1"/><rect width="2" height="1" x="4" y="3"/><rect width="54" height="1" x="6" y="3"/><rect x="60" y="3" width="2" height="1"/><rect height="1" x="62" y="3" width="1"/><rect height="1" x="63" y="3" width="1"/><rect width="1" height="2" x="2" y="4"/><rect y="4" width="1" height="3" x="3"/><rect x="4" y="4" width="1" height="1"/><rect height="7" x="5" y="4" width="56"/><rect y="4" width="1" height="1" x="61"/><rect height="3" x="62" y="4" width="1"/><rect x="63" y="4" width="1" height="2"/><rect width="58" height="2" x="4" y="5"/><rect x="3" y="7" width="1" height="1"/><rect x="4" y="7" width="1" height="1"/><rect x="61" y="7" width="1" height="1"/><rect y="7" width="1" height="1" x="62"/><rect x="3" y="8" width="1" height="73"/><rect x="4" y="8" width="1" height="73"/><rect x="61" y="8" width="1" height="74"/><rect width="1" height="73" x="62" y="8"/><rect y="11" width="23" height="1" x="5"/><rect x="37" y="11" width="24" height="1"/><rect x="5" y="12" width="21" height="36"/><rect x="26" y="12" width="1" height="1"/><rect height="1" x="38" y="12" width="1"/><rect x="39" y="12" width="22" height="36"/><rect y="13" width="1" height="10" x="32"/><rect x="31" y="14" width="2" height="9"/><rect x="33" y="14" width="1" height="1"/><rect x="33" y="15" width="1" height="8"/><rect width="1" height="8" x="26" y="16"/><rect x="37" y="16" width="1" height="1"/><rect width="23" height="8" x="38" y="16"/><rect width="1" height="6" x="27" y="17"/><rect width="24" height="7" x="37" y="17"/><rect width="1" height="1" x="27" y="23"/><rect x="26" y="24" width="1" height="1"/><rect x="38" y="24" width="1" height="1"/><rect x="31" y="25" width="3" height="2"/><rect width="1" height="8" x="26" y="28"/><rect x="37" y="28" width="1" height="1"/><rect y="28" width="23" height="8" x="38"/><rect height="6" x="27" y="29" width="1"/><rect height="9" x="31" y="29" width="2"/><rect y="29" width="1" height="1" x="33"/><rect x="37" y="29" width="24" height="7"/><rect y="30" width="1" height="8" x="33"/><rect y="35" width="1" height="1" x="27"/><rect x="38" y="36" width="1" height="1"/><rect height="1" x="31" y="38" width="1"/><rect x="32" y="38" width="1" height="1"/><rect x="26" y="40" width="1" height="44"/><rect width="1" height="1" x="37" y="40"/><rect x="38" y="40" width="23" height="8"/><rect width="3" height="43" x="27" y="41"/><rect x="30" y="41" width="1" height="1"/><rect width="1" height="1" x="34" y="41"/><rect y="41" width="26" height="7" x="35"/><rect width="31" height="6" x="30" y="42"/><rect x="5" y="48" width="9" height="1"/><rect height="1" x="14" y="48" width="1"/><rect x="15" y="48" width="1" height="1"/><rect x="16" y="48" width="1" height="1"/><rect x="17" y="48" width="1" height="1"/><rect width="1" height="1" x="18" y="48"/><rect width="29" height="1" x="19" y="48"/><rect height="1" x="48" y="48" width="1"/><rect x="49" y="48" width="1" height="1"/><rect y="48" width="1" height="1" x="50"/><rect x="51" y="48" width="2" height="1"/><rect x="53" y="48" width="1" height="1"/><rect width="7" height="1" x="54" y="48"/><rect y="49" width="6" height="1" x="5"/><rect x="11" y="49" width="1" height="1"/><rect x="21" y="49" width="1" height="1"/><rect height="1" x="22" y="49" width="24"/><rect y="49" width="5" height="1" x="56"/><rect width="5" height="32" x="5" y="50"/><rect x="23" y="50" width="21" height="34"/><rect width="1" height="1" x="44" y="50"/><rect height="32" x="57" y="50" width="4"/><rect height="1" x="15" y="51" width="1"/><rect x="16" y="51" width="1" height="10"/><rect width="2" height="10" x="50" y="51"/><rect width="2" height="9" x="15" y="52"/><rect y="52" width="1" height="1" x="17"/><rect width="1" height="8" x="17" y="53"/><rect x="22" y="53" width="1" height="1"/><rect x="44" y="53" width="1" height="1"/><rect width="1" height="8" x="10" y="54"/><rect height="7" x="21" y="54" width="25"/><rect x="56" y="54" width="5" height="8"/><rect y="55" width="1" height="6" x="11"/><rect x="55" y="55" width="6" height="6"/><rect x="21" y="61" width="1" height="1"/><rect x="22" y="61" width="24" height="1"/><rect width="1" height="1" x="44" y="62"/><rect x="15" y="63" width="3" height="2"/><rect height="2" x="50" y="63" width="2"/><rect y="65" width="1" height="1" x="22"/><rect y="65" width="1" height="9" x="44"/><rect x="10" y="66" width="1" height="8"/><rect width="1" height="1" x="11" y="66"/><rect height="7" x="21" y="66" width="25"/><rect y="66" width="1" height="1" x="55"/><rect y="66" width="5" height="8" x="56"/><rect x="11" y="67" width="1" height="6"/><rect width="2" height="9" x="15" y="67"/><rect height="1" x="17" y="67" width="1"/><rect x="50" y="67" width="2" height="9"/><rect x="55" y="67" width="6" height="6"/><rect x="17" y="68" width="1" height="7"/><rect x="21" y="73" width="1" height="1"/><rect x="22" y="73" width="23" height="1"/><rect height="1" x="45" y="73" width="1"/><rect x="44" y="74" width="1" height="1"/><rect height="1" x="17" y="75" width="1"/><rect width="1" height="1" x="16" y="76"/><rect x="50" y="76" width="1" height="1"/><rect x="51" y="76" width="1" height="1"/><rect height="1" x="22" y="77" width="1"/><rect x="44" y="77" width="1" height="1"/><rect height="6" x="10" y="78" width="1"/><rect width="25" height="6" x="21" y="78"/><rect height="1" x="55" y="78" width="1"/><rect x="56" y="78" width="5" height="4"/><rect height="3" x="11" y="79" width="50"/><rect y="81" width="1" height="1" x="3"/><rect height="2" x="4" y="81" width="1"/><rect x="62" y="81" width="1" height="1"/><rect x="3" y="82" width="1" height="1"/><rect x="5" y="82" width="1" height="1"/><rect x="6" y="82" width="54" height="1"/><rect height="1" x="60" y="82" width="1"/><rect x="61" y="82" width="1" height="1"/><rect x="62" y="82" width="1" height="1"/><rect x="3" y="83" width="1" height="1"/><rect x="4" y="83" width="1" height="1"/><rect x="5" y="83" width="1" height="1"/><rect x="6" y="83" width="1" height="1"/><rect height="1" x="7" y="83" width="52"/><rect x="59" y="83" width="1" height="1"/><rect width="1" height="1" x="60" y="83"/><rect x="61" y="83" width="1" height="1"/><rect x="62" y="83" width="1" height="1"/><rect height="1" x="5" y="84" width="1"/><rect x="6" y="84" width="1" height="1"/><rect width="1" height="1" x="7" y="84"/><rect x="8" y="84" width="50" height="1"/><rect x="58" y="84" width="1" height="1"/><rect x="59" y="84" width="1" height="1"/><rect x="60" y="84" width="1" height="1"/></g><g fill="#888"><rect y="5" width="1" height="1"/><rect x="65" y="5" width="1" height="1"/><rect width="1" height="1" y="6"/><rect width="1" height="1" x="65" y="6"/><rect y="7" width="1" height="1"/><rect x="65" y="7" width="1" height="1"/><rect y="8" width="1" height="73"/><rect width="1" height="73" x="65" y="8"/><rect y="81" width="1" height="2"/><rect x="65" y="81" width="1" height="2"/><rect y="83" width="1" height="1"/><rect x="65" y="83" width="1" height="1"/><rect x="1" y="87" width="1" height="1"/><rect height="1" x="64" y="87" width="1"/><rect x="2" y="88" width="1" height="1"/><rect y="88" width="1" height="1" x="63"/></g><g fill="#386"><rect height="1" x="27" y="13" width="1"/><rect x="35" y="13" width="1" height="1"/><rect x="26" y="14" width="1" height="1"/><rect width="1" height="1" x="29" y="22"/><rect width="1" height="1" x="35" y="22"/><rect height="1" x="26" y="26" width="1"/><rect x="30" y="29" width="1" height="1"/><rect x="30" y="30" width="1" height="1"/><rect height="1" x="30" y="31" width="1"/><rect y="32" width="1" height="1" x="30"/><rect y="33" width="1" height="1" x="30"/><rect x="30" y="34" width="1" height="2"/><rect x="29" y="35" width="1" height="1"/><rect y="36" width="1" height="1" x="29"/><rect y="38" width="1" height="1" x="26"/><rect height="1" x="31" y="39" width="1"/><rect y="50" width="1" height="1" x="51"/><rect x="10" y="51" width="1" height="1"/><rect height="1" x="12" y="51" width="1"/><rect width="1" height="1" x="54" y="59"/><rect y="60" width="2" height="1" x="18"/><rect width="1" height="1" x="48" y="60"/><rect height="1" x="13" y="61" width="1"/><rect x="14" y="62" width="1" height="1"/><rect height="1" x="47" y="62" width="1"/><rect y="65" width="1" height="1" x="52"/><rect height="1" x="15" y="66" width="1"/><rect width="1" height="1" x="54" y="71"/><rect width="1" height="1" x="13" y="73"/><rect width="1" height="1" x="52" y="76"/><rect x="50" y="77" width="1" height="1"/></g><g fill="#385"><rect x="35" y="24" width="1" height="1"/><rect x="28" y="37" width="1" height="1"/><rect x="47" y="60" width="1" height="1"/><rect x="53" y="61" width="1" height="1"/><rect x="52" y="62" width="1" height="1"/><rect width="1" height="1" x="19" y="72"/><rect height="1" x="47" y="72" width="1"/><rect y="74" width="1" height="1" x="13"/></g><g fill="#587"><rect x="36" y="28" width="1" height="1"/><rect height="1" x="45" y="77" width="1"/><rect height="1" x="53" y="78" width="1"/></g><g fill="#efe"><rect x="36" y="11" width="1" height="1"/><rect y="13" width="1" height="1" x="31"/><rect width="1" height="1" x="22" y="50"/><rect x="22" y="62" width="1" height="1"/><rect width="1" height="1" x="15" y="76"/><rect width="1" height="1" x="11" y="78"/></g><g fill="#042"><rect width="1" height="1" x="36" y="15"/><rect x="27" y="39" width="1" height="1"/><rect height="1" x="28" y="39" width="1"/><rect y="39" width="1" height="1" x="29"/><rect y="39" width="1" height="1" x="35"/><rect x="36" y="39" width="1" height="1"/><rect x="30" y="40" width="1" height="1"/><rect x="31" y="40" width="1" height="1"/><rect x="32" y="40" width="1" height="1"/><rect x="33" y="40" width="1" height="1"/><rect y="40" width="1" height="1" x="34"/><rect y="53" width="1" height="1" x="20"/><rect x="46" y="53" width="1" height="1"/><rect y="65" width="1" height="1" x="20"/><rect height="1" x="21" y="76" width="1"/><rect y="76" width="1" height="1" x="55"/><rect x="12" y="77" width="1" height="1"/><rect x="13" y="77" width="1" height="1"/><rect height="1" x="18" y="77" width="1"/><rect x="19" y="77" width="1" height="1"/><rect x="20" y="77" width="1" height="1"/><rect y="77" width="1" height="1" x="46"/><rect y="77" width="1" height="1" x="47"/><rect height="1" x="48" y="77" width="1"/><rect y="77" width="1" height="1" x="53"/><rect x="54" y="77" width="1" height="1"/></g><g fill="#ced"><rect width="1" height="1" x="33" y="27"/><rect width="1" height="1" x="20" y="49"/><rect y="53" width="1" height="1" x="49"/><rect x="49" y="54" width="1" height="4"/><rect height="1" x="49" y="58" width="1"/><rect x="10" y="62" width="1" height="1"/><rect x="15" y="62" width="1" height="1"/><rect x="50" y="62" width="1" height="1"/><rect width="1" height="1" x="49" y="63"/><rect height="1" x="49" y="64" width="1"/><rect width="1" height="2" x="49" y="69"/><rect y="71" width="1" height="2" x="49"/><rect x="49" y="73" width="1" height="1"/></g><rect y="52" width="1" height="1" fill="#bcb" x="44"/><g fill="#aaa"><rect y="2" width="1" height="1"/><rect x="65" y="2" width="1" height="1"/><rect width="1" height="1" x="1" y="86"/><rect y="86" width="1" height="1" x="64"/><rect width="1" height="1" x="2" y="87"/><rect x="3" y="87" width="1" height="1"/><rect height="1" x="4" y="87" width="1"/><rect x="5" y="87" width="56" height="1"/><rect x="61" y="87" width="1" height="1"/><rect y="87" width="1" height="1" x="62"/><rect y="87" width="1" height="1" x="63"/><rect y="88" width="1" height="1" x="4"/><rect x="5" y="88" width="56" height="1"/><rect x="61" y="88" width="1" height="1"/></g><g fill="#052"><rect y="14" width="1" height="1" x="34"/><rect width="1" height="1" x="37" y="14"/><rect x="28" y="15" width="1" height="1"/><rect width="1" height="1" x="29" y="15"/><rect x="34" y="15" width="1" height="1"/><rect height="1" x="35" y="15" width="1"/><rect height="1" x="29" y="16" width="1"/><rect width="1" height="1" x="34" y="16"/><rect x="35" y="16" width="1" height="1"/><rect x="35" y="17" width="1" height="1"/><rect x="27" y="26" width="1" height="1"/><rect width="1" height="1" x="37" y="26"/><rect y="27" width="1" height="1" x="28"/><rect x="36" y="27" width="1" height="1"/><rect width="1" height="1" x="29" y="28"/><rect x="35" y="28" width="1" height="1"/><rect y="29" width="1" height="1" x="29"/><rect width="1" height="1" x="35" y="29"/><rect x="27" y="38" width="1" height="1"/><rect width="1" height="1" x="28" y="38"/><rect x="36" y="38" width="1" height="1"/><rect height="1" x="37" y="38" width="1"/><rect x="30" y="39" width="1" height="1"/><rect width="1" height="1" x="34" y="39"/><rect height="1" x="11" y="52" width="1"/><rect height="1" x="13" y="52" width="1"/><rect y="52" width="1" height="1" x="18"/><rect x="19" y="52" width="1" height="1"/><rect width="1" height="1" x="20" y="52"/><rect height="1" x="21" y="52" width="1"/><rect x="45" y="52" width="1" height="1"/><rect width="1" height="1" x="46" y="52"/><rect x="48" y="52" width="1" height="1"/><rect width="1" height="1" x="53" y="52"/><rect width="1" height="1" x="54" y="52"/><rect x="55" y="52" width="1" height="1"/><rect width="1" height="1" x="12" y="53"/><rect x="13" y="53" width="1" height="1"/><rect x="18" y="53" width="1" height="1"/><rect y="53" width="1" height="1" x="19"/><rect x="47" y="53" width="1" height="2"/><rect x="48" y="53" width="1" height="1"/><rect x="53" y="53" width="1" height="1"/><rect y="53" width="1" height="1" x="54"/><rect y="54" width="1" height="1" x="13"/><rect x="18" y="54" width="1" height="1"/><rect x="19" y="54" width="1" height="1"/><rect x="48" y="54" width="1" height="1"/><rect y="54" width="1" height="1" x="53"/><rect x="47" y="55" width="1" height="1"/><rect y="64" width="1" height="1" x="11"/><rect x="20" y="64" width="1" height="1"/><rect height="1" x="21" y="64" width="1"/><rect x="45" y="64" width="1" height="1"/><rect height="1" x="46" y="64" width="1"/><rect x="55" y="64" width="1" height="1"/><rect width="1" height="1" x="12" y="65"/><rect width="1" height="1" x="19" y="65"/><rect height="1" x="46" y="65" width="1"/><rect width="1" height="1" x="47" y="65"/><rect width="1" height="1" x="54" y="65"/><rect y="66" width="1" height="1" x="13"/><rect height="1" x="18" y="66" width="1"/><rect x="19" y="66" width="1" height="1"/><rect y="66" width="1" height="1" x="47"/><rect x="48" y="66" width="1" height="1"/><rect x="53" y="66" width="1" height="1"/><rect x="13" y="67" width="1" height="1"/><rect x="19" y="67" width="1" height="1"/><rect width="1" height="1" x="47" y="67"/><rect x="48" y="67" width="1" height="1"/><rect x="53" y="67" width="1" height="1"/><rect width="1" height="1" x="11" y="76"/><rect x="12" y="76" width="1" height="1"/><rect x="19" y="76" width="1" height="1"/><rect y="76" width="1" height="1" x="20"/><rect height="1" x="45" y="76" width="1"/><rect y="76" width="1" height="1" x="46"/><rect y="76" width="1" height="1" x="47"/><rect x="54" y="76" width="1" height="1"/><rect x="14" y="77" width="1" height="1"/><rect y="77" width="1" height="1" x="49"/><rect width="1" height="1" x="52" y="77"/></g><g fill="#ded"><rect y="16" width="1" height="1" x="27"/><rect x="31" y="27" width="1" height="1"/><rect y="53" width="1" height="1" x="10"/><rect height="1" x="49" y="59" width="1"/><rect y="60" width="1" height="1" x="49"/><rect height="1" x="56" y="65" width="1"/><rect width="1" height="1" x="55" y="73"/><rect y="74" width="1" height="1" x="49"/><rect height="1" x="49" y="75" width="1"/><rect x="56" y="77" width="1" height="1"/></g><g fill="#074"><rect height="1" x="34" y="20" width="1"/><rect y="33" width="1" height="1" x="35"/><rect width="1" height="1" x="34" y="34"/><rect x="34" y="35" width="1" height="1"/><rect y="51" width="1" height="1" x="13"/><rect y="61" width="1" height="1" x="50"/><rect y="71" width="1" height="1" x="18"/><rect x="47" y="71" width="1" height="1"/><rect width="1" height="1" x="53" y="71"/><rect x="48" y="73" width="1" height="1"/></g><g fill="#9ca"><rect y="11" width="1" height="1" x="32"/><rect x="36" y="23" width="1" height="1"/><rect width="1" height="1" x="18" y="49"/><rect height="1" x="48" y="49" width="1"/><rect x="52" y="60" width="1" height="1"/><rect x="52" y="63" width="1" height="1"/><rect x="15" y="65" width="1" height="1"/><rect x="56" y="74" width="1" height="1"/></g><g fill="#9ba"><rect x="37" y="12" width="1" height="1"/><rect height="1" x="36" y="17" width="1"/><rect x="36" y="29" width="1" height="1"/><rect width="1" height="1" x="36" y="35"/><rect y="39" width="1" height="1" x="32"/><rect height="1" x="36" y="40" width="1"/><rect y="54" width="1" height="1" x="46"/><rect height="1" x="52" y="59" width="1"/><rect height="1" x="17" y="62" width="1"/><rect x="45" y="65" width="1" height="1"/></g><g fill="#497"><rect x="28" y="13" width="1" height="1"/><rect y="17" width="1" height="1" x="30"/><rect x="30" y="18" width="1" height="1"/><rect height="1" x="30" y="19" width="1"/><rect x="30" y="20" width="1" height="1"/><rect y="23" width="1" height="1" x="33"/><rect height="1" x="26" y="25" width="1"/><rect x="30" y="25" width="1" height="1"/><rect x="36" y="36" width="1" height="1"/><rect height="1" x="14" y="55" width="1"/><rect x="14" y="56" width="1" height="2"/><rect height="1" x="54" y="61" width="1"/><rect width="1" height="1" x="11" y="62"/><rect height="1" x="14" y="63" width="1"/><rect height="1" x="14" y="64" width="1"/><rect x="14" y="69" width="1" height="1"/><rect height="1" x="14" y="70" width="1"/><rect x="14" y="71" width="1" height="1"/><rect width="1" height="2" x="14" y="72"/><rect height="1" x="47" y="73" width="1"/><rect height="1" x="47" y="74" width="1"/></g><g fill="#163"><rect x="30" y="13" width="1" height="1"/><rect x="34" y="30" width="1" height="1"/><rect width="1" height="1" x="14" y="66"/><rect y="66" width="1" height="1" x="52"/><rect height="1" x="54" y="66" width="1"/></g><g fill="#7a8"><rect x="38" y="14" width="1" height="1"/><rect width="1" height="1" x="38" y="38"/><rect width="1" height="1" x="16" y="49"/><rect height="1" x="50" y="49" width="1"/><rect height="1" x="20" y="54" width="1"/></g><g fill="#8a9"><rect height="1" x="22" y="64" width="1"/><rect height="1" x="20" y="66" width="1"/><rect x="52" y="67" width="1" height="1"/><rect height="1" x="21" y="77" width="1"/></g><g fill="#cdd"><rect x="35" y="11" width="1" height="1"/><rect x="12" y="49" width="1" height="1"/><rect x="17" y="51" width="1" height="1"/><rect width="1" height="1" x="49" y="52"/><rect height="1" x="16" y="62" width="1"/><rect x="49" y="67" width="1" height="2"/><rect height="1" x="10" y="77" width="1"/></g><g fill="#063"><rect width="1" height="1" x="34" y="13"/><rect width="1" height="1" x="28" y="14"/><rect x="35" y="14" width="1" height="1"/><rect x="34" y="17" width="1" height="1"/><rect y="18" width="1" height="1" x="29"/><rect x="34" y="18" width="1" height="1"/><rect x="35" y="18" width="1" height="1"/><rect height="1" x="29" y="19" width="1"/><rect x="34" y="19" width="1" height="1"/><rect width="1" height="1" x="35" y="19"/><rect x="29" y="20" width="1" height="1"/><rect x="35" y="20" width="1" height="1"/><rect height="1" x="34" y="24" width="1"/><rect x="28" y="26" width="1" height="1"/><rect width="1" height="1" x="29" y="26"/><rect x="35" y="26" width="1" height="1"/><rect x="29" y="27" width="1" height="1"/><rect x="34" y="27" width="1" height="1"/><rect x="30" y="28" width="1" height="1"/><rect y="28" width="1" height="1" x="31"/><rect height="1" x="32" y="28" width="1"/><rect height="1" x="33" y="28" width="1"/><rect height="1" x="34" y="29" width="1"/><rect x="29" y="31" width="1" height="1"/><rect width="1" height="1" x="34" y="31"/><rect x="35" y="31" width="1" height="1"/><rect x="29" y="32" width="1" height="1"/><rect x="34" y="32" width="1" height="1"/><rect y="32" width="1" height="1" x="35"/><rect x="37" y="37" width="1" height="1"/><rect x="29" y="38" width="1" height="1"/><rect x="34" y="38" width="1" height="1"/><rect width="1" height="1" x="35" y="38"/><rect height="1" x="21" y="51" width="1"/><rect x="48" y="51" width="1" height="1"/><rect x="53" y="51" width="1" height="1"/><rect y="51" width="1" height="1" x="56"/><rect y="55" width="1" height="1" x="13"/><rect height="1" x="18" y="55" width="1"/><rect width="1" height="1" x="48" y="55"/><rect x="53" y="55" width="1" height="1"/><rect x="13" y="56" width="1" height="1"/><rect y="56" width="1" height="1" x="18"/><rect height="1" x="19" y="56" width="1"/><rect width="1" height="1" x="47" y="56"/><rect x="48" y="56" width="1" height="1"/><rect x="53" y="56" width="1" height="1"/><rect x="13" y="57" width="1" height="1"/><rect height="1" x="18" y="57" width="1"/><rect y="57" width="1" height="1" x="19"/><rect x="47" y="57" width="1" height="1"/><rect y="57" width="1" height="1" x="48"/><rect y="57" width="1" height="1" x="53"/><rect width="1" height="1" x="18" y="58"/><rect width="1" height="1" x="19" y="58"/><rect height="1" x="47" y="58" width="1"/><rect height="1" x="15" y="61" width="1"/><rect width="1" height="1" x="17" y="61"/><rect y="61" width="1" height="1" x="49"/><rect x="51" y="61" width="2" height="1"/><rect y="62" width="1" height="1" x="18"/><rect x="48" y="62" width="1" height="1"/><rect height="1" x="53" y="62" width="1"/><rect y="63" width="1" height="1" x="11"/><rect height="1" x="13" y="63" width="1"/><rect x="19" y="63" width="1" height="1"/><rect height="1" x="21" y="63" width="1"/><rect height="1" x="45" y="63" width="1"/><rect y="63" width="1" height="1" x="48"/><rect y="63" width="1" height="1" x="53"/><rect width="1" height="1" x="55" y="63"/><rect x="56" y="63" width="1" height="1"/><rect x="13" y="64" width="1" height="1"/><rect width="1" height="1" x="18" y="64"/><rect x="19" y="64" width="1" height="1"/><rect x="47" y="64" width="1" height="1"/><rect y="64" width="1" height="1" x="48"/><rect width="1" height="1" x="53" y="64"/><rect width="1" height="1" x="18" y="65"/><rect height="1" x="48" y="65" width="1"/><rect height="1" x="53" y="65" width="1"/><rect x="13" y="68" width="1" height="1"/><rect height="1" x="18" y="68" width="1"/><rect width="1" height="1" x="19" y="68"/><rect x="13" y="69" width="1" height="1"/><rect x="18" y="69" width="1" height="1"/><rect height="1" x="19" y="69" width="1"/><rect x="47" y="69" width="1" height="1"/><rect x="48" y="69" width="1" height="1"/><rect height="1" x="53" y="69" width="1"/><rect x="13" y="70" width="1" height="1"/><rect height="1" x="19" y="70" width="1"/><rect y="70" width="2" height="1" x="47"/><rect x="53" y="70" width="1" height="1"/><rect height="1" x="48" y="71" width="1"/><rect x="18" y="72" width="1" height="1"/><rect height="1" x="48" y="72" width="1"/><rect x="18" y="73" width="1" height="1"/><rect x="11" y="75" width="1" height="1"/><rect height="1" x="20" y="75" width="1"/><rect x="21" y="75" width="1" height="1"/><rect x="45" y="75" width="1" height="1"/><rect x="55" y="75" width="1" height="1"/><rect x="56" y="75" width="1" height="1"/><rect height="1" x="13" y="76" width="1"/><rect width="1" height="1" x="18" y="76"/><rect height="1" x="48" y="76" width="1"/><rect x="53" y="76" width="1" height="1"/><rect height="1" x="17" y="77" width="1"/></g><g fill="#486"><rect width="1" height="1" x="30" y="15"/><rect x="30" y="16" width="1" height="1"/><rect height="1" x="29" y="23" width="1"/><rect y="26" width="1" height="1" x="30"/><rect width="1" height="1" x="35" y="35"/><rect height="1" x="30" y="36" width="1"/><rect y="50" width="1" height="1" x="15"/><rect x="18" y="50" width="1" height="1"/><rect height="1" x="52" y="51" width="1"/><rect y="52" width="1" height="1" x="14"/><rect height="1" x="14" y="53" width="1"/><rect x="14" y="54" width="1" height="1"/><rect x="13" y="60" width="1" height="1"/><rect height="1" x="20" y="62" width="1"/><rect y="62" width="1" height="1" x="46"/><rect x="54" y="62" width="1" height="1"/><rect x="55" y="62" width="1" height="1"/><rect height="1" x="16" y="66" width="1"/><rect x="50" y="66" width="1" height="1"/><rect height="1" x="51" y="66" width="1"/><rect x="14" y="67" width="1" height="1"/><rect x="14" y="68" width="1" height="1"/></g><g fill="#798"><rect x="21" y="53" width="1" height="1"/><rect x="19" y="78" width="1" height="1"/></g><g fill="#254"><rect height="1" x="15" y="78" width="1"/><rect y="78" width="1" height="1" x="17"/></g><g fill="#777"><rect height="1" y="84" width="1"/><rect x="65" y="84" width="1" height="1"/><rect y="85" width="1" height="1"/><rect width="1" height="1" x="65" y="85"/><rect y="86" width="1" height="1"/><rect height="1" x="65" y="86" width="1"/><rect y="87" width="1" height="1"/><rect x="65" y="87" width="1" height="1"/></g><g fill="#8b9"><rect x="28" y="12" width="1" height="1"/><rect width="1" height="1" x="35" y="12"/><rect x="36" y="12" width="1" height="1"/><rect x="38" y="13" width="1" height="1"/><rect width="1" height="1" x="28" y="22"/><rect x="28" y="34" width="1" height="1"/><rect x="49" y="49" width="1" height="1"/><rect width="1" height="1" x="52" y="58"/><rect x="20" y="61" width="1" height="1"/><rect x="45" y="62" width="1" height="1"/><rect y="73" width="1" height="1" x="20"/><rect height="1" x="52" y="74" width="1"/><rect height="1" x="49" y="76" width="1"/></g><g fill="#365"><rect x="35" y="40" width="1" height="1"/><rect x="11" y="65" width="1" height="1"/><rect height="1" x="14" y="78" width="1"/></g><rect x="11" y="77" width="1" height="1" fill="#143"/><g fill="#698"><rect width="1" height="1" x="28" y="17"/><rect height="1" x="28" y="29" width="1"/><rect x="47" y="78" width="1" height="1"/></g><g fill="#dee"><rect width="1" height="1" x="32" y="27"/><rect height="1" x="38" y="27" width="1"/><rect x="33" y="38" width="1" height="1"/><rect x="32" y="41" width="1" height="1"/><rect x="46" y="55" width="1" height="1"/><rect x="46" y="56" width="1" height="3"/><rect x="46" y="59" width="1" height="1"/><rect x="55" y="61" width="1" height="1"/><rect x="46" y="67" width="1" height="1"/><rect height="3" x="46" y="68" width="1"/><rect x="46" y="71" width="1" height="1"/><rect x="22" y="74" width="1" height="1"/><rect width="1" height="1" x="20" y="78"/></g><g fill="#164"><rect height="1" x="28" y="28" width="1"/><rect x="55" y="53" width="1" height="1"/><rect y="77" width="1" height="1" x="15"/></g><g fill="#475"><rect width="1" height="1" x="18" y="78"/><rect height="1" x="48" y="78" width="1"/></g><g fill="#496"><rect width="1" height="1" x="30" y="12"/><rect y="13" width="1" height="1" x="36"/><rect x="34" y="22" width="1" height="1"/><rect width="1" height="1" x="35" y="23"/><rect height="1" x="28" y="24" width="1"/><rect y="24" width="1" height="1" x="36"/><rect x="35" y="36" width="1" height="1"/><rect height="1" x="26" y="37" width="1"/><rect x="53" y="60" width="1" height="1"/><rect height="1" x="19" y="61" width="1"/><rect x="47" y="61" width="1" height="1"/><rect y="62" width="1" height="1" x="12"/><rect x="19" y="73" width="1" height="1"/><rect y="74" width="1" height="1" x="11"/><rect x="19" y="74" width="1" height="1"/><rect width="1" height="1" x="20" y="74"/><rect x="46" y="74" width="1" height="1"/><rect x="55" y="74" width="1" height="1"/><rect x="16" y="77" width="1" height="1"/></g><g fill="#8ba"><rect width="1" height="1" x="31" y="24"/><rect x="32" y="24" width="1" height="1"/><rect x="37" y="24" width="1" height="1"/><rect x="14" y="49" width="1" height="1"/><rect y="49" width="1" height="1" x="52"/><rect x="22" y="52" width="1" height="1"/><rect height="1" x="52" y="64" width="1"/><rect x="17" y="65" width="1" height="1"/><rect width="1" height="1" x="52" y="68"/><rect x="52" y="69" width="1" height="1"/><rect x="52" y="70" width="1" height="1"/><rect y="71" width="1" height="2" x="52"/><rect x="52" y="73" width="1" height="1"/><rect height="1" x="52" y="75" width="1"/><rect width="1" height="1" x="22" y="76"/></g><g fill="#cdc"><rect height="1" x="27" y="40" width="1"/><rect x="54" y="49" width="1" height="1"/><rect width="1" height="1" x="51" y="62"/><rect x="46" y="78" width="1" height="1"/></g><g fill="#bbb"><rect height="1" y="1" width="1"/><rect height="1" x="1" y="1" width="1"/><rect x="64" y="1" width="1" height="1"/><rect width="1" height="1" x="65" y="1"/><rect width="1" height="1" x="1" y="85"/><rect height="1" x="64" y="85" width="1"/><rect width="1" height="1" x="2" y="86"/><rect width="1" height="1" x="3" y="86"/><rect x="62" y="86" width="1" height="1"/><rect y="86" width="1" height="1" x="63"/></g><g fill="#bdc"><rect x="29" y="11" width="1" height="1"/><rect width="1" height="1" x="26" y="27"/><rect x="19" y="49" width="1" height="1"/><rect width="1" height="1" x="47" y="49"/><rect width="1" height="1" x="44" y="51"/><rect height="1" x="20" y="60" width="1"/><rect x="44" y="64" width="1" height="1"/><rect y="72" width="1" height="1" x="20"/><rect width="1" height="1" x="10" y="74"/><rect x="17" y="76" width="1" height="1"/><rect x="44" y="76" width="1" height="1"/></g><g fill="#275"><rect width="1" height="1" x="31" y="12"/><rect width="1" height="1" x="32" y="12"/><rect x="37" y="13" width="1" height="1"/><rect y="21" width="1" height="1" x="29"/><rect y="23" width="1" height="1" x="30"/><rect width="1" height="1" x="34" y="23"/><rect x="30" y="24" width="1" height="1"/><rect height="1" x="36" y="25" width="1"/><rect y="34" width="1" height="1" x="29"/><rect x="36" y="37" width="1" height="1"/><rect x="30" y="38" width="1" height="1"/><rect x="11" y="51" width="1" height="1"/><rect width="1" height="1" x="54" y="55"/><rect x="54" y="56" width="1" height="1"/><rect width="1" height="1" x="12" y="66"/><rect height="1" x="54" y="67" width="1"/><rect width="1" height="1" x="54" y="68"/><rect y="75" width="1" height="1" x="47"/></g><g fill="#053"><rect height="1" x="27" y="14" width="1"/><rect x="29" y="14" width="1" height="1"/><rect x="36" y="14" width="1" height="1"/><rect x="27" y="15" width="1" height="1"/><rect height="1" x="29" y="17" width="1"/><rect x="36" y="26" width="1" height="1"/><rect width="1" height="1" x="35" y="27"/><rect height="1" x="34" y="28" width="1"/><rect width="1" height="1" x="29" y="30"/><rect width="1" height="1" x="35" y="30"/><rect x="18" y="51" width="1" height="1"/><rect height="1" x="12" y="52" width="1"/><rect x="47" y="52" width="1" height="1"/><rect x="56" y="52" width="1" height="1"/><rect x="19" y="55" width="1" height="1"/><rect x="12" y="64" width="1" height="1"/><rect y="64" width="1" height="1" x="54"/><rect height="1" x="56" y="64" width="1"/><rect height="1" x="13" y="65" width="1"/><rect height="1" x="18" y="67" width="1"/><rect height="1" x="47" y="68" width="1"/><rect x="48" y="68" width="1" height="1"/><rect height="1" x="53" y="68" width="1"/><rect y="76" width="1" height="1" x="56"/></g><g fill="#274"><rect x="33" y="39" width="1" height="1"/><rect y="51" width="1" height="1" x="14"/><rect x="19" y="59" width="1" height="1"/><rect height="1" x="48" y="61" width="1"/><rect x="53" y="72" width="1" height="1"/><rect height="1" x="12" y="75" width="1"/><rect y="75" width="1" height="1" x="13"/><rect height="1" x="51" y="77" width="1"/></g><g fill="#264"><rect height="1" x="11" y="53" width="1"/><rect x="12" y="54" width="1" height="1"/><rect x="55" y="65" width="1" height="1"/><rect height="1" x="55" y="77" width="1"/><rect width="1" height="1" x="49" y="78"/></g><g fill="#eff"><rect height="1" x="11" y="54" width="1"/><rect width="1" height="1" x="11" y="61"/></g><rect width="1" height="1" fill="#9aa" x="12" y="78"/></svg>