<svg xmlns="http://www.w3.org/2000/svg" width="66" height="90" baseProfile="tiny" version="1.2"><path fill="#eee" d="M3 1h1v1H3zm59 0h1v1h-1zM2 2h1v1H2zm61 0h1v1h-1zM1 3h1v1H1zm63 0h1v1h-1zM1 4h1v1H1zm63 0h1v1h-1zM1 5h1v1H1zm63 0h1v1h-1zM2 6h1v1H2zm61 0h1v1h-1zM2 7h1v1H2zm61 0h1v1h-1zM2 8h1v74H2zm61 0h1v74h-1zm-46 3h1v1h-1zm27 10h1v1h-1zm-3 1h1v1h-1zm-26 2h1v1h-1zm1 4h1v1h-1zm34 0h1v1h-1zm-9 6h1v1h-1zm-14 2h1v1h-1zm-11 4h1v1h-1zm9 10h1v1h-1zm19 10h1v1h-1zm-3 1h1v1h-1zm9 1h1v1h-1zm-9 11h1v1h-1zM2 82h1v1H2zm61 0h1v1h-1zM2 83h1v1H2zm61 0h1v1h-1zM3 84h1v1H3zm1 0h1v1H4zm57 0h1v1h-1zm1 0h1v1h-1zM9 85h48v1H9z"/><path fill="#597" d="M23 12h1v1h-1zm-8 1h1v1h-1zm2 4h1v1h-1zm0 1h1v1h-1zm0 1h1v1h-1zm0 1h1v1h-1zm32 2h1v1h-1zm1 2h1v1h-1zm-3 3h1v1h-1zm-30 2h1v1h-1zm0 1h1v1h-1zm0 1h1v1h-1zm0 1h1v1h-1zm32 2h1v1h-1zm0 1h1v1h-1zm-33 1h1v1h-1zm1 0h1v1h-1zm2 0h1v1h-1zm30 0h1v1h-1zm-30 1h1v1h-1zm26 2h1v1h-1zM23 51h1v1h-1zm-6 5h1v1h-1zm0 1h1v1h-1zm0 1h1v1h-1zm0 1h1v1h-1zm32 2h1v1h-1zm-32 1h1v1h-1zm-1 1h1v1h-1zm1 5h1v1h-1zm0 1h1v1h-1zm0 1h1v1h-1zm0 1h1v1h-1zm32 2h1v1h-1zm0 1h1v1h-1zm-32 1h1v1h-1zm2 0h1v1h-1zm7 0h1v1h-1zm23 0h1v1h-1zm-30 1h1v1h-1z"/><path fill="#475" d="M18 40h1v1h-1zm5 39h1v1h-1zm20 0h1v1h-1z"/><path fill="#dee" d="M49 11h1v1h-1zm-5 4h1v1h-1zm0 1h1v4h-1zm-3 1h1v1h-1zm0 1h1v1h-1zm0 1h1v2h-1zm3 1h1v1h-1zm-3 1h1v1h-1zm3 1h1v1h-1zm0 3h1v1h-1zm-3 4h1v1h-1zm0 1h1v1h-1zm0 1h1v2h-1zm0 2h1v1h-1zm9 2h1v1h-1zM17 50h1v1h-1zm27 4h1v1h-1zm-28 1h1v1h-1zm28 0h1v4h-1zm-3 1h1v1h-1zm0 1h1v1h-1zm0 1h1v2h-1zm3 1h1v1h-1zm-3 1h1v1h-1zm3 1h1v1h-1zm-29 2h1v1h-1zm29 1h1v1h-1zm-3 4h1v1h-1zm0 1h1v1h-1zm0 1h1v2h-1zm0 2h1v1h-1zm-14 3h1v1h-1z"/><path fill="#6a8" d="M43 12h1v1h-1zm-24 9h1v1h-1zm0 1h1v1h-1zm-2 1h1v1h-1zm-1 1h1v1h-1zm6 0h1v1h-1zm-5 11h1v1h-1zm9 1h1v1h-1zm1 1h1v1h-1zM17 60h1v1h-1zm2 0h1v1h-1zm0 1h1v1h-1zm25 5h1v1h-1zm-27 6h1v1h-1zm0 2h1v1h-1zm10 2h1v1h-1z"/><path fill="#586" d="M25 16h1v1h-1zm1 11h1v1h-1zm14 27h1v1h-1zm0 24h1v1h-1zm-22 1h1v1h-1z"/><path fill="#eff" d="M27 27h1v1h-1zm-11 8h1v1h-1zm4 3h1v1h-1z"/><path fill="#acc" d="M25 33h1v1h-1zm0 39h1v1h-1z"/><path fill="#386" d="M47 12h1v1h-1zm-31 1h1v1h-1zm8 0h1v1h-1zm-6 9h1v1h-1zm5 0h2v1h-2zm20 0h1v1h-1zm-25 1h1v1h-1zm2 0h1v1h-1zm2 0h1v1h-1zm26 0h1v1h-1zm-6 1h1v1h-1zm-27 1h1v1h-1zm3 10h1v1h-1zm0 1h1v1h-1zm3 15h1v1h-1zm24 0h1v1h-1zm-20 1h1v1h-1zm17 0h1v1h-1zm7 0h1v1h-1zm0 8h1v1h-1zm-31 1h1v1h-1zm5 0h2v1h-2zm20 0h1v1h-1zm-25 1h1v1h-1zm3 0h1v1h-1zm27 0h1v1h-1zm-6 1h1v1h-1zm7 9h1v1h-1zm-31 2h1v2h-1zm29 3h1v1h-1zm-2 1h1v1h-1z"/><path fill="#497" d="M17 13h1v1h-1zm2 4h1v1h-1zm0 1h1v1h-1zm0 1h1v1h-1zm0 1h1v1h-1zm30 3h1v1h-1zm-30 2h1v1h-1zm0 1h1v1h-1zm0 5h1v1h-1zm0 1h1v1h-1zm0 1h1v1h-1zm0 1h1v2h-1zm23 1h1v1h-1zm-17 1h1v1h-1zm16 0h1v1h-1zm1 0h1v1h-1zM15 52h1v1h-1zm4 4h1v1h-1zm0 1h1v1h-1zm0 1h1v1h-1zm0 1h1v1h-1zm30 3h1v1h-1zm1 1h1v1h-1zm-31 1h1v1h-1zm0 1h1v1h-1zm28 1h1v1h-1zm-28 4h1v1h-1zm0 1h1v1h-1zm0 1h1v1h-1zm0 1h1v2h-1zm23 1h1v1h-1zm-26 1h1v1h-1zm9 0h1v1h-1zm16 0h1v1h-1zm1 0h1v1h-1z"/><path fill="#153" d="M17 16h1v1h-1zm33 11h1v1h-1zM20 40h1v1h-1zm2 0h1v1h-1zm22 0h1v1h-1zM16 54h1v1h-1zm1 1h1v1h-1zm32 12h1v1h-1zM21 79h1v1h-1zm24 0h1v1h-1zm1 0h1v1h-1z"/><path fill="#cdc" d="M50 16h1v1h-1zM15 39h1v1h-1zm9 11h1v1h-1zm27 16h1v1h-1z"/><path fill="#ded" d="M40 12h1v1h-1zm4 25h1v1h-1zm5 13h1v1h-1zm-5 3h1v1h-1zM15 66h1v1h-1zm35 8h1v1h-1zm-6 1h1v1h-1zm0 1h1v1h-1zm7 2h1v1h-1zm-26 1h1v1h-1z"/><path fill="#064" d="M23 33h1v1h-1zm0 38h1v1h-1zm0 1h1v1h-1z"/><path fill="#7a8" d="M27 14h1v1h-1zm20 0h1v1h-1zM27 26h1v1h-1zm21 25h1v1h-1zm-21 2h1v1h-1zm0 11h1v1h-1zm0 1h1v1h-1zm13 1h1v1h-1zm-15 1h1v1h-1zm15 8h1v1h-1z"/><path fill="#254" d="M19 40h1v1h-1zm1 39h1v1h-1zm2 0h1v1h-1z"/><path fill="#496" d="M19 12h1v1h-1zm22 1h1v1h-1zm1 0h1v1h-1zm7 0h1v1h-1zM21 23h1v1h-1zm3 0h1v1h-1zm18 0h1v1h-1zm3 0h1v1h-1zm-28 1h1v1h-1zm8 0h1v1h-1zm16 0h1v1h-1zm8 0h1v1h-1zM24 35h1v2h-1zm26 1h1v1h-1zm-3 2h1v1h-1zM17 52h1v1h-1zm7 10h1v1h-1zm18 0h1v1h-1zm-25 1h1v1h-1zm8 0h1v1h-1zm16 0h1v1h-1zm8 0h1v1h-1zM24 74h1v1h-1zm0 1h1v1h-1zm26 0h1v1h-1zm-29 3h1v1h-1z"/><path fill="#bcb" d="M39 26h1v1h-1zm12 1h1v1h-1zm-6 36h1v1h-1zm-6 2h1v1h-1z"/><path fill="#cdd" d="M24 11h1v1h-1zm27 1h1v1h-1zm-12 1h1v1h-1zm5 1h1v1h-1zM15 27h1v1h-1zm6 0h1v1h-1zm25 0h1v1h-1zm-2 2h1v2h-1zm-29 7h1v1h-1zm7 2h1v1h-1zm29 1h1v1h-1zm-26 1h1v1h-1zm17 10h1v1h-1zm-2 1h1v1h-1zm4 17h1v2h-1zM15 78h1v1h-1z"/><path fill="#7a9" d="M48 12h1v1h-1zm-1 3h1v1h-1zm0 1h1v1h-1zm0 1h1v1h-1zm-30 5h1v1h-1zm10 3h1v1h-1zm-10 9h1v1h-1zm10 4h1v1h-1zm20 15h1v1h-1zm0 1h1v1h-1zm0 1h1v1h-1zm0 1h1v1h-1zm-30 5h1v1h-1zm5 2h1v1h-1zm4 0h1v1h-1zm-9 10h1v1h-1z"/><path fill="#bbb" d="M0 1h1v1H0zm1 0h1v1H1zm63 0h1v1h-1zm1 0h1v1h-1zM1 85h1v1H1zm63 0h1v1h-1zM2 86h1v1H2zm1 0h1v1H3zm59 0h1v1h-1zm1 0h1v1h-1z"/><path fill="#7b9" d="M18 12h1v1h-1zm32 0h1v1h-1zm-3 6h1v2h-1zm0 2h1v1h-1zm-3 7h1v1h-1zm3 7h1v2h-1zm-7 2h1v1h-1zM18 51h1v1h-1zm32 0h1v1h-1zm-23 1h1v1h-1zm20 5h1v2h-1zm0 2h1v1h-1zm0 14h1v2h-1z"/><path fill="#375" d="M26 15h1v1h-1zM15 26h1v1h-1zm0 12h1v1h-1zm32 14h1v1h-1zM15 65h1v1h-1zm0 12h1v1h-1z"/><path fill="#697" d="M41 16h1v1h-1zM26 39h1v1h-1zm0 27h1v1h-1z"/><path fill="#8a9" d="M41 28h1v1h-1zm6 1h1v1h-1zM17 40h1v1h-1zm30 28h1v1h-1zm-20 9h1v1h-1z"/><path fill="#143" d="M16 78h1v1h-1z"/><path fill="#999" d="M0 3h1v1H0zm65 0h1v1h-1zM0 4h1v1H0zm65 0h1v1h-1zM3 88h1v1H3zm59 0h1v1h-1z"/><path fill="#385" d="M50 13h1v1h-1zm-1 8h1v1h-1zm-7 1h1v1h-1zm-18 2h1v1h-1zm25 9h1v1h-1zm-25 1h1v1h-1zm22 5h1v1h-1zm1 12h1v1h-1zm-31 1h1v1h-1zm26 9h1v1h-1zm3 1h1v1h-1zm-26 1h1v1h-1zm5 0h1v1h-1zm-9 1h1v1h-1zm9 9h1v1h-1zm18 0h1v1h-1z"/><path fill="#274" d="M23 23h1v1h-1zm24 1h1v1h-1zM18 52h1v1h-1zm26 10h1v1h-1zm-27 2h1v1h-1zm5 3h1v1h-1zm22 0h1v1h-1zm4 6h1v1h-1zm-30 3h1v1h-1z"/><path fill="#698" d="M40 27h1v1h-1zm-15 1h1v1h-1zm16 27h1v1h-1zm1 24h1v1h-1z"/><path fill="#053" d="M16 14h1v1h-1zm2 0h1v1h-1zm6 0h1v1h-1zm1 0h1v1h-1zm24 0h1v1h-1zm-33 1h1v1h-1zm33 1h1v1h-1zm-31 1h1v1h-1zm5 0h1v1h-1zm20 0h1v1h-1zM23 28h1v1h-1zm26 0h1v1h-1zm-26 1h1v1h-1zm-5 1h1v1h-1zm6 0h1v1h-1zm18 0h1v1h-1zm6 0h1v1h-1zm3 8h1v1h-1zm-30 2h1v1h-1zm24 0h1v1h-1zm1 0h1v1h-1zM18 53h1v1h-1zm6 0h1v1h-1zm17 0h1v1h-1zm8 0h1v1h-1zm1 1h1v1h-1zm-1 1h1v1h-1zm-31 1h1v1h-1zm5 0h1v1h-1zm-6 9h1v1h-1zm32 0h1v1h-1zm-26 3h1v1h-1zm-5 1h1v1h-1zm6 0h1v1h-1zm18 0h1v1h-1zm6 0h1v1h-1zm-30 8h1v1h-1zm33 0h1v1h-1z"/><path fill="#074" d="M23 34h1v1h-1zm20 1h1v1h-1zm5 24h1v1h-1zm2 5h1v1h-1zm-8 8h1v1h-1zm-19 1h1v1h-1zm20 1h1v1h-1z"/><path fill="#abb" d="M49 79h1v1h-1z"/><path fill="#666" d="M0 88h1v1H0zm1 0h1v1H1zm63 0h1v1h-1zm1 0h1v1h-1zM1 89h1v1H1zm1 0h1v1H2zm1 0h1v1H3zm1 0h58v1H4zm58 0h1v1h-1zm1 0h1v1h-1zm1 0h1v1h-1z"/><g fill="#fff"><path d="M4 1h1v1H4zm1 0h1v1H5zm1 0h54v1H6zm54 0h1v1h-1zm1 0h1v1h-1zM3 2h1v1H3zm1 0h1v1H4zm1 0h56v1H5zm56 0h1v1h-1zm1 0h1v1h-1zM2 3h1v1H2zm1 0h1v1H3zm1 0h2v1H4zm2 0h54v1H6zm54 0h2v1h-2zm2 0h1v1h-1zm1 0h1v1h-1zM2 4h1v2H2zm1 0h1v3H3zm1 0h1v1H4zm1 0h56v7H5zm56 0h1v1h-1zm1 0h1v3h-1zm1 0h1v2h-1z"/><path d="M4 5h58v2H4zM3 7h1v1H3zm1 0h1v1H4zm57 0h1v1h-1zm1 0h1v1h-1zM3 8h1v73H3zm1 0h1v73H4zm57 0h1v74h-1zm1 0h1v73h-1zM5 11h12v1H5zm21 0h15v1H26zm15 0h1v1h-1zm9 0h1v1h-1zm1 0h10v1H51zM5 12h10v70H5zm10 0h1v1h-1zm12 0h1v1h-1zm1 0h12v1H28zm24 0h9v70h-9zm-32 1h1v1h-1zm1 0h1v10h-1zm7 0h11v71H28zm17 0h1v10h-1zm1 0h1v1h-1z"/><path d="M20 14h2v9h-2zm2 0h1v1h-1zm24 0h1v9h-1zm-24 1h1v8h-1zm-7 1h1v8h-1zm11 0h1v1h-1zm1 0h13v8H27zm13 0h1v1h-1zm11 0h10v8H51zm-35 1h1v6h-1z"/><path d="M26 17h15v7H26zm24 0h11v6H50zm-34 6h1v1h-1zm11 1h1v1h-1zm12 0h1v1h-1zm-19 1h3v2h-3zm25 0h2v2h-2zm-6 2h1v1h-1zm-24 1h1v8h-1zm11 0h15v7H26zm25 0h10v8H51zm-35 1h1v6h-1zm4 0h2v9h-2zm2 0h1v1h-1zm23 0h2v9h-2z"/><path d="M50 29h11v6H50zm-28 1h1v7h-1zm4 5h1v1h-1zm1 0h14v1H27zm12 1h1v1h-1zm-17 1h1v1h-1zm-1 1h1v1h-1zm24 0h1v1h-1zm1 0h1v1h-1zm-19 1h1v1h-1zm12 0h1v1h-1zm-24 1h1v11h-1zm11 0h14v10H26zm14 0h1v1h-1zm10 0h1v1h-1zm1 0h10v11H51z"/><path d="M16 41h45v9H16zm0 9h1v1h-1zm10 0h1v1h-1zm1 0h14v1H27zm14 0h1v1h-1zm9 0h1v1h-1zm-35 1h1v1h-1zm12 0h1v1h-1zm12 0h1v1h-1zm-19 1h1v1h-1zm1 0h1v10h-1zm24 0h1v10h-1zm1 0h1v1h-1z"/><path d="M20 53h2v9h-2zm2 0h1v1h-1zm24 0h1v9h-1zm-24 1h1v8h-1zm5 0h1v1h-1zm12 0h1v1h-1zm-24 1h1v8h-1zm11 0h1v1h-1zm1 0h13v8H27zm13 0h1v1h-1zm11 0h10v8H51zm-35 1h1v6h-1z"/><path d="M26 56h15v6H26zm24 0h11v6H50zm-34 6h1v1h-1zm10 0h1v1h-1zm14 0h1v1h-1zm-13 1h1v1h-1zm12 0h1v1h-1zm-19 1h3v2h-3zm25 0h2v2h-2zm-18 2h1v1h-1zm12 0h1v1h-1zm-24 1h1v8h-1zm1 0h1v1h-1zm10 0h15v7H26zm25 0h10v8H51zm-35 1h1v6h-1zm4 0h2v9h-2zm2 0h1v1h-1zm23 0h2v9h-2z"/><path d="M50 68h11v6H50zm-28 1h1v7h-1zm4 5h1v1h-1zm1 0h13v1H27zm13 0h1v1h-1zm-1 1h1v1h-1zm-17 1h1v1h-1zm-1 1h1v1h-1zm24 0h1v1h-1zm1 0h1v1h-1zm-19 1h1v1h-1zm12 0h1v1h-1zm-24 1h1v5h-1zm11 0h15v5H26zm24 0h1v1h-1zm1 0h10v3H51z"/><path d="M16 80h45v2H16zM3 81h1v1H3zm1 0h1v2H4zm58 0h1v1h-1zM3 82h1v1H3zm2 0h1v1H5zm1 0h54v1H6zm54 0h1v1h-1zm1 0h1v1h-1zm1 0h1v1h-1zM3 83h1v1H3zm1 0h1v1H4zm1 0h1v1H5zm1 0h1v1H6zm1 0h52v1H7zm52 0h1v1h-1zm1 0h1v1h-1zm1 0h1v1h-1zm1 0h1v1h-1zM5 84h1v1H5zm1 0h1v1H6zm1 0h1v1H7zm1 0h50v1H8zm50 0h1v1h-1zm1 0h1v1h-1zm1 0h1v1h-1z"/></g><path fill="#888" d="M0 5h1v1H0zm65 0h1v1h-1zM0 6h1v1H0zm65 0h1v1h-1zM0 7h1v1H0zm65 0h1v1h-1zM0 8h1v73H0zm65 0h1v73h-1zM0 81h1v2H0zm65 0h1v2h-1zM0 83h1v1H0zm65 0h1v1h-1zM1 87h1v1H1zm63 0h1v1h-1zM2 88h1v1H2zm61 0h1v1h-1z"/><path fill="#275" d="M20 12h1v1h-1zm1 0h1v1h-1zm-3 1h1v1h-1zm8 0h1v1h-1zm21 0h1v1h-1zm-32 1h1v1h-1zm34 3h1v1h-1zm0 1h1v1h-1zm-31 3h1v1h-1zm5 0h1v1h-1zm20 0h1v1h-1zm0 2h1v1h-1zm-25 1h1v1h-1zm1 0h1v1h-1zm-2 1h1v1h-1zm32 4h1v1h-1zm0 1h1v1h-1zm0 1h1v1h-1zm-31 6h1v1h-1zm6 0h1v1h-1zm25 0h1v1h-1zM20 51h1v1h-1zm24 0h1v1h-1zm-4 1h1v1h-1zm-25 1h1v1h-1zm34 3h1v1h-1zm0 1h1v1h-1zm-26 3h1v1h-1zm20 2h1v1h-1zm-25 1h1v1h-1zm29 0h1v1h-1zm-27 4h1v1h-1zm1 0h1v1h-1zm24 0h1v1h-1zm1 0h1v1h-1zm3 1h1v1h-1zm0 1h1v1h-1zm-32 7h1v1h-1zm25 0h1v1h-1zm4 2h1v1h-1z"/><path fill="#164" d="M19 13h1v1h-1zm4 13h1v1h-1zm-7 1h1v1h-1zm6 1h1v1h-1zm22 0h1v1h-1zM19 52h1v1h-1zm31 14h1v1h-1zM20 78h1v1h-1z"/><path fill="#264" d="M17 28h1v1h-1zm-1 38h1v1h-1zm1 1h1v1h-1zm33 11h1v1h-1zm-6 1h1v1h-1z"/><path fill="#052" d="M23 14h1v1h-1zm3 0h1v1h-1zm14 0h1v1h-1zm3 0h1v1h-1zm5 0h1v1h-1zm2 0h1v1h-1zm1 0h1v1h-1zm-34 1h1v1h-1zm1 0h1v1h-1zm5 0h1v1h-1zm1 0h1v1h-1zm18 0h1v1h-1zm1 0h1v1h-1zm5 0h1v1h-1zm1 0h1v1h-1zm1 0h1v1h-1zm-32 1h1v1h-1zm5 0h1v1h-1zm1 0h1v1h-1zm18 0h1v1h-1zm1 0h1v1h-1zm5 0h1v1h-1zm-24 1h1v1h-1zm18 0h1v1h-1zm-26 9h1v1h-1zm9 0h1v1h-1zm1 0h1v1h-1zm14 0h1v1h-1zm1 0h1v1h-1zm9 0h1v1h-1zm1 0h1v1h-1zm-34 1h1v1h-1zm7 0h1v1h-1zm18 0h1v1h-1zm7 0h1v1h-1zm-31 1h1v1h-1zm6 0h1v1h-1zm18 0h1v1h-1zm1 0h1v1h-1zm5 0h1v1h-1zm-30 1h1v1h-1zm6 0h1v1h-1zm18 0h1v1h-1zm1 0h1v1h-1zm5 0h1v1h-1zm-5 1h1v1h-1zm-27 8h1v1h-1zm1 0h1v1h-1zm7 0h1v1h-1zm1 0h1v1h-1zm1 0h1v1h-1zm14 0h1v1h-1zm1 0h1v1h-1zm1 0h1v1h-1zm7 0h1v1h-1zm1 0h1v1h-1zm-31 1h1v1h-1zm4 0h1v1h-1zm24 0h1v1h-1zM16 53h1v1h-1zm7 0h1v1h-1zm2 0h1v1h-1zm1 0h1v1h-1zm14 0h1v1h-1zm3 0h1v2h-1zm5 0h1v1h-1zm2 0h1v1h-1zm1 0h1v1h-1zm-34 1h1v1h-1zm1 0h1v1h-1zm5 0h1v1h-1zm1 0h1v1h-1zm18 0h1v2h-1zm6 0h1v1h-1zm1 0h1v1h-1zm-31 1h1v1h-1zm5 0h1v1h-1zm1 0h1v1h-1zm19 0h1v1h-1zm5 0h1v1h-1zm-24 1h1v1h-1zm18 0h1v1h-1zm-26 9h1v1h-1zm9 0h1v1h-1zm1 0h1v1h-1zm14 0h1v1h-1zm1 0h1v1h-1zm9 0h1v1h-1zm1 0h1v1h-1zm-34 1h1v1h-1zm7 0h1v1h-1zm18 0h1v1h-1zm7 0h1v1h-1zm-31 1h1v2h-1zm5 0h1v1h-1zm1 0h1v1h-1zm18 0h1v1h-1zm1 0h1v1h-1zm5 0h1v1h-1zm-24 1h1v1h-1zm18 0h1v1h-1zm1 0h1v1h-1zm5 0h1v1h-1zm-5 1h1v1h-1zm-27 8h1v1h-1zm1 0h1v1h-1zm7 0h1v1h-1zm1 0h1v1h-1zm1 0h1v1h-1zm14 0h1v1h-1zm1 0h1v1h-1zm1 0h1v1h-1zm7 0h1v1h-1zm-30 1h1v1h-1zm4 0h1v1h-1zm21 0h1v1h-1zm3 0h1v1h-1z"/><path fill="#bcc" d="M39 38h1v1h-1zM22 52h1v1h-1zm-7 2h1v1h-1zm36 0h1v1h-1zM39 77h1v1h-1zm2 2h1v1h-1z"/><path fill="#587" d="M42 40h1v1h-1zM25 55h1v1h-1zm23 24h1v1h-1z"/><path fill="#ccc" d="M1 0h1v1H1zm1 0h1v1H2zm61 0h1v1h-1zm1 0h1v1h-1zM1 2h1v1H1zm63 0h1v1h-1zM1 84h1v1H1zm63 0h1v1h-1zM2 85h1v1H2zm61 0h1v1h-1zM4 86h1v1H4zm1 0h1v1H5zm1 0h1v1H6zm1 0h52v1H7zm52 0h1v1h-1zm1 0h1v1h-1zm1 0h1v1h-1z"/><path fill="#ddd" d="M3 0h1v1H3zm1 0h1v1H4zm1 0h56v1H5zm56 0h1v1h-1zm1 0h1v1h-1zM2 1h1v1H2zm61 0h1v1h-1zM1 6h1v1H1zm63 0h1v1h-1zM1 7h1v1H1zm63 0h1v1h-1zM1 8h1v1H1zm63 0h1v1h-1zM1 9h1v73H1zm63 0h1v73h-1zm-48 7h1v1h-1zm34 39h1v1h-1zM1 82h1v1H1zm63 0h1v1h-1zM1 83h1v1H1zm63 0h1v1h-1zM2 84h1v1H2zm61 0h1v1h-1zM3 85h1v1H3zm1 0h1v1H4zm1 0h1v1H5zm1 0h1v1H6zm1 0h2v1H7zm50 0h2v1h-2zm2 0h1v1h-1zm1 0h1v1h-1zm1 0h1v1h-1zm1 0h1v1h-1z"/><path fill="#aaa" d="M0 2h1v1H0zm65 0h1v1h-1zM1 86h1v1H1zm63 0h1v1h-1zM2 87h1v1H2zm1 0h1v1H3zm1 0h1v1H4zm1 0h56v1H5zm56 0h1v1h-1zm1 0h1v1h-1zm1 0h1v1h-1zM4 88h1v1H4zm1 0h56v1H5zm56 0h1v1h-1z"/><path fill="#efe" d="M25 11h1v1h-1zm2 4h1v1h-1zm12 0h1v1h-1zm11 8h1v1h-1zm0 44h1v1h-1zm-34 7h1v1h-1zm4 3h1v1h-1zm-4 2h1v1h-1z"/><path fill="#8ba" d="M41 12h2v1h-2zm8 0h1v1h-1zm-5 1h1v1h-1zm3 8h1v1h-1zm-3 3h1v1h-1zm3 2h1v1h-1zm0 4h1v1h-1zm0 1h1v1h-1zm0 1h1v1h-1zm-22 3h1v1h-1zm22 2h1v1h-1zM21 50h1v1h-1zm24 0h1v1h-1zm1 0h1v1h-1zm3 1h1v1h-1zM25 62h1v1h-1zm22 3h1v1h-1zm0 4h1v1h-1zm0 1h1v1h-1zm0 1h1v1h-1zm0 5h1v1h-1zm-3 1h1v1h-1z"/><path fill="#253" d="M50 39h1v1h-1zm-3 1h1v1h-1z"/><path fill="#364" d="M43 40h1v1h-1zm4 39h1v1h-1z"/><path fill="#365" d="M23 40h1v1h-1zm-4 39h1v1h-1z"/><path fill="#9ca" d="M20 11h1v1h-1zm1 0h1v1h-1zm24 0h1v1h-1zm1 0h1v1h-1zm1 11h1v1h-1zm-3 16h1v1h-1zM22 50h1v1h-1zm22 0h1v1h-1zm-28 1h1v1h-1zm31 10h1v1h-1zm-7 2h1v1h-1zm4 0h1v1h-1z"/><path fill="#ced" d="M42 11h1v1h-1zm9 13h1v1h-1zm-7 2h1v1h-1zm0 5h1v2h-1zm0 2h1v2h-1zm0 2h1v1h-1zm0 1h1v1h-1zm0 29h1v1h-1zm0 5h1v2h-1zm0 2h1v2h-1zm0 2h1v1h-1z"/><path fill="#adc" d="M43 11h1v1h-1zm-4 26h1v1h-1z"/><path fill="#174" d="M22 12h1v1h-1zm24 0h1v1h-1zm2 1h1v1h-1zm3 0h1v1h-1zm-27 8h1v1h-1zm18 0h1v1h-1zm-23 2h1v1h-1zm29 1h1v1h-1zm-32 1h1v1h-1zm7 0h1v1h-1zm1 0h1v1h-1zm1 0h1v1h-1zm16 0h1v1h-1zm1 0h1v1h-1zm7 0h1v1h-1zm1 0h1v1h-1zm-31 2h1v1h-1zm1 1h1v1h-1zm1 0h1v1h-1zm24 0h1v1h-1zm1 0h1v1h-1zm-28 5h1v1h-1zm6 0h1v1h-1zm24 0h1v1h-1zm0 1h1v1h-1zm-25 1h1v1h-1zm0 1h1v1h-1zm20 0h1v1h-1zm-20 1h1v1h-1zm2 0h1v1h-1zm16 0h1v1h-1zm2 0h1v1h-1zm5 0h1v1h-1zm-29 1h1v1h-1zm1 1h1v1h-1zm2 12h1v1h-1zm24 0h1v1h-1zm-20 1h1v1h-1zm25 0h1v1h-1zm-27 8h1v1h-1zm18 0h1v1h-1zm-23 2h1v1h-1zm4 0h1v1h-1zm24 0h1v1h-1zm1 1h1v1h-1zm-25 1h1v1h-1zm2 0h1v1h-1zm16 0h1v1h-1zm1 0h1v1h-1zm7 0h1v1h-1zm-30 2h1v1h-1zm-1 6h1v1h-1zm6 0h1v1h-1zm24 0h1v1h-1zm-25 2h1v1h-1zm0 1h1v1h-1zm20 0h1v1h-1zm-20 1h1v1h-1zm1 0h1v1h-1zm1 0h1v1h-1zm16 0h1v1h-1zm2 0h1v1h-1zm5 0h1v1h-1zm1 0h1v1h-1zm-30 1h1v1h-1z"/><path fill="#063" d="M23 13h1v1h-1zm20 0h1v1h-1zm-26 1h1v1h-1zm24 0h1v1h-1zm1 0h1v1h-1zm6 3h1v1h-1zm-30 1h1v1h-1zm5 0h1v1h-1zm1 0h1v1h-1zm18 0h1v1h-1zm1 0h1v1h-1zm5 0h1v1h-1zm-30 1h1v1h-1zm5 0h1v1h-1zm1 0h1v1h-1zm18 0h1v1h-1zm1 0h1v1h-1zm5 0h1v1h-1zm-25 1h1v1h-1zm1 0h1v1h-1zm18 0h1v1h-1zm1 0h1v1h-1zm-20 4h1v1h-1zm20 0h1v1h-1zm-25 1h1v1h-1zm8 0h1v1h-1zm14 0h1v1h-1zm3 0h1v1h-1zm5 0h1v1h-1zm3 0h1v1h-1zm-34 1h1v1h-1zm1 0h1v1h-1zm6 0h1v1h-1zm18 0h1v1h-1zm1 0h1v1h-1zm5 0h1v1h-1zm1 0h1v1h-1zm-31 1h1v1h-1zm5 0h1v1h-1zm20 0h1v1h-1zm5 0h1v1h-1zm-29 1h1v1h-1zm28 0h1v1h-1zm-24 2h1v1h-1zm-5 1h1v1h-1zm5 0h1v1h-1zm1 0h1v1h-1zm18 0h1v1h-1zm1 0h1v1h-1zm5 0h1v1h-1zm-30 1h1v1h-1zm5 0h1v1h-1zm1 0h1v1h-1zm18 0h2v1h-2zm6 0h1v1h-1zm-5 1h1v1h-1zm0 1h1v1h-1zm-27 3h1v1h-1zm10 0h1v1h-1zm14 0h1v1h-1zm10 0h1v1h-1zm1 0h1v1h-1zm-33 1h1v1h-1zm5 0h1v1h-1zm20 0h1v1h-1zm5 0h1v1h-1zm-26 1h1v1h-1zm22 0h1v1h-1zM23 52h1v1h-1zm20 0h1v1h-1zm5 0h1v1h-1zm-31 1h1v1h-1zm25 0h1v1h-1zm1 3h1v1h-1zm5 0h1v1h-1zm-30 1h1v1h-1zm5 0h1v1h-1zm1 0h1v1h-1zm18 0h1v1h-1zm1 0h1v1h-1zm5 0h1v1h-1zm-30 1h1v1h-1zm5 0h1v1h-1zm1 0h1v1h-1zm18 0h1v1h-1zm1 0h1v1h-1zm5 0h1v1h-1zm-25 1h1v1h-1zm1 0h1v1h-1zm18 0h1v1h-1zm1 0h1v1h-1zm-20 4h1v1h-1zm20 0h1v1h-1zm-25 1h1v1h-1zm8 0h1v1h-1zm14 0h1v1h-1zm3 0h1v1h-1zm5 0h1v1h-1zm3 0h1v1h-1zm-33 1h1v1h-1zm5 0h1v1h-1zm1 0h1v1h-1zm18 0h1v1h-1zm1 0h1v1h-1zm5 0h1v1h-1zm-30 1h1v1h-1zm5 0h1v1h-1zm20 0h1v1h-1zm5 0h1v1h-1zm-29 1h1v1h-1zm28 0h1v1h-1zm-24 2h1v1h-1zm-5 1h1v1h-1zm5 0h1v1h-1zm1 0h1v1h-1zm18 0h1v1h-1zm1 0h1v1h-1zm5 0h1v1h-1zm-30 1h1v1h-1zm6 0h1v1h-1zm18 0h2v1h-2zm6 0h1v1h-1zm-5 1h1v1h-1zm0 1h1v1h-1zm-27 3h1v1h-1zm10 0h1v1h-1zm14 0h1v1h-1zm10 0h1v1h-1zm1 0h1v1h-1zm-28 1h1v1h-1zm20 0h1v1h-1zm5 0h1v1h-1zm-26 1h1v1h-1z"/><path fill="#476" d="M40 15h1v1h-1zm0 24h1v1h-1zm8 1h1v1h-1z"/><path fill="#5a8" d="M17 21h1v1h-1zm0 12h1v1h-1zm4 6h1v1h-1zm22 12h1v1h-1z"/><path fill="#9aa" d="M17 79h1v1h-1z"/><path fill="#bdc" d="M18 11h1v1h-1zm30 0h1v1h-1zM25 22h1v1h-1zm16 1h1v1h-1zm-2 2h1v1h-1zm-19 2h1v1h-1zm2 0h1v1h-1zm23 0h1v1h-1zm-20 7h1v1h-1zm-7 16h1v1h-1zm30 0h1v1h-1zm3 1h1v1h-1zm-12 1h1v1h-1zm-14 9h1v1h-1zm-5 2h1v1h-1zm31 0h1v1h-1zm-12 1h1v1h-1zm-18 2h1v1h-1zm24 0h1v1h-1zm1 0h1v1h-1zm-21 7h1v1h-1zm-10 2h1v1h-1zm7 2h1v1h-1z"/><path fill="#acb" d="M19 11h1v1h-1zm4 0h1v1h-1zm21 0h1v1h-1zm3 0h1v1h-1zm-31 1h1v1h-1zm6 1h1v1h-1zm17 1h1v1h-1zm-24 1h1v1h-1zm36 0h1v1h-1zm-26 2h1v1h-1zm0 1h1v1h-1zm0 1h1v1h-1zm0 1h1v1h-1zm0 1h1v1h-1zm-5 3h1v1h-1zm20 0h1v1h-1zm5 0h1v1h-1zm-20 5h1v1h-1zm0 1h1v1h-1zm0 1h1v1h-1zm0 1h1v1h-1zm16 3h1v1h-1zm10 1h1v1h-1zm-10 4h1v1h-1zM23 50h1v1h-1zm20 0h1v1h-1zm-4 3h1v1h-1zm-14 3h1v1h-1zm0 1h1v1h-1zm0 1h1v1h-1zm0 1h1v1h-1zm0 1h1v1h-1zm16 2h1v1h-1zm-20 1h1v1h-1zm25 0h1v1h-1zm-26 3h1v1h-1zm2 0h1v1h-1zm3 2h1v1h-1zm0 1h1v1h-1zm0 1h1v1h-1zm0 1h1v1h-1zm14 5h1v1h-1z"/><path fill="#9cb" d="M22 11h1v1h-1zm-1 13h1v1h-1zm-2 26h1v1h-1zm28 0h1v1h-1zm-6 24h1v1h-1zm10 1h1v1h-1z"/><path fill="#8b9" d="M17 12h1v1h-1zm7 0h1v1h-1zm1 0h1v1h-1zm2 1h1v1h-1zm-1 11h1v1h-1zm21 9h1v1h-1zm0 3h1v1h-1zM17 51h1v1h-1zm7 0h1v1h-1zm1 0h1v1h-1zm1 0h1v1h-1zm15 0h1v1h-1zm1 0h1v1h-1zm5 21h1v1h-1zm-22 2h1v1h-1zm22 1h1v1h-1z"/><path fill="#285" d="M44 12h1v1h-1zm1 0h1v1h-1zm-5 1h1v1h-1zm9 6h1v1h-1zm0 1h1v1h-1zm-1 1h1v1h-1zm-4 2h1v1h-1zm3 0h1v1h-1zm2 9h1v1h-1zm-31 2h1v1h-1zm24 0h1v1h-1zm6 1h1v1h-1zm0 1h1v1h-1zm-33 1h1v1h-1zm2 0h1v1h-1zm25 0h1v1h-1zM24 52h1v1h-1zm26 0h1v1h-1zm-1 6h1v1h-1zm0 1h1v1h-1zm-31 1h1v1h-1zm25 0h1v1h-1zm5 0h1v1h-1zm-28 2h1v1h-1zm2 0h1v1h-1zm24 0h1v1h-1zm3 8h1v1h-1zm0 1h1v1h-1zm-31 2h1v1h-1zm30 1h1v2h-1zm-33 2h1v1h-1z"/><path fill="#073" d="M18 20h1v1h-1zm30 0h1v1h-1zm-6 13h1v1h-1zM18 59h1v1h-1zm-2 5h1v1h-1zm8 0h1v1h-1z"/><path fill="#687" d="M24 40h1v1h-1z"/><path fill="#777" d="M0 84h1v1H0zm65 0h1v1h-1zM0 85h1v1H0zm65 0h1v1h-1zM0 86h1v1H0zm65 0h1v1h-1zM0 87h1v1H0zm65 0h1v1h-1z"/><path fill="#9ba" d="M26 12h1v1h-1zm-1 11h1v1h-1zm21 1h1v1h-1zm1 1h1v1h-1zm2 15h1v1h-1zM20 50h1v1h-1zm24 2h1v1h-1zm3 8h1v1h-1zm0 4h1v1h-1zm-6 3h1v1h-1z"/><path fill="#486" d="M25 13h1v1h-1zm-6 1h1v1h-1zm0 1h1v1h-1zm0 1h1v1h-1zm29 6h1v1h-1zm-2 1h1v1h-1zm-27 6h1v1h-1zm0 1h1v1h-1zm0 21h1v1h-1zm22 1h1v1h-1zm-22 1h1v1h-1zm0 1h1v1h-1zm7 0h1v1h-1zm-7 1h1v1h-1zm29 6h1v1h-1zm-29 7h1v1h-1zm0 1h1v1h-1z"/><path fill="#042" d="M25 15h1v1h-1zm16 0h1v1h-1zM25 27h1v1h-1zm16 0h1v1h-1zM16 39h1v1h-1zm1 0h1v1h-1zm1 0h1v1h-1zm6 0h1v1h-1zm1 0h1v1h-1zm16 0h1v1h-1zm1 0h1v1h-1zm1 0h1v1h-1zm5 0h1v1h-1zm1 0h1v1h-1zM25 54h1v1h-1zm16 0h1v1h-1zM25 66h1v1h-1zm16 0h1v1h-1zm9 11h1v1h-1zm-33 1h1v1h-1zm1 0h1v1h-1zm6 0h1v1h-1zm1 0h1v1h-1zm16 0h1v1h-1zm1 0h1v1h-1zm1 0h1v1h-1zm5 0h1v1h-1zm1 0h1v1h-1z"/><path fill="#798" d="M26 78h1v1h-1zm-2 1h1v1h-1z"/></svg>