<svg xmlns="http://www.w3.org/2000/svg" width="66" height="90" baseProfile="tiny" version="1.2"><path fill="#aaa" d="M0 2h1v1H0zm65 0h1v1h-1zM1 86h1v1H1zm63 0h1v1h-1zM2 87h1v1H2zm1 0h1v1H3zm1 0h1v1H4zm1 0h56v1H5zm56 0h1v1h-1zm1 0h1v1h-1zm1 0h1v1h-1zM4 88h1v1H4zm1 0h56v1H5zm56 0h1v1h-1z"/><path fill="#486" d="M20 13h1v1h-1zm-6 1h1v1h-1zm0 1h1v1h-1zm0 1h1v1h-1zm38 6h1v1h-1zm-2 1h1v1h-1zm-36 6h1v1h-1zm0 1h1v1h-1zm0 21h1v1h-1zm31 1h1v1h-1zm-31 1h1v1h-1zm0 1h1v1h-1zm0 1h1v1h-1zm38 6h1v1h-1zm-32 2h1v1h-1zm-6 5h1v1h-1zm0 1h1v1h-1z"/><path fill="#074" d="M18 33h1v1h-1zm29 2h1v1h-1zm5 24h1v1h-1zm0 4h1v1h-1zm2 1h1v1h-1zm-36 8h1v1h-1zm28 0h1v1h-1zm6 0h1v1h-1zm-5 2h1v1h-1z"/><path fill="#abb" d="M53 79h1v1h-1z"/><path fill="#9ba" d="M21 12h1v1h-1zm29 12h1v1h-1zm1 1h1v1h-1zm-3 13h1v1h-1zm5 2h1v1h-1zM15 50h1v1h-1zm33 2h1v1h-1zm3 8h1v1h-1zm-3 3h1v1h-1zm3 1h1v1h-1zm-6 3h1v1h-1z"/><path fill="#385" d="M54 13h1v1h-1zm-1 8h1v1h-1zm-34 3h1v1h-1zm34 9h1v1h-1zm-34 1h1v1h-1zm31 5h1v1h-1zM16 51h1v1h-1zm35 0h1v1h-1zm-40 1h1v1h-1zm35 9h1v1h-1zm3 1h1v1h-1zm-35 1h1v1h-1zm5 0h1v1h-1zm-9 1h1v1h-1zm43 8h1v1h-1zm-34 1h1v1h-1z"/><path fill="#697" d="M45 16h1v1h-1zM21 66h1v1h-1z"/><path fill="#777" d="M0 84h1v1H0zm65 0h1v1h-1zM0 85h1v1H0zm65 0h1v1h-1zM0 86h1v1H0zm65 0h1v1h-1zM0 87h1v1H0zm65 0h1v1h-1z"/><path fill="#7a9" d="M52 12h1v1h-1zm-1 2h1v1h-1zm0 1h1v1h-1zm0 1h1v1h-1zm0 1h1v1h-1zm-39 5h1v1h-1zm0 12h1v1h-1zm42 17h1v1h-1zm-3 2h1v1h-1zm0 1h1v1h-1zm0 1h1v1h-1zm0 1h1v1h-1zm-39 5h1v1h-1zm5 2h1v1h-1zm4 0h1v1h-1zm23 3h1v1h-1zm-24 1h1v1h-1zm-8 6h1v1h-1zm32 2h1v1h-1zm-23 3h1v1h-1z"/><path fill="#042" d="M20 15h1v1h-1zm25 0h1v1h-1zM20 27h1v1h-1zm25 0h1v1h-1zM11 39h1v1h-1zm1 0h1v1h-1zm1 0h1v1h-1zm6 0h1v1h-1zm1 0h1v1h-1zm25 0h1v1h-1zm1 0h1v1h-1zm1 0h1v1h-1zm5 0h1v1h-1zm1 0h1v1h-1zM20 54h1v1h-1zm25 0h1v1h-1zM20 66h1v1h-1zm25 0h1v1h-1zm9 11h1v1h-1zm-42 1h1v1h-1zm1 0h1v1h-1zm5 0h1v1h-1zm1 0h1v1h-1zm1 0h1v1h-1zm25 0h1v1h-1zm1 0h1v1h-1zm1 0h1v1h-1zm5 0h1v1h-1zm1 0h1v1h-1z"/><path fill="#c24" d="M28 32h1v1h-1zm8 8h1v1h-1zm-1 2h1v1h-1zm0 13h1v1h-1z"/><g fill="#fff"><path d="M4 1h1v1H4zm1 0h1v1H5zm1 0h54v1H6zm54 0h1v1h-1zm1 0h1v1h-1zM3 2h1v1H3zm1 0h1v1H4zm1 0h56v1H5zm56 0h1v1h-1zm1 0h1v1h-1zM2 3h1v1H2zm1 0h1v1H3zm1 0h2v1H4zm2 0h54v1H6zm54 0h2v1h-2zm2 0h1v1h-1zm1 0h1v1h-1zM2 4h1v2H2zm1 0h1v3H3zm1 0h1v1H4zm1 0h56v7H5zm56 0h1v1h-1zm1 0h1v3h-1zm1 0h1v2h-1z"/><path d="M4 5h58v2H4zM3 7h1v1H3zm1 0h1v1H4zm57 0h1v1h-1zm1 0h1v1h-1zM3 8h1v73H3zm1 0h1v73H4zm57 0h1v74h-1zm1 0h1v73h-1zM5 11h7v1H5zm16 0h24v1H21zm24 0h1v1h-1zm9 0h1v1h-1zm1 0h6v1h-6zM5 12h5v70H5zm5 0h1v1h-1zm12 0h1v1h-1zm1 0h21v1H23zm33 0h5v70h-5zm-41 1h1v1h-1zm1 0h1v10h-1zm7 0h20v16H23zm26 0h1v10h-1zm1 0h1v1h-1z"/><path d="M15 14h2v9h-2zm2 0h1v1h-1zm33 0h1v9h-1zm-33 1h1v8h-1zm-7 1h1v8h-1zm11 0h1v1h-1zm1 0h22v8H22zm22 0h1v1h-1zm11 0h6v8h-6zm-44 1h1v6h-1z"/><path d="M21 17h24v7H21zm33 0h7v6h-7zm-43 6h1v1h-1zm11 1h1v1h-1zm21 0h1v1h-1zm-28 1h3v2h-3zm34 0h2v2h-2zm-6 2h1v1h-1zm-33 1h1v8h-1zm11 0h24v1H21zm34 0h6v8h-6zm-44 1h1v6h-1zm4 0h2v9h-2zm2 0h1v1h-1zm4 0h9v1h-9zm9 0h1v1h-1zm1 0h1v1h-1zm1 0h2v1h-2zm2 0h1v1h-1zm1 0h1v1h-1zm1 0h9v1h-9zm13 0h2v9h-2z"/><path d="M54 29h7v6h-7zm-37 1h1v7h-1zm4 0h7v1h-7zm17 0h1v1h-1zm1 0h6v1h-6zm-18 1h5v4h-5zm5 0h1v1h-1zm13 0h1v1h-1zm1 0h5v5h-5zm-8 1h2v9h-2zm-6 2h1v9h-1z"/><path d="M39 34h6v2h-6zm-18 1h1v1h-1zm1 0h6v1h-6z"/><path d="M38 35h7v1h-7zm-15 1h6v5h-6zm14 0h6v6h-6zm6 0h1v1h-1zm-26 1h1v1h-1zm-2 1h1v1h-1zm1 0h1v1h-1zm33 0h1v1h-1zm1 0h1v1h-1zm-28 1h1v1h-1zm21 0h1v1h-1zm-33 1h1v11h-1z"/><path d="M21 40h8v1h-8zm22 0h1v12h-1zm1 0h1v1h-1zm10 0h1v1h-1zm1 0h6v11h-6zm-44 1h17v2H11zm17 0h1v1h-1z"/><path d="M44 41h17v9H44z"/><path d="M38 42h23v1H38zm-27 1h15v7H11zm15 0h1v1h-1zm6 0h1v1h-1zm7 0h1v1h-1zm1 0h21v7H40zm-8 1h2v2h-2zm-6 2h1v9h-1z"/><path d="M39 46h22v4H39zm-12 1h1v7h-1zm10 0h1v1h-1z"/><path d="M38 47h23v3H38zm-10 1h1v5h-1zm4 0h2v9h-2z"/><path d="M37 48h24v2H37zm-26 2h1v1h-1zm10 0h1v1h-1zm1 0h7v1h-7zm15 0h8v1h-8zm8 0h1v1h-1zm9 0h1v1h-1zm-44 1h1v1h-1zm12 0h1v1h-1zm1 0h6v2h-6zm14 0h7v1h-7zm-22 1h1v1h-1zm1 0h1v10h-1zm21 0h6v1h-6zm12 0h1v10h-1zm1 0h1v1h-1z"/><path d="M15 53h2v9h-2zm2 0h1v1h-1zm6 0h5v1h-5zm5 0h1v1h-1zm9 0h1v1h-1zm1 0h5v1h-5zm12 0h1v9h-1zm-33 1h1v8h-1zm5 0h1v1h-1zm1 0h4v1h-4zm4 0h1v1h-1zm11 0h1v1h-1zm1 0h4v1h-4zm4 0h1v1h-1zm-33 1h1v8h-1zm11 0h1v1h-1zm1 0h4v8h-4zm18 0h4v8h-4zm4 0h1v1h-1zm11 0h6v8h-6zm-44 1h1v6h-1z"/><path d="M21 56h5v7h-5zm23 0h1v7h-1zm10 0h7v6h-7zm-22 1h1v1h-1zm1 0h1v1h-1zm-7 1h1v26h-1z"/><path d="M39 58h6v5h-6zm-12 1h1v25h-1zm1 0h1v1h-1z"/><path d="M37 59h8v4h-8z"/><path d="M28 60h17v3H28zm-17 2h1v1h-1zm11 1h1v1h-1zm1 0h20v21H23zm20 0h1v1h-1zm-28 1h3v2h-3zm34 0h2v2h-2zm-27 2h1v1h-1zm21 0h1v1h-1zm-33 1h1v8h-1zm1 0h1v1h-1z"/><path d="M21 67h24v7H21zm34 0h6v8h-6zm-44 1h1v6h-1zm4 0h2v9h-2zm2 0h1v1h-1zm32 0h2v9h-2z"/><path d="M54 68h7v6h-7zm-37 1h1v7h-1zm4 5h1v1h-1zm1 0h22v1H22zm22 0h1v1h-1zm-1 1h1v1h-1zm-26 1h1v1h-1zm-1 1h1v1h-1zm33 0h1v1h-1zm1 0h1v1h-1zm-28 1h1v1h-1zm21 0h1v1h-1zm-33 1h1v5h-1zm11 0h24v5H21zm33 0h1v1h-1zm1 0h6v3h-6z"/><path d="M11 80h50v2H11zm-8 1h1v1H3zm1 0h1v2H4zm58 0h1v1h-1zM3 82h1v1H3zm2 0h1v1H5zm1 0h54v1H6zm54 0h1v1h-1zm1 0h1v1h-1zm1 0h1v1h-1zM3 83h1v1H3zm1 0h1v1H4zm1 0h1v1H5zm1 0h1v1H6zm1 0h52v1H7zm52 0h1v1h-1zm1 0h1v1h-1zm1 0h1v1h-1zm1 0h1v1h-1zM5 84h1v1H5zm1 0h1v1H6zm1 0h1v1H7zm1 0h50v1H8zm50 0h1v1h-1zm1 0h1v1h-1zm1 0h1v1h-1z"/></g><path fill="#b12" d="M36 36h1v1h-1zm0 1h1v1h-1zm0 12h1v1h-1zm0 1h1v1h-1zm-4 8h1v1h-1z"/><path fill="#666" d="M0 88h1v1H0zm1 0h1v1H1zm63 0h1v1h-1zm1 0h1v1h-1zM1 89h1v1H1zm1 0h1v1H2zm1 0h1v1H3zm1 0h58v1H4zm58 0h1v1h-1zm1 0h1v1h-1zm1 0h1v1h-1z"/><path fill="#d88" d="M36 31h1v1h-1z"/><path fill="#efe" d="M20 11h1v1h-1zm34 12h1v1h-1zM22 36h1v1h-1zm32 31h1v1h-1zm-43 7h1v1h-1zm0 5h1v1h-1z"/><path fill="#ced" d="M46 11h1v1h-1zm2 4h1v1h-1zm0 1h1v4h-1zm0 4h1v1h-1zm7 4h1v1h-1zm-7 1h1v1h-1zm0 1h1v1h-1zm0 5h1v2h-1zm0 2h1v2h-1zm0 2h1v1h-1zm0 19h1v1h-1zm0 1h1v4h-1zm0 4h1v1h-1zm0 5h1v1h-1zm0 1h1v1h-1zm0 5h1v2h-1zm0 2h1v2h-1zm0 2h1v1h-1z"/><path fill="#fee" d="M28 30h1v1h-1zm11 3h1v1h-1zm-2 2h1v1h-1zm-5 6h2v1h-2zm1 2h1v1h-1zm6 2h1v1h-1zm-11 2h1v1h-1zm-2 10h1v1h-1zm13 0h1v1h-1zm-1 1h1v1h-1z"/><path fill="#264" d="M12 28h1v1h-1zm-1 38h1v1h-1zm1 1h1v1h-1zm42 11h1v1h-1zm-6 1h1v1h-1z"/><path fill="#c78" d="M34 32h1v1h-1z"/><path fill="#e99" d="M28 54h1v1h-1z"/><path fill="#ccc" d="M1 0h1v1H1zm1 0h1v1H2zm61 0h1v1h-1zm1 0h1v1h-1zM1 2h1v1H1zm63 0h1v1h-1zM1 84h1v1H1zm63 0h1v1h-1zM2 85h1v1H2zm61 0h1v1h-1zM4 86h1v1H4zm1 0h1v1H5zm1 0h1v1H6zm1 0h52v1H7zm52 0h1v1h-1zm1 0h1v1h-1zm1 0h1v1h-1z"/><path fill="#9cb" d="M17 11h1v1h-1zm-1 13h1v1h-1zm-2 26h1v1h-1zm37 0h1v1h-1zm-6 24h1v1h-1zm10 1h1v1h-1z"/><path fill="#d56" d="M30 31h1v1h-1zm5 0h1v1h-1zm-6 23h1v1h-1zm7 0h1v1h-1zm-9 1h1v1h-1zm2 0h1v1h-1zm7 0h1v1h-1zm2 0h1v1h-1z"/><path fill="#d67" d="M33 31h1v1h-1z"/><path fill="#5a7" d="M16 39h1v1h-1z"/><path fill="#c56" d="M31 47h1v1h-1z"/><path fill="#c9a" d="M35 59h1v1h-1z"/><path fill="#597" d="M18 12h1v1h-1zm-8 1h1v1h-1zm2 4h1v1h-1zm0 1h1v1h-1zm0 1h1v1h-1zm0 1h1v1h-1zm41 2h1v1h-1zm1 2h1v1h-1zm-3 3h1v1h-1zm-39 2h1v1h-1zm0 1h1v1h-1zm0 1h1v1h-1zm0 1h1v1h-1zm41 2h1v1h-1zm0 1h1v1h-1zm-42 1h1v1h-1zm1 0h1v1h-1zm2 0h1v1h-1zm39 0h1v1h-1zM18 51h1v1h-1zm-6 5h1v1h-1zm0 1h1v1h-1zm0 1h1v1h-1zm0 1h1v1h-1zm41 2h1v1h-1zm-41 1h1v1h-1zm-1 1h1v1h-1zm1 5h1v1h-1zm0 1h1v1h-1zm0 1h1v1h-1zm0 1h1v1h-1zm41 2h1v1h-1zm0 1h1v1h-1zm-41 1h1v1h-1zm2 0h1v1h-1zm7 0h1v1h-1zm32 0h1v1h-1zm-39 1h1v1h-1z"/><path fill="#5a8" d="M12 21h1v1h-1zm0 12h1v1h-1zm2 4h1v1h-1zm-2 37h1v1h-1z"/><path fill="#798" d="M20 28h1v1h-1zm25 27h1v1h-1zM19 79h1v1h-1z"/><path fill="#143" d="M11 78h1v1h-1z"/><path fill="#ddd" d="M3 0h1v1H3zm1 0h1v1H4zm1 0h56v1H5zm56 0h1v1h-1zm1 0h1v1h-1zM2 1h1v1H2zm61 0h1v1h-1zM1 6h1v1H1zm63 0h1v1h-1zM1 7h1v1H1zm63 0h1v1h-1zM1 8h1v1H1zm63 0h1v1h-1zM1 9h1v73H1zm63 0h1v73h-1zm-53 7h1v1h-1zm43 39h1v1h-1zM1 82h1v1H1zm63 0h1v1h-1zM1 83h1v1H1zm63 0h1v1h-1zM2 84h1v1H2zm61 0h1v1h-1zM3 85h1v1H3zm1 0h1v1H4zm1 0h1v1H5zm1 0h1v1H6zm1 0h2v1H7zm50 0h2v1h-2zm2 0h1v1h-1zm1 0h1v1h-1zm1 0h1v1h-1zm1 0h1v1h-1z"/><path fill="#ecc" d="M28 35h1v1h-1zm6 9h1v1h-1z"/><path fill="#adc" d="M43 37h1v1h-1z"/><path fill="#587" d="M21 27h1v1h-1zm25 13h1v1h-1zM20 55h1v1h-1zm24 23h1v1h-1zm8 1h1v1h-1z"/><path fill="#dee" d="M53 11h1v1h-1zm-8 6h1v1h-1zm0 1h1v1h-1zm0 1h1v2h-1zm0 2h1v1h-1zm0 8h1v1h-1zm0 1h1v1h-1zm0 1h1v2h-1zm0 2h1v1h-1zm9 2h1v1h-1zM12 50h1v1h-1zm-1 5h1v1h-1zm34 1h1v1h-1zm0 1h1v1h-1zm0 1h1v2h-1zm0 2h1v1h-1zm-35 3h1v1h-1zm35 5h1v1h-1zm0 1h1v3h-1zm0 3h1v1h-1zm-23 3h1v1h-1zm-2 4h1v1h-1z"/><path fill="#174" d="M17 12h1v1h-1zm33 0h1v1h-1zm2 1h1v1h-1zm3 0h1v1h-1zm-36 8h1v1h-1zm27 0h1v1h-1zm-32 2h1v1h-1zm38 1h1v1h-1zm-41 1h1v1h-1zm8 0h1v1h-1zm1 0h1v1h-1zm25 0h1v1h-1zm1 0h1v1h-1zm7 0h1v1h-1zm1 0h1v1h-1zm-40 2h1v1h-1zm1 1h1v1h-1zm1 0h1v1h-1zm33 0h1v1h-1zm1 0h1v1h-1zm-37 5h1v1h-1zm6 0h1v1h-1zm-1 1h1v1h-1zm34 0h1v1h-1zm-5 2h1v1h-1zm-29 1h1v1h-1zm2 0h1v1h-1zm25 0h1v1h-1zm2 0h1v1h-1zm5 0h1v1h-1zm-38 1h1v1h-1zm1 1h1v1h-1zm2 12h1v1h-1zm33 0h1v1h-1zm-29 1h1v1h-1zm34 0h1v1h-1zm-36 8h1v1h-1zm27 0h1v1h-1zm-32 2h1v1h-1zm4 0h1v1h-1zm30 0h1v1h-1zm3 0h1v1h-1zm-33 2h1v1h-1zm2 0h1v1h-1zm25 0h1v1h-1zm1 0h1v1h-1zm7 0h1v1h-1zm-39 2h1v1h-1zm-1 6h1v1h-1zm6 0h1v1h-1zm-1 1h1v1h-1zm34 0h1v1h-1zm-5 2h1v1h-1zm-29 1h1v1h-1zm1 0h1v1h-1zm26 0h1v1h-1zm2 0h1v1h-1zm5 0h1v1h-1zm1 0h1v1h-1zm-39 1h1v1h-1zm1 1h1v1h-1z"/><path fill="#497" d="M12 13h1v1h-1zm2 4h1v1h-1zm0 1h1v1h-1zm0 1h1v1h-1zm0 1h1v1h-1zm39 3h1v1h-1zm-39 2h1v1h-1zm0 1h1v1h-1zm0 5h1v1h-1zm0 1h1v1h-1zm0 1h1v1h-1zm0 1h1v2h-1zm32 1h1v1h-1zm-26 1h1v1h-1zm25 0h1v1h-1zm1 0h1v1h-1zm3 3h1v1h-1zM10 52h1v1h-1zm4 4h1v1h-1zm0 1h1v1h-1zm0 1h1v1h-1zm0 1h1v1h-1zm39 3h1v1h-1zm1 1h1v1h-1zm-40 1h1v1h-1zm0 1h1v1h-1zm37 1h1v1h-1zm-37 4h1v1h-1zm0 1h1v1h-1zm0 1h1v1h-1zm0 1h1v2h-1zm32 1h1v1h-1zm-35 1h1v1h-1zm9 0h1v1h-1zm26 0h1v1h-1z"/><path fill="#a01" d="M27 33h1v1h-1zm1 0h1v1h-1zm1 0h1v1h-1zm1 0h1v1h-1zm5 0h1v1h-1zm1 0h1v1h-1zm-6 1h1v1h-1zm5 0h1v1h-1zm-6 1h1v1h-1zm1 0h1v1h-1zm5 0h1v1h-1zm-6 1h1v1h-1zm-1 9h1v1h-1zm8 0h1v1h-1zm-7 1h1v1h-1zm1 1h1v1h-1zm5 0h1v1h-1zm-6 1h1v1h-1zm1 0h1v1h-1zm5 0h1v1h-1zm0 9h1v1h-1z"/><path fill="#b77" d="M31 59h1v1h-1zm3 0h1v1h-1z"/><path fill="#cdd" d="M19 11h1v1h-1zm36 1h1v1h-1zm-12 1h1v1h-1zm5 1h1v1h-1zM10 27h1v1h-1zm6 0h1v1h-1zm34 0h1v1h-1zm-2 2h1v2h-1zm-38 7h1v1h-1zm45 3h1v1h-1zm-35 1h1v1h-1zm-1 10h1v1h-1zm27 0h1v1h-1zm-2 1h1v1h-1zm4 2h1v1h-1zm0 15h1v2h-1zM10 78h1v1h-1z"/><path fill="#164" d="M14 13h1v1h-1zm4 12h1v1h-1zm-7 2h1v1h-1zm6 1h1v1h-1zm31 0h1v1h-1zM14 52h1v1h-1z"/><path fill="#d77" d="M32 30h1v1h-1z"/><path fill="#e89" d="M31 30h1v1h-1zm3 0h1v1h-1z"/><path fill="#253" d="M54 39h1v1h-1zm-3 1h1v1h-1z"/><path fill="#365" d="M18 40h1v1h-1zm29 0h1v1h-1zM14 79h1v1h-1z"/><path fill="#888" d="M0 5h1v1H0zm65 0h1v1h-1zM0 6h1v1H0zm65 0h1v1h-1zM0 7h1v1H0zm65 0h1v1h-1zM0 8h1v73H0zm65 0h1v73h-1zM0 81h1v2H0zm65 0h1v2h-1zM0 83h1v1H0zm65 0h1v1h-1zM1 87h1v1H1zm63 0h1v1h-1zM2 88h1v1H2zm61 0h1v1h-1z"/><path fill="#496" d="M14 12h1v1h-1zm31 1h1v1h-1zm1 0h1v1h-1zm7 0h1v1h-1zM16 23h1v1h-1zm3 0h1v1h-1zm27 0h1v1h-1zm3 0h1v1h-1zm-37 1h1v1h-1zm8 0h1v1h-1zm25 0h1v1h-1zm8 0h1v1h-1zM19 35h1v1h-1zm0 1h1v1h-1zm35 0h1v1h-1zm-3 2h1v1h-1zM12 52h1v1h-1zm7 10h1v1h-1zm27 0h1v1h-1zm-34 1h1v1h-1zm33 0h1v1h-1zm8 0h1v1h-1zM19 74h1v1h-1zm0 1h1v1h-1zm26 0h1v1h-1zm9 0h1v1h-1zm-38 3h1v1h-1z"/><path fill="#e9a" d="M30 30h1v1h-1zm5 0h1v1h-1zm2 24h1v1h-1z"/><path fill="#801" d="M37 57h1v1h-1zm-7 1h1v1h-1zm5 0h1v1h-1z"/><path fill="#a56" d="M37 58h1v1h-1z"/><path fill="#c77" d="M34 43h1v1h-1z"/><path fill="#153" d="M12 16h1v1h-1zm42 11h1v1h-1zM15 40h1v1h-1zm2 0h1v1h-1zm31 0h1v1h-1zM11 54h1v1h-1zm1 1h1v1h-1zm42 11h1v1h-1zm-1 1h1v1h-1zM16 79h1v1h-1zm33 0h1v1h-1zm1 0h1v1h-1z"/><path fill="#c02" d="M38 32h1v1h-1zm-8 6h1v1h-1zm5 0h1v1h-1zm-6 1h1v1h-1zm1 4h1v1h-1zm5 0h1v1h-1zm-7 1h1v1h-1zm9 0h1v1h-1zm-8 7h1v1h-1zm1 0h1v1h-1zm5 0h1v1h-1zm-7 5h1v1h-1z"/><path fill="#ebc" d="M31 40h1v1h-1z"/><path fill="#a34" d="M37 46h1v1h-1z"/><path fill="#064" d="M18 71h1v1h-1z"/><path fill="#bdc" d="M13 11h1v1h-1zm34 0h1v1h-1zm5 0h1v1h-1zM20 22h1v1h-1zm25 1h1v1h-1zm-2 2h1v1h-1zm-28 2h1v1h-1zm2 0h1v1h-1zm32 0h1v1h-1zm-29 7h1v1h-1zm-3 4h1v1h-1zm-4 12h1v1h-1zm39 0h1v1h-1zm3 1h1v1h-1zM20 61h1v1h-1zm25 1h1v1h-1zm-30 1h1v1h-1zm40 0h1v1h-1zm-12 1h1v1h-1zm-27 2h1v1h-1zm33 0h1v1h-1zm1 0h1v1h-1zm-30 7h1v1h-1zm-10 2h1v1h-1zm7 2h1v1h-1zm26 0h1v1h-1z"/><path fill="#7b9" d="M13 12h1v1h-1zm41 0h1v1h-1zm-3 6h1v2h-1zm0 2h1v1h-1zm-3 7h1v1h-1zM22 37h1v1h-1zm-9 14h1v1h-1zm7 0h1v1h-1zm31 6h1v2h-1zm0 2h1v1h-1zM22 76h1v1h-1z"/><path fill="#8a9" d="M22 14h1v1h-1zm0 12h1v1h-1zm23 2h1v1h-1zm6 1h1v1h-1zM12 40h1v1h-1zm10 13h1v1h-1zm0 12h1v1h-1zm29 3h1v1h-1z"/><path fill="#b02" d="M30 32h1v1h-1zm5 0h1v1h-1zm-5 4h1v1h-1zm5 0h1v1h-1zm-6 1h1v1h-1zm1 0h1v1h-1zm5 0h1v1h-1zm-6 1h1v1h-1zm2 4h1v1h-1zm1 0h3v1h-3zm-5 2h1v1h-1zm3 0h1v2h-1zm5 0h1v1h-1zm3 0h1v1h-1zm-9 1h1v1h-1zm6 0h1v1h-1zm-5 1h1v1h-1zm5 0h1v1h-1zm-6 3h2v1h-2zm6 0h1v1h-1zm-6 1h1v1h-1zm1 0h1v1h-1zm5 0h1v1h-1zm-8 6h1v1h-1zm10 0h1v1h-1zm1 0h1v1h-1zm-8 1h1v1h-1zm3 1h1v1h-1z"/><path fill="#d45" d="M30 41h1v1h-1zm5 0h1v1h-1zm1 0h1v1h-1zm-7 1h1v1h-1zm7 0h1v1h-1zm-8 1h1v1h-1zm1 0h1v1h-1zm7 0h1v1h-1zm1 0h1v1h-1zm-3 3h1v1h-1zm-5 7h1v1h-1zm7 0h1v1h-1zm-8 2h1v1h-1zm9 0h1v1h-1zm-6 2h1v1h-1z"/><path fill="#7a8" d="M52 51h1v1h-1z"/><path fill="#586" d="M20 16h1v1h-1zm1 38h1v1h-1zm23 0h1v1h-1zM13 79h1v1h-1z"/><path fill="#698" d="M17 24h1v1h-1zm27 3h1v1h-1zM21 39h1v1h-1zm-2 1h1v1h-1zm27 39h1v1h-1z"/><path fill="#bcb" d="M43 26h1v1h-1zm12 1h1v1h-1zM17 52h1v1h-1zm38 2h1v1h-1zm-6 9h1v1h-1z"/><path fill="#fdd" d="M37 30h1v1h-1zm-11 2h1v1h-1zm13 0h1v1h-1zm-13 1h1v1h-1zm0 11h1v1h-1zm13 0h1v1h-1zM26 56h1v1h-1zm13 0h1v1h-1z"/><path fill="#a12" d="M36 48h1v1h-1z"/><path fill="#9aa" d="M12 79h1v1h-1z"/><path fill="#acb" d="M14 11h1v1h-1zm4 0h1v1h-1zm30 0h1v1h-1zm3 0h1v1h-1zm-40 1h1v1h-1zm6 1h1v1h-1zm26 1h1v1h-1zm-33 1h1v1h-1zm45 0h1v1h-1zm-35 2h1v1h-1zm0 1h1v1h-1zm0 1h1v1h-1zm0 1h1v1h-1zm0 1h1v1h-1zm-5 3h1v1h-1zm29 0h1v1h-1zm5 0h1v1h-1zm-29 5h1v1h-1zm0 1h1v1h-1zm0 1h1v1h-1zm0 1h1v1h-1zm0 1h1v1h-1zm25 2h1v1h-1zm10 1h1v1h-1zm-10 4h1v1h-1zM18 50h1v1h-1zm29 0h1v1h-1zm-4 3h1v1h-1zm-23 3h1v1h-1zm0 1h1v1h-1zm0 1h1v1h-1zm0 1h1v1h-1zm0 1h1v1h-1zm-4 3h1v1h-1zm34 0h1v1h-1zm-35 3h1v1h-1zm2 0h1v1h-1zm3 2h1v1h-1zm0 1h1v1h-1zm0 1h1v1h-1zm0 1h1v1h-1zm23 5h1v1h-1z"/><path fill="#6a8" d="M47 12h1v1h-1zm-33 9h1v1h-1zm0 1h1v1h-1zm-2 1h1v1h-1zm-1 1h1v1h-1zm1 11h1v1h-1zm9 1h1v1h-1zm26 15h1v1h-1zm-35 9h1v1h-1zm2 0h1v1h-1zm0 1h1v1h-1zm34 5h1v1h-1zm-36 6h1v1h-1z"/><path fill="#063" d="M18 13h1v1h-1zm29 0h1v1h-1zm-35 1h1v1h-1zm33 0h1v1h-1zm1 0h1v1h-1zm1 3h1v1h-1zm5 0h1v1h-1zm-39 1h1v1h-1zm5 0h1v1h-1zm1 0h1v1h-1zm27 0h1v1h-1zm1 0h1v1h-1zm5 0h1v1h-1zm-39 1h1v1h-1zm5 0h1v1h-1zm1 0h1v1h-1zm27 0h1v1h-1zm1 0h1v1h-1zm5 0h1v1h-1zm-34 1h1v1h-1zm1 0h1v1h-1zm27 0h1v1h-1zm1 0h1v1h-1zm-29 4h1v1h-1zm29 0h1v1h-1zm-34 1h1v1h-1zm8 0h1v1h-1zm23 0h1v1h-1zm3 0h1v1h-1zm5 0h1v1h-1zm3 0h1v1h-1zm-43 1h1v1h-1zm1 0h1v1h-1zm5 0h1v1h-1zm1 0h1v1h-1zm27 0h1v1h-1zm1 0h1v1h-1zm5 0h1v1h-1zm1 0h1v1h-1zm-40 1h1v1h-1zm5 0h1v1h-1zm29 0h1v1h-1zm5 0h1v1h-1zm-38 1h1v1h-1zm37 0h1v1h-1zm-33 2h1v1h-1zm-5 1h1v1h-1zm5 0h1v1h-1zm1 0h1v1h-1zm27 0h1v1h-1zm1 0h1v1h-1zm5 0h1v1h-1zm-39 1h1v1h-1zm5 0h1v1h-1zm1 0h1v1h-1zm27 0h2v1h-2zm6 0h1v1h-1zm-6 1h1v1h-1zm1 0h1v1h-1zm0 1h1v1h-1zm-29 1h1v1h-1zm-7 2h1v1h-1zm10 0h1v1h-1zm23 0h1v1h-1zm10 0h1v1h-1zm1 0h1v1h-1zm-42 1h1v1h-1zm5 0h1v1h-1zm29 0h1v1h-1zm5 0h1v1h-1zm-35 1h1v1h-1zm1 13h1v1h-1zm29 0h1v1h-1zm5 0h1v1h-1zm-40 1h1v1h-1zm34 0h1v1h-1zm-28 3h1v1h-1zm29 0h1v1h-1zm5 0h1v1h-1zm-39 1h1v1h-1zm5 0h2v1h-2zm28 0h1v1h-1zm1 0h1v1h-1zm5 0h1v1h-1zm-39 1h1v1h-1zm5 0h1v1h-1zm1 0h1v1h-1zm27 0h1v1h-1zm1 0h1v1h-1zm5 0h1v1h-1zm-34 1h1v1h-1zm1 0h1v1h-1zm27 0h1v1h-1zm1 0h1v1h-1zm-29 4h1v1h-1zm29 0h1v1h-1zm-34 1h1v1h-1zm8 0h1v1h-1zm23 0h1v1h-1zm3 0h1v1h-1zm5 0h1v1h-1zm3 0h1v1h-1zm-42 1h1v1h-1zm5 0h1v1h-1zm1 0h1v1h-1zm27 0h1v1h-1zm1 0h1v1h-1zm5 0h1v1h-1zm1 0h1v1h-1zm-40 1h1v1h-1zm5 0h1v1h-1zm29 0h1v1h-1zm5 0h1v1h-1zm-38 1h1v1h-1zm37 0h1v1h-1zm-33 2h1v1h-1zm-5 1h1v1h-1zm5 0h1v1h-1zm1 0h1v1h-1zm27 0h1v1h-1zm1 0h1v1h-1zm5 0h1v1h-1zm-39 1h1v1h-1zm6 0h1v1h-1zm27 0h2v1h-2zm6 0h1v1h-1zm-5 1h1v1h-1zm0 1h1v1h-1zm-29 1h1v1h-1zm-7 2h1v1h-1zm10 0h1v1h-1zm23 0h1v1h-1zm10 0h1v1h-1zm1 0h1v1h-1zm-42 1h1v1h-1zm5 0h1v1h-1zm29 0h1v1h-1zm5 0h1v1h-1zm-35 1h1v1h-1z"/><path fill="#acc" d="M20 72h1v1h-1z"/><path fill="#ded" d="M44 12h1v1h-1zm4 9h1v1h-1zm0 1h1v1h-1zm0 14h1v1h-1zm0 1h1v1h-1zm5 13h1v1h-1zm-5 10h1v2h-1zm-38 6h1v1h-1zm44 8h1v1h-1zm-6 1h1v1h-1zm0 1h1v1h-1zm7 2h1v1h-1z"/><path fill="#475" d="M21 15h1v1h-1zm-8 25h1v1h-1zm5 39h1v1h-1zm29 0h1v1h-1z"/><path fill="#edd" d="M38 34h1v1h-1zM27 46h1v1h-1zm9 13h1v1h-1z"/><path fill="#e88" d="M29 31h1v1h-1zm9 0h1v1h-1z"/><path fill="#eaa" d="M34 35h1v1h-1zm0 1h1v1h-1zm0 1h1v1h-1zm0 1h1v1h-1zm0 1h1v1h-1zm-3 2h1v1h-1zm3 0h1v1h-1zm-6 1h1v1h-1zm6 14h1v1h-1z"/><path fill="#a02" d="M36 35h1v1h-1z"/><path fill="#274" d="M21 13h1v1h-1zm-3 10h1v1h-1zm33 1h1v1h-1zM19 37h1v1h-1zm-6 15h1v1h-1zm-1 12h1v1h-1zm5 3h1v1h-1zm31 0h1v1h-1zm-35 9h1v1h-1z"/><path fill="#375" d="M51 13h1v1h-1zM10 26h1v1h-1zm0 12h1v1h-1zm41 14h1v1h-1zM10 65h1v1h-1zm0 12h1v1h-1z"/><path fill="#ebb" d="M29 30h1v1h-1zm7 0h1v1h-1zm-5 4h1v1h-1zm0 1h1v1h-1zm0 1h1v2h-1zm0 2h1v1h-1zm0 1h1v1h-1zm3 1h1v1h-1zm-3 4h1v1h-1zm0 1h1v1h-1zm0 3h1v1h-1zm3 0h1v1h-1zm-3 1h1v1h-1zm3 0h1v1h-1zm-3 1h1v1h-1zm3 0h1v1h-1zm-3 1h1v3h-1zm3 0h1v2h-1zm0 2h1v1h-1zm-3 1h1v1h-1zm3 0h1v1h-1zm0 1h1v1h-1z"/><path fill="#812" d="M28 58h1v1h-1z"/><path fill="#a66" d="M32 59h1v1h-1zm1 0h1v1h-1z"/><path fill="#364" d="M51 79h1v1h-1z"/><path fill="#8ba" d="M45 12h1v1h-1zm1 0h1v1h-1zm7 0h1v1h-1zm-31 1h1v1h-1zm29 8h1v1h-1zm0 5h1v1h-1zm0 4h1v1h-1zm0 1h1v1h-1zm0 1h1v1h-1zm0 1h1v2h-1zm-31 2h1v1h-1zm31 0h1v1h-1zm0 2h1v1h-1zM16 50h1v1h-1zm33 0h1v1h-1zm1 0h1v1h-1zm-29 1h1v1h-1zm32 0h1v1h-1zm-31 1h1v1h-1zm-2 10h1v1h-1zm31 3h1v1h-1zm0 4h1v1h-1zm0 1h1v1h-1zm0 1h1v1h-1zm0 1h1v2h-1zm0 2h1v1h-1zm0 2h1v1h-1zm-29 1h1v1h-1zm26 0h1v1h-1z"/><path fill="#073" d="M13 20h1v1h-1zm39 0h1v1h-1zm0 13h1v1h-1zm-34 3h1v1h-1zm-5 23h1v1h-1zm-2 5h1v1h-1zm8 0h1v1h-1zm-1 11h1v1h-1zm2 1h1v1h-1z"/><path fill="#d89" d="M31 32h1v1h-1z"/><path fill="#923" d="M37 34h1v1h-1zm-9 12h1v1h-1zm10 11h1v1h-1z"/><path fill="#254" d="M14 40h1v1h-1zm1 39h1v1h-1zm2 0h1v1h-1z"/><path fill="#c23" d="M31 31h1v1h-1zm5 1h1v1h-1zm1 0h1v1h-1zm-7 7h1v1h-1zm5 0h1v1h-1zm-6 1h1v1h-1zm1 2h1v1h-1zm6 10h1v1h-1zm-6 1h1v1h-1zm5 0h1v1h-1zm-5 1h1v1h-1zm5 0h1v1h-1zm-5 1h1v1h-1z"/><path fill="#576" d="M44 39h1v1h-1z"/><path fill="#b45" d="M34 47h1v1h-1z"/><path fill="#8b9" d="M12 12h1v1h-1zm7 0h1v1h-1zm1 0h1v1h-1zm28 1h1v1h-1zM21 24h1v1h-1zm27 0h1v1h-1zm-26 1h1v1h-1zm22 11h1v1h-1zm7 0h1v1h-1zm-29 2h1v1h-1zM12 51h1v1h-1zm7 0h1v1h-1zm26 0h1v1h-1zm1 0h1v1h-1zM22 64h1v1h-1zm-2 10h1v1h-1zm31 1h1v1h-1z"/><path fill="#285" d="M48 12h1v1h-1zm1 0h1v1h-1zm-5 1h1v1h-1zm9 6h1v1h-1zm0 1h1v1h-1zm-1 1h1v1h-1zm-6 1h1v1h-1zm2 1h1v1h-1zm3 0h1v1h-1zm2 9h1v1h-1zm-7 2h1v1h-1zm6 1h1v1h-1zm0 1h1v1h-1zm-42 1h1v1h-1zm2 0h1v1h-1zm34 0h1v1h-1zM19 52h1v1h-1zm35 0h1v1h-1zm-1 6h1v1h-1zm0 1h1v1h-1zm-40 1h1v1h-1zm39 0h1v1h-1zm-37 2h1v1h-1zm2 0h1v1h-1zm33 0h1v1h-1zm3 9h1v1h-1zm-40 2h1v1h-1zm33 0h1v1h-1zm6 1h1v1h-1zm0 1h1v1h-1zm-42 1h1v1h-1z"/><path fill="#386" d="M51 12h1v1h-1zm-40 1h1v1h-1zm8 0h1v1h-1zm-6 9h1v2h-1zm5 0h2v1h-2zm29 0h1v1h-1zm-32 1h1v1h-1zm2 0h1v1h-1zm35 0h1v1h-1zm-6 1h1v1h-1zm-36 1h1v1h-1zm3 10h1v1h-1zm0 1h1v1h-1zm36 15h1v1h-1zm-29 1h1v1h-1zm26 0h1v1h-1zm7 0h1v1h-1zm0 8h1v1h-1zm-40 1h1v1h-1zm5 0h2v1h-2zm29 0h1v1h-1zm-34 1h1v1h-1zm3 0h1v1h-1zm36 0h1v1h-1zm-6 1h1v1h-1zM13 74h1v2h-1zm38 3h1v1h-1zm-2 1h1v1h-1z"/><path fill="#bbb" d="M0 1h1v1H0zm1 0h1v1H1zm63 0h1v1h-1zm1 0h1v1h-1zM1 85h1v1H1zm63 0h1v1h-1zM2 86h1v1H2zm1 0h1v1H3zm59 0h1v1h-1zm1 0h1v1h-1z"/><path fill="#275" d="M15 12h1v1h-1zm1 0h1v1h-1zm-3 1h1v1h-1zm-3 1h1v1h-1zm43 3h1v1h-1zm0 1h1v1h-1zm-40 3h1v1h-1zm5 0h1v1h-1zm29 0h1v1h-1zm0 2h1v1h-1zm-34 1h1v1h-1zm1 0h1v1h-1zm-2 1h1v1h-1zm41 4h1v1h-1zm0 1h1v1h-1zm0 1h1v1h-1zm-40 3h1v1h-1zm0 3h1v1h-1zm40 0h1v1h-1zM15 51h1v1h-1zm33 0h1v1h-1zm-4 1h1v1h-1zm-34 1h1v1h-1zm43 3h1v1h-1zm0 1h1v1h-1zm-35 3h1v1h-1zm29 0h1v1h-1zm0 2h1v1h-1zm-34 1h1v1h-1zm38 0h1v1h-1zm-36 4h1v1h-1zm1 0h1v1h-1zm33 0h1v1h-1zm1 0h1v1h-1zm3 1h1v1h-1zm0 1h1v1h-1zm0 1h1v1h-1zm-41 6h1v1h-1zm34 0h1v1h-1zm4 2h1v1h-1z"/><path fill="#c34" d="M29 32h1v1h-1zm1 8h1v1h-1zm5 0h1v1h-1zm-6 1h1v1h-1zm2 5h1v1h-1z"/><path fill="#c45" d="M34 57h1v1h-1z"/><path fill="#999" d="M0 3h1v1H0zm65 0h1v1h-1zM0 4h1v1H0zm65 0h1v1h-1zM3 88h1v1H3zm59 0h1v1h-1z"/><path fill="#c12" d="M27 32h1v1h-1zm9 6h1v1h-1zm0 6h1v1h-1zm-6 8h1v1h-1zm5 0h1v1h-1zm1 4h1v1h-1z"/><path fill="#daa" d="M34 33h1v1h-1zm0 1h1v1h-1z"/><path fill="#901" d="M37 33h1v1h-1zm-8 1h1v1h-1zm7 0h1v1h-1zm1 11h1v1h-1zm-1 1h1v1h-1zm-7 1h1v1h-1zm-1 10h1v1h-1zm1 0h1v1h-1zm7 0h1v1h-1zm-5 1h1v1h-1zm3 0h1v1h-1z"/><path fill="#bcc" d="M43 38h1v1h-1zM10 54h1v1h-1zm33 11h1v1h-1zm2 14h1v1h-1z"/><path fill="#701" d="M29 58h1v1h-1zm7 0h1v1h-1z"/><path fill="#9ca" d="M15 11h1v1h-1zm1 0h1v1h-1zm33 0h1v1h-1zm1 0h1v1h-1zm1 11h1v1h-1zm-31 1h1v1h-1zm-3 27h1v1h-1zm31 0h1v1h-1zm-37 1h1v1h-1zm40 10h1v1h-1zm-7 2h1v1h-1z"/><path fill="#c13" d="M34 31h1v1h-1zm2 8h1v1h-1zm-7 5h1v1h-1zm7 7h1v1h-1zm-7 1h1v1h-1zm0 4h1v1h-1zm1 0h1v1h-1zm5 0h1v1h-1z"/><path fill="#dbb" d="M31 33h1v1h-1zm-4 1h1v1h-1zm0 24h1v1h-1zm2 1h1v1h-1z"/><path fill="#d78" d="M33 30h1v1h-1zm-5 1h1v1h-1zm4 0h1v1h-1zm5 0h1v1h-1zM27 43h1v1h-1zm11 0h1v1h-1zm-6 3h1v1h-1zm1 0h1v1h-1zm-1 1h2v1h-2z"/><path fill="#eab" d="M27 31h1v1h-1zm10 11h1v1h-1zm-6 1h1v1h-1zm3 2h1v1h-1zm-3 10h1v1h-1zm0 1h1v1h-1z"/><path fill="#fef" d="M26 55h1v1h-1zm13 0h1v1h-1z"/><path fill="#053" d="M11 14h1v1h-1zm2 0h1v1h-1zm6 0h1v1h-1zm1 0h1v1h-1zm33 0h1v1h-1zm-42 1h1v1h-1zm2 2h1v1h-1zm5 0h1v1h-1zm0 11h1v1h-1zm35 0h1v1h-1zm-35 1h1v1h-1zm-5 1h1v1h-1zm6 0h1v1h-1zm27 0h1v1h-1zm6 0h1v1h-1zm3 8h1v1h-1zm-7 1h1v1h-1zm-32 1h1v1h-1zm33 0h1v1h-1zm1 0h1v1h-1zM13 53h1v1h-1zm6 0h1v1h-1zm26 0h1v1h-1zm8 0h1v1h-1zm1 1h1v1h-1zm-1 1h1v1h-1zm-40 1h1v1h-1zm-1 9h1v1h-1zm6 3h1v1h-1zm-5 1h1v1h-1zm6 0h1v1h-1zm27 0h1v1h-1zm6 0h1v1h-1zm3 8h1v1h-1z"/><path fill="#eff" d="M22 15h1v1h-1zm21 0h1v1h-1zM22 27h1v1h-1zm-11 8h1v1h-1zm4 42h1v1h-1z"/><path fill="#cdc" d="M54 16h1v1h-1zM10 39h1v1h-1zm33 13h1v1h-1zm12 14h1v1h-1z"/><path fill="#c89" d="M30 59h1v1h-1z"/><path fill="#eee" d="M3 1h1v1H3zm59 0h1v1h-1zM2 2h1v1H2zm61 0h1v1h-1zM1 3h1v1H1zm63 0h1v1h-1zM1 4h1v1H1zm63 0h1v1h-1zM1 5h1v1H1zm63 0h1v1h-1zM2 6h1v1H2zm61 0h1v1h-1zM2 7h1v1H2zm61 0h1v1h-1zM2 8h1v74H2zm61 0h1v74h-1zm-51 3h1v1h-1zm33 11h1v1h-1zm-35 2h1v1h-1zm1 4h1v1h-1zm43 0h1v1h-1zm-9 6h1v1h-1zm-34 6h1v1h-1zm9 10h1v1h-1zm25 11h1v1h-1zm9 1h1v1h-1zm-9 11h1v1h-1zM2 82h1v1H2zm61 0h1v1h-1zM2 83h1v1H2zm61 0h1v1h-1zM3 84h1v1H3zm1 0h1v1H4zm57 0h1v1h-1zm1 0h1v1h-1zM9 85h48v1H9z"/><path fill="#052" d="M18 14h1v1h-1zm3 0h1v1h-1zm23 0h1v1h-1zm3 0h1v1h-1zm5 0h1v1h-1zm2 0h1v1h-1zm1 0h1v1h-1zm-43 1h1v1h-1zm1 0h1v1h-1zm5 0h1v1h-1zm1 0h1v1h-1zm27 0h1v1h-1zm1 0h1v1h-1zm5 0h1v1h-1zm1 0h1v1h-1zm1 0h1v1h-1zm-41 1h1v1h-1zm5 0h1v1h-1zm1 0h1v1h-1zm27 0h1v1h-1zm1 0h1v1h-1zm5 0h1v1h-1zm1 0h1v1h-1zm-34 1h1v1h-1zm27 0h1v1h-1zm-35 9h1v1h-1zm9 0h1v1h-1zm1 0h1v1h-1zm23 0h1v1h-1zm1 0h1v1h-1zm9 0h1v1h-1zm1 0h1v1h-1zm-43 1h1v1h-1zm7 0h1v1h-1zm27 0h1v1h-1zm7 0h1v1h-1zm-40 1h1v1h-1zm6 0h1v1h-1zm27 0h1v1h-1zm1 0h1v1h-1zm5 0h1v1h-1zm-39 1h1v1h-1zm6 0h1v1h-1zm27 0h1v1h-1zm1 0h1v1h-1zm5 0h1v1h-1zm-5 1h1v1h-1zm-36 8h1v1h-1zm1 0h1v1h-1zm7 0h1v1h-1zm1 0h1v1h-1zm1 0h1v1h-1zm23 0h1v1h-1zm1 0h1v1h-1zm1 0h1v1h-1zm7 0h1v1h-1zm1 0h1v1h-1zm-40 1h1v1h-1zm4 0h1v1h-1zm33 0h1v1h-1zM11 53h1v1h-1zm7 0h1v1h-1zm2 0h1v1h-1zm1 0h1v1h-1zm23 0h1v1h-1zm3 0h1v2h-1zm5 0h1v1h-1zm2 0h1v1h-1zm1 0h1v1h-1zm-43 1h1v1h-1zm1 0h1v1h-1zm5 0h1v1h-1zm1 0h1v1h-1zm27 0h1v1h-1zm6 0h1v1h-1zm1 0h1v1h-1zm-40 1h1v1h-1zm5 0h1v1h-1zm1 0h1v1h-1zm27 0h1v1h-1zm1 0h1v1h-1zm5 0h1v1h-1zm-33 1h1v1h-1zm27 0h1v1h-1zm-35 9h1v1h-1zm9 0h1v1h-1zm1 0h1v1h-1zm23 0h1v1h-1zm1 0h1v1h-1zm9 0h1v1h-1zm1 0h1v1h-1zm-43 1h1v1h-1zm7 0h1v1h-1zm27 0h1v1h-1zm7 0h1v1h-1zm-40 1h1v1h-1zm5 0h1v1h-1zm1 0h1v1h-1zm27 0h1v1h-1zm1 0h1v1h-1zm5 0h1v1h-1zm-39 1h1v1h-1zm6 0h1v1h-1zm27 0h1v1h-1zm1 0h1v1h-1zm5 0h1v1h-1zm-5 1h1v1h-1zm-36 8h1v1h-1zm1 0h1v1h-1zm7 0h1v1h-1zm1 0h1v1h-1zm1 0h1v1h-1zm23 0h1v1h-1zm1 0h1v1h-1zm1 0h1v1h-1zm7 0h1v1h-1zm-39 1h1v1h-1zm34 0h1v1h-1zm3 0h1v1h-1z"/><path fill="#912" d="M38 33h1v1h-1zm-10 1h1v1h-1zm-1 11h1v1h-1zm11 0h1v1h-1zm-2 2h1v1h-1zm-9 10h1v1h-1z"/><path fill="#476" d="M44 15h1v1h-1zm8 25h1v1h-1z"/><path fill="#fde" d="M26 45h1v1h-1zm12 1h1v1h-1z"/></svg>