<svg xmlns="http://www.w3.org/2000/svg" width="66" height="90" baseProfile="tiny" version="1.2"><path fill="#597" d="M19 12h1v1h-1zm12 0h1v1h-1zm-20 1h1v1h-1zm24 1h1v1h-1zm0 1h1v1h-1zm0 1h1v1h-1zm0 1h1v1h-1zm0 1h1v2h-1zm2 4h1v1h-1zm0 1h1v1h-1zm1 1h1v1h-1zm16 0h1v1h-1zm-31 1h1v1h-1zm14 9h1v1h-1zm0 1h1v1h-1zm16 0h1v1h-1zm-41 1h1v1h-1zm1 0h1v1h-1zm9 0h1v1h-1zm15 0h1v1h-1zm16 0h1v1h-1zm-30 2h1v1h-1zm10 1h1v1h-1zm16 0h1v1h-1zM31 51h1v1h-1zm16 0h1v1h-1zm-36 1h1v1h-1zm12 0h1v1h-1zm12 1h1v1h-1zm0 1h1v1h-1zm0 1h1v1h-1zm0 1h1v1h-1zm0 1h1v2h-1zm-20 2h1v1h-1zm22 2h1v1h-1zm0 1h1v1h-1zm1 1h1v1h-1zm-15 1h1v1h-1zm14 10h1v1h-1zm16 0h1v1h-1zm-40 1h1v1h-1zm9 0h1v1h-1zm15 0h1v1h-1zm16 0h1v1h-1z"/><path fill="#eff" d="M23 12h1v1h-1zm11 1h1v1h-1zm16 0h1v1h-1zm-18 1h1v1h-1zm16 1h1v6h-1zm0 7h1v1h-1zm-10 1h1v1h-1zm-15 1h1v1h-1zm9 1h1v1h-1zm16 0h1v1h-1zm-16 1h1v1h-1zm16 0h1v1h-1zm-21 1h1v1h-1zm-15 1h1v1h-1zm20 1h1v2h-1zm0 2h1v5h-1zm-20 4h1v1h-1zm20 1h1v1h-1zm11 0h1v1h-1zm-11 1h1v1h-1zm-5 2h1v1h-1zm2 11h1v1h-1zm16 0h1v1h-1zm-13 3h1v1h-1zm16 1h1v5h-1zm0 5h1v1h-1zm-16 5h1v1h-1zm16 0h1v1h-1zm-16 1h1v1h-1zm16 0h1v1h-1zm-16 3h1v2h-1zm0 2h1v5h-1zm0 5h1v1h-1zm0 1h1v1h-1z"/><path fill="#cdc" d="M28 12h1v1h-1zm21 15h1v1h-1zM11 39h1v1h-1zm10 1h1v1h-1zm-1 10h1v1h-1zm10 0h1v1h-1zm16 0h1v1h-1zm-28 2h1v1h-1zm37 11h1v1h-1zm-16 3h1v1h-1zm16 0h1v1h-1z"/><path fill="#687" d="M20 40h1v1h-1zm2 38h1v1h-1zm8 1h1v1h-1zm6 0h1v1h-1zm10 0h1v1h-1z"/><path fill="#999" d="M0 3h1v1H0zm65 0h1v1h-1zM0 4h1v1H0zm65 0h1v1h-1zM3 88h1v1H3zm59 0h1v1h-1z"/><path fill="#386" d="M51 12h1v1h-1zm-39 1h1v1h-1zm18 0h1v1h-1zm7 4h1v1h-1zm0 1h1v1h-1zm0 1h1v1h-1zm0 1h1v1h-1zm-17 2h1v1h-1zm10 0h2v1h-2zm6 0h1v1h-1zm11 0h1v1h-1zm5 0h1v1h-1zm-36 1h1v1h-1zm2 0h1v1h-1zm16 0h1v1h-1zm2 0h1v1h-1zm14 0h1v1h-1zm2 0h1v1h-1zm-22 1h1v1h-1zm16 0h1v1h-1zm-35 1h1v1h-1zm4 1h1v1h-1zm0 3h1v1h-1zm22 0h1v1h-1zm-22 1h1v1h-1zm22 0h1v1h-1zm16 0h1v1h-1zm-38 1h1v1h-1zm22 0h1v1h-1zm16 0h1v1h-1zm-38 1h1v1h-1zm22 0h1v1h-1zm16 0h1v1h-1zm-38 1h1v1h-1zm0 1h1v2h-1zm-1 1h1v1h-1zm0 1h1v1h-1zm37 2h1v1h-1zM17 51h1v1h-1zm16 0h1v1h-1zm2 0h1v1h-1zm14 0h1v1h-1zm2 0h1v1h-1zm-30 1h1v1h-1zm9 0h1v1h-1zm7 0h1v1h-1zm9 0h1v1h-1zm7 0h1v1h-1zm-16 4h1v1h-1zm0 1h1v1h-1zm0 1h1v1h-1zm0 1h1v1h-1zm-17 2h1v1h-1zm10 0h2v1h-2zm17 0h1v1h-1zm5 0h1v1h-1zm-35 1h1v1h-1zm16 0h1v1h-1zm3 0h1v1h-1zm16 0h1v1h-1zm-22 1h1v1h-1zm16 0h1v1h-1zm-31 2h1v1h-1zm20 1h1v1h-1zm-20 2h1v1h-1zm22 0h1v1h-1zm16 0h1v1h-1zm-38 1h1v1h-1zm22 0h1v1h-1zm16 0h1v1h-1zm-38 1h1v1h-1zm22 0h1v1h-1zm16 0h1v1h-1zm-38 1h1v1h-1zm22 0h1v1h-1zm16 0h1v1h-1zm-38 1h1v1h-1zm0 1h1v2h-1zm-1 1h1v1h-1zm0 1h1v1h-1z"/><path fill="#9aa" d="M13 79h1v1h-1z"/><path fill="#777" d="M0 84h1v1H0zm65 0h1v1h-1zM0 85h1v1H0zm65 0h1v1h-1zM0 86h1v1H0zm65 0h1v1h-1zM0 87h1v1H0zm65 0h1v1h-1z"/><path fill="#bbb" d="M0 1h1v1H0zm1 0h1v1H1zm63 0h1v1h-1zm1 0h1v1h-1zM1 85h1v1H1zm63 0h1v1h-1zM2 86h1v1H2zm1 0h1v1H3zm59 0h1v1h-1zm1 0h1v1h-1z"/><path fill="#275" d="M32 12h1v1h-1zm16 0h1v1h-1zm-26 1h1v1h-1zm29 0h1v1h-1zm-40 1h1v1h-1zm42 3h1v1h-1zm0 1h1v1h-1zm-22 3h1v1h-1zm5 0h1v1h-1zm11 0h1v1h-1zm-16 2h1v1h-1zm4 0h1v1h-1zm16 0h1v1h-1zm-36 1h1v1h-1zm-2 1h1v1h-1zm6 0h1v1h-1zm33 9h1v1h-1zm-33 2h1v1h-1zm-6 1h1v1h-1zm1 0h1v1h-1zm16 0h1v1h-1zm7 0h1v1h-1zm9 0h1v1h-1zm7 0h1v1h-1zm-19 2h1v1h-1zM16 51h1v1h-1zm-2 1h1v1h-1zm30 0h1v1h-1zm7 0h1v1h-1zm-40 1h1v1h-1zm42 3h1v1h-1zm0 1h1v1h-1zm-22 3h1v1h-1zm16 0h1v1h-1zm-15 2h1v1h-1zm-18 1h1v1h-1zm2 4h1v1h-1zm1 0h1v1h-1zm1 0h1v1h-1zm14 0h1v1h-1zm1 0h1v1h-1zm1 0h1v1h-1zm14 0h1v1h-1zm1 0h1v1h-1zm1 0h1v1h-1zm-14 6h1v1h-1zm16 0h1v1h-1zm-33 2h1v1h-1zm0 1h1v1h-1zm11 0h1v1h-1zm16 0h1v1h-1z"/><path fill="#042" d="M21 15h1v1h-1zm8 12h1v1h-1zm16 0h1v1h-1zM12 39h1v1h-1zm1 0h1v1h-1zm1 0h1v1h-1zm6 0h1v1h-1zm1 0h1v1h-1zm8 0h1v1h-1zm1 0h1v1h-1zm6 0h1v1h-1zm1 0h1v1h-1zm8 0h1v1h-1zm1 0h1v1h-1zm6 0h1v1h-1zm1 0h1v1h-1zM21 54h1v1h-1zm8 0h1v1h-1zm16 0h1v1h-1zM29 66h1v1h-1zm16 0h1v1h-1zM22 77h1v1h-1zm16 0h1v1h-1zm16 0h1v1h-1zm-41 1h1v1h-1zm1 0h1v1h-1zm6 0h1v1h-1zm1 0h1v1h-1zm8 0h1v1h-1zm1 0h1v1h-1zm6 0h1v1h-1zm1 0h1v1h-1zm8 0h1v1h-1zm1 0h1v1h-1zm1 0h1v1h-1zm5 0h1v1h-1zm1 0h1v1h-1z"/><path fill="#385" d="M20 13h1v1h-1zm18 0h1v1h-1zm16 0h1v1h-1zm-1 8h1v1h-1zm-7 1h1v1h-1zm-14 1h1v1h-1zm-2 11h1v1h-1zm5 4h1v1h-1zM12 52h1v1h-1zm41 8h1v1h-1zm-7 1h1v1h-1zm3 1h1v1h-1zm-34 1h1v1h-1zm-4 1h1v1h-1zm19 9h1v1h-1zm21 4h1v1h-1z"/><path fill="#eee" d="M3 1h1v1H3zm59 0h1v1h-1zM2 2h1v1H2zm61 0h1v1h-1zM1 3h1v1H1zm63 0h1v1h-1zM1 4h1v1H1zm63 0h1v1h-1zM1 5h1v1H1zm63 0h1v1h-1zM2 6h1v1H2zm61 0h1v1h-1zM2 7h1v1H2zm61 0h1v1h-1zM2 8h1v74H2zm61 0h1v74h-1zm-50 3h1v1h-1zm8 0h1v1h-1zm27 3h1v1h-1zm-25 1h1v1h-1zm0 12h1v1h-1zm31 1h1v1h-1zm-16 7h1v1h-1zm10 2h1v1h-1zm-36 3h1v1h-1zm36 13h1v1h-1zm-25 1h1v1h-1zm4 0h1v1h-1zm16 0h1v1h-1zM27 75h1v1h-1zm21 0h1v1h-1zm0 1h1v1h-1zM2 82h1v1H2zm61 0h1v1h-1zM2 83h1v1H2zm61 0h1v1h-1zM3 84h1v1H3zm1 0h1v1H4zm57 0h1v1h-1zm1 0h1v1h-1zM9 85h48v1H9z"/><path fill="#143" d="M12 78h1v1h-1z"/><path fill="#acb" d="M15 11h1v1h-1zm4 0h1v1h-1zm12 0h1v1h-1zm4 0h1v1h-1zm12 0h1v1h-1zm4 0h1v1h-1zm-39 1h1v1h-1zm20 1h1v1h-1zm11 0h1v1h-1zm5 0h1v1h-1zm-37 2h1v1h-1zm44 0h1v1h-1zm-10 8h1v1h-1zm-29 1h1v1h-1zm16 0h1v1h-1zm1 0h1v1h-1zm16 0h1v1h-1zm6 12h1v1h-1zm-7 2h1v1h-1zM15 50h1v1h-1zm4 0h1v1h-1zm12 0h1v1h-1zm16 0h1v1h-1zm-4 2h1v1h-1zm5 0h1v1h-1zM17 63h1v1h-1zm16 0h1v1h-1zm1 0h1v1h-1zm14 0h1v1h-1zm1 0h1v1h-1zm1 0h1v1h-1zm-34 3h1v1h-1zm23 9h1v1h-1zm-7 2h1v1h-1zm-3 2h1v1h-1zm8 0h1v1h-1z"/><path fill="#8b9" d="M13 12h1v1h-1zm7 0h2v1h-2zm9 0h2v1h-2zm9 0h1v1h-1zm7 0h1v1h-1zm6 9h1v1h-1zm-38 1h1v1h-1zm14 3h1v1h-1zm24 0h1v1h-1zm0 1h1v1h-1zm-38 8h1v1h-1zm38 2h1v1h-1zm0 1h1v1h-1zm-24 1h1v1h-1zM13 51h1v1h-1zm7 0h1v1h-1zm1 0h1v1h-1zm1 0h1v1h-1zm7 0h1v1h-1zm1 0h1v1h-1zm15 0h1v1h-1zm1 0h1v1h-1zm5 9h1v1h-1zm-38 1h1v1h-1zm5 2h1v1h-1zm10 0h1v1h-1zm-1 1h1v1h-1zm8 0h1v1h-1zm-3 2h1v1h-1zm-19 7h1v1h-1zm16 1h1v1h-1zm22 1h1v1h-1zm0 1h1v1h-1zm-24 1h1v1h-1z"/><path fill="#586" d="M23 26h1v1h-1zm21 1h1v1h-1zm-23 1h1v1h-1zm1 11h1v1h-1zm8 1h1v1h-1zm16 0h1v1h-1zM22 66h1v1h-1zm-8 13h1v1h-1z"/><path fill="#abb" d="M53 79h1v1h-1z"/><path fill="#9cb" d="M18 11h1v1h-1zm14 0h1v1h-1zm16 0h1v1h-1zm-21 2h1v1h-1zm-6 9h1v1h-1zm-4 2h1v1h-1zm4 10h1v1h-1zm14 16h1v1h-1zm16 0h1v1h-1zm-39 1h1v1h-1zm9 10h1v1h-1zm0 12h1v1h-1zm34 2h1v1h-1zm-7 2h1v1h-1z"/><path fill="#cdd" d="M20 11h1v1h-1zm10 0h1v1h-1zm16 0h1v1h-1zm-2 1h1v1h-1zm11 0h1v1h-1zm-1 4h1v1h-1zm-25 6h1v1h-1zm16 0h1v1h-1zm-34 5h1v1h-1zm6 0h1v1h-1zm1 0h1v1h-1zm16 0h1v1h-1zm16 0h1v1h-1zm-21 7h1v1h-1zm16 0h1v1h-1zm-34 2h1v1h-1zm44 3h1v1h-1zM39 51h1v1h-1zM29 61h1v1h-1zm16 0h1v1h-1zm-6 2h1v1h-1zM29 73h1v1h-1zm16 0h1v1h-1zm-34 5h1v1h-1z"/><path fill="#dee" d="M37 11h1v1h-1zm16 0h1v1h-1zm-10 4h1v1h-1zm5 14h1v1h-1zm0 1h1v1h-1zm0 1h1v5h-1zm6 4h1v1h-1zm-31 1h1v1h-1zm25 0h1v1h-1zM13 50h1v1h-1zm8 0h1v1h-1zm-9 5h1v1h-1zm26 0h1v1h-1zm-27 8h1v1h-1zm37 5h1v1h-1zm0 1h1v1h-1zm0 1h1v5h-1zm-10 4h1v1h-1z"/><path fill="#9ba" d="M34 24h1v1h-1zm14 0h1v1h-1zm2 0h1v1h-1zm-7 2h1v1h-1zm-11 1h1v1h-1zm13 8h1v1h-1zm-2 3h1v1h-1zm-14 2h1v1h-1zm8 0h1v1h-1zm16 0h1v1h-1zM16 50h1v1h-1zm13 12h1v1h-1zm14 2h1v1h-1zm0 1h1v1h-1zm0 12h1v1h-1z"/><path fill="#074" d="M19 20h1v1h-1zm17 13h1v1h-1zm10 0h1v1h-1zm1 3h1v1h-1zm5 16h1v1h-1zm-38 7h1v1h-1zm5 0h1v1h-1zm-7 5h1v1h-1zm26 0h1v1h-1zm16 0h1v1h-1zM31 75h1v1h-1zm-16 2h1v1h-1z"/><path fill="#bcc" d="M39 27h1v1h-1zm-7 25h1v1h-1zm-21 2h1v1h-1zm44 0h1v1h-1zm-23 9h1v1h-1z"/><path fill="#364" d="M19 40h1v1h-1zm12 0h1v1h-1zm16 0h1v1h-1zm-9 38h1v1h-1zm-3 1h1v1h-1zm16 0h1v1h-1z"/><g fill="#fff"><path d="M4 1h1v1H4zm1 0h1v1H5zm1 0h54v1H6zm54 0h1v1h-1zm1 0h1v1h-1zM3 2h1v1H3zm1 0h1v1H4zm1 0h56v1H5zm56 0h1v1h-1zm1 0h1v1h-1zM2 3h1v1H2zm1 0h1v1H3zm1 0h2v1H4zm2 0h54v1H6zm54 0h2v1h-2zm2 0h1v1h-1zm1 0h1v1h-1zM2 4h1v2H2zm1 0h1v3H3zm1 0h1v1H4zm1 0h56v7H5zm56 0h1v1h-1zm1 0h1v3h-1zm1 0h1v2h-1z"/><path d="M4 5h58v2H4zM3 7h1v1H3zm1 0h1v1H4zm57 0h1v1h-1zm1 0h1v1h-1zM3 8h1v73H3zm1 0h1v73H4zm57 0h1v74h-1zm1 0h1v73h-1zM5 11h8v1H5zm17 0h1v1h-1zm1 0h6v1h-6zm6 0h1v1h-1zm9 0h1v1h-1zm1 0h6v1h-6zm6 0h1v1h-1zm9 0h1v1h-1zm1 0h6v1h-6zM5 12h6v70H5zm6 0h1v1h-1zm13 0h4v1h-4zm16 0h4v1h-4zm16 0h5v70h-5zm-39 1h1v10h-1zm7 0h3v71h-3zm9 0h1v10h-1zm7 0h3v71h-3zm9 0h1v10h-1z"/><path d="M16 14h3v9h-3zm18 0h1v9h-1zm16 0h1v9h-1z"/><path d="M32 15h3v7h-3zm-21 1h1v8h-1zm11 0h1v1h-1zm1 0h5v8h-5zm5 0h1v1h-1zm11 0h5v8h-5zm5 0h1v1h-1zm11 0h6v8h-6zm-43 1h1v6h-1z"/><path d="M22 17h7v6h-7zm16 0h7v6h-7zm16 0h7v6h-7zm-6 4h1v1h-1zm-16 1h1v1h-1zm-20 1h1v1h-1zm10 0h1v1h-1zm6 0h1v1h-1zm16 0h1v1h-1zm-17 1h1v1h-1zm16 0h1v1h-1zm-27 1h3v2h-3zm17 0h2v2h-2zm16 0h2v2h-2zm-6 2h1v1h-1zm-32 1h1v8h-1zm11 0h1v1h-1zm1 0h5v8h-5zm5 0h1v1h-1zm11 0h5v8h-5zm5 0h1v1h-1zm11 0h6v8h-6zm-43 1h1v6h-1zm4 0h2v9h-2zm2 0h1v1h-1z"/><path d="M22 29h7v6h-7zm11 0h2v9h-2zm5 0h7v6h-7zm11 0h2v9h-2zm5 0h7v6h-7zm-36 1h1v8h-1zm4 5h1v1h-1zm6 0h1v1h-1zm16 0h1v1h-1zm-27 3h1v1h-1zm16 0h1v1h-1zm1 0h1v1h-1zm15 0h1v1h-1zm1 0h1v1h-1zm-27 1h1v1h-1zm20 0h1v1h-1zm-32 1h1v11h-1zm11 0h6v10h-6zm6 0h1v1h-1zm10 0h1v1h-1zm1 0h5v11h-5zm5 0h1v1h-1zm10 0h1v1h-1zm1 0h6v11h-6z"/><path d="M12 41h49v9H12zm0 9h1v1h-1zm10 0h1v1h-1zm1 0h6v1h-6zm15 0h1v1h-1zm6 0h1v1h-1zm10 0h1v1h-1zm-43 1h1v1h-1zm16 0h1v1h-1zm16 0h1v1h-1zm-27 1h1v1h-1zm1 0h1v10h-1zm16 0h1v10h-1zm1 0h1v1h-1zm15 0h1v10h-1zm1 0h1v1h-1z"/><path d="M16 53h3v9h-3zm18 0h1v9h-1zm16 0h1v9h-1z"/><path d="M32 54h3v7h-3zm-21 1h1v8h-1zm11 0h1v1h-1zm1 0h5v8h-5zm5 0h1v1h-1zm11 0h5v8h-5zm5 0h1v1h-1zm11 0h6v8h-6zm-43 1h1v6h-1z"/><path d="M22 56h7v6h-7zm16 0h7v6h-7zm16 0h7v6h-7zm-6 4h1v1h-1zm-16 1h1v1h-1zm-20 1h1v1h-1zm10 0h1v1h-1zm6 0h1v1h-1zm16 0h1v1h-1zm-17 1h1v1h-1zm16 0h1v1h-1zm-27 1h3v2h-3zm17 0h2v2h-2zm16 0h2v2h-2zm-22 2h1v1h-1zm16 0h1v1h-1zm-32 1h1v8h-1zm1 0h1v1h-1zm10 0h7v7h-7zm16 0h1v1h-1zm1 0h6v7h-6zm16 0h6v8h-6zm-43 1h1v6h-1zm4 0h3v9h-3zm17 0h2v9h-2z"/><path d="M38 68h7v6h-7zm11 0h2v9h-2zm5 0h7v6h-7zm-32 6h1v1h-1zm1 0h5v1h-5zm5 0h1v1h-1zm11 0h5v1h-5zm5 0h1v1h-1zm-27 3h1v1h-1zm16 0h1v1h-1zm1 0h1v1h-1zm15 0h1v1h-1zm1 0h1v1h-1zm-27 1h1v1h-1zm4 0h1v1h-1zm16 0h1v1h-1zm-32 1h1v5h-1zm11 0h6v5h-6zm6 0h1v1h-1zm10 0h1v1h-1zm1 0h5v5h-5zm5 0h1v1h-1zm10 0h1v1h-1zm1 0h6v3h-6z"/><path d="M12 80h49v2H12zm-9 1h1v1H3zm1 0h1v2H4zm58 0h1v1h-1zM3 82h1v1H3zm2 0h1v1H5zm1 0h54v1H6zm54 0h1v1h-1zm1 0h1v1h-1zm1 0h1v1h-1zM3 83h1v1H3zm1 0h1v1H4zm1 0h1v1H5zm1 0h1v1H6zm1 0h52v1H7zm52 0h1v1h-1zm1 0h1v1h-1zm1 0h1v1h-1zm1 0h1v1h-1zM5 84h1v1H5zm1 0h1v1H6zm1 0h1v1H7zm1 0h50v1H8zm50 0h1v1h-1zm1 0h1v1h-1zm1 0h1v1h-1z"/></g><g fill="#052"><path d="M22 14h1v1h-1zm6 0h1v1h-1zm3 0h1v2h-1zm5 0h1v1h-1zm2 0h1v1h-1zm1 0h1v1h-1zm5 0h1v1h-1zm3 0h1v2h-1zm5 0h1v1h-1zm2 0h1v1h-1zm1 0h1v1h-1zm-42 1h1v1h-1zm1 0h1v1h-1zm6 0h1v1h-1zm9 0h1v1h-1z"/><path d="M30 15h2v1h-2zm6 0h1v1h-1zm1 0h1v1h-1zm8 0h1v1h-1zm1 0h2v1h-2zm6 0h1v1h-1zm1 0h1v1h-1zm1 0h1v1h-1zm-40 1h1v1h-1zm6 0h1v1h-1zm10 0h1v1h-1zm1 0h1v1h-1zm5 0h1v1h-1zm10 0h1v1h-1zm1 0h1v1h-1zm5 0h1v1h-1zm-22 1h1v1h-1zm16 0h1v1h-1zm-34 9h1v1h-1zm10 0h1v1h-1zm6 0h1v1h-1zm1 0h1v1h-1zm9 0h1v1h-1zm1 0h1v1h-1zm5 0h1v1h-1zm1 0h1v1h-1zm9 0h1v1h-1zm1 0h1v1h-1zm-42 1h1v1h-1zm8 0h1v1h-1zm9 0h1v1h-1zm7 0h1v1h-1zm9 0h1v1h-1zm7 0h1v1h-1zm-39 1h1v1h-1zm6 0h1v2h-1zm10 0h1v1h-1zm1 0h1v1h-1zm5 0h1v1h-1zm10 0h1v1h-1zm6 0h1v1h-1zm-38 1h1v1h-1zm16 0h2v1h-2zm6 0h1v1h-1zm10 0h2v1h-2zm6 0h1v1h-1zm-21 1h1v1h-1zm16 0h1v1h-1zm-35 8h1v1h-1zm1 0h1v1h-1zm7 0h1v1h-1zm1 0h1v1h-1zm1 0h1v1h-1zm6 0h1v1h-1zm1 0h1v1h-1zm1 0h1v1h-1zm7 0h1v1h-1zm1 0h1v1h-1zm6 0h1v1h-1zm1 0h1v1h-1zm1 0h1v1h-1zm7 0h1v1h-1zm1 0h1v1h-1zm-39 1h1v1h-1zm4 0h1v1h-1zm12 0h1v1h-1zm4 0h1v1h-1zm12 0h1v1h-1zm4 0h1v1h-1zM12 53h1v1h-1zm9 0h1v1h-1zm1 0h1v1h-1zm6 0h1v1h-1zm3 0h1v1h-1zm5 0h1v1h-1zm2 0h1v1h-1zm6 0h1v1h-1zm3 0h1v2h-1zm5 0h1v1h-1zm2 0h1v1h-1zm1 0h1v1h-1zm-42 1h1v1h-1zm1 0h1v1h-1zm6 0h1v1h-1zm10 0h1v2h-1zm1 0h1v1h-1zm5 0h1v1h-1zm1 0h1v1h-1zm9 0h1v1h-1zm6 0h1v1h-1zm1 0h1v1h-1zm-39 1h1v1h-1zm6 0h1v1h-1zm11 0h1v1h-1zm5 0h1v1h-1zm10 0h1v1h-1zm1 0h1v1h-1zm5 0h1v1h-1zm-22 1h1v1h-1zm16 0h1v1h-1zm-34 9h1v1h-1zm9 0h1v1h-1zm1 0h1v1h-1zm6 0h1v1h-1zm1 0h1v1h-1zm9 0h1v1h-1zm1 0h1v1h-1zm5 0h1v1h-1zm1 0h1v1h-1zm9 0h1v1h-1zm1 0h1v1h-1zm-42 1h1v1h-1zm7 0h1v1h-1zm1 0h1v1h-1zm9 0h1v1h-1zm7 0h1v1h-1zm9 0h1v1h-1zm7 0h1v1h-1zm-39 1h1v2h-1zm6 0h1v1h-1zm10 0h1v1h-1zm1 0h1v1h-1zm5 0h1v1h-1zm10 0h1v1h-1zm1 0h1v1h-1zm5 0h1v1h-1zm-32 1h1v1h-1zm10 0h2v1h-2zm6 0h1v1h-1zm10 0h2v1h-2zm6 0h1v1h-1zm-21 1h1v1h-1zm16 0h1v1h-1zm-35 8h1v1h-1zm1 0h1v1h-1zm7 0h1v1h-1zm1 0h1v1h-1zm7 0h1v1h-1zm1 0h1v1h-1zm1 0h1v1h-1zm7 0h1v1h-1zm7 0h1v1h-1zm1 0h1v1h-1zm1 0h1v1h-1zm7 0h1v1h-1zm-38 1h1v1h-1zm4 0h1v1h-1zm12 0h1v1h-1zm4 0h1v1h-1zm16 0h1v1h-1z"/></g><path fill="#264" d="M22 15h1v1h-1zm6 0h1v1h-1zM13 28h1v1h-1zm15 11h1v1h-1zM12 66h1v1h-1zm26 0h1v1h-1zm16 12h1v1h-1zm-22 1h1v1h-1zm16 0h1v1h-1z"/><path fill="#7a8" d="M13 21h1v1h-1zm5 3h1v1h-1zm33 5h1v1h-1zm-38 4h1v1h-1zm22 3h1v1h-1zM13 60h1v1h-1zm32 7h1v1h-1zm6 1h1v1h-1zm-38 4h1v1h-1zm22 3h1v1h-1z"/><path fill="#666" d="M0 88h1v1H0zm1 0h1v1H1zm63 0h1v1h-1zm1 0h1v1h-1zM1 89h1v1H1zm1 0h1v1H2zm1 0h1v1H3zm1 0h58v1H4zm58 0h1v1h-1zm1 0h1v1h-1zm1 0h1v1h-1z"/><path fill="#476" d="M29 16h1v1h-1zM14 40h1v1h-1zm38 0h1v1h-1zM21 55h1v1h-1z"/><path fill="#5a8" d="M35 20h1v1h-1zm18 14h1v1h-1zM35 59h1v1h-1zm-23 4h1v1h-1z"/><path fill="#164" d="M35 24h1v1h-1zm-23 3h1v1h-1zm6 1h1v1h-1zm1 2h1v1h-1zm35 36h1v1h-1zm-17 1h1v1h-1zm-18 1h1v1h-1zm0 1h1v1h-1zm-3 9h1v1h-1z"/><path fill="#bdc" d="M14 11h1v1h-1zm22 0h1v1h-1zm16 0h1v1h-1zm-34 2h1v1h-1zm11 4h1v1h-1zm16 0h1v1h-1zm-16 1h1v1h-1zm16 0h1v1h-1zm-16 1h1v1h-1zm16 0h1v1h-1zm-16 1h1v1h-1zm16 0h1v1h-1zm-16 1h1v1h-1zm16 0h1v1h-1zm-29 6h1v1h-1zm17 0h1v1h-1zm-4 2h1v1h-1zm16 0h1v1h-1zm-16 1h1v1h-1zm16 0h1v1h-1zm-16 1h1v1h-1zm16 0h1v1h-1zm-16 1h1v1h-1zm16 0h1v1h-1zm-16 1h1v1h-1zm16 0h1v1h-1zm-6 3h1v1h-1zm-7 2h1v1h-1zM14 50h1v1h-1zm22 0h1v1h-1zm16 0h1v1h-1zm-24 1h1v1h-1zm16 0h1v1h-1zm11 0h1v1h-1zm-16 3h1v1h-1zm-10 2h1v1h-1zm16 0h1v1h-1zm-16 1h1v1h-1zm16 0h1v1h-1zm-16 1h1v1h-1zm16 0h1v1h-1zm-16 1h1v1h-1zm16 0h1v1h-1zm-16 1h1v1h-1zm16 0h1v1h-1zm-29 3h1v1h-1zm1 3h1v1h-1zm1 0h1v1h-1zm15 0h1v1h-1zm1 0h1v1h-1zm15 0h1v1h-1zm1 0h1v1h-1zm-21 2h1v1h-1zm16 0h1v1h-1zm-16 1h1v1h-1zm16 0h1v1h-1zm-16 1h1v1h-1zm16 0h1v1h-1zm-16 1h1v1h-1zm16 0h1v1h-1zm-16 1h1v1h-1zm16 0h1v1h-1zm-34 3h1v1h-1z"/><path fill="#496" d="M15 12h1v1h-1zm6 1h1v1h-1zm8 0h1v1h-1zm8 0h1v1h-1zm8 0h1v1h-1zm8 0h1v1h-1zm-34 9h1v1h-1zm-2 1h1v1h-1zm13 0h1v1h-1zm3 0h1v1h-1zm13 0h1v1h-1zm3 0h1v1h-1zm-36 1h1v1h-1zm8 0h1v1h-1zm8 0h1v1h-1zm8 0h1v1h-1zm8 0h1v1h-1zm8 0h1v1h-1zm0 9h1v1h-1zm-23 2h1v1h-1zm16 0h1v1h-1zm-16 1h1v1h-1zm16 0h1v1h-1zM13 52h1v1h-1zm16 0h1v1h-1zm16 0h1v1h-1zm-26 9h1v1h-1zm11 1h1v1h-1zm16 0h1v1h-1zm-33 1h1v1h-1zm8 0h1v1h-1zm8 0h1v1h-1zm8 0h1v1h-1zm8 0h1v1h-1zm8 0h1v1h-1zm-2 3h1v1h-1zm-14 6h1v1h-1zm16 0h1v1h-1zm-23 2h1v1h-1zm16 0h1v2h-1zm-31 1h1v1h-1zm15 0h1v1h-1zm8 0h1v1h-1zm16 0h1v1h-1zm-21 3h1v1h-1z"/><path fill="#063" d="M19 13h1v1h-1zm12 0h1v1h-1zm16 0h1v1h-1zm-34 1h1v1h-1zm16 0h1v1h-1zm1 0h1v1h-1zm7 0h1v1h-1zm8 0h1v1h-1zm1 0h1v1h-1zm7 0h1v1h-1zm-34 1h1v1h-1zm0 1h1v1h-1zm0 1h1v1h-1zm17 0h1v1h-1zm16 0h1v1h-1zm-38 1h1v1h-1zm5 0h1v1h-1zm1 0h1v1h-1zm10 0h2v1h-2zm6 0h1v1h-1zm10 0h1v1h-1zm1 0h1v1h-1zm5 0h1v1h-1zm-38 1h1v1h-1zm5 0h1v1h-1zm1 0h1v1h-1zm10 0h1v1h-1zm1 0h1v1h-1zm5 0h1v1h-1zm10 0h1v1h-1zm1 0h1v1h-1zm5 0h1v1h-1zm-32 1h1v1h-1zm10 0h2v1h-2zm6 0h1v1h-1zm10 0h1v1h-1zm1 0h1v1h-1zm-28 4h1v1h-1zm12 0h1v1h-1zm16 0h1v1h-1zm-33 1h1v1h-1zm6 0h1v1h-1zm8 0h1v1h-1zm3 0h1v1h-1zm5 0h1v1h-1zm3 0h1v1h-1zm5 0h1v1h-1zm3 0h1v1h-1zm5 0h1v1h-1zm3 0h1v1h-1zm-42 1h1v1h-1zm1 0h1v1h-1zm6 0h1v1h-1zm10 0h1v1h-1zm1 0h1v1h-1zm5 0h1v1h-1zm1 0h1v1h-1zm9 0h1v1h-1zm1 0h1v2h-1zm5 0h1v1h-1zm1 0h1v1h-1zm-39 1h1v1h-1zm5 0h1v1h-1zm12 0h1v1h-1zm5 0h1v1h-1zm16 0h1v1h-1zm-37 1h1v1h-1zm20 0h1v1h-1zm16 0h1v1h-1zm-37 3h1v1h-1zm6 0h1v1h-1zm10 0h1v1h-1zm1 0h1v1h-1zm5 0h1v1h-1zm10 0h1v1h-1zm1 0h1v1h-1zm5 0h1v1h-1zm-38 1h1v1h-1zm6 0h1v1h-1zm10 0h1v1h-1zm1 0h1v1h-1zm5 0h1v1h-1zm10 0h1v1h-1zm1 0h1v1h-1zm5 0h1v1h-1zm-21 1h1v1h-1zm16 0h1v1h-1zm-16 1h1v1h-1zm16 0h1v1h-1zm-16 1h1v1h-1zm16 0h1v1h-1zm-35 2h1v1h-1zm10 0h1v1h-1zm6 0h1v1h-1zm10 0h1v1h-1zm1 0h1v1h-1zm5 0h1v1h-1zm10 0h1v1h-1zm1 0h1v1h-1zm-41 1h1v1h-1zm5 0h1v1h-1zm12 0h1v1h-1zm5 0h1v1h-1zm11 0h1v1h-1zm5 0h1v1h-1zm-20 1h1v1h-1zm16 0h1v1h-1zM19 52h1v1h-1zm12 0h1v1h-1zm16 0h1v1h-1zm-34 1h1v1h-1zm16 0h1v1h-1zm1 0h1v1h-1zm15 0h1v1h-1zm1 0h1v1h-1zm-27 1h1v1h-1zm0 1h1v1h-1zm0 1h1v1h-1zm17 0h1v1h-1zm16 0h1v1h-1zm-38 1h1v1h-1zm5 0h1v1h-1zm1 0h1v1h-1zm10 0h2v1h-2zm6 0h1v1h-1zm10 0h1v1h-1zm1 0h1v1h-1zm5 0h1v1h-1zm-38 1h1v1h-1zm5 0h1v1h-1zm1 0h1v1h-1zm10 0h1v1h-1zm1 0h1v1h-1zm5 0h1v1h-1zm10 0h1v1h-1zm1 0h1v1h-1zm5 0h1v1h-1zm-32 1h1v1h-1zm10 0h1v1h-1zm1 0h1v1h-1zm5 0h1v1h-1zm10 0h1v1h-1zm1 0h1v1h-1zm-28 4h1v1h-1zm12 0h1v1h-1zm16 0h1v1h-1zm-33 1h1v1h-1zm6 0h1v1h-1zm2 0h1v1h-1zm6 0h1v1h-1zm3 0h1v1h-1zm5 0h1v1h-1zm3 0h1v1h-1zm5 0h1v1h-1zm3 0h1v1h-1zm5 0h1v1h-1zm3 0h1v1h-1zm-41 1h1v1h-1zm6 0h1v1h-1zm10 0h1v1h-1zm1 0h1v1h-1zm5 0h1v1h-1zm10 0h1v1h-1zm1 0h1v1h-1zm5 0h1v1h-1zm-33 1h1v1h-1zm12 0h1v1h-1zm5 0h1v1h-1zm11 0h1v1h-1zm5 0h1v1h-1zm-37 1h1v1h-1zm20 0h1v1h-1zm16 0h1v1h-1zm-31 2h1v1h-1zm-6 1h1v1h-1zm6 0h1v1h-1zm10 0h1v1h-1zm1 0h1v1h-1zm5 0h1v1h-1zm10 0h1v1h-1zm1 0h1v1h-1zm5 0h1v1h-1zm-38 1h1v1h-1zm6 0h1v1h-1zm10 0h1v1h-1zm1 0h1v1h-1zm5 0h1v1h-1zm10 0h1v1h-1zm1 0h1v1h-1zm5 0h1v1h-1zm-21 1h1v1h-1zm16 0h1v1h-1zm-16 1h1v1h-1zm16 0h1v1h-1zm-16 1h1v1h-1zm16 0h1v1h-1zm-35 2h1v1h-1zm10 0h1v1h-1zm6 0h1v1h-1zm10 0h1v1h-1zm1 0h1v1h-1zm5 0h1v1h-1zm10 0h1v1h-1zm1 0h1v1h-1zm-36 1h1v1h-1zm12 0h1v1h-1zm16 0h1v1h-1zm5 0h1v1h-1zm-34 1h1v1h-1zm14 0h1v1h-1z"/><path fill="#698" d="M51 14h1v1h-1zm-38 3h1v1h-1zm16 11h1v1h-1zm16 0h1v1h-1zm-32 1h1v1h-1zm22 0h1v1h-1zm16 24h1v1h-1zm-38 3h1v1h-1zm0 12h1v1h-1zm22 0h1v1h-1z"/><path fill="#153" d="M13 16h1v1h-1zm25 11h1v1h-1zm16 0h1v1h-1zm-1 1h1v1h-1zM16 40h1v1h-1zm2 0h1v1h-1zm14 0h1v1h-1zm16 0h1v1h-1zM12 54h1v1h-1zm26 0h1v1h-1zm-1 1h1v1h-1zm16 12h1v1h-1zM39 77h1v1h-1zm-22 2h1v1h-1zm16 0h1v1h-1zm1 0h1v1h-1zm15 0h1v1h-1zm1 0h1v1h-1z"/><path fill="#697" d="M44 66h1v1h-1zM23 77h1v1h-1z"/><path fill="#265" d="M13 67h1v1h-1z"/><path fill="#798" d="M29 67h1v1h-1zm-9 12h1v1h-1z"/><path fill="#ddd" d="M3 0h1v1H3zm1 0h1v1H4zm1 0h56v1H5zm56 0h1v1h-1zm1 0h1v1h-1zM2 1h1v1H2zm61 0h1v1h-1zM1 6h1v1H1zm63 0h1v1h-1zM1 7h1v1H1zm63 0h1v1h-1zM1 8h1v1H1zm63 0h1v1h-1zM1 9h1v73H1zm63 0h1v73h-1zm-26 7h1v1h-1zm1 23h1v1h-1zm15 16h1v1h-1zM21 79h1v1h-1zM1 82h1v1H1zm63 0h1v1h-1zM1 83h1v1H1zm63 0h1v1h-1zM2 84h1v1H2zm61 0h1v1h-1zM3 85h1v1H3zm1 0h1v1H4zm1 0h1v1H5zm1 0h1v1H6zm1 0h2v1H7zm50 0h2v1h-2zm2 0h1v1h-1zm1 0h1v1h-1zm1 0h1v1h-1zm1 0h1v1h-1z"/><path fill="#163" d="M15 13h1v1h-1zm22 15h1v1h-1zm-18 1h1v1h-1zm-1 10h1v1h-1zm-3 13h1v1h-1zm-2 3h1v1h-1z"/><path fill="#253" d="M54 39h1v1h-1zM18 79h1v1h-1z"/><path fill="#254" d="M38 39h1v1h-1zm-23 1h1v1h-1zm20 0h1v1h-1zm16 0h1v1h-1zM16 79h1v1h-1z"/><path fill="#365" d="M44 39h1v1h-1zM28 78h1v1h-1zm-13 1h1v1h-1z"/><path fill="#888" d="M0 5h1v1H0zm65 0h1v1h-1zM0 6h1v1H0zm65 0h1v1h-1zM0 7h1v1H0zm65 0h1v1h-1zM0 8h1v73H0zm65 0h1v73h-1zM0 81h1v2H0zm65 0h1v2h-1zM0 83h1v1H0zm65 0h1v1h-1zM1 87h1v1H1zm63 0h1v1h-1zM2 88h1v1H2zm61 0h1v1h-1z"/><path fill="#174" d="M18 12h1v1h-1zm16 0h1v1h-1zm16 0h1v1h-1zm-14 1h1v1h-1zm3 0h1v1h-1zm13 0h1v1h-1zm3 0h1v1h-1zm-35 8h1v1h-1zm10 0h1v1h-1zm16 0h1v1h-1zm-31 2h1v1h-1zm21 1h1v1h-1zm15 0h1v1h-1zm1 0h1v1h-1zm-40 1h1v1h-1zm9 0h1v1h-1zm9 0h1v1h-1zm7 0h1v1h-1zm1 0h1v1h-1zm7 0h1v1h-1zm1 0h1v1h-1zm7 0h1v1h-1zm1 0h1v1h-1zm-39 2h1v1h-1zm1 1h1v1h-1zm1 0h1v1h-1zm15 0h1v1h-1zm1 0h1v1h-1zm1 0h1v1h-1zm14 0h1v1h-1zm1 0h1v1h-1zm1 0h1v1h-1zm-31 3h1v1h-1zm0 1h1v1h-1zm-5 1h1v1h-1zm5 0h1v1h-1zm1 0h1v1h-1zm10 0h1v1h-1zm22 0h1v1h-1zm-33 1h1v1h-1zm0 1h1v1h-1zm2 2h1v1h-1zm8 0h1v1h-1zm2 0h1v1h-1zm5 0h1v1h-1zm9 0h1v1h-1zm2 0h1v1h-1zm5 0h1v1h-1zm-37 1h1v1h-1zm1 1h1v1h-1zm2 12h1v1h-1zm16 0h1v1h-1zm16 0h1v1h-1zm-14 1h1v1h-1zm3 0h1v1h-1zm16 0h1v1h-1zm-35 8h1v1h-1zm10 0h1v1h-1zm16 0h1v1h-1zm-31 2h1v1h-1zm4 0h1v1h-1zm12 0h1v1h-1zm4 0h1v1h-1zm12 0h2v1h-2zm4 0h1v1h-1zm-16 1h1v1h-1zm1 0h1v1h-1zm16 0h1v1h-1zm-31 1h1v1h-1zm8 0h1v1h-1zm1 0h1v1h-1zm7 0h1v1h-1zm8 0h1v1h-1zm1 0h1v1h-1zm7 0h1v1h-1zm-38 2h1v1h-1zm4 4h1v1h-1zm0 1h1v1h-1zm-5 1h1v1h-1zm5 0h1v2h-1zm1 0h1v1h-1zm10 0h1v1h-1zm6 0h1v1h-1zm10 0h1v1h-1zm6 0h1v1h-1zm-33 2h1v1h-1zm28 1h1v1h-1zm-27 1h1v1h-1zm1 0h1v1h-1zm8 0h1v1h-1zm2 0h1v1h-1zm5 0h1v1h-1zm1 0h1v1h-1zm8 0h1v1h-1zm2 0h1v1h-1zm5 0h1v1h-1zm1 0h1v1h-1zm-19 2h1v1h-1z"/><path fill="#ced" d="M39 12h1v1h-1zm16 12h1v1h-1zM23 75h1v1h-1zm-5 2h1v1h-1z"/><path fill="#bcb" d="M39 15h1v1h-1zm16 12h1v1h-1zM45 79h1v1h-1z"/><path fill="#8a9" d="M35 25h1v1h-1zm-8 1h1v1h-1zM13 40h1v1h-1zm14 25h1v1h-1z"/><path fill="#285" d="M17 12h1v1h-1zm16 0h1v1h-1zm16 0h1v1h-1zm-35 1h1v1h-1zm14 0h1v1h-1zm16 0h1v1h-1zm9 6h1v1h-1zm0 1h1v1h-1zm-39 1h1v1h-1zm5 0h1v1h-1zm33 0h1v1h-1zm-4 2h1v1h-1zm-34 1h1v1h-1zm6 0h1v1h-1zm-6 10h1v1h-1zm6 0h1v1h-1zm26 0h1v1h-1zm-10 1h1v2h-1zm16 0h1v1h-1zm0 1h1v1h-1zm-41 1h1v1h-1zm8 0h1v1h-1zm31 2h1v1h-1zM20 52h1v1h-1zm8 0h1v1h-1zm10 0h1v1h-1zm16 0h1v1h-1zm-1 6h1v1h-1zm0 1h1v1h-1zm-39 1h1v1h-1zm5 0h1v1h-1zm17 0h1v1h-1zm16 0h1v1h-1zm-36 2h1v1h-1zm2 0h1v1h-1zm16 0h1v1h-1zm16 0h1v1h-1zm-30 1h1v1h-1zm-6 10h1v1h-1zm6 0h1v1h-1zm26 0h1v1h-1zm-10 1h1v2h-1zm16 0h1v1h-1zm0 1h1v1h-1zm-41 1h1v1h-1zm24 1h1v1h-1z"/><path fill="#486" d="M35 12h1v1h-1zm11 1h1v1h-1zm-31 2h1v1h-1zm0 1h1v1h-1zm30 0h1v1h-1zm-8 5h1v1h-1zm-23 1h1v2h-1zm6 1h1v1h-1zm-5 2h1v1h-1zm13 2h1v1h-1zm7 0h1v1h-1zm2 6h1v1h-1zm-17 2h1v1h-1zm-5 1h1v1h-1zm5 0h1v1h-1zm-5 15h1v1h-1zm0 3h1v1h-1zm0 1h1v1h-1zm14 0h1v1h-1zm8 5h1v1h-1zm-23 1h1v2h-1zm22 0h1v1h-1zm-16 1h1v1h-1zm-5 2h1v1h-1zm5 10h1v1h-1zm0 1h1v1h-1zm29 3h1v1h-1z"/><path fill="#6a8" d="M47 12h1v1h-1zm-24 1h1v1h-1zm28 2h1v1h-1zm0 1h1v1h-1zm0 1h1v1h-1zm-38 1h1v1h-1zm38 0h1v2h-1zm-38 1h1v1h-1zm0 1h1v1h-1zm38 0h1v1h-1zm-36 1h1v1h-1zm0 1h1v1h-1zm-2 1h1v1h-1zm-1 1h1v1h-1zm1 6h1v1h-1zm22 0h1v1h-1zm-22 1h1v1h-1zm22 0h1v1h-1zm-22 1h1v1h-1zm22 0h1v1h-1zm0 1h1v2h-1zm-22 2h1v1h-1zm22 0h1v1h-1zm-7 1h1v1h-1zm16 0h1v1h-1zm-27 3h1v1h-1zm34 15h1v1h-1zm0 1h1v1h-1zm0 1h1v1h-1zm-38 1h1v1h-1zm38 0h1v2h-1zm-38 1h1v1h-1zm0 1h1v1h-1zm38 0h1v1h-1zm-36 1h1v1h-1zm0 1h1v1h-1zm-2 1h1v1h-1zm9 1h1v1h-1zm-9 6h1v1h-1zm22 0h1v1h-1zm-22 1h1v1h-1zm22 0h1v1h-1zm-22 1h1v1h-1zm22 0h1v1h-1zm0 1h1v2h-1zm2 1h1v1h-1zm16 0h1v1h-1zm-40 1h1v1h-1zm22 0h1v1h-1zm-7 1h1v1h-1zm16 0h1v1h-1z"/><path fill="#7a9" d="M27 14h1v1h-1zm8 7h1v1h-1zm-13 3h1v1h-1zm13 2h1v1h-1zm16 4h1v1h-1zm0 1h1v1h-1zm-30 4h1v1h-1zm14 2h1v1h-1zm1 14h1v1h-1zm16 0h1v1h-1zm-25 2h1v1h-1zm-6 9h1v1h-1zm14 3h1v1h-1zm16 4h1v1h-1zm0 1h1v1h-1zm-30 4h1v1h-1zm14 2h1v1h-1z"/><path fill="#375" d="M15 14h1v1h-1zm29 1h1v1h-1zm-23 1h1v1h-1zM11 26h1v1h-1zm42 3h1v1h-1zm-42 9h1v1h-1zm4 15h1v1h-1zm7 1h1v1h-1zm6 0h1v1h-1zm16 0h1v1h-1zM19 64h1v1h-1zm-8 1h1v1h-1zm0 12h1v1h-1z"/><path fill="#587" d="M23 14h1v1h-1zm0 39h1v1h-1zm22 2h1v1h-1zM23 65h1v1h-1zm5 1h1v1h-1zm-7 1h1v1h-1zm31 12h1v1h-1z"/><path fill="#073" d="M14 20h1v1h-1zm38 0h1v1h-1zm-30 5h1v1h-1zm9 11h1v1h-1zm21 23h1v1h-1z"/><path fill="#aaa" d="M0 2h1v1H0zm65 0h1v1h-1zM1 86h1v1H1zm63 0h1v1h-1zM2 87h1v1H2zm1 0h1v1H3zm1 0h1v1H4zm1 0h56v1H5zm56 0h1v1h-1zm1 0h1v1h-1zm1 0h1v1h-1zM4 88h1v1H4zm1 0h56v1H5zm56 0h1v1h-1z"/><path fill="#274" d="M16 12h1v1h-1zm19 1h1v1h-1zM19 23h1v1h-1zm28 0h1v1h-1zm-18 2h1v1h-1zm-10 1h1v1h-1zm17 8h1v1h-1zm-16 3h1v1h-1zm12 14h1v1h-1zm16 0h1v1h-1zm-26 1h1v1h-1zm13 0h1v1h-1zm16 11h1v1h-1zm-38 1h1v1h-1zm6 1h1v1h-1zm-6 11h1v1h-1zm1 0h1v1h-1zm36 2h1v1h-1z"/><path fill="#8ba" d="M22 12h1v1h-1zm15 0h1v1h-1zm9 0h1v1h-1zm7 0h1v1h-1zm-10 2h1v1h-1zm-22 3h1v1h-1zm0 1h1v1h-1zm0 1h1v2h-1zm0 2h1v1h-1zm14 1h1v1h-1zm16 0h1v1h-1zm-23 2h1v1h-1zm20 3h1v1h-1zm-27 2h1v1h-1zm0 1h1v1h-1zm0 1h1v2h-1zm0 2h1v1h-1zm8 2h1v1h-1zm14 2h1v1h-1zM17 50h1v1h-1zm16 0h1v1h-1zm1 0h1v1h-1zm15 0h1v1h-1zm1 0h1v1h-1zm-13 1h1v1h-1zm16 0h1v1h-1zm-10 2h1v1h-1zm-22 3h1v1h-1zm0 1h1v1h-1zm0 1h1v2h-1zm0 2h1v1h-1zm14 1h1v1h-1zm16 0h1v1h-1zm-7 2h1v1h-1zm7 1h1v1h-1zm-30 4h1v1h-1zm0 1h1v1h-1zm0 1h1v2h-1zm0 2h1v1h-1zm24 2h1v1h-1zm-2 2h1v1h-1z"/><path fill="#497" d="M13 13h1v1h-1zm2 4h1v1h-1zm0 1h1v1h-1zm0 1h1v1h-1zm0 1h1v1h-1zm38 2h1v1h-1zm0 1h1v1h-1zm-2 4h1v1h-1zm-30 9h1v1h-1zm8 0h1v1h-1zm9 0h1v1h-1zm7 0h1v1h-1zm9 0h1v1h-1zm-39 1h1v1h-1zm8 0h1v1h-1zm-4 14h1v1h-1zm-4 5h1v1h-1zm0 1h1v1h-1zm0 1h1v1h-1zm38 3h1v1h-1zm0 1h1v1h-1zm1 1h1v1h-1zM12 75h1v1h-1zm9 0h1v1h-1zm8 0h1v1h-1zm16 0h1v1h-1zm-30 1h1v1h-1zm8 0h1v1h-1zm-6 2h1v1h-1z"/><path fill="#053" d="M12 14h1v1h-1zm2 0h1v1h-1zm5 0h1v1h-1zm1 0h2v1h-2zm-8 1h1v1h-1zm26 0h1v1h-1zm-1 1h1v1h-1zm16 0h1v1h-1zm-39 1h1v1h-1zm6 0h1v1h-1zm11 0h1v1h-1zm16 0h1v1h-1zm-26 9h1v1h-1zm-1 1h1v1h-1zm-1 1h1v1h-1zm28 0h1v1h-1zm-33 2h1v1h-1zm6 0h1v1h-1zm10 0h1v1h-1zm6 0h1v1h-1zm10 0h1v1h-1zm6 0h1v1h-1zm-13 8h1v1h-1zm16 0h1v1h-1zm-38 2h1v1h-1zm16 0h1v1h-1zm1 0h1v1h-1zm15 0h1v1h-1zm1 0h1v1h-1zM14 53h1v1h-1zm5 0h1v1h-1zm1 0h1v1h-1zm17 0h1v1h-1zm2 0h1v1h-1zm14 0h1v1h-1zm1 1h1v1h-1zm-1 1h1v1h-1zm-39 1h1v1h-1zm6 0h1v1h-1zm11 0h1v1h-1zm16 0h1v1h-1zm-34 9h1v1h-1zm24 0h1v1h-1zm16 0h1v1h-1zm-39 1h1v1h-1zm5 1h1v1h-1zm-5 2h1v1h-1zm16 0h1v1h-1zm6 0h1v1h-1zm10 0h1v1h-1zm6 0h1v1h-1zm-38 8h1v1h-1zm22 0h1v1h-1zm19 0h1v1h-1zm-7 1h1v1h-1z"/><path fill="#aba" d="M45 40h1v1h-1z"/><path fill="#9ca" d="M16 11h1v1h-1zm1 0h1v1h-1zm16 0h1v1h-1zm1 0h1v1h-1zm15 0h1v1h-1zm1 0h1v1h-1zM29 23h1v1h-1zm15 1h1v1h-1zm-1 1h1v1h-1zM18 50h1v1h-1zm14 0h1v1h-1zm16 0h1v1h-1zm-21 2h1v1h-1zm18 10h1v1h-1z"/><path fill="#576" d="M36 40h1v1h-1z"/><path fill="#ccc" d="M1 0h1v1H1zm1 0h1v1H2zm61 0h1v1h-1zm1 0h1v1h-1zM1 2h1v1H1zm63 0h1v1h-1zM1 84h1v1H1zm63 0h1v1h-1zM2 85h1v1H2zm61 0h1v1h-1zM4 86h1v1H4zm1 0h1v1H5zm1 0h1v1H6zm1 0h52v1H7zm52 0h1v1h-1zm1 0h1v1h-1zm1 0h1v1h-1z"/><path fill="#7b9" d="M14 12h1v1h-1zm22 0h1v1h-1zm16 0h1v1h-1zm2 0h1v1h-1zM21 23h1v1h-1zm30 9h1v1h-1zm0 1h1v1h-1zm0 1h1v2h-1zm-24 3h1v1h-1zM14 51h1v1h-1zm24 0h1v1h-1zm16 0h1v1h-1zm-19 9h1v1h-1zm16 5h1v1h-1zm-3 1h1v1h-1zm3 5h1v1h-1zm0 1h1v1h-1zm0 1h1v2h-1zm-24 3h1v1h-1z"/><path fill="#efe" d="M16 13h1v1h-1zm38 10h1v1h-1zm-43 1h1v1h-1zm27 4h1v1h-1zm-11 8h1v1h-1zm-11 2h1v1h-1zm7 13h1v1h-1zm25 10h1v1h-1zm-10 1h1v1h-1zm16 0h1v1h-1zm-31 1h1v1h-1zm0 3h1v1h-1zm31 1h1v1h-1zm-42 7h1v1h-1zm31 1h1v1h-1zm-27 2h1v1h-1zm-4 2h1v1h-1z"/><path fill="#ded" d="M27 15h1v1h-1zm-15 1h1v1h-1zm27 8h1v1h-1zM18 38h1v1h-1zm19 12h1v1h-1zm16 0h1v1h-1zM11 66h1v1h-1zm43 8h1v1h-1zm-15 4h1v1h-1zm16 0h1v1h-1z"/><path fill="#475" d="M22 27h1v1h-1zm22 51h1v1h-1zm-25 1h1v1h-1zm12 0h1v1h-1zm16 0h1v1h-1z"/></svg>