<svg xmlns="http://www.w3.org/2000/svg" width="66" height="90" baseProfile="tiny" version="1.2"><path fill="#abb" d="M46 63h1v1h-1z"/><path fill="#c89" d="M29 21h1v1h-1z"/><path fill="#e88" d="M36 27h1v1h-1z"/><path fill="#274" d="M18 36h1v1h-1zm2 0h1v1h-1zm-4 8h1v1h-1zm2 1h1v1h-1zm11 0h1v1h-1zm6 0h1v1h-1zm-24 1h1v1h-1zm9 0h1v1h-1zm-3 1h1v1h-1zm14 13h1v1h-1zM13 70h1v1h-1zm35 0h1v1h-1zm-37 1h1v1h-1zm6 2h1v1h-1z"/><path fill="#687" d="M18 82h1v1h-1zm17 0h1v1h-1z"/><path fill="#385" d="M37 36h1v1h-1zm-3 9h1v1h-1zm17 2h1v1h-1zm-4 5h1v1h-1zm1 8h1v1h-1zm-34 1h1v1h-1zm34 5h1v1h-1zm-18 1h1v1h-1zm17 0h1v1h-1zm5 0h1v1h-1zM19 79h1v1h-1zm17 0h1v1h-1zm10 0h1v1h-1zm-12 1h1v1h-1z"/><path fill="#475" d="M28 56h1v1h-1z"/><path fill="#364" d="M34 82h1v1h-1zm14 0h1v1h-1z"/><path fill="#ebc" d="M32 17h1v1h-1zm-4 11h1v1h-1z"/><path fill="#bdc" d="M14 34h1v1h-1zm1 0h2v1h-2zm2 0h1v1h-1zm14 0h1v1h-1zm3 0h1v1h-1zm14 0h1v1h-1zm1 0h1v1h-1zm1 0h1v1h-1zm1 0h1v1h-1zm2 8h1v1h-1zm0 1h1v1h-1zm-25 4h1v1h-1zm25 2h1v1h-1zm0 1h1v1h-1zm0 1h1v1h-1zm-24 2h1v1h-1zm8 1h1v1h-1zm13 2h1v1h-1zm-14 1h1v1h-1zm-8 3h1v1h-1zm9 0h1v1h-1zm16 7h1v1h-1zm0 1h1v1h-1zm0 6h1v1h-1zm0 1h1v1h-1zm0 1h1v1h-1zm-41 2h1v1h-1zm7 0h1v1h-1z"/><path fill="#ced" d="M30 34h1v1h-1zm-1 6h1v1h-1zm0 1h1v1h-1zm0 9h1v1h-1zm0 1h1v1h-1zm-10 2h1v1h-1zm10 12h1v1h-1zm0 1h1v1h-1zm0 8h1v1h-1zm0 1h1v1h-1zm0 1h1v1h-1zm7 2h1v1h-1z"/><path fill="#901" d="M36 11h1v1h-1zm-5 19h1v1h-1z"/><path fill="#daa" d="M34 12h1v1h-1zm0 11h1v1h-1z"/><path fill="#d99" d="M36 13h1v1h-1zm0 1h1v1h-1zm-8 6h1v1h-1zm8 2h1v1h-1zm0 1h1v1h-1z"/><path fill="#587" d="M12 38h1v1h-1zm33 8h1v1h-1zm9 16h1v1h-1zM28 81h1v1h-1z"/><path fill="#8a9" d="M36 38h1v1h-1zm10 0h1v1h-1zm-9 18h1v1h-1zm8 0h1v1h-1zm-33 1h1v1h-1zm8 24h1v1h-1z"/><path fill="#9ca" d="M36 44h1v1h-1zm15 10h1v1h-1zm-18 2h1v1h-1zm-3 3h1v1h-1zm7 20h1v1h-1zm14 0h1v1h-1z"/><path fill="#bcb" d="M19 57h1v1h-1z"/><path fill="#ddd" d="M3 0h1v1H3zm1 0h1v1H4zm1 0h56v1H5zm56 0h1v1h-1zm1 0h1v1h-1zM2 1h1v1H2zm61 0h1v1h-1zM1 6h1v1H1zm63 0h1v1h-1zM1 7h1v1H1zm63 0h1v1h-1zM1 8h1v1H1zm63 0h1v1h-1zM1 9h1v73H1zm63 0h1v73h-1zM20 47h1v1h-1zm34 25h1v1h-1zM1 82h1v1H1zm63 0h1v1h-1zM1 83h1v1H1zm63 0h1v1h-1zM2 84h1v1H2zm61 0h1v1h-1zM3 85h1v1H3zm1 0h1v1H4zm1 0h1v1H5zm1 0h1v1H6zm1 0h2v1H7zm50 0h2v1h-2zm2 0h1v1h-1zm1 0h1v1h-1zm1 0h1v1h-1zm1 0h1v1h-1z"/><path fill="#b56" d="M37 11h1v1h-1zm-1 1h1v1h-1z"/><path fill="#b23" d="M34 21h1v1h-1z"/><path fill="#285" d="M14 36h1v1h-1zm33 0h1v1h-1zm-13 4h1v1h-1zm14 1h1v1h-1zm-35 1h1v1h-1zm5 0h1v1h-1zm12 0h1v1h-1zm17 0h1v1h-1zm5 0h1v1h-1zm-38 2h1v1h-1zm1 0h1v1h-1zm17 0h1v1h-1zm16 0h1v1h-1zm1 0h1v1h-1zm5 1h1v1h-1zm-41 7h1v1h-1zm5 0h1v1h-1zm12 0h1v1h-1zm5 0h1v1h-1zm13 0h1v1h-1zm4 0h1v1h-1zm-4 3h1v1h-1zm-31 5h1v1h-1zm17 0h1v1h-1zm3 1h1v1h-1zm-3 4h1v1h-1zm-21 2h1v1h-1zm5 0h1v1h-1zm17 0h1v1h-1zm-21 2h1v1h-1zm17 0h1v1h-1zm-3 1h1v1h-1zm-15 7h1v1h-1zm5 0h1v1h-1zm12 0h1v1h-1zm5 0h1v1h-1zm13 0h1v1h-1zm4 0h1v1h-1z"/><path fill="#174" d="M19 36h1v1h-1zm9 0h1v1h-1zm6 0h1v1h-1zm2 0h1v1h-1zm10 0h1v1h-1zm6 0h1v1h-1zm1 0h1v1h-1zm-5 3h1v1h-1zm0 1h1v1h-1zm-1 1h1v1h-1zm-30 3h1v1h-1zm16 0h1v1h-1zm1 0h1v1h-1zm17 0h1v1h-1zm-39 1h1v1h-1zm7 0h1v1h-1zm17 0h1v1h-1zm10 0h1v1h-1zm6 0h1v1h-1zm1 0h1v1h-1zm-5 1h1v1h-1zm-17 1h1v1h-1zm17 3h1v1h-1zm-1 1h1v1h-1zm1 0h1v1h-1zm-37 4h1v1h-1zm2 0h1v1h-1zm7 0h1v1h-1zm10 0h1v1h-1zm22 0h1v1h-1zm-1 5h1v1h-1zm-40 1h1v1h-1zm1 0h1v1h-1zm1 0h1v1h-1zm5 0h1v1h-1zm2 0h1v1h-1zm9 0h1v1h-1zm1 0h1v1h-1zm4 0h1v1h-1zm1 0h1v1h-1zm11 0h1v1h-1zm1 0h1v1h-1zm1 3h1v1h-1zm0 1h1v1h-1zm-1 1h1v1h-1zm5 0h1v1h-1zm-35 3h1v1h-1zm17 0h1v1h-1zm17 0h1v1h-1zm-39 1h1v1h-1zm6 0h1v1h-1zm1 0h1v1h-1zm10 0h1v1h-1zm1 0h1v1h-1zm5 0h1v1h-1zm1 0h1v1h-1zm10 0h1v1h-1zm6 0h2v1h-2zm2 0h1v1h-1zm-6 1h1v1h-1zm0 4h1v1h-1zm-1 1h1v1h-1zm1 0h1v1h-1zm-37 4h1v1h-1zm9 0h1v1h-1zm28 0h1v1h-1z"/><path fill="#153" d="M29 47h1v1h-1zM15 82h1v1h-1zm1 0h1v1h-1zm16 0h1v1h-1zm1 0h1v1h-1zm16 0h1v1h-1zm1 0h1v1h-1z"/><path fill="#bbb" d="M0 1h1v1H0zm1 0h1v1H1zm63 0h1v1h-1zm1 0h1v1h-1zM1 85h1v1H1zm63 0h1v1h-1zM2 86h1v1H2zm1 0h1v1H3zm59 0h1v1h-1zm1 0h1v1h-1z"/><path fill="#7b9" d="M13 35h1v1h-1zm5 0h1v1h-1zm12 0h1v1h-1zm5 0h1v1h-1zm12 0h1v1h-1zm4 6h1v1h-1zm-20 1h1v1h-1zm0 1h1v1h-1zm-2 1h1v1h-1zm16 1h1v1h-1zm-30 2h1v1h-1zm17 0h1v1h-1zm19 4h1v1h-1zm-20 3h1v1h-1zm20 1h1v1h-1zm0 11h1v1h-1zm0 2h1v1h-1zm-15 1h1v1h-1zm15 1h1v1h-1zm0 1h1v1h-1zm0 5h1v1h-1zm-20 3h1v1h-1z"/><path fill="#275" d="M11 36h1v1h-1zm1 0h1v1h-1zm1 0h1v1h-1zm4 0h1v1h-1zm12 0h1v1h-1zm1 0h1v1h-1zm5 0h1v1h-1zm-1 1h1v1h-1zm0 1h1v1h-1zm0 1h1v1h-1zm1 3h1v1h-1zm-4 2h1v1h-1zm19 0h1v1h-1zm-37 1h1v1h-1zm17 0h1v1h-1zm17 0h1v1h-1zm1 0h1v1h-1zm-2 2h1v1h-1zm-32 1h1v1h-1zm23 7h1v1h-1zm-23 5h1v1h-1zm3 1h1v1h-1zm17 1h1v1h-1zm0 1h1v1h-1zm0 1h1v1h-1zm14 5h1v1h-1zm-1 1h1v1h-1zm-27 1h1v1h-1zm31 1h1v1h-1zm-14 8h1v1h-1z"/><path fill="#8ba" d="M46 35h1v1h-1zm5 7h1v1h-1zm0 1h1v1h-1zm-39 1h1v1h-1zm7 0h1v1h-1zm-4 4h1v1h-1zm1 0h1v1h-1zm16 0h1v1h-1zm1 0h1v1h-1zm16 0h1v1h-1zm1 0h1v1h-1zm1 5h1v1h-1zm3 1h1v1h-1zm0 6h1v1h-1zm-17 2h1v1h-1zm-18 1h1v1h-1zm32 4h1v1h-1zm-5 2h1v1h-1zm5 9h1v1h-1zm-40 1h1v1h-1zm9 0h1v1h-1zm30 2h1v1h-1z"/><path fill="#798" d="M19 38h1v1h-1zm1 18h1v1h-1z"/><path fill="#9ba" d="M46 57h1v1h-1zm7 0h1v1h-1zM37 81h1v1h-1zm8 0h1v1h-1zm-16 1h1v1h-1z"/><path fill="#fdd" d="M36 8h1v1h-1zm-8 1h1v1h-1zm10 1h1v1h-1zm0 9h1v1h-1zm-9 8h1v1h-1zm9 2h1v1h-1z"/><path fill="#d89" d="M28 10h1v1h-1zm6 0h1v1h-1z"/><path fill="#d66" d="M30 26h1v1h-1z"/><path fill="#c23" d="M31 15h1v1h-1zm4 0h1v1h-1zm-5 4h1v1h-1zm1 7h1v1h-1z"/><path fill="#386" d="M31 36h1v1h-1zm-14 1h1v1h-1zm0 1h1v1h-1zm0 1h1v1h-1zm0 1h1v1h-1zm17 1h1v1h-1zm1 2h1v1h-1zm-1 6h1v1h-1zm0 1h1v1h-1zm0 1h1v1h-1zm14 2h1v1h-1zm-14 2h1v1h-1zm-1 5h1v1h-1zm-16 2h1v1h-1zm0 1h1v1h-1zm0 1h1v1h-1zm0 1h1v1h-1zm-1 4h1v1h-1zm17 0h1v1h-1zm19 0h1v1h-1zm-41 1h1v1h-1zm9 0h1v1h-1zm14 0h1v1h-1zm0 1h1v1h-1zm0 3h1v1h-1zm0 1h1v1h-1zm0 1h1v1h-1zm13 1h1v1h-1zm1 1h1v1h-1zm-36 1h1v1h-1zm17 0h1v1h-1zm24 0h1v1h-1z"/><path fill="#698" d="M16 72h1v1h-1z"/><path fill="#ccc" d="M1 0h1v1H1zm1 0h1v1H2zm61 0h1v1h-1zm1 0h1v1h-1zM1 2h1v1H1zm63 0h1v1h-1zM1 84h1v1H1zm63 0h1v1h-1zM2 85h1v1H2zm61 0h1v1h-1zM4 86h1v1H4zm1 0h1v1H5zm1 0h1v1H6zm1 0h52v1H7zm52 0h1v1h-1zm1 0h1v1h-1zm1 0h1v1h-1z"/><path fill="#e89" d="M34 17h1v1h-1zm-5 1h1v1h-1zm-1 1h1v1h-1zm6 10h1v1h-1z"/><path fill="#7a9" d="M19 35h1v1h-1zm17 0h1v1h-1zm16 0h1v1h-1zm1 0h1v1h-1zm-4 12h1v1h-1zm2 2h1v1h-1zm0 1h1v1h-1zM20 62h1v1h-1zm-6 5h1v1h-1zm-2 2h1v1h-1zm7 0h1v1h-1zm32 5h1v1h-1zm0 1h1v1h-1zm-36 6h2v1h-2z"/><path fill="#d45" d="M34 9h1v1h-1zm-3 7h1v1h-1zm4 0h1v1h-1zm-4 1h1v1h-1zm-1 1h1v1h-1zm5 0h1v1h-1zm-5 7h1v1h-1zm5 2h1v1h-1zm-5 1h1v1h-1zm5 0h1v1h-1zm1 0h1v1h-1zm1 0h1v1h-1z"/><path fill="#163" d="M28 46h1v1h-1zm-16 1h1v1h-1zm41 0h1v1h-1zm-5 1h1v1h-1zM34 72h1v1h-1zm14 1h1v1h-1z"/><path fill="#063" d="M48 36h1v1h-1zm6 0h1v1h-1zm-7 3h1v1h-1zm-34 1h1v1h-1zm5 0h1v1h-1zm12 0h1v1h-1zm5 0h1v1h-1zm12 0h1v1h-1zm5 0h1v1h-1zm-39 1h1v1h-1zm5 0h1v1h-1zm12 0h1v1h-1zm5 0h1v1h-1zm-22 5h1v1h-1zm5 0h1v1h-1zm12 0h1v1h-1zm5 0h1v1h-1zm12 0h1v1h-1zm5 0h1v1h-1zm-4 1h1v1h-1zm-1 2h1v1h-1zm-34 1h1v1h-1zm5 0h1v1h-1zm12 0h1v1h-1zm5 0h1v1h-1zm12 0h1v1h-1zm5 0h1v1h-1zm-39 1h1v1h-1zm5 0h1v1h-1zm12 0h1v1h-1zm5 0h1v1h-1zm17 0h1v1h-1zm-40 4h1v1h-1zm6 0h1v1h-1zm1 0h1v1h-1zm9 0h1v1h-1zm1 0h1v1h-1zm6 0h1v1h-1zm1 0h1v1h-1zm10 0h1v1h-1zm1 0h1v1h-1zm6 0h1v1h-1zm1 0h1v1h-1zm-40 1h1v1h-1zm3 0h1v1h-1zm14 0h1v1h-1zm3 0h1v1h-1zm14 0h1v1h-1zm-34 1h1v1h-1zm1 0h2v1h-2zm2 0h1v1h-1zm15 0h1v1h-1zm1 0h1v1h-1zm1 0h1v1h-1zm14 0h1v1h-1zm1 0h1v1h-1zm1 0h1v1h-1zm1 0h1v1h-1zm-32 4h1v1h-1zm17 0h1v1h-1zm12 0h1v1h-1zm4 0h1v1h-1zm2 0h1v1h-1zm-7 3h1v1h-1zm-34 1h1v1h-1zm5 0h1v1h-1zm12 0h1v1h-1zm5 0h1v1h-1zm12 0h1v1h-1zm5 0h1v1h-1zm-34 1h1v1h-1zm17 0h1v1h-1zm-22 5h1v1h-1zm5 0h1v1h-1zm12 0h1v1h-1zm5 0h1v1h-1zm12 0h1v1h-1zm5 0h1v1h-1zm-38 1h1v1h-1zm34 0h1v1h-1zm-1 2h1v1h-1zm-34 1h1v1h-1zm5 0h1v1h-1zm12 0h1v1h-1zm5 0h1v1h-1zm12 0h1v1h-1zm5 0h1v1h-1zm-39 1h1v1h-1zm5 0h1v1h-1zm17 0h1v1h-1zm-23 4h1v1h-1zm1 0h1v1h-1zm5 0h1v1h-1zm1 0h1v1h-1zm9 0h1v1h-1zm1 0h1v1h-1zm1 0h1v1h-1zm5 0h1v1h-1zm1 0h1v1h-1zm10 0h1v1h-1zm1 0h1v1h-1zm5 0h1v1h-1zm1 0h1v1h-1z"/><path fill="#ebb" d="M35 8h1v1h-1zm-1 8h1v1h-1zm0 12h1v1h-1z"/><path fill="#b67" d="M37 30h1v1h-1z"/><path fill="#042" d="M12 56h1v1h-1zm7 0h1v1h-1zm10 0h1v1h-1zm7 0h1v1h-1zm10 0h1v1h-1zm7 0h1v1h-1zM12 81h1v1h-1zm1 0h1v1h-1zm5 0h1v1h-1zm1 0h1v1h-1zm10 0h1v1h-1zm1 0h1v1h-1zm5 0h1v1h-1zm1 0h1v1h-1zm10 0h1v1h-1zm1 0h1v1h-1zm5 0h1v1h-1zm1 0h1v1h-1z"/><path fill="#eee" d="M3 1h1v1H3zm59 0h1v1h-1zM2 2h1v1H2zm61 0h1v1h-1zM1 3h1v1H1zm63 0h1v1h-1zM1 4h1v1H1zm63 0h1v1h-1zM1 5h1v1H1zm63 0h1v1h-1zM2 6h1v1H2zm61 0h1v1h-1zM2 7h1v1H2zm61 0h1v1h-1zM2 8h1v74H2zm61 0h1v74h-1zM12 42h1v1h-1zm7 0h1v1h-1zm-7 1h1v1h-1zm7 0h1v1h-1zm17 5h1v1h-1zm-24 4h1v1h-1zm7 0h1v1h-1zm0 7h1v1h-1zm-7 8h1v1h-1zm7 0h1v1h-1zm-7 1h1v1h-1zm7 0h1v1h-1zm1 4h1v1h-1zm-8 5h1v1h-1zm7 0h1v1h-1zM2 82h1v1H2zm61 0h1v1h-1zM2 83h1v1H2zm61 0h1v1h-1zM3 84h1v1H3zm1 0h1v1H4zm57 0h1v1h-1zm1 0h1v1h-1zM9 85h48v1H9z"/><path fill="#8b9" d="M12 35h1v1h-1zm17 0h1v1h-1zm22 11h1v1h-1zm-35 1h1v1h-1zm17 0h1v1h-1zm17 0h1v1h-1zm1 5h1v1h-1zm-2 4h1v1h-1zm-4 6h1v1h-1zm-14 5h1v1h-1zm20 10h1v1h-1zm-23 2h1v1h-1zm4 2h1v1h-1z"/><path fill="#697" d="M20 37h1v1h-1zm9 26h1v1h-1zm24 0h1v1h-1zM11 81h1v1h-1zm43 0h1v1h-1z"/><path fill="#edd" d="M29 12h1v1h-1zm8 9h1v1h-1zm-5 1h2v1h-2z"/><path fill="#812" d="M29 30h1v1h-1z"/><path fill="#6a8" d="M15 35h1v1h-1zm17 0h1v1h-1zm16 0h1v1h-1zm3 2h1v1h-1zm0 1h1v1h-1zm0 1h1v1h-1zm0 1h1v1h-1zm-20 1h1v1h-1zm-14 1h1v1h-1zm0 1h1v1h-1zm20 2h1v1h-1zm-6 7h1v1h-1zm-17 1h1v1h-1zm3 0h1v1h-1zm0 1h1v1h-1zm17 0h1v1h-1zm-3 1h1v1h-1zm-17 4h1v1h-1zm3 0h1v1h-1zm14 0h1v1h-1zm3 0h1v1h-1zm14 0h1v1h-1zm3 0h1v1h-1zm-39 1h1v1h-1zm17 0h1v1h-1zm3 0h1v1h-1zm14 0h1v1h-1zm5 2h1v1h-1zm0 1h1v1h-1zm0 1h1v1h-1zm0 1h1v1h-1zm-20 1h1v1h-1zm-14 1h1v1h-1zm-3 1h1v1h-1zm15 1h1v1h-1zm24 0h1v1h-1zm-8 1h1v1h-1zm-12 2h1v1h-1zm-2 5h1v1h-1zm-17 1h1v1h-1zm3 0h1v1h-1zm-3 1h1v1h-1zm3 0h1v1h-1zm17 0h1v1h-1zm20 0h1v1h-1zm-21 2h1v1h-1z"/><path fill="#999" d="M0 3h1v1H0zm65 0h1v1h-1zM0 4h1v1H0zm65 0h1v1h-1zM3 88h1v1H3zm59 0h1v1h-1z"/><path fill="#b77" d="M35 31h1v1h-1z"/><path fill="#586" d="M11 56h1v1h-1zm36 26h1v1h-1zm5 0h1v1h-1z"/><path fill="#496" d="M13 43h1v1h-1zm17 0h1v1h-1zm17 0h1v1h-1zm5 0h1v1h-1zm-39 1h1v1h-1zm17 0h1v1h-1zm17 0h1v1h-1zm-13 8h1v1h-1zm-21 1h1v1h-1zm5 0h1v1h-1zm12 0h1v1h-1zm5 0h1v1h-1zm17 0h1v1h-1zm-40 1h1v1h-1zm17 0h1v1h-1zm17 0h1v1h-1zm2 0h1v1h-1zm4 0h1v1h-1zm-36 6h1v1h-1zm33 0h1v1h-1zm-36 8h1v1h-1zm17 0h1v1h-1zm17 0h1v1h-1zm1 0h1v1h-1zm4 0h1v1h-1zm-39 1h1v1h-1zm2 0h1v1h-1zm15 0h1v1h-1zm2 0h1v1h-1zm15 0h1v1h-1zm2 0h1v1h-1zm1 0h1v1h-1zm-13 1h1v1h-1zm-3 7h1v1h-1zm18 1h1v1h-1zm-39 1h1v1h-1zm5 0h1v1h-1zm12 0h1v1h-1zm5 0h1v1h-1zm12 0h1v1h-1zm1 0h1v1h-1zm4 0h1v1h-1z"/><g fill="#fff"><path d="M4 1h1v1H4zm1 0h1v1H5zm1 0h54v1H6zm54 0h1v1h-1zm1 0h1v1h-1zM3 2h1v1H3zm1 0h1v1H4zm1 0h56v1H5zm56 0h1v1h-1zm1 0h1v1h-1zM2 3h1v1H2zm1 0h1v1H3zm1 0h2v1H4zm2 0h54v1H6zm54 0h2v1h-2zm2 0h1v1h-1zm1 0h1v1h-1zM2 4h1v2H2zm1 0h1v3H3zm1 0h1v1H4zm1 0h56v4H5zm56 0h1v1h-1zm1 0h1v3h-1zm1 0h1v2h-1z"/><path d="M4 5h58v2H4zM3 7h1v1H3zm1 0h1v1H4zm57 0h1v1h-1zm1 0h1v1h-1zM3 8h1v73H3zm1 0h1v73H4zm1 0h24v1H5zm24 0h1v1h-1zm8 0h1v1h-1zm1 0h23v1H38zm23 0h1v74h-1zm1 0h1v73h-1zM5 9h23v25H5zm33 0h1v1h-1zm1 0h22v25H39zm-6 1h1v7h-1z"/><path d="M32 11h2v6h-2zm6 0h1v1h-1zm-10 1h1v6h-1zm9 0h1v1h-1zm1 0h23v7H38zm-9 1h1v5h-1z"/><path d="M37 13h24v5H37zm-9 5h1v1h-1zm4 1h2v1h-2zm0 1h1v1h-1zm1 0h1v1h-1zm-5 1h1v1h-1zm10 0h23v7H38zm-10 1h2v5h-2z"/><path d="M37 22h24v5H37zm-5 1h2v3h-2zm0 3h1v1h-1zm1 0h1v4h-1zm-5 1h1v1h-1zm4 0h1v1h-1zm5 0h1v1h-1zm-5 1h1v1h-1zm6 2h1v1h-1zm-10 1h1v4h-1zm9 0h24v3H37z"/><path d="M29 32h32v2H29zM5 34h7v1H5zm7 0h1v1h-1zm7 0h1v1h-1zm1 0h9v1h-9zm9 0h1v1h-1zm7 0h1v1h-1zm1 0h9v1h-9zm9 0h1v1h-1zm7 0h1v1h-1zm1 0h7v1h-7zM5 35h6v47H5zm16 0h7v49h-7zm17 0h7v49h-7zm17 0h6v47h-6zm-40 1h1v7h-1zm1 0h1v1h-1zm16 0h1v7h-1zm1 0h1v1h-1zm16 0h1v1h-1zm1 0h1v7h-1zm-34 1h1v6h-1zm17 0h1v6h-1z"/><path d="M49 37h2v6h-2zm-38 1h1v1h-1zm9 0h1v1h-1zm8 0h1v1h-1zm9 0h8v6h-8zm8 0h1v1h-1zm9 0h1v1h-1zm-43 1h1v5h-1zm9 0h9v5h-9zm25 0h1v6h-1zm1 0h1v1h-1zm8 0h7v5h-7zm-8 1h1v4h-1zm-31 3h1v1h-1zm1 0h1v1h-1zm16 0h1v1h-1zm1 0h1v1h-1zm3 0h1v1h-1zm13 0h1v1h-1zm1 0h1v1h-1zm-39 1h1v1h-1zm9 0h1v1h-1zm8 0h1v1h-1zm9 0h1v1h-1zm17 0h1v1h-1zm-39 1h1v2h-1zm1 0h1v1h-1zm16 0h1v2h-1zm1 0h1v1h-1zm16 0h2v2h-2zm-33 1h1v1h-1zm17 0h1v1h-1zm-22 2h1v6h-1zm9 0h9v6h-9zm17 0h9v6h-9zm17 0h7v6h-7zm-39 1h2v7h-2zm17 0h2v7h-2zm14 0h1v4h-1zm3 0h2v6h-2zm-13 3h1v1h-1zm13 3h1v1h-1zm1 0h1v1h-1zm-39 2h1v1h-1zm9 0h8v3h-8zm8 0h1v1h-1zm9 0h8v3h-8zm8 0h1v1h-1zm9 0h1v1h-1zm-43 1h4v1h-4zm4 0h1v1h-1zm1 0h1v1h-1z"/><path d="M17 58h15v1H17zm15 0h1v1h-1zm1 0h1v1h-1zm1 0h15v1H34zm15 0h1v1h-1zm2 0h1v1h-1zm1 0h9v1h-9zm-41 1h1v1h-1zm17 0h1v1h-1zm17 0h1v1h-1zm1 0h1v1h-1zm8 0h7v1h-7zm-39 2h2v7h-2zm17 0h1v7h-1zm1 0h1v1h-1zm16 0h1v1h-1zm1 0h1v7h-1zm-17 1h1v6h-1z"/><path d="M49 62h2v6h-2zm-38 1h1v1h-1zm9 0h8v6h-8zm8 0h1v1h-1zm9 0h9v6h-9zm17 0h1v1h-1zm-43 1h1v5h-1zm17 0h1v5h-1zm18 0h1v4h-1zm8 0h7v5h-7zm-18 3h1v2h-1zm10 1h1v1h-1zm-35 1h1v1h-1zm9 0h1v1h-1zm17 0h1v1h-1zm8 0h1v1h-1zm-30 1h2v2h-2zm17 0h2v2h-2zm17 0h2v2h-2zm-38 3h1v6h-1zm9 0h9v6h-9zm17 0h9v6h-9zm9 0h1v1h-1zm8 0h7v6h-7zm-39 1h2v7h-2zm17 0h2v7h-2zm14 0h1v4h-1zm3 0h2v6h-2zm-13 3h1v1h-1zm13 3h1v1h-1zm1 0h1v1h-1zM3 81h1v1H3zm1 0h1v2H4zm58 0h1v1h-1zM3 82h1v1H3zm2 0h1v1H5zm1 0h5v1H6zm5 0h1v1h-1zm9 0h8v2h-8zm8 0h1v1h-1zm9 0h9v2h-9zm17 0h6v1h-6zm6 0h1v1h-1zm1 0h1v1h-1zm1 0h1v1h-1zM3 83h1v1H3zm1 0h1v1H4zm1 0h1v1H5zm1 0h1v1H6z"/><path d="M7 83h52v1H7zm52 0h1v1h-1zm1 0h1v1h-1zm1 0h1v1h-1zm1 0h1v1h-1zM5 84h1v1H5zm1 0h1v1H6zm1 0h1v1H7zm1 0h50v1H8zm50 0h1v1h-1zm1 0h1v1h-1zm1 0h1v1h-1z"/></g><path fill="#5a8" d="M31 45h1v1h-1zm0 25h1v1h-1zm0 6h1v1h-1z"/><path fill="#a12" d="M29 11h1v1h-1zm1 1h1v1h-1zm7 8h1v1h-1zm-3 10h1v1h-1z"/><path fill="#c45" d="M33 21h1v1h-1z"/><path fill="#164" d="M48 37h1v2h-1zM14 47h1v1h-1zm20 0h1v1h-1zm-17 1h1v1h-1zm17 0h1v1h-1zm14 1h1v1h-1zm3 7h1v1h-1zm-3 6h1v1h-1zm0 1h1v1h-1zm-20 8h1v1h-1zm-11 1h1v1h-1zm14 0h1v1h-1zm3 1h1v1h-1zm14 1h1v1h-1z"/><path fill="#fde" d="M38 20h1v1h-1z"/><path fill="#053" d="M12 46h1v1h-1zm7 0h1v1h-1zm10 0h1v1h-1zm7 0h1v1h-1zm10 0h1v1h-1zm7 0h1v1h-1zm-6 2h1v1h-1zm-16 9h1v1h-1zm21 7h1v1h-1zm-23 7h1v1h-1zm25 0h1v1h-1zm-7 2h1v1h-1zm7 7h1v1h-1zm-3 1h1v1h-1z"/><path fill="#052" d="M12 37h1v1h-1zm1 0h1v1h-1zm5 0h1v1h-1zm1 0h1v1h-1zm10 0h1v1h-1zm1 0h1v1h-1zm5 0h1v1h-1zm1 0h1v1h-1zm10 0h1v1h-1zm1 0h1v1h-1zm5 0h1v1h-1zm1 0h1v1h-1zm-40 1h1v1h-1zm5 0h1v1h-1zm12 0h1v1h-1zm5 0h1v1h-1zm12 0h1v1h-1zm5 0h1v1h-1zm-39 1h1v1h-1zm5 0h1v1h-1zm12 0h1v1h-1zm5 0h1v1h-1zm17 0h1v1h-1zm2 7h1v1h-1zm-41 1h1v1h-1zm5 0h1v1h-1zm12 0h1v1h-1zm5 0h1v1h-1zm12 0h1v1h-1zm5 0h1v1h-1zm-39 1h1v1h-1zm5 0h1v1h-1zm12 0h1v1h-1zm5 0h1v1h-1zm17 0h1v1h-1zm-39 1h1v1h-1zm5 0h1v1h-1zm12 0h1v1h-1zm5 0h1v1h-1zm17 0h1v1h-1zm-39 7h1v1h-1zm5 0h1v1h-1zm12 0h1v1h-1zm5 0h1v1h-1zm12 0h1v1h-1zm5 0h1v1h-1zm-40 6h1v1h-1zm1 0h1v1h-1zm5 0h1v1h-1zm1 0h1v1h-1zm10 0h1v1h-1zm1 0h1v1h-1zm5 0h1v1h-1zm1 0h1v1h-1zm10 0h1v1h-1zm1 0h1v1h-1zm5 0h1v1h-1zm1 0h1v1h-1zm-40 1h1v1h-1zm5 0h1v1h-1zm12 0h1v1h-1zm5 0h1v1h-1zm12 0h1v1h-1zm5 0h1v1h-1zm-39 1h1v1h-1zm5 0h1v1h-1zm12 0h1v1h-1zm5 0h1v1h-1zm-23 7h1v1h-1zm7 0h1v1h-1zm17 0h1v1h-1zm10 0h1v1h-1zm7 0h1v1h-1zm-40 1h1v1h-1zm5 0h1v1h-1zm12 0h1v1h-1zm5 0h1v1h-1zm12 0h1v1h-1zm5 0h1v1h-1zm-39 1h1v1h-1zm5 0h1v1h-1zm12 0h1v1h-1zm5 0h1v1h-1zm17 0h1v1h-1zm-39 1h1v1h-1zm5 0h1v1h-1zm12 0h1v1h-1zm5 0h1v1h-1zm17 0h1v1h-1zm-38 7h1v1h-1zm3 0h1v1h-1zm14 0h1v1h-1zm3 0h1v1h-1zm14 0h1v1h-1z"/><path fill="#9cb" d="M28 54h1v1h-1zm-15 5h1v1h-1zm39 0h1v1h-1z"/><path fill="#476" d="M18 57h1v1h-1zm-5 25h1v1h-1zm17 0h1v1h-1z"/><path fill="#c13" d="M30 10h1v1h-1zm6 9h1v1h-1zm-1 6h1v1h-1z"/><path fill="#ecc" d="M28 11h1v1h-1zm0 19h1v1h-1zm8 1h1v1h-1z"/><path fill="#dee" d="M18 34h1v1h-1zm29 0h1v1h-1zm-36 1h1v1h-1zm1 4h1v1h-1zm7 0h1v1h-1zm-7 1h1v2h-1zm7 0h1v2h-1zm26 7h1v1h-1zm-33 2h1v1h-1zm7 0h1v1h-1zm-7 1h1v1h-1zm7 0h1v1h-1zm-7 1h1v1h-1zm7 0h1v1h-1zm17 2h1v1h-1zm17 6h1v1h-1zm-8 1h1v1h-1zm-33 4h1v1h-1zm7 0h1v1h-1zm-7 1h1v1h-1zm7 0h1v1h-1zm-7 1h1v1h-1zm7 0h1v1h-1zm-4 2h1v1h-1zm1 0h1v1h-1zm16 0h1v1h-1zm1 0h1v1h-1zm16 0h1v1h-1zm1 0h1v1h-1zm-39 4h1v1h-1zm8 1h1v1h-1zm-7 1h1v1h-1zm7 0h1v1h-1zm-7 1h1v1h-1zm7 0h1v1h-1zm-7 1h1v1h-1zm7 0h1v1h-1zm27 2h1v1h-1z"/><path fill="#cdc" d="M20 35h1v1h-1zm-9 12h1v1h-1zm18 26h1v1h-1z"/><path fill="#5a7" d="M50 35h1v1h-1zM35 60h1v1h-1zm12 0h1v1h-1zm-33 6h1v1h-1z"/><path fill="#c02" d="M29 10h1v1h-1zm7 0h1v1h-1zm1 9h1v1h-1zm-6 10h1v1h-1z"/><path fill="#a01" d="M30 11h1v1h-1zm1 0h1v1h-1zm4 0h1v1h-1zm-4 1h1v1h-1zm4 0h1v1h-1zm-6 8h1v1h-1zm7 0h1v1h-1zm-6 1h1v1h-1zm1 0h1v1h-1zm4 0h1v1h-1zm-4 1h1v1h-1zm4 0h1v1h-1zm-4 1h1v1h-1zm4 0h1v1h-1zm-6 6h1v1h-1zm8 0h1v1h-1z"/><path fill="#a23" d="M36 21h1v1h-1z"/><path fill="#375" d="M28 37h1v1h-1zm26 0h1v1h-1zm-17 9h1v1h-1zm-1 1h1v1h-1zm-5 1h1v1h-1zm20 0h1v1h-1zm-4 9h1v1h-1zm5 0h1v1h-1zM37 71h1v1h-1zm-18 1h1v1h-1zm-5 1h1v1h-1z"/><path fill="#777" d="M0 84h1v1H0zm65 0h1v1h-1zM0 85h1v1H0zm65 0h1v1h-1zM0 86h1v1H0zm65 0h1v1h-1zM0 87h1v1H0zm65 0h1v1h-1z"/><path fill="#d9a" d="M34 11h1v1h-1z"/><path fill="#b34" d="M30 13h1v1h-1zm0 10h1v1h-1zm2 7h1v1h-1z"/><path fill="#d88" d="M28 29h1v1h-1z"/><path fill="#801" d="M30 30h1v1h-1zm5 0h1v1h-1zm1 0h1v1h-1z"/><path fill="#074" d="M28 61h1v1h-1zm25 0h1v1h-1zm-23 5h1v1h-1z"/><path fill="#adc" d="M29 78h1v1h-1z"/><path fill="#a44" d="M32 31h1v1h-1z"/><path fill="#497" d="M51 36h1v1h-1zm-37 3h1v1h-1zm0 1h1v1h-1zm3 1h1v1h-1zm31 1h1v1h-1zm0 1h1v1h-1zm-34 2h1v1h-1zm0 1h1v1h-1zm0 4h1v1h-1zm3 0h1v1h-1zm-3 1h1v1h-1zm3 0h1v1h-1zm30 2h1v2h-1zm-34 1h1v1h-1zm5 0h1v1h-1zm12 0h1v1h-1zm5 0h1v1h-1zm-18 1h1v1h-1zm28 0h1v1h-1zm-30 4h1v1h-1zm17 0h1v1h-1zm18 0h1v1h-1zm-5 2h1v1h-1zm-31 3h1v1h-1zm0 1h1v1h-1zm34 2h1v1h-1zm-34 3h1v1h-1zm3 0h1v1h-1zm-3 1h1v1h-1zm3 0h1v1h-1zm-3 4h1v1h-1zm3 0h1v1h-1zm-3 1h1v1h-1zm3 0h1v1h-1zm-4 2h1v1h-1zm5 0h1v1h-1zm12 0h1v1h-1zm5 0h1v1h-1zm12 0h1v1h-1zm-33 2h1v1h-1zm31 0h1v1h-1z"/><path fill="#888" d="M0 5h1v1H0zm65 0h1v1h-1zM0 6h1v1H0zm65 0h1v1h-1zM0 7h1v1H0zm65 0h1v1h-1zM0 8h1v73H0zm65 0h1v73h-1zM0 81h1v2H0zm65 0h1v2h-1zM0 83h1v1H0zm65 0h1v1h-1zM1 87h1v1H1zm63 0h1v1h-1zM2 88h1v1H2zm61 0h1v1h-1z"/><path fill="#b02" d="M31 10h1v1h-1zm4 0h1v1h-1zm2 0h1v1h-1zm-6 3h1v1h-1zm4 0h1v1h-1zm-4 1h1v1h-1zm4 0h1v1h-1zm-5 6h1v1h-1zm1 0h1v1h-1zm4 0h1v1h-1zm-4 4h1v1h-1zm4 0h1v1h-1zm-5 5h1v1h-1zm5 0h1v1h-1zm1 0h1v1h-1z"/><path fill="#a56" d="M31 31h1v1h-1z"/><path fill="#598" d="M31 51h1v1h-1zm0 14h1v1h-1zm1 7h1v1h-1zm18 0h1v1h-1z"/><path fill="#c34" d="M30 14h1v1h-1zm0 1h1v1h-1zm1 3h1v1h-1zm3 0h1v1h-1zm-2 3h1v1h-1zm-2 3h1v1h-1zm5 2h1v1h-1zm-4 1h1v1h-1zm-2 1h1v1h-1zm2 0h1v1h-1z"/><path fill="#eab" d="M34 15h1v1h-1zm0 4h1v1h-1zm0 7h1v1h-1zm2 0h1v1h-1zm-2 1h1v1h-1z"/><path fill="#acb" d="M32 34h1v1h-1zm1 0h1v1h-1zm21 1h1v1h-1zm-1 4h1v1h-1zm0 1h1v1h-1zm0 1h1v1h-1zm-7 3h1v1h-1zm7 4h1v1h-1zm0 5h1v1h-1zm-42 1h1v1h-1zm9 0h1v1h-1zm-5 2h1v1h-1zm1 0h1v1h-1zm16 0h1v1h-1zm-14 3h1v1h-1zm17 0h1v1h-1zm12 0h1v1h-1zm-27 1h1v1h-1zm33 4h1v1h-1zm0 1h1v1h-1zm0 1h1v1h-1zm-38 7h2v1h-2zm17 0h1v1h-1zm1 0h1v1h-1zm16 0h2v1h-2zm4 5h1v1h-1zm-8 1h1v1h-1z"/><path fill="#bcc" d="M54 47h1v1h-1zm-25 1h1v1h-1zm24 25h1v1h-1zm-7 9h1v1h-1zm7 0h1v1h-1z"/><path fill="#aba" d="M36 63h1v1h-1zM12 82h1v1h-1z"/><path fill="#d77" d="M29 9h1v1h-1z"/><path fill="#d78" d="M30 9h1v1h-1zm4 13h1v1h-1zm-1 8h1v1h-1z"/><path fill="#d56" d="M31 9h1v1h-1zm-1 7h1v1h-1zm5 1h1v1h-1zm1 1h1v1h-1zm-6 9h1v1h-1z"/><path fill="#666" d="M0 88h1v1H0zm1 0h1v1H1zm63 0h1v1h-1zm1 0h1v1h-1zM1 89h1v1H1zm1 0h1v1H2zm1 0h1v1H3zm1 0h58v1H4zm58 0h1v1h-1zm1 0h1v1h-1zm1 0h1v1h-1z"/><path fill="#264" d="M19 47h1v1h-1zm-6 10h1v1h-1zm17 0h1v1h-1zM12 72h1v1h-1zm17 0h1v1h-1zm24 0h1v1h-1zM14 82h1v1h-1zm3 0h1v1h-1zm14 0h1v1h-1zm20 0h1v1h-1z"/><path fill="#a34" d="M30 22h1v1h-1zm3 9h1v1h-1z"/><path fill="#ded" d="M13 34h1v1h-1zm22 0h1v1h-1zm17 0h1v1h-1zm-24 1h1v1h-1zm1 7h1v1h-1zm0 1h1v1h-1zm8 4h1v1h-1zm-18 1h1v1h-1zm10 4h1v1h-1zm0 15h1v1h-1zm0 1h1v1h-1zm-1 4h1v1h-1zm-16 1h1v1h-1zm17 4h1v1h-1zm7 5h1v1h-1z"/><path fill="#486" d="M11 37h1v1h-1zm3 0h1v1h-1zm0 1h1v1h-1zm15 0h1v1h-1zm24 0h1v1h-1zm-35 5h1v1h-1zm0 1h1v1h-1zm17 0h1v1h-1zm17 0h1v1h-1zm-35 1h1v1h-1zm11 0h1v1h-1zm6 1h1v1h-1zm-20 3h1v1h-1zm3 0h1v1h-1zm2 5h1v1h-1zm17 0h1v1h-1zm17 0h1v1h-1zm1 2h1v1h-1zm-19 1h1v1h-1zm-4 4h1v1h-1zm-17 1h1v1h-1zm14 0h1v1h-1zm-14 1h1v1h-1zm20 3h1v1h-1zm-16 2h1v1h-1zm17 0h1v2h-1zm-17 1h1v1h-1zm18 3h1v1h-1zm10 0h1v1h-1zm-15 1h1v1h-1zm20 0h1v1h-1zm-37 1h1v1h-1zm3 0h1v1h-1zm0 6h1v1h-1z"/><path fill="#aaa" d="M0 2h1v1H0zm65 0h1v1h-1zM1 86h1v1H1zm63 0h1v1h-1zM2 87h1v1H2zm1 0h1v1H3zm1 0h1v1H4zm1 0h56v1H5zm56 0h1v1h-1zm1 0h1v1h-1zm1 0h1v1h-1zM4 88h1v1H4zm1 0h56v1H5zm56 0h1v1h-1z"/><path fill="#fcc" d="M30 8h1v1h-1zm3 9h1v1h-1zm4 1h1v1h-1z"/><path fill="#e99" d="M32 8h1v1h-1zm1 0h1v1h-1zm0 1h1v1h-1zm3 6h1v1h-1zm0 9h1v1h-1z"/><path fill="#a45" d="M34 31h1v1h-1z"/><path fill="#efe" d="M45 35h1v1h-1zm1 18h1v1h-1zm-17 6h1v1h-1zm7 0h1v1h-1zm18 10h1v1h-1zm-17 3h1v1h-1zm-1 1h1v1h-1z"/><path fill="#eff" d="M36 39h1v1h-1zm0 1h1v2h-1zm0 2h1v1h-1zm10 6h1v1h-1zm-10 1h1v3h-1zm14 9h1v1h-1zm-38 1h1v1h-1zm24 5h1v1h-1zm0 1h1v2h-1zm-8 4h1v1h-1zm17 3h1v1h-1zm-9 2h1v3h-1z"/><path fill="#e9a" d="M34 8h1v1h-1zm2 17h1v1h-1z"/><path fill="#c12" d="M29 19h1v1h-1zm2 0h1v1h-1zm4 0h1v1h-1zm-4 6h1v1h-1z"/><path fill="#b88" d="M30 31h1v1h-1z"/><path fill="#cdd" d="M37 35h1v1h-1zm-8 4h1v1h-1zm-17 9h1v1h-1zm17 1h1v1h-1zm24 3h1v1h-1zm-41 1h1v1h-1zm33 1h1v1h-1zm-34 6h1v1h-1zm18 4h1v1h-1zm24 13h1v1h-1zm-34 5h1v1h-1z"/><path fill="#7a8" d="M37 37h1v1h-1zm8 0h1v1h-1zm-31 5h1v1h-1zm0 1h1v1h-1zm39 1h1v1h-1zm-2 1h1v1h-1zm-20 8h1v1h-1zm-17 1h1v1h-1zm15 3h1v1h-1zm-17 6h1v1h-1zm19 5h1v1h-1zm0 10h1v1h-1zm20 2h1v1h-1z"/><path fill="#597" d="M14 35h1v1h-1zm2 0h1v1h-1zm1 0h1v1h-1zm14 0h1v1h-1zm2 0h1v1h-1zm1 0h1v1h-1zm15 0h1v1h-1zm2 0h1v1h-1zm-6 1h1v1h-1zm-14 1h1v1h-1zm0 1h1v1h-1zm0 1h1v1h-1zm0 1h1v1h-1zm-17 1h1v1h-1zm20 1h1v1h-1zm0 1h1v1h-1zm-23 2h1v1h-1zm9 0h1v1h-1zm-3 1h1v1h-1zm14 0h1v1h-1zm0 3h1v1h-1zm0 1h1v1h-1zm-17 2h1v1h-1zm3 0h1v1h-1zm17 1h1v1h-1zm-20 2h1v1h-1zm2 4h1v1h-1zm17 0h1v1h-1zm16 0h1v1h-1zm-36 1h1v1h-1zm2 0h1v1h-1zm3 0h1v1h-1zm1 0h1v1h-1zm11 0h1v1h-1zm6 0h1v1h-1zm14 0h1v1h-1zm2 0h1v1h-1zm1 0h1v1h-1zm-2 1h1v1h-1zm-40 1h1v1h-1zm20 0h1v1h-1zm0 1h1v1h-1zm0 1h1v1h-1zm-14 2h1v1h-1zm17 1h1v1h-1zm-17 1h1v1h-1zm17 0h1v1h-1zm-3 3h1v1h-1zm14 0h1v1h-1zm-30 1h1v1h-1zm34 0h1v1h-1zm-18 2h1v1h-1zm0 1h1v1h-1zm-17 2h1v1h-1zm3 0h1v1h-1zm17 1h1v1h-1zm-3 2h1v1h-1zm18 1h1v1h-1z"/><path fill="#073" d="M52 41h1v1h-1zM13 66h1v1h-1zm17 10h1v1h-1zm22 0h1v1h-1z"/><path fill="#eaa" d="M31 8h1v1h-1zm3 5h1v1h-1zm0 1h1v1h-1zm2 2h1v1h-1zm0 1h1v1h-1zm-2 3h1v1h-1zm0 4h1v1h-1zm0 1h1v1h-1z"/><path fill="#d67" d="M32 9h1v1h-1zm3 0h1v1h-1zm1 0h1v1h-1zm1 0h1v1h-1zm-7 8h1v1h-1zm2 1h2v1h-2z"/><path fill="#fee" d="M32 10h1v1h-1zm6 18h1v1h-1zm-6 1h1v1h-1zm-3 2h1v1h-1z"/></svg>