<svg xmlns="http://www.w3.org/2000/svg" baseProfile="tiny" version="1.2" viewBox="0 0 66 90"><path fill="#164" d="M20 15h1v1h-1zm-3 9h1v1h-1zm17 0h1v1h-1zm-14 3h1v1h-1zm-1 5h1v1h-1zm2 4h1v1h-1zm30 3h1v1h-1zM37 63h1v1h-1zm-25 3h1v1h-1zm5 0h1v1h-1zm15 2h1v1h-1z"/><path fill="#8ba" d="M50 11h1v1h-1zm-29 2h1v1h-1zm-2 9h1v1h-1zm20 0h1v1h-1zm-23 2h1v1h-1zm1 1h1v1h-1zm0 1h1v1h-1zm22 2h1v1h-1zM14 49h1v1h-1zm3 0h1v1h-1zm29 1h1v1h-1zm-21 8h1v1h-1zm-8 1h1v1h-1zm11 0h1v1h-1zm9 0h1v1h-1zm7 0h1v1h-1zm-13 6h1v1h-1zm-1 5h1v1h-1zm7 0h1v1h-1z"/><path fill="#cdd" d="M53 11h1v1h-1zm-24 4h1v1h-1zm5 6h1v1h-1zm12 1h1v1h-1zm-2 3h1v1h-1zm-3 3h1v1h-1zm5 6h1v1h-1zm5 4h1v1h-1zm-40 2h1v1h-1zm-1 13h1v1h-1zm0 9h1v1h-1zm5 0h1v1h-1zm1 0h1v1h-1zm34 0h1v1h-1zm-15 1h1v1h-1zm-25 2h1v1h-1zm18 2h1v1h-1zm6 1h1v1h-1zm3 5h1v1h-1zm-27 1h1v1h-1zm34 2h1v1h-1zm-34 1h1v1h-1z"/><path fill="#7b9" d="M11 12h1v1h-1zm8 0h1v1h-1zm1 0h1v1h-1zm26 0h1v1h-1zm1 0h1v1h-1zm-30 6h1v1h-1zm0 1h1v1h-1zm2 4h1v1h-1zm5 1h1v1h-1zm17 0h1v1h-1zm-20 1h1v1h-1zm-4 8h1v1h-1zm0 1h1v1h-1zm0 1h1v1h-1zm3 0h1v1h-1zm-3 2h1v1h-1zm-1 12h1v1h-1zm33 0h1v1h-1zm-37 1h1v1h-1zm35 0h1v1h-1zm6 0h1v1h-1zm-36 6h1v1h-1zm0 1h1v1h-1zm6 3h1v1h-1zm22 0h1v1h-1zm-19 3h1v1h-1zm-9 1h1v1h-1zm16 2h1v1h-1zm-16 4h1v2h-1zm0 2h1v1h-1zm0 1h1v1h-1zm29 0h1v1h-1zm9 1h1v1h-1z"/><path fill="#6a8" d="M13 12h1v1h-1zm-3 1h1v1h-1zm20 3h1v1h-1zm3 0h1v1h-1zm-14 2h1v1h-1zm9 0h1v1h-1zm-9 1h1v1h-1zm9 0h1v1h-1zm-9 1h1v1h-1zm-7 2h1v1h-1zm14 0h1v1h-1zm22 0h1v1h-1zm-10 1h1v1h-1zm-18 2h1v1h-1zm6 1h1v1h-1zm10 1h1v1h-1zm-17 6h1v1h-1zm-8 17h1v1h-1zm7 0h1v1h-1zm36 0h1v1h-1zm-33 1h1v1h-1zm-4 2h1v1h-1zm26 1h1v1h-1zm1 1h1v1h-1zm-20 2h1v1h-1zm2 2h1v1h-1zm-14 1h1v1h-1zm9 1h1v1h-1zm2 0h1v1h-1zm1 2h1v1h-1zm10 2h1v1h-1zm4 1h1v1h-1zm-19 2h1v1h-1zm0 1h1v1h-1zm10 0h1v1h-1zm-10 1h1v1h-1zm9 0h1v1h-1zm0 1h1v1h-1zm2 0h1v1h-1zm-18 1h1v1h-1zm20 0h1v1h-1zm-13 1h1v1h-1zm2 2h1v1h-1z"/><path fill="#eff" d="M49 13h1v1h-1zm2 2h1v5h-1zm0 5h1v1h-1zm-22 1h1v1h-1zm-18 2h1v1h-1zm4 6h2v1h-2zm36 0h1v2h-1zm0 2h1v5h-1zM15 41h2v1h-2zm36 12h1v5h-1zm-24 5h1v1h-1zm24 0h1v1h-1zm0 9h1v2h-1zm-13 2h1v1h-1zm13 0h1v5h-1zm0 6h1v1h-1zm3 3h1v1h-1z"/><path fill="#7a8" d="M17 14h1v1h-1zm27 12h1v1h-1zm-27 3h1v1h-1zm23 0h1v1h-1zm3 0h1v1h-1zm7 10h1v1h-1zM17 54h1v1h-1zm29 0h1v1h-1zm-27 1h1v1h-1zm19 4h1v1h-1zm2 7h1v1h-1zm-3 6h1v1h-1zm-23 4h1v1h-1z"/><path fill="#999" d="M0 3h1v1H0zm65 0h1v1h-1zM0 4h1v1H0zm65 0h1v1h-1zM3 88h1v1H3zm59 0h1v1h-1z"/><path fill="#052" d="M11 14h1v1h-1zm2 0h1v1h-1zm5 0h1v1h-1zm2 0h1v1h-1zm25 0h1v1h-1zm7 0h1v2h-1zm2 0h1v1h-1zm1 0h1v1h-1zm-43 1h1v1h-1zm1 0h1v1h-1zm5 0h1v1h-1zm1 0h1v1h-1zm28 0h1v1h-1zm6 0h1v1h-1zm-41 1h1v1h-1zm1 0h1v1h-1zm5 0h1v1h-1zm29 0h1v1h-1zm5 0h1v1h-1zm1 0h1v1h-1zm-22 1h1v1h-1zm16 0h1v1h-1zm6 0h1v1h-1zm-24 1h1v1h-1zm5 0h1v1h-1zm-5 1h1v1h-1zm5 0h1v1h-1zm1 0h1v1h-1zm1 0h1v1h-1zm-25 7h1v1h-1zm43 0h1v1h-1zm-43 1h1v1h-1zm1 0h1v1h-1zm10 0h1v1h-1zm20 0h1v1h-1zm1 0h1v1h-1zm10 0h1v1h-1zm1 0h1v1h-1zm-41 1h1v1h-1zm9 0h1v1h-1zm6 0h1v1h-1zm15 0h1v1h-1zm9 0h1v1h-1zm1 0h1v1h-1zm-40 1h1v1h-1zm8 0h1v1h-1zm6 0h1v1h-1zm10 0h1v1h-1zm7 0h1v1h-1zm8 0h1v1h-1zm1 0h1v1h-1zm-40 1h1v1h-1zm5 0h1v2h-1zm1 0h1v1h-1zm1 0h1v1h-1zm5 0h1v1h-1zm14 0h1v1h-1zm6 0h1v1h-1zm7 0h1v1h-1zm-33 1h1v1h-1zm5 0h1v1h-1zm22 0h1v1h-1zm-25 6h1v1h-1zm23 0h1v1h-1zm-33 1h1v1h-1zm1 0h1v1h-1zm7 0h1v1h-1zm27 0h1v1h-1zm7 0h1v1h-1zm1 0h2v1h-2zm-37 1h1v1h-1zm31 0h1v1h-1zm4 0h1v1h-1zM11 52h1v1h-1zm2 0h1v1h-1zm5 0h1v1h-1zm29 0h1v1h-1zm5 0h1v1h-1zm1 0h1v1h-1zm1 0h1v1h-1zm-42 1h1v1h-1zm1 0h1v1h-1zm5 0h1v2h-1zm1 0h1v1h-1zm26 0h1v1h-1zm1 0h1v1h-1zm1 0h1v1h-1zm5 0h1v1h-1zm1 0h1v1h-1zm-40 1h1v1h-1zm31 0h1v1h-1zm3 0h1v1h-1zm5 0h1v1h-1zm1 0h1v1h-1zm-35 1h1v1h-1zm35 0h1v1h-1zm-42 9h1v1h-1zm8 0h1v1h-1zm4 0h1v1h-1zm19 0h1v1h-1zm3 0h1v1h-1zm1 0h1v1h-1zm8 0h1v1h-1zm-42 1h1v1h-1zm13 0h1v1h-1zm15 0h1v1h-1zm7 0h1v1h-1zm6 0h1v1h-1zm-40 1h1v1h-1zm5 0h1v2h-1zm8 0h1v1h-1zm13 0h1v1h-1zm8 0h1v1h-1zm5 0h1v1h-1zm1 0h1v1h-1zm-40 1h1v1h-1zm34 0h1v1h-1zm5 0h1v1h-1zm1 0h1v1h-1zm-40 1h1v1h-1zm39 0h1v1h-1zm-23 4h1v1h-1zm6 0h1v1h-1zm1 0h1v1h-1zm-5 1h1v1h-1zm1 0h1v1h-1zm1 0h1v1h-1zm-22 3h1v1h-1zm1 0h1v1h-1zm7 0h1v1h-1zm1 0h1v1h-1zm25 0h1v1h-1zm1 0h1v1h-1zm7 0h1v1h-1zm1 0h1v1h-1zm-40 1h1v1h-1zm3 0h1v1h-1zm31 0h1v1h-1z"/><path fill="#375" d="M48 14h1v1h-1zm-36 3h1v1h-1zm21 6h1v1h-1zm11 5h1v1h-1zm-32 1h1v1h-1zm8 0h1v1h-1zm25 2h1v1h-1zm-21 1h1v1h-1zm-3 6h1v1h-1zm27 14h1v1h-1zm-28 2h1v1h-1zm6 7h1v1h-1zm-1 5h1v1h-1zm23 1h1v1h-1z"/><path fill="#042" d="M11 15h1v1h-1zm35 0h1v1h-1zm8 0h1v1h-1zm-24 3h1v1h-1zm-2 11h1v1h-1zm-2 1h1v1h-1zm1 0h1v1h-1zm11 0h1v1h-1zm-18 8h1v1h-1zm25 0h1v1h-1zm-34 1h1v1h-1zm1 0h1v1h-1zm1 0h1v1h-1zm5 0h1v1h-1zm1 0h1v1h-1zm27 0h1v1h-1zm1 0h1v1h-1zm6 0h1v1h-1zm1 0h1v1h-1zm-40 1h1v1h-1zm1 0h1v1h-1zm1 0h1v1h-1zm1 0h1v1h-1zm31 0h1v1h-1zm1 0h1v1h-1zm1 0h1v1h-1zm1 0h1v1h-1zM20 64h1v1h-1zm1 0h1v1h-1zm1 0h1v1h-1zm21 0h1v1h-1zm-24 1h1v1h-1zm5 0h1v1h-1zm17 0h1v1h-1zm5 0h1v1h-1zm-17 8h1v1h-1zm1 0h1v1h-1zm4 0h1v1h-1zm1 0h1v1h-1zm1 0h1v1h-1zm-24 4h1v1h-1zm1 0h1v1h-1zm5 0h1v1h-1zm1 0h1v1h-1zm27 0h1v1h-1zm1 0h1v1h-1zm5 0h1v1h-1zm1 0h1v1h-1zm-38 1h1v1h-1zm1 0h1v1h-1z"/><path fill="#ded" d="M12 11h1v1h-1zm24 4h1v1h-1zm-9 10h1v1h-1zm7 0h1v1h-1zm6 1h1v1h-1zm9 1h1v1h-1zm-7 4h1v1h-1zm-19 3h1v1h-1zm31 1h1v1h-1zm-8 14h1v1h-1zm-3 3h1v1h-1zm-32 2h1v1h-1zm10 2h1v1h-1zm20 6h1v1h-1zm3 0h1v1h-1zm-17 2h1v1h-1zm9 1h1v1h-1zm-10 3h1v1h-1zm10 0h1v1h-1zm-4 1h1v1h-1zm3 0h1v1h-1z"/><path fill="#9ca" d="M51 11h1v1h-1zM17 21h1v1h-1zm8 2h1v1h-1zm-6 11h1v1h-1zm15 33h1v1h-1z"/><path fill="#073" d="M18 20h1v1h-1zm14 2h1v1h-1zM22 55h1v1h-1zm26 6h1v1h-1zm-15 6h1v1h-1zm-3 5h1v1h-1z"/><path fill="#143" d="M34 74h1v1h-1zm-20 4h1v1h-1z"/><path fill="#ddd" d="M3 0h1v1H3zm1 0h1v1H4zm1 0h56v1H5zm56 0h1v1h-1zm1 0h1v1h-1zM2 1h1v1H2zm61 0h1v1h-1zM1 6h1v1H1zm63 0h1v1h-1zM1 7h1v1H1zm63 0h1v1h-1zM1 8h1v1H1zm63 0h1v1h-1zM1 9h1v73H1zm63 0h1v73h-1zM44 39h1v1h-1zM1 82h1v1H1zm63 0h1v1h-1zM1 83h1v1H1zm63 0h1v1h-1zM2 84h1v1H2zm61 0h1v1h-1zM3 85h1v1H3zm1 0h1v1H4zm1 0h1v1H5zm1 0h1v1H6zm1 0h2v1H7zm50 0h2v1h-2zm2 0h1v1h-1zm1 0h1v1h-1zm1 0h1v1h-1zm1 0h1v1h-1z"/><path fill="#053" d="M19 14h1v1h-1zm27 0h1v1h-1zm1 0h1v1h-1zm6 0h1v1h-1zm-40 3h1v1h-1zm5 0h1v1h-1zm15 0h1v1h-1zm2 1h1v1h-1zm1 2h1v1h-1zm19 6h1v1h-1zm-9 1h1v1h-1zm-34 1h1v1h-1zm6 1h1v1h-1zm20 0h1v1h-1zm2 1h1v1h-1zm13 0h1v1h-1zm-12 2h1v1h-1zm6 0h1v1h-1zm-27 5h1v1h-1zm-6 2h1v1h-1zm-2 13h1v1h-1zm43 0h1v1h-1zm-44 1h1v1h-1zm9 0h1v1h-1zm24 0h1v1h-1zm10 0h1v1h-1zm-42 1h1v1h-1zm9 0h1v1h-1zm-8 1h1v1h-1zm5 10h1v1h-1zm0 3h1v1h-1zm29 0h1v1h-1zm0 8h1v1h-1zm8 0h1v1h-1zm-4 1h1v1h-1z"/><path fill="#586" d="M46 16h1v1h-1zm-1 49h1v1h-1zm-17 7h1v1h-1zm-8 5h1v1h-1zm25 0h1v1h-1z"/><path fill="#163" d="M32 17h1v1h-1zm9 9h1v1h-1zm-22 2h1v1h-1zm2 0h1v1h-1zm21 0h1v1h-1zm4 4h1v1h-1zM22 56h1v1h-1zm5 6h1v1h-1zm28 2h1v1h-1z"/><path fill="#bcb" d="M55 27h1v1h-1zm-29 4h1v1h-1zm-16 8h1v1h-1zm33 26h1v1h-1zm11 1h1v1h-1z"/><path fill="#798" d="M31 18h1v1h-1zm-9 47h1v1h-1zm24 1h1v1h-1zm-7 1h1v1h-1z"/><path fill="#5a8" d="M26 28h1v1h-1zm-6 32h1v1h-1zm1 0h1v1h-1zm15 9h1v1h-1zm-24 4h1v1h-1z"/><path fill="#ccc" d="M1 0h1v1H1zm1 0h1v1H2zm61 0h1v1h-1zm1 0h1v1h-1zM1 2h1v1H1zm63 0h1v1h-1zM1 84h1v1H1zm63 0h1v1h-1zM2 85h1v1H2zm61 0h1v1h-1zM4 86h1v1H4zm1 0h1v1H5zm1 0h1v1H6zm1 0h52v1H7zm52 0h1v1h-1zm1 0h1v1h-1zm1 0h1v1h-1z"/><path fill="#bbb" d="M0 1h1v1H0zm1 0h1v1H1zm63 0h1v1h-1zm1 0h1v1h-1zM1 85h1v1H1zm63 0h1v1h-1zM2 86h1v1H2zm1 0h1v1H3zm59 0h1v1h-1zm1 0h1v1h-1z"/><path fill="#efe" d="M46 11h1v1h-1zm-26 5h1v1h-1zm6 5h1v1h-1zm11 4h1v1h-1zm-7 1h1v1h-1zm21 0h1v1h-1zm-25 1h1v1h-1zm10 3h1v1h-1zm7 2h1v1h-1zm-22 1h1v1h-1zm3 0h1v1h-1zm-13 2h1v1h-1zm32 3h1v1h-1zm11 2h1v1h-1zm-43 9h1v1h-1zm9 6h1v1h-1zm4 1h1v1h-1zm21 1h1v1h-1zm-7 1h1v1h-1zm-14 4h1v1h-1zm6 1h1v1h-1zm10 0h1v1h-1zm-6 1h1v1h-1zm3 0h1v1h-1zm-16 1h1v1h-1zm4 2h1v1h-1zm6 1h1v1h-1z"/><path fill="#275" d="M16 12h1v1h-1zm31 1h1v1h-1zm-19 8h1v1h-1zm19 0h1v1h-1zm5 0h1v1h-1zm-34 3h1v1h-1zm-6 1h1v1h-1zm9 1h1v1h-1zm-8 9h1v1h-1zm0 2h1v1h-1zm36 2h1v1h-1zm5 12h1v1h-1zm-36 8h1v1h-1zm27 0h1v1h-1zm-21 1h1v1h-1zm14 0h1v1h-1zm12 1h1v1h-1zm-2 1h1v1h-1zm-22 2h1v1h-1zm9 0h1v1h-1zm5 0h1v1h-1zm-25 2h2v1h-2zm19 0h1v1h-1zm15 0h1v1h-1zm1 0h1v1h-1zm1 0h1v1h-1zm-3 2h1v1h-1zm0 1h1v1h-1zm-19 2h1v1h-1zm6 0h1v1h-1zm-22 1h1v1h-1zm0 3h1v1h-1zm5 0h1v1h-1zm29 0h1v1h-1zm6 0h1v1h-1zm-38 2h1v1h-1z"/><path fill="#497" d="M48 12h1v1h-1zm-36 9h1v1h-1zm0 2h1v1h-1zm27 0h1v1h-1zm8 0h1v1h-1zm4 0h1v1h-1zm-40 1h1v1h-1zm43 0h1v1h-1zm-1 11h1v1h-1zm-42 1h1v1h-1zm43 0h1v1h-1zm-6 1h1v1h-1zM19 51h1v1h-1zm25 0h1v1h-1zm-32 8h1v1h-1zm12 0h1v1h-1zm22 0h1v1h-1zm-34 2h1v1h-1zm7 0h1v1h-1zm24 0h1v1h-1zm-20 1h1v1h-1zm-13 1h1v1h-1zm2 6h1v1h-1zm22 0h1v1h-1zm-22 1h1v1h-1zm17 0h1v1h-1zm24 3h1v2h-1zm-34 1h1v1h-1z"/><path fill="#264" d="M19 16h1v1h-1zm15 4h1v1h-1zm3 10h1v1h-1zM13 40h1v1h-1zm5 0h1v1h-1zm29 0h1v1h-1zM21 55h1v1h-1zm21 10h1v1h-1zm12 0h1v1h-1zm-28 2h1v1h-1zm25 11h1v1h-1z"/><path fill="#777" d="M0 84h1v1H0zm65 0h1v1h-1zM0 85h1v1H0zm65 0h1v1h-1zM0 86h1v1H0zm65 0h1v1h-1zM0 87h1v1H0zm65 0h1v1h-1z"/><path fill="#666" d="M0 88h1v1H0zm1 0h1v1H1zm63 0h1v1h-1zm1 0h1v1h-1zM1 89h1v1H1zm1 0h1v1H2zm1 0h1v1H3zm1 0h58v1H4zm58 0h1v1h-1zm1 0h1v1h-1zm1 0h1v1h-1z"/><path fill="#aaa" d="M0 2h1v1H0zm65 0h1v1h-1zM1 86h1v1H1zm63 0h1v1h-1zM2 87h1v1H2zm1 0h1v1H3zm1 0h1v1H4zm1 0h56v1H5zm56 0h1v1h-1zm1 0h1v1h-1zm1 0h1v1h-1zM4 88h1v1H4zm1 0h56v1H5zm56 0h1v1h-1z"/><path fill="#285" d="M49 12h1v1h-1zm-38 1h1v1h-1zm43 0h1v1h-1zm-19 4h1v1h-1zm-17 4h1v1h-1zm9 0h1v1h-1zm26 1h1v1h-1zm-1 1h1v1h-1zm-14 3h1v1h-1zm-16 7h1v1h-1zm31 1h1v1h-1zm-35 1h1v1h-1zm-5 1h1v1h-1zm-1 1h1v1h-1zm41 0h1v1h-1zM17 50h1v1h-1zm-5 1h1v1h-1zm41 0h1v1h-1zm-6 6h1v1h-1zm-29 1h1v1h-1zm28 0h1v1h-1zm-6 1h1v1h-1zm12 0h1v1h-1zm0 2h1v1h-1zm-9 1h1v1h-1zm3 0h1v1h-1zm-21 2h1v1h-1zm12 4h1v1h-1zm0 1h1v1h-1zm-1 1h1v1h-1zm12 0h1v1h-1zm0 1h1v1h-1zm-30 1h1v1h-1zm30 0h1v1h-1zm-35 1h1v1h-1zm0 1h1v1h-1zm-1 1h1v1h-1zm38 2h1v1h-1z"/><path fill="#063" d="M13 13h1v1h-1zm35 0h1v1h-1zm4 0h1v1h-1zm-40 1h1v1h-1zm17 3h1v1h-1zm1 0h1v1h-1zm4 0h1v1h-1zm18 0h1v1h-1zm-39 1h1v1h-1zm5 0h1v1h-1zm18 0h1v1h-1zm11 0h1v1h-1zm5 0h1v1h-1zm1 0h1v1h-1zm-40 1h1v1h-1zm5 0h1v1h-1zm29 0h1v1h-1zm5 0h1v1h-1zm1 0h1v1h-1zm-25 1h1v1h-1zm19 0h1v1h-1zm5 0h1v1h-1zm1 0h1v1h-1zm-16 1h1v1h-1zm-4 1h1v1h-1zm-2 1h1v1h-1zm3 0h1v1h-1zm-4 1h1v1h-1zm22 0h1v1h-1zm-39 1h1v1h-1zm5 0h1v1h-1zm7 0h1v1h-1zm10 0h1v1h-1zm4 0h1v1h-1zm1 0h1v1h-1zm12 0h1v1h-1zm3 0h1v1h-1zm-43 1h1v1h-1zm1 0h1v1h-1zm5 0h1v2h-1zm1 0h1v1h-1zm4 0h1v1h-1zm13 0h1v1h-1zm6 0h1v1h-1zm4 0h1v1h-1zm1 0h1v1h-1zm5 0h1v2h-1zm1 0h1v1h-1zm-40 1h1v1h-1zm6 0h1v1h-1zm9 0h1v1h-1zm19 0h1v1h-1zm-33 1h1v1h-1zm1 0h2v1h-2zm2 0h2v1h-2zm20 0h1v1h-1zm10 0h1v1h-1zm1 0h1v1h-1zm1 0h1v1h-1zm1 0h1v1h-1zm1 0h1v1h-1zm-25 1h1v1h-1zm21 0h1v1h-1zm0 1h1v1h-1zm-34 1h1v1h-1zm28 0h1v1h-1zm6 0h1v1h-1zm5 0h1v1h-1zm1 0h1v1h-1zm-40 1h1v1h-1zm5 0h1v1h-1zm5 0h1v1h-1zm29 0h1v1h-1zm1 0h1v1h-1zm-35 1h1v1h-1zm24 0h1v1h-1zm5 0h1v1h-1zm5 0h1v1h-1zm1 0h1v1h-1zm-31 1h1v1h-1zm21 0h1v1h-1zm9 0h1v1h-1zm-8 2h1v1h-1zm-25 1h1v1h-1zm26 0h1v1h-1zm10 0h1v1h-1zm-42 1h1v1h-1zm5 0h1v1h-1zm29 0h1v1h-1zm5 0h1v1h-1zM13 51h1v1h-1zm5 0h1v1h-1zm30 0h1v1h-1zm4 0h1v1h-1zm3 0h1v1h-1zm-36 1h1v1h-1zm1 0h1v1h-1zm24 0h1v1h-1zm1 0h1v1h-1zm1 0h1v1h-1zm-3 3h1v1h-1zm4 0h1v1h-1zm5 0h1v1h-1zm-39 1h1v1h-1zm5 0h1v1h-1zm34 0h1v1h-1zm1 0h1v1h-1zm-40 1h1v1h-1zm39 0h1v1h-1zm1 0h1v1h-1zm-1 1h1v1h-1zm1 0h1v1h-1zm-6 1h1v1h-1zm-21 1h1v1h-1zm13 0h1v1h-1zm2 0h1v1h-1zm-24 1h1v1h-1zm10 0h1v1h-1zm1 0h1v1h-1zm9 0h1v1h-1zm1 0h1v1h-1zm-25 1h1v1h-1zm5 0h1v1h-1zm10 0h1v1h-1zm9 0h1v1h-1zm15 0h1v1h-1zm-41 1h1v1h-1zm2 0h1v1h-1zm5 0h1v1h-1zm1 0h1v1h-1zm1 0h1v1h-1zm1 0h1v1h-1zm1 0h1v1h-1zm5 0h1v1h-1zm1 0h1v1h-1zm8 0h1v1h-1zm2 0h1v1h-1zm4 0h1v1h-1zm1 0h1v1h-1zm2 0h1v1h-1zm1 0h1v1h-1zm1 0h1v1h-1zm5 0h1v1h-1zm2 0h1v1h-1zm1 0h1v1h-1zm-43 1h1v1h-1zm1 0h1v1h-1zm5 0h1v1h-1zm6 0h1v1h-1zm5 0h1v1h-1zm10 0h1v1h-1zm2 0h1v1h-1zm6 0h1v1h-1zm5 0h1v1h-1zm1 0h1v1h-1zm-40 1h1v1h-1zm17 0h1v1h-1zm18 0h1v1h-1zm4 0h1v1h-1zm-4 1h1v1h-1zm-21 1h1v1h-1zm5 0h1v1h-1zm6 0h1v1h-1zm-11 1h1v1h-1zm6 0h1v1h-1zm20 0h1v1h-1zm-40 1h1v1h-1zm5 0h1v1h-1zm15 0h1v1h-1zm14 0h1v1h-1zm5 0h1v1h-1zm1 0h1v1h-1zm-40 1h1v1h-1zm5 0h1v1h-1zm29 0h1v1h-1zm5 0h2v1h-2zm-16 1h1v1h-1zm16 0h1v1h-1zm-18 1h1v1h-1zm18 0h1v1h-1zm-41 3h1v1h-1zm9 0h1v1h-1zm25 0h1v1h-1zm9 0h1v1h-1zm1 0h1v1h-1zm-42 1h1v1h-1zm5 0h1v1h-1zm34 0h1v1h-1zm-3 1h1v1h-1z"/><path fill="#496" d="M12 20h1v1h-1zm1 2h1v1h-1zm5 0h1v1h-1zm-3 1h1v1h-1zm1 0h1v1h-1zm2 0h1v1h-1zm35 0h1v1h-1zm-28 1h1v1h-1zm12 2h1v1h-1zm-25 7h1v1h-1zm36 3h1v1h-1zm-32 3h1v1h-1zm4 12h1v1h-1zm23 5h1v1h-1zm-31 1h1v1h-1zm7 0h1v1h-1zm-7 1h1v1h-1zm29 0h1v1h-1zm7 1h1v1h-1zm-35 1h1v1h-1zm31 0h1v1h-1zm-2 1h1v1h-1zm11 0h1v1h-1zm-33 1h1v1h-1zm27 11h1v1h-1zm-1 1h1v1h-1zm1 0h1v1h-1zm7 0h1v1h-1zm-6 1h1v1h-1z"/><path fill="#587" d="M44 30h1v1h-1zM10 52h1v1h-1zm0 12h1v1h-1zm10 1h1v1h-1zm12 9h1v1h-1z"/><path fill="#687" d="M18 78h1v1h-1zm29 0h1v1h-1z"/><path fill="#253" d="M31 74h1v1h-1z"/><path fill="#eee" d="M3 1h1v1H3zm59 0h1v1h-1zM2 2h1v1H2zm61 0h1v1h-1zM1 3h1v1H1zm63 0h1v1h-1zM1 4h1v1H1zm63 0h1v1h-1zM1 5h1v1H1zm63 0h1v1h-1zM2 6h1v1H2zm61 0h1v1h-1zM2 7h1v1H2zm61 0h1v1h-1zM2 8h1v74H2zm61 0h1v74h-1zm-53 4h1v1h-1zm41 2h1v1h-1zm-30 1h1v1h-1zm17 5h1v1h-1zm-5 4h1v1h-1zm17 3h1v1h-1zm-26 1h1v1h-1zm3 3h1v1h-1zm18 1h1v1h-1zm6 4h1v1h-1zm0 1h1v1h-1zm-30 2h1v1h-1zm28 2h1v1h-1zm1 0h1v1h-1zm4 8h1v1h-1zm-33 1h1v1h-1zm30 2h1v1h-1zm-11 5h1v1h-1zm2 1h1v1h-1zm-16 4h1v1h-1zm29 3h1v1h-1zm-31 1h1v1h-1zm5 2h1v1h-1zm-9 5h1v1h-1zm29 3h1v1h-1zM2 82h1v1H2zm61 0h1v1h-1zM2 83h1v1H2zm61 0h1v1h-1zM3 84h1v1H3zm1 0h1v1H4zm57 0h1v1h-1zm1 0h1v1h-1zM9 85h48v1H9z"/><path fill="#8b9" d="M12 12h1v1h-1zm41 0h1v1h-1zm-16 6h1v1h-1zm0 1h1v1h-1zm-20 1h1v1h-1zm20 2h1v1h-1zm4 8h1v1h-1zm3 4h1v1h-1zm-27 2h1v1h-1zm-3 2h1v1h-1zm37 11h1v1h-1zm-32 1h1v1h-1zm-2 8h1v1h-1zm19 3h1v1h-1zm10 0h1v1h-1zm5 1h1v1h-1zm-22 3h1v1h-1zm-10 7h1v1h-1zm-2 2h1v1h-1zm0 1h1v1h-1z"/><path fill="#aba" d="M55 15h1v1h-1z"/><path fill="#697" d="M30 19h1v1h-1zm20 31h1v1h-1zm-5 4h1v1h-1z"/><path fill="#475" d="M25 31h1v1h-1zm8 43h1v1h-1zm-20 4h1v1h-1z"/><path fill="#abb" d="M55 39h1v1h-1z"/><path fill="#153" d="M40 31h1v1h-1zm4 7h1v1h-1zM11 65h1v1h-1zm12 0h1v1h-1zm7 9h1v1h-1zm-19 3h1v1h-1zm43 0h1v1h-1zm-5 1h1v1h-1zm1 0h1v1h-1z"/><path fill="#adc" d="M46 71h1v1h-1z"/><path fill="#ced" d="M44 13h1v1h-1zm-7 3h1v1h-1zm-10 4h1v1h-1zm-5 4h1v1h-1zm14 0h1v1h-1zm19 0h1v1h-1zm-27 1h1v1h-1zm-6 7h1v1h-1zM10 50h1v1h-1zm13 5h1v1h-1zm18 1h1v1h-1zm-2 2h1v1h-1zm-17 2h1v1h-1zm7 0h1v1h-1z"/><path fill="#597" d="M29 16h1v1h-1zm3 0h1v1h-1zm4 0h1v1h-1zm-8 1h1v1h-1zm4 4h1v1h-1zm6 0h1v1h-1zm10 0h1v1h-1zm-17 1h1v1h-1zm18 1h1v1h-1zm1 0h1v1h-1zm-36 1h1v1h-1zm25 0h1v1h-1zm1 0h1v1h-1zm6 0h1v1h-1zm-36 1h1v1h-1zm13 0h1v1h-1zm19 0h1v1h-1zm3 0h1v1h-1zm-31 2h1v1h-1zm3 0h1v1h-1zm4 0h1v1h-1zm25 1h1v1h-1zm-27 1h1v1h-1zm6 0h1v1h-1zm20 0h1v1h-1zm-2 4h1v1h-1zm-31 1h1v1h-1zm9 0h1v1h-1zm-9 1h1v1h-1zm31 0h1v1h-1zm-31 1h1v1h-1zm34 0h1v1h-1zm7 0h1v1h-1zm-43 1h1v1h-1zm5 2h1v1h-1zm0 11h1v1h-1zm37 0h1v1h-1zm-42 1h1v1h-1zm35 0h1v1h-1zm1 0h1v1h-1zm-5 6h1v1h-1zm4 1h1v1h-1zm-6 1h1v1h-1zm1 1h1v1h-1zm8 0h1v1h-1zm-26 1h1v1h-1zm23 1h1v1h-1zm-15 2h1v1h-1zm-16 1h1v1h-1zm16 1h1v1h-1zm5 4h1v1h-1zm-23 1h1v1h-1zm0 3h1v1h-1zm33 0h1v1h-1z"/><g fill="#fff"><path d="M4 1h1v1H4zm1 0h1v1H5zm1 0h54v1H6zm54 0h1v1h-1zm1 0h1v1h-1zM3 2h1v1H3zm1 0h1v1H4zm1 0h56v1H5zm56 0h1v1h-1zm1 0h1v1h-1zM2 3h1v1H2zm1 0h1v1H3zm1 0h2v1H4zm2 0h54v1H6zm54 0h2v1h-2zm2 0h1v1h-1zm1 0h1v1h-1zM2 4h1v2H2zm1 0h1v3H3zm1 0h1v1H4zm1 0h56v7H5zm56 0h1v1h-1zm1 0h1v3h-1zm1 0h1v2h-1z"/><path d="M4 5h58v2H4zM3 7h1v1H3zm1 0h1v1H4zm57 0h1v1h-1zm1 0h1v1h-1zM3 8h1v73H3zm1 0h1v73H4zm57 0h1v74h-1zm1 0h1v73h-1zM5 11h6v1H5zm6 0h1v1h-1zm9 0h1v1h-1zm1 0h25v1H21zm33 0h1v1h-1zm1 0h6v1h-6zM5 12h5v70H5zm16 0h1v1h-1zm1 0h23v1H22zm34 0h5v70h-5zm-41 1h1v10h-1zm1 0h1v1h-1zm6 0h22v2H22zm28 0h1v10h-1zm-34 1h1v9h-1z"/><path d="M49 14h2v9h-2zm-27 1h7v1h-7zm15 0h7v1h-7zm7 0h1v1h-1zm-34 1h1v8h-1zm11 0h7v4h-7zm17 0h7v4h-7zm7 0h1v1h-1zm10 0h6v8h-6zm-44 1h1v6h-1z"/><path d="M20 17h8v3h-8zm25 0h1v7h-1zm9 0h1v1h-1zm-22 1h1v1h-1zm22 0h7v5h-7zm-23 1h2v1h-2zm-11 1h7v1h-7zm10 0h1v1h-1zm1 0h1v1h-1z"/><path d="M39 20h7v1h-7zm-19 1h6v1h-6zm10 0h1v1h-1zm1 0h1v1h-1zm4 0h1v2h-1zm4 0h1v1h-1zm1 0h6v1h-6zm11 0h1v1h-1zm-31 1h5v1h-5zm5 0h1v1h-1zm4 0h1v2h-1zm1 0h1v1h-1zm6 0h1v2h-1zm4 0h1v1h-1zm1 0h5v1h-5zm10 0h1v1h-1zm-31 1h1v1h-1zm1 0h3v1h-3zm3 0h1v1h-1z"/><path d="M28 23h2v1h-2zm9 0h1v2h-1zm4 0h1v1h-1zm1 0h4v1h-4zm-21 1h1v1h-1zm6 0h2v1h-2zm5 0h1v41h-1zm6 0h1v1h-1zm6 0h1v1h-1zm-29 1h2v2h-2zm16 0h1v1h-1zm2 0h1v40h-1zm16 0h2v2h-2zm2 0h1v1h-1zm-26 1h1v1h-1z"/><path d="M31 26h4v38h-4zm-7 1h1v1h-1zm1 0h1v1h-1z"/><path d="M30 27h6v36h-6zm9 0h1v1h-1zm1 0h1v2h-1zm-30 1h1v8h-1zm15 0h1v1h-1zm20 0h1v1h-1zm10 0h6v8h-6zm-44 1h1v6h-1zm38 0h2v9h-2zm5 0h1v1h-1zm-39 1h2v8h-2zm7 0h1v2h-1zm1 0h1v1h-1z"/><path d="M29 30h7v29h-7zm13 0h1v1h-1zm1 0h1v1h-1zm11 0h7v5h-7zm-33 1h2v1h-2z"/><path d="M28 31h9v27h-9zm9 0h1v1h-1zm6 0h1v1h-1zm1 0h1v1h-1zm-24 1h1v1h-1zm1 0h1v1h-1zm4 0h1v1h-1z"/><path d="M26 32h14v26H26zm18 0h1v1h-1zm-24 1h1v1h-1z"/><path d="M25 33h16v24H25zm19 0h1v1h-1zm1 0h1v1h-1zm-25 1h1v1h-1z"/><path d="M24 34h18v22H24zm21 0h1v1h-1z"/><path d="M23 35h19v20H23zm19 0h1v1h-1z"/><path d="M22 36h21v1H22zm0 1h1v1h-1zm20 0h1v18h-1zm-27 1h1v1h-1zm1 0h1v1h-1z"/><path d="M22 38h21v16H22zm27 0h1v1h-1zm1 0h1v1h-1zm-7 1h1v12h-1zm-33 1h1v10h-1zm10 0h1v1h-1z"/><path d="M21 40h24v10H21zm24 0h1v1h-1zm10 0h6v10h-6zm-44 1h3v8h-3zm3 0h1v1h-1zm3 0h1v1h-1z"/><path d="M18 41h30v8H18zm30 0h1v1h-1zm3 0h1v1h-1zm1 0h9v8h-9z"/><path d="M14 42h47v6H14zm0 6h1v1h-1zm1 0h1v1h-1zm1 0h1v1h-1zm1 0h31v1H17zm31 0h1v1h-1zm1 0h1v1h-1zm1 0h1v1h-1zm1 0h1v1h-1zm-31 1h1v1h-1zm25 0h1v1h-1zm-30 2h2v10h-2zm28 0h1v1h-1zm6 0h1v1h-1zm1 0h1v10h-1z"/><path d="M49 52h2v9h-2zm-39 2h1v8h-1zm45 0h6v8h-6zm-44 1h1v6h-1zm34 0h1v2h-1z"/><path d="M54 55h7v5h-7zm-34 1h1v1h-1zm24 0h1v1h-1zm-24 1h1v1h-1zm1 0h1v2h-1zm4 0h1v1h-1zm18 0h1v1h-1zm1 0h1v1h-1zm-22 1h1v2h-1zm6 0h1v1h-1zm8 0h1v1h-1zm1 0h1v1h-1zm6 0h1v1h-1zm1 0h1v1h-1zm-21 1h1v1h-1zm6 0h1v1h-1zm7 0h1v1h-1zm6 0h1v1h-1zm1 0h1v1h-1zm8 0h1v1h-1zm0 1h1v1h-1zm3 0h1v1h-1zm-30 1h1v1h-1zm1 0h1v1h-1zm15 0h1v2h-1zm5 0h1v1h-1zm-20 1h1v1h-1zm14 0h1v1h-1zm-24 1h2v2h-2zm10 0h1v1h-1zm24 0h3v1h-3zm-18 1h1v1h-1zm18 0h2v1h-2zm2 0h1v1h-1zm-24 1h2v1h-2zm5 0h1v1h-1zm1 0h1v1h-1zm4 0h1v2h-1zm1 0h1v1h-1zm6 0h1v1h-1zm-34 1h1v8h-1zm1 0h1v1h-1zm9 0h4v7h-4zm8 0h1v1h-1zm1 0h1v1h-1z"/><path d="M36 66h2v1h-2zm5 0h1v1h-1zm1 0h4v7h-4zm13 0h6v8h-6zm-44 1h1v6h-1zm4 0h2v9h-2zm9 0h1v17h-1zm5 0h1v1h-1zm1 0h1v1h-1zm5 0h2v1h-2z"/><path d="M40 67h6v6h-6zm9 0h2v9h-2zm5 0h1v1h-1zm-29 1h1v16h-1zm5 0h1v1h-1zm5 0h1v1h-1zm4 0h1v1h-1zm15 0h7v4h-7zm-28 1h1v15h-1zm4 0h1v1h-1zm1 0h1v1h-1z"/><path d="M39 69h7v4h-7zm-12 1h1v14h-1zm4 0h1v1h-1zm1 0h1v1h-1z"/><path d="M38 70h8v3h-8zm-6 1h1v1h-1zm22 1h1v1h-1zm-33 1h7v1h-7zm17 0h7v1h-7zm7 0h1v1h-1zm-23 1h6v10h-6zm6 0h1v1h-1zm9 0h7v10h-7zm7 0h1v1h-1zm7 0h1v1h-1z"/><path d="M28 75h16v9H28zm-13 1h1v1h-1zm1 0h1v1h-1zm34 0h1v1h-1zm-29 1h1v1h-1zm23 0h1v7h-1zm-34 1h1v6h-1zm1 0h1v1h-1z"/><path d="M20 78h26v6H20zm35 0h6v4h-6z"/><path d="M11 79h50v3H11zm-8 2h1v1H3zm1 0h1v2H4zm58 0h1v1h-1zM3 82h1v1H3zm2 0h1v1H5zm1 0h54v1H6zm54 0h1v1h-1zm1 0h1v1h-1zm1 0h1v1h-1zM3 83h1v1H3zm1 0h1v1H4zm1 0h1v1H5zm1 0h1v1H6zm1 0h52v1H7zm52 0h1v1h-1zm1 0h1v1h-1zm1 0h1v1h-1zm1 0h1v1h-1zM5 84h1v1H5zm1 0h1v1H6zm1 0h1v1H7zm1 0h50v1H8zm50 0h1v1h-1zm1 0h1v1h-1zm1 0h1v1h-1z"/></g><path fill="#888" d="M0 5h1v1H0zm65 0h1v1h-1zM0 6h1v1H0zm65 0h1v1h-1zM0 7h1v1H0zm65 0h1v1h-1zM0 8h1v73H0zm65 0h1v73h-1zM0 81h1v2H0zm65 0h1v2h-1zM0 83h1v1H0zm65 0h1v1h-1zM1 87h1v1H1zm63 0h1v1h-1zM2 88h1v1H2zm61 0h1v1h-1z"/><path fill="#9cb" d="M14 11h1v1h-1zm3 0h1v1h-1zm0 11h1v1h-1zm25 2h1v1h-1zm8 0h1v1h-1zm-36 8h1v1h-1zm0 1h1v3h-1z"/><path fill="#acb" d="M48 11h1v1h-1zm4 0h1v1h-1zm-7 1h1v1h-1zm-31 2h1v1h-1zm-4 1h1v1h-1zm4 0h1v1h-1zm16 0h1v1h-1zm1 0h1v1h-1zm3 0h1v1h-1zm1 0h1v1h-1zm-21 1h1v1h-1zm40 0h1v1h-1zm-40 1h1v1h-1zm0 1h1v2h-1zm19 0h1v1h-1zm0 1h1v1h-1zm3 2h1v1h-1zm-1 2h1v1h-1zm5 0h1v1h-1zm6 0h1v1h-1zm-31 1h1v1h-1zm5 0h1v1h-1zm3 0h1v1h-1zm6 0h1v1h-1zm22 3h1v1h-1zm3 1h1v1h-1zm-40 1h1v1h-1zm8 0h1v1h-1zm-8 1h1v1h-1zm0 1h1v1h-1zm9 0h1v1h-1zm18 2h1v1h-1zm4 2h1v1h-1zm-31 1h1v1h-1zm0 1h1v1h-1zm-1 12h1v1h-1zm5 0h1v1h-1zm34 0h1v1h-1zm-38 3h1v1h-1zm0 1h1v1h-1zm0 1h1v1h-1zm8 0h1v1h-1zm-8 1h1v1h-1zm28 0h1v1h-1zm-28 1h1v2h-1zm9 2h1v1h-1zm13 2h1v1h-1zm6 0h1v1h-1zm1 0h1v1h-1zm-29 3h1v1h-1zm25 0h1v1h-1zm-25 1h1v1h-1zm14 0h1v1h-1zm16 0h1v1h-1zm-17 2h1v1h-1zm5 0h1v1h-1zm-18 1h1v1h-1zm23 0h1v1h-1zm9 0h1v1h-1zm-32 1h1v1h-1zm32 0h1v1h-1zm-32 1h1v1h-1zm32 0h1v1h-1zm-32 1h1v1h-1zm32 0h1v1h-1zm-32 1h1v2h-1zm17 0h1v1h-1zm20 5h1v1h-1z"/><path fill="#5a7" d="M52 12h1v1h-1zm-21 4h1v1h-1zm-12 8h1v1h-1zm-6 26h1v1h-1z"/><path fill="#698" d="M14 13h1v1h-1zm5 4h1v1h-1zm12 7h1v1h-1zM12 40h1v1h-1zm5 12h1v1h-1zm2 15h1v1h-1z"/><path fill="#acc" d="M14 73h1v1h-1z"/><path fill="#274" d="M51 12h1v1h-1zm-34 1h1v1h-1zm9 12h1v1h-1zm3 0h1v1h-1zm0 1h1v1h-1zm-6 1h1v1h-1zm0 1h1v1h-1zm0 5h1v1h-1zm-5 3h1v1h-1zm-4 14h1v1h-1zm4 10h1v1h-1zm18 4h1v1h-1zm-22 2h1v1h-1z"/><path fill="#174" d="M18 13h1v1h-1zm2 0h1v1h-1zm25 0h1v1h-1zm10 0h1v1h-1zm-19 4h1v1h-1zm-23 3h1v1h-1zm20 0h1v1h-1zm4 0h1v1h-1zm-4 1h1v1h-1zm20 0h1v1h-1zm-26 1h1v1h-1zm11 0h1v1h-1zm-25 2h1v1h-1zm35 0h1v1h-1zm-37 1h1v1h-1zm30 0h1v1h-1zm6 0h1v1h-1zm6 0h1v1h-1zm1 0h1v1h-1zm-34 1h1v1h-1zm2 0h1v1h-1zm21 0h1v1h-1zm-6 1h1v1h-1zm-10 1h1v1h-1zm11 0h1v1h-1zm-14 1h1v1h-1zm18 3h1v1h-1zm-29 2h1v1h-1zm5 0h1v1h-1zm29 0h1v1h-1zm-26 1h1v1h-1zm31 0h1v1h-1zm-32 1h1v1h-1zm32 0h1v1h-1zm-41 1h1v1h-1zm7 0h1v1h-1zm29 0h1v1h-1zm5 0h1v1h-1zm2 0h1v1h-1zm-6 1h1v1h-1zm3 12h1v1h-1zm-40 1h1v1h-1zm36 0h1v1h-1zm-26 1h1v1h-1zm0 1h1v1h-1zm21 3h1v1h-1zm5 0h1v1h-1zm-29 1h1v1h-1zm5 0h1v1h-1zm-10 1h1v1h-1zm34 0h1v1h-1zm6 1h1v1h-1zm-6 1h1v1h-1zm-33 1h1v1h-1zm1 0h1v1h-1zm3 0h1v1h-1zm29 0h1v1h-1zm2 0h1v1h-1zm2 0h1v1h-1zm-32 1h1v1h-1zm28 0h1v1h-1zm-35 1h1v1h-1zm11 0h1v1h-1zm6 0h1v1h-1zm24 0h1v1h-1zm-22 3h1v1h-1zm-3 3h1v1h-1zm-15 2h1v1h-1zm5 0h1v1h-1zm29 0h1v1h-1zm6 0h1v1h-1zm-1 2h1v1h-1zm0 1h1v1h-1zm-33 1h1v1h-1zm27 0h1v1h-1zm6 0h1v1h-1zm-36 2h1v1h-1z"/><path fill="#064" d="M35 65h1v1h-1zm13 11h1v1h-1z"/><path fill="#476" d="M52 78h1v1h-1z"/><path fill="#8a9" d="M21 14h1v1h-1zm15 15h1v1h-1zm-8 1h1v1h-1zm11 1h1v1h-1zm3 3h1v1h-1zm-23 6h1v1h-1zm27 0h1v1h-1zm7 0h1v1h-1zM29 74h1v1h-1zm-8 2h1v1h-1zm32 2h1v1h-1z"/><path fill="#254" d="M20 39h1v1h-1zm25 0h1v1h-1zM17 78h1v1h-1z"/><path fill="#cdc" d="M47 11h1v1h-1zm-15 4h1v1h-1zm1 0h1v1h-1zM11 28h1v1h-1zm9 0h1v1h-1zm18 3h1v1h-1zm2 1h1v1h-1zm3 5h1v1h-1zM12 49h1v1h-1zm7 0h1v1h-1zm36 4h1v1h-1zm-41 7h1v1h-1zm15 1h1v1h-1zm21 4h1v1h-1zm-14 9h1v1h-1zm8 1h1v1h-1zm11 2h1v1h-1zm-36 1h1v1h-1z"/><path fill="#bcc" d="M44 14h1v1h-1zm-33 2h1v1h-1zm24 10h1v1h-1zm-14 4h1v1h-1zm1 5h1v1h-1zm29 16h1v1h-1zm-5 27h1v1h-1z"/><path fill="#364" d="M48 78h1v1h-1z"/><path fill="#9ba" d="M15 11h1v1h-1zm1 0h1v1h-1zm33 0h1v1h-1zm2 2h1v1h-1zM32 23h1v1h-1zm-6 1h1v1h-1zm23 0h1v1h-1zm-7 5h1v1h-1zm4 4h1v1h-1zm2 16h1v1h-1zm-3 1h1v1h-1zm1 6h1v1h-1zm-26 2h1v1h-1zm21 1h1v1h-1zm-24 1h1v1h-1zm21 4h1v1h-1zm-10 9h1v1h-1zm-16 5h1v1h-1z"/><path fill="#dee" d="M19 11h1v1h-1zm13 9h1v1h-1zm-4 2h1v1h-1zm26 1h1v1h-1zm-44 1h1v1h-1zm33 0h1v1h-1zm-28 3h1v1h-1zm1 0h1v1h-1zm13 2h1v1h-1zm-19 7h1v1h-1zm33 0h1v1h-1zm1 14h1v1h-1zm-1 3h1v1h-1zm-17 5h1v1h-1zm-15 3h1v1h-1zm9 0h1v1h-1zm13 10h1v1h-1zm-22 2h1v1h-1zm10 1h1v1h-1z"/><path fill="#074" d="M35 24h1v1h-1zm-11 1h1v1h-1zm21 1h1v1h-1zm3 1h1v1h-1zm-9 2h1v1h-1zm2 0h1v1h-1zm-28 4h1v1h-1zm33 4h1v1h-1zM16 61h1v1h-1z"/><path fill="#bdc" d="M13 11h1v1h-1zm5 0h1v1h-1zm37 1h1v1h-1zm-27 4h1v1h-1zm18 1h1v1h-1zm0 1h1v1h-1zm0 1h1v1h-1zm-32 1h1v1h-1zm21 0h1v1h-1zm11 0h1v1h-1zm-32 1h1v1h-1zm32 0h1v1h-1zm-32 1h1v1h-1zm13 1h1v1h-1zm18 1h1v1h-1zm-31 1h1v1h-1zm24 0h1v1h-1zm-24 1h1v1h-1zm25 0h1v1h-1zm-29 1h1v1h-1zm19 0h1v1h-1zm12 0h1v1h-1zm3 0h1v1h-1zm-15 1h1v1h-1zm17 1h1v1h-1zm0 6h1v1h-1zm9 1h1v1h-1zm-8 13h1v1h-1zm6 0h1v1h-1zm2 1h1v1h-1zm-1 4h1v1h-1zm-8 1h1v1h-1zm-24 2h1v1h-1zm-8 1h1v1h-1zm0 1h1v1h-1zm7 0h1v1h-1zm25 1h1v1h-1zm-5 1h1v1h-1zm13 0h1v1h-1zm-25 1h1v1h-1zm20 0h1v1h-1zm6 0h1v1h-1zm-40 3h1v1h-1zm1 0h1v1h-1zm33 0h1v1h-1zm-14 1h1v1h-1zm-8 3h1v1h-1zm6 1h1v1h-1zm13 2h1v1h-1zm8 1h1v1h-1zm-40 1h1v1h-1zm0 1h1v1h-1z"/><path fill="#385" d="M14 12h1v1h-1zm36 0h1v1h-1zm3 1h1v1h-1zm-40 8h1v1h-1zm1 2h1v1h-1zm3 0h1v1h-1zm31 0h1v1h-1zm-3 4h1v1h-1zm-1 8h1v1h-1zm5 15h1v1h-1zm-37 5h1v1h-1zm30 2h1v1h-1zm-29 2h1v1h-1zm12 0h1v1h-1zm0 1h1v1h-1zm2 0h1v1h-1zm26 0h1v1h-1zm-40 1h1v1h-1zm4 1h1v1h-1zm31 2h1v1h-1zm-31 1h1v1h-1zm22 0h1v1h-1zm-8 2h1v1h-1zm-3 1h1v1h-1zm19 4h1v1h-1zm6 0h1v1h-1zm-5 1h1v1h-1z"/><path fill="#386" d="M15 12h1v1h-1zm2 0h1v1h-1zm-5 1h1v1h-1zm7 0h1v1h-1zm27 0h1v1h-1zm2 2h1v1h-1zm0 1h1v1h-1zm0 1h1v1h-1zm-36 1h1v1h-1zm36 0h1v1h-1zm0 1h1v1h-1zm-1 3h1v1h-1zm5 0h1v1h-1zm-39 1h1v1h-1zm34 1h1v1h-1zm-11 1h1v1h-1zm12 0h1v1h-1zm-21 1h1v1h-1zm1 0h1v1h-1zm20 0h1v1h-1zm-21 1h1v1h-1zm21 2h1v1h-1zm-36 1h1v1h-1zm12 0h1v1h-1zm22 0h1v1h-1zm2 0h1v1h-1zm-36 1h1v1h-1zm36 0h1v1h-1zm-36 1h1v1h-1zm36 0h1v1h-1zm0 1h1v1h-1zm0 1h1v1h-1zm-1 1h1v1h-1zm1 0h1v1h-1zm-29 1h1v1h-1zm26 0h1v1h-1zm2 0h1v1h-1zm-30 2h1v1h-1zm-1 12h1v1h-1zm32 0h1v1h-1zm-31 1h1v1h-1zm31 2h1v1h-1zm0 1h1v1h-1zm0 1h1v1h-1zm-36 1h1v1h-1zm11 0h1v1h-1zm25 0h1v2h-1zm-29 2h1v1h-1zm29 0h1v1h-1zm-29 1h1v1h-1zm9 1h1v1h-1zm9 0h1v1h-1zm-26 2h1v1h-1zm1 0h1v1h-1zm30 0h1v1h-1zm11 0h1v1h-1zm1 0h1v1h-1zm-6 1h1v1h-1zm-14 8h1v1h-1zm-3 1h1v1h-1zm2 0h1v1h-1zm-15 1h1v1h-1zm0 1h1v1h-1zm30 0h1v1h-1zm-38 1h1v1h-1zm7 1h1v1h-1z"/><path fill="#7a9" d="M18 12h1v1h-1zm36 0h1v1h-1zm-37 3h1v1h-1zm0 1h1v1h-1zm17 0h1v1h-1zm1 0h1v1h-1zm-18 1h1v1h-1zm20 0h1v1h-1zm-18 4h1v1h-1zm15 1h1v1h-1zm-4 1h1v1h-1zm21 1h1v1h-1zm-29 1h1v1h-1zm21 0h1v1h-1zm-7 3h1v1h-1zm-19 2h1v1h-1zm0 1h1v1h-1zm3 0h1v1h-1zm-3 1h1v1h-1zm2 3h1v1h-1zm-4 14h1v1h-1zm35 0h1v1h-1zm-30 1h1v1h-1zm-6 1h1v1h-1zm3 4h1v1h-1zm2 1h1v1h-1zm21 2h1v1h-1zm-13 1h1v1h-1zm-8 1h1v1h-1zm20 1h1v1h-1zm5 0h1v1h-1zm-30 1h1v1h-1zm7 0h1v1h-1zm15 0h1v1h-1zm-19 1h1v1h-1zm27 0h1v1h-1zm-18 2h1v1h-1zm25 0h1v1h-1zm-34 2h1v1h-1zm0 1h1v1h-1zm0 1h1v1h-1zm2 2h1v1h-1zm18 0h1v1h-1z"/><path fill="#486" d="M10 14h1v1h-1zm2 5h1v1h-1zm17 1h1v1h-1zm19 0h1v1h-1zm-22 3h1v1h-1zm-14 1h1v1h-1zm41 0h1v1h-1zm-34 1h1v1h-1zm11 0h1v1h-1zm16 0h1v1h-1zm-36 1h1v1h-1zm14 0h1v1h-1zm14 1h1v1h-1zm-15 2h1v1h-1zm-13 9h1v1h-1zm9 16h1v1h-1zm27 3h1v1h-1zm-22 1h1v1h-1zm-4 1h1v1h-1zm32 1h1v1h-1zm-30 2h1v1h-1zm16 0h1v1h-1zm3 1h1v1h-1zm-22 3h1v1h-1zm-7 1h1v1h-1zm0 1h1v1h-1zm26 0h1v1h-1zm-4 2h1v1h-1zm-23 4h1v1h-1zm9 0h1v1h-1zm-10 2h1v1h-1z"/><path fill="#365" d="M45 15h1v1h-1zm7 25h1v1h-1zM35 74h1v1h-1z"/></svg>