<svg xmlns="http://www.w3.org/2000/svg" baseProfile="tiny" version="1.2" viewBox="0 0 123 10"><path fill="#a33" d="M61 7h1v1h-1z"/><path fill="#aaa" d="M1 0h121v1H1zM0 1h1v8H0zm122 0h1v8h-1zM1 9h121v1H1z"/><g fill="#a21"><path d="M60 3h2v4h-2z"/><path d="M59 4h4v3h-4z"/></g><path fill="#dbb" d="M63 4h1v1h-1zm-5 2h1v1h-1z"/><path fill="#c99" d="M58 5h1v1h-1zm5 0h1v1h-1zm-4 2h1v1h-1z"/><path fill="#ecc" d="M63 6h1v1h-1z"/><path fill="#a22" d="M60 7h1v1h-1z"/><g fill="#fff"><path d="M1 1h121v2H1zm0 2h57v6H1zm57 0h1v1h-1zm5 0h59v1H63zm1 1h58v5H64zm-6 3h1v2h-1z"/><path d="M63 7h59v2H63z"/><path d="M59 8h63v1H59z"/></g><path fill="#a44" d="M59 3h1v1h-1z"/><path fill="#b55" d="M62 3h1v1h-1z"/><path fill="#daa" d="M58 4h1v1h-1zm4 3h1v1h-1z"/></svg>