<svg xmlns="http://www.w3.org/2000/svg" baseProfile="tiny" version="1.2" viewBox="0 0 123 10"><path fill="#88a" d="M55 6h1v2h-1zm4 0h1v2h-1zm3 0h1v2h-1zm4 0h1v2h-1zm-3 1h1v1h-1z"/><path fill="#aaa" d="M1 0h121v1H1zM0 1h1v8H0zm122 0h1v8h-1zM1 9h121v1H1z"/><g fill="#fff"><path d="M1 1h121v1H1zm0 1h53v7H1zm55 0h2v1h-2zm4 0h2v7h-2zm4 0h2v7h-2zm4 0h54v1H68zM56 3h1v6h-1zm14 0h52v6H70zM55 4h1v1h-1zm2 0h1v2h-1zm2 0h1v1h-1zm7 0h1v1h-1z"/><path d="M68 4h54v2H68z"/><path d="M54 5h68v1H54zm3 1h1v2h-1zm11 0h2v2h-2zM54 8h68v1H54z"/></g><path fill="#89a" d="M54 2h1v1h-1zm4 0h1v1h-1zm9 0h1v1h-1z"/><path fill="#dde" d="M55 2h1v1h-1zm-1 2h1v1h-1zm4 0h1v1h-1zm4 0h2v1h-2zm5 0h1v1h-1z"/><path fill="#336" d="M54 3h1v1h-1zm4 0h1v1h-1zm4 0h2v1h-2zm5 0h1v1h-1z"/><path fill="#eee" d="M57 3h1v1h-1zm11 0h2v1h-2z"/><path fill="#558" d="M59 3h1v1h-1zm7 0h1v1h-1zM54 6h1v2h-1zm4 0h1v2h-1zm5 0h1v1h-1zm4 0h1v2h-1z"/><path fill="#bbc" d="M59 2h1v1h-1zm3 0h2v1h-2zm4 0h1v1h-1z"/><path fill="#668" d="M55 3h1v1h-1z"/></svg>