<svg xmlns="http://www.w3.org/2000/svg" baseProfile="tiny" version="1.2" viewBox="0 0 66 90"><path fill="#332" d="M33 23h1v1h-1zm-9 4h1v1h-1zm6 6h1v1h-1zm13 4h1v1h-1zm-28 6h1v1h-1zm1 0h1v1h-1zm24 15h1v1h-1zm3 3h1v1h-1zm-26 1h1v1h-1zm13 2h1v1h-1z"/><path fill="#bba" d="M29 36h1v1h-1zm-15 6h1v1h-1zM9 63h1v1H9z"/><path fill="#aaa" d="M0 2h1v1H0zm65 0h1v1h-1zM26 14h1v1h-1zm3 0h1v1h-1zm5 2h1v1h-1zm0 3h1v1h-1zm3 3h2v1h-2zm-13 3h1v1h-1zm13 1h1v1h-1zm-18 3h1v1h-1zm1 2h1v1h-1zm31 3h1v1h-1zm0 2h1v1h-1zm-23 5h1v1h-1zm9 2h1v1h-1zm-12 3h1v1h-1zm11 3h1v1h-1zm-12 1h1v1h-1zm13 0h1v1h-1zm1 1h1v1h-1zm5 4h1v1h-1zm-10 3h1v1h-1zm18 1h1v1h-1zm4 1h1v1h-1zm-44 3h1v1h-1zm17 0h1v1h-1zm31 0h1v1h-1zM1 86h1v1H1zm63 0h1v1h-1zM2 87h1v1H2zm1 0h1v1H3zm1 0h1v1H4zm1 0h56v1H5zm56 0h1v1h-1zm1 0h1v1h-1zm1 0h1v1h-1zM4 88h1v1H4zm1 0h56v1H5zm56 0h1v1h-1z"/><path fill="#777" d="M27 14h1v1h-1zm7 3h1v1h-1zm9 7h1v1h-1zm-3 1h1v1h-1zm-17 6h1v1h-1zm6 4h1v1h-1zm4 1h1v1h-1zm-19 2h1v1h-1zm12 1h1v1h-1zm18 4h1v1h-1zm-10 1h1v1h-1zm9 0h1v1h-1zm-14 1h1v1h-1zm5 1h1v1h-1zm-9 3h1v1h-1zm12 2h1v1h-1zm-14 1h1v1h-1zm15 0h1v1h-1zm-12 1h1v1h-1zm13 0h1v1h-1zm1 1h1v1h-1zm4 3h1v1h-1zm-11 4h1v1h-1zM9 64h1v1H9zm19 0h1v1h-1zm5 3h1v1h-1zM9 69h1v1H9zm19 5h1v1h-1zM0 84h1v1H0zm65 0h1v1h-1zM0 85h1v1H0zm65 0h1v1h-1zM0 86h1v1H0zm65 0h1v1h-1zM0 87h1v1H0zm65 0h1v1h-1z"/><path fill="#655" d="M26 15h1v1h-1zm3 0h1v1h-1zm3 1h1v1h-1zm4 7h1v1h-1zm-4 7h1v1h-1zm0 1h1v1h-1zm-15 3h1v1h-1zm4 2h1v1h-1zm17 0h1v1h-1zm-6 8h1v1h-1zm-14 1h1v1h-1zm4 2h1v1h-1zm3 0h1v1h-1zm-5 1h1v1h-1zm1 7h1v1h-1zm-1 1h1v1h-1zm37 5h1v1h-1zm-24 2h1v2h-1zm-7 2h1v1h-1zM6 67h1v1H6zm19 1h1v1h-1z"/><path fill="#333" d="M33 20h1v1h-1zm6 5h1v1h-1zm-8 7h1v1h-1zm16 2h1v1h-1zm-20 1h1v1h-1zm3 3h1v1h-1zm13 1h1v1h-1zm-1 2h1v1h-1zm3 0h1v1h-1zm-22 1h1v1h-1zm-2 6h1v1h-1zm12 0h1v1h-1zm6 9h1v1h-1zm-20 3h1v1h-1zm-1 1h1v1h-1zm37 0h1v1h-1zm-25 1h1v1h-1zm29 0h1v1h-1zm-46 4h1v1h-1z"/><path fill="#666" d="M30 21h1v1h-1zm6 5h1v1h-1zm-16 1h1v1h-1zm18 4h1v1h-1zm1 0h1v1h-1zm1 0h1v1h-1zm-4 2h1v1h-1zm4 0h1v1h-1zm-17 2h1v1h-1zm1 5h1v1h-1zm-10 1h1v1h-1zm2 1h1v1h-1zm16 1h1v1h-1zm7 0h1v1h-1zm-6 1h1v1h-1zm2 0h1v1h-1zm6 1h1v1h-1zm-12 1h1v1h-1zm-2 1h1v1h-1zm8 2h1v1h-1zm-10 5h1v1h-1zm17 2h1v1h-1zm-24 2h1v1h-1zm27 0h1v1h-1zm-28 1h1v1h-1zm12 0h1v1h-1zm18 0h1v1h-1zm-14 3h1v1h-1zm11 0h1v1h-1zm-31 1h1v1h-1zm-2 1h1v1h-1zm-3 1h1v1H8zm19 0h1v1h-1zm6 1h1v1h-1zm-7 4h1v1h-1zM0 88h1v1H0zm1 0h1v1H1zm63 0h1v1h-1zm1 0h1v1h-1zM1 89h1v1H1zm1 0h1v1H2zm1 0h1v1H3zm1 0h58v1H4zm58 0h1v1h-1zm1 0h1v1h-1zm1 0h1v1h-1z"/><path fill="#887" d="M29 23h1v1h-1zm17 9h1v1h-1zm-31 4h1v1h-1zm0 4h1v1h-1zm12 12h1v1h-1zm2 24h1v1h-1z"/><path fill="#bbb" d="M0 1h1v1H0zm1 0h1v1H1zm63 0h1v1h-1zm1 0h1v1h-1zM31 14h1v1h-1zm-3 9h1v1h-1zm-2 1h1v1h-1zm15 1h1v1h-1zm-20 1h1v1h-1zm-3 3h1v1h-1zm9 0h1v1h-1zm13 1h1v1h-1zm1 0h2v1h-2zm2 0h1v1h-1zm1 0h1v1h-1zm-16 7h1v1h-1zm10 1h1v1h-1zm-9 3h1v1h-1zm7 2h1v1h-1zm0 3h1v1h-1zm-7 10h1v1h-1zm16 0h1v1h-1zm-12 1h1v1h-1zm16 1h1v1h-1zm3 1h1v1h-1zm-42 3h1v1h-1zm43 1h1v1h-1zM7 65h1v1H7zm26 4h1v1h-1zM7 70h1v1H7zM1 85h1v1H1zm63 0h1v1h-1zM2 86h1v1H2zm1 0h1v1H3zm59 0h1v1h-1zm1 0h1v1h-1z"/><path fill="#eee" d="M3 1h1v1H3zm59 0h1v1h-1zM2 2h1v1H2zm61 0h1v1h-1zM1 3h1v1H1zm63 0h1v1h-1zM1 4h1v1H1zm63 0h1v1h-1zM1 5h1v1H1zm63 0h1v1h-1zM2 6h1v1H2zm61 0h1v1h-1zM2 7h1v1H2zm61 0h1v1h-1zM2 8h1v74H2zm61 0h1v74h-1zM27 23h1v1h-1zm17 0h1v1h-1zm-6 3h1v1h-1zm-21 3h1v1h-1zm18 1h1v1h-1zm-7 2h1v1h-1zm14 2h1v1h-1zm-8 1h1v1h-1zm3 0h1v1h-1zm-11 1h1v1h-1zm-8 1h1v1h-1zm5 0h1v1h-1zm-7 2h1v1h-1zm2 0h1v1h-1zm18 0h1v1h-1zm4 1h1v1h-1zm-24 6h1v1h-1zm7 0h1v1h-1zm15 0h1v1h-1zm-9 5h1v1h-1zm-7 1h1v1h-1zm7 0h1v1h-1zm12 1h1v1h-1zm-8 1h1v1h-1zm11 1h1v1h-1zm-6 2h1v1h-1zm10 0h1v1h-1zm-9 1h1v1h-1zm1 1h1v1h-1zm-20 1h1v1h-1zm-9 1h1v1h-1zm8 0h1v1h-1zm9 0h1v1h-1zm-16 1h1v1h-1zm6 0h1v1h-1zm-1 1h1v1h-1zm37 0h1v1h-1zm-4 1h1v1h-1zm-36 2h1v1h-1zm-4 3h1v1h-1zm23 1h1v1h-1zm-6 3h1v1h-1zm1 2h1v1h-1zM2 82h1v1H2zm61 0h1v1h-1zM2 83h1v1H2zm61 0h1v1h-1zM3 84h1v1H3zm1 0h1v1H4zm57 0h1v1h-1zm1 0h1v1h-1zM9 85h48v1H9z"/><g fill="#fff"><path d="M4 1h1v1H4zm1 0h1v1H5zm1 0h54v1H6zm54 0h1v1h-1zm1 0h1v1h-1zM3 2h1v1H3zm1 0h1v1H4zm1 0h56v1H5zm56 0h1v1h-1zm1 0h1v1h-1zM2 3h1v1H2zm1 0h1v1H3zm1 0h2v1H4zm2 0h54v1H6zm54 0h2v1h-2zm2 0h1v1h-1zm1 0h1v1h-1zM2 4h1v2H2zm1 0h1v3H3zm1 0h1v1H4zm1 0h56v10H5zm56 0h1v1h-1zm1 0h1v3h-1zm1 0h1v2h-1z"/><path d="M4 5h58v2H4zM3 7h1v1H3zm1 0h1v1H4zm57 0h1v1h-1zm1 0h1v1h-1zM3 8h1v73H3zm1 0h1v73H4zm57 0h1v74h-1zm1 0h1v73h-1zM5 14h20v10H5zm28 0h28v1H33zm1 1h1v1h-1zm1 0h26v6H35zm-10 1h2v8h-2zm2 1h1v6h-1zm1 1h1v5h-1zm1 1h1v1h-1zm0 1h1v2h-1zm13 1h19v1H42zm2 1h17v1H44zm1 1h16v7H45zM5 24h19v1H5zm19 0h1v1h-1zm20 0h1v1h-1zM5 25h17v1H5zm17 0h1v1h-1zm20 0h1v1h-1z"/><path d="M43 25h18v5H43zM5 26h14v1H5zm14 0h1v1h-1z"/><path d="M39 26h22v4H39zM5 27h10v10H5zm10 0h1v1h-1z"/><path d="M35 27h26v3H35zm-20 1h1v1h-1z"/><path d="M33 28h28v2H33zm-18 1h2v5h-2zm13 0h1v1h-1zm-11 1h4v1h-4zm9 0h3v2h-3zm7 0h1v1h-1zm1 0h1v1h-1zm13 0h14v1H47zm-30 1h3v1h-3zm7 0h1v1h-1z"/><path d="M25 31h4v1h-4zm23 0h1v1h-1zm1 0h12v1H49zm-32 1h1v1h-1zm1 0h1v1h-1zm5 0h5v1h-5zm27 0h1v1h-1zm1 0h10v1H51zm-34 1h1v1h-1zm4 0h1v1h-1zm1 0h3v1h-3zm3 0h1v1h-1zm26 0h1v1h-1zm1 0h9v26h-9zm-37 1h1v1h-1zm1 0h1v1h-1zm4 0h3v1h-3zm3 0h1v1h-1zm11 0h8v1h-8zm-19 1h1v1h-1zm3 0h1v1h-1zm1 0h2v1h-2zm2 0h1v1h-1zm12 0h1v1h-1zm5 0h1v1h-1zm1 0h3v1h-3zm3 0h1v1h-1zm-25 1h1v1h-1zm1 0h2v1h-2zm9 0h2v1h-2zm14 0h1v2h-1zM5 37h9v24H5zm11 0h1v1h-1zm1 0h1v1h-1zm7 0h3v1h-3zm3 0h1v1h-1zm23 0h1v1h-1z"/><path d="M51 37h10v21H51zm-35 1h1v1h-1zm5 0h4v1h-4zm4 0h1v1h-1zm14 0h2v2h-2zm2 0h1v1h-1z"/><path d="M49 38h12v20H49zm-30 1h4v1h-4zm4 0h1v1h-1zm14 0h4v1h-4z"/><path d="M48 39h13v18H48zm-32 1h5v1h-5zm5 0h1v1h-1zm13 0h6v1h-6z"/><path d="M47 40h14v17H47zm-30 1h3v1h-3zm16 0h6v1h-6zm6 0h1v1h-1zm7 0h1v1h-1zm-29 1h1v1h-1zm1 0h1v1h-1zm8 0h1v1h-1zm1 0h2v3h-2zm6 0h5v1h-5zm5 0h1v1h-1z"/><path d="M46 42h15v14H46zm-32 1h1v1h-1zm4 0h11v1H18z"/><path d="M45 43h16v13H45zm-31 1h1v16h-1zm5 0h10v1H19zm25 0h1v1h-1zm-29 1h1v14h-1zm4 0h7v1h-7zm7 0h1v1h-1z"/><path d="M43 45h18v9H43zm-24 1h3v1h-3zm3 0h1v1h-1zm17 0h1v1h-1z"/><path d="M40 46h21v6H40zm-24 1h1v11h-1zm3 0h1v1h-1zm16 0h1v1h-1z"/><path d="M36 47h25v1H36zm-19 1h1v1h-1zm19 0h1v1h-1zm1 0h24v1H37zm-20 1h8v1h-8zm20 0h1v1h-1zm1 0h23v1H38zm-21 1h7v1h-7zm21 0h1v1h-1zm1 0h22v1H39zm-22 1h6v1h-6zm22 0h1v1h-1zm-22 1h5v1h-5zm11 0h1v9h-1zm5 0h1v1h-1zm7 0h1v1h-1zm1 0h20v1H41zm-24 1h4v1h-4z"/><path d="M27 53h2v8h-2zm6 0h1v1h-1zm1 0h1v1h-1zm8 0h19v1H42zm-25 1h3v1h-3zm3 0h1v1h-1zm6 0h1v1h-1zm8 0h1v30h-1zm1 0h1v1h-1zm8 0h1v1h-1zm1 0h17v1H44zm-27 1h2v1h-2zm2 0h1v1h-1zm6 0h1v1h-1z"/><path d="M26 55h3v6h-3zm9 0h1v29h-1zm1 0h1v1h-1zm-19 1h1v1h-1zm1 0h1v1h-1zm6 0h1v1h-1z"/><path d="M25 56h4v5h-4zm11 0h1v28h-1zm1 0h1v1h-1zm-20 1h1v1h-1zm6 0h1v1h-1z"/><path d="M24 57h5v4h-5zm13 0h1v27h-1zm-21 1h1v1h-1zm6 0h1v1h-1z"/><path d="M23 58h6v3h-6zm15 0h1v26h-1zm13 0h1v1h-1zm-36 1h1v1h-1zm6 0h1v1h-1z"/><path d="M22 59h7v2h-7zm17 0h1v25h-1zm15 0h1v1h-1zm1 0h6v1h-6zm-41 1h1v1h-1z"/><path d="M21 60h8v1h-8zm19 0h1v24h-1zm17 0h1v1h-1zm1 0h3v1h-3zM5 61h5v1H5zm5 0h1v1h-1zm2 0h1v1h-1zm1 0h1v1h-1zm7 0h1v23h-1zm1 0h1v1h-1zm1 0h1v1h-1zm1 0h5v1h-5zm18 0h1v23h-1zm18 0h1v1h-1zm1 0h1v1h-1zM5 62h4v1H5zm4 0h1v1H9z"/><path d="M19 62h2v22h-2zm2 0h1v1h-1zm3 0h1v1h-1zm1 0h3v1h-3zm17 0h1v22h-1zm1 0h1v1h-1zM5 63h3v2H5zm3 0h1v1H8z"/><path d="M18 63h4v21h-4zm8 0h1v1h-1zm1 0h1v1h-1zm16 0h2v21h-2zm12 0h2v1h-2z"/><path d="M17 64h6v20h-6zm28 0h2v20h-2zm2 0h1v1h-1zm4 0h10v18H51zM5 65h2v1H5z"/><path d="M16 65h7v19h-7zm31 0h14v17H47zM5 66h1v16H5z"/><path d="M15 66h9v18h-9zm-2 1h1v1h-1z"/><path d="M14 67h10v17H14zm-2 1h1v1h-1z"/><path d="M13 68h12v16H13z"/><path d="M11 69h14v15H11zm-3 1h1v1H8z"/><path d="M9 70h17v14H9z"/><path d="M6 71h20v12H6zm27 0h28v11H33zm-7 1h1v12h-1zm6 1h1v1h-1zm-5 1h1v10h-1z"/><path d="M32 74h29v8H32zm-1 1h1v1h-1zm-3 1h1v8h-1z"/><path d="M31 76h30v6H31z"/><path d="M29 77h32v5H29zM3 81h1v1H3zm1 0h1v2H4zm58 0h1v1h-1zM3 82h1v1H3zm2 0h1v1H5zm24 0h31v1H29zm31 0h1v1h-1zm1 0h1v1h-1zm1 0h1v1h-1zM3 83h1v1H3zm1 0h1v1H4zm1 0h1v1H5zm1 0h1v1H6zm1 0h52v1H7zm52 0h1v1h-1zm1 0h1v1h-1zm1 0h1v1h-1zm1 0h1v1h-1zM5 84h1v1H5zm1 0h1v1H6zm1 0h1v1H7zm1 0h50v1H8zm50 0h1v1h-1zm1 0h1v1h-1zm1 0h1v1h-1z"/></g><path fill="#433" d="M32 21h1v2h-1zm-1 1h1v1h-1zm8 1h1v1h-1zm-17 7h1v1h-1zm9 0h1v1h-1zm-1 1h1v1h-1zm-9 1h1v1h-1zm29 2h1v1h-1zm-18 1h1v1h-1zm19 0h1v1h-1zm-20 1h1v2h-1zm-10 1h1v1h-1zm9 0h1v1h-1zm2 0h1v1h-1zm1 0h1v1h-1zm1 0h1v1h-1zm9 1h1v1h-1zm-18 2h1v1h-1zm-10 1h1v1h-1zm17 1h1v1h-1zm9 0h1v1h-1zm-9 3h1v1h-1zm-14 2h1v1h-1zm11 0h1v1h-1zm-6 1h1v1h-1zm17 7h1v1h-1zm-2 1h1v1h-1zm6 2h1v1h-1zm-15 2h1v1h-1zm19 0h1v1h-1zm-19 2h1v1h-1zm1 1h1v1h-1zm21 0h1v1h-1zm-39 1h1v1h-1zm17 1h1v1h-1z"/><path fill="#877" d="M34 21h1v1h-1zm-7 4h1v1h-1zm9 6h1v1h-1zm6 0h1v1h-1zm6 2h1v1h-1zm1 0h1v1h-1zm-24 1h1v1h-1zm21 6h1v1h-1zM22 53h1v1h-1zm24 5h1v1h-1zm2 1h1v1h-1zm3 1h1v1h-1zm-41 4h1v1h-1z"/><path fill="#ccc" d="M1 0h1v1H1zm1 0h1v1H2zm61 0h1v1h-1zm1 0h1v1h-1zM1 2h1v1H1zm63 0h1v1h-1zM25 15h1v1h-1zm10 6h1v1h-1zm-19 6h1v1h-1zm6 2h1v1h-1zm7 0h1v1h-1zm0 1h1v1h-1zm8 0h1v1h-1zm1 0h1v1h-1zm7 0h1v1h-1zm-16 1h1v1h-1zm18 0h1v1h-1zm-25 1h1v1h-1zm2 2h1v1h-1zm18 2h1v1h-1zm-28 1h1v1h-1zm6 1h1v1h-1zm6 0h1v1h-1zm22 0h1v1h-1zm-28 3h1v1h-1zm9 1h1v1h-1zm16 0h1v1h-1zm-16 1h1v1h-1zm6 0h1v1h-1zm-17 1h1v1h-1zm11 0h1v1h-1zm13 1h1v1h-1zm-18 1h1v1h-1zm13 0h1v1h-1zm-18 2h1v1h-1zm23 6h1v1h-1zm-13 1h1v1h-1zm4 1h1v1h-1zm-10 6h1v1h-1zm5 0h1v1h-1zm-3 1h1v1h-1zm33 0h1v1h-1zm-10 1h1v1h-1zm1 0h1v1h-1zm-26 1h1v1h-1zm1 2h1v1h-1zM1 84h1v1H1zm63 0h1v1h-1zM2 85h1v1H2zm61 0h1v1h-1zM4 86h1v1H4zm1 0h1v1H5zm1 0h1v1H6zm1 0h52v1H7zm52 0h1v1h-1zm1 0h1v1h-1zm1 0h1v1h-1z"/><path fill="#ddd" d="M3 0h1v1H3zm1 0h1v1H4zm1 0h56v1H5zm56 0h1v1h-1zm1 0h1v1h-1zM2 1h1v1H2zm61 0h1v1h-1zM1 6h1v1H1zm63 0h1v1h-1zM1 7h1v1H1zm63 0h1v1h-1zM1 8h1v1H1zm63 0h1v1h-1zM1 9h1v73H1zm63 0h1v73h-1zm-32 5h1v1h-1zm-4 3h1v1h-1zm9 4h1v1h-1zm1 0h1v1h-1zm1 0h1v1h-1zm1 0h1v1h-1zm3 1h1v1h-1zm-23 4h1v1h-1zm14 1h1v1h-1zm-13 3h1v1h-1zm15 0h1v1h-1zm13 2h1v1h-1zm-23 1h1v1h-1zm-7 1h1v1h-1zm14 0h1v1h-1zm2 1h1v1h-1zm1 0h1v1h-1zm4 2h1v1h-1zm-7 3h1v1h-1zm-17 1h1v1h-1zm17 2h1v1h-1zm-6 2h1v1h-1zm-4 6h1v1h-1zm6 2h1v1h-1zm0 1h1v1h-1zm4 1h1v1h-1zm17 3h1v1h-1zm3 1h1v1h-1zm-12 1h1v1h-1zm1 1h1v1h-1zm-31 1h1v1h-1zm49 0h1v1h-1zm-44 2h1v1h-1zm-1 1h1v1h-1zm-9 1h1v1H6zm19 3h1v1h-1zM6 70h1v1H6zm20 1h1v1h-1zM1 82h1v1H1zm63 0h1v1h-1zM1 83h1v1H1zm63 0h1v1h-1zM2 84h1v1H2zm61 0h1v1h-1zM3 85h1v1H3zm1 0h1v1H4zm1 0h1v1H5zm1 0h1v1H6zm1 0h2v1H7zm50 0h2v1h-2zm2 0h1v1h-1zm1 0h1v1h-1zm1 0h1v1h-1zm1 0h1v1h-1z"/><path fill="#888" d="M0 5h1v1H0zm65 0h1v1h-1zM0 6h1v1H0zm65 0h1v1h-1zM0 7h1v1H0zm65 0h1v1h-1zM0 8h1v73H0zm65 0h1v73h-1zm-35 7h1v1h-1zm2 0h1v1h-1zm2 3h1v1h-1zm-10 8h1v1h-1zm-6 1h1v1h-1zm15 4h1v1h-1zm1 0h1v1h-1zm1 0h1v1h-1zm8 0h1v1h-1zm-14 1h1v1h-1zm-9 1h1v1h-1zm17 0h1v1h-1zm1 0h1v1h-1zm1 0h1v1h-1zm-5 3h1v1h-1zm2 0h1v1h-1zm6 1h1v1h-1zm-25 2h1v1h-1zm11 7h1v1h-1zm7 2h1v1h-1zm-14 6h1v1h-1zm21 1h1v1h-1zm1 1h1v1h-1zm-10 4h1v1h-1zm19 0h1v1h-1zm-30 2h1v1h-1zm30 1h1v1h-1zm8 0h1v1h-1zm-35 1h1v1h-1zm6 10h1v1h-1zm-1 2h1v1h-1zM0 81h1v2H0zm65 0h1v2h-1zM0 83h1v1H0zm65 0h1v1h-1zM1 87h1v1H1zm63 0h1v1h-1zM2 88h1v1H2zm61 0h1v1h-1z"/><path fill="#fee" d="M25 14h1v1h-1zm16 7h1v1h-1zm5 9h1v1h-1zm-6 6h1v1h-1zM21 53h1v1h-1zm25 3h1v1h-1z"/><path fill="#110" d="M38 24h1v1h-1zm1 0h1v1h-1zm1 0h1v1h-1zm1 0h1v1h-1zm-7 1h1v1h-1zm1 0h1v1h-1zm-2 1h1v1h-1zm-8 2h1v1h-1zm1 0h1v1h-1zm-2 1h1v1h-1zm-1 1h1v1h-1zm16 2h1v1h-1zm9 4h1v1h-1zm1 0h1v1h-1zm-2 1h1v1h-1zm-13 1h1v1h-1zm1 0h1v1h-1zm1 0h1v1h-1zm10 0h1v1h-1zm-18 2h1v1h-1zm17 0h1v1h-1zm-20 1h1v1h-1zm19 1h1v1h-1zm-2 1h1v1h-1zm1 0h1v1h-1zm-3 1h1v1h-1zm-4 1h1v1h-1zm-8 5h1v1h-1zm-1 1h1v1h-1zm-1 1h1v1h-1zm9 0h1v1h-1zm-10 1h1v1h-1zm11 0h1v1h-1zm-12 1h1v1h-1zm13 0h1v1h-1zm1 1h1v1h-1zm1 1h1v1h-1zm1 1h1v1h-1zm1 1h1v1h-1zm1 1h1v1h-1zm1 1h1v1h-1zm2 1h1v1h-1zm2 1h1v1h-1zm1 0h2v1h-2zm2 0h1v1h-1zm5 0h1v1h-1zm1 0h1v1h-1zm-9 1h1v1h-1zm-34 2h1v1h-1zm-1 1h1v1h-1zm-2 1h1v1h-1zm15 0h1v1h-1zM8 68h1v1H8zm21 6h1v1h-1zm1 0h1v1h-1z"/><path fill="#766" d="M34 22h1v1h-1zm-9 4h1v1h-1zm-6 1h1v1h-1zm-3 1h1v1h-1zm21 3h1v1h-1zm4 0h1v1h-1zm4 1h1v1h-1zm-17 1h1v1h-1zm19 0h1v1h-1zm-31 2h1v1h-1zm1 0h1v1h-1zm11 0h1v1h-1zm-12 1h1v1h-1zm3 1h1v1h-1zm0 1h1v1h-1zm21 4h1v1h-1zm-6 5h1v1h-1zm-9 1h1v1h-1zm-9 12h1v1h-1zm34 0h1v1h-1zm-35 1h1v1h-1zm-1 1h1v1h-1zm13 10h1v1h-1z"/><path fill="#444" d="M34 23h1v1h-1zm-5 2h1v1h-1zm-6 2h1v1h-1zm3 2h1v1h-1zm22 5h1v1h-1zm-6 4h1v1h-1zm0 2h1v1h-1zm-11 3h1v1h-1zm6 12h1v1h-1zm-16 3h1v1h-1zm-1 1h1v1h-1zm26 0h1v1h-1zm-22 5h1v1h-1zm8 7h1v1h-1z"/><path fill="#776" d="M29 24h1v1h-1zm-11 9h1v1h-1zm19 3h1v1h-1zm-9 2h1v1h-1zm-4 4h1v1h-1zm12 8h1v1h-1zm5 5h1v1h-1z"/><path fill="#ccb" d="M22 35h1v1h-1z"/><path fill="#dcc" d="M20 36h1v1h-1zm4 3h1v1h-1zm10 4h1v1h-1zm22 17h1v1h-1z"/><path fill="#baa" d="M30 14h1v1h-1zM20 29h1v1h-1zm5 1h1v1h-1zm-10 8h1v1h-1zm10 4h1v1h-1zm-10 2h1v1h-1zm13 1h1v1h-1zm-10 3h1v1h-1zm11 9h1v1h-1zM8 64h1v1H8z"/><path fill="#211" d="M27 15h1v1h-1zm3 1h1v1h-1zm-1 1h1v1h-1zm2 0h1v1h-1zm2 0h1v1h-1zm-1 1h1v1h-1zm1 0h1v1h-1zm-3 1h1v1h-1zm1 0h1v1h-1zm1 0h1v1h-1zm1 0h1v1h-1zm-2 1h1v1h-1zm11 3h1v1h-1zm1 0h1v1h-1zm-11 1h1v1h-1zm1 0h1v1h-1zm1 0h1v1h-1zm-3 1h1v1h-1zm1 0h1v1h-1zm-4 1h1v1h-1zm1 0h2v1h-2zm2 0h1v1h-1zm-6 1h1v1h-1zm-8 1h1v1h-1zm14 1h1v1h-1zm-1 1h1v1h-1zm-9 1h1v1h-1zm-1 1h1v1h-1zm12 0h1v1h-1zm1 0h1v1h-1zm1 0h1v1h-1zm1 0h1v1h-1zm8 0h1v1h-1zm-24 1h1v1h-1zm12 0h1v1h-1zm13 0h1v1h-1zm-16 1h1v1h-1zm1 0h3v1h-3zm15 0h1v1h-1zm1 0h1v3h-1zm-20 1h1v1h-1zm5 0h1v1h-1zm1 0h1v1h-1zm12 0h1v1h-1zm1 0h1v1h-1zm2 0h1v1h-1zm1 0h1v1h-1zm1 0h1v1h-1zm-26 1h1v1h-1zm1 0h1v1h-1zm7 0h1v1h-1zm13 0h1v1h-1zm1 0h1v1h-1zm2 0h1v1h-1zm-26 1h1v1h-1zm16 0h1v1h-1zm1 0h1v1h-1zm8 0h1v1h-1zm-14 1h1v1h-1zm1 0h1v1h-1zm12 0h1v1h-1zm3 0h1v1h-1zm-18 1h1v1h-1zm1 0h1v1h-1zm14 0h1v1h-1zm-18 1h1v1h-1zm17 0h1v1h-1zm-20 1h1v1h-1zm8 0h1v1h-1zm12 0h1v1h-1zm-28 1h1v1h-1zm7 0h1v1h-1zm9 0h1v1h-1zm11 0h1v1h-1zm-12 1h1v1h-1zm-14 1h1v1h-1zm22 0h1v1h-1zm-21 1h1v1h-1zm17 0h1v1h-1zm-17 1h1v1h-1zm15 0h1v2h-1zm1 0h1v1h-1zm-2 1h1v1h-1zm2 0h1v1h-1zm-7 1h1v1h-1zm1 0h1v1h-1zm1 0h1v1h-1zm1 0h2v1h-2zm2 0h1v1h-1zm1 0h1v1h-1zm-6 1h1v2h-1zm1 0h1v1h-1zm4 0h1v1h-1zm1 0h1v1h-1zm2 1h1v1h-1zm-2 1h1v1h-1zm3 0h1v1h-1zm-10 1h1v1h-1zm7 0h1v1h-1zm-8 1h1v1h-1zm6 0h1v1h-1zm1 0h1v1h-1zm-8 1h1v1h-1zm7 0h1v1h-1zm1 0h1v1h-1zm1 0h1v1h-1zm-10 1h1v1h-1zm8 0h1v1h-1zm2 0h1v1h-1zm-11 1h1v1h-1zm9 0h1v1h-1zm2 0h1v7h-1zm-12 1h1v1h-1zm10 0h1v1h-1zm12 0h1v1h-1zm-23 1h1v1h-1zm11 0h1v1h-1zm13 0h1v1h-1zm1 1h1v1h-1zm2 1h1v1h-1zm2 1h2v1h-2zm2 0h3v1h-3zm3 0h1v1h-1zm1 0h1v1h-1zm-40 2h1v1h-1zm17 0h1v1h-1zm1 0h1v2h-1zm-19 1h1v1h-1zm18 0h1v1h-1zm-20 1h1v1h-1zm20 0h1v1h-1zm1 0h1v1h-1zm-6 1h1v1h-1zm4 0h1v1h-1zm1 0h1v2h-1zm1 0h1v2h-1zM7 67h1v1H7zm1 0h1v1H8zm19 0h1v1h-1zm1 0h1v1h-1zm1 0h2v2h-2zm-19 1h1v1h-1zm18 0h1v1h-1zm3 0h1v1h-1zM6 69h1v1H6zm2 0h1v1H8zm20 0h1v1h-1zm1 0h2v1h-2zm2 0h1v1h-1zm-2 1h2v1h-2zm1 5h1v1h-1z"/><path fill="#cbb" d="M27 16h1v1h-1zm7 4h1v1h-1zm-13 9h1v1h-1zm18 1h1v1h-1zm-22 8h1v1h-1zm-2 1h1v1h-1zm32 0h1v1h-1zm-8 3h1v1h-1zm8 15h1v1h-1zm-25 6h1v1h-1zm23 0h1v1h-1z"/><path fill="#988" d="M35 22h1v1h-1zm-7 2h1v1h-1zm-2 1h1v1h-1zm7 2h1v1h-1zm14 5h1v1h-1zm-12 4h1v1h-1zm4 0h1v1h-1zm-12 2h1v1h-1zm-4 2h1v1h-1zm17 1h1v1h-1zm-21 1h1v1h-1zm19 1h1v1h-1zm-10 8h1v1h-1zm13 3h1v1h-1zm-21 1h1v1h-1zm25 2h1v1h-1zm-16 1h1v1h-1zm20 1h1v1h-1zm4 1h1v1h-1zm-41 3h1v1h-1zm21 5h1v1h-1z"/><path fill="#665" d="M30 23h1v1h-1zm-2 2h1v1h-1zm-7 16h1v1h-1zm5 6h1v1h-1zm-2 8h1v1h-1zm-5 2h1v1h-1zM9 65h1v1H9z"/><path fill="#aa9" d="M16 59h1v1h-1zm42 2h1v1h-1z"/><path fill="#100" d="M36 25h3v1h-3zm-2 1h1v1h-1zm-7 2h1v1h-1zm-2 1h1v1h-1zm16 15h2v1h-2zm-4 1h3v1h-3zm7 16h1v1h-1zm1 1h2v1h-2zm6 0h4v1h-4zm-3 1h3v1h-3zm-37 4h1v1h-1zm-2 1h1v1H9zm-2 1h1v1H7z"/><path fill="#999" d="M0 3h1v1H0zm65 0h1v1h-1zM0 4h1v1H0zm65 0h1v1h-1zM28 14h1v1h-1zm5 1h1v1h-1zm-4 3h1v1h-1zm12 4h1v1h-1zm1 0h1v1h-1zm-20 4h1v1h-1zm22 5h1v1h-1zm1 0h1v1h-1zm3 1h1v1h-1zm-26 5h1v1h-1zm27 0h1v1h-1zm-24 2h1v1h-1zm10 0h1v1h-1zm6 0h1v1h-1zm-15 7h1v1h-1zm1 0h1v1h-1zm8 0h1v1h-1zm-18 1h1v1h-1zm4 0h1v1h-1zm19 6h1v1h-1zm-21 3h1v1h-1zm25 0h1v1h-1zm2 1h1v1h-1zm-13 2h1v1h-1zm21 1h1v1h-1zm-44 3h1v1h-1zm14 0h1v1h-1zm2 1h1v1h-1zm-15 4h1v1h-1zM3 88h1v1H3zm59 0h1v1h-1z"/><path fill="#222" d="M28 16h1v1h-1zm0 12h1v1h-1zm-4 2h1v1h-1zm10 3h1v1h-1zm9 1h1v1h-1zm3 0h1v1h-1zm4 2h1v1h-1zm-18 5h1v1h-1zm8 4h1v1h-1zm-18 3h1v1h-1zm11 1h1v1h-1zm-2 6h1v1h-1zm-13 4h1v1h-1zm12 0h1v1h-1zm15 0h1v1h-1zm-28 1h1v1h-1zm25 0h1v1h-1zm-13 1h1v1h-1zm-14 1h1v1h-1zm16 0h1v1h-1zm-16 2h1v1h-1zm10 1h1v1h-1zm5 0h1v1h-1zm-3 1h1v1h-1zm2 0h1v1h-1zM6 68h1v1H6zm25 5h1v1h-1z"/><path fill="#555" d="M31 16h1v1h-1zm-1 6h1v1h-1zm5 1h1v1h-1zm2 0h1v1h-1zm-16 4h1v1h-1zm5 7h1v1h-1zm-2 2h1v1h-1zm8 0h1v1h-1zm-3 1h1v2h-1zm-2 2h1v1h-1zm14 1h1v1h-1zm-14 1h1v1h-1zm14 0h1v1h-1zm-25 4h1v1h-1zm14 0h1v1h-1zm-2 2h1v1h-1zm-4 1h1v1h-1zm0 3h1v1h-1zm9 0h1v1h-1zm1 1h1v1h-1zm-12 2h1v1h-1zm1 2h1v1h-1zm20 1h1v1h-1zm6 3h1v1h-1zm-26 3h1v1h-1zm5 2h1v1h-1zm5 0h1v1h-1zM7 66h1v1H7zm17 0h1v1h-1zm-12 1h1v1h-1z"/><path fill="#544" d="M33 16h1v1h-1zm0 5h1v1h-1zm0 1h1v1h-1zm5 1h1v1h-1zm-8 1h1v1h-1zm-4 2h1v1h-1zm-4 1h1v1h-1zm1 2h1v1h-1zm8 2h1v1h-1zm-1 1h1v1h-1zm14 0h1v1h-1zm-15 1h1v1h-1zm17 0h1v1h-1zm-28 1h1v1h-1zm31 0h1v1h-1zm-34 3h1v1h-1zm24 0h1v1h-1zm-2 1h1v1h-1zm-23 1h1v1h-1zm20 0h1v1h-1zm-20 1h1v1h-1zm16 4h1v1h-1zm1 0h1v1h-1zm5 0h1v1h-1zm-6 2h1v1h-1zm-7 1h1v1h-1zm11 2h1v1h-1zm-5 1h1v1h-1zm6 0h1v1h-1zm1 1h1v1h-1zm-12 1h1v1h-1zm13 0h1v1h-1zm1 1h1v1h-1zm-2 1h1v1h-1zm-14 3h1v1h-1zm34 4h1v1h-1zm-27 2h1v1h-1zm17 0h1v1h-1zm-23 1h1v1h-1zM8 66h1v1H8z"/><path fill="#edd" d="M36 21h1v1h-1zm-7 1h1v1h-1zm-4 2h1v1h-1zm32 39h1v1h-1z"/><path fill="#322" d="M28 15h1v1h-1zm4 2h1v1h-1zm0 3h1v1h-1zm-1 1h1v1h-1zm1 2h1v1h-1zm8 0h1v1h-1zm-9 1h1v1h-1zm-1 1h1v1h-1zm-3 1h1v1h-1zm8 0h1v1h-1zm-3 3h1v1h-1zm13 4h1v1h-1zm-18 1h1v1h-1zm-3 1h1v1h-1zm11 2h1v1h-1zm9 0h1v1h-1zm-26 1h1v1h-1zm10 1h1v1h-1zm-6 2h1v1h-1zm-2 1h1v1h-1zm20 1h1v1h-1zm-23 1h1v1h-1zm20 0h1v1h-1zm-4 1h1v1h-1zm-15 1h1v1h-1zm13 0h1v1h-1zm-1 1h1v1h-1zm-5 4h1v1h-1zm6 5h1v1h-1zm10 0h1v1h-1zm-10 1h1v1h-1zm0 1h1v1h-1zm0 1h1v1h-1zm10 0h1v1h-1zm-11 1h1v1h-1zm1 0h1v1h-1zm16 0h1v1h-1zm-31 1h1v1h-1zm14 0h1v1h-1zm1 0h1v1h-1zm-15 2h1v1h-1zm-2 2h1v1h-1zm-5 1h1v1H9zm19 0h1v1h-1z"/><path fill="#998" d="M31 15h1v1h-1zm-8 11h1v1h-1zm-4 6h1v1h-1zm-2 11h1v1h-1zm30 15h1v1h-1z"/><path fill="#111" d="M29 16h1v1h-1zm1 1h1v1h-1zm0 1h1v1h-1zm1 0h1v1h-1zm4 6h1v1h-1zm1 0h1v1h-1zm1 0h1v1h-1zm5 0h1v1h-1zm-9 1h1v1h-1zm-1 1h1v1h-1zm-6 1h1v1h-1zm1 0h1v1h-1zm1 0h1v1h-1zm1 0h1v1h-1zm1 0h2v1h-2zm2 0h1v1h-1zm-14 1h1v1h-1zm1 0h1v1h-1zm1 0h1v1h-1zm1 0h1v1h-1zm1 0h2v1h-2zm2 0h1v1h-1zm6 0h1v1h-1zm1 0h1v1h-1zm-1 1h1v1h-1zm-8 2h1v1h-1zm14 1h1v1h-1zm1 0h1v1h-1zm1 0h1v1h-1zm2 0h1v1h-1zm1 0h1v1h-1zm1 0h1v1h-1zm-10 1h1v1h-1zm1 0h1v1h-1zm9 0h1v1h-1zm1 0h1v1h-1zm-17 2h1v1h-1zm23 0h2v1h-2zm-2 1h1v1h-1zm-9 1h1v1h-1zm8 0h1v1h-1zm2 0h1v1h-1zm-15 1h1v1h-1zm12 0h1v1h-1zm-14 1h1v1h-1zm1 0h1v1h-1zm1 0h1v1h-1zm12 0h1v1h-1zm1 0h1v1h-1zm-19 1h1v1h-1zm2 0h1v1h-1zm1 0h1v1h-1zm1 0h1v1h-1zm1 0h1v1h-1zm12 0h1v1h-1zm-20 1h1v1h-1zm2 0h1v1h-1zm4 0h1v1h-1zm14 0h1v1h-1zm-23 1h1v1h-1zm9 0h1v1h-1zm13 0h1v1h-1zm-2 1h1v1h-1zm-2 1h1v1h-1zm-4 1h1v1h-1zm-7 4h1v1h-1zm1 0h1v1h-1zm1 0h1v1h-1zm-3 1h1v1h-1zm3 0h1v1h-1zm1 0h2v1h-2zm2 0h1v1h-1zm-7 1h1v1h-1zm4 0h1v1h-1zm1 0h1v1h-1zm3 0h1v1h-1zm-4 1h1v1h-1zm1 0h1v1h-1zm5 0h1v1h-1zm-4 1h1v1h-1zm5 0h1v1h-1zm1 1h1v1h-1zm-15 1h1v1h-1zm16 0h1v1h-1zm-17 1h1v1h-1zm18 0h1v1h-1zm-19 1h1v1h-1zm20 0h1v1h-1zm-21 1h1v1h-1zm22 0h1v1h-1zm-23 1h1v1h-1zm24 0h1v1h-1zm-25 1h1v1h-1zm26 0h1v1h-1zm1 0h1v1h-1zm-28 1h1v1h-1zm29 0h1v1h-1zm1 0h1v1h-1zm-31 1h1v1h-1zm41 0h1v1h-1zm1 0h1v1h-1zm-43 1h1v1h-1zm-1 1h1v1h-1zm-2 1h1v1h-1zm12 0h1v1h-1zm-14 1h1v1h-1zm1 0h1v1h-1zm14 0h1v1h-1zM9 67h1v1H9zm17 0h1v1h-1zM7 68h1v1H7zm19 0h1v2h-1zm1 0h1v1h-1zm5 0h1v1h-1zm-5 1h1v1h-1zm5 0h1v1h-1zm-5 1h1v1h-1zm1 0h1v1h-1zm3 0h1v1h-1zm1 0h1v1h-1zm-5 1h1v1h-1zm1 0h1v1h-1zm1 0h2v1h-2zm2 0h1v1h-1zm-3 1h1v1h-1zm1 0h2v1h-2zm2 0h1v1h-1zm-3 1h1v1h-1zm1 0h2v1h-2zm0 2h1v1h-1z"/><path fill="#221" d="M41 23h1v1h-1zm-9 5h1v1h-1zm0 6h1v1h-1zm-7 16h1v1h-1z"/><path fill="#ddc" d="M23 25h1v1h-1zm-1 15h1v1h-1zm-2 7h1v1h-1z"/><path fill="#554" d="M30 20h1v1h-1zm-1 8h1v1h-1zm6 5h1v1h-1zM24 47h1v1h-1zm-1 6h1v1h-1zm12 0h1v1h-1zm-6 11h1v1h-1z"/><path fill="#a99" d="M36 22h1v1h-1zm3 0h1v1h-1zm1 0h1v1h-1zm-13 2h1v1h-1zm-2 1h1v1h-1zm-8 2h1v1h-1zm29 4h1v1h-1zm-19 2h1v1h-1zm23 0h1v1h-1zm-25 3h1v1h-1zm14 16h1v1h-1zm-21 5h1v1h-1zm-1 1h1v1h-1zm31 0h1v1h-1zm2 1h1v1h-1zm-35 1h1v1h-1zm-1 1h1v1h-1zm-1 1h1v1h-1zm14 2h1v1h-1zm5 8h1v1h-1z"/><path fill="#443" d="M31 23h1v1h-1zm10 10h1v1h-1zm1 6h1v1h-1zm-11 6h1v1h-1zm3 3h1v1h-1zm5 6h1v1h-1zM10 65h1v1h-1z"/></svg>