<svg xmlns="http://www.w3.org/2000/svg" width="66" height="90" baseProfile="tiny" version="1.2"><path fill="#777" d="M27 18h1v1h-1zm16 10h1v1h-1zm-13 2h1v1h-1zm7 1h1v1h-1zm11 0h1v1h-1zm-7 4h1v1h-1zm-5 4h1v1h-1zm10 1h1v1h-1zm-15 1h1v1h-1zm-21 3h1v1h-1zm7 0h1v1h-1zm16 1h2v1h-2zm3 1h1v1h-1zm3 0h1v1h-1zm-8 1h1v1h-1zm23 0h1v1h-1zm-24 1h1v1h-1zm-14 9h1v1h-1zm27 0h1v1h-1zm-21 1h1v1h-1zM0 84h1v1H0zm65 0h1v1h-1zM0 85h1v1H0zm65 0h1v1h-1zM0 86h1v1H0zm65 0h1v1h-1zM0 87h1v1H0zm65 0h1v1h-1z"/><path fill="#665" d="M33 22h1v1h-1zm9 6h1v1h-1zm-7 11h1v1h-1zm-7 1h1v1h-1zm25 2h1v1h-1zm-20 4h1v1h-1zM23 58h1v1h-1zm-6 3h1v1h-1zm22 1h1v1h-1zm7 3h1v1h-1z"/><path fill="#332" d="M35 25h1v1h-1zm-4 13h1v1h-1zm3 2h1v1h-1zm-1 7h1v1h-1zm-3 5h1v1h-1zm3 7h1v1h-1zm0 1h1v1h-1zm19 1h1v1h-1zm-2 1h1v1h-1zm-7 5h1v1h-1z"/><g fill="#211"><path d="M27 19h1v1h-1zm2 1h1v1h-1zm1 1h1v1h-1zm1 1h1v1h-1zm1 1h1v1h-1zm0 1h1v2h-1zm1 0h1v1h-1zm1 0h1v1h-1zm1 0h1v1h-1zm-2 1h1v1h-1zm-1 1h1v1h-1zm1 0h1v1h-1zm-2 1h1v1h-1zm1 0h1v1h-1zm1 2h1v1h-1zm1 0h1v1h-1zm1 0h1v1h-1zm1 0h1v1h-1zm7 0h1v1h-1zm-10 1h1v1h-1zm1 0h1v1h-1zm12 0h1v1h-1zm-14 1h1v1h-1zm1 0h1v1h-1zm3 0h1v1h-1zm8 0h1v1h-1zm-18 1h1v1h-1zm6 0h1v1h-1zm1 0h1v1h-1zm-1 1h1v2h-1zm-1 2h1v1h-1zm1 0h1v1h-1zm-1 1h1v1h-1zm1 0h1v1h-1zm1 0h1v1h-1zm9 1h1v1h-1zm1 0h1v1h-1zm1 0h1v1h-1zm2 1h1v1h-1zm-13 1h1v1h-1zm6 0h1v1h-1zm-10 1h1v1h-1zm7 0h1v1h-1zm4 0h1v1h-1zm9 0h1v1h-1zm-11 1h1v1h-1zm12 0h1v1h-1zm-25 1h1v1h-1zm26 0h1v1h-1zm-29 1h1v1h-1zm1 0h1v1h-1zm1 0h1v1h-1zm11 0h1v1h-1zm16 0h1v5h-1zm3 0h1v1h-1zm1 0h1v1h-1zm-36 1h1v1h-1zm33 0h1v2h-1zm1 0h1v1h-1zm-43 1h1v1h-1zm6 0h1v1h-1zm-5 1h1v1h-1zm1 0h1v1h-1zm1 0h1v1h-1zm1 0h1v1h-1zm36 0h1v7h-1zm2 0h1v1h-1zm-40 1h1v1h-1zm1 0h1v1h-1zm21 0h1v1h-1zm1 0h2v1h-2zm2 0h2v1h-2zm2 0h2v1h-2zm13 0h1v2h-1zm-39 1h1v5h-1zm20 0h1v1h-1z"/><path d="M51 48h2v1h-2zm-19 1h1v1h-1zm19 0h1v7h-1zm1 0h1v1h-1zm1 0h1v3h-1zm-24 1h1v1h-1zm1 0h1v1h-1zm1 0h1v1h-1zm21 0h1v1h-1zm-38 1h1v1h-1zm12 0h1v1h-1zm5 0h1v1h-1zm21 0h1v3h-1zm-38 1h1v1h-1zm8 0h1v1h-1zm1 0h1v1h-1zm9 0h1v1h-1zm-18 1h1v2h-1zm17 0h1v1h-1zm1 0h1v1h-1zm18 0h1v1h-1zm-19 1h1v1h-1zm19 0h1v2h-1zm2 0h1v1h-1zm-39 1h1v1h-1zm1 0h1v1h-1zm1 0h1v1h-1zm37 0h1v1h-1zm-38 1h1v1h-1zm19 0h1v1h-1zm1 0h1v1h-1zm1 0h1v1h-1zm1 0h1v1h-1zm14 0h1v1h-1zm1 0h1v1h-1zm1 0h1v2h-1zm-38 1h1v1h-1zm18 0h1v1h-1zm18 0h1v1h-1zm1 0h1v3h-1zm-25 1h1v1h-1zm1 0h1v1h-1zm1 0h1v1h-1zm2 0h1v1h-1zm1 0h1v1h-1zm19 0h1v1h-1zm-36 1h1v1h-1zm1 0h1v1h-1zm7 0h1v1h-1zm9 0h1v2h-1zm19 0h1v1h-1zm-35 1h1v1h-1zm17 0h1v1h-1zm19 0h1v1h-1zm-35 1h1v1h-1zm4 0h1v1h-1zm11 0h2v2h-2zm20 0h1v1h-1zm-35 1h1v1h-1zm14 0h1v3h-1zm-13 1h1v1h-1zm14 0h1v1h-1zm1 0h1v2h-1zm18 0h1v1h-1zm-33 1h1v1h-1zm14 0h1v1h-1zm11 0h1v1h-1zm8 0h1v1h-1zm-19 1h1v2h-1zm1 0h1v1h-1zm17 0h1v1h-1zm-32 1h1v1h-1zm1 0h1v1h-1zm12 0h1v1h-1zm2 0h1v1h-1zm13 0h1v1h-1zm3 0h1v1h-1zm-17 1h1v1h-1zm15 0h1v1h-1zm1 0h1v1h-1zm3 0h1v1h-1z"/></g><path fill="#a99" d="M32 20h1v1h-1zm-4 1h1v1h-1zm10 6h1v1h-1zm1 0h1v1h-1zm2 0h1v1h-1zm1 0h1v1h-1zm1 0h1v1h-1zm-13 2h1v1h-1zm12 5h1v1h-1zm-3 3h1v1h-1zm6 3h1v1h-1zm-32 4h2v1h-2zm22 1h1v1h-1zm-20 6h1v1h-1zm7 0h1v1h-1zm20 3h1v1h-1zm-20 3h1v1h-1z"/><path fill="#877" d="M32 21h1v1h-1zm-5 10h1v1h-1zm-3 10h2v1h-2zm28 0h1v1h-1zm-41 3h1v1h-1zm21 1h1v1h-1zm-17 4h1v1h-1zm13 0h1v1h-1zm-3 1h1v1h-1zm9 5h1v1h-1zm3 0h1v1h-1zm-13 1h1v1h-1zm3 1h1v1h-1zm15 6h1v1h-1zm6 0h1v1h-1zm-15 4h1v1h-1z"/><path fill="#cbb" d="M40 26h1v1h-1zm1 0h1v1h-1zm10 13h1v1h-1zm-33 4h1v1h-1zm24 19h1v1h-1zm5 9h1v1h-1z"/><path fill="#dcc" d="M26 30h1v1h-1zm13 1h1v1h-1zm14 9h1v1h-1zm-35 6h1v1h-1zm-5 12h1v1h-1z"/><path fill="#888" d="M0 5h1v1H0zm65 0h1v1h-1zM0 6h1v1H0zm65 0h1v1h-1zM0 7h1v1H0zm65 0h1v1h-1zM0 8h1v73H0zm65 0h1v73h-1zM29 19h1v1h-1zm4 2h1v1h-1zm3 6h1v1h-1zm8 1h1v1h-1zm-2 3h1v1h-1zm-23 1h1v1h-1zm-1 1h1v1h-1zm3 1h1v1h-1zm4 0h1v1h-1zm17 1h1v1h-1zm1 0h1v1h-1zm5 3h1v1h-1zm-26 1h1v1h-1zm7 0h1v1h-1zm13 1h1v1h-1zm9 0h1v1h-1zm2 1h1v1h-1zm2 1h1v1h-1zm-33 4h1v1h-1zm3 0h1v1h-1zm6 0h1v1h-1zm6 0h1v1h-1zm1 0h1v1h-1zm-8 1h1v1h-1zm-1 1h1v1h-1zm11 0h1v1h-1zm-25 4h1v1h-1zm12 0h1v1h-1zm-2 2h1v1h-1zm-4 4h1v1h-1zm32 0h1v1h-1zm-12 4h1v1h-1zm-23 2h1v1h-1zm26 0h1v1h-1zm3 0h1v1h-1zm-6 1h1v1h-1zM0 81h1v2H0zm65 0h1v2h-1zM0 83h1v1H0zm65 0h1v1h-1zM1 87h1v1H1zm63 0h1v1h-1zM2 88h1v1H2zm61 0h1v1h-1z"/><path fill="#766" d="M26 18h1v1h-1zm9 4h1v1h-1zM20 32h1v1h-1zm1 0h1v1h-1zm1 0h1v1h-1zm2 2h1v1h-1zm-2 6h1v1h-1zm4 1h1v1h-1zm10 2h1v1h-1zm-10 7h1v1h-1zm-14 3h1v1h-1zm26 2h1v1h-1zm-10 2h1v1h-1zm21 3h1v1h-1zm3 2h1v1h-1zm-4 2h1v1h-1zm-18 5h1v1h-1z"/><path fill="#998" d="M26 19h1v1h-1zm15 15h1v1h-1zm9 5h1v1h-1zm-34 5h1v1h-1zm29 12h1v1h-1z"/><path fill="#443" d="M23 42h1v1h-1zm-6 4h1v1h-1zm6 7h1v1h-1zm9 1h1v1h-1z"/><path fill="#655" d="M34 22h1v1h-1zm1 5h1v1h-1zm2 1h1v1h-1zm8 1h1v1h-1zm-22 3h1v1h-1zm17 4h1v1h-1zm5 0h1v1h-1zm1 1h1v1h-1zm1 1h1v1h-1zm3 2h1v1h-1zm-16 2h1v1h-1zm-22 3h1v1h-1zm1 0h1v1h-1zm1 0h1v1h-1zm21 1h1v1h-1zm-2 9h1v1h-1zm6 0h1v1h-1zm0 6h1v1h-1zm4 3h1v1h-1z"/><path fill="#322" d="M30 23h1v1h-1zm2 5h1v1h-1zm2 0h1v1h-1zm-2 2h1v1h-1zm-7 2h1v1h-1zm16 5h1v1h-1zm-9 1h1v1h-1zm8 0h1v1h-1zm8 1h1v1h-1zm-13 1h1v1h-1zm-8 1h1v1h-1zm26 2h1v1h-1zm-38 5h1v1h-1zm17 0h1v1h-1zm-1 1h1v1h-1zm-6 2h1v1h-1zm19 4h1v1h-1zm-12 1h1v1h-1zm-17 1h1v1h-1zm1 2h1v1h-1zm0 1h1v1h-1zm34 0h1v1h-1zm-28 1h1v1h-1zm18 2h1v1h-1zm1 0h1v1h-1zm3 2h1v1h-1zm-13 6h1v1h-1z"/><path fill="#100" d="M37 30h6v1h-6zm8 1h1v1h-1zm-20 2h4v1h-4zm17 6h4v1h-4zm-3 1h1v1h-1zm-16 6h1v1h-1zm13 2h3v1h-3zm-1 9h4v1h-4zm-9 2h1v1h-1zm-3 1h1v1h-1zm-2 1h1v1h-1zm25 8h2v1h-2zm1 1h2v1h-2z"/><path fill="#ddd" d="M3 0h1v1H3zm1 0h1v1H4zm1 0h56v1H5zm56 0h1v1h-1zm1 0h1v1h-1zM2 1h1v1H2zm61 0h1v1h-1zM1 6h1v1H1zm63 0h1v1h-1zM1 7h1v1H1zm63 0h1v1h-1zM1 8h1v1H1zm63 0h1v1h-1zM1 9h1v73H1zm63 0h1v73h-1zM30 25h1v1h-1zm8 1h1v1h-1zm-9 3h1v1h-1zm18 0h1v1h-1zm1 1h1v1h-1zm-26 1h1v1h-1zm24 1h1v1h-1zm-3 1h1v1h-1zm-13 1h1v1h-1zm16 0h1v1h-1zm-8 3h1v1h-1zm-17 1h1v1h-1zm1 0h1v1h-1zm7 0h1v1h-1zm-4 2h1v1h-1zm1 0h1v1h-1zm-6 2h1v1h-1zm-6 1h1v1h-1zm3 0h1v1h-1zm32 0h1v1h-1zm-17 1h1v1h-1zm6 1h1v1h-1zm-8 1h1v1h-1zm-5 1h1v1h-1zm16 0h1v1h-1zm-1 6h1v1h-1zm1 0h1v1h-1zm13 0h1v1h-1zm-18 1h1v1h-1zm-8 2h1v1h-1zm21 1h1v1h-1zm-13 1h1v1h-1zm-19 1h1v1h-1zm20 1h1v1h-1zm-18 1h1v1h-1zm26 2h1v1h-1zm-30 1h1v1h-1zm4 3h1v1h-1zm0 1h1v1h-1zm24 0h1v1h-1zm-13 3h1v1h-1zM1 82h1v1H1zm63 0h1v1h-1zM1 83h1v1H1zm63 0h1v1h-1zM2 84h1v1H2zm61 0h1v1h-1zM3 85h1v1H3zm1 0h1v1H4zm1 0h1v1H5zm1 0h1v1H6zm1 0h2v1H7zm50 0h2v1h-2zm2 0h1v1h-1zm1 0h1v1h-1zm1 0h1v1h-1zm1 0h1v1h-1z"/><path fill="#999" d="M0 3h1v1H0zm65 0h1v1h-1zM0 4h1v1H0zm65 0h1v1h-1zM30 19h1v1h-1zm7 8h1v1h-1zm3 0h1v1h-1zm5 1h1v1h-1zm-16 2h1v1h-1zm-4 1h1v1h-1zm19 3h1v1h-1zm1 0h1v1h-1zm-22 6h1v1h-1zm29 0h1v1h-1zm-13 1h1v1h-1zm-18 1h1v1h-1zm28 0h1v1h-1zm-37 2h1v1h-1zm3 0h1v1h-1zm-5 4h1v1h-1zm44 0h1v1h-1zm-20 2h1v1h-1zm-13 2h1v1h-1zm0 1h1v1h-1zm22 1h1v1h-1zm-17 1h1v1h-1zm-13 2h1v1h-1zm13 0h1v1h-1zm3 2h1v1h-1zm20 0h1v1h-1zm-35 2h1v1h-1zm29 2h1v1h-1zm2 1h1v1h-1zm1 0h1v1h-1zm5 2h1v1h-1zm-18 2h1v1h-1zm-3 2h1v1h-1zM3 88h1v1H3zm59 0h1v1h-1z"/><path fill="#988" d="M31 20h1v1h-1zm3 1h1v1h-1zm-4 3h1v1h-1zm-4 7h1v1h-1zm9 2h1v1h-1zm3 5h1v1h-1zm-19 5h1v1h-1zm21 3h1v1h-1zm-13 3h1v1h-1zm9 0h1v1h-1zm-10 3h1v1h-1zm-2 3h1v1h-1zm11 0h1v1h-1zm1 0h1v1h-1zm-13 2h1v1h-1zm-6 10h1v1h-1zm33 1h1v1h-1z"/><g fill="#fff"><path d="M4 1h1v1H4zm1 0h1v1H5zm1 0h54v1H6zm54 0h1v1h-1zm1 0h1v1h-1zM3 2h1v1H3zm1 0h1v1H4zm1 0h56v1H5zm56 0h1v1h-1zm1 0h1v1h-1zM2 3h1v1H2zm1 0h1v1H3zm1 0h2v1H4zm2 0h54v1H6zm54 0h2v1h-2zm2 0h1v1h-1zm1 0h1v1h-1zM2 4h1v2H2zm1 0h1v3H3zm1 0h1v1H4zm1 0h56v14H5zm56 0h1v1h-1zm1 0h1v3h-1zm1 0h1v2h-1z"/><path d="M4 5h58v2H4zM3 7h1v1H3zm1 0h1v1H4zm57 0h1v1h-1zm1 0h1v1h-1zM3 8h1v73H3zm1 0h1v73H4zm57 0h1v74h-1zm1 0h1v73h-1zM5 18h20v12H5zm25 0h1v1h-1zm1 0h30v1H31zm-6 1h1v11h-1zm7 0h1v1h-1zm1 0h28v1H33zm-7 1h1v10h-1zm8 0h1v1h-1zm1 0h26v1H35zm-8 1h1v9h-1zm9 0h25v3H36zm-8 1h1v7h-1zm1 1h1v1h-1zm0 1h1v5h-1zm7 0h1v1h-1zm1 0h24v2H37zm-7 2h1v1h-1zm14 0h17v1H44zm-14 1h1v1h-1zm15 0h1v1h-1zm1 0h15v1H46zm1 1h14v1H47zm-19 1h1v1h-1zm20 0h13v1H48zM5 30h19v1H5zm19 0h1v1h-1zm25 0h12v8H49zM5 31h15v1H5zm15 0h1v1h-1zM5 32h12v11H5zm32 0h8v1h-8zm10 0h1v1h-1z"/><path d="M48 32h13v5H48zm-12 1h5v1h-5zm5 0h1v1h-1z"/><path d="M45 33h16v1H45zm-28 1h2v9h-2zm2 0h1v1h-1zm10 0h1v3h-1zm7 0h3v3h-3zm3 0h1v1h-1zm8 0h14v3H47z"/><path d="M19 35h11v2H19zm16 0h4v2h-4zm4 0h1v1h-1zm0 1h1v1h-1zm-20 1h10v1H19zm10 0h1v1h-1zm5 0h1v1h-1zm1 0h1v1h-1zm1 0h1v1h-1zm1 0h1v1h-1zm-18 1h2v4h-2zm4 0h1v1h-1zm1 0h5v1h-5zm27 0h10v1H51zm-26 1h3v1h-3zm3 0h1v1h-1zm24 0h1v1h-1zm1 0h8v1h-8zm1 1h1v1h-1zm1 0h6v1h-6zm-21 1h1v1h-1zm6 0h1v1h-1zm1 0h7v5h-7zm14 0h1v1h-1zm1 0h5v41h-5zm-37 1h1v1h-1zm10 0h1v1h-1zm1 0h3v2h-3zm3 0h1v1h-1z"/><path d="M39 42h10v3H39zM5 43h5v39H5zm5 0h1v1h-1zm18 0h5v1h-5zm9 0h1v1h-1z"/><path d="M38 43h11v2H38zm-11 1h5v1h-5z"/><path d="M36 44h13v1H36zm13 0h1v1h-1zm-23 1h1v1h-1zm1 0h4v1h-4zm13 0h10v1H40zm-21 1h3v5h-3zm7 0h4v1h-4zm15 0h1v1h-1zm1 0h8v7h-8zm13 0h1v1h-1zm-38 1h1v1h-1z"/><path d="M18 47h4v4h-4zm4 0h1v1h-1zm4 0h2v1h-2zm2 0h1v1h-1zm27 0h6v35h-6zm-39 1h1v1h-1z"/><path d="M17 48h6v3h-6zm8 0h2v1h-2zm16 0h9v5h-9z"/><path d="M16 49h9v1h-9zm23 0h11v4H39zm-29 1h1v34h-1zm6 0h7v1h-7z"/><path d="M35 50h15v3H35zm-19 1h5v4h-5zm5 0h1v1h-1zm13 0h1v1h-1zm-23 1h1v1h-1z"/><path d="M34 52h16v1H34zm-23 1h1v31h-1zm14 0h1v1h-1zm4 0h1v1h-1zm5 0h4v1h-4zm4 0h1v1h-1zm5 0h1v1h-1zm1 0h6v1h-6zm-23 1h4v1h-4zm7 0h1v1h-1zm1 0h1v2h-1zm5 0h1v1h-1zm11 0h5v1h-5zm9 0h1v1h-1zm-42 1h1v1h-1zm5 0h6v1h-6zm6 0h1v1h-1z"/><path d="M27 55h3v1h-3zm19 0h3v6h-3zm3 0h1v1h-1zm5 0h7v27h-7zm-42 1h1v28h-1zm5 0h5v1h-5zm5 0h1v1h-1zm4 0h1v1h-1zm1 0h1v1h-1zm-10 1h4v1h-4zm4 0h1v1h-1z"/><path d="M45 57h4v4h-4zm-28 1h3v1h-3zm21 0h1v1h-1z"/><path d="M39 58h10v2H39zm-26 1h1v1h-1zm5 0h1v3h-1zm1 0h1v1h-1zm15 0h3v25h-3zm3 0h1v1h-1z"/><path d="M38 59h11v1H38zm-25 1h1v24h-1zm14 0h2v24h-2zm2 0h1v5h-1zm11 0h9v1h-9z"/><path d="M24 61h5v23h-5zm13 0h1v23h-1zm4 0h1v1h-1zm1 0h6v1h-6zm6 0h1v1h-1zm5 0h8v21h-8zm-35 1h1v1h-1zm1 0h1v4h-1zm3 0h1v1h-1z"/><path d="M23 62h6v22h-6zm15 0h1v22h-1zm6 0h4v1h-4zm-30 1h1v21h-1z"/><path d="M20 63h9v21h-9zm19 1h1v20h-1zm-24 1h1v19h-1zm14 0h1v1h-1zm11 0h1v19h-1zm12 0h9v17h-9zm-33 1h1v1h-1zm10 0h1v18h-1zm12 0h1v1h-1zm-25 1h1v17h-1zm25 0h1v17h-1zm1 0h1v1h-1zm9 0h1v1h-1zm-34 1h1v1h-1zm25 0h1v16h-1z"/><path d="M51 68h10v14H51zm-34 1h1v15h-1zm2 0h11v15H19zm24 0h1v15h-1zm7 0h1v1h-1z"/><path d="M18 70h12v14H18zm15 0h1v1h-1zm11 0h1v14h-1zm6 0h11v12H50z"/><path d="M33 71h13v13H33zm13 0h1v1h-1zm3 0h12v11H49z"/><path d="M30 72h31v10H30zM3 81h1v1H3zm1 0h1v2H4zm58 0h1v1h-1zM3 82h1v1H3zm2 0h1v1H5zm1 0h54v1H6zm54 0h1v1h-1zm1 0h1v1h-1zm1 0h1v1h-1zM3 83h1v1H3zm1 0h1v1H4zm1 0h1v1H5zm1 0h1v1H6zm1 0h52v1H7zm52 0h1v1h-1zm1 0h1v1h-1zm1 0h1v1h-1zm1 0h1v1h-1zM5 84h1v1H5zm1 0h1v1H6zm1 0h1v1H7zm1 0h50v1H8zm50 0h1v1h-1zm1 0h1v1h-1zm1 0h1v1h-1z"/></g><path fill="#554" d="M35 26h1v1h-1zm8 5h1v1h-1zm-2 5h1v1h-1zm-8 17h1v1h-1zm7 2h1v1h-1zm-10 1h1v1h-1z"/><path fill="#887" d="M44 35h1v1h-1zm2 0h1v1h-1zm-8 25h1v1h-1z"/><path fill="#222" d="M35 23h1v1h-1zm-1 2h1v1h-1zm-1 2h1v1h-1zm0 1h1v1h-1zm14 2h1v1h-1zm-12 2h1v1h-1zm-16 1h1v1h-1zm10 0h1v1h-1zm20 8h1v1h-1zm-22 1h1v1h-1zm-1 1h1v1h-1zm13 5h1v1h-1zm-6 3h1v1h-1zm20 4h1v1h-1zm-13 2h1v1h-1zm-23 5h1v1h-1z"/><path fill="#433" d="M31 28h1v1h-1zm4 0h1v1h-1zm9 1h1v1h-1zm-14 4h1v1h-1zm0 4h1v1h-1zm1 0h1v1h-1zm-1 1h1v1h-1zm8 1h1v1h-1zm-8 2h1v1h-1zm-6 1h1v1h-1zm-3 1h1v1h-1zm13 0h1v1h-1zm21 1h1v1h-1zm-44 1h1v1h-1zm17 5h1v1h-1zm2 3h1v1h-1zm-5 2h1v1h-1zm5 0h1v1h-1zm1 0h1v1h-1zm12 0h1v1h-1zm-12 1h1v1h-1zm-1 1h1v1h-1zm-14 1h1v1h-1zm8 0h1v1h-1zm-3 1h1v1h-1zm12 4h1v1h-1zm16 1h1v1h-1zm-1 1h1v1h-1zm-30 3h1v1h-1zm14 2h1v1h-1z"/><path fill="#aaa" d="M0 2h1v1H0zm65 0h1v1h-1zM28 18h1v1h-1zm-1 2h1v1h-1zm1 10h1v1h-1zm-4 1h1v1h-1zm17 0h1v1h-1zm-23 1h1v1h-1zm8 2h1v1h-1zm14 0h1v1h-1zm-10 1h1v1h-1zm17 2h1v1h-1zm-13 1h1v1h-1zm2 0h1v1h-1zm1 0h1v1h-1zm-13 2h1v1h-1zm3 0h1v1h-1zm16 0h1v1h-1zm1 0h1v1h-1zm-16 2h1v1h-1zm5 1h1v1h-1zm2 1h1v1h-1zm20 1h1v1h-1zm-31 3h1v1h-1zm4 0h1v1h-1zm-13 2h1v1h-1zm9 0h1v1h-1zm30 0h1v1h-1zm-28 3h1v1h-1zm13 1h1v1h-1zm1 0h1v1h-1zm1 0h1v1h-1zm4 1h1v1h-1zm-22 1h1v1h-1zm6 0h1v1h-1zm5 2h1v1h-1zm-17 2h1v1h-1zm8 0h1v1h-1zm13 1h1v1h-1zm14 2h1v1h-1zm-8 6h1v1h-1zM1 86h1v1H1zm63 0h1v1h-1zM2 87h1v1H2zm1 0h1v1H3zm1 0h1v1H4zm1 0h56v1H5zm56 0h1v1h-1zm1 0h1v1h-1zm1 0h1v1h-1zM4 88h1v1H4zm1 0h56v1H5zm56 0h1v1h-1z"/><path fill="#544" d="M28 19h1v1h-1zm11 9h1v1h-1zm2 0h1v1h-1zm-10 2h1v1h-1zm-2 1h1v1h-1zm5 4h1v1h-1zm8 1h1v1h-1zm1 0h1v1h-1zm1 0h1v1h-1zm-22 6h1v1h-1zm15 0h1v1h-1zm15 0h1v1h-1zm-22 7h1v1h-1zm5 0h1v1h-1zm-11 2h1v1h-1zm17 4h1v1h-1zm1 2h1v1h-1zm7 4h1v1h-1zm-9 1h1v1h-1zm-22 3h1v1h-1zm33 0h1v1h-1zm-21 3h1v1h-1z"/><path fill="#666" d="M30 20h1v1h-1zm16 9h1v1h-1zm-18 2h1v1h-1zm-6 3h1v1h-1zm1 0h1v1h-1zm17 1h1v1h-1zm-10 1h1v1h-1zm3 2h1v1h-1zm6 0h1v1h-1zm-2 1h1v1h-1zm-17 4h1v1h-1zm14 1h1v1h-1zm-15 1h1v1h-1zm-3 2h1v1h-1zm13 2h1v1h-1zm-18 1h1v1h-1zm12 1h1v1h-1zm-8 2h1v1h-1zm38 4h1v1h-1zm-25 2h1v1h-1zm-13 4h1v1h-1zm1 2h1v1h-1zm17 1h1v1h-1zM0 88h1v1H0zm1 0h1v1H1zm63 0h1v1h-1zm1 0h1v1h-1zM1 89h1v1H1zm1 0h1v1H2zm1 0h1v1H3zm1 0h58v1H4zm58 0h1v1h-1zm1 0h1v1h-1zm1 0h1v1h-1z"/><path fill="#333" d="M33 23h1v1h-1zm1 0h1v1h-1zm0 3h1v1h-1zm0 1h1v1h-1zm-2 2h1v1h-1zm-2 2h1v1h-1zm2 6h1v1h-1zm13 0h1v1h-1zm-11 2h1v1h-1zm1 2h1v1h-1zm-10 4h1v1h-1zm29 1h1v1h-1zm-44 1h1v1h-1zm13 0h1v1h-1zm2 5h1v1h-1zm8 0h1v1h-1zm-18 2h1v1h-1zm15 0h1v1h-1zm11 3h1v1h-1zm-14 2h1v1h-1zm6 2h1v1h-1zm17 0h1v1h-1zm-17 1h1v1h-1zm-3 5h1v1h-1zm19 2h1v1h-1zm-3 1h1v1h-1z"/><path fill="#221" d="M31 31h1v1h-1zm-1 8h1v1h-1zm22 4h1v1h-1zm-40 9h1v1h-1zm3 4h1v1h-1zm16 1h1v1h-1zm-16 1h1v1h-1zm10 0h1v1h-1zm8 0h1v1h-1zm13 8h2v1h-2z"/><path fill="#baa" d="M38 31h1v1h-1zm-3 7h1v1h-1zm-12 1h1v1h-1zm15 15h1v1h-1zm-22 2h1v1h-1z"/><path fill="#edd" d="M42 33h1v1h-1zm-7 1h1v1h-1zm-14 7h1v1h-1zm-6 2h1v1h-1zm31 20h1v1h-1zm-28 6h1v1h-1zm14 2h1v1h-1z"/><path fill="#bba" d="M21 39h1v1h-1z"/><path fill="#555" d="M31 21h1v1h-1zm5 7h1v1h-1zm2 0h1v1h-1zm-7 1h1v1h-1zm9 8h1v1h-1zm1 3h1v1h-1zm-19 1h1v1h-1zm29 0h1v1h-1zm3 1h1v1h-1zm-20 4h1v1h-1zm-2 1h1v1h-1zm-1 1h1v1h-1zm-4 2h1v1h-1zm1 3h1v1h-1zm-15 3h1v1h-1zm16 1h1v1h-1zm-9 2h1v1h-1zm-6 1h1v1h-1zm10 0h1v1h-1zm25 2h1v1h-1zm0 1h1v1h-1zm-16 2h1v1h-1zm12 0h1v1h-1zm2 0h1v1h-1zm-5 1h1v1h-1z"/><path fill="#776" d="M29 22h1v1h-1zm16 13h1v1h-1zm4 4h1v1h-1zm-26 2h1v1h-1zm10 3h1v1h-1zm-1 2h1v1h-1zm-5 8h1v1h-1zm6 0h1v1h-1z"/><path fill="#444" d="M32 22h1v1h-1zm8 6h1v1h-1zm-16 4h1v1h-1zm9 5h1v1h-1zm14 3h1v1h-1zm-29 4h1v1h-1zm-3 1h1v1h-1zm14 7h1v1h-1zm3 3h1v1h-1zm10 0h1v1h-1zm11 1h1v1h-1zm-20 8h1v1h-1z"/><path fill="#ccb" d="M37 54h1v1h-1z"/><path fill="#111" d="M28 20h1v1h-1zm1 1h1v1h-1zm1 1h1v1h-1zm1 1h1v1h-1zm0 1h1v1h-1zm0 1h1v1h-1zm0 1h1v1h-1zm6 3h1v1h-1zm1 0h1v1h-1zm1 0h1v1h-1zm1 0h1v1h-1zm1 0h1v1h-1zm1 0h1v1h-1zm-7 1h1v1h-1zm10 0h1v1h-1zm-11 1h1v1h-1zm13 0h1v1h-1zm-20 1h1v1h-1zm1 0h2v1h-2zm2 0h1v1h-1zm1 0h1v1h-1zm3 0h1v1h-1zm-14 1h1v1h-1zm1 0h1v1h-1zm1 0h1v1h-1zm9 0h1v1h-1zm2 0h1v1h-1zm1 0h1v2h-1zm-3 1h1v1h-1zm2 0h1v1h-1zm0 1h1v1h-1zm8 3h1v1h-1zm1 0h1v1h-1zm1 0h1v1h-1zm1 0h1v1h-1zm1 0h1v1h-1zm-14 1h1v1h-1zm1 0h1v1h-1zm8 0h1v1h-1zm7 0h1v1h-1zm-17 1h1v1h-1zm7 0h1v1h-1zm1 0h1v1h-1zm-10 1h1v1h-1zm1 0h1v1h-1zm7 0h1v1h-1zm-10 1h1v1h-1zm9 0h1v1h-1zm15 0h1v1h-1zm-25 1h1v1h-1zm25 0h1v1h-1zm-30 1h1v1h-1zm1 0h1v1h-1zm1 0h1v1h-1zm1 0h1v1h-1zm1 0h1v1h-1zm26 0h1v1h-1zm4 0h1v1h-1zm-37 1h1v1h-1zm1 0h1v1h-1zm4 0h1v1h-1zm28 0h1v1h-1zm3 0h1v1h-1zm1 0h1v1h-1zm-44 1h1v1h-1zm5 0h1v1h-1zm38 0h1v2h-1zm-42 1h1v1h-1zm3 0h1v1h-1zm-3 1h1v1h-1zm1 0h1v1h-1zm2 0h1v1h-1zm20 0h1v1h-1zm19 0h1v1h-1zm-42 1h1v1h-1zm1 0h1v1h-1zm2 0h1v1h-1zm19 0h1v1h-1zm-21 1h1v1h-1zm2 0h1v1h-1zm18 0h1v2h-1zm1 0h1v1h-1zm-21 1h1v1h-1zm15 0h1v1h-1zm1 0h1v1h-1zm1 0h1v1h-1zm1 0h1v1h-1zm-6 1h1v1h-1zm7 0h1v1h-1zm22 0h1v1h-1zm-40 1h1v1h-1zm9 0h1v1h-1zm5 0h1v1h-1zm26 0h1v2h-1zm-40 1h1v1h-1zm13 0h1v1h-1zm11 2h1v1h-1zm1 0h1v1h-1zm1 0h1v1h-1zm5 0h1v1h-1zm-11 1h1v1h-1zm6 0h1v1h-1zm-25 1h1v1h-1zm15 0h1v1h-1zm3 0h1v1h-1zm20 0h1v1h-1zm-29 1h1v1h-1zm1 0h1v1h-1zm6 0h1v2h-1zm2 0h1v1h-1zm20 0h1v1h-1zm-32 1h1v1h-1zm1 0h1v1h-1zm31 0h1v1h-1zm-37 1h1v1h-1zm15 0h1v1h-1zm-15 1h1v1h-1zm36 0h1v1h-1zm-35 1h1v1h-1zm35 0h1v1h-1zm-35 1h1v1h-1zm25 0h1v1h-1zm10 0h1v1h-1zm-34 1h1v1h-1zm13 0h1v1h-1zm13 0h1v1h-1zm7 0h1v1h-1zm-6 1h1v1h-1zm5 0h1v1h-1zm1 0h1v1h-1zm-32 1h1v1h-1zm14 0h1v1h-1zm13 0h1v1h-1zm3 0h1v1h-1zm1 0h1v1h-1zm-18 1h1v1h-1zm1 0h1v1h-1zm12 0h1v1h-1zm2 0h1v1h-1zm1 0h1v1h-1zm1 0h1v1h-1zm-17 1h1v1h-1zm1 0h1v1h-1z"/><path fill="#aa9" d="M43 34h1v1h-1zm11 7h1v1h-1zm0 8h1v1h-1z"/><path fill="#fee" d="M39 45h1v1h-1z"/><path fill="#ccc" d="M1 0h1v1H1zm1 0h1v1H2zm61 0h1v1h-1zm1 0h1v1h-1zM1 2h1v1H1zm63 0h1v1h-1zM29 18h1v1h-1zm2 1h1v1h-1zm2 1h1v1h-1zm6 6h1v1h-1zm3 0h1v1h-1zm-2 5h1v1h-1zm-13 3h1v1h-1zm-6 6h1v1h-1zm27 1h1v1h-1zm-35 2h1v1h-1zm7 2h1v1h-1zm1 0h1v1h-1zm16 0h1v1h-1zm-8 2h1v1h-1zm25 5h1v1h-1zm-10 2h1v1h-1zm-19 2h1v1h-1zm-1 1h1v1h-1zm1 0h1v1h-1zm19 0h1v1h-1zm-9 1h1v1h-1zm-12 3h1v1h-1zm-2 1h1v1h-1zm27 0h1v1h-1zm-30 1h1v1h-1zm29 0h1v1h-1zm-7 1h1v1h-1zm-7 5h1v1h-1zm16 1h1v1h-1zm-1 1h1v1h-1zM1 84h1v1H1zm63 0h1v1h-1zM2 85h1v1H2zm61 0h1v1h-1zM4 86h1v1H4zm1 0h1v1H5zm1 0h1v1H6zm1 0h52v1H7zm52 0h1v1h-1zm1 0h1v1h-1zm1 0h1v1h-1z"/><path fill="#bbb" d="M0 1h1v1H0zm1 0h1v1H1zm63 0h1v1h-1zm1 0h1v1h-1zM44 27h1v1h-1zm-17 3h1v1h-1zm-4 1h1v1h-1zm-3 3h1v1h-1zm14 2h1v1h-1zm12 0h1v1h-1zm3 2h1v1h-1zm-17 3h1v1h-1zm-21 2h1v1h-1zm1 0h1v1h-1zm14 1h1v1h-1zm10 1h1v1h-1zm-10 4h1v1h-1zm11 0h1v1h-1zm-26 2h1v1h-1zm43 0h1v1h-1zm-30 2h1v1h-1zm-12 1h1v1h-1zm37 4h1v1h-1zm4 1h1v1h-1zm-34 1h1v1h-1zm21 1h1v1h-1zm4 2h1v1h-1zm1 7h1v1h-1zM1 85h1v1H1zm63 0h1v1h-1zM2 86h1v1H2zm1 0h1v1H3zm59 0h1v1h-1zm1 0h1v1h-1z"/><path fill="#eee" d="M3 1h1v1H3zm59 0h1v1h-1zM2 2h1v1H2zm61 0h1v1h-1zM1 3h1v1H1zm63 0h1v1h-1zM1 4h1v1H1zm63 0h1v1h-1zM1 5h1v1H1zm63 0h1v1h-1zM2 6h1v1H2zm61 0h1v1h-1zM2 7h1v1H2zm61 0h1v1h-1zM2 8h1v74H2zm61 0h1v74h-1zM25 18h1v1h-1zm10 3h1v1h-1zm1 4h1v1h-1zm0 1h1v1h-1zm1 0h1v1h-1zm6 0h1v1h-1zm-13 2h1v1h-1zm16 0h1v1h-1zm-21 2h1v1h-1zm-4 1h1v1h-1zm-4 1h1v2h-1zm19 0h1v1h-1zm9 0h1v1h-1zm-1 1h1v1h-1zm-16 1h1v1h-1zm20 3h1v1h-1zm2 1h1v1h-1zm-26 1h1v1h-1zm9 2h1v1h-1zm5 1h1v1h-1zm-22 1h1v1h-1zm11 0h1v1h-1zm4 2h1v1h-1zm-8 3h1v1h-1zm4 0h1v1h-1zm-17 1h1v1h-1zm15 0h1v1h-1zm13 0h1v1h-1zm-15 1h1v1h-1zm16 3h1v1h-1zm3 0h1v1h-1zm-7 1h1v1h-1zm-19 1h1v1h-1zm33 1h1v1h-1zm-29 2h1v1h-1zm17 0h1v1h-1zm-11 2h1v1h-1zm13 0h1v1h-1zm14 0h1v1h-1zm-39 2h1v1h-1zm6 0h1v1h-1zm23 0h1v1h-1zm-4 1h1v1h-1zm13 1h1v1h-1zm-36 2h1v1h-1zM2 82h1v1H2zm61 0h1v1h-1zM2 83h1v1H2zm61 0h1v1h-1zM3 84h1v1H3zm1 0h1v1H4zm57 0h1v1h-1zm1 0h1v1h-1zM9 85h48v1H9z"/><path fill="#110" d="M36 30h1v1h-1zm7 0h1v1h-1zm1 0h1v1h-1zm-9 1h1v1h-1zm11 0h1v1h-1zm-23 2h1v1h-1zm1 0h1v1h-1zm17 6h1v1h-1zm5 0h1v1h-1zm-15 1h1v1h-1zm1 0h1v1h-1zm1 0h1v1h-1zm15 0h1v1h-1zm-11 1h1v1h-1zm-1 1h1v1h-1zm-11 2h1v1h-1zm-2 1h1v1h-1zm1 0h1v1h-1zm-8 1h1v1h-1zm8 0h1v1h-1zm-9 1h1v1h-1zm9 0h1v1h-1zm11 1h1v1h-1zm-1 1h1v1h-1zm-6 3h1v1h-1zm12 4h3v1h-3zm3 0h1v1h-1zm-9 1h1v1h-1zm-9 2h1v1h-1zm-3 1h1v1h-1zm20 5h1v1h-1zm1 1h1v1h-1zm1 1h1v1h-1zm1 1h1v1h-1zm4 0h1v1h-1zm-4 1h1v1h-1zm3 0h1v1h-1zm-17 1h1v1h-1z"/></svg>