<?xml version="1.0" encoding="UTF-8"?><svg xmlns="http://www.w3.org/2000/svg" version="1.2" baseProfile="tiny" viewBox="0 0 66 90" width="66px" height="90px"><g fill="#444"><rect x="31" y="26" width="1" height="1"/><rect x="29" y="27" width="1" height="1"/><rect y="30" width="1" height="1" x="32"/><rect y="44" width="1" height="1" x="35"/><rect width="1" height="1" x="24" y="48"/><rect height="1" x="26" y="49" width="1"/><rect height="1" x="47" y="52" width="1"/><rect height="1" x="31" y="60" width="1"/><rect y="63" width="1" height="1" x="14"/><rect width="1" height="1" x="36" y="63"/></g><g fill="#100"><rect y="28" width="3" height="1" x="36"/><rect width="3" height="1" x="32" y="29"/><rect x="20" y="30" width="3" height="1"/><rect height="1" x="30" y="30" width="2"/><rect y="31" width="1" height="1" x="29"/><rect height="1" x="26" y="33" width="1"/><rect x="42" y="45" width="2" height="1"/><rect width="1" height="1" x="45" y="46"/><rect height="1" x="50" y="52" width="3"/><rect y="65" width="5" height="1" x="28"/><rect x="38" y="65" width="2" height="1"/><rect width="2" height="1" x="24" y="66"/></g><rect x="41" y="42" width="1" height="1" fill="#ddc"/><g fill="#eed"><rect y="27" width="1" height="1" x="19"/><rect width="1" height="1" x="30" y="57"/><rect y="61" width="1" height="1" x="37"/></g><g fill="#baa"><rect x="12" y="28" width="1" height="1"/><rect x="42" y="28" width="1" height="1"/><rect y="48" width="1" height="1" x="20"/><rect x="39" y="62" width="1" height="1"/><rect x="24" y="63" width="1" height="1"/></g><rect x="53" y="45" width="1" height="1" fill="#ffe"/><g fill="#edd"><rect y="50" width="1" height="1" x="18"/><rect height="1" x="20" y="54" width="1"/></g><g fill="#ddd"><rect x="3" width="1" height="1"/><rect height="1" x="4" width="1"/><rect width="56" height="1" x="5"/><rect width="1" height="1" x="61"/><rect x="62" width="1" height="1"/><rect x="2" y="1" width="1" height="1"/><rect y="1" width="1" height="1" x="63"/><rect width="1" height="1" x="1" y="6"/><rect x="64" y="6" width="1" height="1"/><rect height="1" x="1" y="7" width="1"/><rect width="1" height="1" x="64" y="7"/><rect x="1" y="8" width="1" height="1"/><rect y="8" width="1" height="1" x="64"/><rect x="1" y="9" width="1" height="73"/><rect height="73" x="64" y="9" width="1"/><rect x="37" y="23" width="1" height="1"/><rect y="26" width="1" height="1" x="25"/><rect x="20" y="27" width="1" height="1"/><rect x="37" y="35" width="1" height="1"/><rect x="38" y="35" width="1" height="1"/><rect height="1" x="24" y="36" width="1"/><rect x="17" y="40" width="1" height="1"/><rect width="1" height="1" x="34" y="40"/><rect width="1" height="1" x="18" y="41"/><rect y="41" width="1" height="1" x="34"/><rect x="34" y="42" width="1" height="1"/><rect height="1" x="42" y="42" width="1"/><rect y="43" width="1" height="1" x="48"/><rect x="31" y="44" width="1" height="1"/><rect height="1" x="20" y="46" width="1"/><rect height="1" x="25" y="52" width="1"/><rect height="1" x="19" y="53" width="1"/><rect x="36" y="53" width="1" height="1"/><rect width="1" height="1" x="51" y="53"/><rect height="1" x="31" y="55" width="1"/><rect width="1" height="1" x="34" y="57"/><rect x="21" y="58" width="1" height="1"/><rect y="60" width="1" height="1" x="28"/><rect width="1" height="1" x="32" y="60"/><rect height="1" x="1" y="82" width="1"/><rect width="1" height="1" x="64" y="82"/><rect height="1" x="1" y="83" width="1"/><rect x="64" y="83" width="1" height="1"/><rect width="1" height="1" x="2" y="84"/><rect y="84" width="1" height="1" x="63"/><rect width="1" height="1" x="3" y="85"/><rect y="85" width="1" height="1" x="4"/><rect x="5" y="85" width="1" height="1"/><rect x="6" y="85" width="1" height="1"/><rect width="2" height="1" x="7" y="85"/><rect x="57" y="85" width="2" height="1"/><rect width="1" height="1" x="59" y="85"/><rect x="60" y="85" width="1" height="1"/><rect height="1" x="61" y="85" width="1"/><rect x="62" y="85" width="1" height="1"/></g><g fill="#fff"><rect height="1" x="4" y="1" width="1"/><rect y="1" width="1" height="1" x="5"/><rect x="6" y="1" width="54" height="1"/><rect height="1" x="60" y="1" width="1"/><rect y="1" width="1" height="1" x="61"/><rect x="3" y="2" width="1" height="1"/><rect x="4" y="2" width="1" height="1"/><rect width="56" height="1" x="5" y="2"/><rect x="61" y="2" width="1" height="1"/><rect x="62" y="2" width="1" height="1"/><rect y="3" width="1" height="1" x="2"/><rect y="3" width="1" height="1" x="3"/><rect height="1" x="4" y="3" width="2"/><rect height="1" x="6" y="3" width="54"/><rect x="60" y="3" width="2" height="1"/><rect width="1" height="1" x="62" y="3"/><rect x="63" y="3" width="1" height="1"/><rect height="2" x="2" y="4" width="1"/><rect x="3" y="4" width="1" height="3"/><rect x="4" y="4" width="1" height="1"/><rect x="5" y="4" width="56" height="19"/><rect y="4" width="1" height="1" x="61"/><rect x="62" y="4" width="1" height="3"/><rect width="1" height="2" x="63" y="4"/><rect height="2" x="4" y="5" width="58"/><rect x="3" y="7" width="1" height="1"/><rect x="4" y="7" width="1" height="1"/><rect width="1" height="1" x="61" y="7"/><rect height="1" x="62" y="7" width="1"/><rect x="3" y="8" width="1" height="73"/><rect y="8" width="1" height="73" x="4"/><rect x="61" y="8" width="1" height="74"/><rect y="8" width="1" height="73" x="62"/><rect height="1" x="5" y="23" width="26"/><rect width="1" height="1" x="39" y="23"/><rect x="40" y="23" width="21" height="1"/><rect width="24" height="1" x="5" y="24"/><rect width="18" height="1" x="43" y="24"/><rect x="5" y="25" width="22" height="1"/><rect y="25" width="17" height="17" x="44"/><rect x="5" y="26" width="18" height="1"/><rect width="1" height="1" x="23" y="26"/><rect y="27" width="12" height="1" x="5"/><rect height="1" x="17" y="27" width="1"/><rect height="54" x="5" y="28" width="6"/><rect width="1" height="1" x="11" y="28"/><rect x="43" y="28" width="1" height="1"/><rect x="11" y="29" width="1" height="20"/><rect y="29" width="1" height="1" x="12"/><rect x="39" y="29" width="1" height="1"/><rect y="29" width="21" height="7" x="40"/><rect height="15" x="12" y="30" width="3"/><rect height="5" x="35" y="30" width="26"/><rect x="15" y="31" width="4" height="8"/><rect x="19" y="31" width="1" height="1"/><rect x="32" y="31" width="29" height="4"/><rect x="19" y="32" width="4" height="2"/><rect y="32" width="1" height="1" x="23"/><rect y="32" width="1" height="1" x="30"/><rect height="3" x="31" y="32" width="30"/><rect x="29" y="33" width="32" height="2"/><rect y="34" width="3" height="1" x="19"/><rect height="1" x="27" y="34" width="1"/><rect x="28" y="34" width="33" height="1"/><rect height="1" x="19" y="35" width="2"/><rect width="7" height="2" x="26" y="35"/><rect x="39" y="35" width="1" height="1"/><rect x="19" y="36" width="1" height="2"/><rect x="20" y="36" width="1" height="1"/><rect x="25" y="36" width="8" height="1"/><rect x="40" y="36" width="1" height="1"/><rect width="20" height="6" x="41" y="36"/><rect x="24" y="37" width="8" height="1"/><rect x="22" y="38" width="1" height="1"/><rect y="38" width="8" height="4" x="23"/><rect x="31" y="38" width="1" height="1"/><rect height="1" x="15" y="39" width="3"/><rect height="3" x="21" y="39" width="10"/><rect x="15" y="40" width="2" height="1"/><rect height="2" x="20" y="40" width="14"/><rect y="40" width="21" height="2" x="40"/><rect x="15" y="41" width="1" height="1"/><rect x="19" y="41" width="15" height="1"/><rect y="42" width="1" height="1" x="15"/><rect height="1" x="18" y="42" width="11"/><rect y="42" width="1" height="1" x="29"/><rect x="30" y="42" width="4" height="1"/><rect y="42" width="1" height="1" x="45"/><rect width="15" height="1" x="46" y="42"/><rect height="1" x="16" y="43" width="1"/><rect x="17" y="43" width="4" height="2"/><rect x="22" y="43" width="1" height="1"/><rect x="23" y="43" width="5" height="1"/><rect x="28" y="43" width="1" height="1"/><rect x="30" y="43" width="1" height="1"/><rect height="1" x="31" y="43" width="2"/><rect height="1" x="33" y="43" width="1"/><rect width="1" height="1" x="50" y="43"/><rect y="43" width="10" height="1" x="51"/><rect height="1" x="15" y="44" width="6"/><rect height="1" x="23" y="44" width="4"/><rect x="27" y="44" width="1" height="1"/><rect width="1" height="1" x="52" y="44"/><rect height="1" x="53" y="44" width="8"/><rect x="12" y="45" width="1" height="1"/><rect x="14" y="45" width="6" height="4"/><rect height="1" x="20" y="45" width="1"/><rect x="23" y="45" width="1" height="1"/><rect width="2" height="1" x="24" y="45"/><rect height="1" x="54" y="45" width="7"/><rect x="24" y="46" width="1" height="1"/><rect x="39" y="46" width="1" height="1"/><rect y="46" width="2" height="13" x="40"/><rect x="54" y="46" width="1" height="1"/><rect height="36" x="55" y="46" width="6"/><rect x="32" y="47" width="2" height="1"/><rect x="39" y="47" width="6" height="7"/><rect y="48" width="4" height="4" x="29"/><rect x="33" y="48" width="1" height="1"/><rect x="45" y="48" width="1" height="4"/><rect x="46" y="48" width="1" height="1"/><rect y="49" width="1" height="1" x="11"/><rect x="14" y="49" width="5" height="1"/><rect x="27" y="49" width="1" height="1"/><rect x="28" y="49" width="5" height="3"/><rect width="9" height="2" x="38" y="49"/><rect width="1" height="1" x="47" y="49"/><rect height="1" x="14" y="50" width="4"/><rect y="50" width="6" height="2" x="27"/><rect x="14" y="51" width="3" height="1"/><rect height="1" x="26" y="51" width="7"/><rect width="1" height="1" x="37" y="51"/><rect y="51" width="8" height="1" x="38"/><rect height="1" x="14" y="52" width="1"/><rect width="1" height="1" x="15" y="52"/><rect x="26" y="52" width="6" height="3"/><rect width="8" height="2" x="37" y="52"/><rect x="45" y="52" width="1" height="1"/><rect x="14" y="53" width="1" height="1"/><rect y="53" width="7" height="2" x="25"/><rect height="1" x="52" y="53" width="1"/><rect x="53" y="53" width="8" height="29"/><rect width="1" height="1" x="18" y="54"/><rect y="54" width="1" height="30" x="19"/><rect y="54" width="8" height="1" x="36"/><rect height="28" x="50" y="54" width="11"/><rect x="17" y="55" width="1" height="1"/><rect height="29" x="18" y="55" width="2"/><rect y="55" width="1" height="1" x="20"/><rect height="2" x="25" y="55" width="6"/><rect y="55" width="7" height="2" x="36"/><rect x="43" y="55" width="1" height="1"/><rect x="49" y="55" width="12" height="27"/><rect height="28" x="17" y="56" width="4"/><rect x="35" y="56" width="8" height="1"/><rect height="26" x="48" y="56" width="13"/><rect x="16" y="57" width="5" height="27"/><rect height="1" x="25" y="57" width="5"/><rect y="57" width="7" height="2" x="35"/><rect height="1" x="42" y="57" width="1"/><rect x="47" y="57" width="14" height="25"/><rect x="15" y="58" width="1" height="1"/><rect width="4" height="2" x="25" y="58"/><rect x="29" y="58" width="1" height="1"/><rect height="1" x="34" y="58" width="8"/><rect height="1" x="46" y="58" width="1"/><rect x="15" y="59" width="7" height="5"/><rect height="1" x="33" y="59" width="1"/><rect x="34" y="59" width="7" height="1"/><rect y="59" width="15" height="23" x="46"/><rect x="25" y="60" width="3" height="1"/><rect x="33" y="60" width="7" height="1"/><rect width="1" height="1" x="40" y="60"/><rect width="16" height="22" x="45" y="60"/><rect y="61" width="1" height="1" x="22"/><rect x="25" y="61" width="2" height="1"/><rect y="61" width="1" height="1" x="38"/><rect x="39" y="61" width="1" height="1"/><rect x="44" y="61" width="17" height="21"/><rect height="22" x="11" y="62" width="1"/><rect x="22" y="62" width="3" height="1"/><rect height="1" x="43" y="62" width="1"/><rect height="1" x="22" y="63" width="1"/><rect width="1" height="1" x="42" y="63"/><rect x="43" y="63" width="18" height="19"/><rect width="1" height="20" x="12" y="64"/><rect width="6" height="20" x="15" y="64"/><rect x="42" y="64" width="19" height="1"/><rect width="1" height="19" x="13" y="65"/><rect x="14" y="66" width="7" height="18"/><rect y="66" width="1" height="1" x="32"/><rect y="66" width="4" height="18" x="33"/><rect y="66" width="1" height="1" x="37"/><rect x="26" y="67" width="1" height="1"/><rect x="27" y="67" width="34" height="15"/><rect y="68" width="40" height="14" x="21"/><rect x="3" y="81" width="1" height="1"/><rect x="4" y="81" width="1" height="2"/><rect height="1" x="62" y="81" width="1"/><rect x="3" y="82" width="1" height="1"/><rect x="5" y="82" width="1" height="1"/><rect height="1" x="6" y="82" width="54"/><rect width="1" height="1" x="60" y="82"/><rect y="82" width="1" height="1" x="61"/><rect width="1" height="1" x="62" y="82"/><rect height="1" x="3" y="83" width="1"/><rect height="1" x="4" y="83" width="1"/><rect x="5" y="83" width="1" height="1"/><rect x="6" y="83" width="1" height="1"/><rect width="52" height="1" x="7" y="83"/><rect x="59" y="83" width="1" height="1"/><rect height="1" x="60" y="83" width="1"/><rect width="1" height="1" x="61" y="83"/><rect x="62" y="83" width="1" height="1"/><rect x="5" y="84" width="1" height="1"/><rect width="1" height="1" x="6" y="84"/><rect x="7" y="84" width="1" height="1"/><rect width="50" height="1" x="8" y="84"/><rect width="1" height="1" x="58" y="84"/><rect height="1" x="59" y="84" width="1"/><rect width="1" height="1" x="60" y="84"/></g><g fill="#655"><rect x="33" y="25" width="1" height="1"/><rect height="1" x="36" y="25" width="1"/><rect x="38" y="37" width="1" height="1"/><rect width="1" height="1" x="30" y="45"/><rect width="1" height="1" x="27" y="46"/><rect x="12" y="51" width="1" height="1"/><rect x="17" y="52" width="1" height="1"/><rect width="1" height="1" x="12" y="53"/><rect width="1" height="1" x="32" y="54"/><rect height="1" x="24" y="55" width="1"/><rect width="1" height="1" x="44" y="55"/><rect height="1" x="14" y="59" width="1"/><rect x="30" y="61" width="1" height="1"/><rect x="43" y="61" width="1" height="1"/><rect x="14" y="62" width="1" height="1"/><rect height="1" x="38" y="63" width="1"/><rect width="1" height="1" x="25" y="64"/></g><g fill="#666"><rect y="25" width="1" height="1" x="42"/><rect y="28" width="1" height="1" x="25"/><rect height="1" x="41" y="28" width="1"/><rect width="1" height="1" x="36" y="29"/><rect height="1" x="37" y="37" width="1"/><rect y="45" width="1" height="1" x="48"/><rect height="1" x="54" y="48" width="1"/><rect x="46" y="52" width="1" height="1"/><rect width="1" height="1" x="13" y="54"/><rect x="30" y="60" width="1" height="1"/><rect x="12" y="62" width="1" height="1"/><rect x="27" y="63" width="1" height="1"/><rect height="1" y="88" width="1"/><rect x="1" y="88" width="1" height="1"/><rect y="88" width="1" height="1" x="64"/><rect width="1" height="1" x="65" y="88"/><rect height="1" x="1" y="89" width="1"/><rect x="2" y="89" width="1" height="1"/><rect x="3" y="89" width="1" height="1"/><rect height="1" x="4" y="89" width="58"/><rect x="62" y="89" width="1" height="1"/><rect x="63" y="89" width="1" height="1"/><rect y="89" width="1" height="1" x="64"/></g><g fill="#433"><rect x="18" y="30" width="1" height="1"/><rect width="1" height="1" x="24" y="32"/><rect width="1" height="1" x="34" y="37"/><rect x="39" y="37" width="1" height="1"/><rect height="1" x="38" y="42" width="1"/><rect x="39" y="43" width="1" height="1"/><rect x="32" y="45" width="1" height="1"/><rect x="47" y="45" width="1" height="1"/><rect x="34" y="46" width="1" height="1"/><rect x="38" y="46" width="1" height="1"/><rect x="26" y="47" width="1" height="1"/><rect width="1" height="1" x="22" y="49"/><rect y="49" width="1" height="1" x="48"/><rect y="50" width="1" height="1" x="21"/><rect x="19" y="51" width="1" height="1"/><rect height="1" x="48" y="51" width="1"/><rect height="1" x="18" y="53" width="1"/><rect height="1" x="12" y="54" width="1"/><rect height="1" x="15" y="54" width="1"/><rect y="56" width="1" height="1" x="44"/><rect x="31" y="57" width="1" height="1"/><rect y="58" width="1" height="1" x="31"/><rect x="31" y="59" width="1" height="1"/><rect width="1" height="1" x="41" y="61"/><rect height="1" x="28" y="63" width="1"/><rect y="63" width="1" height="1" x="35"/><rect height="1" x="14" y="64" width="1"/></g><g fill="#777"><rect width="1" height="1" x="29" y="26"/><rect x="27" y="27" width="1" height="1"/><rect height="1" x="23" y="28" width="1"/><rect height="1" x="21" y="38" width="1"/><rect width="1" height="1" x="32" y="39"/><rect x="47" y="48" width="1" height="1"/><rect y="50" width="1" height="1" x="19"/><rect x="24" y="57" width="1" height="1"/><rect x="29" y="60" width="1" height="1"/><rect x="32" y="62" width="1" height="1"/><rect width="1" height="1" x="23" y="64"/><rect width="1" height="1" x="24" y="64"/><rect width="1" height="1" x="28" y="66"/><rect y="84" width="1" height="1"/><rect x="65" y="84" width="1" height="1"/><rect y="85" width="1" height="1"/><rect x="65" y="85" width="1" height="1"/><rect y="86" width="1" height="1"/><rect y="86" width="1" height="1" x="65"/><rect y="87" width="1" height="1"/><rect y="87" width="1" height="1" x="65"/></g><g fill="#776"><rect x="24" y="28" width="1" height="1"/><rect width="1" height="1" x="39" y="41"/><rect width="1" height="1" x="29" y="45"/><rect y="62" width="1" height="1" x="28"/><rect height="1" x="22" y="64" width="1"/><rect height="1" x="41" y="66" width="1"/></g><g fill="#333"><rect x="40" y="28" width="1" height="1"/><rect height="1" x="32" y="38" width="1"/><rect x="40" y="45" width="1" height="1"/><rect x="49" y="46" width="1" height="1"/><rect x="27" y="48" width="1" height="1"/><rect x="52" y="48" width="1" height="1"/><rect height="1" x="48" y="54" width="1"/><rect x="34" y="63" width="1" height="1"/></g><g fill="#bbb"><rect width="1" height="1" y="1"/><rect x="1" y="1" width="1" height="1"/><rect width="1" height="1" x="64" y="1"/><rect height="1" x="65" y="1" width="1"/><rect width="1" height="1" x="33" y="23"/><rect x="35" y="23" width="1" height="1"/><rect x="30" y="24" width="1" height="1"/><rect x="28" y="25" width="1" height="1"/><rect height="1" x="26" y="26" width="1"/><rect x="22" y="27" width="1" height="1"/><rect height="1" x="21" y="31" width="1"/><rect y="35" width="1" height="1" x="25"/><rect y="35" width="1" height="1" x="34"/><rect width="1" height="1" x="32" y="37"/><rect height="1" x="18" y="39" width="1"/><rect y="39" width="1" height="1" x="31"/><rect height="1" x="19" y="40" width="1"/><rect y="42" width="1" height="1" x="40"/><rect height="1" x="21" y="43" width="1"/><rect width="1" height="1" x="46" y="43"/><rect y="44" width="1" height="1" x="32"/><rect height="1" x="12" y="47" width="1"/><rect x="54" y="47" width="1" height="1"/><rect x="16" y="52" width="1" height="1"/><rect width="1" height="1" x="20" y="53"/><rect x="29" y="59" width="1" height="1"/><rect x="40" y="61" width="1" height="1"/><rect x="26" y="62" width="1" height="1"/><rect height="1" x="41" y="63" width="1"/><rect y="66" width="1" height="1" x="42"/><rect x="1" y="85" width="1" height="1"/><rect height="1" x="64" y="85" width="1"/><rect y="86" width="1" height="1" x="2"/><rect width="1" height="1" x="3" y="86"/><rect x="62" y="86" width="1" height="1"/><rect y="86" width="1" height="1" x="63"/></g><g fill="#ccb"><rect x="36" y="23" width="1" height="1"/><rect height="1" x="32" y="61" width="1"/></g><g fill="#988"><rect x="30" y="25" width="1" height="1"/><rect x="40" y="25" width="1" height="1"/><rect y="26" width="1" height="1" x="28"/><rect y="27" width="1" height="1" x="26"/><rect height="1" x="16" y="28" width="1"/><rect x="18" y="28" width="1" height="1"/><rect x="19" y="28" width="1" height="1"/><rect x="38" y="36" width="1" height="1"/><rect x="50" y="45" width="1" height="1"/><rect width="1" height="1" x="51" y="45"/><rect y="46" width="1" height="1" x="26"/><rect x="13" y="50" width="1" height="1"/><rect x="33" y="50" width="1" height="1"/><rect x="11" y="51" width="1" height="1"/><rect x="46" y="57" width="1" height="1"/><rect y="62" width="1" height="1" x="33"/><rect height="1" x="41" y="64" width="1"/></g><g fill="#877"><rect x="31" y="25" width="1" height="1"/><rect x="38" y="25" width="1" height="1"/><rect height="1" x="22" y="28" width="1"/><rect x="20" y="37" width="1" height="1"/><rect x="39" y="42" width="1" height="1"/><rect x="41" y="43" width="1" height="1"/><rect x="49" y="45" width="1" height="1"/><rect x="13" y="46" width="1" height="1"/><rect width="1" height="1" x="53" y="46"/><rect x="13" y="47" width="1" height="1"/><rect y="47" width="1" height="1" x="25"/><rect x="12" y="48" width="1" height="1"/><rect y="48" width="1" height="1" x="13"/><rect height="1" x="31" y="56" width="1"/><rect height="1" x="24" y="58" width="1"/><rect height="1" x="30" y="58" width="1"/><rect x="28" y="61" width="1" height="1"/></g><g fill="#887"><rect y="25" width="1" height="1" x="41"/><rect y="36" width="1" height="1" x="39"/><rect x="16" y="42" width="1" height="1"/><rect x="21" y="44" width="1" height="1"/><rect x="25" y="51" width="1" height="1"/></g><g fill="#554"><rect height="1" x="27" y="33" width="1"/><rect x="21" y="46" width="1" height="1"/><rect width="1" height="1" x="37" y="49"/><rect height="1" x="12" y="50" width="1"/><rect x="21" y="56" width="1" height="1"/><rect x="45" y="58" width="1" height="1"/><rect y="63" width="1" height="1" x="39"/><rect height="1" x="23" y="67" width="1"/></g><g fill="#111"><rect x="34" y="27" width="1" height="1"/><rect x="35" y="27" width="1" height="1"/><rect height="1" x="36" y="27" width="1"/><rect x="37" y="27" width="1" height="1"/><rect x="31" y="28" width="1" height="1"/><rect height="1" x="32" y="28" width="1"/><rect x="33" y="28" width="1" height="1"/><rect x="15" y="29" width="1" height="1"/><rect y="29" width="1" height="1" x="16"/><rect x="17" y="29" width="1" height="1"/><rect y="29" width="4" height="1" x="18"/><rect width="1" height="1" x="29" y="29"/><rect height="1" x="30" y="29" width="1"/><rect height="1" x="24" y="30" width="1"/><rect width="1" height="1" x="28" y="30"/><rect x="25" y="31" width="1" height="1"/><rect x="26" y="31" width="1" height="1"/><rect height="1" x="27" y="31" width="1"/><rect x="25" y="32" width="1" height="1"/><rect x="26" y="32" width="1" height="1"/><rect x="25" y="33" width="1" height="1"/><rect y="34" width="1" height="1" x="24"/><rect width="2" height="1" x="33" y="38"/><rect width="1" height="1" x="35" y="39"/><rect height="1" x="39" y="39" width="1"/><rect x="35" y="40" width="1" height="1"/><rect x="38" y="44" width="1" height="1"/><rect x="39" y="44" width="2" height="1"/><rect x="41" y="44" width="1" height="1"/><rect x="37" y="45" width="1" height="1"/><rect y="45" width="1" height="1" x="45"/><rect height="1" x="29" y="46" width="1"/><rect height="1" x="37" y="46" width="1"/><rect x="47" y="46" width="1" height="1"/><rect x="27" y="47" width="1" height="1"/><rect height="1" x="36" y="47" width="1"/><rect x="37" y="47" width="1" height="1"/><rect x="48" y="47" width="1" height="1"/><rect y="48" width="1" height="1" x="26"/><rect y="48" width="1" height="1" x="36"/><rect height="1" x="37" y="48" width="1"/><rect x="48" y="48" width="1" height="1"/><rect y="49" width="1" height="1" x="25"/><rect width="1" height="1" x="36" y="49"/><rect x="24" y="50" width="1" height="1"/><rect x="36" y="50" width="1" height="1"/><rect width="1" height="1" x="52" y="50"/><rect x="53" y="50" width="1" height="1"/><rect height="1" x="54" y="50" width="1"/><rect y="51" width="1" height="1" x="24"/><rect x="50" y="51" width="1" height="1"/><rect height="1" x="21" y="52" width="1"/><rect width="1" height="2" x="23" y="52"/><rect height="1" x="24" y="52" width="1"/><rect x="35" y="52" width="1" height="1"/><rect x="49" y="52" width="1" height="1"/><rect x="21" y="53" width="1" height="1"/><rect width="2" height="1" x="22" y="53"/><rect x="35" y="53" width="1" height="1"/><rect y="54" width="1" height="1" x="16"/><rect x="21" y="54" width="1" height="1"/><rect x="22" y="54" width="1" height="2"/><rect x="23" y="54" width="1" height="1"/><rect height="1" x="34" y="54" width="1"/><rect height="1" x="47" y="54" width="1"/><rect width="1" height="1" x="15" y="55"/><rect x="34" y="55" width="1" height="1"/><rect x="46" y="55" width="1" height="1"/><rect y="56" width="1" height="1" x="14"/><rect x="22" y="56" width="1" height="1"/><rect x="33" y="56" width="1" height="1"/><rect width="1" height="1" x="46" y="56"/><rect y="57" width="1" height="1" x="11"/><rect y="57" width="1" height="1" x="13"/><rect width="1" height="1" x="14" y="57"/><rect x="22" y="57" width="1" height="1"/><rect height="1" x="23" y="57" width="1"/><rect x="45" y="57" width="1" height="1"/><rect width="1" height="1" x="12" y="58"/><rect y="58" width="1" height="2" x="13"/><rect height="1" x="22" y="58" width="1"/><rect height="1" x="23" y="58" width="1"/><rect width="1" height="1" x="32" y="58"/><rect x="44" y="58" width="1" height="1"/><rect y="59" width="1" height="1" x="12"/><rect y="59" width="1" height="1" x="23"/><rect x="12" y="60" width="1" height="1"/><rect height="1" x="13" y="60" width="1"/><rect height="1" x="23" y="60" width="1"/><rect x="43" y="60" width="1" height="1"/><rect height="1" x="13" y="61" width="1"/><rect x="42" y="61" width="1" height="1"/><rect height="1" x="13" y="62" width="1"/><rect y="64" width="1" height="1" x="28"/><rect width="1" height="1" x="29" y="64"/><rect x="37" y="64" width="1" height="1"/><rect height="1" x="38" y="64" width="1"/><rect width="2" height="1" x="39" y="64"/><rect y="65" width="1" height="1" x="25"/><rect x="33" y="65" width="1" height="1"/><rect width="1" height="1" x="37" y="65"/><rect height="1" x="22" y="66" width="1"/></g><g fill="#443"><rect width="1" height="1" x="27" y="28"/><rect y="47" width="1" height="1" x="21"/><rect height="1" x="46" y="47" width="1"/><rect x="51" y="47" width="1" height="1"/><rect height="1" x="21" y="48" width="1"/><rect x="22" y="59" width="1" height="1"/><rect x="32" y="59" width="1" height="1"/><rect height="1" x="42" y="62" width="1"/></g><g fill="#fee"><rect y="61" width="1" height="1" x="24"/><rect width="1" height="1" x="14" y="65"/></g><g fill="#aaa"><rect width="1" height="1" y="2"/><rect width="1" height="1" x="65" y="2"/><rect x="38" y="24" width="1" height="1"/><rect width="1" height="1" x="39" y="24"/><rect width="1" height="1" x="23" y="27"/><rect width="1" height="1" x="24" y="27"/><rect x="16" y="30" width="1" height="1"/><rect width="1" height="1" x="29" y="32"/><rect height="1" x="33" y="39" width="1"/><rect x="44" y="43" width="1" height="1"/><rect height="1" x="45" y="43" width="1"/><rect x="29" y="44" width="1" height="1"/><rect height="1" x="49" y="44" width="1"/><rect y="44" width="1" height="1" x="50"/><rect x="27" y="45" width="1" height="1"/><rect height="1" x="43" y="46" width="1"/><rect x="37" y="50" width="1" height="1"/><rect x="54" y="52" width="1" height="1"/><rect x="32" y="53" width="1" height="1"/><rect x="43" y="56" width="1" height="1"/><rect width="1" height="1" x="15" y="57"/><rect y="60" width="1" height="1" x="24"/><rect width="1" height="1" x="44" y="60"/><rect x="37" y="62" width="1" height="1"/><rect height="1" x="38" y="62" width="1"/><rect y="64" width="1" height="1" x="13"/><rect width="1" height="1" x="29" y="66"/><rect y="86" width="1" height="1" x="1"/><rect y="86" width="1" height="1" x="64"/><rect x="2" y="87" width="1" height="1"/><rect y="87" width="1" height="1" x="3"/><rect y="87" width="1" height="1" x="4"/><rect width="56" height="1" x="5" y="87"/><rect width="1" height="1" x="61" y="87"/><rect y="87" width="1" height="1" x="62"/><rect width="1" height="1" x="63" y="87"/><rect width="1" height="1" x="4" y="88"/><rect width="56" height="1" x="5" y="88"/><rect x="61" y="88" width="1" height="1"/></g><g fill="#888"><rect height="1" y="5" width="1"/><rect height="1" x="65" y="5" width="1"/><rect y="6" width="1" height="1"/><rect x="65" y="6" width="1" height="1"/><rect y="7" width="1" height="1"/><rect height="1" x="65" y="7" width="1"/><rect y="8" width="1" height="73"/><rect width="1" height="73" x="65" y="8"/><rect x="39" y="25" width="1" height="1"/><rect x="17" y="28" width="1" height="1"/><rect height="1" x="20" y="28" width="1"/><rect x="21" y="28" width="1" height="1"/><rect x="23" y="31" width="1" height="1"/><rect width="1" height="1" x="23" y="33"/><rect width="1" height="1" x="26" y="34"/><rect x="34" y="36" width="1" height="1"/><rect x="34" y="39" width="1" height="1"/><rect height="1" x="33" y="44" width="1"/><rect y="44" width="1" height="1" x="46"/><rect x="28" y="45" width="1" height="1"/><rect y="46" width="1" height="1" x="22"/><rect x="23" y="47" width="1" height="1"/><rect width="1" height="1" x="13" y="49"/><rect y="53" width="1" height="1" x="13"/><rect y="53" width="1" height="1" x="45"/><rect height="1" x="50" y="53" width="1"/><rect y="60" width="1" height="1" x="41"/><rect x="23" y="61" width="1" height="1"/><rect height="1" x="27" y="62" width="1"/><rect x="26" y="63" width="1" height="1"/><rect y="81" width="1" height="2"/><rect height="2" x="65" y="81" width="1"/><rect y="83" width="1" height="1"/><rect y="83" width="1" height="1" x="65"/><rect y="87" width="1" height="1" x="1"/><rect y="87" width="1" height="1" x="64"/><rect x="2" y="88" width="1" height="1"/><rect y="88" width="1" height="1" x="63"/></g><g fill="#bba"><rect x="34" y="23" width="1" height="1"/><rect x="34" y="43" width="1" height="1"/></g><g fill="#a99"><rect x="31" y="24" width="1" height="1"/><rect height="1" x="37" y="24" width="1"/><rect height="1" x="27" y="26" width="1"/><rect x="25" y="27" width="1" height="1"/><rect width="1" height="1" x="13" y="29"/><rect x="33" y="30" width="1" height="1"/><rect x="36" y="36" width="1" height="1"/><rect x="37" y="36" width="1" height="1"/><rect width="1" height="1" x="19" y="38"/><rect x="43" y="43" width="1" height="1"/><rect x="48" y="44" width="1" height="1"/><rect x="30" y="47" width="1" height="1"/><rect y="58" width="1" height="1" x="42"/><rect x="11" y="60" width="1" height="1"/><rect width="1" height="1" x="22" y="60"/><rect width="1" height="1" x="35" y="62"/></g><g fill="#766"><rect height="1" x="32" y="25" width="1"/><rect width="1" height="1" x="37" y="25"/><rect x="43" y="26" width="1" height="1"/><rect y="30" width="1" height="1" x="17"/><rect x="45" y="44" width="1" height="1"/><rect height="1" x="21" y="45" width="1"/><rect x="51" y="46" width="1" height="1"/><rect y="46" width="1" height="1" x="52"/><rect y="47" width="1" height="1" x="22"/><rect width="1" height="1" x="20" y="49"/><rect y="51" width="1" height="1" x="18"/><rect x="36" y="52" width="1" height="1"/><rect y="54" width="1" height="1" x="14"/><rect x="24" y="56" width="1" height="1"/><rect x="14" y="60" width="1" height="1"/><rect y="61" width="1" height="1" x="14"/><rect x="29" y="61" width="1" height="1"/><rect x="31" y="61" width="1" height="1"/><rect y="62" width="1" height="1" x="40"/></g><g fill="#544"><rect x="14" y="29" width="1" height="1"/><rect x="24" y="31" width="1" height="1"/><rect y="31" width="1" height="1" x="30"/><rect width="1" height="1" x="22" y="35"/><rect height="1" x="22" y="37" width="1"/><rect x="35" y="37" width="1" height="1"/><rect y="41" width="1" height="1" x="17"/><rect height="1" x="35" y="43" width="1"/><rect y="44" width="1" height="1" x="44"/><rect y="45" width="1" height="1" x="31"/><rect width="1" height="1" x="33" y="46"/><rect height="1" x="44" y="46" width="1"/><rect x="29" y="47" width="1" height="1"/><rect x="52" y="47" width="1" height="1"/><rect height="1" x="53" y="47" width="1"/><rect y="48" width="1" height="1" x="22"/><rect width="1" height="1" x="12" y="49"/><rect height="1" x="21" y="49" width="1"/><rect width="1" height="1" x="47" y="51"/><rect x="11" y="52" width="1" height="1"/><rect x="20" y="52" width="1" height="1"/><rect height="1" x="46" y="53" width="1"/><rect width="1" height="1" x="24" y="54"/><rect y="54" width="1" height="1" x="45"/><rect x="43" y="57" width="1" height="1"/><rect height="1" x="11" y="59" width="1"/><rect x="42" y="59" width="1" height="1"/><rect height="1" x="30" y="62" width="1"/><rect x="27" y="66" width="1" height="1"/></g><g fill="#221"><rect x="37" y="43" width="1" height="1"/><rect width="1" height="1" x="32" y="46"/><rect width="1" height="2" x="34" y="50"/><rect width="1" height="1" x="54" y="51"/><rect height="1" x="33" y="54" width="1"/><rect x="21" y="55" width="1" height="1"/><rect y="59" width="1" height="1" x="44"/><rect x="42" y="60" width="1" height="1"/><rect width="1" height="1" x="34" y="65"/></g><g fill="#aa9"><rect y="31" width="1" height="1" x="22"/><rect width="1" height="1" x="15" y="53"/><rect x="36" y="62" width="1" height="1"/><rect x="40" y="66" width="1" height="1"/></g><rect height="1" x="33" fill="#998" y="58" width="1"/><g fill="#cbb"><rect x="40" y="24" width="1" height="1"/><rect x="40" y="37" width="1" height="1"/><rect width="1" height="1" x="29" y="43"/><rect y="44" width="1" height="1" x="28"/><rect x="23" y="46" width="1" height="1"/><rect y="61" width="1" height="1" x="33"/></g><g fill="#dcc"><rect x="41" y="24" width="1" height="1"/><rect height="1" x="22" y="34" width="1"/><rect x="36" y="35" width="1" height="1"/><rect y="44" width="1" height="1" x="51"/><rect x="36" y="61" width="1" height="1"/><rect y="67" width="1" height="1" x="25"/></g><g fill="#332"><rect y="26" width="1" height="1" x="32"/><rect y="55" width="1" height="1" x="13"/><rect height="1" x="32" y="55" width="1"/><rect height="1" x="45" y="55" width="1"/><rect y="63" width="1" height="1" x="33"/></g><g fill="#222"><rect x="33" y="26" width="1" height="1"/><rect y="32" width="1" height="1" x="28"/><rect width="1" height="1" x="38" y="41"/><rect y="42" width="1" height="1" x="35"/><rect width="1" height="1" x="36" y="42"/><rect width="1" height="1" x="38" y="43"/><rect width="1" height="1" x="36" y="44"/><rect x="43" y="44" width="1" height="1"/><rect width="1" height="1" x="50" y="47"/><rect height="1" x="53" y="52" width="1"/><rect x="14" y="58" width="1" height="1"/><rect width="1" height="1" x="32" y="63"/><rect width="1" height="1" x="22" y="67"/></g><g fill="#110"><rect x="38" y="27" width="1" height="1"/><rect x="39" y="27" width="1" height="1"/><rect x="40" y="27" width="2" height="1"/><rect y="27" width="1" height="1" x="42"/><rect x="34" y="28" width="1" height="1"/><rect width="1" height="1" x="35" y="28"/><rect x="39" y="28" width="1" height="1"/><rect x="31" y="29" width="1" height="1"/><rect y="30" width="1" height="1" x="23"/><rect x="29" y="30" width="1" height="1"/><rect height="1" x="28" y="31" width="1"/><rect x="27" y="32" width="1" height="1"/><rect x="25" y="34" width="1" height="1"/><rect height="1" x="38" y="45" width="1"/><rect x="44" y="45" width="1" height="1"/><rect y="46" width="1" height="1" x="30"/><rect y="46" width="1" height="1" x="31"/><rect y="46" width="1" height="1" x="46"/><rect y="47" width="1" height="1" x="28"/><rect x="47" y="47" width="1" height="1"/><rect x="51" y="51" width="1" height="1"/><rect width="2" height="1" x="52" y="51"/><rect width="1" height="1" x="48" y="53"/><rect y="63" width="1" height="1" x="13"/><rect x="30" y="64" width="1" height="1"/><rect x="31" y="64" width="2" height="1"/><rect x="33" y="64" width="1" height="1"/><rect x="34" y="64" width="2" height="1"/><rect width="1" height="1" x="36" y="64"/><rect y="65" width="1" height="1" x="26"/><rect height="1" x="27" y="65" width="1"/><rect x="40" y="65" width="1" height="1"/><rect y="66" width="1" height="1" x="23"/></g><g fill="#211"><rect x="34" y="26" width="1" height="1"/><rect height="1" x="35" y="26" width="4"/><rect x="39" y="26" width="1" height="1"/><rect x="40" y="26" width="1" height="1"/><rect y="26" width="1" height="1" x="41"/><rect height="1" x="42" y="26" width="1"/><rect x="31" y="27" width="1" height="1"/><rect y="27" width="1" height="1" x="32"/><rect width="1" height="1" x="33" y="27"/><rect x="29" y="28" width="1" height="1"/><rect width="1" height="1" x="30" y="28"/><rect width="1" height="1" x="22" y="29"/><rect x="23" y="29" width="1" height="1"/><rect width="1" height="1" x="24" y="29"/><rect x="25" y="29" width="1" height="1"/><rect height="1" x="26" y="29" width="1"/><rect x="27" y="29" width="1" height="1"/><rect y="29" width="1" height="1" x="28"/><rect x="19" y="30" width="1" height="1"/><rect x="25" y="30" width="1" height="1"/><rect height="1" x="26" y="30" width="1"/><rect height="1" x="27" y="30" width="1"/><rect width="1" height="1" x="24" y="33"/><rect height="1" x="23" y="35" width="1"/><rect height="1" x="24" y="35" width="1"/><rect x="22" y="36" width="1" height="1"/><rect x="21" y="37" width="1" height="1"/><rect x="20" y="38" width="1" height="1"/><rect x="35" y="38" width="1" height="1"/><rect x="36" y="38" width="1" height="1"/><rect x="38" y="38" width="1" height="1"/><rect y="38" width="1" height="1" x="39"/><rect x="19" y="39" width="1" height="1"/><rect x="36" y="39" width="1" height="1"/><rect y="39" width="1" height="1" x="37"/><rect height="1" x="38" y="39" width="1"/><rect height="1" x="36" y="40" width="1"/><rect y="40" width="1" height="1" x="37"/><rect height="1" x="38" y="40" width="1"/><rect width="1" height="1" x="35" y="41"/><rect y="41" width="1" height="1" x="36"/><rect y="41" width="1" height="1" x="37"/><rect x="37" y="44" width="1" height="1"/><rect x="42" y="44" width="1" height="1"/><rect y="45" width="1" height="1" x="34"/><rect x="35" y="45" width="1" height="1"/><rect x="36" y="45" width="1" height="1"/><rect x="41" y="45" width="1" height="1"/><rect x="46" y="45" width="1" height="1"/><rect y="46" width="1" height="1" x="28"/><rect x="35" y="46" width="2" height="1"/><rect y="46" width="1" height="1" x="48"/><rect width="1" height="1" x="35" y="47"/><rect width="1" height="1" x="49" y="47"/><rect x="25" y="48" width="1" height="1"/><rect x="34" y="48" width="1" height="1"/><rect x="35" y="48" width="1" height="1"/><rect y="48" width="1" height="1" x="49"/><rect y="48" width="1" height="2" x="50"/><rect x="23" y="49" width="1" height="1"/><rect x="24" y="49" width="1" height="1"/><rect x="34" y="49" width="1" height="1"/><rect height="2" x="35" y="49" width="1"/><rect x="49" y="49" width="1" height="1"/><rect x="51" y="49" width="1" height="1"/><rect x="52" y="49" width="1" height="1"/><rect height="1" x="53" y="49" width="1"/><rect width="1" height="1" x="22" y="50"/><rect y="50" width="1" height="1" x="23"/><rect y="50" width="1" height="1" x="25"/><rect y="50" width="1" height="1" x="49"/><rect width="1" height="1" x="50" y="50"/><rect height="1" x="51" y="50" width="1"/><rect x="20" y="51" width="1" height="1"/><rect x="21" y="51" width="1" height="1"/><rect height="1" x="22" y="51" width="1"/><rect width="1" height="1" x="23" y="51"/><rect width="1" height="1" x="35" y="51"/><rect x="36" y="51" width="1" height="1"/><rect x="49" y="51" width="1" height="1"/><rect width="1" height="1" x="18" y="52"/><rect width="1" height="1" x="19" y="52"/><rect height="1" x="22" y="52" width="1"/><rect x="34" y="52" width="1" height="1"/><rect x="48" y="52" width="1" height="1"/><rect x="11" y="53" width="1" height="1"/><rect width="1" height="1" x="17" y="53"/><rect height="1" x="34" y="53" width="1"/><rect x="47" y="53" width="1" height="1"/><rect height="1" x="49" y="53" width="1"/><rect height="1" x="11" y="54" width="1"/><rect x="46" y="54" width="1" height="1"/><rect height="1" x="11" y="55" width="1"/><rect width="1" height="1" x="12" y="55"/><rect x="14" y="55" width="1" height="1"/><rect x="23" y="55" width="1" height="2"/><rect x="33" y="55" width="1" height="1"/><rect x="11" y="56" width="1" height="1"/><rect x="12" y="56" width="2" height="1"/><rect width="1" height="1" x="45" y="56"/><rect x="12" y="57" width="1" height="1"/><rect x="32" y="57" width="1" height="1"/><rect height="1" x="33" y="57" width="1"/><rect x="44" y="57" width="1" height="1"/><rect x="11" y="58" width="1" height="1"/><rect x="43" y="59" width="1" height="1"/><rect width="1" height="1" x="12" y="61"/><rect x="41" y="62" width="1" height="1"/><rect x="29" y="63" width="1" height="1"/><rect width="1" height="1" x="30" y="63"/><rect x="31" y="63" width="1" height="1"/><rect x="27" y="64" width="1" height="1"/><rect x="22" y="65" width="2" height="1"/><rect x="24" y="65" width="1" height="1"/><rect width="2" height="1" x="35" y="65"/><rect width="1" height="1" x="41" y="65"/><rect x="26" y="66" width="1" height="1"/></g><g fill="#322"><rect width="1" height="1" x="30" y="27"/><rect x="28" y="28" width="1" height="1"/><rect width="1" height="1" x="35" y="29"/><rect x="23" y="34" width="1" height="1"/><rect height="1" x="23" y="36" width="1"/><rect x="33" y="37" width="1" height="1"/><rect height="1" x="37" y="38" width="1"/><rect width="1" height="1" x="18" y="40"/><rect y="40" width="1" height="1" x="39"/><rect y="42" width="1" height="1" x="37"/><rect height="1" x="36" y="43" width="1"/><rect x="33" y="45" width="1" height="1"/><rect x="39" y="45" width="1" height="1"/><rect x="51" y="48" width="1" height="1"/><rect width="1" height="1" x="53" y="48"/><rect x="54" y="49" width="1" height="1"/><rect height="1" x="48" y="50" width="1"/><rect width="1" height="1" x="33" y="52"/><rect height="1" x="24" y="53" width="1"/><rect y="53" width="1" height="1" x="33"/><rect x="47" y="55" width="1" height="1"/><rect x="15" y="56" width="1" height="1"/><rect x="32" y="56" width="1" height="1"/><rect x="43" y="58" width="1" height="1"/><rect x="40" y="63" width="1" height="1"/><rect x="26" y="64" width="1" height="1"/></g><g fill="#ccc"><rect x="1" width="1" height="1"/><rect width="1" height="1" x="2"/><rect width="1" height="1" x="63"/><rect width="1" height="1" x="64"/><rect width="1" height="1" x="1" y="2"/><rect y="2" width="1" height="1" x="64"/><rect x="32" y="23" width="1" height="1"/><rect height="1" x="43" y="25" width="1"/><rect y="27" width="1" height="1" x="21"/><rect x="38" y="29" width="1" height="1"/><rect width="1" height="1" x="31" y="31"/><rect height="1" x="35" y="35" width="1"/><rect width="1" height="1" x="40" y="38"/><rect height="1" x="47" y="43" width="1"/><rect x="22" y="44" width="1" height="1"/><rect width="1" height="1" x="13" y="45"/><rect height="1" x="25" y="46" width="1"/><rect x="20" y="47" width="1" height="1"/><rect y="47" width="1" height="1" x="45"/><rect x="28" y="48" width="1" height="1"/><rect x="33" y="49" width="1" height="1"/><rect height="1" x="11" y="50" width="1"/><rect x="17" y="51" width="1" height="1"/><rect x="46" y="51" width="1" height="1"/><rect width="1" height="1" x="44" y="54"/><rect width="1" height="1" x="35" y="55"/><rect x="47" y="56" width="1" height="1"/><rect x="27" y="61" width="1" height="1"/><rect width="1" height="1" x="34" y="61"/><rect y="61" width="1" height="1" x="35"/><rect height="1" x="12" y="63" width="1"/><rect x="23" y="63" width="1" height="1"/><rect x="30" y="66" width="1" height="1"/><rect width="1" height="1" x="39" y="66"/><rect x="1" y="84" width="1" height="1"/><rect width="1" height="1" x="64" y="84"/><rect y="85" width="1" height="1" x="2"/><rect height="1" x="63" y="85" width="1"/><rect x="4" y="86" width="1" height="1"/><rect width="1" height="1" x="5" y="86"/><rect x="6" y="86" width="1" height="1"/><rect x="7" y="86" width="52" height="1"/><rect y="86" width="1" height="1" x="59"/><rect x="60" y="86" width="1" height="1"/><rect width="1" height="1" x="61" y="86"/></g><g fill="#eee"><rect x="3" y="1" width="1" height="1"/><rect x="62" y="1" width="1" height="1"/><rect height="1" x="2" y="2" width="1"/><rect y="2" width="1" height="1" x="63"/><rect x="1" y="3" width="1" height="1"/><rect height="1" x="64" y="3" width="1"/><rect y="4" width="1" height="1" x="1"/><rect width="1" height="1" x="64" y="4"/><rect width="1" height="1" x="1" y="5"/><rect y="5" width="1" height="1" x="64"/><rect x="2" y="6" width="1" height="1"/><rect x="63" y="6" width="1" height="1"/><rect y="7" width="1" height="1" x="2"/><rect width="1" height="1" x="63" y="7"/><rect y="8" width="1" height="74" x="2"/><rect width="1" height="74" x="63" y="8"/><rect x="31" y="23" width="1" height="1"/><rect x="38" y="23" width="1" height="1"/><rect width="1" height="1" x="29" y="24"/><rect width="1" height="1" x="42" y="24"/><rect x="27" y="25" width="1" height="1"/><rect x="24" y="26" width="1" height="1"/><rect height="1" x="18" y="27" width="1"/><rect x="15" y="30" width="1" height="1"/><rect x="34" y="30" width="1" height="1"/><rect y="31" width="1" height="1" x="20"/><rect x="28" y="33" width="1" height="1"/><rect y="35" width="1" height="1" x="21"/><rect height="1" x="33" y="35" width="1"/><rect y="37" width="1" height="1" x="23"/><rect height="1" x="40" y="39" width="1"/><rect height="1" x="16" y="41" width="1"/><rect height="1" x="17" y="42" width="1"/><rect width="1" height="1" x="43" y="42"/><rect y="42" width="1" height="1" x="44"/><rect x="15" y="43" width="1" height="1"/><rect width="1" height="1" x="49" y="43"/><rect y="44" width="1" height="1" x="30"/><rect width="1" height="1" x="26" y="45"/><rect y="46" width="1" height="1" x="12"/><rect x="42" y="46" width="1" height="1"/><rect y="47" width="1" height="1" x="31"/><rect x="38" y="48" width="1" height="1"/><rect x="19" y="49" width="1" height="1"/><rect x="26" y="50" width="1" height="1"/><rect y="52" width="1" height="1" x="32"/><rect x="49" y="54" width="1" height="1"/><rect x="48" y="55" width="1" height="1"/><rect height="1" x="16" y="56" width="1"/><rect x="41" y="59" width="1" height="1"/><rect y="59" width="1" height="1" x="45"/><rect width="1" height="1" x="11" y="61"/><rect y="62" width="1" height="1" x="25"/><rect x="21" y="64" width="1" height="1"/><rect y="65" width="1" height="1" x="42"/><rect height="1" x="31" y="66" width="1"/><rect x="38" y="66" width="1" height="1"/><rect x="21" y="67" width="1" height="1"/><rect x="2" y="82" width="1" height="1"/><rect height="1" x="63" y="82" width="1"/><rect x="2" y="83" width="1" height="1"/><rect y="83" width="1" height="1" x="63"/><rect height="1" x="3" y="84" width="1"/><rect y="84" width="1" height="1" x="4"/><rect x="61" y="84" width="1" height="1"/><rect width="1" height="1" x="62" y="84"/><rect x="9" y="85" width="48" height="1"/></g><g fill="#999"><rect width="1" height="1" y="3"/><rect x="65" y="3" width="1" height="1"/><rect height="1" y="4" width="1"/><rect width="1" height="1" x="65" y="4"/><rect x="32" y="24" width="1" height="1"/><rect x="33" y="24" width="1" height="1"/><rect x="34" y="24" width="2" height="1"/><rect width="1" height="1" x="36" y="24"/><rect x="29" y="25" width="1" height="1"/><rect height="1" x="43" y="27" width="1"/><rect x="13" y="28" width="1" height="1"/><rect x="14" y="28" width="1" height="1"/><rect y="28" width="1" height="1" x="15"/><rect x="37" y="29" width="1" height="1"/><rect x="33" y="36" width="1" height="1"/><rect x="35" y="36" width="1" height="1"/><rect x="20" y="39" width="1" height="1"/><rect x="42" y="43" width="1" height="1"/><rect x="47" y="44" width="1" height="1"/><rect y="45" width="1" height="1" x="22"/><rect height="1" x="52" y="45" width="1"/><rect x="24" y="47" width="1" height="1"/><rect x="38" y="47" width="1" height="1"/><rect height="1" x="47" y="50" width="1"/><rect height="1" x="13" y="51" width="1"/><rect width="1" height="1" x="13" y="52"/><rect y="57" width="1" height="1" x="21"/><rect x="24" y="59" width="1" height="1"/><rect height="1" x="34" y="62" width="1"/><rect x="25" y="63" width="1" height="1"/><rect height="1" x="21" y="65" width="1"/><rect x="21" y="66" width="1" height="1"/><rect y="67" width="1" height="1" x="24"/><rect y="88" width="1" height="1" x="3"/><rect x="62" y="88" width="1" height="1"/></g><g fill="#555"><rect height="1" x="34" y="25" width="1"/><rect width="1" height="1" x="35" y="25"/><rect height="1" x="26" y="28" width="1"/><rect height="1" x="50" y="46" width="1"/><rect height="1" x="34" y="47" width="1"/><rect height="1" x="23" y="48" width="1"/><rect y="50" width="1" height="1" x="20"/><rect x="33" y="51" width="1" height="1"/><rect x="16" y="53" width="1" height="1"/><rect height="1" x="17" y="54" width="1"/><rect height="1" x="35" y="54" width="1"/><rect x="16" y="55" width="1" height="1"/><rect width="1" height="1" x="34" y="56"/><rect y="62" width="1" height="1" x="29"/><rect x="31" y="62" width="1" height="1"/><rect x="37" y="63" width="1" height="1"/></g><g fill="#665"><rect y="26" width="1" height="1" x="30"/><rect x="28" y="27" width="1" height="1"/><rect height="1" x="21" y="36" width="1"/><rect y="37" width="1" height="1" x="36"/><rect width="1" height="1" x="40" y="43"/><rect width="1" height="1" x="34" y="44"/><rect x="12" y="52" width="1" height="1"/><rect y="59" width="1" height="1" x="30"/></g></svg>