<svg xmlns="http://www.w3.org/2000/svg" width="66" height="90" baseProfile="tiny" version="1.2"><path fill="#444" d="M31 26h1v1h-1zm-2 1h1v1h-1zm3 3h1v1h-1zm3 14h1v1h-1zm-11 4h1v1h-1zm2 1h1v1h-1zm21 3h1v1h-1zm-16 8h1v1h-1zm-17 3h1v1h-1zm22 0h1v1h-1z"/><path fill="#100" d="M36 28h3v1h-3zm-4 1h3v1h-3zm-12 1h3v1h-3zm10 0h2v1h-2zm-1 1h1v1h-1zm-3 2h1v1h-1zm16 12h2v1h-2zm3 1h1v1h-1zm5 6h3v1h-3zM28 65h5v1h-5zm10 0h2v1h-2zm-14 1h2v1h-2z"/><path fill="#ddc" d="M41 42h1v1h-1z"/><path fill="#eed" d="M19 27h1v1h-1zm11 30h1v1h-1zm7 4h1v1h-1z"/><path fill="#baa" d="M12 28h1v1h-1zm30 0h1v1h-1zM20 48h1v1h-1zm19 14h1v1h-1zm-15 1h1v1h-1z"/><path fill="#ffe" d="M53 45h1v1h-1z"/><path fill="#edd" d="M18 50h1v1h-1zm2 4h1v1h-1z"/><path fill="#ddd" d="M3 0h1v1H3zm1 0h1v1H4zm1 0h56v1H5zm56 0h1v1h-1zm1 0h1v1h-1zM2 1h1v1H2zm61 0h1v1h-1zM1 6h1v1H1zm63 0h1v1h-1zM1 7h1v1H1zm63 0h1v1h-1zM1 8h1v1H1zm63 0h1v1h-1zM1 9h1v73H1zm63 0h1v73h-1zM37 23h1v1h-1zm-12 3h1v1h-1zm-5 1h1v1h-1zm17 8h1v1h-1zm1 0h1v1h-1zm-14 1h1v1h-1zm-7 4h1v1h-1zm17 0h1v1h-1zm-16 1h1v1h-1zm16 0h1v1h-1zm0 1h1v1h-1zm8 0h1v1h-1zm6 1h1v1h-1zm-17 1h1v1h-1zm-11 2h1v1h-1zm5 6h1v1h-1zm-6 1h1v1h-1zm17 0h1v1h-1zm15 0h1v1h-1zm-20 2h1v1h-1zm3 2h1v1h-1zm-13 1h1v1h-1zm7 2h1v1h-1zm4 0h1v1h-1zM1 82h1v1H1zm63 0h1v1h-1zM1 83h1v1H1zm63 0h1v1h-1zM2 84h1v1H2zm61 0h1v1h-1zM3 85h1v1H3zm1 0h1v1H4zm1 0h1v1H5zm1 0h1v1H6zm1 0h2v1H7zm50 0h2v1h-2zm2 0h1v1h-1zm1 0h1v1h-1zm1 0h1v1h-1zm1 0h1v1h-1z"/><g fill="#fff"><path d="M4 1h1v1H4zm1 0h1v1H5zm1 0h54v1H6zm54 0h1v1h-1zm1 0h1v1h-1zM3 2h1v1H3zm1 0h1v1H4zm1 0h56v1H5zm56 0h1v1h-1zm1 0h1v1h-1zM2 3h1v1H2zm1 0h1v1H3zm1 0h2v1H4zm2 0h54v1H6zm54 0h2v1h-2zm2 0h1v1h-1zm1 0h1v1h-1zM2 4h1v2H2zm1 0h1v3H3zm1 0h1v1H4zm1 0h56v19H5zm56 0h1v1h-1zm1 0h1v3h-1zm1 0h1v2h-1z"/><path d="M4 5h58v2H4zM3 7h1v1H3zm1 0h1v1H4zm57 0h1v1h-1zm1 0h1v1h-1zM3 8h1v73H3zm1 0h1v73H4zm57 0h1v74h-1zm1 0h1v73h-1zM5 23h26v1H5zm34 0h1v1h-1zm1 0h21v1H40zM5 24h24v1H5zm38 0h18v1H43zM5 25h22v1H5zm39 0h17v17H44zM5 26h18v1H5zm18 0h1v1h-1zM5 27h12v1H5zm12 0h1v1h-1zM5 28h6v54H5zm6 0h1v1h-1zm32 0h1v1h-1zm-32 1h1v20h-1zm1 0h1v1h-1zm27 0h1v1h-1z"/><path d="M40 29h21v7H40zm-28 1h3v15h-3z"/><path d="M35 30h26v5H35zm-20 1h4v8h-4zm4 0h1v1h-1z"/><path d="M32 31h29v4H32zm-13 1h4v2h-4zm4 0h1v1h-1zm7 0h1v1h-1z"/><path d="M31 32h30v3H31z"/><path d="M29 33h32v2H29zm-10 1h3v1h-3zm8 0h1v1h-1z"/><path d="M28 34h33v1H28zm-9 1h2v1h-2zm7 0h7v2h-7zm13 0h1v1h-1zm-20 1h1v2h-1zm1 0h1v1h-1z"/><path d="M25 36h8v1h-8zm15 0h1v1h-1zm1 0h20v6H41zm-17 1h8v1h-8zm-2 1h1v1h-1zm1 0h8v4h-8zm8 0h1v1h-1zm-16 1h3v1h-3z"/><path d="M21 39h10v3H21zm-6 1h2v1h-2z"/><path d="M20 40h14v2H20zm20 0h21v2H40zm-25 1h1v1h-1z"/><path d="M19 41h15v1H19zm-4 1h1v1h-1zm3 0h11v1H18zm11 0h1v1h-1zm1 0h4v1h-4zm15 0h1v1h-1zm1 0h15v1H46zm-30 1h1v1h-1zm1 0h4v2h-4zm5 0h1v1h-1zm1 0h5v1h-5zm5 0h1v1h-1zm2 0h1v1h-1zm1 0h2v1h-2zm2 0h1v1h-1zm17 0h1v1h-1zm1 0h10v1H51z"/><path d="M15 44h6v1h-6zm8 0h4v1h-4zm4 0h1v1h-1zm25 0h1v1h-1zm1 0h8v1h-8zm-41 1h1v1h-1zm2 0h6v4h-6zm6 0h1v1h-1zm3 0h1v1h-1zm1 0h2v1h-2zm30 0h7v1h-7zm-30 1h1v1h-1zm15 0h1v1h-1zm1 0h2v13h-2zm14 0h1v1h-1zm1 0h6v36h-6zm-23 1h2v1h-2z"/><path d="M39 47h6v7h-6zm-10 1h4v4h-4zm4 0h1v1h-1zm12 0h1v4h-1zm1 0h1v1h-1zm-35 1h1v1h-1zm3 0h5v1h-5zm13 0h1v1h-1z"/><path d="M28 49h5v3h-5zm10 0h9v2h-9zm9 0h1v1h-1zm-33 1h4v1h-4z"/><path d="M27 50h6v2h-6zm-13 1h3v1h-3z"/><path d="M26 51h7v1h-7zm11 0h1v1h-1zm1 0h8v1h-8zm-24 1h1v1h-1zm1 0h1v1h-1zm11 0h6v3h-6zm11 0h8v2h-8zm8 0h1v1h-1zm-31 1h1v1h-1z"/><path d="M25 53h7v2h-7zm27 0h1v1h-1zm1 0h8v29h-8zm-35 1h1v1h-1zm1 0h1v30h-1zm17 0h8v1h-8z"/><path d="M50 54h11v28H50zm-33 1h1v1h-1zm1 0h2v29h-2zm2 0h1v1h-1zm5 0h6v2h-6zm11 0h7v2h-7zm7 0h1v1h-1z"/><path d="M49 55h12v27H49zm-32 1h4v28h-4zm18 0h8v1h-8z"/><path d="M48 56h13v26H48zm-32 1h5v27h-5zm9 0h5v1h-5zm10 0h7v2h-7zm7 0h1v1h-1z"/><path d="M47 57h14v25H47zm-32 1h1v1h-1zm10 0h4v2h-4zm4 0h1v1h-1zm5 0h8v1h-8zm12 0h1v1h-1zm-31 1h7v5h-7zm18 0h1v1h-1zm1 0h7v1h-7z"/><path d="M46 59h15v23H46zm-21 1h3v1h-3zm8 0h7v1h-7zm7 0h1v1h-1z"/><path d="M45 60h16v22H45zm-23 1h1v1h-1zm3 0h2v1h-2zm13 0h1v1h-1zm1 0h1v1h-1z"/><path d="M44 61h17v21H44zm-33 1h1v22h-1zm11 0h3v1h-3zm21 0h1v1h-1zm-21 1h1v1h-1zm20 0h1v1h-1z"/><path d="M43 63h18v19H43zm-31 1h1v20h-1zm3 0h6v20h-6z"/><path d="M42 64h19v1H42zm-29 1h1v19h-1zm1 1h7v18h-7zm18 0h1v1h-1zm1 0h4v18h-4zm4 0h1v1h-1zm-11 1h1v1h-1z"/><path d="M27 67h34v15H27z"/><path d="M21 68h40v14H21zM3 81h1v1H3zm1 0h1v2H4zm58 0h1v1h-1zM3 82h1v1H3zm2 0h1v1H5zm1 0h54v1H6zm54 0h1v1h-1zm1 0h1v1h-1zm1 0h1v1h-1zM3 83h1v1H3zm1 0h1v1H4zm1 0h1v1H5zm1 0h1v1H6zm1 0h52v1H7zm52 0h1v1h-1zm1 0h1v1h-1zm1 0h1v1h-1zm1 0h1v1h-1zM5 84h1v1H5zm1 0h1v1H6zm1 0h1v1H7zm1 0h50v1H8zm50 0h1v1h-1zm1 0h1v1h-1zm1 0h1v1h-1z"/></g><path fill="#655" d="M33 25h1v1h-1zm3 0h1v1h-1zm2 12h1v1h-1zm-8 8h1v1h-1zm-3 1h1v1h-1zm-15 5h1v1h-1zm5 1h1v1h-1zm-5 1h1v1h-1zm20 1h1v1h-1zm-8 1h1v1h-1zm20 0h1v1h-1zm-30 4h1v1h-1zm16 2h1v1h-1zm13 0h1v1h-1zm-29 1h1v1h-1zm24 1h1v1h-1zm-13 1h1v1h-1z"/><path fill="#666" d="M42 25h1v1h-1zm-17 3h1v1h-1zm16 0h1v1h-1zm-5 1h1v1h-1zm1 8h1v1h-1zm11 8h1v1h-1zm6 3h1v1h-1zm-8 4h1v1h-1zm-33 2h1v1h-1zm17 6h1v1h-1zm-18 2h1v1h-1zm15 1h1v1h-1zM0 88h1v1H0zm1 0h1v1H1zm63 0h1v1h-1zm1 0h1v1h-1zM1 89h1v1H1zm1 0h1v1H2zm1 0h1v1H3zm1 0h58v1H4zm58 0h1v1h-1zm1 0h1v1h-1zm1 0h1v1h-1z"/><path fill="#433" d="M18 30h1v1h-1zm6 2h1v1h-1zm10 5h1v1h-1zm5 0h1v1h-1zm-1 5h1v1h-1zm1 1h1v1h-1zm-7 2h1v1h-1zm15 0h1v1h-1zm-13 1h1v1h-1zm4 0h1v1h-1zm-12 1h1v1h-1zm-4 2h1v1h-1zm26 0h1v1h-1zm-27 1h1v1h-1zm-2 1h1v1h-1zm29 0h1v1h-1zm-30 2h1v1h-1zm-6 1h1v1h-1zm3 0h1v1h-1zm29 2h1v1h-1zm-13 1h1v1h-1zm0 1h1v1h-1zm0 1h1v1h-1zm10 2h1v1h-1zm-13 2h1v1h-1zm7 0h1v1h-1zm-21 1h1v1h-1z"/><path fill="#777" d="M29 26h1v1h-1zm-2 1h1v1h-1zm-4 1h1v1h-1zm-2 10h1v1h-1zm11 1h1v1h-1zm15 9h1v1h-1zm-28 2h1v1h-1zm5 7h1v1h-1zm5 3h1v1h-1zm3 2h1v1h-1zm-9 2h1v1h-1zm1 0h1v1h-1zm4 2h1v1h-1zM0 84h1v1H0zm65 0h1v1h-1zM0 85h1v1H0zm65 0h1v1h-1zM0 86h1v1H0zm65 0h1v1h-1zM0 87h1v1H0zm65 0h1v1h-1z"/><path fill="#776" d="M24 28h1v1h-1zm15 13h1v1h-1zm-10 4h1v1h-1zm-1 17h1v1h-1zm-6 2h1v1h-1zm19 2h1v1h-1z"/><path fill="#333" d="M40 28h1v1h-1zm-8 10h1v1h-1zm8 7h1v1h-1zm9 1h1v1h-1zm-22 2h1v1h-1zm25 0h1v1h-1zm-4 6h1v1h-1zm-14 9h1v1h-1z"/><path fill="#bbb" d="M0 1h1v1H0zm1 0h1v1H1zm63 0h1v1h-1zm1 0h1v1h-1zM33 23h1v1h-1zm2 0h1v1h-1zm-5 1h1v1h-1zm-2 1h1v1h-1zm-2 1h1v1h-1zm-4 1h1v1h-1zm-1 4h1v1h-1zm4 4h1v1h-1zm9 0h1v1h-1zm-2 2h1v1h-1zm-14 2h1v1h-1zm13 0h1v1h-1zm-12 1h1v1h-1zm21 2h1v1h-1zm-19 1h1v1h-1zm25 0h1v1h-1zm-14 1h1v1h-1zm-20 3h1v1h-1zm42 0h1v1h-1zm-38 5h1v1h-1zm4 1h1v1h-1zm9 6h1v1h-1zm11 2h1v1h-1zm-14 1h1v1h-1zm15 1h1v1h-1zm1 3h1v1h-1zM1 85h1v1H1zm63 0h1v1h-1zM2 86h1v1H2zm1 0h1v1H3zm59 0h1v1h-1zm1 0h1v1h-1z"/><path fill="#ccb" d="M36 23h1v1h-1zm-4 38h1v1h-1z"/><path fill="#988" d="M30 25h1v1h-1zm10 0h1v1h-1zm-12 1h1v1h-1zm-2 1h1v1h-1zm-10 1h1v1h-1zm2 0h1v1h-1zm1 0h1v1h-1zm19 8h1v1h-1zm12 9h1v1h-1zm1 0h1v1h-1zm-25 1h1v1h-1zm-13 4h1v1h-1zm20 0h1v1h-1zm-22 1h1v1h-1zm35 6h1v1h-1zm-13 5h1v1h-1zm8 2h1v1h-1z"/><path fill="#877" d="M31 25h1v1h-1zm7 0h1v1h-1zm-16 3h1v1h-1zm-2 9h1v1h-1zm19 5h1v1h-1zm2 1h1v1h-1zm8 2h1v1h-1zm-36 1h1v1h-1zm40 0h1v1h-1zm-40 1h1v1h-1zm12 0h1v1h-1zm-13 1h1v1h-1zm1 0h1v1h-1zm18 8h1v1h-1zm-7 2h1v1h-1zm6 0h1v1h-1zm-2 3h1v1h-1z"/><path fill="#887" d="M41 25h1v1h-1zm-2 11h1v1h-1zm-23 6h1v1h-1zm5 2h1v1h-1zm4 7h1v1h-1z"/><path fill="#554" d="M27 33h1v1h-1zm-6 13h1v1h-1zm16 3h1v1h-1zm-25 1h1v1h-1zm9 6h1v1h-1zm24 2h1v1h-1zm-6 5h1v1h-1zm-16 4h1v1h-1z"/><g fill="#111"><path d="M34 27h1v1h-1zm1 0h1v1h-1zm1 0h1v1h-1zm1 0h1v1h-1zm-6 1h1v1h-1zm1 0h1v1h-1zm1 0h1v1h-1zm-18 1h1v1h-1zm1 0h1v1h-1zm1 0h1v1h-1zm1 0h4v1h-4zm11 0h1v1h-1zm1 0h1v1h-1zm-6 1h1v1h-1zm4 0h1v1h-1zm-3 1h1v1h-1zm1 0h1v1h-1zm1 0h1v1h-1zm-2 1h1v1h-1zm1 0h1v1h-1zm-1 1h1v1h-1zm-1 1h1v1h-1zm9 4h2v1h-2zm2 1h1v1h-1zm4 0h1v1h-1zm-4 1h1v1h-1zm3 4h1v1h-1zm1 0h2v1h-2zm2 0h1v1h-1zm-4 1h1v1h-1zm8 0h1v1h-1zm-16 1h1v1h-1zm8 0h1v1h-1zm10 0h1v1h-1zm-20 1h1v1h-1zm9 0h1v1h-1zm1 0h1v1h-1zm11 0h1v1h-1zm-22 1h1v1h-1zm10 0h1v1h-1zm1 0h1v1h-1zm11 0h1v1h-1zm-23 1h1v1h-1zm11 0h1v1h-1zm-12 1h1v1h-1zm12 0h1v1h-1zm16 0h1v1h-1zm1 0h1v1h-1zm1 0h1v1h-1zm-30 1h1v1h-1zm26 0h1v1h-1zm-29 1h1v1h-1zm2 0h1v2h-1zm1 0h1v1h-1zm11 0h1v1h-1zm14 0h1v1h-1zm-28 1h1v1h-1z"/><path d="M22 53h2v1h-2zm13 0h1v1h-1zm-19 1h1v1h-1zm5 0h1v1h-1zm1 0h1v2h-1zm1 0h1v1h-1zm11 0h1v1h-1zm13 0h1v1h-1zm-32 1h1v1h-1zm19 0h1v1h-1zm12 0h1v1h-1zm-32 1h1v1h-1zm8 0h1v1h-1zm11 0h1v1h-1zm13 0h1v1h-1zm-35 1h1v1h-1zm2 0h1v1h-1zm1 0h1v1h-1zm8 0h1v1h-1zm1 0h1v1h-1zm22 0h1v1h-1zm-33 1h1v1h-1zm1 0h1v2h-1zm9 0h1v1h-1zm1 0h1v1h-1zm9 0h1v1h-1zm12 0h1v1h-1zm-32 1h1v1h-1zm11 0h1v1h-1zm-11 1h1v1h-1zm1 0h1v1h-1zm10 0h1v1h-1zm20 0h1v1h-1zm-30 1h1v1h-1zm29 0h1v1h-1zm-29 1h1v1h-1zm15 2h1v1h-1zm1 0h1v1h-1zm8 0h1v1h-1zm1 0h1v1h-1zm1 0h2v1h-2zm-14 1h1v1h-1zm8 0h1v1h-1zm4 0h1v1h-1zm-15 1h1v1h-1z"/></g><path fill="#443" d="M27 28h1v1h-1zm-6 19h1v1h-1zm25 0h1v1h-1zm5 0h1v1h-1zm-30 1h1v1h-1zm1 11h1v1h-1zm10 0h1v1h-1zm10 3h1v1h-1z"/><path fill="#fee" d="M24 61h1v1h-1zm-10 4h1v1h-1z"/><path fill="#aaa" d="M0 2h1v1H0zm65 0h1v1h-1zM38 24h1v1h-1zm1 0h1v1h-1zm-16 3h1v1h-1zm1 0h1v1h-1zm-8 3h1v1h-1zm13 2h1v1h-1zm4 7h1v1h-1zm11 4h1v1h-1zm1 0h1v1h-1zm-16 1h1v1h-1zm20 0h1v1h-1zm1 0h1v1h-1zm-23 1h1v1h-1zm16 1h1v1h-1zm-6 4h1v1h-1zm17 2h1v1h-1zm-22 1h1v1h-1zm11 3h1v1h-1zm-28 1h1v1h-1zm9 3h1v1h-1zm20 0h1v1h-1zm-7 2h1v1h-1zm1 0h1v1h-1zm-25 2h1v1h-1zm16 2h1v1h-1zM1 86h1v1H1zm63 0h1v1h-1zM2 87h1v1H2zm1 0h1v1H3zm1 0h1v1H4zm1 0h56v1H5zm56 0h1v1h-1zm1 0h1v1h-1zm1 0h1v1h-1zM4 88h1v1H4zm1 0h56v1H5zm56 0h1v1h-1z"/><path fill="#888" d="M0 5h1v1H0zm65 0h1v1h-1zM0 6h1v1H0zm65 0h1v1h-1zM0 7h1v1H0zm65 0h1v1h-1zM0 8h1v73H0zm65 0h1v73h-1zM39 25h1v1h-1zm-22 3h1v1h-1zm3 0h1v1h-1zm1 0h1v1h-1zm2 3h1v1h-1zm0 2h1v1h-1zm3 1h1v1h-1zm8 2h1v1h-1zm0 3h1v1h-1zm-1 5h1v1h-1zm13 0h1v1h-1zm-18 1h1v1h-1zm-6 1h1v1h-1zm1 1h1v1h-1zm-10 2h1v1h-1zm0 4h1v1h-1zm32 0h1v1h-1zm5 0h1v1h-1zm-9 7h1v1h-1zm-18 1h1v1h-1zm4 1h1v1h-1zm-1 1h1v1h-1zM0 81h1v2H0zm65 0h1v2h-1zM0 83h1v1H0zm65 0h1v1h-1zM1 87h1v1H1zm63 0h1v1h-1zM2 88h1v1H2zm61 0h1v1h-1z"/><path fill="#bba" d="M34 23h1v1h-1zm0 20h1v1h-1z"/><path fill="#a99" d="M31 24h1v1h-1zm6 0h1v1h-1zm-10 2h1v1h-1zm-2 1h1v1h-1zm-12 2h1v1h-1zm20 1h1v1h-1zm3 6h1v1h-1zm1 0h1v1h-1zm-18 2h1v1h-1zm24 5h1v1h-1zm5 1h1v1h-1zm-18 3h1v1h-1zm12 11h1v1h-1zm-31 2h1v1h-1zm11 0h1v1h-1zm13 2h1v1h-1z"/><path fill="#766" d="M32 25h1v1h-1zm5 0h1v1h-1zm6 1h1v1h-1zm-26 4h1v1h-1zm28 14h1v1h-1zm-24 1h1v1h-1zm30 1h1v1h-1zm1 0h1v1h-1zm-30 1h1v1h-1zm-2 2h1v1h-1zm-2 2h1v1h-1zm18 1h1v1h-1zm-22 2h1v1h-1zm10 2h1v1h-1zm-10 4h1v1h-1zm0 1h1v1h-1zm15 0h1v1h-1zm2 0h1v1h-1zm9 1h1v1h-1z"/><path fill="#544" d="M14 29h1v1h-1zm10 2h1v1h-1zm6 0h1v1h-1zm-8 4h1v1h-1zm0 2h1v1h-1zm13 0h1v1h-1zm-18 4h1v1h-1zm18 2h1v1h-1zm9 1h1v1h-1zm-13 1h1v1h-1zm2 1h1v1h-1zm11 0h1v1h-1zm-15 1h1v1h-1zm23 0h1v1h-1zm1 0h1v1h-1zm-31 1h1v1h-1zm-10 1h1v1h-1zm9 0h1v1h-1zm26 2h1v1h-1zm-36 1h1v1h-1zm9 0h1v1h-1zm26 1h1v1h-1zm-22 1h1v1h-1zm21 0h1v1h-1zm-2 3h1v1h-1zm-32 2h1v1h-1zm31 0h1v1h-1zm-12 3h1v1h-1zm-3 4h1v1h-1z"/><path fill="#221" d="M37 43h1v1h-1zm-5 3h1v1h-1zm2 4h1v2h-1zm20 1h1v1h-1zm-21 3h1v1h-1zm-12 1h1v1h-1zm23 4h1v1h-1zm-2 1h1v1h-1zm-8 5h1v1h-1z"/><path fill="#aa9" d="M22 31h1v1h-1zm-7 22h1v1h-1zm21 9h1v1h-1zm4 4h1v1h-1z"/><path fill="#998" d="M33 58h1v1h-1z"/><path fill="#cbb" d="M40 24h1v1h-1zm0 13h1v1h-1zm-11 6h1v1h-1zm-1 1h1v1h-1zm-5 2h1v1h-1zm10 15h1v1h-1z"/><path fill="#dcc" d="M41 24h1v1h-1zM22 34h1v1h-1zm14 1h1v1h-1zm15 9h1v1h-1zM36 61h1v1h-1zm-11 6h1v1h-1z"/><path fill="#332" d="M32 26h1v1h-1zM13 55h1v1h-1zm19 0h1v1h-1zm13 0h1v1h-1zm-12 8h1v1h-1z"/><path fill="#222" d="M33 26h1v1h-1zm-5 6h1v1h-1zm10 9h1v1h-1zm-3 1h1v1h-1zm1 0h1v1h-1zm2 1h1v1h-1zm-2 1h1v1h-1zm7 0h1v1h-1zm7 3h1v1h-1zm3 5h1v1h-1zm-39 6h1v1h-1zm18 5h1v1h-1zm-10 4h1v1h-1z"/><path fill="#110" d="M38 27h1v1h-1zm1 0h1v1h-1zm1 0h2v1h-2zm2 0h1v1h-1zm-8 1h1v1h-1zm1 0h1v1h-1zm4 0h1v1h-1zm-8 1h1v1h-1zm-8 1h1v1h-1zm6 0h1v1h-1zm-1 1h1v1h-1zm-1 1h1v1h-1zm-2 2h1v1h-1zm13 11h1v1h-1zm6 0h1v1h-1zm-14 1h1v1h-1zm1 0h1v1h-1zm15 0h1v1h-1zm-18 1h1v1h-1zm19 0h1v1h-1zm4 4h1v1h-1zm1 0h2v1h-2zm-4 2h1v1h-1zM13 63h1v1h-1zm17 1h1v1h-1zm1 0h2v1h-2zm2 0h1v1h-1zm1 0h2v1h-2zm2 0h1v1h-1zm-10 1h1v1h-1zm1 0h1v1h-1zm13 0h1v1h-1zm-17 1h1v1h-1z"/><path fill="#211" d="M34 26h1v1h-1zm1 0h4v1h-4zm4 0h1v1h-1zm1 0h1v1h-1zm1 0h1v1h-1zm1 0h1v1h-1zm-11 1h1v1h-1zm1 0h1v1h-1zm1 0h1v1h-1zm-4 1h1v1h-1zm1 0h1v1h-1zm-8 1h1v1h-1zm1 0h1v1h-1zm1 0h1v1h-1zm1 0h1v1h-1zm1 0h1v1h-1zm1 0h1v1h-1zm1 0h1v1h-1zm-9 1h1v1h-1zm6 0h1v1h-1zm1 0h1v1h-1zm1 0h1v1h-1zm-3 3h1v1h-1zm-1 2h1v1h-1zm1 0h1v1h-1zm-2 1h1v1h-1zm-1 1h1v1h-1zm-1 1h1v1h-1zm15 0h1v1h-1zm1 0h1v1h-1zm2 0h1v1h-1zm1 0h1v1h-1zm-20 1h1v1h-1zm17 0h1v1h-1zm1 0h1v1h-1zm1 0h1v1h-1zm-2 1h1v1h-1zm1 0h1v1h-1zm1 0h1v1h-1zm-3 1h1v1h-1zm1 0h1v1h-1zm1 0h1v1h-1zm0 3h1v1h-1zm5 0h1v1h-1zm-8 1h1v1h-1zm1 0h1v1h-1zm1 0h1v1h-1zm5 0h1v1h-1zm5 0h1v1h-1zm-18 1h1v1h-1zm7 0h2v1h-2zm13 0h1v1h-1zm-13 1h1v1h-1zm14 0h1v1h-1zm-24 1h1v1h-1zm9 0h1v1h-1zm1 0h1v1h-1zm14 0h1v1h-1zm1 0h1v2h-1zm-27 1h1v1h-1zm1 0h1v1h-1zm10 0h1v1h-1zm1 0h1v2h-1zm14 0h1v1h-1zm2 0h1v1h-1zm1 0h1v1h-1zm1 0h1v1h-1zm-31 1h1v1h-1zm1 0h1v1h-1zm2 0h1v1h-1zm24 0h1v1h-1zm1 0h1v1h-1zm1 0h1v1h-1zm-31 1h1v1h-1zm1 0h1v1h-1zm1 0h1v1h-1zm1 0h1v1h-1zm12 0h1v1h-1zm1 0h1v1h-1zm13 0h1v1h-1zm-31 1h1v1h-1zm1 0h1v1h-1zm3 0h1v1h-1zm12 0h1v1h-1zm14 0h1v1h-1zm-37 1h1v1h-1zm6 0h1v1h-1zm17 0h1v1h-1zm13 0h1v1h-1zm2 0h1v1h-1zm-38 1h1v1h-1zm35 0h1v1h-1zm-35 1h1v1h-1zm1 0h1v1h-1zm2 0h1v1h-1zm9 0h1v2h-1zm10 0h1v1h-1zm-22 1h1v1h-1zm1 0h2v1h-2zm33 0h1v1h-1zm-33 1h1v1h-1zm20 0h1v1h-1zm1 0h1v1h-1zm11 0h1v1h-1zm-33 1h1v1h-1zm32 1h1v1h-1zm-31 2h1v1h-1zm29 1h1v1h-1zm-12 1h1v1h-1zm1 0h1v1h-1zm1 0h1v1h-1zm-4 1h1v1h-1zm-5 1h2v1h-2zm2 0h1v1h-1zm11 0h2v1h-2zm6 0h1v1h-1zm-15 1h1v1h-1z"/><path fill="#322" d="M30 27h1v1h-1zm-2 1h1v1h-1zm7 1h1v1h-1zm-12 5h1v1h-1zm0 2h1v1h-1zm10 1h1v1h-1zm4 1h1v1h-1zm-19 2h1v1h-1zm21 0h1v1h-1zm-2 2h1v1h-1zm-1 1h1v1h-1zm-3 2h1v1h-1zm6 0h1v1h-1zm12 3h1v1h-1zm2 0h1v1h-1zm1 1h1v1h-1zm-6 1h1v1h-1zm-15 2h1v1h-1zm-9 1h1v1h-1zm9 0h1v1h-1zm14 2h1v1h-1zm-32 1h1v1h-1zm17 0h1v1h-1zm11 2h1v1h-1zm-3 5h1v1h-1zm-14 1h1v1h-1z"/><path fill="#ccc" d="M1 0h1v1H1zm1 0h1v1H2zm61 0h1v1h-1zm1 0h1v1h-1zM1 2h1v1H1zm63 0h1v1h-1zM32 23h1v1h-1zm11 2h1v1h-1zm-22 2h1v1h-1zm17 2h1v1h-1zm-7 2h1v1h-1zm4 4h1v1h-1zm5 3h1v1h-1zm7 5h1v1h-1zm-25 1h1v1h-1zm-9 1h1v1h-1zm12 1h1v1h-1zm-5 1h1v1h-1zm25 0h1v1h-1zm-17 1h1v1h-1zm5 1h1v1h-1zm-22 1h1v1h-1zm6 1h1v1h-1zm29 0h1v1h-1zm-2 3h1v1h-1zm-9 1h1v1h-1zm12 1h1v1h-1zm-20 5h1v1h-1zm7 0h1v1h-1zm1 0h1v1h-1zm-23 2h1v1h-1zm11 0h1v1h-1zm7 3h1v1h-1zm9 0h1v1h-1zM1 84h1v1H1zm63 0h1v1h-1zM2 85h1v1H2zm61 0h1v1h-1zM4 86h1v1H4zm1 0h1v1H5zm1 0h1v1H6zm1 0h52v1H7zm52 0h1v1h-1zm1 0h1v1h-1zm1 0h1v1h-1z"/><path fill="#eee" d="M3 1h1v1H3zm59 0h1v1h-1zM2 2h1v1H2zm61 0h1v1h-1zM1 3h1v1H1zm63 0h1v1h-1zM1 4h1v1H1zm63 0h1v1h-1zM1 5h1v1H1zm63 0h1v1h-1zM2 6h1v1H2zm61 0h1v1h-1zM2 7h1v1H2zm61 0h1v1h-1zM2 8h1v74H2zm61 0h1v74h-1zM31 23h1v1h-1zm7 0h1v1h-1zm-9 1h1v1h-1zm13 0h1v1h-1zm-15 1h1v1h-1zm-3 1h1v1h-1zm-6 1h1v1h-1zm-3 3h1v1h-1zm19 0h1v1h-1zm-14 1h1v1h-1zm8 2h1v1h-1zm-7 2h1v1h-1zm12 0h1v1h-1zm-10 2h1v1h-1zm17 2h1v1h-1zm-24 2h1v1h-1zm1 1h1v1h-1zm26 0h1v1h-1zm1 0h1v1h-1zm-29 1h1v1h-1zm34 0h1v1h-1zm-19 1h1v1h-1zm-4 1h1v1h-1zm-14 1h1v1h-1zm30 0h1v1h-1zm-11 1h1v1h-1zm7 1h1v1h-1zm-19 1h1v1h-1zm7 1h1v1h-1zm6 2h1v1h-1zm17 2h1v1h-1zm-1 1h1v1h-1zm-32 1h1v1h-1zm25 3h1v1h-1zm4 0h1v1h-1zm-34 2h1v1h-1zm14 1h1v1h-1zm-4 2h1v1h-1zm21 1h1v1h-1zm-11 1h1v1h-1zm7 0h1v1h-1zm-17 1h1v1h-1zM2 82h1v1H2zm61 0h1v1h-1zM2 83h1v1H2zm61 0h1v1h-1zM3 84h1v1H3zm1 0h1v1H4zm57 0h1v1h-1zm1 0h1v1h-1zM9 85h48v1H9z"/><path fill="#999" d="M0 3h1v1H0zm65 0h1v1h-1zM0 4h1v1H0zm65 0h1v1h-1zM32 24h1v1h-1zm1 0h1v1h-1zm1 0h2v1h-2zm2 0h1v1h-1zm-7 1h1v1h-1zm14 2h1v1h-1zm-30 1h1v1h-1zm1 0h1v1h-1zm1 0h1v1h-1zm22 1h1v1h-1zm-4 7h1v1h-1zm2 0h1v1h-1zm-15 3h1v1h-1zm22 4h1v1h-1zm5 1h1v1h-1zm-25 1h1v1h-1zm30 0h1v1h-1zm-28 2h1v1h-1zm14 0h1v1h-1zm9 3h1v1h-1zm-34 1h1v1h-1zm0 1h1v1h-1zm8 5h1v1h-1zm3 2h1v1h-1zm10 3h1v1h-1zm-9 1h1v1h-1zm-4 2h1v1h-1zm0 1h1v1h-1zm3 1h1v1h-1zM3 88h1v1H3zm59 0h1v1h-1z"/><path fill="#555" d="M34 25h1v1h-1zm1 0h1v1h-1zm-9 3h1v1h-1zm24 18h1v1h-1zm-16 1h1v1h-1zm-11 1h1v1h-1zm-3 2h1v1h-1zm13 1h1v1h-1zm-17 2h1v1h-1zm1 1h1v1h-1zm18 0h1v1h-1zm-19 1h1v1h-1zm18 1h1v1h-1zm-5 6h1v1h-1zm2 0h1v1h-1zm6 1h1v1h-1z"/><path fill="#665" d="M30 26h1v1h-1zm-2 1h1v1h-1zm-7 9h1v1h-1zm15 1h1v1h-1zm4 6h1v1h-1zm-6 1h1v1h-1zm-22 8h1v1h-1zm18 7h1v1h-1z"/></svg>