<svg xmlns="http://www.w3.org/2000/svg" width="66" height="90" baseProfile="tiny" version="1.2"><path fill="#555" d="M33 24h1v1h-1zm-1 1h1v1h-1zm-8 14h1v1h-1zm12 1h1v1h-1zm1 0h1v1h-1zm4 1h1v1h-1zm-8 1h1v1h-1zm-7 7h1v1h-1zm26 8h1v1h-1zm-35 1h1v1h-1zm33 3h1v1h-1zm-8 1h1v1h-1z"/><path fill="#111" d="M33 25h1v1h-1zm1 1h1v1h-1zm0 1h1v1h-1zm3 0h1v1h-1zm-3 1h1v1h-1zm3 0h1v2h-1zm-1 1h1v1h-1zm-17 1h1v1h-1zm17 0h1v5h-1zm-15 1h1v1h-1zm0 1h1v1h-1zm0 1h1v1h-1zm3 1h1v1h-1zm0 1h1v2h-1zm0 2h1v1h-1zm18 2h1v1h-1zm-2 1h1v1h-1zm-3 1h1v1h-1zm3 0h1v1h-1zm-16 1h1v1h-1zm1 0h1v1h-1zm11 0h1v1h-1zm-13 1h1v1h-1zm1 0h1v1h-1zm11 0h1v1h-1zm-13 1h1v1h-1zm1 0h1v1h-1zm12 0h1v1h-1zm-22 1h1v1h-1zm1 0h1v1h-1zm1 0h1v1h-1zm1 0h1v1h-1zm3 0h1v1h-1zm1 0h1v1h-1zm2 0h1v2h-1zm12 0h1v1h-1zm-14 1h1v2h-1zm1 0h1v1h-1zm12 0h1v1h-1zm-11 1h1v1h-1zm11 0h1v1h-1zm-13 1h1v1h-1zm4 4h1v1h-1zm-2 1h1v1h-1zm1 0h1v1h-1zm-1 1h1v1h-1zm-1 1h1v1h-1zm1 0h1v1h-1zm11 1h1v1h-1zm1 2h1v1h-1zm-17 1h1v1h-1zm18 0h1v1h-1zm-19 1h1v1h-1zm19 0h1v1h-1zm1 0h1v1h-1zm-21 1h1v1h-1zm21 0h1v1h-1zm1 0h1v1h-1zm17 0h1v1h-1zm1 0h1v1h-1zm-41 1h1v1h-1zm25 0h1v1h-1zm12 0h1v1h-1zm1 0h1v1h-1zm-41 1h1v1h-1zm1 0h1v1h-1zm2 0h1v1h-1zm29 0h1v1h-1zm1 0h1v1h-1zm1 0h3v1h-3zm3 0h1v1h-1zm1 0h1v1h-1zm-36 1h1v1h-1z"/><path fill="#777" d="M36 25h1v1h-1zm1 6h1v1h-1zm-12 4h1v1h-1zm17 2h1v1h-1zm3 0h1v1h-1zm2 0h1v1h-1zm1 0h1v1h-1zm-7 1h1v1h-1zm-21 1h1v1h-1zm13 2h1v1h-1zm-2 3h1v1h-1zm-20 1h1v1h-1zm38 16h1v1h-1zM0 84h1v1H0zm65 0h1v1h-1zM0 85h1v1H0zm65 0h1v1h-1zM0 86h1v1H0zm65 0h1v1h-1zM0 87h1v1H0zm65 0h1v1h-1z"/><path fill="#333" d="M37 30h1v1h-1zM22 40h1v1h-1zm16 2h1v1h-1zm-19 4h1v1h-1zm16 3h1v2h-1zm0 2h1v1h-1zm-15 2h1v1h-1zm4 0h1v1h-1zm11 1h1v1h-1zm16 2h1v1h-1zm-16 1h1v1h-1zm16 0h1v1h-1zm-9 7h1v1h-1zm10 0h1v1h-1z"/><path fill="#bba" d="M46 36h1v1h-1z"/><path fill="#665" d="M24 40h1v1h-1zm-8 4h1v1h-1zm36 12h1v1h-1zm-5 6h1v1h-1z"/><path fill="#dcc" d="M21 28h1v1h-1z"/><path fill="#fee" d="M38 38h1v1h-1z"/><path fill="#887" d="M18 43h1v1h-1zm-2 15h1v1h-1zm-1 1h1v1h-1z"/><path fill="#888" d="M0 5h1v1H0zm65 0h1v1h-1zM0 6h1v1H0zm65 0h1v1h-1zM0 7h1v1H0zm65 0h1v1h-1zM0 8h1v73H0zm65 0h1v73h-1zM31 24h1v1h-1zm3 0h1v1h-1zm5 1h1v2h-1zM20 38h1v1h-1zm32 12h1v1h-1zm-34 6h1v1h-1zm-1 1h1v1h-1zm38 1h1v1h-1zm-18 1h1v1h-1zm-19 1h1v1h-1zm20 0h1v1h-1zm0 3h1v1h-1zM0 81h1v2H0zm65 0h1v2h-1zM0 83h1v1H0zm65 0h1v1h-1zM1 87h1v1H1zm63 0h1v1h-1zM2 88h1v1H2zm61 0h1v1h-1z"/><path fill="#222" d="M18 29h1v1h-1zm2 2h1v1h-1zm2 0h1v1h-1zm-1 8h1v1h-1zm27 0h1v1h-1zm-14 1h1v1h-1zm2 3h1v1h-1zm-24 2h1v1h-1zm23 1h1v1h-1zm0 1h1v1h-1zm0 8h1v1h-1zm0 3h1v1h-1zm21 3h1v1h-1zm-19 1h1v1h-1z"/><path fill="#443" d="M36 36h1v1h-1zm-4 8h1v1h-1zm-17 2h1v1h-1zm7 5h1v1h-1zm13 1h1v1h-1zm0 1h1v1h-1zm1 6h1v1h-1zm19 0h1v1h-1z"/><path fill="#100" d="M45 39h3v1h-3zm-3 1h2v1h-2zm-3 1h1v1h-1zm-2 1h1v1h-1zm3 21h1v1h-1zm12 0h2v1h-2zm-8 1h8v1h-8zm-32 1h1v1h-1z"/><path fill="#666" d="M20 40h1v1h-1zm-1 3h1v1h-1zm33 8h1v1h-1zm0 2h1v1h-1zm1 2h1v1h-1zm-3 4h1v1h-1zm0 1h1v1h-1zm-7 2h1v1h-1zm-2 2h1v1h-1zM0 88h1v1H0zm1 0h1v1H1zm63 0h1v1h-1zm1 0h1v1h-1zM1 89h1v1H1zm1 0h1v1H2zm1 0h1v1H3zm1 0h58v1H4zm58 0h1v1h-1zm1 0h1v1h-1zm1 0h1v1h-1z"/><path fill="#332" d="M22 41h1v1h-1zm34 19h1v1h-1zm-44 6h1v1h-1z"/><path fill="#bbb" d="M0 1h1v1H0zm1 0h1v1H1zm63 0h1v1h-1zm1 0h1v1h-1zM33 27h1v1h-1zm-14 1h1v1h-1zm6 2h1v1h-1zm8 4h1v1h-1zm9 2h1v1h-1zm-3 2h1v1h-1zm8 2h1v1h-1zm-28 1h1v1h-1zm7 1h1v1h-1zm11 1h1v1h-1zm-24 3h1v1h-1zm19 5h1v3h-1zm0 3h1v1h-1zm-9 1h1v1h-1zm31 1h1v1h-1zm-4 1h1v1h-1zm-39 2h1v1h-1zm1 1h1v1h-1zm22 0h1v1h-1zm2 2h1v1h-1zm20 0h1v1h-1zm-42 2h1v1h-1zm26 0h1v1h-1zm5 1h1v1h-1zM1 85h1v1H1zm63 0h1v1h-1zM2 86h1v1H2zm1 0h1v1H3zm59 0h1v1h-1zm1 0h1v1h-1z"/><path fill="#221" d="M34 25h1v1h-1zm1 12h1v1h-1zm-11 1h1v1h-1zm11 3h1v1h-1zm-14 2h1v1h-1zm13 0h1v1h-1zm-4 3h1v1h-1zm8 15h1v1h-1z"/><path fill="#a99" d="M33 23h1v1h-1zm2 1h1v1h-1zm-13 5h1v1h-1zm1 0h1v1h-1zm21 7h1v1h-1zm-26 6h1v1h-1zm-5 2h1v1h-1zm9 12h1v1h-1zm14 1h1v1h-1zm-1 4h1v1h-1zm-24 5h1v1h-1z"/><path fill="#ddc" d="M48 60h1v1h-1z"/><path fill="#eee" d="M3 1h1v1H3zm59 0h1v1h-1zM2 2h1v1H2zm61 0h1v1h-1zM1 3h1v1H1zm63 0h1v1h-1zM1 4h1v1H1zm63 0h1v1h-1zM1 5h1v1H1zm63 0h1v1h-1zM2 6h1v1H2zm61 0h1v1h-1zM2 7h1v1H2zm61 0h1v1h-1zM2 8h1v74H2zm61 0h1v74h-1zM36 23h1v1h-1zm3 4h1v1h-1zm-6 1h1v1h-1zm0 1h1v1h-1zm8 5h1v1h-1zm1 0h1v1h-1zm-22 1h1v1h-1zm25 0h1v1h-1zm-19 6h1v1h-1zm-15 3h1v1h-1zm-1 1h1v1h-1zm19 0h1v1h-1zm-1 1h1v1h-1zm-9 1h1v1h-1zm8 0h1v1h-1zm3 0h1v1h-1zm-2 2h1v1h-1zm23 2h1v1h-1zm-32 3h1v1h-1zm-1 1h1v1h-1zm-1 1h1v1h-1zm33 0h1v1h-1zm5 1h1v1h-1zm-18 1h1v1h-1zm-27 1h1v1h-1zm3 0h1v1h-1zm25 0h1v1h-1zm11 0h1v1h-1zm-9 1h1v1h-1zm7 0h1v1h-1zM2 82h1v1H2zm61 0h1v1h-1zM2 83h1v1H2zm61 0h1v1h-1zM3 84h1v1H3zm1 0h1v1H4zm57 0h1v1h-1zm1 0h1v1h-1zM9 85h48v1H9z"/><g fill="#fff"><path d="M4 1h1v1H4zm1 0h1v1H5zm1 0h54v1H6zm54 0h1v1h-1zm1 0h1v1h-1zM3 2h1v1H3zm1 0h1v1H4zm1 0h56v1H5zm56 0h1v1h-1zm1 0h1v1h-1zM2 3h1v1H2zm1 0h1v1H3zm1 0h2v1H4zm2 0h54v1H6zm54 0h2v1h-2zm2 0h1v1h-1zm1 0h1v1h-1zM2 4h1v2H2zm1 0h1v3H3zm1 0h1v1H4zm1 0h56v19H5zm56 0h1v1h-1zm1 0h1v3h-1zm1 0h1v2h-1z"/><path d="M4 5h58v2H4zM3 7h1v1H3zm1 0h1v1H4zm57 0h1v1h-1zm1 0h1v1h-1zM3 8h1v73H3zm1 0h1v73H4zm57 0h1v74h-1zm1 0h1v73h-1zM5 23h26v5H5zm32 0h1v1h-1zm1 0h23v1H38zm1 1h1v1h-1zm1 0h21v10H40zm-9 1h1v1h-1zm0 1h1v17h-1zm1 0h1v1h-1zm0 1h1v15h-1zM5 28h12v1H5zm18 0h1v1h-1z"/><path d="M24 28h9v1h-9zm15 0h22v6H39zM5 29h11v14H5zm20 0h8v1h-8zm-9 1h1v1h-1zm10 0h7v11h-7z"/><path d="M38 30h23v4H38zm-22 1h3v10h-3zm3 1h1v9h-1zm1 1h1v1h-1zm0 1h1v1h-1zm17 0h1v1h-1zm1 0h3v3h-3zm5 0h1v1h-1zm1 0h17v1H44z"/><path d="M37 35h4v2h-4zm4 0h1v1h-1zm5 0h15v1H46zm-5 1h1v1h-1zm7 0h1v1h-1zm1 0h12v1H49zm-12 1h3v1h-3zm13 0h11v11H50zm-25 1h1v1h-1zm12 0h1v1h-1zm-12 1h8v1h-8zm0 1h1v1h-1zm23 0h1v1h-1z"/><path d="M49 40h12v8H49zm-33 1h2v1h-2zm2 0h1v1h-1zm9 0h6v1h-6zm17 0h1v1h-1z"/><path d="M45 41h16v7H45zm-29 1h1v1h-1zm11 0h5v1h-5zm5 0h1v1h-1zm8 0h1v1h-1z"/><path d="M41 42h20v6H41zM5 43h9v1H5zm9 0h1v1h-1zm12 0h5v1h-5zm5 0h1v1h-1zm7 0h1v1h-1z"/><path d="M39 43h22v5H39zM5 44h6v1H5zm20 0h5v1h-5zm5 0h1v1h-1z"/><path d="M37 44h24v4H37zM5 45h5v37H5zm19 0h1v1h-1zm1 0h4v1h-4z"/><path d="M36 45h25v3H36zm-26 1h2v13h-2zm2 0h1v1h-1zm12 0h4v1h-4zm-12 1h7v8h-7zm12 0h3v1h-3zm7 0h1v37h-1zm-7 1h2v1h-2zm5 0h1v1h-1z"/><path d="M30 48h2v36h-2zm6 0h16v3H36zm16 0h1v1h-1zm1 0h8v4h-8zm-29 1h1v1h-1z"/><path d="M29 49h3v35h-3z"/><path d="M28 50h4v34h-4z"/><path d="M27 51h5v33h-5zm9 0h15v4H36zm-17 1h1v1h-1zm7 0h1v1h-1zm27 0h1v1h-1zm1 0h7v3h-7zm-35 1h1v1h-1zm6 0h1v1h-1z"/><path d="M26 53h6v31h-6z"/><path d="M25 54h7v30h-7zm-13 1h6v1h-6z"/><path d="M24 55h8v29h-8zm12 0h1v1h-1zm1 0h14v1H37zm17 0h1v1h-1zm1 0h6v2h-6zm-43 1h5v1h-5z"/><path d="M23 56h9v28h-9zm9 0h1v1h-1zm5 0h13v2H37zm-25 1h4v1h-4z"/><path d="M22 57h11v27H22zm34 0h5v2h-5zm-44 1h2v1h-2zm2 0h1v1h-1z"/><path d="M21 58h12v26H21zm17 0h12v1H38zm-26 1h1v1h-1z"/><path d="M20 59h13v25H20zm13 0h1v1h-1zm6 0h10v1H39zm18 0h4v23h-4z"/><path d="M19 60h15v24H19zm22 0h1v1h-1zm1 0h1v1h-1zm1 0h1v1h-1zm1 0h1v1h-1zm1 0h1v1h-1zm1 0h1v1h-1z"/><path d="M18 61h17v23H18z"/><path d="M17 62h19v22H17z"/><path d="M16 63h21v21H16zm21 0h1v1h-1zm19 0h5v19h-5z"/><path d="M15 64h24v20H15zm24 0h1v1h-1zm15 0h1v1h-1zm1 0h6v18h-6z"/><path d="M14 65h29v19H14zm29 0h1v1h-1zm9 0h9v17h-9zm-42 1h1v18h-1zm3 0h1v1h-1z"/><path d="M43 66h18v16H43z"/><path d="M11 67h50v15H11zM3 81h1v1H3zm1 0h1v2H4zm58 0h1v1h-1zM3 82h1v1H3zm2 0h1v1H5zm1 0h54v1H6zm54 0h1v1h-1zm1 0h1v1h-1zm1 0h1v1h-1zM3 83h1v1H3zm1 0h1v1H4zm1 0h1v1H5zm1 0h1v1H6zm1 0h52v1H7zm52 0h1v1h-1zm1 0h1v1h-1zm1 0h1v1h-1zm1 0h1v1h-1zM5 84h1v1H5zm1 0h1v1H6zm1 0h1v1H7zm1 0h50v1H8zm50 0h1v1h-1zm1 0h1v1h-1zm1 0h1v1h-1z"/></g><path fill="#877" d="M32 23h1v1h-1zm6 5h1v1h-1zm-18 1h1v1h-1zm3 1h1v1h-1zm23 7h1v1h-1zm-7 2h1v1h-1zm-6 1h1v1h-1zm13 0h1v1h-1zm-27 2h1v1h-1zm13 1h1v1h-1zm-18 1h1v1h-1zm9 3h1v1h-1zm28 7h1v1h-1zm-31 4h1v1h-1zm-1 1h1v1h-1zm-5 1h1v1h-1z"/><path fill="#211" d="M32 24h1v1h-1zm3 2h1v1h-1zm2 0h1v1h-1zm1 0h1v1h-1zm-3 1h1v2h-1zm1 0h1v1h-1zm2 0h1v1h-1zm-2 1h1v1h-1zm-19 1h1v1h-1zm17 0h1v2h-1zm1 0h1v2h-1zm-15 1h1v1h-1zm14 1h1v1h-1zm1 0h1v5h-1zm-13 1h1v2h-1zm1 0h1v1h-1zm1 0h1v1h-1zm1 0h1v1h-1zm9 0h1v4h-1zm-11 1h1v3h-1zm1 0h1v1h-1zm-3 1h1v1h-1zm1 0h1v1h-1zm-1 1h1v1h-1zm1 0h1v1h-1zm-1 1h1v2h-1zm1 0h1v2h-1zm1 0h1v3h-1zm11 0h1v1h-1zm1 0h1v1h-1zm-1 1h1v1h-1zm-13 1h1v1h-1zm1 0h1v1h-1zm12 0h1v1h-1zm9 0h1v1h-1zm1 0h1v1h-1zm1 0h1v1h-1zm1 0h2v1h-2zm2 0h1v1h-1zm-25 1h1v1h-1zm11 0h1v1h-1zm7 0h1v1h-1zm-2 1h1v1h-1zm5 0h1v1h-1zm-20 1h1v1h-1zm12 0h1v1h-1zm-14 1h1v1h-1zm1 0h1v1h-1zm12 0h1v1h-1zm-13 1h1v1h-1zm-3 1h1v1h-1zm1 0h1v1h-1zm1 0h1v1h-1zm13 0h1v1h-1zm-13 1h1v1h-1zm2 0h1v1h-1zm8 0h1v1h-1zm1 0h1v1h-1zm1 0h1v1h-1zm2 0h1v1h-1zm-1 1h1v1h-1zm-13 1h1v1h-1zm13 0h1v1h-1zm-13 1h2v1h-2zm12 0h1v1h-1zm1 0h1v1h-1zm-14 1h1v3h-1zm1 0h1v1h-1zm12 0h1v1h-1zm1 0h1v4h-1zm-8 1h1v1h-1zm7 0h1v3h-1zm-12 1h1v1h-1zm4 0h1v1h-1zm-5 1h1v1h-1zm1 0h1v1h-1zm1 0h1v1h-1zm1 0h1v1h-1zm-2 1h1v1h-1zm12 0h1v2h-1zm1 0h1v1h-1zm-13 1h1v1h-1zm2 0h1v1h-1zm11 0h1v1h-1zm-1 1h1v1h-1zm1 0h1v1h-1zm-14 1h1v1h-1zm14 0h1v1h-1zm-15 1h1v1h-1zm15 0h1v1h-1zm-16 1h1v1h-1zm35 2h1v1h-1zm1 0h1v1h-1zm1 0h1v1h-1zm-41 1h1v1h-1zm38 0h1v1h-1zm1 0h1v1h-1zm-43 1h1v1h-1zm1 0h1v1h-1zm1 0h1v1h-1zm1 0h1v1h-1zm27 0h1v1h-1zm10 0h1v1h-1zm5 0h1v1h-1zm-45 1h1v1h-1zm29 0h1v1h-1z"/><path fill="#aa9" d="M36 24h1v1h-1zm0 15h1v1h-1z"/><path fill="#655" d="M35 25h1v1h-1zm1 12h1v1h-1zm-16 4h1v1h-1zm0 1h1v1h-1zm10 3h1v1h-1zm-5 7h1v1h-1zm27 0h1v1h-1zm1 4h1v1h-1zm-35 1h1v1h-1zm35 0h1v1h-1zm1 0h1v1h-1zm-18 1h1v1h-1zm-25 3h1v1h-1zm2 0h1v1h-1zm-3 3h1v1h-1z"/><path fill="#433" d="M33 26h1v1h-1zm-12 4h1v1h-1zm14 8h1v1h-1zm-14 2h1v1h-1zm17 0h1v1h-1zm-13 1h1v1h-1zm-4 1h1v1h-1zm8 5h1v1h-1zm-1 1h1v1h-1zm5 9h1v1h-1zm18 1h1v1h-1zm1 1h1v1h-1zm1 0h1v1h-1zm-38 1h1v1h-1zm26 2h1v1h-1zm13 1h1v1h-1z"/><path fill="#998" d="M36 38h1v1h-1zM26 51h1v1h-1zm14 10h1v1h-1zm8 4h1v1h-1z"/><path fill="#cbb" d="M34 23h1v1h-1zm3 16h1v1h-1zm-25 5h1v1h-1zm11 5h1v1h-1zm29 0h1v1h-1zm-37 9h1v1h-1zm41 1h1v1h-1zm-17 1h1v1h-1z"/><path fill="#554" d="M38 25h1v1h-1zm-19 4h1v1h-1zm21 10h1v1h-1zm-17 7h1v1h-1zm4 2h1v1h-1zm24 7h1v1h-1zm3 3h1v1h-1z"/><path fill="#edd" d="M22 28h1v1h-1zm11 2h1v1h-1z"/><path fill="#ccb" d="M16 29h1v1h-1z"/><path fill="#988" d="M17 30h1v1h-1zm23 8h1v1h-1zm-7 1h1v1h-1zM21 57h1v1h-1zm29 1h1v1h-1zm-39 2h1v1h-1zm38 0h1v1h-1z"/><path fill="#444" d="M18 30h1v1h-1zm6 1h1v1h-1zm11 9h1v1h-1zm-14 1h1v1h-1zm-1 2h1v1h-1zm-3 1h1v1h-1zm35 14h1v1h-1zm2 1h1v1h-1zm-3 1h1v1h-1z"/><path fill="#544" d="M23 31h1v1h-1zm2 0h1v1h-1zm0 3h1v1h-1zm17 4h1v1h-1zm-7 1h1v1h-1zm10 1h1v1h-1zm-12 3h1v1h-1zm-4 3h1v1h-1zm-1 1h1v1h-1zm-6 3h1v1h-1zm3 0h1v1h-1zm-6 6h1v1h-1zm34 2h1v1h-1zm-37 1h1v1h-1zm35 0h1v1h-1zm-14 1h1v1h-1zm-27 1h1v1h-1zm38 1h1v1h-1z"/><path fill="#baa" d="M33 35h1v1h-1zm-8 8h1v1h-1zm18 18h1v1h-1zm1 0h1v1h-1zm1 0h1v1h-1z"/><path fill="#110" d="M43 39h1v1h-1zm1 0h1v1h-1zm-3 1h1v1h-1zm-3 1h1v1h-1zm-21 4h2v1h-2zm4 11h1v1h-1zm-1 1h1v1h-1zm-1 1h1v1h-1zm-1 1h1v1h-1zm-1 1h1v1h-1zm-1 1h1v1h-1zm-1 1h1v1h-1zm23 0h1v1h-1zm15 0h1v1h-1zm1 0h1v1h-1zm-41 1h1v1h-1zm28 0h1v1h-1zm1 0h1v1h-1zm8 0h1v1h-1zm1 0h1v1h-1zm-40 1h1v1h-1zm1 0h1v1h-1zm31 0h1v1h-1zm-32 1h1v1h-1z"/><path fill="#ccc" d="M1 0h1v1H1zm1 0h1v1H2zm61 0h1v1h-1zm1 0h1v1h-1zM1 2h1v1H1zm63 0h1v1h-1zM38 24h1v1h-1zm-18 4h1v1h-1zm4 1h1v1h-1zm-5 2h1v1h-1zm14 1h1v1h-1zm0 1h1v1h-1zm11 2h1v1h-1zm-24 1h1v1h-1zm29 3h1v1h-1zm-13 5h1v1h-1zm-17 5h1v1h-1zm13 0h1v1h-1zm-13 1h1v1h-1zm4 0h1v1h-1zm1 0h1v1h-1zm3 0h1v1h-1zm5 0h1v1h-1zm19 2h1v1h-1zm-19 3h1v1h-1zM10 65h1v1h-1zM1 84h1v1H1zm63 0h1v1h-1zM2 85h1v1H2zm61 0h1v1h-1zM4 86h1v1H4zm1 0h1v1H5zm1 0h1v1H6zm1 0h52v1H7zm52 0h1v1h-1zm1 0h1v1h-1zm1 0h1v1h-1z"/><path fill="#ddd" d="M3 0h1v1H3zm1 0h1v1H4zm1 0h56v1H5zm56 0h1v1h-1zm1 0h1v1h-1zM2 1h1v1H2zm61 0h1v1h-1zM1 6h1v1H1zm63 0h1v1h-1zM1 7h1v1H1zm63 0h1v1h-1zM1 8h1v1H1zm63 0h1v1h-1zM1 9h1v73H1zm63 0h1v73h-1zM31 23h1v1h-1zm4 0h1v1h-1zm3 6h1v1h-1zm-5 2h1v1h-1zm4 2h1v1h-1zm10 3h1v1h-1zm-22 1h1v1h-1zm15 0h1v1h-1zm9 0h1v1h-1zm-6 4h1v1h-1zm-26 1h1v1h-1zm-2 1h1v1h-1zm17 3h1v2h-1zm-13 2h1v1h-1zm7 0h1v1h-1zm6 0h1v1h-1zm-7 1h1v1h-1zm-6 2h1v1h-1zm34 2h1v1h-1zm-29 1h1v1h-1zm12 2h1v1h-1zm-20 1h1v1h-1zm39 6h1v1h-1zm-11 2h1v1h-1zm7 0h1v1h-1zM1 82h1v1H1zm63 0h1v1h-1zM1 83h1v1H1zm63 0h1v1h-1zM2 84h1v1H2zm61 0h1v1h-1zM3 85h1v1H3zm1 0h1v1H4zm1 0h1v1H5zm1 0h1v1H6zm1 0h2v1H7zm50 0h2v1h-2zm2 0h1v1h-1zm1 0h1v1h-1zm1 0h1v1h-1zm1 0h1v1h-1z"/><path fill="#aaa" d="M0 2h1v1H0zm65 0h1v1h-1zM37 24h1v1h-1zm-20 4h1v1h-1zm1 0h1v1h-1zm2 4h1v1h-1zm17 0h1v1h-1zm5 3h1v1h-1zm1 0h1v1h-1zm-18 1h1v1h-1zm8 0h1v1h-1zm12 0h1v1h-1zm-25 1h1v1h-1zm19 5h1v1h-1zm-23 1h1v1h-1zm35 10h1v1h-1zm2 1h1v1h-1zm-39 5h1v1h-1zm-4 1h1v1h-1zm31 1h1v1h-1zm1 0h1v1h-1zm4 0h1v1h-1zm1 0h1v1h-1zm-31 1h1v1h-1zm-1 1h1v1h-1zm31 2h1v1h-1zm4 0h1v1h-1zM1 86h1v1H1zm63 0h1v1h-1zM2 87h1v1H2zm1 0h1v1H3zm1 0h1v1H4zm1 0h56v1H5zm56 0h1v1h-1zm1 0h1v1h-1zm1 0h1v1h-1zM4 88h1v1H4zm1 0h56v1H5zm56 0h1v1h-1z"/><path fill="#999" d="M0 3h1v1H0zm65 0h1v1h-1zM0 4h1v1H0zm65 0h1v1h-1zM21 29h1v1h-1zm22 7h1v1h-1zm-10 1h1v1h-1zm8 0h1v1h-1zm-8 1h1v1h-1zm5 1h1v1h-1zm4 2h1v1h-1zm-25 2h1v1h-1zm7 1h1v1h-1zm7 2h1v1h-1zm-8 2h1v1h-1zm10 10h1v1h-1zm-20 2h1v1h-1zm4 1h1v1h-1zm31 0h1v1h-1zm5 3h1v1h-1zm-40 1h1v1h-1zm34 0h1v1h-1zm2 0h1v1h-1zM3 88h1v1H3zm59 0h1v1h-1z"/><path fill="#766" d="M37 25h1v1h-1zm-13 5h1v1h-1zm25 8h1v1h-1zm-35 8h1v1h-1zm38 8h1v1h-1zm0 1h1v1h-1zm-13 6h1v1h-1zm5 1h1v1h-1zm1 0h1v1h-1zm1 0h1v1h-1z"/><path fill="#322" d="M36 26h1v1h-1zm-11 7h1v1h-1zm11 2h1v1h-1zm-14 4h1v1h-1zm1 1h1v1h-1zm0 1h1v1h-1zm11 0h1v1h-1zm0 1h1v1h-1zm-16 2h1v1h-1zm15 0h1v1h-1zm-17 2h3v1h-3zm19 2h1v1h-1zm-13 1h1v1h-1zm5 0h1v1h-1zm-6 1h1v1h-1zm3 1h1v1h-1zm-4 3h1v2h-1zm15 2h1v1h-1zm-1 3h1v1h-1zm18 1h1v1h-1zm-1 1h1v1h-1zm-2 1h1v1h-1z"/><path fill="#776" d="M22 30h1v1h-1zm21 7h1v1h-1zm1 0h1v1h-1zm-29 7h1v1h-1zm8 7h1v1h-1zm-4 4h1v1h-1zm-7 6h1v1h-1z"/></svg>