<?xml version="1.0" encoding="UTF-8"?><svg viewBox="0 0 66 90" width="66px" height="90px" xmlns="http://www.w3.org/2000/svg" version="1.2" baseProfile="tiny"><g fill="#555"><rect y="24" width="1" height="1" x="33"/><rect height="1" x="32" y="25" width="1"/><rect x="24" y="39" width="1" height="1"/><rect x="36" y="40" width="1" height="1"/><rect x="37" y="40" width="1" height="1"/><rect width="1" height="1" x="41" y="41"/><rect y="42" width="1" height="1" x="33"/><rect x="26" y="49" width="1" height="1"/><rect height="1" x="52" y="57" width="1"/><rect x="17" y="58" width="1" height="1"/><rect height="1" x="50" y="61" width="1"/><rect y="62" width="1" height="1" x="42"/></g><g fill="#111"><rect x="33" y="25" width="1" height="1"/><rect x="34" y="26" width="1" height="1"/><rect x="34" y="27" width="1" height="1"/><rect height="1" x="37" y="27" width="1"/><rect width="1" height="1" x="34" y="28"/><rect width="1" height="2" x="37" y="28"/><rect y="29" width="1" height="1" x="36"/><rect height="1" x="19" y="30" width="1"/><rect x="36" y="30" width="1" height="5"/><rect width="1" height="1" x="21" y="31"/><rect x="21" y="32" width="1" height="1"/><rect x="21" y="33" width="1" height="1"/><rect x="24" y="34" width="1" height="1"/><rect y="35" width="1" height="2" x="24"/><rect y="37" width="1" height="1" x="24"/><rect width="1" height="1" x="42" y="39"/><rect x="40" y="40" width="1" height="1"/><rect height="1" x="37" y="41" width="1"/><rect height="1" x="40" y="41" width="1"/><rect width="1" height="1" x="24" y="42"/><rect width="1" height="1" x="25" y="42"/><rect height="1" x="36" y="42" width="1"/><rect x="23" y="43" width="1" height="1"/><rect x="24" y="43" width="1" height="1"/><rect height="1" x="35" y="43" width="1"/><rect width="1" height="1" x="22" y="44"/><rect x="23" y="44" width="1" height="1"/><rect x="35" y="44" width="1" height="1"/><rect x="13" y="45" width="1" height="1"/><rect height="1" x="14" y="45" width="1"/><rect height="1" x="15" y="45" width="1"/><rect width="1" height="1" x="16" y="45"/><rect width="1" height="1" x="19" y="45"/><rect width="1" height="1" x="20" y="45"/><rect width="1" height="2" x="22" y="45"/><rect y="45" width="1" height="1" x="34"/><rect x="20" y="46" width="1" height="2"/><rect x="21" y="46" width="1" height="1"/><rect y="46" width="1" height="1" x="33"/><rect x="22" y="47" width="1" height="1"/><rect width="1" height="1" x="33" y="47"/><rect height="1" x="20" y="48" width="1"/><rect x="24" y="52" width="1" height="1"/><rect y="53" width="1" height="1" x="22"/><rect width="1" height="1" x="23" y="53"/><rect y="54" width="1" height="1" x="22"/><rect width="1" height="1" x="21" y="55"/><rect y="55" width="1" height="1" x="22"/><rect y="56" width="1" height="1" x="33"/><rect y="58" width="1" height="1" x="34"/><rect x="17" y="59" width="1" height="1"/><rect width="1" height="1" x="35" y="59"/><rect x="16" y="60" width="1" height="1"/><rect x="35" y="60" width="1" height="1"/><rect width="1" height="1" x="36" y="60"/><rect x="15" y="61" width="1" height="1"/><rect y="61" width="1" height="1" x="36"/><rect x="37" y="61" width="1" height="1"/><rect x="54" y="61" width="1" height="1"/><rect x="55" y="61" width="1" height="1"/><rect x="14" y="62" width="1" height="1"/><rect y="62" width="1" height="1" x="39"/><rect height="1" x="51" y="62" width="1"/><rect x="52" y="62" width="1" height="1"/><rect x="11" y="63" width="1" height="1"/><rect height="1" x="12" y="63" width="1"/><rect y="63" width="1" height="1" x="14"/><rect y="63" width="1" height="1" x="43"/><rect width="1" height="1" x="44" y="63"/><rect x="45" y="63" width="3" height="1"/><rect x="48" y="63" width="1" height="1"/><rect x="49" y="63" width="1" height="1"/><rect y="64" width="1" height="1" x="13"/></g><g fill="#777"><rect x="36" y="25" width="1" height="1"/><rect x="37" y="31" width="1" height="1"/><rect y="35" width="1" height="1" x="25"/><rect width="1" height="1" x="42" y="37"/><rect x="45" y="37" width="1" height="1"/><rect width="1" height="1" x="47" y="37"/><rect width="1" height="1" x="48" y="37"/><rect x="41" y="38" width="1" height="1"/><rect y="39" width="1" height="1" x="20"/><rect y="41" width="1" height="1" x="33"/><rect height="1" x="31" y="44" width="1"/><rect width="1" height="1" x="11" y="45"/><rect x="49" y="61" width="1" height="1"/><rect y="84" width="1" height="1"/><rect y="84" width="1" height="1" x="65"/><rect y="85" width="1" height="1"/><rect x="65" y="85" width="1" height="1"/><rect width="1" height="1" y="86"/><rect x="65" y="86" width="1" height="1"/><rect y="87" width="1" height="1"/><rect width="1" height="1" x="65" y="87"/></g><g fill="#333"><rect x="37" y="30" width="1" height="1"/><rect x="22" y="40" width="1" height="1"/><rect width="1" height="1" x="38" y="42"/><rect y="46" width="1" height="1" x="19"/><rect x="35" y="49" width="1" height="2"/><rect x="35" y="51" width="1" height="1"/><rect x="20" y="53" width="1" height="1"/><rect x="24" y="53" width="1" height="1"/><rect x="35" y="54" width="1" height="1"/><rect x="51" y="56" width="1" height="1"/><rect x="35" y="57" width="1" height="1"/><rect y="57" width="1" height="1" x="51"/><rect width="1" height="1" x="42" y="64"/><rect height="1" x="52" y="64" width="1"/></g><rect width="1" height="1" x="46" y="36" fill="#bba"/><g fill="#665"><rect width="1" height="1" x="24" y="40"/><rect y="44" width="1" height="1" x="16"/><rect x="52" y="56" width="1" height="1"/><rect x="47" y="62" width="1" height="1"/></g><rect x="21" y="28" width="1" height="1" fill="#dcc"/><rect height="1" fill="#fee" x="38" y="38" width="1"/><g fill="#887"><rect width="1" height="1" x="18" y="43"/><rect y="58" width="1" height="1" x="16"/><rect x="15" y="59" width="1" height="1"/></g><g fill="#888"><rect y="5" width="1" height="1"/><rect height="1" x="65" y="5" width="1"/><rect y="6" width="1" height="1"/><rect x="65" y="6" width="1" height="1"/><rect y="7" width="1" height="1"/><rect x="65" y="7" width="1" height="1"/><rect y="8" width="1" height="73"/><rect x="65" y="8" width="1" height="73"/><rect x="31" y="24" width="1" height="1"/><rect width="1" height="1" x="34" y="24"/><rect x="39" y="25" width="1" height="2"/><rect width="1" height="1" x="20" y="38"/><rect width="1" height="1" x="52" y="50"/><rect x="18" y="56" width="1" height="1"/><rect x="17" y="57" width="1" height="1"/><rect x="55" y="58" width="1" height="1"/><rect x="37" y="59" width="1" height="1"/><rect height="1" x="18" y="60" width="1"/><rect x="38" y="60" width="1" height="1"/><rect width="1" height="1" x="38" y="63"/><rect width="1" height="2" y="81"/><rect x="65" y="81" width="1" height="2"/><rect height="1" y="83" width="1"/><rect x="65" y="83" width="1" height="1"/><rect x="1" y="87" width="1" height="1"/><rect x="64" y="87" width="1" height="1"/><rect x="2" y="88" width="1" height="1"/><rect height="1" x="63" y="88" width="1"/></g><g fill="#222"><rect height="1" x="18" y="29" width="1"/><rect height="1" x="20" y="31" width="1"/><rect x="22" y="31" width="1" height="1"/><rect x="21" y="39" width="1" height="1"/><rect height="1" x="48" y="39" width="1"/><rect width="1" height="1" x="34" y="40"/><rect height="1" x="36" y="43" width="1"/><rect width="1" height="1" x="12" y="45"/><rect x="35" y="46" width="1" height="1"/><rect y="47" width="1" height="1" x="35"/><rect y="55" width="1" height="1" x="35"/><rect height="1" x="35" y="58" width="1"/><rect width="1" height="1" x="56" y="61"/><rect width="1" height="1" x="37" y="62"/></g><g fill="#443"><rect x="36" y="36" width="1" height="1"/><rect x="32" y="44" width="1" height="1"/><rect height="1" x="15" y="46" width="1"/><rect x="22" y="51" width="1" height="1"/><rect x="35" y="52" width="1" height="1"/><rect width="1" height="1" x="35" y="53"/><rect x="36" y="59" width="1" height="1"/><rect width="1" height="1" x="55" y="59"/></g><g fill="#100"><rect height="1" x="45" y="39" width="3"/><rect y="40" width="2" height="1" x="42"/><rect y="41" width="1" height="1" x="39"/><rect x="37" y="42" width="1" height="1"/><rect x="40" y="63" width="1" height="1"/><rect width="2" height="1" x="52" y="63"/><rect width="8" height="1" x="44" y="64"/><rect x="12" y="65" width="1" height="1"/></g><g fill="#666"><rect x="20" y="40" width="1" height="1"/><rect y="43" width="1" height="1" x="19"/><rect width="1" height="1" x="52" y="51"/><rect y="53" width="1" height="1" x="52"/><rect height="1" x="53" y="55" width="1"/><rect x="50" y="59" width="1" height="1"/><rect y="60" width="1" height="1" x="50"/><rect width="1" height="1" x="43" y="62"/><rect height="1" x="41" y="64" width="1"/><rect height="1" y="88" width="1"/><rect x="1" y="88" width="1" height="1"/><rect height="1" x="64" y="88" width="1"/><rect width="1" height="1" x="65" y="88"/><rect x="1" y="89" width="1" height="1"/><rect x="2" y="89" width="1" height="1"/><rect x="3" y="89" width="1" height="1"/><rect height="1" x="4" y="89" width="58"/><rect y="89" width="1" height="1" x="62"/><rect height="1" x="63" y="89" width="1"/><rect width="1" height="1" x="64" y="89"/></g><g fill="#332"><rect x="22" y="41" width="1" height="1"/><rect width="1" height="1" x="56" y="60"/><rect x="12" y="66" width="1" height="1"/></g><g fill="#bbb"><rect y="1" width="1" height="1"/><rect width="1" height="1" x="1" y="1"/><rect x="64" y="1" width="1" height="1"/><rect y="1" width="1" height="1" x="65"/><rect x="33" y="27" width="1" height="1"/><rect x="19" y="28" width="1" height="1"/><rect height="1" x="25" y="30" width="1"/><rect x="33" y="34" width="1" height="1"/><rect y="36" width="1" height="1" x="42"/><rect y="38" width="1" height="1" x="39"/><rect height="1" x="47" y="40" width="1"/><rect y="41" width="1" height="1" x="19"/><rect x="26" y="42" width="1" height="1"/><rect x="37" y="43" width="1" height="1"/><rect x="13" y="46" width="1" height="1"/><rect x="32" y="51" width="1" height="3"/><rect x="32" y="54" width="1" height="1"/><rect x="23" y="55" width="1" height="1"/><rect y="56" width="1" height="1" x="54"/><rect x="50" y="57" width="1" height="1"/><rect x="11" y="59" width="1" height="1"/><rect x="12" y="60" width="1" height="1"/><rect x="34" y="60" width="1" height="1"/><rect x="36" y="62" width="1" height="1"/><rect y="62" width="1" height="1" x="56"/><rect height="1" x="14" y="64" width="1"/><rect y="64" width="1" height="1" x="40"/><rect height="1" x="45" y="65" width="1"/><rect height="1" x="1" y="85" width="1"/><rect y="85" width="1" height="1" x="64"/><rect x="2" y="86" width="1" height="1"/><rect width="1" height="1" x="3" y="86"/><rect width="1" height="1" x="62" y="86"/><rect x="63" y="86" width="1" height="1"/></g><g fill="#221"><rect width="1" height="1" x="34" y="25"/><rect y="37" width="1" height="1" x="35"/><rect width="1" height="1" x="24" y="38"/><rect height="1" x="35" y="41" width="1"/><rect width="1" height="1" x="21" y="43"/><rect y="43" width="1" height="1" x="34"/><rect x="30" y="46" width="1" height="1"/><rect x="38" y="61" width="1" height="1"/></g><g fill="#a99"><rect y="23" width="1" height="1" x="33"/><rect width="1" height="1" x="35" y="24"/><rect x="22" y="29" width="1" height="1"/><rect y="29" width="1" height="1" x="23"/><rect width="1" height="1" x="44" y="36"/><rect x="18" y="42" width="1" height="1"/><rect width="1" height="1" x="13" y="44"/><rect width="1" height="1" x="22" y="56"/><rect x="36" y="57" width="1" height="1"/><rect width="1" height="1" x="35" y="61"/><rect height="1" x="11" y="66" width="1"/></g><rect height="1" fill="#ddc" x="48" y="60" width="1"/><g fill="#eee"><rect x="3" y="1" width="1" height="1"/><rect y="1" width="1" height="1" x="62"/><rect height="1" x="2" y="2" width="1"/><rect y="2" width="1" height="1" x="63"/><rect x="1" y="3" width="1" height="1"/><rect x="64" y="3" width="1" height="1"/><rect width="1" height="1" x="1" y="4"/><rect height="1" x="64" y="4" width="1"/><rect height="1" x="1" y="5" width="1"/><rect width="1" height="1" x="64" y="5"/><rect y="6" width="1" height="1" x="2"/><rect height="1" x="63" y="6" width="1"/><rect y="7" width="1" height="1" x="2"/><rect x="63" y="7" width="1" height="1"/><rect x="2" y="8" width="1" height="74"/><rect x="63" y="8" width="1" height="74"/><rect x="36" y="23" width="1" height="1"/><rect x="39" y="27" width="1" height="1"/><rect x="33" y="28" width="1" height="1"/><rect height="1" x="33" y="29" width="1"/><rect y="34" width="1" height="1" x="41"/><rect height="1" x="42" y="34" width="1"/><rect width="1" height="1" x="20" y="35"/><rect x="45" y="35" width="1" height="1"/><rect x="26" y="41" width="1" height="1"/><rect x="11" y="44" width="1" height="1"/><rect height="1" x="10" y="45" width="1"/><rect height="1" x="29" y="45" width="1"/><rect x="28" y="46" width="1" height="1"/><rect x="19" y="47" width="1" height="1"/><rect height="1" x="27" y="47" width="1"/><rect width="1" height="1" x="30" y="47"/><rect x="28" y="49" width="1" height="1"/><rect y="51" width="1" height="1" x="51"/><rect x="19" y="54" width="1" height="1"/><rect width="1" height="1" x="18" y="55"/><rect x="17" y="56" width="1" height="1"/><rect x="50" y="56" width="1" height="1"/><rect x="55" y="57" width="1" height="1"/><rect x="37" y="58" width="1" height="1"/><rect height="1" x="10" y="59" width="1"/><rect x="13" y="59" width="1" height="1"/><rect y="59" width="1" height="1" x="38"/><rect height="1" x="49" y="59" width="1"/><rect width="1" height="1" x="40" y="60"/><rect x="47" y="60" width="1" height="1"/><rect x="2" y="82" width="1" height="1"/><rect height="1" x="63" y="82" width="1"/><rect width="1" height="1" x="2" y="83"/><rect y="83" width="1" height="1" x="63"/><rect x="3" y="84" width="1" height="1"/><rect width="1" height="1" x="4" y="84"/><rect x="61" y="84" width="1" height="1"/><rect x="62" y="84" width="1" height="1"/><rect y="85" width="48" height="1" x="9"/></g><g fill="#fff"><rect height="1" x="4" y="1" width="1"/><rect x="5" y="1" width="1" height="1"/><rect x="6" y="1" width="54" height="1"/><rect height="1" x="60" y="1" width="1"/><rect height="1" x="61" y="1" width="1"/><rect y="2" width="1" height="1" x="3"/><rect width="1" height="1" x="4" y="2"/><rect width="56" height="1" x="5" y="2"/><rect x="61" y="2" width="1" height="1"/><rect width="1" height="1" x="62" y="2"/><rect y="3" width="1" height="1" x="2"/><rect height="1" x="3" y="3" width="1"/><rect width="2" height="1" x="4" y="3"/><rect x="6" y="3" width="54" height="1"/><rect y="3" width="2" height="1" x="60"/><rect x="62" y="3" width="1" height="1"/><rect width="1" height="1" x="63" y="3"/><rect width="1" height="2" x="2" y="4"/><rect x="3" y="4" width="1" height="3"/><rect width="1" height="1" x="4" y="4"/><rect y="4" width="56" height="19" x="5"/><rect y="4" width="1" height="1" x="61"/><rect y="4" width="1" height="3" x="62"/><rect y="4" width="1" height="2" x="63"/><rect x="4" y="5" width="58" height="2"/><rect width="1" height="1" x="3" y="7"/><rect x="4" y="7" width="1" height="1"/><rect height="1" x="61" y="7" width="1"/><rect x="62" y="7" width="1" height="1"/><rect y="8" width="1" height="73" x="3"/><rect x="4" y="8" width="1" height="73"/><rect y="8" width="1" height="74" x="61"/><rect height="73" x="62" y="8" width="1"/><rect height="5" x="5" y="23" width="26"/><rect y="23" width="1" height="1" x="37"/><rect y="23" width="23" height="1" x="38"/><rect height="1" x="39" y="24" width="1"/><rect y="24" width="21" height="10" x="40"/><rect y="25" width="1" height="1" x="31"/><rect x="31" y="26" width="1" height="17"/><rect height="1" x="32" y="26" width="1"/><rect width="1" height="15" x="32" y="27"/><rect y="28" width="12" height="1" x="5"/><rect height="1" x="23" y="28" width="1"/><rect x="24" y="28" width="9" height="1"/><rect x="39" y="28" width="22" height="6"/><rect x="5" y="29" width="11" height="14"/><rect x="25" y="29" width="8" height="1"/><rect y="30" width="1" height="1" x="16"/><rect x="26" y="30" width="7" height="11"/><rect x="38" y="30" width="23" height="4"/><rect height="10" x="16" y="31" width="3"/><rect x="19" y="32" width="1" height="9"/><rect height="1" x="20" y="33" width="1"/><rect x="20" y="34" width="1" height="1"/><rect x="37" y="34" width="1" height="1"/><rect y="34" width="3" height="3" x="38"/><rect x="43" y="34" width="1" height="1"/><rect x="44" y="34" width="17" height="1"/><rect x="37" y="35" width="4" height="2"/><rect x="41" y="35" width="1" height="1"/><rect y="35" width="15" height="1" x="46"/><rect x="41" y="36" width="1" height="1"/><rect y="36" width="1" height="1" x="48"/><rect width="12" height="1" x="49" y="36"/><rect x="37" y="37" width="3" height="1"/><rect x="50" y="37" width="11" height="11"/><rect y="38" width="1" height="1" x="25"/><rect y="38" width="1" height="1" x="37"/><rect x="25" y="39" width="8" height="1"/><rect x="25" y="40" width="1" height="1"/><rect width="1" height="1" x="48" y="40"/><rect height="8" x="49" y="40" width="12"/><rect x="16" y="41" width="2" height="1"/><rect x="18" y="41" width="1" height="1"/><rect width="6" height="1" x="27" y="41"/><rect x="44" y="41" width="1" height="1"/><rect height="7" x="45" y="41" width="16"/><rect y="42" width="1" height="1" x="16"/><rect y="42" width="5" height="1" x="27"/><rect width="1" height="1" x="32" y="42"/><rect width="1" height="1" x="40" y="42"/><rect x="41" y="42" width="20" height="6"/><rect width="9" height="1" x="5" y="43"/><rect x="14" y="43" width="1" height="1"/><rect x="26" y="43" width="5" height="1"/><rect x="31" y="43" width="1" height="1"/><rect y="43" width="1" height="1" x="38"/><rect x="39" y="43" width="22" height="5"/><rect width="6" height="1" x="5" y="44"/><rect y="44" width="5" height="1" x="25"/><rect x="30" y="44" width="1" height="1"/><rect x="37" y="44" width="24" height="4"/><rect width="5" height="37" x="5" y="45"/><rect x="24" y="45" width="1" height="1"/><rect width="4" height="1" x="25" y="45"/><rect width="25" height="3" x="36" y="45"/><rect height="13" x="10" y="46" width="2"/><rect x="12" y="46" width="1" height="1"/><rect width="4" height="1" x="24" y="46"/><rect y="47" width="7" height="8" x="12"/><rect width="3" height="1" x="24" y="47"/><rect height="37" x="31" y="47" width="1"/><rect height="1" x="24" y="48" width="2"/><rect x="29" y="48" width="1" height="1"/><rect height="36" x="30" y="48" width="2"/><rect x="36" y="48" width="16" height="3"/><rect y="48" width="1" height="1" x="52"/><rect y="48" width="8" height="4" x="53"/><rect y="49" width="1" height="1" x="24"/><rect x="29" y="49" width="3" height="35"/><rect width="4" height="34" x="28" y="50"/><rect height="33" x="27" y="51" width="5"/><rect width="15" height="4" x="36" y="51"/><rect height="1" x="19" y="52" width="1"/><rect width="1" height="1" x="26" y="52"/><rect y="52" width="1" height="1" x="53"/><rect x="54" y="52" width="7" height="3"/><rect width="1" height="1" x="19" y="53"/><rect x="25" y="53" width="1" height="1"/><rect x="26" y="53" width="6" height="31"/><rect x="25" y="54" width="7" height="30"/><rect height="1" x="12" y="55" width="6"/><rect x="24" y="55" width="8" height="29"/><rect x="36" y="55" width="1" height="1"/><rect height="1" x="37" y="55" width="14"/><rect width="1" height="1" x="54" y="55"/><rect y="55" width="6" height="2" x="55"/><rect x="12" y="56" width="5" height="1"/><rect height="28" x="23" y="56" width="9"/><rect y="56" width="1" height="1" x="32"/><rect x="37" y="56" width="13" height="2"/><rect x="12" y="57" width="4" height="1"/><rect width="11" height="27" x="22" y="57"/><rect width="5" height="2" x="56" y="57"/><rect width="2" height="1" x="12" y="58"/><rect height="1" x="14" y="58" width="1"/><rect width="12" height="26" x="21" y="58"/><rect width="12" height="1" x="38" y="58"/><rect height="1" x="12" y="59" width="1"/><rect height="25" x="20" y="59" width="13"/><rect y="59" width="1" height="1" x="33"/><rect x="39" y="59" width="10" height="1"/><rect y="59" width="4" height="23" x="57"/><rect height="24" x="19" y="60" width="15"/><rect height="1" x="41" y="60" width="1"/><rect x="42" y="60" width="1" height="1"/><rect width="1" height="1" x="43" y="60"/><rect height="1" x="44" y="60" width="1"/><rect y="60" width="1" height="1" x="45"/><rect x="46" y="60" width="1" height="1"/><rect height="23" x="18" y="61" width="17"/><rect height="22" x="17" y="62" width="19"/><rect y="63" width="21" height="21" x="16"/><rect width="1" height="1" x="37" y="63"/><rect height="19" x="56" y="63" width="5"/><rect y="64" width="24" height="20" x="15"/><rect x="39" y="64" width="1" height="1"/><rect height="1" x="54" y="64" width="1"/><rect y="64" width="6" height="18" x="55"/><rect width="29" height="19" x="14" y="65"/><rect x="43" y="65" width="1" height="1"/><rect x="52" y="65" width="9" height="17"/><rect y="66" width="1" height="18" x="10"/><rect width="1" height="1" x="13" y="66"/><rect y="66" width="18" height="16" x="43"/><rect x="11" y="67" width="50" height="15"/><rect height="1" x="3" y="81" width="1"/><rect x="4" y="81" width="1" height="2"/><rect y="81" width="1" height="1" x="62"/><rect x="3" y="82" width="1" height="1"/><rect height="1" x="5" y="82" width="1"/><rect x="6" y="82" width="54" height="1"/><rect y="82" width="1" height="1" x="60"/><rect width="1" height="1" x="61" y="82"/><rect height="1" x="62" y="82" width="1"/><rect height="1" x="3" y="83" width="1"/><rect x="4" y="83" width="1" height="1"/><rect x="5" y="83" width="1" height="1"/><rect height="1" x="6" y="83" width="1"/><rect y="83" width="52" height="1" x="7"/><rect width="1" height="1" x="59" y="83"/><rect x="60" y="83" width="1" height="1"/><rect height="1" x="61" y="83" width="1"/><rect height="1" x="62" y="83" width="1"/><rect width="1" height="1" x="5" y="84"/><rect x="6" y="84" width="1" height="1"/><rect x="7" y="84" width="1" height="1"/><rect width="50" height="1" x="8" y="84"/><rect x="58" y="84" width="1" height="1"/><rect x="59" y="84" width="1" height="1"/><rect x="60" y="84" width="1" height="1"/></g><g fill="#877"><rect x="32" y="23" width="1" height="1"/><rect x="38" y="28" width="1" height="1"/><rect y="29" width="1" height="1" x="20"/><rect x="23" y="30" width="1" height="1"/><rect x="46" y="37" width="1" height="1"/><rect height="1" x="39" y="39" width="1"/><rect height="1" x="33" y="40" width="1"/><rect x="46" y="40" width="1" height="1"/><rect x="19" y="42" width="1" height="1"/><rect height="1" x="32" y="43" width="1"/><rect y="44" width="1" height="1" x="14"/><rect width="1" height="1" x="23" y="47"/><rect height="1" x="51" y="54" width="1"/><rect x="20" y="58" width="1" height="1"/><rect x="19" y="59" width="1" height="1"/><rect height="1" x="14" y="60" width="1"/></g><g fill="#211"><rect y="24" width="1" height="1" x="32"/><rect height="1" x="35" y="26" width="1"/><rect width="1" height="1" x="37" y="26"/><rect x="38" y="26" width="1" height="1"/><rect x="35" y="27" width="1" height="2"/><rect width="1" height="1" x="36" y="27"/><rect x="38" y="27" width="1" height="1"/><rect width="1" height="1" x="36" y="28"/><rect width="1" height="1" x="17" y="29"/><rect x="34" y="29" width="1" height="2"/><rect x="35" y="29" width="1" height="2"/><rect y="30" width="1" height="1" x="20"/><rect height="1" x="34" y="31" width="1"/><rect height="5" x="35" y="31" width="1"/><rect height="2" x="22" y="32" width="1"/><rect width="1" height="1" x="23" y="32"/><rect x="24" y="32" width="1" height="1"/><rect y="32" width="1" height="1" x="25"/><rect x="34" y="32" width="1" height="4"/><rect y="33" width="1" height="3" x="23"/><rect x="24" y="33" width="1" height="1"/><rect width="1" height="1" x="21" y="34"/><rect x="22" y="34" width="1" height="1"/><rect x="21" y="35" width="1" height="1"/><rect height="1" x="22" y="35" width="1"/><rect height="2" x="21" y="36" width="1"/><rect width="1" height="2" x="22" y="36"/><rect x="23" y="36" width="1" height="3"/><rect y="36" width="1" height="1" x="34"/><rect y="36" width="1" height="1" x="35"/><rect height="1" x="34" y="37" width="1"/><rect x="21" y="38" width="1" height="1"/><rect y="38" width="1" height="1" x="22"/><rect width="1" height="1" x="34" y="38"/><rect height="1" x="43" y="38" width="1"/><rect y="38" width="1" height="1" x="44"/><rect height="1" x="45" y="38" width="1"/><rect x="46" y="38" width="2" height="1"/><rect width="1" height="1" x="48" y="38"/><rect y="39" width="1" height="1" x="23"/><rect x="34" y="39" width="1" height="1"/><rect width="1" height="1" x="41" y="39"/><rect y="40" width="1" height="1" x="39"/><rect height="1" x="44" y="40" width="1"/><rect y="41" width="1" height="1" x="24"/><rect height="1" x="36" y="41" width="1"/><rect width="1" height="1" x="22" y="42"/><rect height="1" x="23" y="42" width="1"/><rect x="35" y="42" width="1" height="1"/><rect y="43" width="1" height="1" x="22"/><rect height="1" x="19" y="44" width="1"/><rect height="1" x="20" y="44" width="1"/><rect x="21" y="44" width="1" height="1"/><rect y="44" width="1" height="1" x="34"/><rect y="45" width="1" height="1" x="21"/><rect width="1" height="1" x="23" y="45"/><rect width="1" height="1" x="31" y="45"/><rect x="32" y="45" width="1" height="1"/><rect x="33" y="45" width="1" height="1"/><rect width="1" height="1" x="35" y="45"/><rect x="34" y="46" width="1" height="1"/><rect height="1" x="21" y="47" width="1"/><rect x="34" y="47" width="1" height="1"/><rect height="1" x="21" y="48" width="2"/><rect x="33" y="48" width="1" height="1"/><rect x="34" y="48" width="1" height="1"/><rect y="49" width="1" height="3" x="20"/><rect x="21" y="49" width="1" height="1"/><rect x="33" y="49" width="1" height="1"/><rect x="34" y="49" width="1" height="4"/><rect y="50" width="1" height="1" x="26"/><rect y="50" width="1" height="3" x="33"/><rect y="51" width="1" height="1" x="21"/><rect width="1" height="1" x="25" y="51"/><rect width="1" height="1" x="20" y="52"/><rect height="1" x="21" y="52" width="1"/><rect x="22" y="52" width="1" height="1"/><rect x="23" y="52" width="1" height="1"/><rect x="21" y="53" width="1" height="1"/><rect width="1" height="2" x="33" y="53"/><rect height="1" x="34" y="53" width="1"/><rect x="21" y="54" width="1" height="1"/><rect width="1" height="1" x="23" y="54"/><rect width="1" height="1" x="34" y="54"/><rect width="1" height="1" x="33" y="55"/><rect y="55" width="1" height="1" x="34"/><rect width="1" height="1" x="20" y="56"/><rect x="34" y="56" width="1" height="1"/><rect height="1" x="19" y="57" width="1"/><rect width="1" height="1" x="34" y="57"/><rect width="1" height="1" x="18" y="58"/><rect x="53" y="60" width="1" height="1"/><rect y="60" width="1" height="1" x="54"/><rect x="55" y="60" width="1" height="1"/><rect height="1" x="14" y="61" width="1"/><rect width="1" height="1" x="52" y="61"/><rect x="53" y="61" width="1" height="1"/><rect x="10" y="62" width="1" height="1"/><rect x="11" y="62" width="1" height="1"/><rect height="1" x="12" y="62" width="1"/><rect x="13" y="62" width="1" height="1"/><rect height="1" x="40" y="62" width="1"/><rect x="50" y="62" width="1" height="1"/><rect x="55" y="62" width="1" height="1"/><rect y="63" width="1" height="1" x="10"/><rect width="1" height="1" x="39" y="63"/></g><g fill="#aa9"><rect x="36" y="24" width="1" height="1"/><rect y="39" width="1" height="1" x="36"/></g><g fill="#655"><rect x="35" y="25" width="1" height="1"/><rect y="37" width="1" height="1" x="36"/><rect width="1" height="1" x="20" y="41"/><rect width="1" height="1" x="20" y="42"/><rect height="1" x="30" y="45" width="1"/><rect y="52" width="1" height="1" x="25"/><rect x="52" y="52" width="1" height="1"/><rect x="53" y="56" width="1" height="1"/><rect y="57" width="1" height="1" x="18"/><rect height="1" x="53" y="57" width="1"/><rect width="1" height="1" x="54" y="57"/><rect x="36" y="58" width="1" height="1"/><rect y="61" width="1" height="1" x="11"/><rect height="1" x="13" y="61" width="1"/><rect x="10" y="64" width="1" height="1"/></g><g fill="#433"><rect height="1" x="33" y="26" width="1"/><rect x="21" y="30" width="1" height="1"/><rect x="35" y="38" width="1" height="1"/><rect height="1" x="21" y="40" width="1"/><rect width="1" height="1" x="38" y="40"/><rect y="41" width="1" height="1" x="25"/><rect x="21" y="42" width="1" height="1"/><rect x="29" y="47" width="1" height="1"/><rect x="28" y="48" width="1" height="1"/><rect height="1" x="33" y="57" width="1"/><rect x="51" y="58" width="1" height="1"/><rect height="1" x="52" y="59" width="1"/><rect width="1" height="1" x="53" y="59"/><rect x="15" y="60" width="1" height="1"/><rect height="1" x="41" y="62" width="1"/><rect y="63" width="1" height="1" x="54"/></g><g fill="#998"><rect x="36" y="38" width="1" height="1"/><rect width="1" height="1" x="26" y="51"/><rect height="1" x="40" y="61" width="1"/><rect height="1" x="48" y="65" width="1"/></g><g fill="#cbb"><rect x="34" y="23" width="1" height="1"/><rect x="37" y="39" width="1" height="1"/><rect width="1" height="1" x="12" y="44"/><rect x="23" y="49" width="1" height="1"/><rect width="1" height="1" x="52" y="49"/><rect height="1" x="15" y="58" width="1"/><rect x="56" y="59" width="1" height="1"/><rect height="1" x="39" y="60" width="1"/></g><g fill="#554"><rect x="38" y="25" width="1" height="1"/><rect height="1" x="19" y="29" width="1"/><rect y="39" width="1" height="1" x="40"/><rect x="23" y="46" width="1" height="1"/><rect x="27" y="48" width="1" height="1"/><rect width="1" height="1" x="51" y="55"/><rect y="58" width="1" height="1" x="54"/></g><g fill="#edd"><rect x="22" y="28" width="1" height="1"/><rect x="33" y="30" width="1" height="1"/></g><rect x="16" y="29" width="1" height="1" fill="#ccb"/><g fill="#988"><rect x="17" y="30" width="1" height="1"/><rect height="1" x="40" y="38" width="1"/><rect height="1" x="33" y="39" width="1"/><rect height="1" x="21" y="57" width="1"/><rect x="50" y="58" width="1" height="1"/><rect x="11" y="60" width="1" height="1"/><rect height="1" x="49" y="60" width="1"/></g><g fill="#444"><rect width="1" height="1" x="18" y="30"/><rect width="1" height="1" x="24" y="31"/><rect width="1" height="1" x="35" y="40"/><rect x="21" y="41" width="1" height="1"/><rect height="1" x="20" y="43" width="1"/><rect x="17" y="44" width="1" height="1"/><rect width="1" height="1" x="52" y="58"/><rect width="1" height="1" x="54" y="59"/><rect width="1" height="1" x="51" y="60"/></g><g fill="#544"><rect y="31" width="1" height="1" x="23"/><rect x="25" y="31" width="1" height="1"/><rect y="34" width="1" height="1" x="25"/><rect height="1" x="42" y="38" width="1"/><rect x="35" y="39" width="1" height="1"/><rect x="45" y="40" width="1" height="1"/><rect x="33" y="43" width="1" height="1"/><rect height="1" x="29" y="46" width="1"/><rect x="28" y="47" width="1" height="1"/><rect x="22" y="50" width="1" height="1"/><rect height="1" x="25" y="50" width="1"/><rect width="1" height="1" x="19" y="56"/><rect x="53" y="58" width="1" height="1"/><rect width="1" height="1" x="16" y="59"/><rect x="51" y="59" width="1" height="1"/><rect height="1" x="37" y="60" width="1"/><rect x="10" y="61" width="1" height="1"/><rect x="48" y="62" width="1" height="1"/></g><g fill="#baa"><rect width="1" height="1" x="33" y="35"/><rect x="25" y="43" width="1" height="1"/><rect x="43" y="61" width="1" height="1"/><rect y="61" width="1" height="1" x="44"/><rect height="1" x="45" y="61" width="1"/></g><g fill="#110"><rect x="43" y="39" width="1" height="1"/><rect x="44" y="39" width="1" height="1"/><rect y="40" width="1" height="1" x="41"/><rect x="38" y="41" width="1" height="1"/><rect x="17" y="45" width="2" height="1"/><rect height="1" x="21" y="56" width="1"/><rect y="57" width="1" height="1" x="20"/><rect x="19" y="58" width="1" height="1"/><rect x="18" y="59" width="1" height="1"/><rect height="1" x="17" y="60" width="1"/><rect x="16" y="61" width="1" height="1"/><rect x="15" y="62" width="1" height="1"/><rect height="1" x="38" y="62" width="1"/><rect y="62" width="1" height="1" x="53"/><rect width="1" height="1" x="54" y="62"/><rect height="1" x="13" y="63" width="1"/><rect height="1" x="41" y="63" width="1"/><rect x="42" y="63" width="1" height="1"/><rect y="63" width="1" height="1" x="50"/><rect height="1" x="51" y="63" width="1"/><rect y="64" width="1" height="1" x="11"/><rect x="12" y="64" width="1" height="1"/><rect x="43" y="64" width="1" height="1"/><rect y="65" width="1" height="1" x="11"/></g><g fill="#ccc"><rect x="1" width="1" height="1"/><rect x="2" width="1" height="1"/><rect x="63" width="1" height="1"/><rect x="64" width="1" height="1"/><rect y="2" width="1" height="1" x="1"/><rect x="64" y="2" width="1" height="1"/><rect y="24" width="1" height="1" x="38"/><rect height="1" x="20" y="28" width="1"/><rect height="1" x="24" y="29" width="1"/><rect y="31" width="1" height="1" x="19"/><rect y="32" width="1" height="1" x="33"/><rect y="33" width="1" height="1" x="33"/><rect x="44" y="35" width="1" height="1"/><rect height="1" x="20" y="36" width="1"/><rect x="49" y="39" width="1" height="1"/><rect height="1" x="36" y="44" width="1"/><rect width="1" height="1" x="19" y="49"/><rect y="49" width="1" height="1" x="32"/><rect y="50" width="1" height="1" x="19"/><rect x="23" y="50" width="1" height="1"/><rect y="50" width="1" height="1" x="24"/><rect height="1" x="27" y="50" width="1"/><rect x="32" y="50" width="1" height="1"/><rect x="51" y="52" width="1" height="1"/><rect x="32" y="55" width="1" height="1"/><rect width="1" height="1" x="10" y="65"/><rect height="1" x="1" y="84" width="1"/><rect x="64" y="84" width="1" height="1"/><rect y="85" width="1" height="1" x="2"/><rect width="1" height="1" x="63" y="85"/><rect x="4" y="86" width="1" height="1"/><rect height="1" x="5" y="86" width="1"/><rect x="6" y="86" width="1" height="1"/><rect width="52" height="1" x="7" y="86"/><rect width="1" height="1" x="59" y="86"/><rect height="1" x="60" y="86" width="1"/><rect width="1" height="1" x="61" y="86"/></g><g fill="#ddd"><rect height="1" x="3" width="1"/><rect x="4" width="1" height="1"/><rect x="5" width="56" height="1"/><rect height="1" x="61" width="1"/><rect height="1" x="62" width="1"/><rect y="1" width="1" height="1" x="2"/><rect width="1" height="1" x="63" y="1"/><rect width="1" height="1" x="1" y="6"/><rect x="64" y="6" width="1" height="1"/><rect x="1" y="7" width="1" height="1"/><rect y="7" width="1" height="1" x="64"/><rect height="1" x="1" y="8" width="1"/><rect width="1" height="1" x="64" y="8"/><rect y="9" width="1" height="73" x="1"/><rect width="1" height="73" x="64" y="9"/><rect x="31" y="23" width="1" height="1"/><rect x="35" y="23" width="1" height="1"/><rect y="29" width="1" height="1" x="38"/><rect x="33" y="31" width="1" height="1"/><rect height="1" x="37" y="33" width="1"/><rect x="47" y="36" width="1" height="1"/><rect y="37" width="1" height="1" x="25"/><rect y="37" width="1" height="1" x="40"/><rect x="49" y="37" width="1" height="1"/><rect x="43" y="41" width="1" height="1"/><rect x="17" y="42" width="1" height="1"/><rect x="15" y="43" width="1" height="1"/><rect y="46" width="1" height="2" x="32"/><rect height="1" x="19" y="48" width="1"/><rect x="26" y="48" width="1" height="1"/><rect x="32" y="48" width="1" height="1"/><rect width="1" height="1" x="25" y="49"/><rect y="51" width="1" height="1" x="19"/><rect x="53" y="53" width="1" height="1"/><rect x="24" y="54" width="1" height="1"/><rect x="36" y="56" width="1" height="1"/><rect y="57" width="1" height="1" x="16"/><rect x="55" y="63" width="1" height="1"/><rect height="1" x="44" y="65" width="1"/><rect x="51" y="65" width="1" height="1"/><rect width="1" height="1" x="1" y="82"/><rect x="64" y="82" width="1" height="1"/><rect y="83" width="1" height="1" x="1"/><rect y="83" width="1" height="1" x="64"/><rect width="1" height="1" x="2" y="84"/><rect y="84" width="1" height="1" x="63"/><rect width="1" height="1" x="3" y="85"/><rect x="4" y="85" width="1" height="1"/><rect height="1" x="5" y="85" width="1"/><rect x="6" y="85" width="1" height="1"/><rect width="2" height="1" x="7" y="85"/><rect width="2" height="1" x="57" y="85"/><rect x="59" y="85" width="1" height="1"/><rect width="1" height="1" x="60" y="85"/><rect x="61" y="85" width="1" height="1"/><rect width="1" height="1" x="62" y="85"/></g><g fill="#aaa"><rect height="1" y="2" width="1"/><rect width="1" height="1" x="65" y="2"/><rect height="1" x="37" y="24" width="1"/><rect y="28" width="1" height="1" x="17"/><rect y="28" width="1" height="1" x="18"/><rect y="32" width="1" height="1" x="20"/><rect height="1" x="37" y="32" width="1"/><rect y="35" width="1" height="1" x="42"/><rect width="1" height="1" x="43" y="35"/><rect width="1" height="1" x="25" y="36"/><rect width="1" height="1" x="33" y="36"/><rect x="45" y="36" width="1" height="1"/><rect x="20" y="37" width="1" height="1"/><rect height="1" x="39" y="42" width="1"/><rect x="16" y="43" width="1" height="1"/><rect width="1" height="1" x="51" y="53"/><rect y="54" width="1" height="1" x="53"/><rect x="14" y="59" width="1" height="1"/><rect width="1" height="1" x="10" y="60"/><rect y="61" width="1" height="1" x="41"/><rect x="42" y="61" width="1" height="1"/><rect x="46" y="61" width="1" height="1"/><rect height="1" x="47" y="61" width="1"/><rect width="1" height="1" x="16" y="62"/><rect x="15" y="63" width="1" height="1"/><rect y="65" width="1" height="1" x="46"/><rect x="50" y="65" width="1" height="1"/><rect x="1" y="86" width="1" height="1"/><rect x="64" y="86" width="1" height="1"/><rect x="2" y="87" width="1" height="1"/><rect height="1" x="3" y="87" width="1"/><rect y="87" width="1" height="1" x="4"/><rect width="56" height="1" x="5" y="87"/><rect x="61" y="87" width="1" height="1"/><rect y="87" width="1" height="1" x="62"/><rect width="1" height="1" x="63" y="87"/><rect x="4" y="88" width="1" height="1"/><rect x="5" y="88" width="56" height="1"/><rect x="61" y="88" width="1" height="1"/></g><g fill="#999"><rect y="3" width="1" height="1"/><rect height="1" x="65" y="3" width="1"/><rect width="1" height="1" y="4"/><rect x="65" y="4" width="1" height="1"/><rect width="1" height="1" x="21" y="29"/><rect height="1" x="43" y="36" width="1"/><rect width="1" height="1" x="33" y="37"/><rect x="41" y="37" width="1" height="1"/><rect x="33" y="38" width="1" height="1"/><rect width="1" height="1" x="38" y="39"/><rect height="1" x="42" y="41" width="1"/><rect x="17" y="43" width="1" height="1"/><rect width="1" height="1" x="24" y="44"/><rect x="31" y="46" width="1" height="1"/><rect width="1" height="1" x="23" y="48"/><rect x="33" y="58" width="1" height="1"/><rect y="60" width="1" height="1" x="13"/><rect y="61" width="1" height="1" x="17"/><rect height="1" x="48" y="61" width="1"/><rect x="53" y="64" width="1" height="1"/><rect x="13" y="65" width="1" height="1"/><rect x="47" y="65" width="1" height="1"/><rect y="65" width="1" height="1" x="49"/><rect y="88" width="1" height="1" x="3"/><rect width="1" height="1" x="62" y="88"/></g><g fill="#766"><rect y="25" width="1" height="1" x="37"/><rect height="1" x="24" y="30" width="1"/><rect x="49" y="38" width="1" height="1"/><rect x="14" y="46" width="1" height="1"/><rect x="52" y="54" width="1" height="1"/><rect height="1" x="52" y="55" width="1"/><rect x="39" y="61" width="1" height="1"/><rect height="1" x="44" y="62" width="1"/><rect x="45" y="62" width="1" height="1"/><rect height="1" x="46" y="62" width="1"/></g><g fill="#322"><rect x="36" y="26" width="1" height="1"/><rect x="25" y="33" width="1" height="1"/><rect x="36" y="35" width="1" height="1"/><rect height="1" x="22" y="39" width="1"/><rect y="40" width="1" height="1" x="23"/><rect x="23" y="41" width="1" height="1"/><rect height="1" x="34" y="41" width="1"/><rect y="42" width="1" height="1" x="34"/><rect y="44" width="1" height="1" x="18"/><rect y="44" width="1" height="1" x="33"/><rect y="46" width="3" height="1" x="16"/><rect x="35" y="48" width="1" height="1"/><rect width="1" height="1" x="22" y="49"/><rect x="27" y="49" width="1" height="1"/><rect width="1" height="1" x="21" y="50"/><rect width="1" height="1" x="24" y="51"/><rect x="20" y="54" width="1" height="2"/><rect height="1" x="35" y="56" width="1"/><rect x="34" y="59" width="1" height="1"/><rect x="52" y="60" width="1" height="1"/><rect x="51" y="61" width="1" height="1"/><rect x="49" y="62" width="1" height="1"/></g><g fill="#776"><rect height="1" x="22" y="30" width="1"/><rect x="43" y="37" width="1" height="1"/><rect width="1" height="1" x="44" y="37"/><rect x="15" y="44" width="1" height="1"/><rect x="23" y="51" width="1" height="1"/><rect x="19" y="55" width="1" height="1"/><rect x="12" y="61" width="1" height="1"/></g></svg>