<svg xmlns="http://www.w3.org/2000/svg" baseProfile="tiny" version="1.2" viewBox="0 0 66 90"><path fill="#053" d="M32 23h1v1h-1zm0 2h1v1h-1zm-1 1h1v1h-1zm-4 2h1v1h-1zm9 5h1v1h-1zm-19 1h1v1h-1zm18 1h1v1h-1zm-12 1h1v1h-1zm-3 1h1v1h-1zm22 4h1v1h-1zm-6 3h1v1h-1zm14 1h1v1h-1zm-26 1h1v1h-1zm27 0h1v1h-1zm-32 2h1v1h-1zm17 1h1v1h-1zm-12 4h1v1h-1zm-2 1h1v1h-1zm14 1h1v1h-1zm-13 1h1v1h-1zm7 0h1v1h-1zm-13 1h1v1h-1zm20 2h1v1h-1zm-13 6h1v1h-1zm-1 1h1v1h-1zm1 0h1v1h-1zm22 0h1v1h-1zm4 1h1v1h-1zm-21 1h1v1h-1z"/><path fill="#ded" d="M23 25h1v1h-1zm11 4h1v1h-1zm14 0h1v1h-1zm-28 4h1v1h-1zm6 2h1v1h-1zm13 3h1v1h-1zm10 2h1v1h-1zm-16 9h1v1h-1zm16 1h1v1h-1zm-8 1h1v1h-1zm-23 2h1v1h-1zm23 6h1v1h-1zm3 1h1v1h-1zm-23 5h1v1h-1zm23 2h1v1h-1z"/><path fill="#bdc" d="M32 20h1v1h-1zm10 5h1v1h-1zm5 4h1v1h-1zm-22 1h1v1h-1zm25 0h1v1h-1zm-17 5h1v1h-1zm6 6h1v1h-1zm11 0h1v1h-1zm-23 1h1v1h-1zm8 0h1v1h-1zm-12 2h1v1h-1zm-3 1h1v1h-1zm7 0h1v1h-1zm-5 2h1v1h-1zm17 0h1v1h-1zm-5 1h1v1h-1zM8 49h1v1H8zm38 0h1v1h-1zm0 1h1v1h-1zm6 0h1v1h-1zm-10 1h1v1h-1zm17 0h1v1h-1zm-23 1h1v1h-1zm-17 2h1v1h-1zm14 0h1v1h-1zm28 0h1v1h-1zm-37 1h1v1h-1zm-2 3h1v1h-1zm-12 1h1v1h-1zm15 0h1v1h-1zm-3 1h1v1h-1zm3 0h1v1h-1zm-3 1h1v1h-1zm14 2h1v1h-1zm-11 1h1v1h-1z"/><path fill="#285" d="M34 21h1v1h-1zm-10 5h1v1h-1zm14 5h1v1h-1zm-18 4h1v1h-1zm13 3h1v1h-1zm0 1h1v1h-1zm-14 2h1v1h-1zm15 0h1v1h-1zm7 0h1v1h-1zm-9 1h1v1h-1zm0 1h1v1h-1zm17 0h1v1h-1zm-31 1h1v1h-1zm8 0h1v1h-1zm-4 2h1v1h-1zm-9 1h1v1h-1zm24 1h1v1h-1zm1 3h1v1h-1zm0 2h1v1h-1zm-10 1h1v1h-1zm0 1h1v1h-1zm7 5h1v1h-1zm-12 3h1v1h-1zm-2 3h1v1h-1z"/><path fill="#7b9" d="M30 22h1v1h-1zm-1 1h1v1h-1zm-4 2h1v1h-1zm22 5h1v1h-1zm-4 7h1v1h-1zm3 2h1v1h-1zm-11 1h1v1h-1zm4 2h1v1h-1zm-13 1h1v1h-1zm32 7h1v1h-1zm-31 1h1v1h-1zm23 0h1v1h-1zm-37 7h1v1h-1zm30 2h1v1h-1zm-26 1h1v1h-1zm17 0h1v1h-1zm-16 1h1v1h-1zm0 2h1v1h-1zm30 0h1v1h-1zm-17 1h1v1h-1z"/><path fill="#586" d="M33 24h1v1h-1zm-3 5h1v1h-1zm-6 8h1v1h-1zm21 6h1v1h-1zm1 1h1v1h-1zm1 1h1v1h-1zm1 1h1v1h-1zm11 8h1v1h-1zm-15 9h1v1h-1z"/><path fill="#073" d="M42 27h1v1h-1zM28 56h1v1h-1zm6 7h1v1h-1z"/><path fill="#385" d="M25 32h1v1h-1zm18 1h1v1h-1zm-19 1h1v1h-1zm9 3h1v1h-1zm0 3h1v1h-1zm15 2h1v1h-1zm-27 4h1v1h-1zm16 1h1v1h-1zm20 3h1v1h-1zm-36 2h1v1h-1zm16 0h1v1h-1zm-1 2h1v1h-1zm-20 7h1v1h-1zm7 3h1v1h-1z"/><path fill="#253" d="M40 45h1v1h-1zm-9 2h1v1h-1zm12 6h1v1h-1z"/><path fill="#888" d="M0 5h1v1H0zm65 0h1v1h-1zM0 6h1v1H0zm65 0h1v1h-1zM0 7h1v1H0zm65 0h1v1h-1zM0 8h1v73H0zm65 0h1v73h-1zM0 81h1v2H0zm65 0h1v2h-1zM0 83h1v1H0zm65 0h1v1h-1zM1 87h1v1H1zm63 0h1v1h-1zM2 88h1v1H2zm61 0h1v1h-1z"/><path fill="#8ba" d="M31 21h1v1h-1zm1 0h1v1h-1zm-4 2h1v1h-1zm4 3h1v1h-1zm0 1h1v1h-1zm-14 6h1v1h-1zm27 5h1v1h-1zm-28 4h1v1h-1zm36 2h1v1h-1zm1 1h1v1h-1zm-44 3h1v1h-1zm5 9h1v1h-1zm-2 2h1v1h-1zm34 4h1v1h-1z"/><path fill="#386" d="M32 22h1v1h-1zm-4 3h1v1h-1zm-5 1h1v1h-1zm17 0h1v1h-1zm-2 6h1v1h-1zm6 0h1v1h-1zm-24 6h1v1h-1zm13 3h1v2h-1zm1 1h1v1h-1zm-16 1h1v1h-1zm17 0h1v1h-1zm-19 2h1v1h-1zm-5 3h1v1h-1zm-2 1h1v1H9zm47 0h1v1h-1zm-23 1h1v1h-1zm-13 1h1v1h-1zm7 1h1v1h-1zm15 0h1v1h-1zm-23 1h1v1h-1zm9 0h1v1h-1zm1 2h1v1h-1zm-3 2h1v1h-1zm16 3h1v1h-1zm-25 2h1v1h-1zm17 0h1v1h-1zm-15 2h1v1h-1z"/><path fill="#042" d="M23 27h1v1h-1zm1 0h1v1h-1zm1 0h1v1h-1zm17 1h1v1h-1zm1 0h1v1h-1zm-14 1h1v1h-1zm12 0h1v1h-1zm-13 1h1v1h-1zm12 0h1v1h-1zm-13 2h1v1h-1zm19 0h1v1h-1zm1 0h1v1h-1zm-23 4h1v1h-1zm-1 1h1v1h-1zm-1 1h1v1h-1zm0 1h1v1h-1zm22 2h1v1h-1zm-2 1h1v1h-1zm3 0h1v1h-1zm-4 1h1v1h-1zm5 0h1v1h-1zm-6 1h1v1h-1zm7 0h1v1h-1zm-14 1h1v1h-1zm1 0h1v1h-1zm1 0h1v1h-1zm4 0h1v1h-1zm9 0h1v1h-1zm1 0h1v1h-1zm-18 1h1v1h-1zm1 0h1v1h-1zm1 0h1v1h-1zm16 0h1v1h-1zm1 0h1v1h-1zm-35 1h1v1h-1zm3 0h1v1h-1zm11 0h1v1h-1zm1 0h1v1h-1zm20 0h1v1h-1zm1 0h1v1h-1zm-38 1h1v1h-1zm1 0h1v1h-1zm4 0h1v1h-1zm33 0h1v1h-1zm1 0h1v1h-1zm-40 1h1v1h-1zm40 0h1v1h-1zm1 0h1v1h-1zm1 1h1v1h-1zm1 1h1v1h-1zm1 0h1v1h-1zm1 1h1v1h-1zm-15 1h1v1h-1zm4 0h4v1h-4zm4 0h1v1h-1zm8 0h1v1h-1zm-18 1h1v1h-1zm-1 1h1v1h-1zm-19 1h1v1h-1zm18 0h1v1h-1zm-9 1h1v1h-1zm1 0h1v1h-1zm-2 1h1v1h-1zm-1 1h1v1h-1zm-1 1h1v1h-1zm-3 7h1v1h-1zm24 0h1v1h-1zm1 0h1v1h-1zm-27 1h1v1h-1zm1 0h1v1h-1zm-1 1h1v1h-1z"/><path fill="#074" d="M26 30h1v1h-1zM16 57h1v1h-1z"/><path fill="#475" d="M29 30h1v1h-1zM16 47h1v1h-1zm7 21h1v1h-1zm22 0h1v1h-1zm-24 2h1v1h-1z"/><path fill="#798" d="M41 30h1v1h-1zm7 2h1v1h-1zM38 45h1v1h-1zm-25 4h1v1h-1zm44 4h1v1h-1zm-19 5h1v1h-1zm-24 2h1v1h-1zm18 7h1v1h-1zm18 1h1v1h-1z"/><path fill="#6a8" d="M31 22h1v1h-1zm-5 3h1v1h-1zm-6 1h1v1h-1zm23 0h1v1h-1zm-6 5h1v1h-1zm-20 2h1v1h-1zm4 2h1v1h-1zm1 0h1v1h-1zm23 4h1v1h-1zm-27 2h1v1h-1zm30 0h1v1h-1zm-31 2h1v1h-1zm10 0h1v1h-1zm24 0h1v1h-1zm-35 1h1v1h-1zm3 0h1v1h-1zm6 0h1v1h-1zm27 0h1v1h-1zm-29 1h1v1h-1zm30 0h1v1h-1zm-41 2h1v1h-1zm24 0h1v1h-1zm3 1h1v1h-1zm-14 3h1v1h-1zm20 0h1v1h-1zm1 0h1v1h-1zm1 0h1v1h-1zm1 0h1v1h-1zm1 0h1v1h-1zm-13 2h1v1h-1zm-6 2h1v1h-1zm5 4h1v1h-1zm-13 5h1v1h-1zm25 0h1v1h-1zm-28 2h1v1h-1z"/><path fill="#275" d="M31 23h1v1h-1zm5 9h1v1h-1zm1 0h1v1h-1zm8 8h1v1h-1zm-13 1h1v1h-1zm-1 2h1v1h-1zm2 0h1v1h-1zm1 0h1v1h-1zm5 0h1v1h-1zm-8 1h1v1h-1zm-14 1h1v1h-1zm3 1h1v1h-1zm9 0h1v1h-1zm-8 1h1v1h-1zm15 1h1v1h-1zm-17 3h1v1h-1zm14 0h1v1h-1zm25 0h1v1h-1zm-35 1h1v1h-1zm10 3h1v1h-1zm-19 3h1v1h-1zm4 5h1v1h-1zm10 5h1v1h-1z"/><path fill="#bcc" d="M20 27h1v1h-1zm5 1h1v1h-1zm-7 21h1v1h-1zm18 1h1v1h-1zm13 4h1v1h-1zm-9 1h1v1h-1zm-5 1h1v1h-1zm-3 1h1v1h-1z"/><path fill="#576" d="M44 42h1v1h-1zm10 9h1v1h-1z"/><path fill="#365" d="M42 43h1v1h-1zM21 56h1v1h-1zm10 1h1v1h-1zm-3 2h1v1h-1zm5 7h1v1h-1zm-11 3h1v1h-1z"/><path fill="#143" d="M45 53h1v1h-1zm4 15h1v1h-1z"/><path fill="#777" d="M0 84h1v1H0zm65 0h1v1h-1zM0 85h1v1H0zm65 0h1v1h-1zM0 86h1v1H0zm65 0h1v1h-1zM0 87h1v1H0zm65 0h1v1h-1z"/><path fill="#bbb" d="M0 1h1v1H0zm1 0h1v1H1zm63 0h1v1h-1zm1 0h1v1h-1zM1 85h1v1H1zm63 0h1v1h-1zM2 86h1v1H2zm1 0h1v1H3zm59 0h1v1h-1zm1 0h1v1h-1z"/><path fill="#ced" d="M27 23h1v1h-1zm17 3h1v1h-1zm-6 3h1v1h-1zm8 9h1v1h-1zm-20 4h1v1h-1zm31 6h1v1h-1zm-38 2h1v1h-1zm-1 1h1v1h-1zm23 9h1v1h-1z"/><path fill="#174" d="M30 24h1v1h-1zm-1 1h1v1h-1zm-4 1h1v1h-1zm15 1h1v1h-1zm1 0h1v1h-1zm3 0h1v1h-1zm-5 2h1v1h-1zm-13 2h1v1h-1zm20 0h1v1h-1zm-8 2h1v1h-1zm-20 1h1v1h-1zm16 0h1v1h-1zm0 2h1v1h-1zm0 1h1v1h-1zm0 1h1v1h-1zm8 0h1v1h-1zm-8 2h1v1h-1zm-4 5h1v1h-1zm21 0h1v1h-1zm1 1h1v1h-1zm1 1h1v1h-1zm1 1h1v1h-1zm-34 4h1v1h-1zm39 0h1v1h-1zm-38 1h1v1h-1zm16 1h1v1h-1zm-10 2h1v1h-1zm8 5h1v1h-1zm8 0h1v1h-1zm-20 1h1v1h-1zm10 2h1v1h-1zm13 0h1v1h-1zm-23 1h1v1h-1zm9 0h1v1h-1zm-10 1h1v1h-1z"/><path fill="#153" d="M28 31h1v1h-1zm16 2h1v1h-1zm-26 2h1v1h-1zm1 1h1v1h-1zm20 1h1v1h-1zm-16 1h1v1h-1zm17 0h1v1h-1zm-20 4h1v1h-1zm-3 5h1v1h-1zm36 3h1v1h-1zm3 2h1v1h-1zm-5 1h1v1h-1zm-22 5h1v1h-1zm19 10h1v1h-1z"/><path fill="#bcb" d="M28 32h1v1h-1zm-11 3h1v1h-1zm18 15h1v1h-1z"/><path fill="#8a9" d="M46 33h1v1h-1zm-24 7h1v1h-1zm10 7h1v1h-1zm-17 1h1v1h-1zm5 0h1v1h-1zm5 5h1v1h-1zm16 1h1v1h-1z"/><path fill="#7a8" d="M28 24h1v1h-1zm12 1h1v1h-1zm1 1h1v1h-1zm1 0h1v1h-1zm-8 7h1v1h-1zm-1 3h1v1h-1zm17 6h1v1h-1zm0 6h1v1h-1zM7 51h1v1H7zm19 2h1v1h-1zm8 1h1v1h-1zm9 8h1v1h-1zm-11 2h1v1h-1zm-6 6h1v1h-1z"/><path fill="#164" d="M21 27h1v1h-1zm14 9h1v1h-1zm1 21h1v1h-1zm-9 12h1v1h-1z"/><path fill="#375" d="M31 29h1v1h-1zm14 4h1v1h-1zm-9 1h1v1h-1zm-1 3h1v1h-1zm-14 4h1v1h-1zm-11 9h1v1h-1zm8 7h1v1h-1zm18 5h1v1h-1zm9 2h1v1h-1z"/><path fill="#163" d="M39 46h1v1h-1zm-5 4h1v1h-1zm11 17h1v1h-1z"/><path fill="#cdc" d="M34 23h1v1h-1zm6 1h1v1h-1zm3 5h1v1h-1zM23 39h1v1h-1zm13 3h1v1h-1zm-7 3h1v1h-1zm6 1h1v1h-1zm-13 5h1v1h-1zm29 0h1v1h-1zm-29 8h1v1h-1zm3 6h1v1h-1zm20 1h1v1h-1z"/><path fill="#264" d="M26 34h1v1h-1zm15 10h1v1h-1zm-5 1h1v1h-1zM22 56h1v1h-1zm11 0h1v1h-1zm1 9h1v1h-1zm-14 3h1v1h-1z"/><path fill="#274" d="M43 39h1v1h-1zm-11 1h1v1h-1zm18 4h1v1h-1zm-32 1h1v1h-1zm17 3h1v1h-1zM24 58h1v1h-1z"/><path fill="#999" d="M0 3h1v1H0zm65 0h1v1h-1zM0 4h1v1H0zm65 0h1v1h-1zM3 88h1v1H3zm59 0h1v1h-1z"/><path fill="#052" d="M33 23h1v1h-1zm-1 1h1v1h-1zm-1 1h1v1h-1zm-9 2h1v1h-1zm4 0h1v1h-1zm1 0h1v1h-1zm1 1h1v1h-1zm1 0h1v1h-1zm1 0h1v1h-1zm1 0h1v1h-1zm10 0h1v1h-1zm-13 1h1v1h-1zm4 0h1v1h-1zm8 0h1v1h-1zm-13 2h1v1h-1zm21 0h1v1h-1zm-3 1h1v1h-1zm-19 1h1v1h-1zm9 0h1v1h-1zm-10 1h1v1h-1zm10 0h1v1h-1zm2 0h1v1h-1zm-18 1h1v1h-1zm6 0h1v1h-1zm13 0h1v1h-1zm-18 1h1v1h-1zm19 0h1v1h-1zm-18 1h1v1h-1zm1 0h1v1h-1zm18 0h1v1h-1zm-19 1h1v1h-1zm20 0h1v1h-1zm-20 1h1v1h-1zm0 1h1v1h-1zm-1 1h1v1h-1zm23 0h1v1h-1zm2 0h1v1h-1zm1 1h1v1h-1zm1 1h1v1h-1zm-13 1h1v1h-1zm1 0h1v1h-1zm3 0h1v1h-1zm1 0h1v1h-1zm9 0h1v1h-1zm-22 1h1v1h-1zm6 0h1v1h-1zm-16 1h1v1h-1zm1 0h1v1h-1zm8 0h1v1h-1zm5 0h1v1h-1zm-16 1h1v1h-1zm5 0h1v1h-1zm1 0h1v1h-1zm4 0h1v1h-1zm1 0h1v1h-1zm27 0h1v1h-1zm-29 1h1v1h-1zm1 0h1v1h-1zm29 0h1v1h-1zm-42 1h1v1h-1zm43 0h1v1h-1zM9 50h1v1H9zm28 0h1v1h-1zm18 0h1v1h-1zm-10 2h1v1h-1zm1 0h2v1h-2zm2 0h1v1h-1zm10 0h1v1h-1zm-17 1h1v1h-1zm18 0h1v1h-1zm-36 1h1v1h-1zm16 0h1v1h-1zm21 0h1v1h-1zm-40 1h1v1h-1zm1 0h1v1h-1zm1 0h1v1h-1zm1 0h1v1h-1zm14 0h1v1h-1zm1 0h1v1h-1zm-19 1h1v1h-1zm12 0h1v1h-1zm1 0h1v1h-1zm5 0h1v2h-1zm-9 1h1v1h-1zm10 0h1v1h-1zm-11 1h1v1h-1zm10 0h1v1h-1zm-11 1h1v1h-1zm10 2h1v1h-1zm-1 2h1v1h-1zm-1 1h1v1h-1zm-1 1h1v1h-1zm-1 1h1v1h-1zm-12 1h1v1h-1zm1 0h1v1h-1zm1 0h1v1h-1zm9 0h1v1h-1zm15 0h1v1h-1zm3 0h1v1h-1z"/><path fill="#ccc" d="M1 0h1v1H1zm1 0h1v1H2zm61 0h1v1h-1zm1 0h1v1h-1zM1 2h1v1H1zm63 0h1v1h-1zM1 84h1v1H1zm63 0h1v1h-1zM2 85h1v1H2zm61 0h1v1h-1zM4 86h1v1H4zm1 0h1v1H5zm1 0h1v1H6zm1 0h52v1H7zm52 0h1v1h-1zm1 0h1v1h-1zm1 0h1v1h-1z"/><path fill="#5a7" d="M19 34h1v1h-1z"/><path fill="#9aa" d="M19 57h1v1h-1z"/><path fill="#cdd" d="M30 21h1v1h-1zm-8 7h1v1h-1zm11 0h1v1h-1zm3 2h1v1h-1zm7 6h1v1h-1zm-24 1h1v1h-1zm21 2h1v1h-1zm-29 8h1v1h-1zm17 0h1v1h-1zm7 6h1v1h-1zm17 0h1v1h-1zm-4 1h1v1h-1zm2 0h1v1h-1zm10 1h1v1h-1zm-25 3h1v1h-1zm-10 3h1v2h-1zm12 0h1v1h-1zm-4 1h1v1h-1zm-8 1h1v1h-1zm-6 4h1v1h-1z"/><path fill="#063" d="M33 22h1v1h-1zm-2 2h1v1h-1zm-1 1h1v1h-1zm-4 1h1v1h-1zm1 0h2v1h-2zm2 0h1v1h-1zm1 0h1v1h-1zm-2 1h2v1h-2zm2 0h1v1h-1zm1 0h1v1h-1zm12 0h1v1h-1zm-11 1h1v1h-1zm8 0h1v1h-1zm-13 1h1v1h-1zm0 1h1v1h-1zm6 0h1v1h-1zm6 0h1v1h-1zm-5 1h1v1h-1zm13 0h1v1h-1zm2 0h1v1h-1zm-23 1h1v1h-1zm9 0h1v1h-1zm-10 1h1v1h-1zm12 0h1v1h-1zm1 1h1v1h-1zm-14 1h1v1h-1zm10 0h1v1h-1zm5 0h1v1h-1zm-18 1h1v1h-1zm1 0h1v1h-1zm18 0h1v1h-1zm1 1h1v1h-1zm-21 2h1v1h-1zm14 0h1v1h-1zm7 0h1v1h-1zm1 0h1v1h-1zm-22 1h1v1h-1zm22 0h1v1h-1zm1 0h1v1h-1zm1 0h1v1h-1zm2 1h1v1h-1zm-27 1h1v1h-1zm22 0h1v1h-1zm6 0h1v1h-1zm-28 1h1v1h-1zm21 0h1v1h-1zm8 0h1v1h-1zm-16 1h1v1h-1zm1 0h1v1h-1zm4 0h1v1h-1zm12 0h1v1h-1zm-24 1h1v1h-1zm6 0h1v1h-1zm-16 1h1v1h-1zm3 0h1v1h-1zm1 0h1v1h-1zm19 0h1v1h-1zm0 1h1v1h-1zm-26 1h1v1h-1zm26 0h1v1h-1zm-28 1h1v1h-1zm12 0h1v1h-1zm1 0h1v1h-1zm11 0h1v1h-1zm1 0h1v1h-1zm2 0h1v1h-1zm1 0h1v1h-1zm1 0h1v1h-1zm16 0h1v1h-1zM8 50h1v1H8zm30 0h1v1h-1zm18 0h1v1h-1zm-19 1h1v1h-1zm20 0h1v1h-1zm-38 1h1v1h-1zm5 0h1v1h-1zm1 0h1v1h-1zm1 0h1v1h-1zm17 0h1v1h-1zm1 0h1v1h-1zm5 0h1v1h-1zm1 0h1v1h-1zm1 0h1v1h-1zm-31 1h1v1h-1zm2 0h1v1h-1zm1 0h1v1h-1zm4 0h1v1h-1zm12 0h1v1h-1zm1 0h1v1h-1zm-20 1h1v1h-1zm1 0h1v1h-1zm17 0h1v1h-1zm-19 1h1v1h-1zm8 0h1v1h-1zm7 0h1v1h-1zm1 0h1v1h-1zm-17 1h1v1h-1zm11 0h1v1h-1zm-6 1h1v1h-1zm4 0h1v1h-1zm-4 1h1v1h-1zm3 0h1v1h-1zm10 0h1v1h-1zm-13 1h1v1h-1zm1 0h1v1h-1zm12 0h1v1h-1zm-13 1h1v1h-1zm1 0h1v1h-1zm12 0h1v1h-1zm-13 1h1v1h-1zm1 0h1v1h-1zm0 1h1v1h-1zm11 0h1v1h-1zm9 0h1v1h-1zm-20 1h1v1h-1zm21 0h1v1h-1zm-21 1h1v1h-1zm-5 1h1v1h-1zm27 0h1v1h-1zm-26 1h1v1h-1zm11 0h1v1h-1zm16 0h1v1h-1zm1 0h1v1h-1zm1 0h1v1h-1zm-19 1h1v1h-1z"/><path fill="#9cb" d="M47 39h1v1h-1zm-31 4h1v1h-1zm31 7h1v1h-1zm-18 2h1v1h-1zM9 60h1v1H9zm33 1h1v1h-1z"/><path fill="#697" d="M49 47h1v1h-1zm-22 7h1v1h-1zm3 14h1v1h-1zm14 0h1v1h-1z"/><path fill="#597" d="M33 21h1v1h-1zm-3 2h1v1h-1zm-1 1h1v1h-1zm-2 1h1v1h-1zm-6 1h1v1h-1zm13 4h1v1h-1zm4 0h1v1h-1zm10 0h1v1h-1zm-13 1h1v1h-1zm4 0h1v1h-1zm0 2h1v1h-1zm-23 1h1v1h-1zm24 1h1v1h-1zm1 1h1v1h-1zm1 1h1v1h-1zm1 1h1v1h-1zm-11 1h1v1h-1zm14 1h1v1h-1zm-6 2h1v1h-1zm-4 1h1v1h-1zm1 0h1v1h-1zm13 0h1v1h-1zm-33 1h1v1h-1zm34 0h1v1h-1zm-36 1h1v1h-1zm8 1h1v1h-1zm31 0h1v1h-1zm1 1h1v1h-1zm-33 1h1v1h-1zm34 0h1v1h-1zm1 1h1v1h-1zM7 50h1v1H7zm17 1h1v1h-1zm-6 1h1v1h-1zm10 0h1v1h-1zm11 0h1v1h-1zm1 0h1v1h-1zm1 0h1v1h-1zm-12 1h1v1h-1zm0 1h1v1h-1zm-12 2h1v1h-1zm7 1h1v1h-1zm-13 2h1v1h-1zm26 1h1v1h-1zm7 1h1v1h-1zm-11 2h1v1h-1zm13 0h1v1h-1zm-26 2h1v1h-1zm28 0h1v1h-1zm1 0h1v1h-1zm1 1h1v1h-1zm-21 1h1v1h-1z"/><path fill="#9ca" d="M41 25h1v1h-1zm-17 7h1v1h-1zm7 9h1v1h-1zm-17 4h1v1h-1zm41 1h1v1h-1zm-32 5h1v1h-1zm20 0h1v1h-1zm-25 4h1v1h-1zm4 7h1v1h-1zm24 0h1v1h-1z"/><path fill="#496" d="M26 29h1v1h-1zm7 0h1v1h-1zm16 1h1v1h-1zm-10 4h1v1h-1zm-20 6h1v1h-1zm28 1h1v1h-1zm-16 1h1v1h-1zm7 1h1v1h-1zm15 3h1v1h-1zm1 1h1v1h-1zm1 1h1v1h-1zm-34 1h1v2h-1zm1 3h1v1h-1zm15 1h1v1h-1zm-25 6h1v1h-1zm35 6h1v1h-1z"/><path fill="#254" d="M42 29h1v1h-1zm-4 7h1v1h-1zm6 17h1v1h-1zm3 15h1v1h-1z"/><path fill="#687" d="M34 46h1v1h-1zm-17 2h1v1h-1zm22 8h1v1h-1z"/><path fill="#9ba" d="M33 20h1v1h-1zM23 34h1v1h-1zm2 2h1v1h-1zm13 6h1v1h-1zm14 1h1v1h-1zm-1 6h1v1h-1zm-40 1h1v1h-1zm11 7h1v1h-1zm-6 1h1v1h-1zm4 11h1v1h-1z"/><path fill="#acb" d="M34 20h1v1h-1zm-5 2h1v1h-1zm-3 2h1v1h-1zm-2 1h1v1h-1zm15 1h1v1h-1zm0 1h1v1h-1zm-16 1h2v1h-2zm3 0h1v1h-1zm9 2h1v1h-1zm2 0h1v1h-1zm13 1h1v1h-1zm-35 2h1v1h-1zm4 0h1v1h-1zm2 1h1v1h-1zm23 3h1v1h-1zm-12 1h1v1h-1zm-13 1h1v1h-1zm16 2h1v1h-1zm2 1h1v1h-1zm14 0h1v1h-1zm-31 1h1v1h-1zm5 0h1v1h-1zm-10 1h1v1h-1zm6 1h1v1h-1zm16 1h1v1h-1zm19 1h1v1h-1zm-31 1h1v1h-1zm5 0h1v1h-1zm-6 1h1v1h-1zm1 1h1v1h-1zm1 0h1v1h-1zm22 0h1v1h-1zM5 51h1v1H5zm3 0h1v1H8zm20 0h1v1h-1zm24 1h1v1h-1zm3 0h1v1h-1zm-31 2h1v1h-1zm6 0h1v1h-1zm0 4h1v1h-1zm-20 2h1v1h-1zm6 0h1v1h-1zm29 1h1v1h-1zm-26 2h1v1h-1zm7 6h1v1h-1z"/><path fill="#486" d="M34 22h1v1h-1zm-12 4h1v1h-1zm10 4h1v1h-1zm1 1h1v1h-1zm1 1h1v1h-1zm-11 3h1v1h-1zm12 3h1v1h-1zm-8 6h1v1h-1zm-3 1h1v1h-1zM6 51h1v1H6zm30 5h1v1h-1zm-21 2h1v1h-1zm0 2h1v1h-1z"/><g fill="#fff"><path d="M4 1h1v1H4zm1 0h1v1H5zm1 0h54v1H6zm54 0h1v1h-1zm1 0h1v1h-1zM3 2h1v1H3zm1 0h1v1H4zm1 0h56v1H5zm56 0h1v1h-1zm1 0h1v1h-1zM2 3h1v1H2zm1 0h1v1H3zm1 0h2v1H4zm2 0h54v1H6zm54 0h2v1h-2zm2 0h1v1h-1zm1 0h1v1h-1zM2 4h1v2H2zm1 0h1v3H3zm1 0h1v1H4zm1 0h56v16H5zm56 0h1v1h-1zm1 0h1v3h-1zm1 0h1v2h-1z"/><path d="M4 5h58v2H4zM3 7h1v1H3zm1 0h1v1H4zm57 0h1v1h-1zm1 0h1v1h-1zM3 8h1v73H3zm1 0h1v73H4zm57 0h1v46h-1zm1 0h1v73h-1zM5 20h26v1H5zm30 0h26v3H35zM5 21h25v1H5zm0 1h23v1H5zm23 0h1v1h-1zM5 23h21v1H5zm21 0h1v1h-1zm9 0h3v7h-3zm3 0h1v2h-1zm1 0h1v1h-1zm1 0h21v1H40zM5 24h20v1H5z"/><path d="M34 24h4v5h-4zm7 0h1v1h-1zm1 0h19v1H42zM5 25h17v1H5zm17 0h1v1h-1zm16 0h1v4h-1zm5 0h1v1h-1zm1 0h17v1H44zM5 26h14v6H5z"/><path d="M33 26h6v2h-6zm12 0h16v3H45zm-26 1h1v6h-1zm1 1h1v5h-1zm1 0h1v1h-1zm0 1h5v1h-5zm23 0h2v1h-2zm5 0h1v1h-1zm1 0h11v1H50zm-29 1h4v1h-4zm9 0h1v1h-1zm1 0h1v1h-1zm11 0h1v1h-1zm1 0h2v1h-2zm8 0h10v11H51zm-30 1h3v2h-3zm3 0h1v1h-1zm6 0h2v9h-2zm2 0h1v1h-1zm9 0h3v1h-3zm3 0h1v1h-1zM5 32h12v1H5zm12 0h1v1h-1zm1 0h1v1h-1z"/><path d="M29 32h4v5h-4zm4 0h1v1h-1zm6 0h1v1h-1zm1 0h3v1h-3zm3 0h1v1h-1zm7 0h11v9H50zM5 33h10v11H5zm16 0h1v1h-1zm1 0h1v1h-1z"/><path d="M28 33h6v1h-6zm12 0h1v1h-1zm1 0h1v1h-1zm6 0h1v1h-1zm1 0h13v6H48zm-21 1h1v1h-1zm1 0h5v3h-5zm5 0h1v1h-1zm8 0h1v1h-1zm1 0h1v1h-1zm1 0h1v1h-1z"/><path d="M44 34h17v2H44zm-29 1h2v7h-2zm12 0h6v2h-6z"/><path d="M43 35h18v1H43zm-26 1h1v5h-1zm9 0h7v1h-7zm10 0h1v6h-1zm8 0h1v1h-1zm1 0h16v1H45zm-27 1h1v3h-1zm7 0h7v3h-7zm7 0h1v1h-1zm5 0h1v5h-1zm9 0h15v1H46zm-27 1h1v1h-1zm19 0h1v3h-1zm9 0h1v1h-1z"/><path d="M24 39h8v1h-8zm15 0h1v2h-1zm10 0h12v1H49zm-26 1h8v2h-8zm17 0h1v1h-1zm-23 1h1v1h-1zm5 0h1v1h-1zm29 0h1v1h-1zm1 0h9v1h-9zm-37 1h1v1h-1zm1 0h1v1h-1zm6 0h3v1h-3zm3 0h1v1h-1zm3 0h3v1h-3zm24 0h1v1h-1zm1 0h8v1h-8zm-38 1h1v1h-1zm6 0h3v1h-3zm7 0h2v2h-2zm15 0h1v1h-1zm1 0h1v1h-1zm9 0h1v1h-1zm1 0h7v1h-7zM5 44h9v1H5zm9 0h1v1h-1zm6 0h2v1h-2zm2 0h1v1h-1zm21 0h2v6h-2zm2 0h1v1h-1zm9 0h1v1h-1zm1 0h6v1h-6zM5 45h8v1H5zm8 0h1v1h-1zm15 0h1v1h-1z"/><path d="M42 45h4v5h-4zm4 0h1v1h-1zm9 0h1v1h-1zm1 0h5v1h-5zM5 46h7v1H5zm22 0h1v4h-1zm1 0h1v1h-1zm8 0h1v1h-1z"/><path d="M41 46h6v3h-6zm6 0h1v1h-1zm9 0h1v1h-1zm1 0h4v2h-4zM5 47h5v1H5zm5 0h1v1h-1zm24 0h1v1h-1z"/><path d="M40 47h8v2h-8zm8 0h1v1h-1zM5 48h4v1H5zm4 0h1v1H9zm7 0h1v1h-1zm5 0h1v1h-1zm5 0h2v2h-2zm5 0h1v1h-1zm1 0h2v1h-2zm16 0h1v1h-1zm1 0h1v1h-1zm9 0h3v1h-3zM5 49h3v1H5zm10 0h2v7h-2zm2 0h1v1h-1zm2 0h1v1h-1z"/><path d="M25 49h8v1h-8zm15 0h1v1h-1zm1 0h5v1h-5zm7 0h1v1h-1zm1 0h2v1h-2zm10 0h2v1h-2zM5 50h1v1H5zm7 0h1v1h-1zm1 0h6v1h-6zm15 0h5v1h-5zm12 0h4v1h-4zm4 0h1v1h-1zm6 0h1v1h-1zm1 0h1v1h-1zm8 0h1v1h-1zm1 0h1v2h-1zm-50 1h8v4h-8zm19 0h1v1h-1zm1 0h2v2h-2zm5 0h1v2h-1zm17 0h1v1h-1zM5 52h1v1H5z"/><path d="M6 52h12v3H6zm27 0h1v1h-1zm1 0h2v1h-2zm19 0h2v32h-2z"/><path d="M5 53h13v2H5zm26 0h3v1h-3zm3 0h1v1h-1zm21 0h1v31h-1zm1 0h1v1h-1zm-38 1h1v1h-1zm7 0h2v1h-2zm6 0h1v1h-1zm11 0h1v1h-1zm1 0h3v5h-3zm3 0h1v1h-1zm5 0h1v1h-1z"/><path d="M52 54h6v30h-6zM5 55h12v1H5zm12 0h1v1h-1zm8 0h1v2h-1z"/><path d="M41 55h19v4H41zM5 56h11v1H5z"/><path d="M40 56h21v3H40zm21 0h1v26h-1zM5 57h9v1H5zm16 0h1v8h-1zm4 0h1v1h-1zm8 0h2v3h-2zm2 0h1v1h-1zM5 58h7v1H5z"/><path d="M18 58h4v3h-4zm13 0h4v2h-4zm8 0h22v1H39zM5 59h4v23H5zm4 0h1v1H9z"/><path d="M15 59h7v1h-7zm15 0h5v1h-5zm9 0h2v25h-2zm4 0h1v1h-1zm1 0h17v1H44zm-33 1h1v1h-1zm1 0h1v24h-1zm5 0h5v1h-5zm11 0h1v1h-1zm1 0h5v2h-5z"/><path d="M38 60h3v24h-3zm7 0h16v1H45zM9 61h6v23H9zm9 0h1v1h-1zm1 0h3v1h-3zm8 0h1v1h-1zm1 0h6v1h-6zm13 0h1v23h-1zm5 0h1v1h-1zm1 0h14v1H47zm-32 1h1v22h-1zm1 0h1v1h-1zm3 0h1v1h-1zm1 0h2v2h-2zm6 0h1v1h-1zm1 0h6v1h-6z"/><path d="M37 62h6v22h-6zm10 0h1v1h-1zm1 0h13v1H48zm-32 1h1v21h-1zm10 0h6v1h-6zm17 0h1v1h-1zm6 0h12v1H49zm-32 1h1v20h-1zm9 0h5v1h-5zm5 0h1v1h-1z"/><path d="M36 64h8v4h-8zm8 0h1v1h-1zm6 0h11v1H50zm-24 1h4v1h-4zm4 0h1v1h-1zm5 0h1v1h-1zm9 0h1v2h-1zm7 0h10v17H51zm-33 1h1v18h-1zm8 0h3v1h-3zm3 0h1v1h-1z"/><path d="M35 66h10v1H35zm-10 1h3v1h-3zm3 0h1v1h-1zm5 0h1v1h-1zm1 0h10v1H34zm-15 1h1v16h-1zm5 0h1v1h-1zm1 0h2v1h-2zm7 0h11v16H32zm11 0h1v1h-1zm-20 1h1v1h-1zm1 0h2v1h-2z"/><path d="M30 69h31v13H30zm-10 1h1v1h-1zm2 0h1v1h-1zm1 0h1v14h-1zm1 0h1v1h-1z"/><path d="M28 70h33v12H28z"/><path d="M20 71h41v11H20zM3 81h1v1H3zm1 0h1v2H4zm58 0h1v1h-1zM3 82h1v1H3zm2 0h1v1H5zm1 0h54v1H6zm54 0h1v1h-1zm1 0h1v1h-1zm1 0h1v1h-1zM3 83h1v1H3zm1 0h1v1H4zm1 0h1v1H5zm1 0h1v1H6zm1 0h52v1H7zm52 0h1v1h-1zm1 0h1v1h-1zm1 0h1v1h-1zm1 0h1v1h-1zM5 84h1v1H5zm1 0h1v1H6zm1 0h1v1H7zm1 0h50v1H8zm50 0h1v1h-1zm1 0h1v1h-1zm1 0h1v1h-1z"/></g><path fill="#efe" d="M31 20h1v1h-1zm-12 6h1v1h-1zm30 6h1v1h-1zm-18 8h1v1h-1zm7 1h1v1h-1zm-14 2h1v1h-1zm18 1h1v1h-1zm-30 2h1v1h-1zm8 3h1v1h-1zM6 50h1v1H6zm3 1h1v1H9zm23 1h1v1h-1zm0 2h1v1h-1zm-18 3h1v1h-1zm3 1h1v1h-1zm-3 1h1v1h-1zm-1 1h1v1h-1zm21 0h1v1h-1zm-2 3h1v1h-1zm-7 3h1v1h-1zm9 0h1v1h-1z"/><path fill="#364" d="M37 35h1v1h-1zm9 33h1v1h-1z"/><path fill="#eff" d="M42 33h1v1h-1zm-6 2h1v1h-1zm9 2h1v1h-1zm-21 1h1v1h-1zm24 1h1v1h-1zm-15 8h1v1h-1zm25 2h1v1h-1zm2 3h1v1h-1zM48 63h1v1h-1zm-30 2h1v1h-1z"/><path fill="#476" d="M43 42h1v1h-1zm-17 4h1v1h-1zm1 14h1v1h-1zm-1 1h1v1h-1z"/><path fill="#666" d="M0 88h1v1H0zm1 0h1v1H1zm63 0h1v1h-1zm1 0h1v1h-1zM1 89h1v1H1zm1 0h1v1H2zm1 0h1v1H3zm1 0h58v1H4zm58 0h1v1h-1zm1 0h1v1h-1zm1 0h1v1h-1z"/><path fill="#eee" d="M3 1h1v1H3zm59 0h1v1h-1zM2 2h1v1H2zm61 0h1v1h-1zM1 3h1v1H1zm63 0h1v1h-1zM1 4h1v1H1zm63 0h1v1h-1zM1 5h1v1H1zm63 0h1v1h-1zM2 6h1v1H2zm61 0h1v1h-1zM2 7h1v1H2zm61 0h1v1h-1zM2 8h1v74H2zm61 0h1v74h-1zM33 25h1v1h-1zm12 5h1v1h-1zm-16 1h1v1h-1zm-6 2h1v1h-1zm-8 1h1v1h-1zm7 0h1v1h-1zm20 1h1v1h-1zm-5 1h1v1h-1zm1 1h1v1h-1zm-20 3h1v1h-1zm3 2h1v1h-1zm20 3h1v1h-1zm-27 4h1v1h-1zm25 2h1v1h-1zm1 0h1v1h-1zm13 0h1v1h-1zm-6 3h1v1h-1zm-27 3h1v1h-1zm19 0h1v1h-1zm-27 1h1v1h-1zm17 1h1v1h-1zm9 0h1v1h-1zm4 0h1v1h-1zm-25 4h1v1h-1zm32 1h1v1h-1zm1 1h1v1h-1zm-19 3h1v1h-1zm-2 1h1v1h-1zm-2 1h1v1h-1zM2 82h1v1H2zm61 0h1v1h-1zM2 83h1v1H2zm61 0h1v1h-1zM3 84h1v1H3zm1 0h1v1H4zm57 0h1v1h-1zm1 0h1v1h-1zM9 85h48v1H9z"/><path fill="#aaa" d="M0 2h1v1H0zm65 0h1v1h-1zM1 86h1v1H1zm63 0h1v1h-1zM2 87h1v1H2zm1 0h1v1H3zm1 0h1v1H4zm1 0h56v1H5zm56 0h1v1h-1zm1 0h1v1h-1zm1 0h1v1h-1zM4 88h1v1H4zm1 0h56v1H5zm56 0h1v1h-1z"/><path fill="#8b9" d="M27 24h1v1h-1zm12 1h1v1h-1zm5 3h1v1h-1zm-24 6h1v1h-1zm20 0h1v1h-1zm1 1h1v1h-1zm0 5h1v1h-1zm7 0h1v1h-1zm-24 4h1v1h-1zm-5 1h1v1h-1zm-6 1h1v1h-1zm26 4h1v1h-1zm5 1h1v1h-1zm-18 5h1v1h-1zm-4 7h1v1h-1z"/><path fill="#ddd" d="M3 0h1v1H3zm1 0h1v1H4zm1 0h56v1H5zm56 0h1v1h-1zm1 0h1v1h-1zM2 1h1v1H2zm61 0h1v1h-1zM1 6h1v1H1zm63 0h1v1h-1zM1 7h1v1H1zm63 0h1v1h-1zM1 8h1v1H1zm63 0h1v1h-1zM1 9h1v73H1zm63 0h1v73h-1zM18 36h1v1h-1zM1 82h1v1H1zm63 0h1v1h-1zM1 83h1v1H1zm63 0h1v1h-1zM2 84h1v1H2zm61 0h1v1h-1zM3 85h1v1H3zm1 0h1v1H4zm1 0h1v1H5zm1 0h1v1H6zm1 0h2v1H7zm50 0h2v1h-2zm2 0h1v1h-1zm1 0h1v1h-1zm1 0h1v1h-1zm1 0h1v1h-1z"/><path fill="#698" d="M27 33h1v1h-1zm8 6h1v1h-1zm25 14h1v1h-1zm1 2h1v1h-1zM28 69h1v1h-1z"/><path fill="#5a8" d="M49 42h1v1h-1z"/><path fill="#587" d="M23 47h1v1h-1zm6 1h1v1h-1zm6 16h1v1h-1z"/><path fill="#dee" d="M25 24h1v1h-1zm21 5h1v1h-1zm-6 2h1v1h-1zM30 43h1v1h-1zm10 3h1v1h-1zm-14 1h1v1h-1zm9 0h1v1h-1zm-7 1h1v1h-1zm19 1h1v1h-1zm-24 1h1v1h-1zm1 0h1v1h-1zm3 0h1v1h-1zm18 0h1v1h-1zm-13 1h1v1h-1zm2 0h1v1h-1zm2 0h1v1h-1zm-6 2h1v1h-1zm28 1h1v1h-1zm-32 1h1v1h-1zm-10 1h1v1h-1zm9 2h1v1h-1zm-10 3h1v1h-1zm5 3h1v1h-1zm25 1h1v1h-1zm-18 3h1v1h-1z"/><path fill="#7a9" d="M39 24h1v1h-1zm0 4h1v1h-1zm7 2h1v1h-1zm-10 1h1v1h-1zm6 5h1v1h-1zm2 2h1v1h-1zm3 2h1v1h-1zm-7 1h1v1h-1zm9 0h1v1h-1zm-19 3h1v1h-1zm-8 1h1v1h-1zm15 0h1v1h-1zm-11 6h1v1h-1zm5 4h1v1h-1zm-7 1h1v1h-1zm10 0h1v1h-1zm-4 10h1v1h-1zm-6 1h1v1h-1zm1 3h1v1h-1z"/><path fill="#497" d="M25 31h1v1h-1zm20 0h1v1h-1zm-29 2h1v1h-1zm8 0h1v1h-1zm20 6h1v1h-1zm-26 3h1v1h-1zm34 3h1v1h-1zm-38 1h1v1h-1zm6 4h1v1h-1zm2 0h1v1h-1zm-1 1h1v1h-1zm17 1h1v1h-1zm-3 2h1v1h-1zm-3 1h1v1h-1zm13 7h1v1h-1zm-23 3h1v1h-1z"/></svg>