<?xml version="1.0" encoding="UTF-8"?><svg xmlns="http://www.w3.org/2000/svg" version="1.2" baseProfile="tiny" viewBox="0 0 66 90" width="66px" height="90px"><g fill="#ddd"><rect x="3" width="1" height="1"/><rect width="1" height="1" x="4"/><rect height="1" x="5" width="56"/><rect width="1" height="1" x="61"/><rect x="62" width="1" height="1"/><rect height="1" x="2" y="1" width="1"/><rect height="1" x="63" y="1" width="1"/><rect width="1" height="1" x="1" y="6"/><rect x="64" y="6" width="1" height="1"/><rect x="1" y="7" width="1" height="1"/><rect height="1" x="64" y="7" width="1"/><rect x="1" y="8" width="1" height="1"/><rect height="1" x="64" y="8" width="1"/><rect width="1" height="73" x="1" y="9"/><rect y="9" width="1" height="73" x="64"/><rect width="1" height="1" x="1" y="82"/><rect x="64" y="82" width="1" height="1"/><rect x="1" y="83" width="1" height="1"/><rect width="1" height="1" x="64" y="83"/><rect height="1" x="2" y="84" width="1"/><rect x="63" y="84" width="1" height="1"/><rect x="3" y="85" width="1" height="1"/><rect y="85" width="1" height="1" x="4"/><rect width="1" height="1" x="5" y="85"/><rect width="1" height="1" x="6" y="85"/><rect height="1" x="7" y="85" width="2"/><rect x="57" y="85" width="2" height="1"/><rect x="59" y="85" width="1" height="1"/><rect width="1" height="1" x="60" y="85"/><rect x="61" y="85" width="1" height="1"/><rect x="62" y="85" width="1" height="1"/></g><g fill="#bbb"><rect width="1" height="1" y="1"/><rect x="1" y="1" width="1" height="1"/><rect height="1" x="64" y="1" width="1"/><rect height="1" x="65" y="1" width="1"/><rect y="85" width="1" height="1" x="1"/><rect x="64" y="85" width="1" height="1"/><rect height="1" x="2" y="86" width="1"/><rect height="1" x="3" y="86" width="1"/><rect x="62" y="86" width="1" height="1"/><rect x="63" y="86" width="1" height="1"/></g><g fill="#eee"><rect width="1" height="1" x="3" y="1"/><rect width="1" height="1" x="62" y="1"/><rect height="1" x="2" y="2" width="1"/><rect x="63" y="2" width="1" height="1"/><rect y="3" width="1" height="1" x="1"/><rect height="1" x="64" y="3" width="1"/><rect y="4" width="1" height="1" x="1"/><rect x="64" y="4" width="1" height="1"/><rect x="1" y="5" width="1" height="1"/><rect x="64" y="5" width="1" height="1"/><rect height="1" x="2" y="6" width="1"/><rect y="6" width="1" height="1" x="63"/><rect x="2" y="7" width="1" height="1"/><rect height="1" x="63" y="7" width="1"/><rect width="1" height="74" x="2" y="8"/><rect height="74" x="63" y="8" width="1"/><rect x="2" y="82" width="1" height="1"/><rect x="63" y="82" width="1" height="1"/><rect y="83" width="1" height="1" x="2"/><rect width="1" height="1" x="63" y="83"/><rect x="3" y="84" width="1" height="1"/><rect x="4" y="84" width="1" height="1"/><rect x="61" y="84" width="1" height="1"/><rect height="1" x="62" y="84" width="1"/><rect width="48" height="1" x="9" y="85"/></g><g fill="#fff"><rect x="4" y="1" width="1" height="1"/><rect width="1" height="1" x="5" y="1"/><rect x="6" y="1" width="54" height="1"/><rect y="1" width="1" height="1" x="60"/><rect x="61" y="1" width="1" height="1"/><rect x="3" y="2" width="1" height="1"/><rect x="4" y="2" width="1" height="1"/><rect x="5" y="2" width="56" height="1"/><rect height="1" x="61" y="2" width="1"/><rect height="1" x="62" y="2" width="1"/><rect x="2" y="3" width="1" height="1"/><rect height="1" x="3" y="3" width="1"/><rect x="4" y="3" width="2" height="1"/><rect width="54" height="1" x="6" y="3"/><rect y="3" width="2" height="1" x="60"/><rect x="62" y="3" width="1" height="1"/><rect y="3" width="1" height="1" x="63"/><rect y="4" width="1" height="2" x="2"/><rect y="4" width="1" height="3" x="3"/><rect x="4" y="4" width="1" height="1"/><rect width="56" height="78" x="5" y="4"/><rect y="4" width="1" height="1" x="61"/><rect width="1" height="3" x="62" y="4"/><rect x="63" y="4" width="1" height="2"/><rect x="4" y="5" width="58" height="2"/><rect height="1" x="3" y="7" width="1"/><rect x="4" y="7" width="1" height="1"/><rect height="1" x="61" y="7" width="1"/><rect x="62" y="7" width="1" height="1"/><rect y="8" width="1" height="73" x="3"/><rect x="4" y="8" width="1" height="73"/><rect x="61" y="8" width="1" height="74"/><rect x="62" y="8" width="1" height="73"/><rect y="81" width="1" height="1" x="3"/><rect x="4" y="81" width="1" height="2"/><rect x="62" y="81" width="1" height="1"/><rect width="1" height="1" x="3" y="82"/><rect x="5" y="82" width="1" height="1"/><rect width="54" height="1" x="6" y="82"/><rect width="1" height="1" x="60" y="82"/><rect y="82" width="1" height="1" x="61"/><rect x="62" y="82" width="1" height="1"/><rect y="83" width="1" height="1" x="3"/><rect x="4" y="83" width="1" height="1"/><rect width="1" height="1" x="5" y="83"/><rect height="1" x="6" y="83" width="1"/><rect x="7" y="83" width="52" height="1"/><rect height="1" x="59" y="83" width="1"/><rect x="60" y="83" width="1" height="1"/><rect x="61" y="83" width="1" height="1"/><rect height="1" x="62" y="83" width="1"/><rect height="1" x="5" y="84" width="1"/><rect y="84" width="1" height="1" x="6"/><rect x="7" y="84" width="1" height="1"/><rect height="1" x="8" y="84" width="50"/><rect height="1" x="58" y="84" width="1"/><rect width="1" height="1" x="59" y="84"/><rect height="1" x="60" y="84" width="1"/></g><g fill="#888"><rect height="1" y="5" width="1"/><rect width="1" height="1" x="65" y="5"/><rect height="1" y="6" width="1"/><rect width="1" height="1" x="65" y="6"/><rect y="7" width="1" height="1"/><rect x="65" y="7" width="1" height="1"/><rect width="1" height="73" y="8"/><rect y="8" width="1" height="73" x="65"/><rect height="2" y="81" width="1"/><rect x="65" y="81" width="1" height="2"/><rect y="83" width="1" height="1"/><rect x="65" y="83" width="1" height="1"/><rect x="1" y="87" width="1" height="1"/><rect width="1" height="1" x="64" y="87"/><rect height="1" x="2" y="88" width="1"/><rect x="63" y="88" width="1" height="1"/></g><g fill="#777"><rect y="84" width="1" height="1"/><rect width="1" height="1" x="65" y="84"/><rect height="1" y="85" width="1"/><rect x="65" y="85" width="1" height="1"/><rect width="1" height="1" y="86"/><rect y="86" width="1" height="1" x="65"/><rect height="1" y="87" width="1"/><rect y="87" width="1" height="1" x="65"/></g><g fill="#666"><rect width="1" height="1" y="88"/><rect x="1" y="88" width="1" height="1"/><rect height="1" x="64" y="88" width="1"/><rect width="1" height="1" x="65" y="88"/><rect x="1" y="89" width="1" height="1"/><rect width="1" height="1" x="2" y="89"/><rect x="3" y="89" width="1" height="1"/><rect height="1" x="4" y="89" width="58"/><rect height="1" x="62" y="89" width="1"/><rect x="63" y="89" width="1" height="1"/><rect x="64" y="89" width="1" height="1"/></g><g fill="#ccc"><rect height="1" x="1" width="1"/><rect height="1" x="2" width="1"/><rect width="1" height="1" x="63"/><rect x="64" width="1" height="1"/><rect y="2" width="1" height="1" x="1"/><rect x="64" y="2" width="1" height="1"/><rect y="84" width="1" height="1" x="1"/><rect height="1" x="64" y="84" width="1"/><rect x="2" y="85" width="1" height="1"/><rect height="1" x="63" y="85" width="1"/><rect width="1" height="1" x="4" y="86"/><rect y="86" width="1" height="1" x="5"/><rect y="86" width="1" height="1" x="6"/><rect height="1" x="7" y="86" width="52"/><rect x="59" y="86" width="1" height="1"/><rect x="60" y="86" width="1" height="1"/><rect y="86" width="1" height="1" x="61"/></g><g fill="#aaa"><rect width="1" height="1" y="2"/><rect x="65" y="2" width="1" height="1"/><rect x="1" y="86" width="1" height="1"/><rect x="64" y="86" width="1" height="1"/><rect width="1" height="1" x="2" y="87"/><rect y="87" width="1" height="1" x="3"/><rect width="1" height="1" x="4" y="87"/><rect x="5" y="87" width="56" height="1"/><rect x="61" y="87" width="1" height="1"/><rect y="87" width="1" height="1" x="62"/><rect x="63" y="87" width="1" height="1"/><rect y="88" width="1" height="1" x="4"/><rect x="5" y="88" width="56" height="1"/><rect width="1" height="1" x="61" y="88"/></g><g fill="#999"><rect y="3" width="1" height="1"/><rect x="65" y="3" width="1" height="1"/><rect y="4" width="1" height="1"/><rect x="65" y="4" width="1" height="1"/><rect x="3" y="88" width="1" height="1"/><rect width="1" height="1" x="62" y="88"/></g></svg>