<svg xmlns="http://www.w3.org/2000/svg" width="66" height="90" baseProfile="tiny" version="1.2"><path fill="#ddd" d="M3 0h1v1H3zm1 0h1v1H4zm1 0h56v1H5zm56 0h1v1h-1zm1 0h1v1h-1zM2 1h1v1H2zm61 0h1v1h-1zM1 6h1v1H1zm63 0h1v1h-1zM1 7h1v1H1zm63 0h1v1h-1zM1 8h1v1H1zm63 0h1v1h-1zM1 9h1v73H1zm63 0h1v73h-1zM1 82h1v1H1zm63 0h1v1h-1zM1 83h1v1H1zm63 0h1v1h-1zM2 84h1v1H2zm61 0h1v1h-1zM3 85h1v1H3zm1 0h1v1H4zm1 0h1v1H5zm1 0h1v1H6zm1 0h2v1H7zm50 0h2v1h-2zm2 0h1v1h-1zm1 0h1v1h-1zm1 0h1v1h-1zm1 0h1v1h-1z"/><path fill="#bbb" d="M0 1h1v1H0zm1 0h1v1H1zm63 0h1v1h-1zm1 0h1v1h-1zM1 85h1v1H1zm63 0h1v1h-1zM2 86h1v1H2zm1 0h1v1H3zm59 0h1v1h-1zm1 0h1v1h-1z"/><path fill="#eee" d="M3 1h1v1H3zm59 0h1v1h-1zM2 2h1v1H2zm61 0h1v1h-1zM1 3h1v1H1zm63 0h1v1h-1zM1 4h1v1H1zm63 0h1v1h-1zM1 5h1v1H1zm63 0h1v1h-1zM2 6h1v1H2zm61 0h1v1h-1zM2 7h1v1H2zm61 0h1v1h-1zM2 8h1v74H2zm61 0h1v74h-1zM2 82h1v1H2zm61 0h1v1h-1zM2 83h1v1H2zm61 0h1v1h-1zM3 84h1v1H3zm1 0h1v1H4zm57 0h1v1h-1zm1 0h1v1h-1zM9 85h48v1H9z"/><g fill="#fff"><path d="M4 1h1v1H4zm1 0h1v1H5zm1 0h54v1H6zm54 0h1v1h-1zm1 0h1v1h-1zM3 2h1v1H3zm1 0h1v1H4zm1 0h56v1H5zm56 0h1v1h-1zm1 0h1v1h-1zM2 3h1v1H2zm1 0h1v1H3zm1 0h2v1H4zm2 0h54v1H6zm54 0h2v1h-2zm2 0h1v1h-1zm1 0h1v1h-1zM2 4h1v2H2zm1 0h1v3H3zm1 0h1v1H4zm1 0h56v78H5zm56 0h1v1h-1zm1 0h1v3h-1zm1 0h1v2h-1z"/><path d="M4 5h58v2H4zM3 7h1v1H3zm1 0h1v1H4zm57 0h1v1h-1zm1 0h1v1h-1zM3 8h1v73H3zm1 0h1v73H4zm57 0h1v74h-1zm1 0h1v73h-1zM3 81h1v1H3zm1 0h1v2H4zm58 0h1v1h-1zM3 82h1v1H3zm2 0h1v1H5zm1 0h54v1H6zm54 0h1v1h-1zm1 0h1v1h-1zm1 0h1v1h-1zM3 83h1v1H3zm1 0h1v1H4zm1 0h1v1H5zm1 0h1v1H6zm1 0h52v1H7zm52 0h1v1h-1zm1 0h1v1h-1zm1 0h1v1h-1zm1 0h1v1h-1zM5 84h1v1H5zm1 0h1v1H6zm1 0h1v1H7zm1 0h50v1H8zm50 0h1v1h-1zm1 0h1v1h-1zm1 0h1v1h-1z"/></g><path fill="#888" d="M0 5h1v1H0zm65 0h1v1h-1zM0 6h1v1H0zm65 0h1v1h-1zM0 7h1v1H0zm65 0h1v1h-1zM0 8h1v73H0zm65 0h1v73h-1zM0 81h1v2H0zm65 0h1v2h-1zM0 83h1v1H0zm65 0h1v1h-1zM1 87h1v1H1zm63 0h1v1h-1zM2 88h1v1H2zm61 0h1v1h-1z"/><path fill="#777" d="M0 84h1v1H0zm65 0h1v1h-1zM0 85h1v1H0zm65 0h1v1h-1zM0 86h1v1H0zm65 0h1v1h-1zM0 87h1v1H0zm65 0h1v1h-1z"/><path fill="#666" d="M0 88h1v1H0zm1 0h1v1H1zm63 0h1v1h-1zm1 0h1v1h-1zM1 89h1v1H1zm1 0h1v1H2zm1 0h1v1H3zm1 0h58v1H4zm58 0h1v1h-1zm1 0h1v1h-1zm1 0h1v1h-1z"/><path fill="#ccc" d="M1 0h1v1H1zm1 0h1v1H2zm61 0h1v1h-1zm1 0h1v1h-1zM1 2h1v1H1zm63 0h1v1h-1zM1 84h1v1H1zm63 0h1v1h-1zM2 85h1v1H2zm61 0h1v1h-1zM4 86h1v1H4zm1 0h1v1H5zm1 0h1v1H6zm1 0h52v1H7zm52 0h1v1h-1zm1 0h1v1h-1zm1 0h1v1h-1z"/><path fill="#aaa" d="M0 2h1v1H0zm65 0h1v1h-1zM1 86h1v1H1zm63 0h1v1h-1zM2 87h1v1H2zm1 0h1v1H3zm1 0h1v1H4zm1 0h56v1H5zm56 0h1v1h-1zm1 0h1v1h-1zm1 0h1v1h-1zM4 88h1v1H4zm1 0h56v1H5zm56 0h1v1h-1z"/><path fill="#999" d="M0 3h1v1H0zm65 0h1v1h-1zM0 4h1v1H0zm65 0h1v1h-1zM3 88h1v1H3zm59 0h1v1h-1z"/></svg>