<?xml version="1.0" encoding="UTF-8"?><svg xmlns="http://www.w3.org/2000/svg" version="1.2" baseProfile="tiny" viewBox="0 0 66 90" width="66px" height="90px"><g fill="#a66"><rect x="35" y="30" width="1" height="1"/><rect x="20" y="35" width="1" height="1"/></g><g fill="#b23"><rect height="1" x="55" y="35" width="1"/><rect width="1" height="1" x="33" y="50"/><rect x="30" y="67" width="1" height="1"/><rect x="32" y="67" width="1" height="1"/></g><rect x="13" y="48" width="1" height="1" fill="#a45"/><g fill="#eee"><rect width="1" height="1" x="3" y="1"/><rect height="1" x="62" y="1" width="1"/><rect x="2" y="2" width="1" height="1"/><rect y="2" width="1" height="1" x="63"/><rect x="1" y="3" width="1" height="1"/><rect x="64" y="3" width="1" height="1"/><rect x="1" y="4" width="1" height="1"/><rect x="64" y="4" width="1" height="1"/><rect width="1" height="1" x="1" y="5"/><rect height="1" x="64" y="5" width="1"/><rect x="2" y="6" width="1" height="1"/><rect x="63" y="6" width="1" height="1"/><rect x="2" y="7" width="1" height="1"/><rect height="1" x="63" y="7" width="1"/><rect height="74" x="2" y="8" width="1"/><rect x="63" y="8" width="1" height="74"/><rect height="1" x="2" y="82" width="1"/><rect x="63" y="82" width="1" height="1"/><rect x="2" y="83" width="1" height="1"/><rect x="63" y="83" width="1" height="1"/><rect x="3" y="84" width="1" height="1"/><rect x="4" y="84" width="1" height="1"/><rect width="1" height="1" x="61" y="84"/><rect x="62" y="84" width="1" height="1"/><rect height="1" x="9" y="85" width="48"/></g><g fill="#eaa"><rect width="1" height="1" x="28" y="15"/><rect y="15" width="1" height="1" x="29"/><rect height="1" x="46" y="27" width="1"/><rect width="1" height="1" x="15" y="35"/><rect height="1" x="43" y="37" width="1"/><rect height="1" x="45" y="43" width="1"/><rect x="33" y="60" width="1" height="1"/></g><g fill="#c12"><rect x="29" y="17" width="1" height="1"/><rect x="31" y="27" width="1" height="1"/><rect x="31" y="30" width="1" height="1"/><rect x="27" y="31" width="1" height="1"/><rect x="49" y="32" width="1" height="1"/><rect width="1" height="1" x="50" y="33"/><rect x="51" y="34" width="1" height="1"/><rect x="12" y="37" width="1" height="1"/><rect y="37" width="1" height="1" x="14"/><rect x="45" y="37" width="1" height="1"/><rect x="13" y="38" width="1" height="1"/><rect x="12" y="39" width="1" height="2"/><rect y="40" width="1" height="1" x="13"/><rect y="40" width="1" height="1" x="32"/><rect x="13" y="41" width="1" height="1"/><rect x="31" y="41" width="1" height="1"/><rect x="13" y="42" width="1" height="1"/><rect x="14" y="43" width="1" height="1"/><rect height="1" x="14" y="44" width="1"/><rect x="15" y="44" width="1" height="1"/><rect x="45" y="44" width="1" height="1"/><rect y="45" width="1" height="1" x="15"/></g><g fill="#c02"><rect x="34" y="18" width="1" height="1"/><rect x="32" y="25" width="1" height="1"/><rect y="26" width="1" height="1" x="31"/><rect width="1" height="1" x="32" y="29"/><rect x="48" y="31" width="1" height="1"/><rect width="1" height="1" x="24" y="32"/><rect y="33" width="1" height="1" x="49"/><rect width="1" height="1" x="48" y="34"/><rect y="34" width="1" height="1" x="49"/><rect y="34" width="1" height="1" x="50"/><rect width="1" height="1" x="31" y="35"/><rect width="1" height="3" x="31" y="36"/><rect x="12" y="38" width="1" height="1"/><rect x="13" y="39" width="1" height="1"/><rect x="31" y="39" width="1" height="1"/><rect y="39" width="1" height="1" x="32"/><rect x="31" y="40" width="1" height="1"/><rect y="41" width="1" height="1" x="12"/><rect x="14" y="42" width="1" height="1"/><rect y="42" width="1" height="1" x="30"/><rect y="43" width="1" height="1" x="13"/><rect height="1" x="36" y="44" width="1"/><rect x="44" y="44" width="1" height="1"/><rect y="45" width="1" height="1" x="14"/><rect y="45" width="1" height="1" x="32"/><rect x="15" y="46" width="1" height="1"/><rect x="31" y="46" width="1" height="1"/><rect height="3" x="31" y="57" width="1"/><rect x="31" y="60" width="1" height="2"/><rect x="31" y="62" width="1" height="1"/></g><g fill="#c13"><rect y="35" width="1" height="1" x="47"/><rect height="1" x="41" y="40" width="1"/><rect x="31" y="42" width="1" height="1"/><rect height="1" x="32" y="44" width="1"/></g><g fill="#ccc"><rect width="1" height="1" x="1"/><rect width="1" height="1" x="2"/><rect x="63" width="1" height="1"/><rect width="1" height="1" x="64"/><rect x="1" y="2" width="1" height="1"/><rect x="64" y="2" width="1" height="1"/><rect x="1" y="84" width="1" height="1"/><rect x="64" y="84" width="1" height="1"/><rect width="1" height="1" x="2" y="85"/><rect height="1" x="63" y="85" width="1"/><rect y="86" width="1" height="1" x="4"/><rect x="5" y="86" width="1" height="1"/><rect x="6" y="86" width="1" height="1"/><rect x="7" y="86" width="52" height="1"/><rect x="59" y="86" width="1" height="1"/><rect height="1" x="60" y="86" width="1"/><rect width="1" height="1" x="61" y="86"/></g><g fill="#aaa"><rect height="1" y="2" width="1"/><rect x="65" y="2" width="1" height="1"/><rect y="86" width="1" height="1" x="1"/><rect x="64" y="86" width="1" height="1"/><rect height="1" x="2" y="87" width="1"/><rect height="1" x="3" y="87" width="1"/><rect y="87" width="1" height="1" x="4"/><rect width="56" height="1" x="5" y="87"/><rect x="61" y="87" width="1" height="1"/><rect y="87" width="1" height="1" x="62"/><rect x="63" y="87" width="1" height="1"/><rect x="4" y="88" width="1" height="1"/><rect height="1" x="5" y="88" width="56"/><rect x="61" y="88" width="1" height="1"/></g><g fill="#999"><rect y="3" width="1" height="1"/><rect y="3" width="1" height="1" x="65"/><rect height="1" y="4" width="1"/><rect width="1" height="1" x="65" y="4"/><rect x="3" y="88" width="1" height="1"/><rect width="1" height="1" x="62" y="88"/></g><rect y="29" width="1" height="1" fill="#b77" x="40"/><g fill="#b88"><rect x="41" y="29" width="1" height="1"/><rect y="46" width="1" height="1" x="41"/></g><rect height="1" x="52" fill="#712" y="37" width="1"/><g fill="#c67"><rect width="1" height="1" x="15" y="41"/><rect x="20" y="50" width="1" height="1"/><rect width="1" height="1" x="33" y="56"/><rect y="70" width="1" height="1" x="30"/></g><rect y="46" width="1" height="1" fill="#dab" x="42"/><g fill="#eab"><rect y="15" width="1" height="1" x="30"/><rect x="34" y="23" width="1" height="1"/><rect x="37" y="27" width="1" height="1"/><rect x="47" y="27" width="1" height="1"/><rect y="29" width="1" height="1" x="29"/><rect width="1" height="1" x="21" y="32"/><rect y="34" width="1" height="1" x="12"/><rect y="35" width="1" height="1" x="14"/><rect x="11" y="38" width="1" height="1"/><rect x="36" y="41" width="1" height="1"/><rect width="1" height="1" x="27" y="45"/><rect width="1" height="1" x="21" y="48"/><rect height="1" x="32" y="70" width="1"/></g><g fill="#ecc"><rect x="34" y="24" width="1" height="1"/><rect x="51" y="29" width="1" height="1"/><rect x="29" y="36" width="1" height="1"/><rect width="1" height="3" x="29" y="37"/><rect width="1" height="1" x="33" y="62"/></g><g fill="#fde"><rect x="34" y="26" width="1" height="1"/><rect x="45" y="26" width="1" height="1"/><rect width="1" height="1" x="11" y="37"/><rect x="44" y="42" width="1" height="1"/><rect y="64" width="1" height="1" x="33"/></g><rect fill="#823" x="38" y="29" width="1" height="1"/><g fill="#955"><rect width="1" height="1" x="39" y="29"/><rect x="53" y="37" width="1" height="1"/></g><g fill="#812"><rect width="1" height="1" x="44" y="29"/><rect x="34" y="30" width="1" height="1"/><rect x="39" y="46" width="1" height="1"/><rect x="27" y="49" width="1" height="1"/><rect x="23" y="50" width="1" height="1"/></g><rect y="72" width="1" height="1" fill="#a23" x="31"/><g fill="#ddd"><rect width="1" height="1" x="3"/><rect x="4" width="1" height="1"/><rect x="5" width="56" height="1"/><rect x="61" width="1" height="1"/><rect width="1" height="1" x="62"/><rect y="1" width="1" height="1" x="2"/><rect height="1" x="63" y="1" width="1"/><rect height="1" x="1" y="6" width="1"/><rect x="64" y="6" width="1" height="1"/><rect height="1" x="1" y="7" width="1"/><rect height="1" x="64" y="7" width="1"/><rect width="1" height="1" x="1" y="8"/><rect y="8" width="1" height="1" x="64"/><rect width="1" height="73" x="1" y="9"/><rect x="64" y="9" width="1" height="73"/><rect x="1" y="82" width="1" height="1"/><rect y="82" width="1" height="1" x="64"/><rect x="1" y="83" width="1" height="1"/><rect width="1" height="1" x="64" y="83"/><rect height="1" x="2" y="84" width="1"/><rect x="63" y="84" width="1" height="1"/><rect x="3" y="85" width="1" height="1"/><rect x="4" y="85" width="1" height="1"/><rect y="85" width="1" height="1" x="5"/><rect x="6" y="85" width="1" height="1"/><rect x="7" y="85" width="2" height="1"/><rect height="1" x="57" y="85" width="2"/><rect x="59" y="85" width="1" height="1"/><rect y="85" width="1" height="1" x="60"/><rect y="85" width="1" height="1" x="61"/><rect height="1" x="62" y="85" width="1"/></g><g fill="#a01"><rect x="30" y="18" width="1" height="1"/><rect x="34" y="19" width="1" height="1"/><rect height="1" x="33" y="20" width="1"/><rect x="30" y="21" width="1" height="1"/><rect y="21" width="1" height="2" x="33"/><rect width="1" height="1" x="33" y="23"/><rect height="1" x="39" y="28" width="1"/><rect height="1" x="40" y="28" width="1"/><rect width="1" height="1" x="43" y="28"/><rect height="1" x="34" y="29" width="1"/><rect x="29" y="31" width="1" height="1"/><rect x="47" y="31" width="1" height="1"/><rect x="25" y="32" width="1" height="1"/><rect x="30" y="32" width="1" height="1"/><rect width="1" height="1" x="33" y="32"/><rect y="32" width="1" height="1" x="47"/><rect height="1" x="30" y="33" width="1"/><rect width="1" height="1" x="33" y="33"/><rect y="34" width="1" height="1" x="20"/><rect x="30" y="34" width="1" height="1"/><rect x="18" y="35" width="1" height="1"/><rect y="35" width="2" height="1" x="51"/><rect x="48" y="36" width="1" height="1"/><rect x="15" y="37" width="1" height="1"/><rect x="46" y="37" width="1" height="1"/><rect width="1" height="1" x="44" y="38"/><rect width="1" height="1" x="14" y="39"/><rect x="12" y="44" width="1" height="1"/><rect width="1" height="1" x="39" y="44"/><rect y="44" width="1" height="1" x="40"/><rect y="45" width="1" height="1" x="13"/><rect x="35" y="45" width="1" height="1"/><rect height="1" x="36" y="45" width="1"/><rect width="1" height="1" x="33" y="46"/><rect width="1" height="1" x="14" y="47"/><rect x="16" y="48" width="1" height="1"/><rect x="26" y="48" width="1" height="1"/><rect x="30" y="48" width="1" height="1"/><rect x="32" y="48" width="1" height="1"/><rect y="49" width="1" height="1" x="23"/><rect x="31" y="49" width="1" height="1"/><rect width="1" height="1" x="32" y="49"/><rect width="1" height="1" x="30" y="51"/><rect width="1" height="1" x="31" y="68"/><rect height="1" x="31" y="69" width="1"/><rect x="31" y="70" width="1" height="1"/><rect x="31" y="71" width="1" height="1"/></g><rect fill="#ecd" height="1" x="26" y="19" width="1"/><g fill="#e88"><rect x="36" y="42" width="1" height="1"/><rect x="27" y="46" width="1" height="1"/></g><g fill="#a12"><rect width="1" height="1" x="11" y="43"/><rect height="1" x="33" y="49" width="1"/><rect width="1" height="1" x="32" y="66"/></g><rect x="30" y="71" width="1" height="1" fill="#d89"/><g fill="#b02"><rect x="28" y="17" width="1" height="1"/><rect x="31" y="18" width="1" height="1"/><rect height="2" x="31" y="19" width="1"/><rect x="32" y="19" width="1" height="1"/><rect y="19" width="1" height="1" x="33"/><rect height="1" x="32" y="20" width="1"/><rect height="1" x="31" y="21" width="1"/><rect width="1" height="1" x="32" y="21"/><rect height="1" x="30" y="22" width="1"/><rect height="1" x="31" y="22" width="2"/><rect x="30" y="23" width="1" height="3"/><rect y="23" width="1" height="1" x="31"/><rect x="32" y="23" width="1" height="1"/><rect y="24" width="2" height="1" x="31"/><rect x="33" y="24" width="1" height="1"/><rect x="31" y="25" width="1" height="1"/><rect width="1" height="1" x="33" y="25"/><rect x="30" y="26" width="1" height="1"/><rect x="30" y="27" width="1" height="1"/><rect x="38" y="28" width="1" height="1"/><rect height="1" x="44" y="28" width="1"/><rect height="1" x="33" y="29" width="1"/><rect height="1" x="46" y="29" width="1"/><rect x="32" y="30" width="1" height="1"/><rect x="47" y="30" width="1" height="1"/><rect x="28" y="31" width="1" height="1"/><rect width="1" height="1" x="30" y="31"/><rect x="31" y="31" width="1" height="1"/><rect x="32" y="31" width="1" height="1"/><rect x="31" y="32" width="1" height="1"/><rect x="32" y="32" width="1" height="1"/><rect width="1" height="1" x="48" y="32"/><rect x="22" y="33" width="1" height="1"/><rect x="31" y="33" width="1" height="1"/><rect y="33" width="1" height="1" x="32"/><rect x="47" y="33" width="1" height="1"/><rect width="1" height="1" x="48" y="33"/><rect width="1" height="1" x="31" y="34"/><rect x="32" y="34" width="1" height="3"/><rect y="34" width="1" height="4" x="33"/><rect y="34" width="1" height="1" x="47"/><rect x="30" y="35" width="1" height="1"/><rect x="48" y="35" width="1" height="1"/><rect height="1" x="49" y="35" width="1"/><rect height="1" x="50" y="35" width="1"/><rect x="53" y="35" width="1" height="1"/><rect y="35" width="1" height="1" x="54"/><rect y="36" width="1" height="1" x="16"/><rect x="30" y="36" width="1" height="3"/><rect height="1" x="47" y="36" width="1"/><rect x="32" y="37" width="1" height="2"/><rect width="1" height="1" x="14" y="38"/><rect height="1" x="30" y="39" width="1"/><rect y="39" width="1" height="1" x="42"/><rect height="1" x="14" y="40" width="1"/><rect x="30" y="40" width="1" height="1"/><rect height="1" x="14" y="41" width="1"/><rect width="1" height="1" x="30" y="41"/><rect y="42" width="1" height="1" x="11"/><rect width="1" height="1" x="12" y="42"/><rect x="12" y="43" width="1" height="1"/><rect width="1" height="1" x="13" y="44"/><rect height="1" x="37" y="44" width="1"/><rect x="38" y="44" width="1" height="1"/><rect width="1" height="1" x="41" y="44"/><rect x="42" y="44" width="1" height="1"/><rect height="1" x="43" y="44" width="1"/><rect height="1" x="33" y="45" width="1"/><rect width="1" height="1" x="34" y="45"/><rect width="1" height="1" x="14" y="46"/><rect width="1" height="1" x="32" y="46"/><rect x="15" y="47" width="1" height="1"/><rect x="28" y="47" width="1" height="1"/><rect x="29" y="47" width="1" height="1"/><rect height="1" x="30" y="47" width="1"/><rect height="1" x="31" y="47" width="1"/><rect width="1" height="1" x="32" y="47"/><rect x="25" y="48" width="1" height="1"/><rect x="31" y="48" width="1" height="1"/><rect height="1" x="21" y="49" width="1"/><rect width="1" height="1" x="22" y="49"/><rect height="1" x="31" y="50" width="1"/><rect width="1" height="1" x="32" y="50"/><rect width="1" height="1" x="31" y="51"/><rect x="32" y="51" width="1" height="1"/><rect height="1" x="30" y="52" width="1"/><rect width="1" height="1" x="31" y="52"/><rect x="32" y="52" width="1" height="3"/><rect y="53" width="1" height="2" x="30"/><rect width="1" height="4" x="31" y="53"/><rect height="2" x="30" y="55" width="1"/><rect x="32" y="55" width="1" height="2"/><rect y="57" width="1" height="4" x="30"/><rect x="32" y="57" width="1" height="1"/><rect y="58" width="1" height="2" x="32"/><rect x="32" y="60" width="1" height="1"/><rect x="30" y="61" width="1" height="1"/><rect y="61" width="1" height="2" x="32"/><rect x="30" y="62" width="1" height="2"/><rect x="31" y="63" width="1" height="1"/><rect height="1" x="32" y="63" width="1"/><rect y="64" width="1" height="1" x="30"/><rect y="64" width="1" height="1" x="31"/><rect x="32" y="64" width="1" height="1"/><rect x="30" y="65" width="1" height="1"/><rect x="31" y="65" width="1" height="1"/><rect width="1" height="1" x="32" y="65"/><rect height="1" x="31" y="66" width="1"/><rect x="31" y="67" width="1" height="1"/></g><rect x="24" y="33" width="1" height="1" fill="#934"/><g fill="#d88"><rect x="13" y="35" width="1" height="1"/><rect height="1" x="38" y="41" width="1"/><rect height="1" x="28" y="45" width="1"/><rect width="1" height="1" x="33" y="58"/></g><rect width="1" height="1" x="54" y="37" fill="#c9a"/><rect width="1" height="1" fill="#dbb" x="50" y="38"/><rect height="1" fill="#b44" x="33" y="52" width="1"/><g fill="#777"><rect y="84" width="1" height="1"/><rect width="1" height="1" x="65" y="84"/><rect y="85" width="1" height="1"/><rect x="65" y="85" width="1" height="1"/><rect y="86" width="1" height="1"/><rect y="86" width="1" height="1" x="65"/><rect y="87" width="1" height="1"/><rect y="87" width="1" height="1" x="65"/></g><g fill="#d56"><rect x="28" y="16" width="1" height="1"/><rect x="31" y="17" width="1" height="1"/><rect width="1" height="1" x="35" y="28"/><rect width="1" height="1" x="51" y="31"/><rect width="1" height="1" x="52" y="32"/><rect x="53" y="33" width="1" height="1"/><rect x="13" y="36" width="1" height="1"/><rect height="1" x="44" y="37" width="1"/><rect height="1" x="41" y="39" width="1"/><rect height="1" x="33" y="41" width="1"/><rect y="42" width="1" height="1" x="33"/><rect x="38" y="42" width="1" height="1"/><rect x="34" y="43" width="1" height="1"/><rect height="1" x="16" y="46" width="1"/><rect height="1" x="26" y="47" width="1"/></g><g fill="#c88"><rect x="34" y="22" width="1" height="1"/><rect width="1" height="1" x="16" y="38"/><rect width="1" height="1" x="29" y="49"/></g><g fill="#daa"><rect x="29" y="32" width="1" height="1"/><rect height="1" x="12" y="47" width="1"/><rect x="31" y="74" width="1" height="1"/></g><rect height="1" fill="#833" x="46" y="38" width="1"/><g fill="#c55"><rect height="1" x="15" y="42" width="1"/><rect x="32" y="68" width="1" height="1"/><rect height="1" x="30" y="69" width="1"/></g><rect y="47" width="1" fill="#945" height="1" x="36"/><rect width="1" fill="#c66" height="1" x="33" y="55"/><g fill="#801"><rect x="28" y="18" width="1" height="1"/><rect height="1" x="36" y="29" width="1"/><rect y="32" width="1" height="1" x="26"/><rect y="34" width="1" height="1" x="21"/><rect height="1" x="19" y="35" width="1"/><rect x="50" y="36" width="1" height="1"/><rect width="1" height="1" x="51" y="36"/><rect x="52" y="36" width="1" height="1"/><rect x="54" y="36" width="1" height="1"/><rect y="37" width="1" height="1" x="47"/><rect height="1" x="45" y="38" width="1"/><rect x="38" y="45" width="1" height="1"/><rect width="1" height="1" x="39" y="45"/><rect width="1" height="1" x="45" y="45"/><rect x="35" y="46" width="1" height="1"/><rect x="34" y="47" width="1" height="1"/><rect x="14" y="48" width="1" height="1"/><rect width="1" height="1" x="27" y="48"/><rect width="1" height="1" x="28" y="48"/><rect x="15" y="49" width="1" height="1"/><rect x="24" y="49" width="1" height="1"/><rect x="21" y="50" width="1" height="1"/></g><g fill="#ebb"><rect width="1" height="1" x="35" y="19"/><rect height="1" x="55" y="34" width="1"/><rect height="1" x="41" y="38" width="1"/><rect x="29" y="41" width="1" height="1"/><rect x="29" y="42" width="1" height="1"/><rect x="43" y="42" width="1" height="1"/><rect x="47" y="45" width="1" height="1"/><rect x="25" y="46" width="1" height="1"/><rect x="33" y="61" width="1" height="1"/><rect width="1" height="1" x="30" y="72"/></g><rect width="1" height="1" fill="#a34" x="55" y="36"/><g fill="#d77"><rect height="1" x="29" y="44" width="1"/><rect height="1" x="46" y="44" width="1"/></g><g fill="#d78"><rect height="1" x="29" y="16" width="1"/><rect width="1" height="1" x="40" y="27"/><rect width="1" height="1" x="43" y="27"/><rect x="49" y="29" width="1" height="1"/><rect width="1" height="1" x="50" y="29"/><rect width="1" height="1" x="22" y="32"/><rect y="32" width="1" height="1" x="53"/><rect y="35" width="1" height="1" x="12"/><rect y="35" width="1" height="1" x="16"/><rect x="45" y="36" width="1" height="1"/><rect x="11" y="39" width="1" height="1"/><rect x="43" y="43" width="1" height="1"/><rect x="44" y="43" width="1" height="1"/><rect height="1" x="25" y="47" width="1"/><rect x="22" y="48" width="1" height="1"/><rect height="1" x="33" y="57" width="1"/></g><g fill="#e99"><rect x="31" y="16" width="1" height="1"/><rect x="32" y="16" width="1" height="1"/><rect x="38" y="27" width="1" height="1"/><rect x="48" y="28" width="1" height="1"/><rect width="1" height="1" x="17" y="34"/><rect x="26" y="46" width="1" height="1"/></g><g fill="#c24"><rect height="1" x="30" y="17" width="1"/><rect x="32" y="27" width="1" height="1"/><rect x="51" y="33" width="1" height="1"/><rect x="32" y="43" width="1" height="1"/><rect x="40" y="43" width="1" height="1"/><rect x="20" y="49" width="1" height="1"/></g><g fill="#b34"><rect x="33" y="51" width="1" height="1"/><rect x="30" y="68" width="1" height="1"/></g><g fill="#fdd"><rect y="15" width="1" height="1" x="32"/><rect x="35" y="17" width="1" height="1"/><rect x="34" y="25" width="1" height="1"/><rect y="26" width="1" height="1" x="40"/><rect width="1" height="1" x="44" y="26"/><rect x="52" y="30" width="1" height="1"/><rect x="20" y="32" width="1" height="1"/><rect y="33" width="1" height="1" x="13"/><rect x="16" y="34" width="1" height="1"/><rect height="1" x="29" y="35" width="1"/><rect height="1" x="44" y="36" width="1"/><rect x="37" y="40" width="1" height="1"/><rect x="16" y="44" width="1" height="1"/><rect width="1" height="1" x="28" y="44"/><rect width="1" height="1" x="30" y="73"/></g><g fill="#c35"><rect width="1" height="1" x="30" y="29"/><rect height="1" x="47" y="29" width="1"/></g><g fill="#912"><rect height="1" x="15" y="39" width="1"/><rect width="1" height="1" x="43" y="39"/><rect width="1" height="1" x="46" y="45"/><rect x="16" y="49" width="1" height="1"/></g><rect x="23" y="34" width="1" height="1" fill="#dcc"/><g fill="#b56"><rect width="1" height="1" x="15" y="40"/><rect width="1" height="1" x="31" y="73"/></g><g fill="#c34"><rect y="17" width="1" height="1" x="27"/><rect y="28" width="1" height="1" x="33"/><rect x="45" y="28" width="1" height="1"/><rect width="1" height="1" x="21" y="33"/><rect y="34" width="1" height="1" x="53"/><rect width="1" height="1" x="54" y="34"/><rect x="17" y="35" width="1" height="1"/><rect x="12" y="36" width="1" height="1"/><rect width="1" height="1" x="46" y="36"/><rect x="32" y="41" width="1" height="1"/><rect width="1" height="1" x="40" y="41"/><rect x="32" y="42" width="1" height="1"/><rect x="39" y="42" width="1" height="1"/><rect x="37" y="43" width="1" height="1"/><rect width="1" height="1" x="24" y="48"/></g><g fill="#fef"><rect width="1" height="1" x="35" y="20"/><rect x="46" y="26" width="1" height="1"/><rect x="49" y="27" width="1" height="1"/><rect height="1" x="22" y="31" width="1"/><rect height="1" x="33" y="65" width="1"/></g><rect height="1" x="27" y="32" fill="#944" width="1"/><g fill="#c89"><rect x="25" y="33" width="1" height="1"/><rect width="1" height="1" x="48" y="38"/><rect height="1" x="37" y="47" width="1"/></g><g fill="#c45"><rect width="1" height="1" x="11" y="40"/><rect height="1" x="33" y="53" width="1"/></g><rect height="1" x="14" fill="#711" y="49" width="1"/><g fill="#bbb"><rect y="1" width="1" height="1"/><rect width="1" height="1" x="1" y="1"/><rect x="64" y="1" width="1" height="1"/><rect height="1" x="65" y="1" width="1"/><rect height="1" x="1" y="85" width="1"/><rect height="1" x="64" y="85" width="1"/><rect x="2" y="86" width="1" height="1"/><rect x="3" y="86" width="1" height="1"/><rect y="86" width="1" height="1" x="62"/><rect x="63" y="86" width="1" height="1"/></g><g fill="#d45"><rect x="34" y="17" width="1" height="1"/><rect x="33" y="27" width="1" height="1"/><rect y="28" width="1" height="1" x="34"/><rect x="36" y="28" width="1" height="1"/><rect y="30" width="1" height="1" x="29"/><rect y="30" width="1" height="1" x="49"/><rect width="1" height="1" x="26" y="31"/><rect y="31" width="1" height="1" x="50"/><rect width="1" height="1" x="23" y="32"/><rect y="32" width="1" height="1" x="51"/><rect width="1" height="1" x="52" y="33"/><rect x="15" y="36" width="1" height="1"/><rect width="1" height="1" x="33" y="43"/><rect height="1" x="36" y="43" width="1"/><rect width="1" height="1" x="41" y="43"/><rect x="30" y="44" width="1" height="1"/><rect width="1" height="1" x="30" y="45"/><rect height="1" x="29" y="46" width="1"/></g><g fill="#caa"><rect x="36" y="30" width="1" height="1"/><rect x="49" y="38" width="1" height="1"/></g><g fill="#b13"><rect width="1" height="1" x="11" y="41"/><rect x="16" y="47" width="1" height="1"/></g><rect width="1" height="1" x="35" y="43" fill="#d66"/><rect x="33" y="59" width="1" height="1" fill="#d99"/><g fill="#fff"><rect x="4" y="1" width="1" height="1"/><rect y="1" width="1" height="1" x="5"/><rect y="1" width="54" height="1" x="6"/><rect y="1" width="1" height="1" x="60"/><rect y="1" width="1" height="1" x="61"/><rect x="3" y="2" width="1" height="1"/><rect x="4" y="2" width="1" height="1"/><rect height="1" x="5" y="2" width="56"/><rect x="61" y="2" width="1" height="1"/><rect y="2" width="1" height="1" x="62"/><rect x="2" y="3" width="1" height="1"/><rect height="1" x="3" y="3" width="1"/><rect width="2" height="1" x="4" y="3"/><rect x="6" y="3" width="54" height="1"/><rect x="60" y="3" width="2" height="1"/><rect height="1" x="62" y="3" width="1"/><rect x="63" y="3" width="1" height="1"/><rect x="2" y="4" width="1" height="2"/><rect x="3" y="4" width="1" height="3"/><rect x="4" y="4" width="1" height="1"/><rect y="4" width="56" height="11" x="5"/><rect width="1" height="1" x="61" y="4"/><rect height="3" x="62" y="4" width="1"/><rect width="1" height="2" x="63" y="4"/><rect y="5" width="58" height="2" x="4"/><rect x="3" y="7" width="1" height="1"/><rect x="4" y="7" width="1" height="1"/><rect width="1" height="1" x="61" y="7"/><rect y="7" width="1" height="1" x="62"/><rect width="1" height="73" x="3" y="8"/><rect height="73" x="4" y="8" width="1"/><rect y="8" width="1" height="74" x="61"/><rect x="62" y="8" width="1" height="73"/><rect width="22" height="3" x="5" y="15"/><rect x="27" y="15" width="1" height="1"/><rect height="1" x="33" y="15" width="1"/><rect width="27" height="1" x="34" y="15"/><rect x="35" y="16" width="26" height="1"/><rect height="9" x="36" y="17" width="25"/><rect width="21" height="12" x="5" y="18"/><rect x="26" y="18" width="1" height="1"/><rect width="1" height="1" x="26" y="20"/><rect x="27" y="20" width="2" height="9"/><rect x="26" y="21" width="3" height="8"/><rect x="29" y="21" width="1" height="1"/><rect x="35" y="21" width="26" height="5"/><rect y="22" width="1" height="5" x="29"/><rect width="3" height="1" x="35" y="26"/><rect width="1" height="1" x="38" y="26"/><rect y="26" width="1" height="1" x="47"/><rect x="48" y="26" width="13" height="1"/><rect y="27" width="1" height="1" x="29"/><rect width="11" height="1" x="50" y="27"/><rect x="29" y="28" width="1" height="1"/><rect y="28" width="10" height="1" x="51"/><rect y="29" width="2" height="1" x="26"/><rect width="9" height="1" x="52" y="29"/><rect x="5" y="30" width="20" height="1"/><rect y="30" width="6" height="7" x="38"/><rect x="53" y="30" width="8" height="1"/><rect height="1" x="5" y="31" width="17"/><rect height="1" x="34" y="31" width="1"/><rect y="31" width="10" height="5" x="35"/><rect height="1" x="54" y="31" width="7"/><rect x="5" y="32" width="7" height="5"/><rect y="32" width="1" height="1" x="12"/><rect x="13" y="32" width="1" height="1"/><rect height="1" x="14" y="32" width="5"/><rect width="1" height="1" x="19" y="32"/><rect width="11" height="4" x="34" y="32"/><rect x="54" y="32" width="1" height="1"/><rect x="55" y="32" width="6" height="2"/><rect width="3" height="1" x="14" y="33"/><rect height="1" x="17" y="33" width="1"/><rect x="27" y="33" width="2" height="11"/><rect height="2" x="45" y="33" width="1"/><rect y="34" width="1" height="1" x="14"/><rect height="1" x="15" y="34" width="1"/><rect height="10" x="24" y="34" width="5"/><rect y="34" width="5" height="48" x="56"/><rect y="35" width="7" height="9" x="22"/><rect x="45" y="35" width="1" height="1"/><rect height="8" x="20" y="36" width="9"/><rect height="1" x="34" y="36" width="10"/><rect height="45" x="5" y="37" width="6"/><rect width="11" height="7" x="18" y="37"/><rect y="37" width="8" height="1" x="34"/><rect x="55" y="37" width="1" height="1"/><rect x="17" y="38" width="12" height="6"/><rect y="38" width="6" height="1" x="34"/><rect height="1" x="40" y="38" width="1"/><rect x="52" y="38" width="1" height="1"/><rect x="53" y="38" width="8" height="44"/><rect height="1" x="16" y="39" width="1"/><rect width="4" height="1" x="34" y="39"/><rect y="39" width="1" height="1" x="38"/><rect width="15" height="4" x="46" y="39"/><rect height="3" x="16" y="40" width="13"/><rect width="2" height="1" x="34" y="40"/><rect x="36" y="40" width="1" height="1"/><rect height="2" x="44" y="40" width="17"/><rect x="34" y="41" width="1" height="1"/><rect height="1" x="42" y="41" width="19"/><rect width="16" height="1" x="45" y="42"/><rect y="43" width="1" height="1" x="16"/><rect height="1" x="46" y="43" width="1"/><rect x="47" y="43" width="14" height="2"/><rect width="11" height="1" x="17" y="44"/><rect height="1" x="17" y="45" width="9"/><rect x="48" y="45" width="13" height="37"/><rect height="1" x="11" y="46" width="1"/><rect x="17" y="46" width="7" height="1"/><rect height="1" x="45" y="46" width="1"/><rect x="46" y="46" width="15" height="36"/><rect x="11" y="47" width="1" height="37"/><rect height="1" x="17" y="47" width="1"/><rect height="1" x="18" y="47" width="4"/><rect y="47" width="1" height="1" x="22"/><rect x="39" y="47" width="1" height="1"/><rect height="35" x="40" y="47" width="21"/><rect x="12" y="48" width="1" height="1"/><rect height="36" x="18" y="48" width="2"/><rect width="1" height="1" x="20" y="48"/><rect height="1" x="35" y="48" width="1"/><rect height="34" x="36" y="48" width="25"/><rect x="12" y="49" width="1" height="35"/><rect y="49" width="1" height="1" x="17"/><rect x="34" y="49" width="27" height="33"/><rect x="13" y="50" width="1" height="34"/><rect x="17" y="50" width="3" height="34"/><rect x="27" y="50" width="1" height="1"/><rect x="28" y="50" width="1" height="34"/><rect x="14" y="51" width="1" height="33"/><rect x="15" y="51" width="1" height="1"/><rect x="16" y="51" width="5" height="33"/><rect width="1" height="1" x="22" y="51"/><rect width="6" height="33" x="23" y="51"/><rect x="15" y="52" width="14" height="32"/><rect height="6" x="29" y="55" width="1"/><rect y="63" width="1" height="1" x="29"/><rect x="29" y="64" width="1" height="1"/><rect x="29" y="65" width="1" height="19"/><rect height="1" x="33" y="66" width="1"/><rect x="33" y="67" width="28" height="15"/><rect x="32" y="72" width="29" height="10"/><rect width="1" height="1" x="30" y="74"/><rect height="7" x="30" y="75" width="31"/><rect width="1" height="1" x="3" y="81"/><rect x="4" y="81" width="1" height="2"/><rect width="1" height="1" x="62" y="81"/><rect width="1" height="1" x="3" y="82"/><rect height="1" x="5" y="82" width="1"/><rect width="54" height="1" x="6" y="82"/><rect x="60" y="82" width="1" height="1"/><rect x="61" y="82" width="1" height="1"/><rect height="1" x="62" y="82" width="1"/><rect x="3" y="83" width="1" height="1"/><rect width="1" height="1" x="4" y="83"/><rect y="83" width="1" height="1" x="5"/><rect x="6" y="83" width="1" height="1"/><rect y="83" width="52" height="1" x="7"/><rect height="1" x="59" y="83" width="1"/><rect y="83" width="1" height="1" x="60"/><rect height="1" x="61" y="83" width="1"/><rect y="83" width="1" height="1" x="62"/><rect x="5" y="84" width="1" height="1"/><rect x="6" y="84" width="1" height="1"/><rect x="7" y="84" width="1" height="1"/><rect width="50" height="1" x="8" y="84"/><rect y="84" width="1" height="1" x="58"/><rect x="59" y="84" width="1" height="1"/><rect height="1" x="60" y="84" width="1"/></g><g fill="#c23"><rect x="32" y="18" width="2" height="1"/><rect height="1" x="32" y="26" width="1"/><rect x="33" y="26" width="1" height="1"/><rect x="30" y="28" width="1" height="1"/><rect height="1" x="31" y="28" width="1"/><rect y="28" width="1" height="1" x="32"/><rect x="37" y="28" width="1" height="1"/><rect x="31" y="29" width="1" height="1"/><rect x="30" y="30" width="1" height="1"/><rect height="1" x="48" y="30" width="1"/><rect x="49" y="31" width="1" height="1"/><rect x="50" y="32" width="1" height="1"/><rect width="1" height="1" x="19" y="34"/><rect width="1" height="1" x="52" y="34"/><rect height="1" x="13" y="37" width="1"/><rect x="43" y="38" width="1" height="1"/><rect height="1" x="33" y="40" width="1"/><rect x="15" y="43" width="1" height="1"/><rect y="43" width="1" height="1" x="30"/><rect x="31" y="43" width="1" height="1"/><rect x="38" y="43" width="1" height="1"/><rect x="39" y="43" width="1" height="1"/><rect x="31" y="44" width="1" height="1"/><rect y="44" width="1" height="1" x="33"/><rect width="1" height="1" x="34" y="44"/><rect x="35" y="44" width="1" height="1"/><rect x="31" y="45" width="1" height="1"/><rect x="30" y="46" width="1" height="1"/><rect height="1" x="27" y="47" width="1"/></g><g fill="#c99"><rect x="29" y="19" width="1" height="1"/><rect x="28" y="32" width="1" height="1"/><rect x="17" y="37" width="1" height="1"/><rect height="1" x="34" y="48" width="1"/><rect x="14" y="50" width="1" height="1"/><rect width="1" height="1" x="16" y="50"/><rect y="50" width="1" height="1" x="25"/></g><g fill="#d9a"><rect width="1" height="1" x="45" y="31"/><rect y="45" width="1" height="1" x="11"/></g><g fill="#666"><rect y="88" width="1" height="1"/><rect x="1" y="88" width="1" height="1"/><rect y="88" width="1" height="1" x="64"/><rect height="1" x="65" y="88" width="1"/><rect x="1" y="89" width="1" height="1"/><rect height="1" x="2" y="89" width="1"/><rect height="1" x="3" y="89" width="1"/><rect y="89" width="58" height="1" x="4"/><rect x="62" y="89" width="1" height="1"/><rect x="63" y="89" width="1" height="1"/><rect x="64" y="89" width="1" height="1"/></g><g fill="#e89"><rect y="16" width="1" height="1" x="30"/><rect height="1" x="33" y="16" width="1"/><rect width="1" height="1" x="39" y="27"/><rect width="1" height="1" x="44" y="27"/><rect x="47" y="28" width="1" height="1"/><rect width="1" height="1" x="49" y="28"/><rect x="46" y="34" width="1" height="1"/><rect y="39" width="1" height="1" x="40"/><rect x="39" y="40" width="1" height="1"/><rect x="37" y="41" width="1" height="1"/><rect width="1" height="1" x="35" y="42"/><rect y="42" width="1" height="1" x="41"/><rect width="1" height="1" x="24" y="47"/></g><rect width="1" height="1" fill="#b67" x="27" y="19"/><g fill="#fee"><rect x="29" y="20" width="1" height="1"/><rect height="1" x="39" y="26" width="1"/><rect x="28" y="29" width="1" height="1"/><rect width="1" height="1" x="25" y="30"/><rect height="1" x="37" y="30" width="1"/><rect x="44" y="30" width="1" height="1"/><rect x="53" y="31" width="1" height="1"/><rect width="1" height="1" x="45" y="32"/><rect x="26" y="33" width="1" height="1"/><rect x="42" y="37" width="1" height="1"/><rect x="43" y="40" width="1" height="1"/><rect width="1" height="1" x="35" y="41"/><rect x="26" y="45" width="1" height="1"/><rect height="1" x="24" y="46" width="1"/><rect height="1" x="44" y="46" width="1"/><rect x="17" y="48" width="1" height="1"/><rect x="29" y="50" width="1" height="1"/><rect x="21" y="51" width="1" height="1"/><rect width="1" height="1" x="29" y="51"/><rect x="29" y="52" width="1" height="1"/><rect x="29" y="53" width="1" height="1"/><rect height="1" x="29" y="54" width="1"/><rect height="1" x="29" y="61" width="1"/><rect x="29" y="62" width="1" height="1"/><rect x="32" y="71" width="1" height="1"/></g><g fill="#923"><rect x="45" y="30" width="1" height="1"/><rect height="1" x="12" y="46" width="1"/></g><g fill="#c56"><rect y="40" width="1" height="1" x="42"/><rect y="54" width="1" height="1" x="33"/></g><rect fill="#c78" y="69" width="1" height="1" x="32"/><g fill="#fcc"><rect x="31" y="15" width="1" height="1"/><rect y="16" width="1" height="1" x="34"/><rect width="1" height="1" x="42" y="26"/><rect height="1" x="43" y="26" width="1"/><rect x="35" y="27" width="1" height="1"/><rect x="50" y="28" width="1" height="1"/><rect height="1" x="26" y="30" width="1"/><rect height="1" x="23" y="31" width="1"/><rect height="1" x="12" y="33" width="1"/><rect x="39" y="39" width="1" height="1"/></g><g fill="#901"><rect x="27" y="18" width="1" height="1"/><rect x="29" y="18" width="1" height="1"/><rect y="19" width="1" height="1" x="30"/><rect y="20" width="1" height="1" x="30"/><rect height="1" x="41" y="28" width="2"/><rect width="1" height="1" x="35" y="29"/><rect width="1" height="1" x="45" y="29"/><rect y="30" width="1" height="1" x="33"/><rect x="46" y="30" width="1" height="1"/><rect width="1" height="1" x="33" y="31"/><rect height="1" x="46" y="31" width="1"/><rect width="1" height="1" x="46" y="32"/><rect x="23" y="33" width="1" height="1"/><rect height="1" x="17" y="36" width="1"/><rect x="49" y="36" width="1" height="1"/><rect x="16" y="37" width="1" height="1"/><rect x="15" y="38" width="1" height="1"/><rect x="12" y="45" width="1" height="1"/><rect x="37" y="45" width="1" height="1"/><rect y="46" width="1" height="1" x="13"/><rect y="46" width="1" height="1" x="34"/><rect y="47" width="1" height="1" x="13"/><rect x="33" y="47" width="1" height="1"/><rect x="15" y="48" width="1" height="1"/><rect height="1" x="29" y="48" width="1"/><rect width="1" height="1" x="33" y="48"/><rect width="1" height="1" x="30" y="49"/><rect y="50" width="1" height="1" x="30"/></g><g fill="#ebc"><rect y="27" width="1" height="1" x="34"/><rect y="27" width="1" height="1" x="36"/><rect width="1" height="1" x="29" y="40"/><rect height="1" x="29" y="43" width="1"/><rect height="1" x="23" y="47" width="1"/></g><g fill="#701"><rect x="37" y="29" width="1" height="1"/><rect width="1" height="1" x="53" y="36"/><rect x="48" y="37" width="4" height="1"/><rect x="40" y="45" width="1" height="1"/><rect x="41" y="45" width="3" height="1"/><rect y="45" width="1" height="1" x="44"/><rect width="1" height="1" x="36" y="46"/><rect x="37" y="46" width="2" height="1"/><rect x="35" y="47" width="1" height="1"/><rect height="1" x="25" y="49" width="2"/><rect y="50" width="1" height="1" x="15"/><rect y="50" width="1" height="1" x="22"/></g><g fill="#e9a"><rect x="27" y="16" width="1" height="1"/><rect x="35" y="18" width="1" height="1"/><rect height="1" x="45" y="27" width="1"/><rect width="1" height="1" x="27" y="30"/><rect height="1" x="24" y="31" width="1"/><rect height="1" x="19" y="33" width="1"/><rect y="33" width="1" height="1" x="54"/><rect width="1" height="1" x="13" y="34"/><rect x="46" y="35" width="1" height="1"/><rect x="38" y="40" width="1" height="1"/><rect x="41" y="41" width="1" height="1"/><rect y="42" width="1" height="1" x="34"/><rect y="42" width="1" height="1" x="42"/><rect width="1" height="1" x="16" y="45"/></g><g fill="#edd"><rect x="28" y="19" width="1" height="1"/><rect y="33" width="1" height="1" x="29"/><rect width="1" height="1" x="29" y="34"/><rect height="1" x="21" y="35" width="1"/><rect x="19" y="36" width="1" height="1"/><rect height="1" x="51" y="38" width="1"/><rect x="45" y="39" width="1" height="1"/><rect x="43" y="46" width="1" height="1"/><rect y="47" width="1" height="1" x="38"/><rect y="49" width="1" height="1" x="13"/><rect width="1" height="1" x="26" y="50"/><rect width="1" height="1" x="33" y="63"/></g><rect height="1" x="34" y="20" width="1" fill="#a02"/><g fill="#fcd"><rect x="41" y="26" width="1" height="1"/><rect x="48" y="27" width="1" height="1"/><rect height="1" x="18" y="33" width="1"/></g><g fill="#b78"><rect x="42" y="29" width="1" height="1"/><rect x="44" y="39" width="1" height="1"/></g><g fill="#a56"><rect x="43" y="29" width="1" height="1"/><rect height="1" x="28" y="49" width="1"/></g><g fill="#a55"><rect y="34" width="1" height="1" x="22"/><rect y="36" width="1" height="1" x="18"/><rect x="40" y="46" width="1" height="1"/><rect width="1" height="1" x="24" y="50"/></g><g fill="#b12"><rect y="38" width="1" height="1" x="33"/><rect x="33" y="39" width="1" height="1"/><rect height="1" x="30" y="66" width="1"/></g><g fill="#888"><rect y="5" width="1" height="1"/><rect height="1" x="65" y="5" width="1"/><rect y="6" width="1" height="1"/><rect y="6" width="1" height="1" x="65"/><rect height="1" y="7" width="1"/><rect width="1" height="1" x="65" y="7"/><rect y="8" width="1" height="73"/><rect x="65" y="8" width="1" height="73"/><rect y="81" width="1" height="2"/><rect x="65" y="81" width="1" height="2"/><rect y="83" width="1" height="1"/><rect x="65" y="83" width="1" height="1"/><rect width="1" height="1" x="1" y="87"/><rect height="1" x="64" y="87" width="1"/><rect width="1" height="1" x="2" y="88"/><rect x="63" y="88" width="1" height="1"/></g><g fill="#d67"><rect x="32" y="17" width="1" height="1"/><rect height="1" x="33" y="17" width="1"/><rect y="27" width="1" height="1" x="41"/><rect y="27" width="1" height="1" x="42"/><rect x="46" y="28" width="1" height="1"/><rect height="1" x="48" y="29" width="1"/><rect x="28" y="30" width="1" height="1"/><rect x="50" y="30" width="1" height="1"/><rect x="51" y="30" width="1" height="1"/><rect y="31" width="1" height="1" x="25"/><rect height="1" x="52" y="31" width="1"/><rect height="1" x="20" y="33" width="1"/><rect width="1" height="1" x="18" y="34"/><rect x="14" y="36" width="1" height="1"/><rect x="42" y="38" width="1" height="1"/><rect x="40" y="40" width="1" height="1"/><rect height="1" x="39" y="41" width="1"/><rect width="1" height="1" x="37" y="42"/><rect x="40" y="42" width="1" height="1"/><rect height="1" x="42" y="43" width="1"/><rect x="29" y="45" width="1" height="1"/><rect height="1" x="28" y="46" width="1"/><rect x="23" y="48" width="1" height="1"/></g><g fill="#b45"><rect width="1" height="1" x="34" y="21"/><rect width="1" height="1" x="46" y="33"/><rect y="44" width="1" height="1" x="11"/></g><rect y="38" width="1" height="1" x="47" fill="#a67"/></svg>