<svg xmlns="http://www.w3.org/2000/svg" width="66" height="90" baseProfile="tiny" version="1.2"><path fill="#a66" d="M35 30h1v1h-1zm-15 5h1v1h-1z"/><path fill="#b23" d="M55 35h1v1h-1zM33 50h1v1h-1zm-3 17h1v1h-1zm2 0h1v1h-1z"/><path fill="#a45" d="M13 48h1v1h-1z"/><path fill="#eee" d="M3 1h1v1H3zm59 0h1v1h-1zM2 2h1v1H2zm61 0h1v1h-1zM1 3h1v1H1zm63 0h1v1h-1zM1 4h1v1H1zm63 0h1v1h-1zM1 5h1v1H1zm63 0h1v1h-1zM2 6h1v1H2zm61 0h1v1h-1zM2 7h1v1H2zm61 0h1v1h-1zM2 8h1v74H2zm61 0h1v74h-1zM2 82h1v1H2zm61 0h1v1h-1zM2 83h1v1H2zm61 0h1v1h-1zM3 84h1v1H3zm1 0h1v1H4zm57 0h1v1h-1zm1 0h1v1h-1zM9 85h48v1H9z"/><path fill="#eaa" d="M28 15h1v1h-1zm1 0h1v1h-1zm17 12h1v1h-1zm-31 8h1v1h-1zm28 2h1v1h-1zm2 6h1v1h-1zM33 60h1v1h-1z"/><path fill="#c12" d="M29 17h1v1h-1zm2 10h1v1h-1zm0 3h1v1h-1zm-4 1h1v1h-1zm22 1h1v1h-1zm1 1h1v1h-1zm1 1h1v1h-1zm-39 3h1v1h-1zm2 0h1v1h-1zm31 0h1v1h-1zm-32 1h1v1h-1zm-1 1h1v2h-1zm1 1h1v1h-1zm19 0h1v1h-1zm-19 1h1v1h-1zm18 0h1v1h-1zm-18 1h1v1h-1zm1 1h1v1h-1zm0 1h1v1h-1zm1 0h1v1h-1zm30 0h1v1h-1zm-30 1h1v1h-1z"/><path fill="#c02" d="M34 18h1v1h-1zm-2 7h1v1h-1zm-1 1h1v1h-1zm1 3h1v1h-1zm16 2h1v1h-1zm-24 1h1v1h-1zm25 1h1v1h-1zm-1 1h1v1h-1zm1 0h1v1h-1zm1 0h1v1h-1zm-19 1h1v1h-1zm0 1h1v3h-1zm-19 2h1v1h-1zm1 1h1v1h-1zm18 0h1v1h-1zm1 0h1v1h-1zm-1 1h1v1h-1zm-19 1h1v1h-1zm2 1h1v1h-1zm16 0h1v1h-1zm-17 1h1v1h-1zm23 1h1v1h-1zm8 0h1v1h-1zm-30 1h1v1h-1zm18 0h1v1h-1zm-17 1h1v1h-1zm16 0h1v1h-1zm0 11h1v3h-1zm0 3h1v2h-1zm0 2h1v1h-1z"/><path fill="#c13" d="M47 35h1v1h-1zm-6 5h1v1h-1zm-10 2h1v1h-1zm1 2h1v1h-1z"/><path fill="#ccc" d="M1 0h1v1H1zm1 0h1v1H2zm61 0h1v1h-1zm1 0h1v1h-1zM1 2h1v1H1zm63 0h1v1h-1zM1 84h1v1H1zm63 0h1v1h-1zM2 85h1v1H2zm61 0h1v1h-1zM4 86h1v1H4zm1 0h1v1H5zm1 0h1v1H6zm1 0h52v1H7zm52 0h1v1h-1zm1 0h1v1h-1zm1 0h1v1h-1z"/><path fill="#aaa" d="M0 2h1v1H0zm65 0h1v1h-1zM1 86h1v1H1zm63 0h1v1h-1zM2 87h1v1H2zm1 0h1v1H3zm1 0h1v1H4zm1 0h56v1H5zm56 0h1v1h-1zm1 0h1v1h-1zm1 0h1v1h-1zM4 88h1v1H4zm1 0h56v1H5zm56 0h1v1h-1z"/><path fill="#999" d="M0 3h1v1H0zm65 0h1v1h-1zM0 4h1v1H0zm65 0h1v1h-1zM3 88h1v1H3zm59 0h1v1h-1z"/><path fill="#b77" d="M40 29h1v1h-1z"/><path fill="#b88" d="M41 29h1v1h-1zm0 17h1v1h-1z"/><path fill="#712" d="M52 37h1v1h-1z"/><path fill="#c67" d="M15 41h1v1h-1zm5 9h1v1h-1zm13 6h1v1h-1zm-3 14h1v1h-1z"/><path fill="#dab" d="M42 46h1v1h-1z"/><path fill="#eab" d="M30 15h1v1h-1zm4 8h1v1h-1zm3 4h1v1h-1zm10 0h1v1h-1zm-18 2h1v1h-1zm-8 3h1v1h-1zm-9 2h1v1h-1zm2 1h1v1h-1zm-3 3h1v1h-1zm25 3h1v1h-1zm-9 4h1v1h-1zm-6 3h1v1h-1zm11 22h1v1h-1z"/><path fill="#ecc" d="M34 24h1v1h-1zm17 5h1v1h-1zm-22 7h1v1h-1zm0 1h1v3h-1zm4 25h1v1h-1z"/><path fill="#fde" d="M34 26h1v1h-1zm11 0h1v1h-1zM11 37h1v1h-1zm33 5h1v1h-1zM33 64h1v1h-1z"/><path fill="#823" d="M38 29h1v1h-1z"/><path fill="#955" d="M39 29h1v1h-1zm14 8h1v1h-1z"/><path fill="#812" d="M44 29h1v1h-1zm-10 1h1v1h-1zm5 16h1v1h-1zm-12 3h1v1h-1zm-4 1h1v1h-1z"/><path fill="#a23" d="M31 72h1v1h-1z"/><path fill="#ddd" d="M3 0h1v1H3zm1 0h1v1H4zm1 0h56v1H5zm56 0h1v1h-1zm1 0h1v1h-1zM2 1h1v1H2zm61 0h1v1h-1zM1 6h1v1H1zm63 0h1v1h-1zM1 7h1v1H1zm63 0h1v1h-1zM1 8h1v1H1zm63 0h1v1h-1zM1 9h1v73H1zm63 0h1v73h-1zM1 82h1v1H1zm63 0h1v1h-1zM1 83h1v1H1zm63 0h1v1h-1zM2 84h1v1H2zm61 0h1v1h-1zM3 85h1v1H3zm1 0h1v1H4zm1 0h1v1H5zm1 0h1v1H6zm1 0h2v1H7zm50 0h2v1h-2zm2 0h1v1h-1zm1 0h1v1h-1zm1 0h1v1h-1zm1 0h1v1h-1z"/><path fill="#a01" d="M30 18h1v1h-1zm4 1h1v1h-1zm-1 1h1v1h-1zm-3 1h1v1h-1zm3 0h1v2h-1zm0 2h1v1h-1zm6 5h1v1h-1zm1 0h1v1h-1zm3 0h1v1h-1zm-9 1h1v1h-1zm-5 2h1v1h-1zm18 0h1v1h-1zm-22 1h1v1h-1zm5 0h1v1h-1zm3 0h1v1h-1zm14 0h1v1h-1zm-17 1h1v1h-1zm3 0h1v1h-1zm-13 1h1v1h-1zm10 0h1v1h-1zm-12 1h1v1h-1zm33 0h2v1h-2zm-3 1h1v1h-1zm-33 1h1v1h-1zm31 0h1v1h-1zm-2 1h1v1h-1zm-30 1h1v1h-1zm-2 5h1v1h-1zm27 0h1v1h-1zm1 0h1v1h-1zm-27 1h1v1h-1zm22 0h1v1h-1zm1 0h1v1h-1zm-3 1h1v1h-1zm-19 1h1v1h-1zm2 1h1v1h-1zm10 0h1v1h-1zm4 0h1v1h-1zm2 0h1v1h-1zm-9 1h1v1h-1zm8 0h1v1h-1zm1 0h1v1h-1zm-2 2h1v1h-1zm1 17h1v1h-1zm0 1h1v1h-1zm0 1h1v1h-1zm0 1h1v1h-1z"/><path fill="#ecd" d="M26 19h1v1h-1z"/><path fill="#e88" d="M36 42h1v1h-1zm-9 4h1v1h-1z"/><path fill="#a12" d="M11 43h1v1h-1zm22 6h1v1h-1zm-1 17h1v1h-1z"/><path fill="#d89" d="M30 71h1v1h-1z"/><path fill="#b02" d="M28 17h1v1h-1zm3 1h1v1h-1zm0 1h1v2h-1zm1 0h1v1h-1zm1 0h1v1h-1zm-1 1h1v1h-1zm-1 1h1v1h-1zm1 0h1v1h-1zm-2 1h1v1h-1zm1 0h2v1h-2zm-1 1h1v3h-1zm1 0h1v1h-1zm1 0h1v1h-1zm-1 1h2v1h-2zm2 0h1v1h-1zm-2 1h1v1h-1zm2 0h1v1h-1zm-3 1h1v1h-1zm0 1h1v1h-1zm8 1h1v1h-1zm6 0h1v1h-1zm-11 1h1v1h-1zm13 0h1v1h-1zm-14 1h1v1h-1zm15 0h1v1h-1zm-19 1h1v1h-1zm2 0h1v1h-1zm1 0h1v1h-1zm1 0h1v1h-1zm-1 1h1v1h-1zm1 0h1v1h-1zm16 0h1v1h-1zm-26 1h1v1h-1zm9 0h1v1h-1zm1 0h1v1h-1zm15 0h1v1h-1zm1 0h1v1h-1zm-17 1h1v1h-1zm1 0h1v3h-1zm1 0h1v4h-1zm14 0h1v1h-1zm-17 1h1v1h-1zm18 0h1v1h-1zm1 0h1v1h-1zm1 0h1v1h-1zm3 0h1v1h-1zm1 0h1v1h-1zm-38 1h1v1h-1zm14 0h1v3h-1zm17 0h1v1h-1zm-15 1h1v2h-1zm-18 1h1v1h-1zm16 1h1v1h-1zm12 0h1v1h-1zm-28 1h1v1h-1zm16 0h1v1h-1zm-16 1h1v1h-1zm16 0h1v1h-1zm-19 1h1v1h-1zm1 0h1v1h-1zm0 1h1v1h-1zm1 1h1v1h-1zm24 0h1v1h-1zm1 0h1v1h-1zm3 0h1v1h-1zm1 0h1v1h-1zm1 0h1v1h-1zm-10 1h1v1h-1zm1 0h1v1h-1zm-20 1h1v1h-1zm18 0h1v1h-1zm-17 1h1v1h-1zm13 0h1v1h-1zm1 0h1v1h-1zm1 0h1v1h-1zm1 0h1v1h-1zm1 0h1v1h-1zm-7 1h1v1h-1zm6 0h1v1h-1zm-10 1h1v1h-1zm1 0h1v1h-1zm9 1h1v1h-1zm1 0h1v1h-1zm-1 1h1v1h-1zm1 0h1v1h-1zm-2 1h1v1h-1zm1 0h1v1h-1zm1 0h1v3h-1zm-2 1h1v2h-1zm1 0h1v4h-1zm-1 2h1v2h-1zm2 0h1v2h-1zm-2 2h1v4h-1zm2 0h1v1h-1zm0 1h1v2h-1zm0 2h1v1h-1zm-2 1h1v1h-1zm2 0h1v2h-1zm-2 1h1v2h-1zm1 1h1v1h-1zm1 0h1v1h-1zm-2 1h1v1h-1zm1 0h1v1h-1zm1 0h1v1h-1zm-2 1h1v1h-1zm1 0h1v1h-1zm1 0h1v1h-1zm-1 1h1v1h-1zm0 1h1v1h-1z"/><path fill="#934" d="M24 33h1v1h-1z"/><path fill="#d88" d="M13 35h1v1h-1zm25 6h1v1h-1zm-10 4h1v1h-1zm5 13h1v1h-1z"/><path fill="#c9a" d="M54 37h1v1h-1z"/><path fill="#dbb" d="M50 38h1v1h-1z"/><path fill="#b44" d="M33 52h1v1h-1z"/><path fill="#777" d="M0 84h1v1H0zm65 0h1v1h-1zM0 85h1v1H0zm65 0h1v1h-1zM0 86h1v1H0zm65 0h1v1h-1zM0 87h1v1H0zm65 0h1v1h-1z"/><path fill="#d56" d="M28 16h1v1h-1zm3 1h1v1h-1zm4 11h1v1h-1zm16 3h1v1h-1zm1 1h1v1h-1zm1 1h1v1h-1zm-40 3h1v1h-1zm31 1h1v1h-1zm-3 2h1v1h-1zm-8 2h1v1h-1zm0 1h1v1h-1zm5 0h1v1h-1zm-4 1h1v1h-1zm-18 3h1v1h-1zm10 1h1v1h-1z"/><path fill="#c88" d="M34 22h1v1h-1zM16 38h1v1h-1zm13 11h1v1h-1z"/><path fill="#daa" d="M29 32h1v1h-1zM12 47h1v1h-1zm19 27h1v1h-1z"/><path fill="#833" d="M46 38h1v1h-1z"/><path fill="#c55" d="M15 42h1v1h-1zm17 26h1v1h-1zm-2 1h1v1h-1z"/><path fill="#945" d="M36 47h1v1h-1z"/><path fill="#c66" d="M33 55h1v1h-1z"/><path fill="#801" d="M28 18h1v1h-1zm8 11h1v1h-1zm-10 3h1v1h-1zm-5 2h1v1h-1zm-2 1h1v1h-1zm31 1h1v1h-1zm1 0h1v1h-1zm1 0h1v1h-1zm2 0h1v1h-1zm-7 1h1v1h-1zm-2 1h1v1h-1zm-7 7h1v1h-1zm1 0h1v1h-1zm6 0h1v1h-1zm-10 1h1v1h-1zm-1 1h1v1h-1zm-20 1h1v1h-1zm13 0h1v1h-1zm1 0h1v1h-1zm-13 1h1v1h-1zm9 0h1v1h-1zm-3 1h1v1h-1z"/><path fill="#ebb" d="M35 19h1v1h-1zm20 15h1v1h-1zm-14 4h1v1h-1zm-12 3h1v1h-1zm0 1h1v1h-1zm14 0h1v1h-1zm4 3h1v1h-1zm-22 1h1v1h-1zm8 15h1v1h-1zm-3 11h1v1h-1z"/><path fill="#a34" d="M55 36h1v1h-1z"/><path fill="#d77" d="M29 44h1v1h-1zm17 0h1v1h-1z"/><path fill="#d78" d="M29 16h1v1h-1zm11 11h1v1h-1zm3 0h1v1h-1zm6 2h1v1h-1zm1 0h1v1h-1zm-28 3h1v1h-1zm31 0h1v1h-1zm-41 3h1v1h-1zm4 0h1v1h-1zm29 1h1v1h-1zm-34 3h1v1h-1zm32 4h1v1h-1zm1 0h1v1h-1zm-19 4h1v1h-1zm-3 1h1v1h-1zm11 9h1v1h-1z"/><path fill="#e99" d="M31 16h1v1h-1zm1 0h1v1h-1zm6 11h1v1h-1zm10 1h1v1h-1zm-31 6h1v1h-1zm9 12h1v1h-1z"/><path fill="#c24" d="M30 17h1v1h-1zm2 10h1v1h-1zm19 6h1v1h-1zM32 43h1v1h-1zm8 0h1v1h-1zm-20 6h1v1h-1z"/><path fill="#b34" d="M33 51h1v1h-1zm-3 17h1v1h-1z"/><path fill="#fdd" d="M32 15h1v1h-1zm3 2h1v1h-1zm-1 8h1v1h-1zm6 1h1v1h-1zm4 0h1v1h-1zm8 4h1v1h-1zm-32 2h1v1h-1zm-7 1h1v1h-1zm3 1h1v1h-1zm13 1h1v1h-1zm15 1h1v1h-1zm-7 4h1v1h-1zm-21 4h1v1h-1zm12 0h1v1h-1zm2 29h1v1h-1z"/><path fill="#c35" d="M30 29h1v1h-1zm17 0h1v1h-1z"/><path fill="#912" d="M15 39h1v1h-1zm28 0h1v1h-1zm3 6h1v1h-1zm-30 4h1v1h-1z"/><path fill="#dcc" d="M23 34h1v1h-1z"/><path fill="#b56" d="M15 40h1v1h-1zm16 33h1v1h-1z"/><path fill="#c34" d="M27 17h1v1h-1zm6 11h1v1h-1zm12 0h1v1h-1zm-24 5h1v1h-1zm32 1h1v1h-1zm1 0h1v1h-1zm-37 1h1v1h-1zm-5 1h1v1h-1zm34 0h1v1h-1zm-14 5h1v1h-1zm8 0h1v1h-1zm-8 1h1v1h-1zm7 0h1v1h-1zm-2 1h1v1h-1zm-13 5h1v1h-1z"/><path fill="#fef" d="M35 20h1v1h-1zm11 6h1v1h-1zm3 1h1v1h-1zm-27 4h1v1h-1zm11 34h1v1h-1z"/><path fill="#944" d="M27 32h1v1h-1z"/><path fill="#c89" d="M25 33h1v1h-1zm23 5h1v1h-1zm-11 9h1v1h-1z"/><path fill="#c45" d="M11 40h1v1h-1zm22 13h1v1h-1z"/><path fill="#711" d="M14 49h1v1h-1z"/><path fill="#bbb" d="M0 1h1v1H0zm1 0h1v1H1zm63 0h1v1h-1zm1 0h1v1h-1zM1 85h1v1H1zm63 0h1v1h-1zM2 86h1v1H2zm1 0h1v1H3zm59 0h1v1h-1zm1 0h1v1h-1z"/><path fill="#d45" d="M34 17h1v1h-1zm-1 10h1v1h-1zm1 1h1v1h-1zm2 0h1v1h-1zm-7 2h1v1h-1zm20 0h1v1h-1zm-23 1h1v1h-1zm24 0h1v1h-1zm-27 1h1v1h-1zm28 0h1v1h-1zm1 1h1v1h-1zm-37 3h1v1h-1zm18 7h1v1h-1zm3 0h1v1h-1zm5 0h1v1h-1zm-11 1h1v1h-1zm0 1h1v1h-1zm-1 1h1v1h-1z"/><path fill="#caa" d="M36 30h1v1h-1zm13 8h1v1h-1z"/><path fill="#b13" d="M11 41h1v1h-1zm5 6h1v1h-1z"/><path fill="#d66" d="M35 43h1v1h-1z"/><path fill="#d99" d="M33 59h1v1h-1z"/><g fill="#fff"><path d="M4 1h1v1H4zm1 0h1v1H5zm1 0h54v1H6zm54 0h1v1h-1zm1 0h1v1h-1zM3 2h1v1H3zm1 0h1v1H4zm1 0h56v1H5zm56 0h1v1h-1zm1 0h1v1h-1zM2 3h1v1H2zm1 0h1v1H3zm1 0h2v1H4zm2 0h54v1H6zm54 0h2v1h-2zm2 0h1v1h-1zm1 0h1v1h-1zM2 4h1v2H2zm1 0h1v3H3zm1 0h1v1H4zm1 0h56v11H5zm56 0h1v1h-1zm1 0h1v3h-1zm1 0h1v2h-1z"/><path d="M4 5h58v2H4zM3 7h1v1H3zm1 0h1v1H4zm57 0h1v1h-1zm1 0h1v1h-1zM3 8h1v73H3zm1 0h1v73H4zm57 0h1v74h-1zm1 0h1v73h-1zM5 15h22v3H5zm22 0h1v1h-1zm6 0h1v1h-1zm1 0h27v1H34zm1 1h26v1H35zm1 1h25v9H36zM5 18h21v12H5zm21 0h1v1h-1zm0 2h1v1h-1zm1 0h2v9h-2z"/><path d="M26 21h3v8h-3zm3 0h1v1h-1zm6 0h26v5H35zm-6 1h1v5h-1zm6 4h3v1h-3zm3 0h1v1h-1zm9 0h1v1h-1zm1 0h13v1H48zm-19 1h1v1h-1zm21 0h11v1H50zm-21 1h1v1h-1zm22 0h10v1H51zm-25 1h2v1h-2zm26 0h9v1h-9zM5 30h20v1H5zm33 0h6v7h-6zm15 0h8v1h-8zM5 31h17v1H5zm29 0h1v1h-1z"/><path d="M35 31h10v5H35zm19 0h7v1h-7zM5 32h7v5H5zm7 0h1v1h-1zm1 0h1v1h-1zm1 0h5v1h-5zm5 0h1v1h-1z"/><path d="M34 32h11v4H34zm20 0h1v1h-1zm1 0h6v2h-6zm-41 1h3v1h-3zm3 0h1v1h-1zm10 0h2v11h-2zm18 0h1v2h-1zm-31 1h1v1h-1zm1 0h1v1h-1z"/><path d="M24 34h5v10h-5zm32 0h5v48h-5z"/><path d="M22 35h7v9h-7zm23 0h1v1h-1z"/><path d="M20 36h9v8h-9zm14 0h10v1H34zM5 37h6v45H5z"/><path d="M18 37h11v7H18zm16 0h8v1h-8zm21 0h1v1h-1z"/><path d="M17 38h12v6H17zm17 0h6v1h-6zm6 0h1v1h-1zm12 0h1v1h-1zm1 0h8v44h-8zm-37 1h1v1h-1zm18 0h4v1h-4zm4 0h1v1h-1z"/><path d="M46 39h15v4H46zm-30 1h13v3H16zm18 0h2v1h-2zm2 0h1v1h-1z"/><path d="M44 40h17v2H44zm-10 1h1v1h-1z"/><path d="M42 41h19v1H42zm3 1h16v1H45zm-29 1h1v1h-1zm30 0h1v1h-1zm1 0h14v2H47zm-30 1h11v1H17zm0 1h9v1h-9zm31 0h13v37H48zm-37 1h1v1h-1zm6 0h7v1h-7zm28 0h1v1h-1z"/><path d="M46 46h15v36H46zm-35 1h1v37h-1zm6 0h1v1h-1zm1 0h4v1h-4zm4 0h1v1h-1zm17 0h1v1h-1z"/><path d="M40 47h21v35H40zm-28 1h1v1h-1zm6 0h2v36h-2zm2 0h1v1h-1zm15 0h1v1h-1z"/><path d="M36 48h25v34H36zm-24 1h1v35h-1zm5 0h1v1h-1z"/><path d="M34 49h27v33H34zm-21 1h1v34h-1zm4 0h3v34h-3zm10 0h1v1h-1zm1 0h1v34h-1zm-14 1h1v33h-1zm1 0h1v1h-1z"/><path d="M16 51h5v33h-5zm6 0h1v1h-1zm1 0h6v33h-6z"/><path d="M15 52h14v32H15zm14 3h1v6h-1zm0 8h1v1h-1zm0 1h1v1h-1zm0 1h1v19h-1zm4 1h1v1h-1zm0 1h28v15H33z"/><path d="M32 72h29v10H32zm-2 2h1v1h-1z"/><path d="M30 75h31v7H30zM3 81h1v1H3zm1 0h1v2H4zm58 0h1v1h-1zM3 82h1v1H3zm2 0h1v1H5zm1 0h54v1H6zm54 0h1v1h-1zm1 0h1v1h-1zm1 0h1v1h-1zM3 83h1v1H3zm1 0h1v1H4zm1 0h1v1H5zm1 0h1v1H6zm1 0h52v1H7zm52 0h1v1h-1zm1 0h1v1h-1zm1 0h1v1h-1zm1 0h1v1h-1zM5 84h1v1H5zm1 0h1v1H6zm1 0h1v1H7zm1 0h50v1H8zm50 0h1v1h-1zm1 0h1v1h-1zm1 0h1v1h-1z"/></g><path fill="#c23" d="M32 18h2v1h-2zm0 8h1v1h-1zm1 0h1v1h-1zm-3 2h1v1h-1zm1 0h1v1h-1zm1 0h1v1h-1zm5 0h1v1h-1zm-6 1h1v1h-1zm-1 1h1v1h-1zm18 0h1v1h-1zm1 1h1v1h-1zm1 1h1v1h-1zm-31 2h1v1h-1zm33 0h1v1h-1zm-39 3h1v1h-1zm30 1h1v1h-1zm-10 2h1v1h-1zm-18 3h1v1h-1zm15 0h1v1h-1zm1 0h1v1h-1zm7 0h1v1h-1zm1 0h1v1h-1zm-8 1h1v1h-1zm2 0h1v1h-1zm1 0h1v1h-1zm1 0h1v1h-1zm-4 1h1v1h-1zm-1 1h1v1h-1zm-3 1h1v1h-1z"/><path fill="#c99" d="M29 19h1v1h-1zm-1 13h1v1h-1zm-11 5h1v1h-1zm17 11h1v1h-1zm-20 2h1v1h-1zm2 0h1v1h-1zm9 0h1v1h-1z"/><path fill="#d9a" d="M45 31h1v1h-1zM11 45h1v1h-1z"/><path fill="#666" d="M0 88h1v1H0zm1 0h1v1H1zm63 0h1v1h-1zm1 0h1v1h-1zM1 89h1v1H1zm1 0h1v1H2zm1 0h1v1H3zm1 0h58v1H4zm58 0h1v1h-1zm1 0h1v1h-1zm1 0h1v1h-1z"/><path fill="#e89" d="M30 16h1v1h-1zm3 0h1v1h-1zm6 11h1v1h-1zm5 0h1v1h-1zm3 1h1v1h-1zm2 0h1v1h-1zm-3 6h1v1h-1zm-6 5h1v1h-1zm-1 1h1v1h-1zm-2 1h1v1h-1zm-2 1h1v1h-1zm6 0h1v1h-1zm-17 5h1v1h-1z"/><path fill="#b67" d="M27 19h1v1h-1z"/><path fill="#fee" d="M29 20h1v1h-1zm10 6h1v1h-1zm-11 3h1v1h-1zm-3 1h1v1h-1zm12 0h1v1h-1zm7 0h1v1h-1zm9 1h1v1h-1zm-8 1h1v1h-1zm-19 1h1v1h-1zm16 4h1v1h-1zm1 3h1v1h-1zm-8 1h1v1h-1zm-9 4h1v1h-1zm-2 1h1v1h-1zm20 0h1v1h-1zm-27 2h1v1h-1zm12 2h1v1h-1zm-8 1h1v1h-1zm8 0h1v1h-1zm0 1h1v1h-1zm0 1h1v1h-1zm0 1h1v1h-1zm0 7h1v1h-1zm0 1h1v1h-1zm3 9h1v1h-1z"/><path fill="#923" d="M45 30h1v1h-1zM12 46h1v1h-1z"/><path fill="#c56" d="M42 40h1v1h-1zm-9 14h1v1h-1z"/><path fill="#c78" d="M32 69h1v1h-1z"/><path fill="#fcc" d="M31 15h1v1h-1zm3 1h1v1h-1zm8 10h1v1h-1zm1 0h1v1h-1zm-8 1h1v1h-1zm15 1h1v1h-1zm-24 2h1v1h-1zm-3 1h1v1h-1zm-11 2h1v1h-1zm27 6h1v1h-1z"/><path fill="#901" d="M27 18h1v1h-1zm2 0h1v1h-1zm1 1h1v1h-1zm0 1h1v1h-1zm11 8h2v1h-2zm-6 1h1v1h-1zm10 0h1v1h-1zm-12 1h1v1h-1zm13 0h1v1h-1zm-13 1h1v1h-1zm13 0h1v1h-1zm0 1h1v1h-1zm-23 1h1v1h-1zm-6 3h1v1h-1zm32 0h1v1h-1zm-33 1h1v1h-1zm-1 1h1v1h-1zm-3 7h1v1h-1zm25 0h1v1h-1zm-24 1h1v1h-1zm21 0h1v1h-1zm-21 1h1v1h-1zm20 0h1v1h-1zm-18 1h1v1h-1zm14 0h1v1h-1zm4 0h1v1h-1zm-3 1h1v1h-1zm0 1h1v1h-1z"/><path fill="#ebc" d="M34 27h1v1h-1zm2 0h1v1h-1zm-7 13h1v1h-1zm0 3h1v1h-1zm-6 4h1v1h-1z"/><path fill="#701" d="M37 29h1v1h-1zm16 7h1v1h-1zm-5 1h4v1h-4zm-8 8h1v1h-1zm1 0h3v1h-3zm3 0h1v1h-1zm-8 1h1v1h-1zm1 0h2v1h-2zm-2 1h1v1h-1zm-10 2h2v1h-2zm-10 1h1v1h-1zm7 0h1v1h-1z"/><path fill="#e9a" d="M27 16h1v1h-1zm8 2h1v1h-1zm10 9h1v1h-1zm-18 3h1v1h-1zm-3 1h1v1h-1zm-5 2h1v1h-1zm35 0h1v1h-1zm-41 1h1v1h-1zm33 1h1v1h-1zm-8 5h1v1h-1zm3 1h1v1h-1zm-7 1h1v1h-1zm8 0h1v1h-1zm-26 3h1v1h-1z"/><path fill="#edd" d="M28 19h1v1h-1zm1 14h1v1h-1zm0 1h1v1h-1zm-8 1h1v1h-1zm-2 1h1v1h-1zm32 2h1v1h-1zm-6 1h1v1h-1zm-2 7h1v1h-1zm-5 1h1v1h-1zm-25 2h1v1h-1zm13 1h1v1h-1zm7 13h1v1h-1z"/><path fill="#a02" d="M34 20h1v1h-1z"/><path fill="#fcd" d="M41 26h1v1h-1zm7 1h1v1h-1zm-30 6h1v1h-1z"/><path fill="#b78" d="M42 29h1v1h-1zm2 10h1v1h-1z"/><path fill="#a56" d="M43 29h1v1h-1zM28 49h1v1h-1z"/><path fill="#a55" d="M22 34h1v1h-1zm-4 2h1v1h-1zm22 10h1v1h-1zm-16 4h1v1h-1z"/><path fill="#b12" d="M33 38h1v1h-1zm0 1h1v1h-1zm-3 27h1v1h-1z"/><path fill="#888" d="M0 5h1v1H0zm65 0h1v1h-1zM0 6h1v1H0zm65 0h1v1h-1zM0 7h1v1H0zm65 0h1v1h-1zM0 8h1v73H0zm65 0h1v73h-1zM0 81h1v2H0zm65 0h1v2h-1zM0 83h1v1H0zm65 0h1v1h-1zM1 87h1v1H1zm63 0h1v1h-1zM2 88h1v1H2zm61 0h1v1h-1z"/><path fill="#d67" d="M32 17h1v1h-1zm1 0h1v1h-1zm8 10h1v1h-1zm1 0h1v1h-1zm4 1h1v1h-1zm2 1h1v1h-1zm-20 1h1v1h-1zm22 0h1v1h-1zm1 0h1v1h-1zm-26 1h1v1h-1zm27 0h1v1h-1zm-32 2h1v1h-1zm-2 1h1v1h-1zm-4 2h1v1h-1zm28 2h1v1h-1zm-2 2h1v1h-1zm-1 1h1v1h-1zm-2 1h1v1h-1zm3 0h1v1h-1zm2 1h1v1h-1zm-13 2h1v1h-1zm-1 1h1v1h-1zm-5 2h1v1h-1z"/><path fill="#b45" d="M34 21h1v1h-1zm12 12h1v1h-1zM11 44h1v1h-1z"/><path fill="#a67" d="M47 38h1v1h-1z"/></svg>