<svg xmlns="http://www.w3.org/2000/svg" baseProfile="tiny" version="1.2" viewBox="0 0 66 90"><path fill="#555" d="M12 22h1v1h-1zm40 0h1v1h-1zm-37 2h1v1h-1zm34 0h1v1h-1zm-32 4h1v1h-1zm30 0h1v1h-1zm-32 1h1v1h-1zm9 0h1v1h-1zm16 0h1v1h-1zm9 0h1v1h-1zm-30 1h1v1h-1zm26 0h1v1h-1zm-29 1h1v1h-1zm32 0h1v1h-1zm-32 4h1v1h-1zm32 0h1v1h-1zM27 55h1v1h-1zm10 0h1v1h-1zm-16 3h1v1h-1zm22 0h1v1h-1zm-29 2h1v1h-1zm36 0h1v1h-1zm-36 3h1v1h-1zm36 0h1v1h-1zm-39 1h1v1h-1zm9 0h1v1h-1zm24 0h1v1h-1zm9 0h1v1h-1zm-30 1h1v1h-1zm18 0h1v1h-1zm-15 5h1v1h-1zm12 0h1v1h-1z"/><path fill="#fee" d="M28 29h1v1h-1zm8 0h1v1h-1z"/><path fill="#322" d="M21 18h1v1h-1zm22 0h1v1h-1zm-29 3h1v1h-1zm36 0h1v1h-1zm-35 2h1v1h-1zm14 0h1v1h-1zm6 0h1v1h-1zm14 0h1v1h-1zm-37 1h1v1h-1zm8 0h1v1h-1zm3 0h1v1h-1zm6 0h1v1h-1zm1 0h1v1h-1zm4 0h1v1h-1zm1 0h1v1h-1zm6 0h1v1h-1zm3 0h1v1h-1zm8 0h1v1h-1zm-41 1h1v1h-1zm12 0h1v1h-1zm1 0h1v1h-1zm16 0h1v1h-1zm1 0h1v1h-1zm12 0h1v1h-1zm-39 1h1v1h-1zm36 0h1v1h-1zm-28 3h1v1h-1zm20 0h1v1h-1zm-12 1h1v1h-1zm4 0h1v1h-1zm-6 1h1v1h-1zm8 0h1v1h-1zm-10 2h1v1h-1zm2 0h1v1h-1zm8 0h1v1h-1zm2 0h1v1h-1zM28 57h1v1h-1zm8 0h1v1h-1zm-23 1h1v1h-1zm16 0h1v1h-1zm6 0h1v1h-1zm16 0h1v1h-1zm-39 1h1v1h-1zm7 0h1v1h-1zm11 0h1v1h-1zm4 0h1v1h-1zm11 0h1v1h-1zm7 0h1v1h-1zm-28 1h1v1h-1zm16 0h1v1h-1zm-26 2h1v1h-1zm36 0h1v1h-1zm-39 1h1v1h-1zm42 0h1v1h-1zm-34 2h1v1h-1zm26 0h1v1h-1zm-16 2h1v1h-1zm6 0h1v1h-1zm-18 2h1v1h-1zm30 0h1v1h-1zm-31 1h1v1h-1zm32 0h1v1h-1zm-29 1h1v1h-1zm26 0h1v1h-1z"/><path fill="#baa" d="M26 18h1v1h-1zm12 0h1v1h-1zm-27 5h1v1h-1zm42 0h1v1h-1zm-39 6h1v1h-1zm36 0h1v1h-1zm-26 7h1v1h-1zm16 0h1v1h-1zM22 52h1v1h-1zm20 0h1v1h-1zm-26 1h1v1h-1zm32 0h1v1h-1zm-23 2h1v1h-1zm14 0h1v1h-1zm-24 8h1v1h-1zm13 0h1v1h-1zm8 0h1v1h-1zm13 0h1v1h-1zm-26 4h1v1h-1zm18 0h1v1h-1zm-24 4h1v1h-1zm30 0h1v1h-1z"/><path fill="#666" d="M24 19h1v1h-1zm16 0h1v1h-1zm-11 2h1v1h-1zm6 0h1v1h-1zm-16 2h1v1h-1zm26 0h1v1h-1zm-26 2h1v1h-1zm26 0h1v1h-1zm-31 3h1v1h-1zm15 0h1v1h-1zm6 0h1v1h-1zm15 0h1v1h-1zm-39 1h1v1h-1zm42 0h1v1h-1zm-37 4h1v1h-1zm32 0h1v1h-1zm-30 1h1v1h-1zm28 0h1v1h-1zM23 53h1v1h-1zm18 0h1v1h-1zm-27 2h1v1h-1zm36 0h1v1h-1zm-38 2h1v1h-1zm2 0h1v1h-1zm36 0h1v1h-1zm2 0h1v1h-1zm-30 1h1v1h-1zm20 0h1v1h-1zm-13 2h1v1h-1zm6 0h1v1h-1zm-20 4h1v1h-1zm34 0h1v1h-1zm-23 2h1v1h-1zm12 0h1v1h-1zm-14 1h1v1h-1zm3 0h1v1h-1zm10 0h1v1h-1zm3 0h1v1h-1zm-20 1h1v1h-1zm1 0h1v1h-1zm22 0h1v1h-1zm1 0h1v1h-1zm-26 3h1v1h-1zm28 0h1v1h-1zM0 88h1v1H0zm1 0h1v1H1zm63 0h1v1h-1zm1 0h1v1h-1zM1 89h1v1H1zm1 0h1v1H2zm1 0h1v1H3zm1 0h58v1H4zm58 0h1v1h-1zm1 0h1v1h-1zm1 0h1v1h-1z"/><path fill="#777" d="M17 18h1v1h-1zm30 0h1v1h-1zm-20 5h1v1h-1zm10 0h1v1h-1zm-10 3h1v1h-1zm10 0h1v1h-1zm-12 1h1v1h-1zm2 0h1v1h-1zm10 0h1v1h-1zm2 0h1v1h-1zm-22 5h1v1h-1zm30 0h1v1h-1zM24 53h1v1h-1zm16 0h1v1h-1zm-12 2h1v1h-1zm8 0h1v1h-1zm-7 1h1v1h-1zm6 0h1v1h-1zm-22 3h1v1h-1zm11 0h1v1h-1zm16 0h1v1h-1zm11 0h1v1h-1zm-26 2h1v1h-1zm2 0h1v1h-1zm4 0h1v1h-1zm2 0h1v1h-1zm4 0h1v1h-1zm2 0h1v1h-1zm-12 1h1v1h-1zm10 0h1v1h-1zm-16 2h1v1h-1zm22 0h1v1h-1zm-13 2h1v1h-1zm4 0h1v1h-1zm-21 2h1v1h-1zm38 0h1v1h-1zm-37 1h1v1h-1zm10 0h1v1h-1zm16 0h1v1h-1zm10 0h1v1h-1zm-26 2h1v1h-1zm16 0h1v1h-1zM0 84h1v1H0zm65 0h1v1h-1zM0 85h1v1H0zm65 0h1v1h-1zM0 86h1v1H0zm65 0h1v1h-1zM0 87h1v1H0zm65 0h1v1h-1z"/><path fill="#cbb" d="M15 22h1v1h-1zm34 0h1v1h-1zm-36 6h1v1h-1zm38 0h1v1h-1zm-20 1h1v1h-1zm2 0h1v1h-1zm-8 4h1v1h-1zm14 0h1v1h-1zM20 54h1v1h-1zm24 0h1v1h-1zm-24 2h1v1h-1zm24 0h1v1h-1zm-31 4h1v1h-1zm38 0h1v1h-1zm-34 6h1v1h-1zm4 0h1v1h-1zm22 0h1v1h-1zm4 0h1v1h-1z"/><path fill="#dcc" d="M15 26h1v1h-1zm34 0h1v1h-1zm-27 2h1v1h-1zm20 0h1v1h-1zm-16 1h1v1h-1zm12 0h1v1h-1zm-18 5h1v1h-1zm24 0h1v1h-1zM14 54h1v1h-1zm36 0h1v1h-1zm-35 8h1v1h-1zm34 0h1v1h-1zm-29 4h1v1h-1zm24 0h1v1h-1z"/><path fill="#110" d="M17 35h1v1h-1zm7 0h1v1h-1zm16 0h1v1h-1zm7 0h1v1h-1zM15 69h1v1h-1zm34 0h1v1h-1zm-32 1h1v1h-1zm8 0h1v1h-1zm14 0h1v1h-1zm8 0h1v1h-1zm-27 1h1v1h-1zm1 0h1v1h-1zm22 0h1v1h-1zm1 0h1v1h-1z"/><path fill="#877" d="M25 18h1v1h-1zm14 0h1v1h-1zm-12 1h1v1h-1zm10 0h1v1h-1zM13 29h1v1h-1zm38 0h1v1h-1zm-30 4h1v1h-1zm22 0h1v1h-1zM15 54h1v1h-1zm34 0h1v1h-1zm-24 2h1v1h-1zm14 0h1v1h-1zm-16 5h1v1h-1zm18 0h1v1h-1z"/><g fill="#fff"><path d="M4 1h1v1H4zm1 0h1v1H5zm1 0h54v1H6zm54 0h1v1h-1zm1 0h1v1h-1zM3 2h1v1H3zm1 0h1v1H4zm1 0h56v1H5zm56 0h1v1h-1zm1 0h1v1h-1zM2 3h1v1H2zm1 0h1v1H3zm1 0h2v1H4zm2 0h54v1H6zm54 0h2v1h-2zm2 0h1v1h-1zm1 0h1v1h-1zM2 4h1v2H2zm1 0h1v3H3zm1 0h1v1H4zm1 0h56v13H5zm56 0h1v1h-1zm1 0h1v3h-1zm1 0h1v2h-1z"/><path d="M4 5h58v2H4zM3 7h1v1H3zm1 0h1v1H4zm57 0h1v1h-1zm1 0h1v1h-1zM3 8h1v73H3zm1 0h1v73H4zm57 0h1v74h-1zm1 0h1v73h-1zM5 17h11v1H5zm11 0h1v1h-1zm10 0h13v1H26zm22 0h1v1h-1zm1 0h12v1H49zM5 18h10v1H5zm22 0h1v1h-1zm1 0h9v1h-9zm9 0h1v1h-1zm13 0h11v1H50zM5 19h8v2H5zm8 0h1v1h-1zm8 0h1v1h-1zm8 0h7v1h-7zm14 0h1v1h-1zm8 0h1v1h-1zm1 0h9v2h-9zm-22 1h5v1h-5zM5 21h7v1H5zm16 0h1v1h-1zm9 0h1v1h-1zm1 0h3v2h-3zm3 0h1v1h-1zm9 0h1v1h-1zm10 0h8v1h-8zM5 22h6v60H5zm6 0h1v1h-1zm7 0h1v1h-1zm1 0h1v1h-1zm4 0h1v1h-1zm1 0h1v1h-1zm16 0h1v1h-1zm1 0h1v1h-1zm4 0h1v1h-1zm1 0h1v1h-1zm7 0h1v1h-1zm1 0h7v60h-7zm-37 1h1v1h-1zm8 0h1v1h-1zm6 0h1v1h-1zm1 0h1v61h-1zm1 0h1v1h-1zm6 0h1v1h-1zm8 0h1v1h-1zm-31 1h1v2h-1zm9 0h1v1h-1zm14 0h1v1h-1zm9 0h1v2h-1zm-28 1h1v1h-1zm1 0h1v3h-1zm5 0h1v4h-1zm12 0h1v4h-1zm5 0h1v3h-1zm1 0h1v1h-1zm-28 1h1v1h-1z"/><path d="M20 26h3v2h-3zm22 0h3v2h-3zm6 0h1v1h-1zm-32 1h1v1h-1zm32 0h1v1h-1zm-32 1h1v1h-1zm5 0h1v1h-1zm22 0h1v1h-1zm5 0h1v1h-1zm-32 1h1v1h-1zm9 0h1v1h-1zm14 0h1v1h-1zm9 0h1v1h-1zm-31 1h1v1h-1zm7 0h1v1h-1zm1 0h1v1h-1zm6 0h1v1h-1zm2 0h1v1h-1zm6 0h1v1h-1zm1 0h1v1h-1zm7 0h1v1h-1zm-36 1h1v1h-1zm7 0h1v1h-1zm1 0h1v1h-1zm1 0h1v1h-1zm2 0h2v1h-2zm9 0h3v27h-3zm10 0h2v1h-2zm3 0h1v1h-1zm1 0h1v1h-1zm1 0h1v1h-1zm7 0h1v1h-1zm-42 1h1v25h-1zm19 0h1v1h-1zm4 0h1v1h-1zm19 0h8v25h-8zm-41 1h1v23h-1z"/><path d="M30 33h5v23h-5zm22 0h9v23h-9zm-39 1h1v21h-1z"/><path d="M29 34h7v21h-7zm22 0h10v21H51zm-37 1h1v19h-1zm13 0h1v1h-1z"/><path d="M28 35h9v19h-9zm9 0h1v1h-1zm13 0h11v19H50zm-35 1h2v17h-2zm10 0h1v1h-1z"/><path d="M26 36h13v17H26zm13 0h1v1h-1zm9 0h13v17H48z"/><path d="M17 37h44v15H17zm0 15h1v1h-1zm8 0h1v1h-1zm14 0h1v1h-1zm8 0h1v1h-1zm-20 1h1v1h-1zm10 0h1v1h-1zm-7 3h1v1h-1zm4 0h1v1h-1zm-23 1h1v1h-1zm7 0h1v1h-1zm1 0h1v1h-1zm1 0h1v1h-1zm1 0h1v1h-1zm1 0h2v1h-2zm19 0h2v1h-2zm2 0h1v1h-1zm1 0h1v1h-1zm1 0h1v1h-1zm1 0h1v1h-1zm7 0h1v1h-1zm-36 1h1v1h-1zm7 0h1v1h-1zm1 0h1v1h-1zm6 0h1v1h-1zm2 0h1v1h-1zm6 0h1v1h-1zm1 0h1v1h-1zm7 0h1v1h-1zm-31 1h1v1h-1zm9 0h1v1h-1zm14 0h1v1h-1zm9 0h1v1h-1zm-32 1h1v1h-1zm5 0h1v1h-1zm5 0h1v4h-1zm12 0h1v4h-1zm5 0h1v1h-1zm5 0h1v1h-1zm-32 1h1v1h-1zm4 0h3v2h-3zm22 0h3v2h-3zm6 0h1v1h-1zm-32 1h1v1h-1zm32 0h1v1h-1zm-32 1h1v2h-1zm4 0h1v1h-1zm1 0h1v1h-1zm22 0h1v1h-1zm1 0h1v1h-1zm4 0h1v2h-1zm-23 1h1v1h-1zm14 0h1v1h-1zm-22 1h1v1h-1zm8 0h1v1h-1zm6 0h1v1h-1zm2 0h1v1h-1zm6 0h1v1h-1zm8 0h1v1h-1zm-36 1h1v1h-1zm7 0h1v1h-1zm1 0h1v1h-1zm4 0h1v1h-1zm1 0h1v1h-1zm7 0h3v18h-3zm9 0h1v1h-1zm1 0h1v1h-1zm4 0h1v1h-1zm1 0h1v1h-1zm7 0h1v1h-1zm-42 1h1v17h-1zm10 0h1v1h-1zm22 0h1v1h-1zm10 0h8v15h-8zm-41 1h1v16h-1z"/><path d="M30 68h5v16h-5zm22 0h9v14h-9zm-39 1h1v1h-1zm7 0h1v1h-1zm1 0h1v1h-1z"/><path d="M29 69h7v15h-7zm14 0h1v1h-1zm1 0h1v1h-1zm7 0h1v1h-1zm-38 1h2v14h-2z"/><path d="M28 70h9v14h-9zm22 0h11v12H50zm-35 1h1v13h-1zm1 0h1v1h-1z"/><path d="M26 71h13v13H26zm22 0h1v1h-1zm1 0h12v11H49z"/><path d="M16 72h45v10H16zM3 81h1v1H3zm1 0h1v2H4zm58 0h1v1h-1zM3 82h1v1H3zm2 0h1v1H5zm1 0h54v1H6zm54 0h1v1h-1zm1 0h1v1h-1zm1 0h1v1h-1zM3 83h1v1H3zm1 0h1v1H4zm1 0h1v1H5zm1 0h1v1H6zm1 0h52v1H7zm52 0h1v1h-1zm1 0h1v1h-1zm1 0h1v1h-1zm1 0h1v1h-1zM5 84h1v1H5zm1 0h1v1H6zm1 0h1v1H7zm1 0h50v1H8zm50 0h1v1h-1zm1 0h1v1h-1zm1 0h1v1h-1z"/></g><path fill="#aaa" d="M0 2h1v1H0zm65 0h1v1h-1zM19 17h1v1h-1zm4 0h1v1h-1zm18 0h1v1h-1zm4 0h1v1h-1zm-32 3h1v1h-1zm38 0h1v1h-1zm-36 1h1v1h-1zm34 0h1v1h-1zm-34 4h1v1h-1zm10 0h1v1h-1zm3 0h1v1h-1zm8 0h1v1h-1zm3 0h1v1h-1zm10 0h1v1h-1zm-34 3h1v1h-1zm34 0h1v1h-1zm-22 2h1v1h-1zm1 0h1v1h-1zm8 0h1v1h-1zm1 0h1v1h-1zm-18 2h1v1h-1zm6 0h1v1h-1zm14 0h1v1h-1zm6 0h1v1h-1zm-31 2h1v1h-1zm36 0h1v1h-1zM20 52h1v1h-1zm1 0h1v1h-1zm22 0h1v1h-1zm1 0h1v1h-1zm-14 5h1v1h-1zm4 0h1v1h-1zm-11 1h1v1h-1zm18 0h1v1h-1zm-27 1h1v1h-1zm36 0h1v1h-1zm-25 4h1v1h-1zm14 0h1v1h-1zm-27 4h1v1h-1zm40 0h1v1h-1zM1 86h1v1H1zm63 0h1v1h-1zM2 87h1v1H2zm1 0h1v1H3zm1 0h1v1H4zm1 0h56v1H5zm56 0h1v1h-1zm1 0h1v1h-1zm1 0h1v1h-1zM4 88h1v1H4zm1 0h56v1H5zm56 0h1v1h-1z"/><path fill="#999" d="M0 3h1v1H0zm65 0h1v1h-1zM0 4h1v1H0zm65 0h1v1h-1zM20 17h1v1h-1zm1 0h1v1h-1zm1 0h1v1h-1zm20 0h1v1h-1zm1 0h1v1h-1zm1 0h1v1h-1zm-28 1h1v1h-1zm32 0h1v1h-1zm-18 4h1v1h-1zm4 0h1v1h-1zm-20 2h1v1h-1zm36 0h1v1h-1zm-19 1h1v1h-1zm2 0h1v1h-1zm-17 5h1v1h-1zm32 0h1v1h-1zm-31 1h1v1h-1zm13 0h1v1h-1zm4 0h1v1h-1zm13 0h1v1h-1zm-24 3h1v1h-1zm18 0h1v1h-1zm-23 2h1v1h-1zm28 0h1v1h-1zM27 54h1v1h-1zm10 0h1v1h-1zm-6 6h1v1h-1zm2 0h1v1h-1zm-17 8h1v1h-1zm7 0h1v1h-1zm18 0h1v1h-1zm7 0h1v1h-1zm-30 1h1v1h-1zm28 0h1v1h-1zM3 88h1v1H3zm59 0h1v1h-1z"/><path fill="#433" d="M22 18h1v1h-1zm20 0h1v1h-1zm-23 2h1v1h-1zm26 0h1v1h-1zm-17 1h1v1h-1zm8 0h1v1h-1zm-10 1h1v1h-1zm2 0h1v1h-1zm1 0h1v1h-1zm6 0h1v1h-1zm1 0h1v1h-1zm2 0h1v1h-1zm-20 2h1v1h-1zm28 0h1v1h-1zm-23 4h1v1h-1zm18 0h1v1h-1zm-14 1h1v1h-1zm10 0h1v1h-1zm-8 3h1v1h-1zm6 0h1v1h-1zm-11 2h1v1h-1zm3 0h1v1h-1zm10 0h1v1h-1zm3 0h1v1h-1zm-20 2h1v1h-1zm1 0h1v1h-1zm22 0h1v1h-1zm1 0h1v1h-1zM24 54h1v1h-1zm16 0h1v1h-1zm-19 1h1v1h-1zm22 0h1v1h-1zm-29 1h1v1h-1zm36 0h1v1h-1zm-37 1h1v1h-1zm38 0h1v1h-1zm-36 1h1v1h-1zm11 0h1v1h-1zm12 0h1v1h-1zm11 0h1v1h-1zm-27 6h1v1h-1zm2 0h1v1h-1zm16 0h1v1h-1zm2 0h1v1h-1zm-14 2h1v1h-1zm8 0h1v1h-1zm-13 5h1v1h-1zm18 0h1v1h-1z"/><path fill="#544" d="M23 18h1v1h-1zm18 0h1v1h-1zm-25 1h1v1h-1zm32 0h1v1h-1zm-22 1h1v1h-1zm12 0h1v1h-1zm-18 3h1v1h-1zm1 0h1v1h-1zm1 0h1v1h-1zm20 0h1v1h-1zm1 0h1v1h-1zm1 0h1v1h-1zm-30 2h1v1h-1zm36 0h1v1h-1zm-23 3h1v1h-1zm10 0h1v1h-1zM20 53h1v1h-1zm1 0h1v1h-1zm22 0h1v1h-1zm1 0h1v1h-1zm-22 2h1v1h-1zm20 0h1v1h-1zm-14 1h1v1h-1zm8 0h1v1h-1zm-6 2h1v1h-1zm4 0h1v1h-1zm-16 1h1v1h-1zm28 0h1v1h-1zm-27 1h1v1h-1zm26 0h1v1h-1zm-22 3h1v1h-1zm18 0h1v1h-1zm-26 2h1v1h-1zm34 0h1v1h-1zm-33 1h1v1h-1zm32 0h1v1h-1z"/><path fill="#221" d="M22 20h1v1h-1zm20 0h1v1h-1zm-26 2h1v1h-1zm32 0h1v1h-1zm-18 3h1v1h-1zm4 0h1v1h-1zm-7 34h1v1h-1zm10 0h1v1h-1zm-20 2h1v1h-1zm30 0h1v1h-1zm-20 8h1v1h-1zm10 0h1v1h-1z"/><path fill="#edd" d="M17 59h1v1h-1zm30 0h1v1h-1z"/><path fill="#ddd" d="M3 0h1v1H3zm1 0h1v1H4zm1 0h56v1H5zm56 0h1v1h-1zm1 0h1v1h-1zM2 1h1v1H2zm61 0h1v1h-1zM1 6h1v1H1zm63 0h1v1h-1zM1 7h1v1H1zm63 0h1v1h-1zM1 8h1v1H1zm63 0h1v1h-1zM1 9h1v73H1zm63 0h1v73h-1zm-47 8h1v1h-1zm30 0h1v1h-1zm-32 1h1v1h-1zm34 0h1v1h-1zm-21 1h1v1h-1zm8 0h1v1h-1zm-11 1h1v1h-1zm4 0h1v1h-1zm6 0h1v1h-1zm4 0h1v1h-1zm-19 2h1v1h-1zm1 0h1v1h-1zm22 0h1v1h-1zm1 0h1v1h-1zm-22 3h1v1h-1zm20 0h1v1h-1zm-29 2h1v1h-1zm6 0h1v1h-1zm26 0h1v1h-1zm6 0h1v1h-1zm-34 2h1v1h-1zm30 0h1v1h-1zm-29 1h1v1h-1zm28 0h1v1h-1zm-25 2h1v1h-1zm22 0h1v1h-1zm-25 1h1v1h-1zm28 0h1v1h-1zm-25 1h1v1h-1zm22 0h1v1h-1zm-28 1h1v1h-1zm34 0h1v1h-1zm-32 1h1v1h-1zm30 0h1v1h-1zM18 52h1v1h-1zm6 0h1v1h-1zm16 0h1v1h-1zm6 0h1v1h-1zm-29 3h1v1h-1zm7 0h1v1h-1zm16 0h1v1h-1zm7 0h1v1h-1zm-35 1h1v1h-1zm4 0h1v1h-1zm32 0h1v1h-1zm4 0h1v1h-1zm-37 1h1v1h-1zm34 0h1v1h-1zm-36 4h1v1h-1zm6 0h1v1h-1zm26 0h1v1h-1zm6 0h1v1h-1zm-32 8h1v1h-1zm26 0h1v1h-1zm-20 2h1v1h-1zm14 0h1v1h-1zM1 82h1v1H1zm63 0h1v1h-1zM1 83h1v1H1zm63 0h1v1h-1zM2 84h1v1H2zm61 0h1v1h-1zM3 85h1v1H3zm1 0h1v1H4zm1 0h1v1H5zm1 0h1v1H6zm1 0h2v1H7zm50 0h2v1h-2zm2 0h1v1h-1zm1 0h1v1h-1zm1 0h1v1h-1zm1 0h1v1h-1z"/><path fill="#eee" d="M3 1h1v1H3zm59 0h1v1h-1zM2 2h1v1H2zm61 0h1v1h-1zM1 3h1v1H1zm63 0h1v1h-1zM1 4h1v1H1zm63 0h1v1h-1zM1 5h1v1H1zm63 0h1v1h-1zM2 6h1v1H2zm61 0h1v1h-1zM2 7h1v1H2zm61 0h1v1h-1zM2 8h1v74H2zm61 0h1v74h-1zm-38 9h1v1h-1zm14 0h1v1h-1zm-19 2h1v1h-1zm2 0h1v1h-1zm20 0h1v1h-1zm2 0h1v1h-1zm-27 1h1v1h-1zm30 0h1v1h-1zm-27 1h1v1h-1zm2 0h1v1h-1zm4 0h1v1h-1zm12 0h1v1h-1zm4 0h1v1h-1zm2 0h1v1h-1zm-22 1h1v1h-1zm5 0h1v1h-1zm10 0h1v1h-1zm5 0h1v1h-1zm-28 1h1v1h-1zm10 0h1v1h-1zm16 0h1v1h-1zm10 0h1v1h-1zm-24 1h1v1h-1zm2 0h1v1h-1zm8 0h1v1h-1zm2 0h1v1h-1zm-25 2h1v1h-1zm6 0h1v1h-1zm26 0h1v1h-1zm6 0h1v1h-1zm-31 2h1v1h-1zm24 0h1v1h-1zm-30 2h1v1h-1zm36 0h1v1h-1zm-35 1h1v1h-1zm6 0h1v1h-1zm3 0h1v1h-1zm3 0h1v1h-1zm10 0h1v1h-1zm3 0h1v1h-1zm3 0h1v1h-1zm6 0h1v1h-1zm-33 1h1v1h-1zm10 0h1v1h-1zm12 0h1v1h-1zm10 0h1v1h-1zm-31 1h1v1h-1zm7 0h1v1h-1zm5 0h1v1h-1zm6 0h1v1h-1zm5 0h1v1h-1zm7 0h1v1h-1zm-19 1h1v1h-1zm8 0h1v1h-1zM15 53h1v1h-1zm34 0h1v1h-1zm-21 1h1v1h-1zm8 0h1v1h-1zm-7 1h1v1h-1zm6 0h1v1h-1zm-9 1h1v1h-1zm12 0h1v1h-1zm-14 1h1v1h-1zm3 0h1v1h-1zm10 0h1v1h-1zm3 0h1v1h-1zm-26 1h1v1h-1zm4 0h1v1h-1zm28 0h1v1h-1zm4 0h1v1h-1zm-22 1h1v1h-1zm8 0h1v1h-1zm-16 1h1v1h-1zm24 0h1v1h-1zm-31 2h1v1h-1zm6 0h1v1h-1zm26 0h1v1h-1zm6 0h1v1h-1zm-29 1h1v1h-1zm20 0h1v1h-1zm-16 1h1v1h-1zm2 0h1v1h-1zm8 0h1v1h-1zm2 0h1v1h-1zm-24 1h1v1h-1zm10 0h1v1h-1zm16 0h1v1h-1zm10 0h1v1h-1zm-28 1h1v2h-1zm5 0h1v1h-1zm10 0h1v1h-1zm5 0h1v2h-1zm-22 1h1v1h-1zm6 0h1v1h-1zm4 0h1v1h-1zm4 0h1v1h-1zm4 0h1v1h-1zm6 0h1v1h-1zm-27 1h1v1h-1zm30 0h1v1h-1zm-25 1h1v1h-1zm20 0h1v1h-1zm-15 1h1v1h-1zm10 0h1v1h-1zM2 82h1v1H2zm61 0h1v1h-1zM2 83h1v1H2zm61 0h1v1h-1zM3 84h1v1H3zm1 0h1v1H4zm57 0h1v1h-1zm1 0h1v1h-1zM9 85h48v1H9z"/><path fill="#766" d="M24 18h1v1h-1zm16 0h1v1h-1zm-12 2h1v1h-1zm8 0h1v1h-1zm-11 2h1v1h-1zm14 0h1v1h-1zm-10 3h1v1h-1zm6 0h1v1h-1zm-10 1h1v1h-1zm14 0h1v1h-1zm-8 1h1v1h-1zm2 0h1v1h-1zm-14 1h1v1h-1zm26 0h1v1h-1zm-20 3h1v1h-1zm14 0h1v1h-1zm-21 1h1v1h-1zm28 0h1v1h-1zm-23 4h1v1h-1zm18 0h1v1h-1zM26 54h1v1h-1zm12 0h1v1h-1zm-19 1h1v1h-1zm26 0h1v1h-1zm-22 1h1v1h-1zm18 0h1v1h-1zm-30 3h1v1h-1zm42 0h1v1h-1zm-36 1h1v1h-1zm30 0h1v1h-1zm-22 2h1v1h-1zm6 0h1v1h-1zm2 0h1v1h-1zm6 0h1v1h-1zm-13 3h1v1h-1zm12 0h1v1h-1zm-16 3h1v1h-1zm20 0h1v1h-1z"/><path fill="#998" d="M28 27h1v1h-1zm8 0h1v1h-1zM23 62h1v1h-1zm18 0h1v1h-1zm-27 4h1v1h-1zm36 0h1v1h-1z"/><path fill="#ccc" d="M1 0h1v1H1zm1 0h1v1H2zm61 0h1v1h-1zm1 0h1v1h-1zM1 2h1v1H1zm63 0h1v1h-1zM24 17h1v1h-1zm16 0h1v1h-1zm-21 2h1v1h-1zm26 0h1v1h-1zm-33 2h1v1h-1zm40 0h1v1h-1zm-34 2h1v1h-1zm28 0h1v1h-1zm-29 1h1v1h-1zm14 0h1v1h-1zm2 0h1v1h-1zm14 0h1v1h-1zm-34 1h1v1h-1zm38 0h1v1h-1zm-36 2h1v1h-1zm34 0h1v1h-1zm-37 5h1v1h-1zm8 0h1v1h-1zm24 0h1v1h-1zm8 0h1v1h-1zm-30 2h1v1h-1zm20 0h1v1h-1zM23 52h1v1h-1zm18 0h1v1h-1zm-15 1h1v1h-1zm12 0h1v1h-1zm-17 1h1v1h-1zm22 0h1v1h-1zm-30 1h1v1h-1zm38 0h1v1h-1zm-30 1h1v1h-1zm22 0h1v1h-1zm-17 3h1v1h-1zm5 0h1v1h-1zm2 0h1v1h-1zm5 0h1v1h-1zm-23 2h1v1h-1zm34 0h1v1h-1zm-36 2h1v1h-1zm38 0h1v1h-1zm-34 1h1v1h-1zm30 0h1v1h-1zm-32 2h1v1h-1zm34 0h1v1h-1zm-33 1h1v1h-1zm3 0h1v1h-1zm26 0h1v1h-1zm3 0h1v1h-1zm-24 1h1v1h-1zm5 0h1v1h-1zm6 0h1v1h-1zm5 0h1v1h-1zm-17 1h1v1h-1zm5 0h1v1h-1zm8 0h1v1h-1zm5 0h1v1h-1zM1 84h1v1H1zm63 0h1v1h-1zM2 85h1v1H2zm61 0h1v1h-1zM4 86h1v1H4zm1 0h1v1H5zm1 0h1v1H6zm1 0h52v1H7zm52 0h1v1h-1zm1 0h1v1h-1zm1 0h1v1h-1z"/><path fill="#655" d="M18 18h1v1h-1zm28 0h1v1h-1zm-20 1h1v1h-1zm12 0h1v1h-1zm-24 1h1v1h-1zm9 0h1v1h-1zm18 0h1v1h-1zm9 0h1v1h-1zm-32 1h1v1h-1zm9 0h1v1h-1zm10 0h1v1h-1zm9 0h1v1h-1zm-20 2h1v1h-1zm12 0h1v1h-1zm-14 1h1v1h-1zm16 0h1v1h-1zm-23 1h1v1h-1zm30 0h1v1h-1zm-32 5h1v1h-1zm11 0h1v1h-1zm12 0h1v1h-1zm11 0h1v1h-1zm-25 2h1v1h-1zm16 0h1v1h-1zm-21 4h1v1h-1zm26 0h1v1h-1zM19 53h1v1h-1zm26 0h1v1h-1zm-29 1h1v1h-1zm2 0h1v1h-1zm28 0h1v1h-1zm2 0h1v1h-1zm-32 1h1v1h-1zm32 0h1v1h-1zm-35 1h1v1h-1zm38 0h1v1h-1zm-25 1h1v1h-1zm12 0h1v1h-1zm-18 1h1v1h-1zm24 0h1v1h-1zm-17 5h1v1h-1zm10 0h1v1h-1z"/><path fill="#444" d="M19 18h1v1h-1zm26 0h1v1h-1zm-18 2h1v1h-1zm10 0h1v1h-1zm-16 4h1v1h-1zm22 0h1v1h-1zm-22 5h1v1h-1zm22 0h1v1h-1zm-16 3h1v1h-1zm10 0h1v1h-1zm-15 4h1v1h-1zm20 0h1v1h-1zM25 54h1v1h-1zm14 0h1v1h-1zm-19 1h1v1h-1zm24 0h1v1h-1zm-27 1h1v1h-1zm30 0h1v1h-1zm-22 1h1v1h-1zm4 0h1v1h-1zm6 0h1v1h-1zm4 0h1v1h-1zm-12 3h1v1h-1zm10 0h1v1h-1zm-20 3h1v1h-1zm30 0h1v1h-1z"/><path fill="#776" d="M15 19h1v1h-1zm34 0h1v1h-1zm-18 7h1v1h-1zm2 0h1v1h-1zm-19 5h1v1h-1zm36 0h1v1h-1zM18 53h1v1h-1zm28 0h1v1h-1zM29 63h1v1h-1zm6 0h1v1h-1z"/><path fill="#333" d="M17 19h1v1h-1zm30 0h1v1h-1zm-23 2h1v1h-1zm16 0h1v1h-1zm-27 1h1v1h-1zm38 0h1v1h-1zm-39 1h1v1h-1zm40 0h1v1h-1zm-38 4h1v1h-1zm36 0h1v1h-1zm-30 2h1v1h-1zm24 0h1v1h-1zm-32 2h1v1h-1zm40 0h1v1h-1zM17 54h1v1h-1zm30 0h1v1h-1zm-29 2h1v1h-1zm28 0h1v1h-1zm-34 2h1v1h-1zm40 0h1v1h-1zm-29 1h1v1h-1zm18 0h1v1h-1zm-27 2h1v1h-1zm36 0h1v1h-1zm-23 3h1v1h-1zm10 0h1v1h-1z"/><path fill="#211" d="M20 20h1v1h-1zm24 0h1v1h-1zm-25 4h1v1h-1zm3 0h1v1h-1zm5 0h1v1h-1zm10 0h1v1h-1zm5 0h1v1h-1zm3 0h1v1h-1zm-33 1h1v1h-1zm6 0h1v1h-1zm28 0h1v1h-1zm6 0h1v1h-1zm-41 1h1v1h-1zm1 0h1v1h-1zm5 0h1v1h-1zm1 0h1v1h-1zm6 0h1v1h-1zm6 0h1v1h-1zm4 0h1v1h-1zm6 0h1v1h-1zm6 0h1v1h-1zm1 0h1v1h-1zm5 0h1v1h-1zm1 0h1v1h-1zm-42 1h1v1h-1zm1 0h1v1h-1zm5 0h1v1h-1zm1 0h1v1h-1zm6 0h1v1h-1zm6 0h1v1h-1zm4 0h1v1h-1zm6 0h1v1h-1zm6 0h1v1h-1zm1 0h1v1h-1zm5 0h1v1h-1zm1 0h1v1h-1zm-41 1h1v1h-1zm6 0h1v1h-1zm6 0h1v1h-1zm6 0h1v1h-1zm4 0h1v1h-1zm6 0h1v1h-1zm6 0h1v1h-1zm6 0h1v1h-1zm-40 1h1v1h-1zm7 0h1v1h-1zm4 0h1v1h-1zm18 0h1v1h-1zm4 0h1v1h-1zm7 0h1v1h-1zm-32 1h1v1h-1zm9 0h1v1h-1zm6 0h1v1h-1zm9 0h1v1h-1zm-31 1h1v1h-1zm38 0h1v1h-1zm-37 1h1v1h-1zm36 0h1v1h-1zm-35 1h1v1h-1zm34 0h1v1h-1zm-34 1h1v1h-1zm2 0h1v1h-1zm30 0h1v1h-1zm2 0h1v1h-1zm-24 1h1v1h-1zm14 0h1v1h-1zM24 56h1v1h-1zm16 0h1v1h-1zm-20 3h1v1h-1zm1 0h1v1h-1zm1 0h1v1h-1zm20 0h1v1h-1zm1 0h1v1h-1zm1 0h1v1h-1zm-32 1h1v1h-1zm11 0h1v1h-1zm18 0h1v1h-1zm11 0h1v1h-1zm-41 1h1v1h-1zm1 0h1v1h-1zm6 0h1v1h-1zm6 0h1v1h-1zm6 0h1v1h-1zm4 0h1v1h-1zm6 0h1v1h-1zm6 0h1v1h-1zm6 0h1v1h-1zm1 0h1v1h-1zm-42 1h1v1h-1zm1 0h1v1h-1zm5 0h1v1h-1zm1 0h1v1h-1zm6 0h1v1h-1zm6 0h1v1h-1zm4 0h1v1h-1zm6 0h1v1h-1zm6 0h1v1h-1zm1 0h1v1h-1zm5 0h1v1h-1zm1 0h1v1h-1zm-41 1h1v1h-1zm6 0h1v1h-1zm6 0h1v1h-1zm6 0h1v1h-1zm4 0h1v1h-1zm6 0h1v1h-1zm6 0h1v1h-1zm6 0h1v1h-1zm-40 1h1v1h-1zm6 0h1v1h-1zm1 0h1v1h-1zm4 0h1v1h-1zm7 0h1v1h-1zm4 0h1v1h-1zm7 0h1v1h-1zm4 0h1v1h-1zm1 0h1v1h-1zm6 0h1v1h-1zm-23 1h1v1h-1zm1 0h1v1h-1zm4 0h1v1h-1zm1 0h1v1h-1zm-22 1h1v1h-1zm38 0h1v1h-1zm-37 1h1v1h-1zm36 0h1v1h-1zm-35 1h1v1h-1zm13 0h1v1h-1zm8 0h1v1h-1zm13 0h1v1h-1zm-24 1h1v1h-1zm14 0h1v1h-1zm-19 1h2v1h-2zm2 0h1v1h-1zm20 0h1v1h-1zm1 0h2v1h-2z"/><path fill="#bba" d="M23 33h1v1h-1zm18 0h1v1h-1zm-22 1h1v1h-1zm26 0h1v1h-1zM18 68h1v1h-1zm28 0h1v1h-1z"/><path fill="#888" d="M0 5h1v1H0zm65 0h1v1h-1zM0 6h1v1H0zm65 0h1v1h-1zM0 7h1v1H0zm65 0h1v1h-1zM0 8h1v73H0zm65 0h1v73h-1zM18 19h1v1h-1zm28 0h1v1h-1zm-30 1h1v1h-1zm2 0h1v1h-1zm28 0h1v1h-1zm2 0h1v1h-1zm-34 2h1v1h-1zm36 0h1v1h-1zm-27 1h1v1h-1zm18 0h1v1h-1zm-28 1h1v1h-1zm38 0h1v1h-1zm-28 2h1v1h-1zm5 0h1v1h-1zm1 0h1v1h-1zm6 0h1v1h-1zm1 0h1v1h-1zm5 0h1v1h-1zm-18 1h1v1h-1zm6 0h1v1h-1zm6 0h1v1h-1zm6 0h1v1h-1zm-10 1h1v1h-1zm2 0h1v1h-1zm-10 2h1v1h-1zm18 0h1v1h-1zm-21 3h1v1h-1zm24 0h1v1h-1zm-18 2h1v1h-1zm12 0h1v1h-1zM17 53h1v1h-1zm30 0h1v1h-1zm-24 1h1v1h-1zm18 0h1v1h-1zm-18 1h1v1h-1zm18 0h1v1h-1zm-24 2h1v1h-1zm30 0h1v1h-1zm-28 1h1v1h-1zm26 0h1v1h-1zm-16 3h1v1h-1zm6 0h1v1h-1zm-7 1h1v1h-1zm1 0h1v1h-1zm6 0h1v1h-1zm1 0h1v1h-1zm-17 1h1v1h-1zm12 0h1v1h-1zm2 0h1v1h-1zm12 0h1v1h-1zm-18 2h1v1h-1zm10 0h1v1h-1zm-12 1h1v1h-1zm14 0h1v1h-1zm-21 1h1v1h-1zm28 0h1v1h-1zM0 81h1v2H0zm65 0h1v2h-1zM0 83h1v1H0zm65 0h1v1h-1zM1 87h1v1H1zm63 0h1v1h-1zM2 88h1v1H2zm61 0h1v1h-1z"/><path fill="#111" d="M21 20h1v1h-1zm22 0h1v1h-1zm-13 9h1v1h-1zm4 0h1v1h-1zm-22 1h1v1h-1zm9 0h1v1h-1zm22 0h1v1h-1zm9 0h1v1h-1zm-23 1h1v1h-1zm6 0h1v1h-1zm-22 1h1v1h-1zm15 0h1v1h-1zm8 0h1v1h-1zm15 0h1v1h-1zm-37 1h1v1h-1zm13 0h1v1h-1zm10 0h1v1h-1zm13 0h1v1h-1zm-34 1h1v1h-1zm9 0h1v1h-1zm1 0h1v1h-1zm12 0h1v1h-1zm1 0h1v1h-1zm9 0h1v1h-1zm-30 1h1v1h-1zm1 0h1v1h-1zm1 0h2v1h-2zm2 0h1v1h-1zm1 0h1v1h-1zm18 0h1v1h-1zm1 0h1v1h-1zm1 0h2v1h-2zm2 0h1v1h-1zm1 0h1v1h-1zM12 65h1v1h-1zm8 0h1v1h-1zm1 0h1v1h-1zm1 0h1v1h-1zm20 0h1v1h-1zm1 0h1v1h-1zm1 0h1v1h-1zm8 0h1v1h-1zm-23 1h1v1h-1zm6 0h1v1h-1zm-22 1h1v1h-1zm15 0h1v1h-1zm8 0h1v1h-1zm15 0h1v1h-1zm-37 1h1v1h-1zm13 0h1v1h-1zm10 0h1v1h-1zm13 0h1v1h-1zm-34 1h1v1h-1zm10 0h1v1h-1zm12 0h1v1h-1zm10 0h1v1h-1zm-30 1h1v1h-1zm1 0h1v1h-1zm4 0h1v1h-1zm1 0h1v1h-1zm16 0h1v1h-1zm1 0h1v1h-1zm4 0h1v1h-1zm1 0h1v1h-1zm-24 1h1v1h-1zm20 0h1v1h-1z"/><path fill="#554" d="M13 21h1v1h-1zm12 0h1v1h-1zm14 0h1v1h-1zm12 0h1v1h-1zm-24 4h1v1h-1zm10 0h1v1h-1zM22 53h1v1h-1zm20 0h1v1h-1zM26 68h1v1h-1zm12 0h1v1h-1z"/><path fill="#222" d="M17 21h1v1h-1zm30 0h1v1h-1zm-29 8h1v1h-1zm11 0h1v1h-1zm6 0h1v1h-1zm11 0h1v1h-1zm-33 1h1v1h-1zm9 0h1v1h-1zm20 0h1v1h-1zm9 0h1v1h-1zM16 57h1v1h-1zm32 0h1v1h-1zm-19 2h1v1h-1zm6 0h1v1h-1zm-17 1h1v1h-1zm12 0h1v1h-1zm4 0h1v1h-1zm12 0h1v1h-1zm-34 6h1v1h-1zm40 0h1v1h-1z"/><path fill="#443" d="M30 23h1v1h-1zm4 0h1v1h-1zM15 55h1v1h-1zm34 0h1v1h-1zm-22 1h1v1h-1zm10 0h1v1h-1zm-22 3h1v1h-1zm34 0h1v1h-1z"/><path fill="#665" d="M11 24h1v1h-1zm42 0h1v1h-1zM17 67h1v1h-1zm30 0h1v1h-1z"/><path fill="#887" d="M26 31h1v1h-1zm12 0h1v1h-1zM15 56h1v1h-1zm34 0h1v1h-1zM25 67h1v1h-1zm14 0h1v1h-1zm-20 1h1v1h-1zm26 0h1v1h-1z"/><path fill="#bbb" d="M0 1h1v1H0zm1 0h1v1H1zm63 0h1v1h-1zm1 0h1v1h-1zM18 17h1v1h-1zm28 0h1v1h-1zm-32 2h1v1h-1zm9 0h1v1h-1zm18 0h1v1h-1zm9 0h1v1h-1zm-26 1h1v1h-1zm16 0h1v1h-1zm-24 1h1v1h-1zm3 0h1v1h-1zm26 0h1v1h-1zm3 0h1v1h-1zm-31 1h1v1h-1zm30 0h1v1h-1zm-31 1h1v1h-1zm12 0h1v1h-1zm8 0h1v1h-1zm12 0h1v1h-1zm-23 5h1v1h-1zm3 0h1v1h-1zm8 0h1v1h-1zm3 0h1v1h-1zm-28 2h1v1h-1zm42 0h1v1h-1zm-31 2h1v1h-1zm20 0h1v1h-1zM19 52h1v1h-1zm26 0h1v1h-1zm-23 2h1v1h-1zm20 0h1v1h-1zm-24 1h1v1h-1zm28 0h1v1h-1zm-24 1h1v1h-1zm20 0h1v1h-1zm-31 2h1v1h-1zm42 0h1v1h-1zm-31 2h1v1h-1zm3 0h1v1h-1zm3 0h1v1h-1zm8 0h1v1h-1zm3 0h1v1h-1zm3 0h1v1h-1zm-11 4h1v1h-1zm2 0h1v1h-1zm-17 1h1v1h-1zm2 0h1v1h-1zm10 0h1v1h-1zm8 0h1v1h-1zm10 0h1v1h-1zm2 0h1v1h-1zm-33 2h1v1h-1zm34 0h1v1h-1zm-34 3h1v1h-1zm34 0h1v1h-1zM1 85h1v1H1zm63 0h1v1h-1zM2 86h1v1H2zm1 0h1v1H3zm59 0h1v1h-1zm1 0h1v1h-1z"/><path fill="#a99" d="M23 21h1v1h-1zm18 0h1v1h-1zM13 33h1v1h-1zm38 0h1v1h-1zM19 54h1v1h-1zm26 0h1v1h-1zm-17 4h1v1h-1zm8 0h1v1h-1zm-21 2h1v1h-1zm34 0h1v1h-1zm-35 4h1v1h-1zm36 0h1v1h-1z"/><path fill="#988" d="M15 32h1v1h-1zm8 0h1v1h-1zm18 0h1v1h-1zm8 0h1v1h-1zm-27 1h1v1h-1zm20 0h1v1h-1zM25 53h1v1h-1zm14 0h1v1h-1zm-20 3h1v1h-1zm26 0h1v1h-1zm-29 2h1v1h-1zm11 0h1v1h-1zm10 0h1v1h-1zm11 0h1v1h-1zm-20 3h1v1h-1zm8 0h1v1h-1zm-23 3h1v1h-1zm38 0h1v1h-1z"/><path fill="#aa9" d="M19 33h1v1h-1zm26 0h1v1h-1zM11 65h1v1h-1zm42 0h1v1h-1z"/><path fill="#eed" d="M25 68h1v1h-1zm14 0h1v1h-1z"/><path fill="#332" d="M20 18h1v1h-1zm24 0h1v1h-1zm-19 1h1v1h-1zm14 0h1v1h-1zm-24 1h1v1h-1zm34 0h1v1h-1zm-36 3h1v1h-1zm38 0h1v1h-1zm-40 5h1v1h-1zm42 0h1v1h-1zM26 55h1v1h-1zm12 0h1v1h-1zm-27 5h1v1h-1zm42 0h1v1h-1zm-24 4h1v1h-1zm6 0h1v1h-1zm-22 1h1v1h-1zm38 0h1v1h-1z"/></svg>