<svg xmlns="http://www.w3.org/2000/svg" baseProfile="tiny" version="1.2" viewBox="0 0 66 90"><path fill="#443" d="M27 11h1v1h-1zm11 0h1v1h-1zm-20 1h1v1h-1zm5 0h1v1h-1zm19 0h1v1h-1zm5 0h1v1h-1zM15 31h1v1h-1zm35 0h1v1h-1zm-36 2h1v1h-1zm37 0h1v1h-1zm-19 3h2v1h-2zm-4 2h1v1h-1zm9 0h1v1h-1zM15 49h1v1h-1zm35 0h1v1h-1zm-29 1h1v1h-1zm9 0h1v1h-1zm5 0h1v1h-1zm9 0h1v1h-1zm-30 1h1v1h-1zm37 0h1v1h-1zm-23 5h1v1h-1zm9 0h1v1h-1zm-5 14h2v1h-2z"/><path fill="#776" d="M17 20h1v1h-1zm11 0h1v1h-1zm9 0h1v1h-1zm11 0h1v1h-1zm-30 3h1v1h-1zm29 0h1v1h-1zM29 57h1v1h-1zm7 0h1v1h-1zm-9 4h1v1h-1zm11 0h1v1h-1zm-10 2h1v1h-1zm9 0h1v1h-1zm-8 1h1v1h-1zm7 0h1v1h-1zm-4 5h2v1h-2zm-16 4h1v1h-1zm31 0h1v1h-1zm2 0h1v1h-1zm-18 2h1v1h-1zm3 0h1v1h-1z"/><path fill="#111" d="M31 20h1v1h-1zm3 0h1v1h-1zm-19 1h1v1h-1zm8 0h1v1h-1zm8 0h1v1h-1zm3 0h1v1h-1zm8 0h1v1h-1zm8 0h1v1h-1zm-34 1h1v1h-1zm14 0h1v1h-1zm5 0h1v1h-1zm14 0h1v1h-1zm-33 1h1v1h-1zm1 0h1v1h-1zm12 0h1v1h-1zm7 0h1v1h-1zm12 0h1v1h-1zm1 0h1v1h-1zm-32 1h1v1h-1zm1 0h1v1h-1zm10 0h1v1h-1zm9 0h1v1h-1zm10 0h1v1h-1zm1 0h1v1h-1zm-27 3h1v1h-1zm1 0h1v1h-1zm1 0h1v1h-1zm1 0h1v1h-1zm1 0h1v1h-1zm15 0h1v1h-1zm1 0h1v1h-1zm1 0h1v1h-1zm1 0h1v1h-1zm1 0h1v1h-1zm-21 2h1v1h-1zm19 0h1v1h-1zm-11 8h1v1h-1zm3 0h1v1h-1zm-19 1h1v1h-1zm7 0h1v1h-1zm1 0h1v1h-1zm1 0h1v1h-1zm7 0h1v1h-1zm3 0h1v1h-1zm7 0h1v1h-1zm1 0h1v1h-1zm1 0h1v1h-1zm7 0h1v1h-1zm-20 1h1v1h-1zm5 0h1v1h-1zm-19 1h1v1h-1zm13 0h1v1h-1zm1 0h1v1h-1zm5 0h1v1h-1zm1 0h1v1h-1zm13 0h1v1h-1zm-32 1h1v1h-1zm1 0h1v1h-1zm10 0h1v1h-1zm9 0h1v1h-1zm10 0h1v1h-1zm1 0h1v1h-1zm-30 1h1v1h-1zm1 0h1v1h-1zm8 0h1v1h-1zm11 0h1v1h-1zm8 0h1v1h-1zm1 0h1v1h-1zm-25 3h1v1h-1zm1 0h1v1h-1zm1 0h1v1h-1zm17 0h1v1h-1zm1 0h1v1h-1zm1 0h1v1h-1zm-20 2h1v1h-1zm19 0h1v1h-1zm-27 9h1v1h-1zm7 0h1v1h-1zm1 0h1v1h-1zm1 0h1v1h-1zm7 0h1v1h-1zm3 0h1v1h-1zm7 0h1v1h-1zm1 0h1v1h-1zm1 0h1v1h-1zm7 0h1v1h-1zm-20 1h1v1h-1zm5 0h1v1h-1zm-19 1h1v1h-1zm14 0h1v1h-1zm5 0h1v1h-1zm14 0h1v1h-1zm-32 1h1v1h-1zm11 0h1v1h-1zm1 0h1v1h-1zm7 0h1v1h-1zm1 0h1v1h-1zm11 0h1v1h-1zm-30 1h1v1h-1zm29 0h1v1h-1zm-27 3h1v1h-1zm1 0h1v1h-1zm4 0h1v1h-1zm15 0h1v1h-1zm4 0h1v1h-1zm1 0h1v1h-1zM31 73h1v1h-1zm3 0h1v1h-1zm-19 1h1v1h-1zm16 0h1v1h-1zm3 0h1v1h-1zm16 0h1v1h-1zm-34 1h1v1h-1zm14 0h1v1h-1zm5 0h1v1h-1zm14 0h1v1h-1zm-32 1h1v1h-1zm12 0h1v1h-1zm7 0h1v1h-1zm12 0h1v1h-1zm-30 1h1v1h-1zm10 0h1v1h-1zm9 0h1v1h-1zm10 0h1v1h-1zm-27 1h1v1h-1zm1 0h1v1h-1zm4 0h1v1h-1zm1 0h1v1h-1zm13 0h1v1h-1zm1 0h1v1h-1zm4 0h1v1h-1zm1 0h1v1h-1zm-23 1h1v1h-1zm2 0h1v1h-1zm17 0h1v1h-1zm2 0h1v1h-1z"/><path fill="#edd" d="M14 31h1v1h-1zm37 0h1v1h-1zm-27 5h1v1h-1zm17 0h1v1h-1zM19 51h1v1h-1zm27 0h1v1h-1zm-9 1h1v1h-1zm-15 5h1v1h-1zm21 0h1v1h-1zM32 74h2v1h-2zm-11 1h1v1h-1zm23 0h1v1h-1z"/><path fill="#555" d="M21 10h1v1h-1zm4 0h1v1h-1zm15 0h1v1h-1zm4 0h1v1h-1zm-15 2h1v1h-1zm7 0h1v1h-1zm-10 1h1v1h-1zm13 0h1v1h-1zm-9 2h1v1h-1zm5 0h1v1h-1zm-16 7h1v1h-1zm8 0h1v1h-1zm11 0h1v1h-1zm8 0h1v1h-1zm-29 7h1v1h-1zm8 0h1v1h-1zm15 0h1v1h-1zm8 0h1v1h-1zm-18 1h1v1h-1zm5 0h1v1h-1zm-8 1h1v1h-1zm11 0h1v1h-1zm-16 2h1v1h-1zm14 0h1v1h-1zm7 0h1v1h-1zm-16 6h1v1h-1zm11 0h1v1h-1zm-13 8h1v1h-1zm15 0h1v1h-1zm-10 1h1v1h-1zm5 0h1v1h-1zm-8 1h1v1h-1zm11 0h1v1h-1zm-22 1h1v1h-1zm33 0h1v1h-1zm-20 1h1v1h-1zm7 0h1v1h-1zm-4 1h2v1h-2zm-5 5h1v1h-1zm11 0h1v1h-1zm-10 8h1v1h-1zm9 0h1v1h-1zm-12 6h1v1h-1zm15 0h1v1h-1zm-22 7h1v1h-1zm29 0h1v1h-1z"/><path fill="#433" d="M22 10h1v1h-1zm2 0h1v1h-1zm17 0h1v1h-1zm2 0h1v1h-1zm-24 1h1v1h-1zm27 0h1v1h-1zm-18 1h1v1h-1zm9 0h1v1h-1zm-20 1h1v1h-1zm10 0h1v1h-1zm11 0h1v1h-1zm10 0h1v1h-1zm-33 1h1v1h-1zm13 0h1v1h-1zm9 0h1v1h-1zm13 0h1v1h-1zm-29 5h1v1h-1zm8 0h1v1h-1zm7 0h1v1h-1zm8 0h1v1h-1zm-21 1h1v1h-1zm19 0h1v1h-1zm-15 4h1v1h-1zm11 0h1v1h-1zm-10 1h1v1h-1zm9 0h1v1h-1zm-17 1h1v1h-1zm6 0h1v1h-1zm13 0h1v1h-1zm6 0h1v1h-1zm-25 2h1v1h-1zm25 0h1v1h-1zm-25 2h1v1h-1zm25 0h1v1h-1zm-15 1h1v1h-1zm5 0h1v1h-1zm-14 1h1v1h-1zm23 0h1v1h-1zm-18 1h1v1h-1zm5 0h1v1h-1zm3 0h1v1h-1zm5 0h1v1h-1zm-17 4h1v1h-1zm2 0h1v1h-1zm17 0h1v1h-1zm2 0h1v1h-1zm-12 2h1v1h-1zm3 0h1v1h-1zm-12 4h1v1h-1zm2 0h1v1h-1zm17 0h1v1h-1zm2 0h1v1h-1zm-21 1h1v1h-1zm2 0h1v1h-1zm17 0h1v1h-1zm2 0h1v1h-1zm-23 2h1v1h-1zm7 0h1v1h-1zm11 0h1v1h-1zm7 0h1v1h-1zm-27 1h1v1h-1zm10 0h1v1h-1zm9 0h1v1h-1zm10 0h1v1h-1zm-27 1h1v1h-1zm25 0h1v1h-1zm-15 1h1v1h-1zm5 0h1v1h-1zm-11 2h1v1h-1zm2 0h1v1h-1zm5 0h1v1h-1zm3 0h1v1h-1zm5 0h1v1h-1zm2 0h1v1h-1zm-9 3h2v1h-2zm-8 1h1v1h-1zm17 0h1v1h-1zm-25 1h1v1h-1zm33 0h1v1h-1zm-28 5h1v1h-1zm4 0h1v1h-1zm15 0h1v1h-1zm4 0h1v1h-1zm-24 1h1v1h-1zm25 0h1v1h-1zm-25 3h1v1h-1zm25 0h1v1h-1zm-29 1h1v1h-1zm33 0h1v1h-1zm-34 1h1v1h-1zm35 0h1v1h-1zm-33 8h1v1h-1zm31 0h1v1h-1zm-30 1h1v1h-1zm29 0h1v1h-1zm-22 3h1v1h-1zm15 0h1v1h-1z"/><path fill="#bba" d="M25 11h1v1h-1zm15 0h1v1h-1zm-3 5h1v1h-1zm-18 3h1v1h-1zm27 0h1v1h-1zM30 36h1v1h-1zm5 0h1v1h-1zm-7 3h1v1h-1zm9 0h1v1h-1zm-14 3h1v1h-1zm19 0h1v1h-1zM27 67h1v1h-1z"/><path fill="#988" d="M29 11h1v1h-1zm7 0h1v1h-1zm-12 3h1v1h-1zm17 0h1v1h-1zm-23 6h1v1h-1zm18 0h1v1h-1zm11 0h1v1h-1zm-22 1h1v1h-1zm15 0h1v1h-1zm-18 2h1v1h-1zm21 0h1v1h-1zm-24 3h1v1h-1zm27 0h1v1h-1zm-16 7h1v1h-1zm5 0h1v1h-1zm-16 1h1v1h-1zm27 0h1v1h-1zm-29 5h1v1h-1zm31 0h1v1h-1zM30 51h1v1h-1zm5 0h1v1h-1zm-16 1h1v1h-1zm27 0h1v1h-1zm-29 8h1v1h-1zm31 0h1v1h-1zm-22 6h1v1h-1zm5 0h1v1h-1zm3 0h1v1h-1zm5 0h1v1h-1zm-15 6h1v1h-1zm17 0h1v1h-1zm-14 2h1v1h-1zm11 0h1v1h-1z"/><path fill="#554" d="M17 12h1v1h-1zm31 0h1v1h-1zM31 32h1v1h-1zm3 0h1v1h-1zm-5 1h1v1h-1zm-8 1h1v1h-1zm11 0h2v1h-2zm12 0h1v1h-1zm0 4h1v1h-1zm-17 3h1v1h-1zm11 0h1v1h-1zm-7 9h1v1h-1zm3 0h1v1h-1zm-2 22h2v1h-2zm-14 2h1v1h-1zm29 0h1v1h-1zm-32 1h1v1h-1zm35 0h1v1h-1z"/><path fill="#877" d="M30 12h1v1h-1zm5 0h1v1h-1zm-20 1h1v1h-1zm35 0h1v1h-1zm-23 1h1v1h-1zm11 0h1v1h-1zm-16 2h1v1h-1zm10 0h2v1h-2zm11 0h1v1h-1zm-22 5h1v1h-1zm23 0h1v1h-1zm-18 2h1v1h-1zm13 0h1v1h-1zM21 40h1v1h-1zm23 0h1v1h-1zm5 1h1v1h-1zm-24 5h1v1h-1zm15 0h1v1h-1zM25 58h1v1h-1zm15 0h1v1h-1zm-17 7h1v1h-1zm19 0h1v1h-1zm-16 3h1v1h-1zm3 0h1v1h-1zm7 0h1v1h-1zm3 0h1v1h-1zm-19 5h1v1h-1zm25 0h1v1h-1zm-6 2h1v1h-1zm-13 4h1v1h-1zm13 0h1v1h-1z"/><path fill="#665" d="M31 14h1v1h-1zm3 0h1v1h-1zm-9 4h1v1h-1zm15 0h1v1h-1zM25 38h1v1h-1zm15 0h1v1h-1zM27 48h1v1h-1zm11 0h1v1h-1zM17 66h1v1h-1zm31 0h1v1h-1zm-24 1h1v1h-1zm17 0h1v1h-1zm-19 7h1v1h-1zm21 0h1v1h-1zm-22 2h1v1h-1zm23 0h1v1h-1z"/><path fill="#998" d="M20 15h1v1h-1zm25 0h1v1h-1zM23 25h1v1h-1zm19 0h1v1h-1zm-12 4h1v1h-1zm5 0h1v1h-1zm-18 3h1v1h-1zm31 0h1v1h-1zM17 57h1v1h-1zm31 0h1v1h-1z"/><path fill="#766" d="M20 10h1v1h-1zm25 0h1v1h-1zm-25 1h1v1h-1zm8 0h1v1h-1zm9 0h1v1h-1zm8 0h1v1h-1zm-29 1h1v1h-1zm33 0h1v1h-1zm-33 3h1v1h-1zm33 0h1v1h-1zm-25 1h1v1h-1zm17 0h1v1h-1zm-15 4h1v1h-1zm13 0h1v1h-1zM19 31h1v1h-1zm27 0h1v1h-1zm-14 6h2v1h-2zm-3 2h1v1h-1zm7 0h1v1h-1zm-11 3h1v1h-1zm15 0h1v1h-1zM23 55h1v1h-1zm9 0h2v1h-2zm10 0h1v1h-1zm-25 9h1v1h-1zm31 0h1v1h-1zm-34 9h1v1h-1zm37 0h1v1h-1zm-23 5h1v1h-1zm9 0h1v1h-1z"/><path fill="#333" d="M23 10h1v1h-1zm19 0h1v1h-1zm-13 3h1v1h-1zm7 0h1v1h-1zm-6 1h1v1h-1zm5 0h1v1h-1zm-14 1h1v1h-1zm4 0h1v1h-1zm15 0h1v1h-1zm-26 1h1v1h-1zm12 0h1v1h-1zm5 0h1v1h-1zm3 0h1v1h-1zm5 0h1v1h-1zm12 0h1v1h-1zm-19 2h2v1h-2zm-17 4h1v1h-1zm35 0h1v1h-1zm-24 6h1v1h-1zm13 0h1v1h-1zm-22 2h1v1h-1zm9 0h1v1h-1zm13 0h1v1h-1zm9 0h1v1h-1zm-20 2h1v1h-1zm9 0h1v1h-1zm-20 1h1v1h-1zm31 0h1v1h-1zm-23 1h1v1h-1zm15 0h1v1h-1zm-8 1h2v1h-2zm-7 1h1v1h-1zm4 0h1v1h-1zm7 0h1v1h-1zm4 0h1v1h-1zm-20 1h1v1h-1zm25 0h1v1h-1zm-29 1h1v1h-1zm33 0h1v1h-1zm-30 8h1v1h-1zm27 0h1v1h-1zm-29 2h1v1h-1zm31 0h1v1h-1zm-31 3h1v1h-1zm3 0h1v1h-1zm25 0h1v1h-1zm3 0h1v1h-1zm-23 1h1v1h-1zm15 0h1v1h-1zm-8 1h2v1h-2zm-7 1h1v1h-1zm11 0h1v1h-1zm4 0h1v1h-1zm-20 1h1v1h-1zm25 0h1v1h-1zm-14 2h1v1h-1zm3 0h1v1h-1zm-12 6h1v1h-1zm21 0h1v1h-1zm-24 1h1v1h-1zm27 0h1v1h-1zm-17 5h1v1h-1zm7 0h1v1h-1zm-4 2h2v1h-2zm-18 1h1v1h-1zm3 0h1v1h-1zm31 0h1v1h-1zm3 0h1v1h-1zm-21 4h1v1h-1zm5 0h1v1h-1zm-6 1h1v1h-1zm7 0h1v1h-1zm-15 2h1v1h-1zm23 0h1v1h-1z"/><path fill="#655" d="M26 11h1v1h-1zm13 0h1v1h-1zm-25 9h1v1h-1zm37 0h1v1h-1zm-26 3h1v1h-1zm3 0h1v1h-1zm9 0h1v1h-1zm3 0h1v1h-1zm-11 6h1v1h-1zm7 0h1v1h-1zm-9 1h1v1h-1zm11 0h1v1h-1zm-10 1h1v1h-1zm9 0h1v1h-1zm-21 1h1v1h-1zm33 0h1v1h-1zm-32 5h1v1h-1zm31 0h1v1h-1zm-29 2h1v1h-1zm27 0h1v1h-1zm-26 1h1v1h-1zm25 0h1v1h-1zm-24 4h1v1h-1zm4 0h1v1h-1zm15 0h1v1h-1zm4 0h1v1h-1zm-17 1h1v1h-1zm11 0h1v1h-1zm-21 2h1v1h-1zm12 0h1v1h-1zm7 0h1v1h-1zm12 0h1v1h-1zm-20 2h1v1h-1zm9 0h1v1h-1zm-20 6h1v1h-1zm31 0h1v1h-1zm-23 1h1v1h-1zm15 0h1v1h-1zm-21 1h1v1h-1zm27 0h1v1h-1zm-26 1h1v1h-1zm6 0h1v1h-1zm13 0h1v1h-1zm6 0h1v1h-1zm-18 1h1v1h-1zm11 0h1v1h-1zm-22 6h1v1h-1zm33 0h1v1h-1zm-27 2h1v1h-1zm9 0h1v1h-1zm3 0h1v1h-1zm9 0h1v1h-1zm-26 1h1v1h-1zm31 0h1v1h-1zm-23 2h1v1h-1zm15 0h1v1h-1zm-12 3h1v1h-1zm9 0h1v1h-1zm-9 1h1v1h-1zm9 0h1v1h-1zm-18 1h1v1h-1zm27 0h1v1h-1z"/><path fill="#110" d="M29 41h1v1h-1zm7 0h1v1h-1zM19 78h1v1h-1zm8 0h1v1h-1zm11 0h1v1h-1zm8 0h1v1h-1z"/><path fill="#ccb" d="M20 24h1v1h-1zm25 0h1v1h-1zm-27 9h1v1h-1zm3 8h1v1h-1zm23 0h1v1h-1zM17 56h1v1h-1zm31 0h1v1h-1zm-27 3h1v1h-1zm23 0h1v1h-1z"/><path fill="#100" d="M23 79h1v1h-1zm19 0h1v1h-1z"/><path fill="#ddd" d="M3 0h1v1H3zm1 0h1v1H4zm1 0h56v1H5zm56 0h1v1h-1zm1 0h1v1h-1zM2 1h1v1H2zm61 0h1v1h-1zM1 6h1v1H1zm63 0h1v1h-1zM1 7h1v1H1zm63 0h1v1h-1zM1 8h1v1H1zm63 0h1v1h-1zM1 9h1v73H1zm63 0h1v73h-1zm-43 4h1v1h-1zm23 0h1v1h-1zm-19 1h1v1h-1zm15 0h1v1h-1zm-22 2h1v1h-1zm9 7h1v1h-1zm4 0h1v1h-1zm3 0h1v1h-1zm4 0h1v1h-1zm-17 1h1v1h-1zm4 0h1v1h-1zm15 0h1v1h-1zm4 0h1v1h-1zm-15 1h1v1h-1zm7 0h1v1h-1zm-17 8h1v1h-1zm27 0h1v1h-1zm-19 5h1v1h-1zm11 0h1v1h-1zm-18 1h1v1h-1zm25 0h1v1h-1zm-25 2h1v1h-1zm25 0h1v1h-1zm-27 2h1v1h-1zm29 0h1v1h-1zM28 54h1v1h-1zm9 0h1v1h-1zm-10 2h1v1h-1zm11 0h1v1h-1zm-18 1h1v1h-1zm25 0h1v1h-1zm-25 2h1v1h-1zm6 0h1v1h-1zm13 0h1v1h-1zm6 0h1v1h-1zm-27 2h1v1h-1zm29 0h1v1h-1zm-30 2h1v1h-1zm31 0h1v1h-1zm-18 1h1v1h-1zm5 0h1v1h-1zm-20 1h1v1h-1zm35 0h1v1h-1zm-23 4h1v1h-1zm11 0h1v1h-1zm-20 3h1v1h-1zm5 0h1v1h-1zm19 0h1v1h-1zm5 0h1v1h-1zm-29 3h1v1h-1zm7 0h1v1h-1zm3 0h1v1h-1zm9 0h1v1h-1zm3 0h1v1h-1zm7 0h1v1h-1zm-28 1h1v1h-1zm27 0h1v1h-1zm-30 1h1v1h-1zm6 0h1v1h-1zm1 0h1v1h-1zm1 0h1v1h-1zm17 0h1v1h-1zm1 0h1v1h-1zm1 0h1v1h-1zm6 0h1v1h-1zm-22 2h1v1h-1zm11 0h1v1h-1zM1 82h1v1H1zm63 0h1v1h-1zM1 83h1v1H1zm63 0h1v1h-1zM2 84h1v1H2zm61 0h1v1h-1zM3 85h1v1H3zm1 0h1v1H4zm1 0h1v1H5zm1 0h1v1H6zm1 0h2v1H7zm50 0h2v1h-2zm2 0h1v1h-1zm1 0h1v1h-1zm1 0h1v1h-1zm1 0h1v1h-1z"/><path fill="#baa" d="M25 9h1v1h-1zm15 0h1v1h-1zm-22 1h1v1h-1zm29 0h1v1h-1zM20 22h1v1h-1zm25 0h1v1h-1zm-17 5h1v1h-1zm9 0h1v1h-1zm-13 4h1v1h-1zm17 0h1v1h-1zm-12 1h1v1h-1zm7 0h1v1h-1zm-20 1h1v1h-1zm33 0h1v1h-1zM24 46h1v1h-1zm17 0h1v1h-1zm-19 3h1v1h-1zm21 0h1v1h-1zm-14 1h1v1h-1zm7 0h1v1h-1zm-9 2h1v1h-1zm11 0h1v1h-1zm-10 5h1v1h-1zm9 0h1v1h-1zm-18 1h1v1h-1zm3 0h1v1h-1zm21 0h1v1h-1zm3 0h1v1h-1zm-24 2h1v1h-1zm21 0h1v1h-1zm-5 7h1v1h-1z"/><path fill="#211" d="M22 15h1v1h-1zm1 0h1v1h-1zm1 0h1v1h-1zm17 0h1v1h-1zm1 0h1v1h-1zm1 0h1v1h-1zm-22 1h1v1h-1zm4 0h1v1h-1zm15 0h1v1h-1zm4 0h1v1h-1zm6 0h1v1h-1zm-36 1h1v1h-1zm1 0h1v1h-1zm2 0h1v1h-1zm3 0h1v1h-1zm6 0h1v1h-1zm3 0h1v1h-1zm2 0h1v1h-1zm3 0h1v1h-1zm2 0h1v1h-1zm3 0h1v1h-1zm6 0h1v1h-1zm3 0h1v1h-1zm2 0h1v1h-1zm1 0h1v1h-1zm-37 1h1v1h-1zm1 0h1v1h-1zm5 0h1v1h-1zm6 0h1v1h-1zm3 0h1v1h-1zm2 0h1v1h-1zm3 0h1v1h-1zm2 0h1v1h-1zm3 0h1v1h-1zm6 0h1v1h-1zm5 0h1v1h-1zm1 0h1v1h-1zm-36 1h1v1h-1zm5 0h1v1h-1zm6 0h1v1h-1zm5 0h1v1h-1zm3 0h1v1h-1zm5 0h1v1h-1zm6 0h1v1h-1zm5 0h1v1h-1zm-35 1h1v1h-1zm6 0h1v1h-1zm4 0h1v1h-1zm15 0h1v1h-1zm4 0h1v1h-1zm6 0h1v1h-1zm-20 1h1v1h-1zm5 0h1v1h-1zm-5 2h1v1h-1zm5 0h1v1h-1zm-6 1h1v1h-1zm7 0h1v1h-1zm-17 1h1v1h-1zm8 0h1v1h-1zm11 0h1v1h-1zm8 0h1v1h-1zm-26 2h1v1h-1zm6 0h1v1h-1zm13 0h1v1h-1zm6 0h1v1h-1zm-26 1h1v1h-1zm8 0h1v1h-1zm11 0h1v1h-1zm8 0h1v1h-1zm-24 1h1v1h-1zm2 0h1v1h-1zm17 0h1v1h-1zm2 0h1v1h-1zm-22 4h1v1h-1zm4 0h1v1h-1zm15 0h1v1h-1zm4 0h1v1h-1zm-30 1h2v1h-2zm3 0h1v1h-1zm3 0h1v1h-1zm9 0h1v1h-1zm7 0h1v1h-1zm9 0h1v1h-1zm3 0h1v1h-1zm2 0h2v1h-2zm-36 1h1v1h-1zm1 0h1v1h-1zm5 0h1v1h-1zm6 0h1v1h-1zm3 0h1v1h-1zm2 0h1v1h-1zm3 0h1v1h-1zm2 0h1v1h-1zm3 0h1v1h-1zm6 0h1v1h-1zm5 0h1v1h-1zm1 0h1v1h-1zm-36 1h1v1h-1zm5 0h1v1h-1zm6 0h1v1h-1zm5 0h1v1h-1zm3 0h1v1h-1zm5 0h1v1h-1zm6 0h1v1h-1zm5 0h1v1h-1zm-35 1h1v1h-1zm6 0h1v1h-1zm4 0h1v1h-1zm15 0h1v1h-1zm4 0h1v1h-1zm6 0h1v1h-1zm-34 2h1v1h-1zm33 0h1v1h-1zm-32 1h1v1h-1zm31 0h1v1h-1zm-20 2h1v1h-1zm9 0h1v1h-1zm-17 1h1v1h-1zm25 0h1v1h-1zm-25 2h1v1h-1zm1 0h1v1h-1zm4 0h1v1h-1zm1 0h1v1h-1zm13 0h1v1h-1zm1 0h1v1h-1zm4 0h1v1h-1zm1 0h1v1h-1zm-23 2h1v1h-1zm21 0h1v1h-1zm-22 4h1v1h-1zm4 0h1v1h-1zm15 0h1v1h-1zm4 0h1v1h-1zm-30 1h1v1h-1zm1 0h1v1h-1zm2 0h1v1h-1zm3 0h1v1h-1zm9 0h1v1h-1zm7 0h1v1h-1zm9 0h1v1h-1zm3 0h1v1h-1zm2 0h1v1h-1zm1 0h1v1h-1zm-37 1h1v1h-1zm1 0h1v1h-1zm5 0h1v1h-1zm6 0h1v1h-1zm3 0h1v1h-1zm2 0h1v1h-1zm3 0h1v1h-1zm2 0h1v1h-1zm3 0h1v1h-1zm6 0h1v1h-1zm5 0h1v1h-1zm1 0h1v1h-1zm-36 1h1v1h-1zm5 0h1v1h-1zm6 0h1v1h-1zm5 0h1v1h-1zm3 0h1v1h-1zm5 0h1v1h-1zm6 0h1v1h-1zm5 0h1v1h-1zm-35 1h1v1h-1zm6 0h1v1h-1zm4 0h1v1h-1zm6 0h1v1h-1zm3 0h1v1h-1zm6 0h1v1h-1zm4 0h1v1h-1zm6 0h1v1h-1zm-34 2h1v1h-1zm33 0h1v1h-1zm-32 1h1v1h-1zm12 0h1v1h-1zm7 0h1v1h-1zm12 0h1v1h-1zm-30 1h1v1h-1zm29 0h1v1h-1zm-28 1h1v1h-1zm8 0h1v1h-1zm1 0h1v1h-1zm9 0h1v1h-1zm1 0h1v1h-1zm8 0h1v1h-1zm-25 2h1v1h-1zm1 0h3v1h-3zm3 0h1v1h-1zm15 0h1v1h-1zm1 0h3v1h-3zm3 0h1v1h-1zm-18 1h1v1h-1zm13 0h1v1h-1zm-17 5h1v1h-1zm1 0h1v1h-1zm1 0h1v1h-1zm17 0h1v1h-1zm1 0h1v1h-1zm1 0h1v1h-1zm-28 1h1v1h-1zm2 0h1v1h-1zm8 0h1v1h-1zm15 0h1v1h-1zm8 0h1v1h-1zm2 0h1v1h-1zm-36 1h1v1h-1zm1 0h1v1h-1zm5 0h1v1h-1zm6 0h1v1h-1zm3 0h1v1h-1zm2 0h1v1h-1zm3 0h1v1h-1zm2 0h1v1h-1zm3 0h1v1h-1zm6 0h1v1h-1zm5 0h1v1h-1zm1 0h1v1h-1zm-37 1h1v1h-1zm1 0h1v1h-1zm2 0h1v1h-1zm3 0h1v1h-1zm6 0h1v1h-1zm3 0h1v1h-1zm2 0h1v1h-1zm3 0h1v1h-1zm2 0h1v1h-1zm3 0h1v1h-1zm6 0h1v1h-1zm3 0h1v1h-1zm2 0h1v1h-1zm1 0h1v1h-1zm-36 1h1v1h-1zm5 0h1v1h-1zm5 0h1v1h-1zm1 0h1v1h-1zm5 0h1v1h-1zm3 0h1v1h-1zm5 0h1v1h-1zm1 0h1v1h-1zm5 0h1v1h-1zm5 0h1v1h-1zm-35 1h1v1h-1zm6 0h1v1h-1zm1 0h1v1h-1zm2 0h1v1h-1zm1 0h1v1h-1zm15 0h1v1h-1zm1 0h1v1h-1zm2 0h1v1h-1zm1 0h1v1h-1zm6 0h1v1h-1zm-34 1h1v1h-1zm14 0h1v1h-1zm5 0h1v1h-1zm14 0h1v1h-1zm-30 3h1v1h-1zm8 0h1v1h-1zm11 0h1v1h-1zm8 0h1v1h-1zm-24 1h1v1h-1zm1 0h1v1h-1zm1 0h1v1h-1zm17 0h1v1h-1zm1 0h1v1h-1zm1 0h1v1h-1z"/><path fill="#ddc" d="M47 16h1v1h-1zm-18 5h1v1h-1zm7 0h1v1h-1zM17 74h1v1h-1zm31 0h1v1h-1z"/><path fill="#aa9" d="M26 22h1v1h-1zm-8 15h1v1h-1zm29 0h1v1h-1zm-29 3h1v1h-1zm29 0h1v1h-1zM22 72h1v1h-1zm21 0h1v1h-1z"/><path fill="#eed" d="M14 49h1v1h-1zm37 0h1v1h-1z"/><path fill="#888" d="M0 5h1v1H0zm65 0h1v1h-1zM0 6h1v1H0zm65 0h1v1h-1zM0 7h1v1H0zm65 0h1v1h-1zM0 8h1v73H0zm65 0h1v73h-1zm-46 2h1v1h-1zm8 0h1v1h-1zm11 0h1v1h-1zm8 0h1v1h-1zm-29 1h1v1h-1zm31 0h1v1h-1zm-22 1h1v1h-1zm13 0h1v1h-1zm-17 2h1v1h-1zm21 0h1v1h-1zm-24 3h1v1h-1zm27 0h1v1h-1zm-30 3h1v1h-1zm13 0h1v1h-1zm20 0h1v1h-1zm-25 3h1v1h-1zm17 0h1v1h-1zm-19 2h1v1h-1zm2 0h1v1h-1zm17 0h1v1h-1zm2 0h1v1h-1zm-26 3h1v1h-1zm4 0h1v1h-1zm4 0h1v1h-1zm15 0h1v1h-1zm4 0h1v1h-1zm4 0h1v1h-1zm-32 1h1v1h-1zm33 0h1v1h-1zm-35 3h1v1h-1zm37 0h1v1h-1zm-28 1h1v1h-1zm9 0h2v1h-2zm10 0h1v1h-1zm-14 4h1v1h-1zm9 0h1v1h-1zm-9 3h1v1h-1zm9 0h1v1h-1zm-16 6h1v1h-1zm23 0h1v1h-1zm-28 1h1v1h-1zm33 0h1v1h-1zm-35 3h1v1h-1zm37 0h1v1h-1zm-28 1h1v1h-1zm9 0h2v1h-2zm10 0h1v1h-1zm-21 2h1v1h-1zm7 2h1v1h-1zm9 0h1v1h-1zm-16 3h1v1h-1zm7 0h1v1h-1zm9 0h1v1h-1zm7 0h1v1h-1zm-23 2h1v1h-1zm23 0h1v1h-1zm-21 4h1v1h-1zm19 0h1v1h-1zm-26 4h1v1h-1zm2 0h1v1h-1zm29 0h1v1h-1zm2 0h1v1h-1zm-32 5h1v1h-1zm15 0h2v1h-2zm16 0h1v1h-1zm-28 2h1v1h-1zm25 0h1v1h-1zM0 81h1v2H0zm65 0h1v2h-1zM0 83h1v1H0zm65 0h1v1h-1zM1 87h1v1H1zm63 0h1v1h-1zM2 88h1v1H2zm61 0h1v1h-1z"/><path fill="#221" d="M21 12h1v1h-1zm23 0h1v1h-1zm-29 4h1v1h-1zm2 2h1v1h-1zm31 0h1v1h-1zM15 33h1v1h-1zm35 0h1v1h-1zm-24 1h1v1h-1zm5 0h1v1h-1zm3 0h1v1h-1zm5 0h1v1h-1zm-25 2h1v1h-1zm3 0h1v1h-1zm31 0h1v1h-1zm3 0h1v1h-1zM24 47h1v1h-1zm17 0h1v1h-1zm-26 4h1v1h-1zm35 0h1v1h-1zm-24 1h1v1h-1zm13 0h1v1h-1zm-25 2h1v1h-1zm3 0h1v1h-1zm31 0h1v1h-1zm3 0h1v1h-1zM19 66h1v1h-1zm8 0h1v1h-1zm11 0h1v1h-1zm8 0h1v1h-1zm-28 1h1v1h-1zm29 0h1v1h-1zm-26 2h1v1h-1zm23 0h1v1h-1zm-27 1h1v1h-1zm31 0h1v1h-1zm-25 3h1v1h-1zm19 0h1v1h-1z"/><path fill="#444" d="M28 15h1v1h-1zm9 0h1v1h-1zm-8 1h1v1h-1zm7 0h1v1h-1zm-11 1h1v1h-1zm15 0h1v1h-1zm-8 2h2v1h-2zm-14 2h1v1h-1zm29 0h1v1h-1zm-21 4h1v1h-1zm13 0h1v1h-1zm-20 5h1v1h-1zm27 0h1v1h-1zm-28 1h1v1h-1zm29 0h1v1h-1zm-17 1h1v1h-1zm5 0h1v1h-1zm-11 1h1v1h-1zm17 0h1v1h-1zm3 3h1v1h-1zm-26 2h1v1h-1zm29 0h1v1h-1zm-24 5h1v1h-1zm19 0h1v1h-1zm-24 6h1v1h-1zm29 0h1v1h-1zm0 1h1v1h-1zm-25 5h1v1h-1zm4 0h1v1h-1zm13 0h1v1h-1zm4 0h1v1h-1zm-17 5h1v1h-1zm13 0h1v1h-1zm-16 3h1v1h-1zm19 0h1v1h-1zm-25 2h1v1h-1zm31 0h1v1h-1z"/><path fill="#777" d="M26 10h1v1h-1zm13 0h1v1h-1zm-19 2h1v1h-1zm25 0h1v1h-1zm-22 2h1v1h-1zm19 0h1v1h-1zm-28 1h1v1h-1zm3 0h1v1h-1zm31 0h1v1h-1zm3 0h1v1h-1zm-32 3h1v1h-1zm27 0h1v1h-1zm-14 2h2v1h-2zm-12 3h1v1h-1zm25 0h1v1h-1zM19 35h1v1h-1zm27 0h1v1h-1zm-17 2h1v1h-1zm1 0h1v1h-1zm5 0h1v1h-1zm1 0h1v1h-1zm-11 3h1v1h-1zm15 0h1v1h-1zm-19 2h1v1h-1zm23 0h1v1h-1zm-17 1h1v1h-1zm11 0h1v1h-1zM19 53h1v1h-1zm27 0h1v1h-1zm-17 2h1v1h-1zm1 0h1v1h-1zm5 0h1v1h-1zm1 0h1v1h-1zm-20 4h1v1h-1zm3 0h1v1h-1zm27 0h1v1h-1zm3 0h1v1h-1zM19 70h1v1h-1zm2 0h1v1h-1zm23 0h1v1h-1zm2 0h1v1h-1zm-25 1h1v1h-1zm23 0h1v1h-1zm-26 2h1v1h-1zm8 2h1v1h-1zm-3 1h1v1h-1zm19 0h1v1h-1zm-22 1h1v1h-1zm25 0h1v1h-1zm-25 2h1v1h-1zm25 0h1v1h-1zM0 84h1v1H0zm65 0h1v1h-1zM0 85h1v1H0zm65 0h1v1h-1zM0 86h1v1H0zm65 0h1v1h-1zM0 87h1v1H0zm65 0h1v1h-1z"/><path fill="#ffe" d="M30 11h1v1h-1zm5 0h1v1h-1zm3 22h1v1h-1z"/><path fill="#666" d="M18 11h1v1h-1zm29 0h1v1h-1zm-27 2h1v1h-1zm25 0h1v1h-1zm-27 2h1v1h-1zm29 0h1v1h-1zm-26 2h1v1h-1zm23 0h1v1h-1zm-14 3h1v1h-1zm5 0h1v1h-1zm-18 2h1v1h-1zm31 0h1v1h-1zm-27 1h1v1h-1zm23 0h1v1h-1zm-23 2h1v1h-1zm4 0h1v1h-1zm15 0h1v1h-1zm4 0h1v1h-1zm-13 6h1v1h-1zm3 0h1v1h-1zm-9 4h1v1h-1zm15 0h1v1h-1zm-17 2h1v1h-1zm19 0h1v1h-1zm-16 3h1v1h-1zm13 0h1v1h-1zm-20 1h1v1h-1zm27 0h1v1h-1zm-27 2h1v1h-1zm27 0h1v1h-1zm-28 3h1v1h-1zm10 0h1v1h-1zm9 0h1v1h-1zm10 0h1v1h-1zm-28 3h1v1h-1zm12 0h1v1h-1zm3 0h1v1h-1zm12 0h1v1h-1zm-21 4h1v1h-1zm15 0h1v1h-1zm-21 8h1v1h-1zm27 0h1v1h-1zm-28 2h1v1h-1zm29 0h1v1h-1zm-29 2h1v1h-1zm4 0h1v1h-1zm2 0h1v1h-1zm6 0h1v1h-1zm5 0h1v1h-1zm6 0h1v1h-1zm2 0h1v1h-1zm4 0h1v1h-1zm-32 1h1v1h-1zm35 0h1v1h-1zm-36 2h1v1h-1zm6 0h1v1h-1zm8 0h1v1h-1zm2 0h1v1h-1zm5 0h1v1h-1zm2 0h1v1h-1zm8 0h1v1h-1zm6 0h1v1h-1zm-27 6h1v1h-1zm17 0h1v1h-1zm-14 1h1v1h-1zm11 0h1v1h-1zm-16 1h1v1h-1zm2 0h1v1h-1zm1 0h1v1h-1zm15 0h1v1h-1zm1 0h1v1h-1zm2 0h1v1h-1zm-17 1h1v1h-1zm13 0h1v1h-1zM0 88h1v1H0zm1 0h1v1H1zm63 0h1v1h-1zm1 0h1v1h-1zM1 89h1v1H1zm1 0h1v1H2zm1 0h1v1H3zm1 0h58v1H4zm58 0h1v1h-1zm1 0h1v1h-1zm1 0h1v1h-1z"/><path fill="#999" d="M0 3h1v1H0zm65 0h1v1h-1zM0 4h1v1H0zm65 0h1v1h-1zM23 9h1v1h-1zm19 0h1v1h-1zm-23 5h1v1h-1zm27 0h1v1h-1zm-17 1h1v1h-1zm7 0h1v1h-1zm-6 1h1v1h-1zm5 0h1v1h-1zm-8 2h1v1h-1zm11 0h1v1h-1zm-15 5h1v1h-1zm19 0h1v1h-1zm-13 5h1v1h-1zm7 0h1v1h-1zm-9 1h1v1h-1zm11 0h1v1h-1zm-23 1h1v1h-1zm35 0h1v1h-1zm-27 1h1v1h-1zm19 0h1v1h-1zm-15 4h1v1h-1zm11 0h1v1h-1zm-22 2h1v1h-1zm33 0h1v1h-1zm-35 1h1v1h-1zm37 0h1v1h-1zm-33 1h1v1h-1zm29 0h1v1h-1zm-30 3h1v1h-1zm31 0h1v1h-1zm-31 4h1v1h-1zm31 0h1v1h-1zm-21 1h1v1h-1zm3 0h1v1h-1zm5 0h1v1h-1zm3 0h1v1h-1zm-23 1h1v1h-1zm10 0h1v1h-1zm15 0h1v1h-1zm10 0h1v1h-1zm-33 2h1v1h-1zm31 0h1v1h-1zm-21 3h1v1h-1zm11 0h1v1h-1zm-22 2h1v1h-1zm33 0h1v1h-1zm-35 1h1v1h-1zm37 0h1v1h-1zm-33 1h1v1h-1zm29 0h1v1h-1zm-17 2h1v1h-1zm5 0h1v1h-1zm-16 3h1v1h-1zm27 0h1v1h-1zm-24 2h1v1h-1zm4 0h1v1h-1zm13 0h1v1h-1zm4 0h1v1h-1zm-22 3h1v1h-1zm23 0h1v1h-1zm-17 3h1v1h-1zm11 0h1v1h-1zm-8 2h1v1h-1zm5 0h1v1h-1zM3 88h1v1H3zm59 0h1v1h-1z"/><path fill="#a99" d="M22 9h1v1h-1zm2 0h1v1h-1zm17 0h1v1h-1zm2 0h1v1h-1zm-4 13h1v1h-1zm-12 4h1v1h-1zm11 0h1v1h-1zm-20 1h1v1h-1zm29 0h1v1h-1zm-18 4h1v1h-1zm7 0h1v1h-1zm-8 2h1v1h-1zm9 0h1v1h-1zm-18 3h1v1h-1zm27 0h1v1h-1zm-23 5h1v1h-1zm7 0h1v1h-1zm5 0h1v1h-1zm7 0h1v1h-1zm-18 1h1v1h-1zm17 0h1v1h-1zm-18 7h1v1h-1zm6 0h1v1h-1zm7 0h1v1h-1zm6 0h1v1h-1zm-14 2h1v1h-1zm9 0h1v1h-1zm-18 3h1v1h-1zm27 0h1v1h-1zm-23 5h1v1h-1zm19 0h1v1h-1zm-18 5h1v1h-1zm17 0h1v1h-1zm-14 7h1v1h-1zm11 0h1v1h-1zm-12 2h1v1h-1zm13 0h1v1h-1zm-19 3h1v1h-1zm25 0h1v1h-1z"/><path fill="#fee" d="M27 9h1v1h-1zm11 0h1v1h-1zM27 33h1v1h-1zm-2 16h1v1h-1zm15 0h1v1h-1z"/><path fill="#aaa" d="M0 2h1v1H0zm65 0h1v1h-1zM21 9h1v1h-1zm23 0h1v1h-1zm-13 4h1v1h-1zm3 0h1v1h-1zm-8 2h1v1h-1zm13 0h1v1h-1zm-12 2h1v1h-1zm11 0h1v1h-1zm-8 2h1v1h-1zm5 0h1v1h-1zm-21 2h1v1h-1zm37 0h1v1h-1zm-35 3h1v1h-1zm33 0h1v1h-1zm-30 5h1v1h-1zm1 0h1v1h-1zm25 0h1v1h-1zm1 0h1v1h-1zm-25 1h1v1h-1zm4 0h1v1h-1zm15 0h1v1h-1zm4 0h1v1h-1zm-22 1h1v1h-1zm21 0h1v1h-1zm-16 3h1v1h-1zm11 0h1v1h-1zm-23 6h1v1h-1zm7 0h1v1h-1zm2 0h1v1h-1zm17 0h1v1h-1zm2 0h1v1h-1zm7 0h1v1h-1zm-28 1h1v1h-1zm2 0h1v1h-1zm17 0h1v1h-1zm2 0h1v1h-1zm-21 1h1v1h-1zm7 0h1v1h-1zm7 0h1v1h-1zm7 0h1v1h-1zm-23 2h1v1h-1zm25 0h1v1h-1zm-16 2h1v1h-1zm7 0h1v1h-1zm-17 1h1v1h-1zm1 0h1v1h-1zm25 0h1v1h-1zm1 0h1v1h-1zm-25 1h1v1h-1zm23 0h1v1h-1zm-28 3h1v1h-1zm33 0h1v1h-1zm-31 4h1v1h-1zm29 0h1v1h-1zm-32 3h1v1h-1zm3 0h1v1h-1zm6 0h1v1h-1zm17 0h1v1h-1zm6 0h1v1h-1zm3 0h1v1h-1zm-28 1h1v1h-1zm2 0h1v1h-1zm17 0h1v1h-1zm2 0h1v1h-1zm-19 1h1v1h-1zm5 0h1v1h-1zm7 0h1v1h-1zm5 0h1v1h-1zm-14 2h1v1h-1zm11 0h1v1h-1zm-18 2h1v1h-1zm25 0h1v1h-1zm-27 2h1v1h-1zm2 0h1v1h-1zm25 0h1v1h-1zm2 0h1v1h-1zm-22 1h1v1h-1zm15 0h1v1h-1zm-8 1h2v1h-2zm-8 1h1v1h-1zm6 0h1v1h-1zm5 0h1v1h-1zm6 0h1v1h-1zm-12 4h1v1h-1zm7 0h1v1h-1zm-17 1h1v1h-1zm27 0h1v1h-1zm-20 2h1v1h-1zm13 0h1v1h-1zM1 86h1v1H1zm63 0h1v1h-1zM2 87h1v1H2zm1 0h1v1H3zm1 0h1v1H4zm1 0h56v1H5zm56 0h1v1h-1zm1 0h1v1h-1zm1 0h1v1h-1zM4 88h1v1H4zm1 0h56v1H5zm56 0h1v1h-1z"/><path fill="#cbb" d="M23 11h1v1h-1zm19 0h1v1h-1zm-15 1h1v1h-1zm11 0h1v1h-1zm-8 5h1v1h-1zm5 0h1v1h-1zm-11 2h1v1h-1zm17 0h1v1h-1zm-18 5h1v1h-1zm19 0h1v1h-1zm-14 6h1v1h-1zm9 0h1v1h-1zm10 3h1v1h-1zm-20 3h1v1h-1zm11 0h1v1h-1zM23 46h1v1h-1zm19 0h1v1h-1zM27 58h1v1h-1zm11 0h1v1h-1zm-19 7h1v1h-1zm27 0h1v1h-1zm-16 6h1v1h-1zm5 0h1v1h-1zm-10 6h1v1h-1zm15 0h1v1h-1z"/><path fill="#322" d="M22 12h1v1h-1zm2 0h1v1h-1zm17 0h1v1h-1zm2 0h1v1h-1zm-24 1h1v1h-1zm27 0h1v1h-1zm-30 1h1v1h-1zm2 0h1v1h-1zm29 0h1v1h-1zm2 0h1v1h-1zm-34 1h1v1h-1zm35 0h1v1h-1zm-33 1h1v1h-1zm3 0h1v1h-1zm25 0h1v1h-1zm3 0h1v1h-1zm-34 3h1v1h-1zm3 0h1v1h-1zm8 0h1v1h-1zm15 0h1v1h-1zm8 0h1v1h-1zm3 0h1v1h-1zm-29 1h1v1h-1zm2 0h1v1h-1zm17 0h1v1h-1zm2 0h1v1h-1zm-27 1h1v1h-1zm8 0h1v1h-1zm17 0h1v1h-1zm8 0h1v1h-1zm-31 4h1v1h-1zm29 0h1v1h-1zm-26 1h1v1h-1zm1 0h2v1h-2zm2 0h1v1h-1zm1 0h1v1h-1zm15 0h1v1h-1zm1 0h1v1h-1zm1 0h2v1h-2zm2 0h1v1h-1zm-16 3h1v1h-1zm9 0h1v1h-1zm-21 2h1v1h-1zm33 0h1v1h-1zm-34 1h1v1h-1zm7 0h1v1h-1zm2 0h1v1h-1zm17 0h1v1h-1zm2 0h1v1h-1zm7 0h1v1h-1zM20 42h1v1h-1zm6 0h1v1h-1zm13 0h1v1h-1zm6 0h1v1h-1zm-24 1h1v1h-1zm4 0h1v1h-1zm15 0h1v1h-1zm4 0h1v1h-1zm-21 1h1v1h-1zm19 0h1v1h-1zm-16 4h1v1h-1zm13 0h1v1h-1zm-23 1h1v1h-1zm33 0h1v1h-1zm-34 1h1v1h-1zm7 0h1v1h-1zm1 0h1v1h-1zm19 0h1v1h-1zm1 0h1v1h-1zm7 0h1v1h-1zM27 63h1v1h-1zm11 0h1v1h-1zm-11 1h1v1h-1zm11 0h1v1h-1zm-17 1h1v1h-1zm23 0h1v1h-1zm-28 2h1v1h-1zm14 0h1v1h-1zm5 0h1v1h-1zm14 0h1v1h-1zm-34 1h1v1h-1zm10 0h1v1h-1zm15 0h1v1h-1zm10 0h1v1h-1zm-36 1h1v1h-1zm6 0h1v1h-1zm6 0h1v1h-1zm5 0h1v1h-1zm3 0h1v1h-1zm5 0h1v1h-1zm6 0h1v1h-1zm6 0h1v1h-1zm-30 3h1v1h-1zm23 0h1v1h-1zm-15 3h1v1h-1zm7 0h1v1h-1zm-8 1h1v1h-1zm9 0h1v1h-1z"/><path fill="#dcc" d="M25 13h1v1h-1zm15 0h1v1h-1zm-18 6h1v1h-1zm5 0h1v1h-1zm11 0h1v1h-1zm5 0h1v1h-1zm-26 2h1v1h-1zm31 0h1v1h-1zM28 36h1v1h-1zm9 0h1v1h-1zm-8 2h1v1h-1zm7 0h1v1h-1zm-7 18h1v1h-1zm7 0h1v1h-1zM19 79h1v1h-1zm27 0h1v1h-1z"/><path fill="#887" d="M21 18h1v1h-1zm23 0h1v1h-1zM21 35h1v1h-1zm23 0h1v1h-1zm-28 6h1v1h-1zm28 12h1v1h-1zm-19 7h1v1h-1zm15 0h1v1h-1zM19 71h1v1h-1zm27 0h1v1h-1z"/><path fill="#ccc" d="M1 0h1v1H1zm1 0h1v1H2zm61 0h1v1h-1zm1 0h1v1h-1zM1 2h1v1H1zm63 0h1v1h-1zM20 9h1v1h-1zm6 0h1v1h-1zm13 0h1v1h-1zm6 0h1v1h-1zm-23 2h1v1h-1zm2 0h1v1h-1zm17 0h1v1h-1zm2 0h1v1h-1zm-24 1h1v1h-1zm27 0h1v1h-1zm-28 1h1v1h-1zm10 0h1v1h-1zm9 0h1v1h-1zm10 0h1v1h-1zm-33 1h1v1h-1zm3 0h1v1h-1zm4 0h1v1h-1zm23 0h1v1h-1zm4 0h1v1h-1zm3 0h1v1h-1zm-32 2h1v1h-1zm27 0h1v1h-1zm-30 1h1v1h-1zm33 0h1v2h-1zm-33 1h1v1h-1zm14 0h1v1h-1zm5 0h1v1h-1zm-19 1h1v1h-1zm12 0h1v1h-1zm9 0h1v1h-1zm12 0h1v1h-1zm-30 2h1v1h-1zm13 0h2v1h-2zm14 0h1v1h-1zm-18 1h1v1h-1zm9 0h1v1h-1zm-22 1h1v1h-1zm4 0h1v1h-1zm27 0h1v1h-1zm4 0h1v1h-1zm-28 1h1v1h-1zm2 0h1v1h-1zm6 0h1v1h-1zm5 0h1v1h-1zm6 0h1v1h-1zm2 0h1v1h-1zm-26 1h1v1h-1zm31 0h1v1h-1zm-30 5h1v1h-1zm29 0h1v1h-1zm-21 2h1v1h-1zm6 0h2v1h-2zm7 0h1v1h-1zm-23 2h1v3h-1zm33 0h1v3h-1zm-19 1h1v1h-1zm5 0h1v1h-1zm-18 3h1v1h-1zm31 0h1v1h-1zm-25 1h1v1h-1zm3 0h1v1h-1zm13 0h1v1h-1zm3 0h1v1h-1zm-15 1h1v1h-1zm4 0h1v1h-1zm3 0h1v1h-1zm4 0h1v1h-1zm-13 1h1v1h-1zm1 0h1v1h-1zm13 0h1v1h-1zm1 0h1v1h-1zm-12 4h1v1h-1zm9 0h1v1h-1zm-19 3h1v1h-1zm29 0h1v1h-1zm-21 2h1v1h-1zm6 0h2v1h-2zm7 0h1v1h-1zm-23 2h1v1h-1zm33 0h1v1h-1zm-33 1h1v1h-1zm14 0h1v1h-1zm5 0h1v1h-1zm14 0h1v1h-1zm-33 1h1v1h-1zm33 0h1v1h-1zm-26 3h1v1h-1zm3 0h1v1h-1zm13 0h1v1h-1zm3 0h1v1h-1zm-11 1h1v1h-1zm3 0h1v1h-1zm-9 1h1v1h-1zm15 0h1v1h-1zm-24 5h1v1h-1zm5 0h1v1h-1zm4 0h1v1h-1zm15 0h1v1h-1zm4 0h1v1h-1zm5 0h1v1h-1zm-22 1h1v1h-1zm11 0h1v1h-1zm-21 2h1v1h-1zm2 0h1v1h-1zm10 0h1v1h-1zm7 0h1v1h-1zm10 0h1v1h-1zm2 0h1v1h-1zm-32 2h1v1h-1zm12 0h1v1h-1zm9 0h1v1h-1zm12 0h1v1h-1zm-33 1h1v1h-1zm14 0h1v1h-1zm5 0h1v1h-1zm14 0h1v1h-1zm-33 1h1v1h-1zm33 0h1v1h-1zm-30 1h1v1h-1zm27 0h1v1h-1zm-32 2h1v1h-1zm11 0h1v1h-1zm4 0h1v1h-1zm7 0h1v1h-1zm4 0h1v1h-1zm11 0h1v1h-1zm-24 2h1v1h-1zm11 0h1v1h-1zm-17 1h1v1h-1zm23 0h1v1h-1zM1 84h1v1H1zm63 0h1v1h-1zM2 85h1v1H2zm61 0h1v1h-1zM4 86h1v1H4zm1 0h1v1H5zm1 0h1v1H6zm1 0h52v1H7zm52 0h1v1h-1zm1 0h1v1h-1zm1 0h1v1h-1z"/><path fill="#eee" d="M3 1h1v1H3zm59 0h1v1h-1zM2 2h1v1H2zm61 0h1v1h-1zM1 3h1v1H1zm63 0h1v1h-1zM1 4h1v1H1zm63 0h1v1h-1zM1 5h1v1H1zm63 0h1v1h-1zM2 6h1v1H2zm61 0h1v1h-1zM2 7h1v1H2zm61 0h1v1h-1zM2 8h1v74H2zm61 0h1v74h-1zM19 9h1v1h-1zm27 0h1v1h-1zm-30 2h1v1h-1zm33 0h1v1h-1zm-34 1h1v1h-1zm35 0h1v1h-1zm-18 2h2v1h-2zm-5 2h1v1h-1zm11 0h1v1h-1zm-10 1h1v1h-1zm9 0h1v1h-1zm-9 1h1v1h-1zm9 0h1v1h-1zm-19 1h1v1h-1zm29 0h1v1h-1zM22 30h1v1h-1zm2 0h1v1h-1zm17 0h1v1h-1zm2 0h1v1h-1zm-22 1h1v1h-1zm4 0h1v1h-1zm15 0h1v1h-1zm4 0h1v1h-1zm-16 3h1v1h-1zm9 0h1v1h-1zm-9 1h1v1h-1zm9 0h1v1h-1zm-19 1h1v1h-1zm4 0h1v1h-1zm21 0h1v1h-1zm4 0h1v1h-1zm-28 2h1v1h-1zm1 0h1v1h-1zm6 0h1v1h-1zm13 0h1v1h-1zm6 0h1v1h-1zm1 0h1v1h-1zm-24 1h1v1h-1zm2 0h1v1h-1zm17 0h1v1h-1zm2 0h1v1h-1zm-15 4h1v1h-1zm9 0h1v1h-1zm-15 5h1v1h-1zm2 0h1v1h-1zm17 0h1v1h-1zm2 0h1v1h-1zm-22 1h1v1h-1zm23 0h1v1h-1zm-16 3h1v1h-1zm0 1h1v1h-1zm9 0h1v1h-1zm-19 1h1v1h-1zm4 0h1v1h-1zm2 0h1v1h-1zm17 0h1v1h-1zm2 0h1v1h-1zm4 0h1v1h-1zm-28 2h1v1h-1zm1 0h1v1h-1zm6 0h1v1h-1zm13 0h1v1h-1zm6 0h1v1h-1zm1 0h1v1h-1zm-22 1h1v1h-1zm17 0h1v1h-1zm-13 4h1v1h-1zm9 0h1v1h-1zm-8 2h1v1h-1zm7 0h1v1h-1zm-5 2h1v1h-1zm3 0h1v1h-1zm-2 2h2v1h-2zm-14 2h1v1h-1zm29 0h1v1h-1zm-19 1h1v1h-1zm9 0h1v1h-1zm-9 1h1v1h-1zm9 0h1v1h-1zm-10 1h1v1h-1zm11 0h1v1h-1zm-23 4h1v1h-1zm35 0h1v1h-1zm-20 1h1v1h-1zm5 0h1v1h-1zm-18 1h1v1h-1zm31 0h1v1h-1zM2 82h1v1H2zm61 0h1v1h-1zM2 83h1v1H2zm61 0h1v1h-1zM3 84h1v1H3zm1 0h1v1H4zm57 0h1v1h-1zm1 0h1v1h-1zM9 85h48v1H9z"/><g fill="#fff"><path d="M4 1h1v1H4zm1 0h1v1H5zm1 0h54v1H6zm54 0h1v1h-1zm1 0h1v1h-1zM3 2h1v1H3zm1 0h1v1H4zm1 0h56v1H5zm56 0h1v1h-1zm1 0h1v1h-1zM2 3h1v1H2zm1 0h1v1H3zm1 0h2v1H4zm2 0h54v1H6zm54 0h2v1h-2zm2 0h1v1h-1zm1 0h1v1h-1zM2 4h1v2H2zm1 0h1v3H3zm1 0h1v1H4zm1 0h56v5H5zm56 0h1v1h-1zm1 0h1v3h-1zm1 0h1v2h-1z"/><path d="M4 5h58v2H4zM3 7h1v1H3zm1 0h1v1H4zm57 0h1v1h-1zm1 0h1v1h-1zM3 8h1v73H3zm1 0h1v73H4zm57 0h1v74h-1zm1 0h1v73h-1zM5 9h14v1H5zm23 0h10v1H28zm19 0h14v1H47zM5 10h12v1H5zm12 0h1v1h-1zm12 0h1v1h-1zm1 0h6v1h-6zm6 0h1v1h-1zm12 0h1v1h-1zm1 0h12v1H49zM5 11h11v1H5zm26 0h4v1h-4zm19 0h11v1H50zM5 12h10v2H5zm26 0h1v1h-1zm1 0h2v2h-2zm2 0h1v1h-1zm17 0h10v2H51zm-29 1h3v1h-3zm19 0h3v1h-3zM5 14h9v68H5zm15 0h1v1h-1zm6 0h1v1h-1zm13 0h1v1h-1zm6 0h1v1h-1zm7 0h9v68h-9zm-33 1h1v1h-1zm8 0h1v1h-1zm11 0h1v1h-1zm8 0h1v1h-1zm-28 2h1v1h-1zm4 0h2v2h-2zm2 0h1v1h-1zm17 0h1v1h-1zm1 0h2v2h-2zm5 0h1v1h-1zm-29 1h1v1h-1zm6 0h1v1h-1z"/><path d="M41 18h3v1h-3zm6 0h1v1h-1zm-24 1h1v1h-1zm19 0h1v1h-1zm-23 1h1v1h-1zm8 0h1v1h-1zm11 0h1v1h-1zm8 0h1v1h-1zm-26 1h1v1h-1zm6 0h1v1h-1zm13 0h1v1h-1zm6 0h1v1h-1zm-31 1h1v1h-1zm7 0h1v1h-1zm1 0h1v1h-1zm1 0h1v1h-1zm1 0h1v1h-1zm1 0h1v1h-1zm7 0h2v9h-2zm8 0h1v1h-1zm1 0h1v1h-1zm1 0h1v1h-1zm1 0h1v1h-1zm1 0h1v1h-1zm7 0h1v1h-1zm-37 1h1v8h-1zm37 0h10v8H51zm-36 1h1v5h-1z"/><path d="M31 24h4v5h-4zm19 0h11v5H50zm-34 1h1v3h-1z"/><path d="M30 25h6v3h-6zm19 0h12v3H49zm-32 1h1v1h-1zm1 0h1v1h-1zm10 0h1v1h-1z"/><path d="M29 26h8v1h-8zm8 0h1v1h-1zm10 0h1v1h-1zm1 0h13v1H48zm-31 1h1v1h-1zm12 0h1v1h-1zm7 0h1v1h-1zm12 0h1v1h-1zm-32 1h1v1h-1zm14 0h1v1h-1zm5 0h1v1h-1zm14 0h1v1h-1zm-34 1h1v1h-1zm16 0h1v1h-1zm3 0h1v1h-1zm16 0h1v1h-1zm-27 1h1v1h-1zm19 0h1v1h-1zm-22 1h1v1h-1zm6 0h1v1h-1zm6 0h2v1h-2zm7 0h1v1h-1zm6 0h1v1h-1zm-26 1h1v1h-1zm8 0h1v1h-1zm11 0h1v1h-1zm8 0h1v1h-1zm-28 2h1v1h-1zm4 0h1v1h-1zm1 0h1v3h-1zm1 0h1v1h-1zm17 0h1v1h-1zm1 0h1v3h-1zm1 0h1v1h-1zm4 0h1v1h-1zm-29 1h1v1h-1z"/><path d="M22 35h3v1h-3zm19 0h3v1h-3zm6 0h1v1h-1zm-28 2h1v1h-1zm8 0h1v1h-1zm11 0h1v1h-1zm8 0h1v1h-1zm-32 2h1v1h-1zm7 0h1v1h-1zm4 0h1v1h-1zm7 0h2v1h-2zm8 0h1v1h-1zm4 0h1v1h-1zm7 0h1v1h-1zm-37 1h1v9h-1zm18 0h2v9h-2zm19 0h10v9H51zm-36 1h1v6h-1z"/><path d="M31 41h4v6h-4zm19 0h11v6H50zm-34 1h1v4h-1z"/><path d="M30 42h6v4h-6zm19 0h12v4H49zm-32 1h1v2h-1z"/><path d="M29 43h8v2h-8zm19 0h13v2H48zm-30 1h1v1h-1zm1 0h1v1h-1zm8 0h1v1h-1z"/><path d="M28 44h10v1H28zm10 0h1v1h-1zm8 0h1v1h-1zm1 0h14v1H47zm-30 1h1v1h-1zm12 0h1v1h-1zm7 0h1v1h-1zm12 0h1v1h-1zm-32 1h1v1h-1zm14 0h1v1h-1zm5 0h1v1h-1zm14 0h1v1h-1zm-34 1h1v1h-1zm16 0h1v1h-1zm3 0h1v1h-1zm16 0h1v1h-1zm-27 1h1v1h-1zm19 0h1v1h-1zm-22 1h1v1h-1zm6 0h1v1h-1zm6 0h2v1h-2zm7 0h1v1h-1zm6 0h1v1h-1zm-26 1h1v1h-1zm8 0h1v1h-1zm11 0h1v1h-1zm8 0h1v1h-1zm-19 1h1v1h-1zm11 0h1v1h-1zm-20 1h1v1h-1zm4 0h1v1h-1zm1 0h1v3h-1zm1 0h1v1h-1zm17 0h1v1h-1zm1 0h1v3h-1zm1 0h1v1h-1zm4 0h1v1h-1zm-29 1h1v1h-1z"/><path d="M22 53h3v1h-3zm19 0h3v1h-3zm6 0h1v1h-1zm-28 2h1v1h-1zm8 0h1v1h-1zm11 0h1v1h-1zm8 0h1v1h-1zm-32 2h1v1h-1zm7 0h1v1h-1zm4 0h1v1h-1zm7 0h2v1h-2zm8 0h1v1h-1zm4 0h1v1h-1zm7 0h1v1h-1zm-37 1h1v8h-1zm18 0h2v9h-2zm19 0h10v8H51zm-36 1h1v6h-1z"/><path d="M31 59h4v6h-4zm19 0h11v6H50zm-34 1h1v4h-1z"/><path d="M30 60h6v4h-6zm19 0h12v4H49zm-32 1h1v2h-1z"/><path d="M29 61h8v2h-8zm19 0h13v2H48zm-30 1h1v1h-1zm10 0h1v1h-1zm9 0h1v1h-1zm10 0h1v1h-1zm-33 4h1v1h-1zm7 0h1v1h-1zm1 0h1v1h-1zm1 0h1v1h-1zm1 0h1v1h-1zm1 0h1v1h-1zm15 0h1v1h-1zm1 0h1v1h-1zm1 0h1v1h-1zm1 0h1v1h-1zm1 0h1v1h-1zm7 0h1v1h-1zm-31 1h1v1h-1zm6 0h1v1h-1zm13 0h1v1h-1zm6 0h1v1h-1zm-26 1h1v1h-1zm8 0h1v1h-1zm11 0h1v1h-1zm8 0h1v1h-1zm-23 1h1v1h-1zm19 0h1v1h-1zm-24 1h1v1h-1zm4 0h3v1h-3zm19 0h3v1h-3zm6 0h1v1h-1zm-29 1h1v1h-1zm4 0h2v1h-2zm2 0h1v1h-1zm17 0h1v1h-1zm1 0h2v1h-2zm5 0h1v1h-1zm-28 2h1v1h-1zm8 0h1v1h-1zm11 0h1v1h-1zm8 0h1v1h-1zm-26 1h1v1h-1zm6 0h1v1h-1zm13 0h1v1h-1zm6 0h1v1h-1zm-31 1h1v9h-1zm8 0h3v1h-3zm10 0h2v9h-2zm9 0h3v1h-3zm10 0h10v7H51zm-20 1h1v1h-1zm3 0h1v1h-1zm-19 1h1v7h-1z"/><path d="M31 77h4v7h-4zm19 0h11v5H50zm-34 1h1v6h-1zm13 0h1v1h-1z"/><path d="M30 78h6v6h-6zm6 0h1v1h-1zm13 0h12v4H49zm-32 1h2v5h-2z"/><path d="M28 79h10v5H28zm19 0h14v3H47z"/><path d="M19 80h42v2H19zM3 81h1v1H3zm1 0h1v2H4zm58 0h1v1h-1zM3 82h1v1H3zm2 0h1v1H5zm1 0h54v1H6zm54 0h1v1h-1zm1 0h1v1h-1zm1 0h1v1h-1zM3 83h1v1H3zm1 0h1v1H4zm1 0h1v1H5zm1 0h1v1H6zm1 0h52v1H7zm52 0h1v1h-1zm1 0h1v1h-1zm1 0h1v1h-1zm1 0h1v1h-1zM5 84h1v1H5zm1 0h1v1H6zm1 0h1v1H7zm1 0h50v1H8zm50 0h1v1h-1zm1 0h1v1h-1zm1 0h1v1h-1z"/></g><path fill="#332" d="M44 15h1v1h-1zM27 27h1v1h-1zm11 0h1v1h-1zm-20 2h1v1h-1zm29 0h1v1h-1zm-18 1h1v1h-1zm7 0h1v1h-1zm-16 3h1v1h-1zm25 0h1v1h-1zM26 46h1v1h-1zm13 0h1v1h-1zm-10 2h1v1h-1zm7 0h1v1h-1zm-12 2h1v1h-1zm4 0h1v1h-1zm9 0h1v1h-1zm4 0h1v1h-1zm-12 4h1v1h-1zm-5 9h1v1h-1zm17 0h1v1h-1z"/><path fill="#bbb" d="M0 1h1v1H0zm1 0h1v1H1zm63 0h1v1h-1zm1 0h1v1h-1zm-37 9h1v1h-1zm9 0h1v1h-1zm-16 1h1v1h-1zm23 0h1v1h-1zm-15 3h1v1h-1zm7 0h1v1h-1zm-4 1h1v1h-1zm1 0h1v1h-1zm-17 1h1v1h-1zm7 0h1v1h-1zm5 0h1v1h-1zm14 0h1v1h-1zm7 0h1v1h-1zm-22 5h1v1h-1zm11 0h1v1h-1zm-20 1h1v1h-1zm29 0h1v1h-1zm-21 2h1v1h-1zm13 0h1v1h-1zm-17 4h1v1h-1zm1 0h1v1h-1zm1 0h1v1h-1zm17 0h1v1h-1zm1 0h1v1h-1zm1 0h1v1h-1zm-17 1h1v1h-1zm13 0h1v1h-1zm-8 1h1v1h-1zm3 0h1v1h-1zm-17 1h1v1h-1zm31 0h1v1h-1zm-28 1h1v1h-1zm25 0h1v1h-1zm-15 2h1v1h-1zm5 0h1v1h-1zm-3 4h2v1h-2zm-13 2h1v1h-1zm4 0h1v1h-1zm19 0h1v1h-1zm4 0h1v1h-1zm-20 4h1v1h-1zm13 0h1v1h-1zm-21 1h1v1h-1zm29 0h1v1h-1zm-25 1h1v1h-1zm21 0h1v1h-1zm-17 1h1v1h-1zm13 0h1v1h-1zm-11 1h1v1h-1zm3 0h1v1h-1zm3 0h1v1h-1zm3 0h1v1h-1zm-20 1h1v1h-1zm7 0h1v1h-1zm17 0h1v1h-1zm7 0h1v1h-1zm-28 1h1v1h-1zm25 0h1v1h-1zm-27 1h1v1h-1zm29 0h1v1h-1zm-17 1h1v1h-1zm5 0h1v1h-1zm-8 2h1v1h-1zm3 0h1v1h-1zm5 0h1v1h-1zm3 0h1v1h-1zm-6 2h2v1h-2zm-9 2h1v1h-1zm19 0h1v1h-1zm-19 2h1v1h-1zm19 0h1v1h-1zm-14 6h1v1h-1zm9 0h1v1h-1zm-23 1h1v1h-1zm37 0h1v1h-1zm-32 2h1v1h-1zm3 0h1v1h-1zm21 0h1v1h-1zm3 0h1v1h-1zm-30 3h1v1h-1zm12 0h1v1h-1zm9 0h1v1h-1zm12 0h1v1h-1zm-28 2h1v1h-1zm23 0h1v1h-1zM1 85h1v1H1zm63 0h1v1h-1zM2 86h1v1H2zm1 0h1v1H3zm59 0h1v1h-1zm1 0h1v1h-1z"/><path fill="#222" d="M25 12h1v1h-1zm15 0h1v1h-1zm-18 9h1v1h-1zm21 0h1v1h-1zm-24 6h1v1h-1zm27 0h1v1h-1zm-23 5h1v1h-1zm19 0h1v1h-1zm-25 3h1v1h-1zm31 0h1v1h-1zm-18 3h1v1h-1zm5 0h1v1h-1zm-20 1h1v1h-1zm35 0h1v1h-1zm-24 4h1v1h-1zm13 0h1v1h-1zm-8 9h1v1h-1zm3 0h1v1h-1zm-17 1h1v1h-1zm31 0h1v1h-1zm-18 3h1v1h-1zm5 0h1v1h-1zm-20 1h1v1h-1zm35 0h1v1h-1zm-30 4h1v1h-1zm6 0h1v1h-1zm13 0h1v1h-1zm6 0h1v1h-1zm-26 2h1v1h-1zm27 0h1v1h-1zm-21 2h1v1h-1zm15 0h1v1h-1zm-12 2h1v1h-1zm9 0h1v1h-1zm-16 1h1v1h-1zm23 0h1v1h-1zm-28 8h1v1h-1zm33 0h1v1h-1zm-32 1h1v1h-1zm31 0h1v1h-1z"/><path fill="#544" d="M16 13h1v1h-1zm14 0h1v1h-1zm5 0h1v1h-1zm14 0h1v1h-1zm-18 2h1v1h-1zm3 0h1v1h-1zm-2 2h2v1h-2zm-12 3h1v1h-1zm25 0h1v1h-1zm-17 1h1v1h-1zm9 0h1v1h-1zm-8 1h1v1h-1zm2 0h1v1h-1zm3 0h1v1h-1zm2 0h1v1h-1zm-17 2h1v1h-1zm27 0h1v1h-1zm-26 1h1v1h-1zm25 0h1v1h-1zm-27 3h1v1h-1zm10 0h1v1h-1zm9 0h1v1h-1zm10 0h1v1h-1zm-26 1h1v1h-1zm23 0h1v1h-1zm-28 1h1v1h-1zm33 0h1v1h-1zm-31 2h1v1h-1zm7 0h1v1h-1zm15 0h1v1h-1zm7 0h1v1h-1zm-26 4h1v1h-1zm-7 1h1v1h-1zm12 0h1v1h-1zm13 0h1v1h-1zm12 0h1v1h-1zm-30 1h1v1h-1zm-2 7h1v1h-1zm27 0h1v1h-1zm-25 2h1v1h-1zm23 0h1v1h-1zm-28 1h1v1h-1zm3 0h1v1h-1zm27 0h1v1h-1zm3 0h1v1h-1zm-31 2h1v1h-1zm7 0h1v1h-1zm15 0h1v1h-1zm-18 1h1v1h-1zm21 0h1v1h-1zm-22 1h1v1h-1zm23 0h1v1h-1zm-23 2h1v1h-1zm23 0h1v1h-1zm-30 1h1v1h-1zm37 0h1v1h-1zm-33 1h1v1h-1zm3 0h1v1h-1zm23 0h1v1h-1zm3 0h1v1h-1zm-27 4h1v1h-1zm25 0h1v1h-1zm-23 1h1v1h-1zm1 0h1v1h-1zm1 0h1v1h-1zm17 0h1v1h-1zm1 0h1v1h-1zm1 0h1v1h-1zm-17 1h1v1h-1zm13 0h1v1h-1zm-21 2h1v1h-1zm10 0h1v1h-1zm9 0h1v1h-1zm10 0h1v1h-1zm-21 1h1v1h-1zm3 0h1v2h-1zm7 0h1v2h-1zm3 0h1v1h-1zm-9 1h1v1h-1zm5 0h1v1h-1zm-12 1h1v1h-1zm19 0h1v1h-1zm-11 1h1v1h-1zm3 0h1v1h-1zm-5 4h1v1h-1zm7 0h1v1h-1zm-6 1h1v1h-1zm5 0h1v1h-1zm-12 1h1v1h-1zm19 0h1v1h-1z"/></svg>