<svg xmlns="http://www.w3.org/2000/svg" baseProfile="tiny" version="1.2" viewBox="0 0 66 90"><path fill="#a34" d="M37 45h1v1h-1z"/><path fill="#b55" d="M14 13h1v1h-1zm0 39h1v1h-1z"/><path fill="#fde" d="M45 16h1v1h-1zm9 18h1v1h-1zM26 44h1v1h-1zm12 1h1v1h-1z"/><path fill="#c66" d="M12 12h1v1h-1zm2 3h1v1h-1zm0 1h1v1h-1zm0 1h1v1h-1zm0 1h1v1h-1zm0 1h1v1h-1zm39 2h1v1h-1zm0 1h1v1h-1zm1 1h1v1h-1zm-40 1h1v1h-1zm0 1h1v1h-1zm0 5h1v1h-1zm0 1h1v1h-1zm0 1h1v1h-1zm0 1h1v2h-1zm39 0h1v1h-1zm-42 2h1v1h-1zm1 0h1v1h-1zm2 0h1v1h-1zm6 0h1v1h-1zm26 0h1v1h-1zm3 3h1v1h-1zM10 51h1v1h-1zm4 3h1v1h-1zm0 1h1v1h-1zm0 1h1v1h-1zm0 1h1v1h-1zm0 1h1v1h-1zm39 2h1v1h-1zm0 1h1v1h-1zm1 1h1v1h-1zm-40 1h1v1h-1zm0 1h1v1h-1zm37 1h1v1h-1zm-37 4h1v1h-1zm0 1h1v1h-1zm0 1h1v1h-1zm0 1h1v2h-1zm32 1h1v1h-1zm-35 1h1v1h-1zm1 0h1v1h-1zm2 0h1v1h-1zm32 0h1v1h-1zm7 0h1v1h-1z"/><path fill="#c9a" d="M35 58h1v1h-1z"/><path fill="#666" d="M0 88h1v1H0zm1 0h1v1H1zm63 0h1v1h-1zm1 0h1v1h-1zM1 89h1v1H1zm1 0h1v1H2zm1 0h1v1H3zm1 0h58v1H4zm58 0h1v1h-1zm1 0h1v1h-1zm1 0h1v1h-1z"/><path fill="#fee" d="M12 10h1v1h-1zm8 0h1v1h-1zm23 4h1v1h-1zm2 3h1v1h-1zm0 1h1v1h-1zm0 1h1v2h-1zm0 2h1v1h-1zm9 1h1v1h-1zm-44 1h1v1h-1zm1 4h1v1h-1zm43 0h1v1h-1zm-9 1h1v1h-1zm-17 1h1v1h-1zm17 0h1v1h-1zm0 1h1v1h-1zm0 1h1v1h-1zm-6 1h1v1h-1zm6 0h1v1h-1zm0 1h1v1h-1zm-34 1h1v1h-1zm26 0h1v1h-1zm-15 1h1v1h-1zm10 5h2v1h-2zm1 2h1v1h-1zm6 2h1v1h-1zm-11 2h1v1h-1zm-8 3h1v1h-1zm25 6h1v1h-1zm-19 1h1v1h-1zm13 0h1v1h-1zm6 0h1v1h-1zm-7 1h1v1h-1zm7 0h1v1h-1zm0 1h1v1h-1zm0 1h1v1h-1zm0 1h1v1h-1zm9 1h1v1h-1zm-44 1h1v1h-1zm44 4h1v1h-1zm-9 1h1v1h-1zm0 1h1v1h-1zm0 1h1v1h-1zm0 1h1v1h-1zm0 1h1v1h-1zm0 1h1v1h-1zm-34 1h1v1h-1zm11 1h1v1h-1zm-7 2h1v1h-1zm-4 2h1v1h-1z"/><path fill="#ebb" d="M14 10h1v1h-1zm4 0h1v1h-1zm29 0h1v1h-1zm-4 3h1v1h-1zm-23 4h1v1h-1zm0 1h1v1h-1zm0 1h1v1h-1zm0 1h1v1h-1zm-5 3h1v1h-1zm29 0h1v1h-1zm-1 1h1v1h-1zm0 1h1v1h-1zm-23 4h1v1h-1zm9 0h1v1h-1zm7 0h1v1h-1zm-16 1h1v1h-1zm0 1h1v1h-1zm0 1h1v1h-1zm11 1h1v1h-1zm0 1h1v1h-1zm14 0h1v1h-1zm-14 1h1v2h-1zm24 0h1v1h-1zm-12 1h1v1h-1zm-12 1h1v1h-1zm12 0h1v1h-1zm-12 1h1v1h-1zm3 1h1v1h-1zm-3 4h1v1h-1zm0 1h1v1h-1zm0 3h1v1h-1zm3 0h1v1h-1zm-3 1h1v1h-1zm3 0h1v1h-1zm-3 1h1v1h-1zm3 0h1v1h-1zm13 0h1v1h-1zm5 0h1v1h-1zm-21 1h1v3h-1zm3 0h1v2h-1zm0 2h1v1h-1zm9 0h1v1h-1zm-12 1h1v1h-1zm3 0h1v1h-1zm0 1h1v1h-1zm-14 2h1v1h-1zm0 1h1v1h-1zm0 1h1v1h-1zm0 1h1v1h-1zm25 2h1v1h-1zm-29 1h1v1h-1zm33 0h1v1h-1zm-6 1h1v1h-1zm0 1h1v1h-1zm-28 1h1v1h-1zm2 0h1v1h-1zm32 0h1v1h-1zm-29 3h1v1h-1zm0 1h1v1h-1zm0 1h1v1h-1zm0 1h1v1h-1zm23 4h1v1h-1z"/><path fill="#a23" d="M14 12h1v1h-1z"/><path fill="#b44" d="M51 12h1v1h-1zm-41 1h1v1h-1zm43 4h1v1h-1zm0 1h1v1h-1zm-39 5h1v1h-1zm39 6h1v1h-1zm0 1h1v1h-1zM10 52h1v1h-1zm43 4h1v1h-1zm0 1h1v1h-1zm-39 5h1v1h-1zm1 4h1v1h-1zm1 0h1v1h-1zm33 0h1v1h-1zm1 0h1v1h-1zm3 2h1v1h-1zm0 1h1v1h-1z"/><path fill="#a66" d="M20 15h1v1h-1zm1 11h1v1h-1zm25 13h1v1h-1zm-2 14h1v1h-1zm-12 5h1v1h-1zm1 0h1v1h-1zm11 19h1v1h-1zm-31 1h1v1h-1zm39 0h1v1h-1z"/><path fill="#c77" d="M12 19h1v1h-1zm5 4h1v1h-1zm-5 8h1v1h-1zm22 11h1v1h-1zM12 58h1v1h-1zm0 12h1v1h-1z"/><path fill="#777" d="M0 84h1v1H0zm65 0h1v1h-1zM0 85h1v1H0zm65 0h1v1h-1zM0 86h1v1H0zm65 0h1v1h-1zM0 87h1v1H0zm65 0h1v1h-1z"/><path fill="#bbb" d="M0 1h1v1H0zm1 0h1v1H1zm63 0h1v1h-1zm1 0h1v1h-1zM1 85h1v1H1zm63 0h1v1h-1zM2 86h1v1H2zm1 0h1v1H3zm59 0h1v1h-1zm1 0h1v1h-1z"/><path fill="#922" d="M12 15h1v1h-1zm41 12h1v1h-1zM12 54h1v1h-1zm41 12h1v1h-1zm2 10h1v1h-1z"/><path fill="#b34" d="M51 62h1v1h-1zm-3 4h1v1h-1zm2 11h1v1h-1z"/><path fill="#c44" d="M48 11h1v1h-1zm1 0h1v1h-1zm-5 1h1v1h-1zm10 0h1v1h-1zm-1 7h1v1h-1zm-1 1h1v1h-1zm-6 1h1v1h-1zm2 1h1v1h-1zm5 9h1v1h-1zm-34 2h1v1h-1zm27 0h1v1h-1zm6 1h1v1h-1zm0 1h1v1h-1zm-42 1h1v1h-1zm2 0h1v1h-1zm34 0h1v1h-1zm4 2h1v1h-1zM11 51h1v1h-1zm8 0h1v1h-1zm35 0h1v1h-1zm-1 7h1v1h-1zm-40 1h1v1h-1zm39 0h1v1h-1zm-6 1h1v1h-1zm-31 1h1v1h-1zm2 0h1v1h-1zm32 0h1v1h-1zm1 0h1v1h-1zm-31 1h1v1h-1zm-9 1h1v1h-1zm43 7h1v1h-1zm-40 2h1v1h-1zm33 0h1v1h-1zm6 1h1v1h-1zm0 1h1v1h-1zm-42 1h1v1h-1z"/><path fill="#d99" d="M12 11h1v1h-1zm7 0h1v1h-1zm1 0h1v1h-1zm25 0h2v1h-2zm8 0h1v1h-1zm-31 1h1v1h-1zm26 0h1v1h-1zM21 23h1v1h-1zm27 0h1v1h-1zm-26 1h1v1h-1zm29 1h1v1h-1zm0 4h1v1h-1zm0 1h1v1h-1zm0 1h1v2h-1zm0 2h1v1h-1zm-31 1h1v1h-1zm31 0h1v1h-1zm0 1h1v1h-1zm0 1h1v1h-1zM16 49h1v1h-1zm33 0h1v1h-1zm1 0h1v1h-1zm-38 1h1v1h-1zm7 0h1v1h-1zm2 0h1v1h-1zm24 0h1v1h-1zm1 0h1v1h-1zm7 0h1v1h-1zm-31 1h1v1h-1zm-2 10h1v1h-1zm31 3h1v1h-1zm0 4h1v1h-1zm0 1h1v1h-1zm0 1h1v2h-1zm0 2h1v1h-1zm-31 1h1v1h-1zm31 0h1v1h-1zm0 1h1v1h-1zm0 1h1v1h-1zm-29 1h1v1h-1zm26 0h1v1h-1z"/><path fill="#d89" d="M54 11h1v1h-1zm-3 5h1v1h-1zm0 1h1v1h-1zm0 1h1v1h-1zm0 1h1v1h-1zM31 31h1v1h-1zm13 4h1v1h-1zm-22 1h1v1h-1zm-2 14h1v1h-1zm31 5h1v1h-1zm0 1h1v1h-1zm0 1h1v1h-1zm0 1h1v1h-1zm-29 5h1v1h-1zm0 12h1v1h-1z"/><path fill="#b77" d="M45 15h1v1h-1zm-1 11h1v1h-1zM21 38h1v1h-1zm10 20h1v1h-1zm3 0h1v1h-1zm-13 7h1v1h-1z"/><path fill="#c99" d="M45 27h1v1h-1zM22 37h1v1h-1zM12 78h1v1h-1z"/><path fill="#eaa" d="M15 10h1v1h-1zm1 0h1v1h-1zm1 0h1v1h-1zm31 0h1v1h-1zm1 0h1v1h-1zm1 0h1v1h-1zm1 11h1v1h-1zM34 34h1v1h-1zm0 1h1v1h-1zm0 1h1v1h-1zm0 1h1v1h-1zm0 1h1v1h-1zm-3 2h1v1h-1zm3 0h1v1h-1zm-6 1h1v1h-1zm-14 8h1v1h-1zm3 0h1v1h-1zm31 0h1v1h-1zm3 0h1v1h-1zm-40 1h1v1h-1zm23 5h1v1h-1zm17 5h1v1h-1zm-7 2h1v1h-1zm1 11h1v1h-1zm10 1h1v1h-1z"/><path fill="#d78" d="M14 21h1v1h-1zm19 8h1v1h-1zm-5 1h1v1h-1zm4 0h1v1h-1zm5 0h1v1h-1zM27 42h1v1h-1zm11 0h1v1h-1zm-6 3h1v1h-1zm1 0h1v1h-1zm-1 1h2v1h-2zM14 60h1v1h-1zm34 5h1v1h-1z"/><path fill="#a22" d="M14 27h1v1h-1zm4 2h1v1h-1zm-1 9h1v1h-1zm-3 28h1v1h-1zm37 0h1v1h-1zm-33 2h1v1h-1z"/><path fill="#b88" d="M12 39h1v1h-1zm9 38h1v1h-1zm-2 1h1v1h-1z"/><g fill="#fff"><path d="M4 1h1v1H4zm1 0h1v1H5zm1 0h54v1H6zm54 0h1v1h-1zm1 0h1v1h-1zM3 2h1v1H3zm1 0h1v1H4zm1 0h56v1H5zm56 0h1v1h-1zm1 0h1v1h-1zM2 3h1v1H2zm1 0h1v1H3zm1 0h2v1H4zm2 0h54v1H6zm54 0h2v1h-2zm2 0h1v1h-1zm1 0h1v1h-1zM2 4h1v2H2zm1 0h1v3H3zm1 0h1v1H4zm1 0h56v6H5zm56 0h1v1h-1zm1 0h1v3h-1zm1 0h1v2h-1z"/><path d="M4 5h58v2H4zM3 7h1v1H3zm1 0h1v1H4zm57 0h1v1h-1zm1 0h1v1h-1zM3 8h1v73H3zm1 0h1v73H4zm57 0h1v74h-1zm1 0h1v73h-1zM5 10h7v1H5zm16 0h24v1H21zm24 0h1v1h-1zm9 0h1v1h-1zm1 0h6v1h-6zM5 11h5v71H5zm5 0h1v1h-1zm12 0h1v1h-1zm1 0h21v1H23zm33 0h5v71h-5zm-41 1h1v1h-1zm1 0h1v10h-1zm7 0h20v16H23zm26 0h1v10h-1zm1 0h1v1h-1z"/><path d="M15 13h2v9h-2zm2 0h1v1h-1zm33 0h1v9h-1zm-33 1h1v8h-1zm-7 1h1v8h-1zm11 0h1v1h-1zm1 0h22v8H22zm22 0h1v1h-1zm11 0h6v8h-6zm-44 1h1v6h-1z"/><path d="M21 16h24v7H21zm33 0h7v6h-7zm-43 6h1v1h-1zm11 1h1v1h-1zm21 0h1v1h-1zm-28 1h3v2h-3zm34 0h2v2h-2zm-27 2h1v1h-1zm21 0h1v1h-1zm-33 1h1v8h-1zm11 0h24v1H21zm34 0h6v8h-6zm-44 1h1v6h-1zm4 0h2v9h-2zm2 0h1v1h-1zm4 0h9v1h-9zm9 0h1v1h-1zm1 0h1v1h-1zm1 0h2v1h-2zm2 0h1v1h-1zm1 0h1v1h-1zm1 0h9v1h-9zm13 0h2v9h-2z"/><path d="M54 28h7v6h-7zm-37 1h1v7h-1zm4 0h7v1h-7zm17 0h1v1h-1zm1 0h6v1h-6zm-18 1h5v4h-5zm5 0h1v1h-1zm13 0h1v1h-1zm1 0h5v5h-5zm-8 1h2v9h-2zm-6 2h1v9h-1z"/><path d="M39 33h6v2h-6zm-18 1h1v1h-1zm1 0h6v1h-6z"/><path d="M38 34h7v1h-7zm-15 1h6v5h-6zm14 0h6v6h-6zm6 0h1v1h-1zm-26 1h1v1h-1zm-2 1h1v1h-1zm1 0h1v1h-1zm33 0h1v1h-1zm1 0h1v1h-1zm-28 1h1v1h-1zm21 0h1v1h-1zm-33 1h1v11h-1z"/><path d="M21 39h8v1h-8zm22 0h1v12h-1zm1 0h1v1h-1zm10 0h1v1h-1zm1 0h6v11h-6zm-44 1h17v2H11zm17 0h1v1h-1z"/><path d="M44 40h17v9H44z"/><path d="M38 41h23v1H38zm-27 1h15v7H11zm15 0h1v1h-1zm6 0h1v1h-1zm7 0h1v1h-1zm1 0h21v7H40zm-8 1h2v2h-2zm-6 2h1v9h-1z"/><path d="M39 45h22v4H39zm-12 1h1v7h-1zm10 0h1v1h-1z"/><path d="M38 46h23v3H38zm-10 1h1v5h-1zm4 0h2v9h-2z"/><path d="M37 47h24v2H37zm-26 2h1v1h-1zm10 0h8v1h-8zm16 0h8v1h-8zm8 0h1v1h-1zm9 0h1v1h-1zm-44 1h1v1h-1zm12 0h1v1h-1zm1 0h6v2h-6zm14 0h7v1h-7zm-22 1h1v1h-1zm1 0h1v10h-1zm21 0h6v1h-6zm12 0h1v10h-1zm1 0h1v1h-1z"/><path d="M15 52h2v9h-2zm2 0h1v1h-1zm6 0h5v1h-5zm5 0h1v1h-1zm9 0h1v1h-1zm1 0h5v1h-5zm12 0h1v9h-1zm-33 1h1v8h-1zm5 0h1v1h-1zm1 0h4v1h-4zm4 0h1v1h-1zm11 0h1v1h-1zm1 0h4v1h-4zm4 0h1v1h-1zm-33 1h1v8h-1zm11 0h1v1h-1zm1 0h4v8h-4zm18 0h4v8h-4zm4 0h1v1h-1zm11 0h6v8h-6zm-44 1h1v6h-1z"/><path d="M21 55h5v7h-5zm23 0h1v7h-1zm10 0h7v6h-7zm-22 1h1v1h-1zm1 0h1v1h-1zm-7 1h1v27h-1z"/><path d="M39 57h6v5h-6zm-12 1h1v26h-1zm1 0h1v1h-1z"/><path d="M37 58h8v4h-8z"/><path d="M28 59h17v3H28zm-17 2h1v1h-1zm11 1h1v1h-1zm1 0h20v22H23zm20 0h1v1h-1zm-28 1h3v2h-3zm34 0h2v2h-2zm-27 2h1v1h-1zm21 0h1v1h-1zm-33 1h1v8h-1zm1 0h1v1h-1z"/><path d="M21 66h24v7H21zm34 0h6v8h-6zm-44 1h1v6h-1zm4 0h2v9h-2zm2 0h1v1h-1zm32 0h2v9h-2z"/><path d="M54 67h7v6h-7zm-37 1h1v7h-1zm4 5h1v1h-1zm1 0h22v1H22zm22 0h1v1h-1zm-1 1h1v1h-1zm-26 1h1v1h-1zm-1 1h1v1h-1zm33 0h1v1h-1zm1 0h1v1h-1zm-28 1h1v1h-1zm21 0h1v1h-1zm-33 1h1v6h-1zm11 0h24v6H21zm33 0h1v1h-1zm1 0h6v4h-6z"/><path d="M11 79h50v3H11zm-8 2h1v1H3zm1 0h1v2H4zm58 0h1v1h-1zM3 82h1v1H3zm2 0h1v1H5zm1 0h54v1H6zm54 0h1v1h-1zm1 0h1v1h-1zm1 0h1v1h-1zM3 83h1v1H3zm1 0h1v1H4zm1 0h1v1H5zm1 0h1v1H6zm1 0h52v1H7zm52 0h1v1h-1zm1 0h1v1h-1zm1 0h1v1h-1zm1 0h1v1h-1zM5 84h1v1H5zm1 0h1v1H6zm1 0h1v1H7zm1 0h50v1H8zm50 0h1v1h-1zm1 0h1v1h-1zm1 0h1v1h-1z"/></g><path fill="#daa" d="M16 23h1v1h-1zm33 0h1v1h-1zm2 1h1v1h-1zm-17 8h1v1h-1zm0 1h1v1h-1zm17 30h1v1h-1z"/><path fill="#701" d="M29 57h1v1h-1zm7 0h1v1h-1z"/><path fill="#923" d="M37 33h1v1h-1zm-9 12h1v1h-1zm10 11h1v1h-1zm16 9h1v1h-1z"/><path fill="#fef" d="M22 14h1v1h-1zm4 40h1v1h-1zm13 0h1v1h-1z"/><path fill="#a01" d="M27 32h1v1h-1zm1 0h1v1h-1zm1 0h1v1h-1zm1 0h1v1h-1zm5 0h1v1h-1zm1 0h1v1h-1zm-6 1h1v1h-1zm5 0h1v1h-1zm-6 1h1v1h-1zm1 0h1v1h-1zm5 0h1v1h-1zm-6 1h1v1h-1zm-1 9h1v1h-1zm8 0h1v1h-1zm-7 1h1v1h-1zm1 1h1v1h-1zm5 0h1v1h-1zm-6 1h1v1h-1zm1 0h1v1h-1zm5 0h1v1h-1zm0 9h1v1h-1z"/><path fill="#dab" d="M17 12h1v1h-1zm38 2h1v1h-1zm-5 48h1v1h-1z"/><path fill="#b22" d="M13 19h1v1h-1zm6 0h1v1h-1zm28 0h1v1h-1zm5 0h1v1h-1zm-39 5h1v1h-1zm8 0h1v1h-1zm23 0h1v1h-1zm11 0h1v1h-1zm-37 1h1v1h-1zm0 5h1v1h-1zm-5 1h1v1h-1zm33 1h1v1h-1zm6 0h1v1h-1zm-5 1h1v1h-1zm-29 2h1v1h-1zm-7 1h1v1h-1zm43 0h1v1h-1zm-2 15h1v1h-1zm-39 7h1v1h-1zm6 0h1v1h-1zm28 0h1v1h-1zm-36 5h1v1h-1zm2 0h1v1h-1zm6 0h1v1h-1zm2 0h1v1h-1zm23 0h1v1h-1zm-26 1h1v1h-1zm0 5h1v1h-1zm-5 1h1v1h-1zm39 1h1v1h-1zm-5 1h1v1h-1zm-29 1h1v1h-1zm0 1h1v1h-1zm-7 1h1v1h-1zm9 0h1v1h-1z"/><path fill="#c13" d="M34 30h1v1h-1zm2 8h1v1h-1zm-7 5h1v1h-1zm7 7h1v1h-1zm-7 1h1v1h-1zm0 4h1v1h-1zm1 0h1v1h-1zm5 0h1v1h-1z"/><path fill="#a55" d="M21 14h1v1h-1zm23 0h1v1h-1z"/><path fill="#fdd" d="M19 10h1v1h-1zm27 0h1v1h-1zm7 0h1v1h-1zm-9 1h1v1h-1zm4 7h1v1h-1zm0 1h1v1h-1zm0 1h1v1h-1zm0 1h1v1h-1zm7 2h1v1h-1zm-7 2h1v1h-1zm-11 4h1v1h-1zm-11 2h1v1h-1zm13 0h1v1h-1zm9 0h1v3h-1zm-22 1h1v1h-1zm22 2h1v1h-1zm0 1h1v1h-1zm0 1h1v1h-1zm-22 7h1v1h-1zm13 0h1v1h-1zm-27 6h1v1h-1zm41 0h1v1h-1zm-27 6h1v1h-1zm13 0h1v1h-1zm9 2h1v1h-1zm0 1h1v1h-1zm0 1h1v2h-1zm0 5h1v1h-1zm0 6h1v3h-1zm0 3h1v1h-1zm6 0h1v1h-1zm-6 1h1v1h-1zm0 1h1v1h-1z"/><path fill="#b12" d="M47 12h1v1h-1zm-34 5h1v1h-1zm34 0h1v1h-1zm5 0h1v1h-1zm-39 1h1v1h-1zm5 0h1v1h-1zm1 0h1v1h-1zm27 0h1v1h-1zm1 0h1v1h-1zm5 0h1v1h-1zm-34 1h1v1h-1zm28 0h1v1h-1zm-28 4h1v1h-1zm29 0h1v1h-1zm0 1h1v1h-1zm5 0h1v1h-1zm-39 1h1v1h-1zm33 0h1v1h-1zm1 0h1v1h-1zm5 0h1v1h-1zm-34 1h1v1h-1zm29 0h1v1h-1zm-34 4h1v1h-1zm6 0h1v1h-1zm27 0h1v1h-1zm6 0h1v1h-1zm-33 1h1v1h-1zm27 0h2v1h-2zm6 0h1v1h-1zm-5 1h1v1h-1zm-11 3h1v1h-1zm-15 1h1v1h-1zm15 0h1v1h-1zm8 0h1v1h-1zm11 0h1v1h-1zm-37 1h1v1h-1zm29 0h1v1h-1zM36 48h1v1h-1zm0 1h1v1h-1zm11 2h1v1h-1zm-34 5h1v1h-1zm34 0h1v1h-1zm5 0h1v1h-1zm-39 1h1v1h-1zm5 0h1v1h-1zm1 0h1v1h-1zm13 0h1v1h-1zm14 0h1v1h-1zm1 0h1v1h-1zm5 0h1v1h-1zm-34 1h1v1h-1zm28 0h1v1h-1zm-28 4h1v1h-1zm29 0h1v1h-1zm0 1h1v1h-1zm5 0h1v1h-1zm3 0h1v1h-1zm-42 1h1v1h-1zm34 0h1v1h-1zm5 0h1v1h-1zm-34 1h1v1h-1zm29 0h1v1h-1zm-34 4h1v1h-1zm6 0h1v1h-1zm27 0h1v1h-1zm6 0h1v1h-1zm-33 1h1v1h-1zm27 0h1v1h-1zm1 0h1v1h-1zm5 0h1v1h-1zm-5 1h1v1h-1zm-26 4h1v1h-1zm23 0h1v1h-1zm10 0h1v1h-1zm1 0h1v1h-1zm-37 1h1v1h-1zm29 0h1v1h-1z"/><path fill="#a44" d="M53 16h1v1h-1zm-43 9h1v1h-1zm43 3h1v1h-1zm-43 9h1v1h-1zm43 18h1v1h-1zm-43 9h1v1h-1zm43 3h1v1h-1zm-43 9h1v1h-1z"/><path fill="#c89" d="M51 28h1v1h-1zM22 52h1v1h-1zm8 6h1v1h-1zm-8 6h1v1h-1zm29 3h1v1h-1z"/><path fill="#b02" d="M30 31h1v1h-1zm5 0h1v1h-1zm-5 4h1v1h-1zm5 0h1v1h-1zm-6 1h1v1h-1zm1 0h1v1h-1zm5 0h1v1h-1zm-6 1h1v1h-1zm2 4h1v1h-1zm1 0h3v1h-3zm-5 2h1v1h-1zm3 0h1v1h-1zm5 0h1v1h-1zm3 0h1v1h-1zm-9 1h1v1h-1zm1 0h1v1h-1zm5 0h1v1h-1zm-5 1h1v1h-1zm5 0h1v1h-1zm-6 3h2v1h-2zm6 0h1v1h-1zm-6 1h1v1h-1zm1 0h1v1h-1zm5 0h1v1h-1zm-8 6h1v1h-1zm10 0h1v1h-1zm1 0h1v1h-1zm-8 1h1v1h-1zm3 1h1v1h-1z"/><path fill="#844" d="M47 39h1v1h-1zm4 39h1v1h-1z"/><path fill="#999" d="M0 3h1v1H0zm65 0h1v1h-1zM0 4h1v1H0zm65 0h1v1h-1zM3 88h1v1H3zm59 0h1v1h-1z"/><path fill="#fcd" d="M44 50h1v1h-1z"/><path fill="#aaa" d="M0 2h1v1H0zm65 0h1v1h-1zM1 86h1v1H1zm63 0h1v1h-1zM2 87h1v1H2zm1 0h1v1H3zm1 0h1v1H4zm1 0h56v1H5zm56 0h1v1h-1zm1 0h1v1h-1zm1 0h1v1h-1zM4 88h1v1H4zm1 0h56v1H5zm56 0h1v1h-1z"/><path fill="#a12" d="M18 12h1v1h-1zm-7 1h1v1h-1zm1 0h1v1h-1zm1 0h1v1h-1zm6 0h1v1h-1zm1 0h1v1h-1zm24 0h1v1h-1zm1 0h1v1h-1zm1 0h1v1h-1zm6 0h1v1h-1zm1 0h1v1h-1zm-35 2h1v1h-1zm29 0h1v1h-1zm5 0h1v1h-1zm-39 1h1v1h-1zm5 0h1v1h-1zm1 0h1v1h-1zm28 0h1v1h-1zm5 0h1v1h-1zm-34 1h1v1h-1zm1 0h1v1h-1zm27 0h1v1h-1zm-34 8h1v1h-1zm7 0h1v1h-1zm1 0h1v1h-1zm25 0h1v1h-1zm8 0h1v1h-1zm-40 1h1v1h-1zm6 0h1v1h-1zm33 0h1v1h-1zm-34 1h1v1h-1zm29 0h1v1h-1zm4 0h1v1h-1zm1 0h1v1h-1zm-39 2h1v1h-1zm6 0h1v1h-1zm27 0h1v1h-1zm1 0h1v1h-1zm5 0h1v1h-1zm-5 1h1v1h-1zm-34 7h1v1h-1zm6 0h1v1h-1zm27 0h1v1h-1zm6 0h1v1h-1zm-4 1h1v1h-1zm-12 9h1v1h-1zm-18 4h1v1h-1zm-7 1h1v1h-1zm1 0h1v1h-1zm1 0h1v1h-1zm6 0h1v1h-1zm1 0h1v1h-1zm24 0h1v1h-1zm1 0h1v1h-1zm1 0h1v1h-1zm7 0h1v1h-1zm-35 2h1v1h-1zm29 0h1v1h-1zm5 0h1v1h-1zm-39 1h1v1h-1zm5 0h1v1h-1zm1 0h1v1h-1zm27 0h1v1h-1zm1 0h1v1h-1zm5 0h1v1h-1zm-34 1h1v1h-1zm1 0h1v1h-1zm27 0h1v1h-1zm-34 8h1v1h-1zm7 0h1v1h-1zm1 0h1v1h-1zm25 0h1v1h-1zm1 0h1v1h-1zm7 0h1v1h-1zm-40 1h1v1h-1zm6 0h1v1h-1zm33 0h1v1h-1zm-34 1h1v1h-1zm29 0h1v1h-1zm5 0h1v1h-1zm-39 2h1v1h-1zm6 0h1v1h-1zm27 0h1v1h-1zm1 0h1v1h-1zm5 0h1v1h-1zm-5 1h1v1h-1zm-34 7h1v1h-1zm39 0h1v1h-1zm-35 1h1v1h-1zm31 0h1v1h-1z"/><path fill="#c33" d="M17 11h1v1h-1zm2 9h1v1h-1zm-5 2h1v1h-1zm6 2h1v1h-1zm25 0h1v1h-1zm1 0h1v1h-1zm7 0h1v1h-1zm-1 9h1v1h-1zm0 3h1v1h-1zm-38 1h1v1h-1zm36 13h1v1h-1zm-37 1h1v1h-1zm8 0h1v1h-1zm-2 8h1v1h-1zm-1 2h1v1h-1zm30 0h1v1h-1zm3 0h1v1h-1zm-39 2h1v1h-1zm40 9h1v1h-1zm-33 3h1v1h-1zm33 0h1v1h-1zm1 0h1v1h-1z"/><path fill="#711" d="M12 38h1v1h-1zm1 0h1v1h-1zm6 0h1v1h-1zm1 0h1v1h-1zm25 0h1v1h-1zm1 0h1v1h-1zm7 0h1v1h-1zM12 77h1v1h-1zm1 0h1v1h-1zm6 0h1v1h-1zm1 0h1v1h-1zm25 0h1v1h-1zm1 0h1v1h-1zm6 0h1v1h-1zm1 0h1v1h-1z"/><path fill="#b67" d="M12 28h1v1h-1zm0 27h1v1h-1zm0 12h1v1h-1z"/><path fill="#eab" d="M51 10h1v1h-1zm-40 1h1v1h-1zm16 19h1v1h-1zm10 11h1v1h-1zm-6 1h1v1h-1zm3 2h1v1h-1zm-16 5h1v1h-1zm13 5h1v1h-1zm0 1h1v1h-1z"/><path fill="#c55" d="M51 11h1v1h-1zm-31 1h1v1h-1zm26 0h1v1h-1zm7 0h1v1h-1zm-40 9h1v2h-1zm39 0h1v1h-1zm-37 1h1v1h-1zm2 0h1v1h-1zm2 0h1v1h-1zm27 0h1v1h-1zm3 0h1v1h-1zm1 0h1v1h-1zm-30 1h1v1h-1zm26 0h1v1h-1zm7 0h1v1h-1zM14 50h1v1h-1zm35 0h1v1h-1zm-29 1h1v1h-1zm25 0h1v1h-1zm1 0h1v1h-1zm7 0h1v1h-1zm-40 9h1v1h-1zm39 0h1v1h-1zm-39 1h1v1h-1zm6 0h1v1h-1zm27 0h1v1h-1zm-26 1h1v1h-1zm25 0h1v1h-1zm1 0h1v1h-1zm7 0h1v1h-1zm-2 14h1v1h-1zm-2 1h1v1h-1z"/><path fill="#c45" d="M11 12h1v1h-1zm8 0h1v1h-1zm34 8h1v1h-1zm-35 1h2v1h-2zm29 0h1v1h-1zm5 1h1v1h-1zm-33 1h1v1h-1zm-9 1h1v1h-1zm43 8h1v1h-1zm-40 2h1v1h-1zm0 1h1v1h-1zm3 15h1v1h-1zm35 0h1v1h-1zm-17 6h1v1h-1zm19 3h1v1h-1zm-35 1h2v1h-2zm29 0h1v1h-1zm-31 1h1v1h-1zm36 0h1v1h-1zm1 10h1v1h-1zm-34 1h1v1h-1zm-6 1h1v2h-1z"/><path fill="#eee" d="M3 1h1v1H3zm59 0h1v1h-1zM2 2h1v1H2zm61 0h1v1h-1zM1 3h1v1H1zm63 0h1v1h-1zM1 4h1v1H1zm63 0h1v1h-1zM1 5h1v1H1zm63 0h1v1h-1zM2 6h1v1H2zm61 0h1v1h-1zM2 7h1v1H2zm61 0h1v1h-1zM2 8h1v74H2zm61 0h1v74h-1zM11 39h1v1h-1zM2 82h1v1H2zm61 0h1v1h-1zM2 83h1v1H2zm61 0h1v1h-1zM3 84h1v1H3zm1 0h1v1H4zm57 0h1v1h-1zm1 0h1v1h-1zM9 85h48v1H9z"/><path fill="#e89" d="M31 29h1v1h-1zm3 0h1v1h-1z"/><path fill="#d67" d="M18 11h1v1h-1zm15 19h1v1h-1zm-17 8h1v1h-1zm-4 23h1v1h-1zm-1 1h1v1h-1zm10 12h1v1h-1zm-7 1h1v1h-1z"/><path fill="#722" d="M11 77h1v1h-1z"/><path fill="#c24" d="M28 31h1v1h-1zm8 8h1v1h-1zm-1 2h1v1h-1zm0 13h1v1h-1z"/><path fill="#dbb" d="M10 14h1v1h-1zm10 2h1v1h-1zm35 10h1v1h-1zm-35 2h1v1h-1zm11 4h1v1h-1zm-4 1h1v1h-1zm18 6h1v1h-1zM17 51h1v1h-1zm-7 2h1v1h-1zm45 0h1v1h-1zm-35 2h1v1h-1zm7 2h1v1h-1zm2 1h1v1h-1zm-9 9h1v1h-1z"/><path fill="#b56" d="M14 28h1v1h-1zm0 39h1v1h-1z"/><path fill="#e88" d="M29 30h1v1h-1zm9 0h1v1h-1z"/><path fill="#caa" d="M53 39h1v1h-1zm-8 27h1v1h-1z"/><path fill="#b45" d="M34 46h1v1h-1zm17 5h1v1h-1z"/><path fill="#dcc" d="M45 78h1v1h-1z"/><path fill="#b23" d="M52 12h1v1h-1zm-6 8h1v1h-1zm6 3h1v1h-1zm-41 1h1v1h-1zm8 0h1v1h-1zm35 0h1v1h-1zm-37 3h1v1h-1zm1 4h1v1h-1zm-5 1h1v1h-1zm5 0h1v1h-1zm1 0h1v1h-1zm-1 1h1v1h-1zm0 1h1v1h-1zm29 0h1v1h-1zm-27 2h1v1h-1zm35 15h1v1h-1zm-3 7h1v1h-1zm-6 1h1v1h-1zm6 3h1v1h-1zm2 1h1v1h-1zm-36 7h1v1h-1zm-5 1h1v1h-1zm5 0h1v1h-1zm1 0h1v1h-1zm27 0h1v1h-1zm-28 1h1v1h-1zm29 1h1v1h-1zm-29 2h1v1h-1zm27 0h1v1h-1zm-30 2h1v1h-1z"/><path fill="#811" d="M20 14h1v1h-1zm25 0h1v1h-1zM20 26h1v1h-1zm25 0h1v1h-1zM21 37h1v1h-1zm33 0h1v1h-1zm-36 1h1v1h-1zm29 0h1v1h-1zm5 0h1v1h-1zM20 53h1v1h-1zm25 0h1v1h-1zM20 65h1v1h-1zm25 0h1v1h-1zM20 76h1v1h-1zm1 0h1v1h-1zm33 0h1v1h-1zm-36 1h1v1h-1zm29 0h1v1h-1z"/><path fill="#d77" d="M47 11h1v1h-1zm-35 9h1v1h-1zm2 0h1v1h-1zm-2 2h1v1h-1zm-1 1h1v1h-1zm21 6h1v1h-1zm-20 3h1v1h-1zm0 2h1v1h-1zm9 1h1v1h-1zm-7 1h1v1h-1zm33 14h1v1h-1zm-35 9h1v1h-1zm2 0h1v1h-1zm-2 12h1v1h-1zm0 2h1v1h-1z"/><path fill="#edd" d="M48 14h1v1h-1zm-37 1h1v1h-1zm37 0h1v1h-1zm0 1h1v2h-1zm0 8h1v1h-1zm0 4h1v1h-1zm0 1h1v1h-1zm0 1h1v1h-1zm-10 3h1v1h-1zm-18 6h1v1h-1zm7 6h1v1h-1zm21 8h1v1h-1zm-37 1h1v1h-1zm37 0h1v3h-1zm6 0h1v1h-1zm-18 4h1v1h-1zm12 5h1v1h-1zm-38 2h1v1h-1zm38 2h1v1h-1zm0 1h1v1h-1zm0 1h1v1h-1zm7 8h1v1h-1zm-35 1h1v1h-1z"/><path fill="#c67" d="M12 17h1v1h-1zm0 1h1v1h-1zm0 11h1v1h-1zm0 1h1v1h-1zm0 26h1v1h-1zm0 1h1v1h-1zm0 11h1v1h-1zm0 1h1v1h-1z"/><path fill="#901" d="M37 32h1v1h-1zm-8 1h1v1h-1zm7 0h1v1h-1zm1 11h1v1h-1zm-1 1h1v1h-1zm-7 1h1v1h-1zm-1 10h1v1h-1zm1 0h1v1h-1zm7 0h1v1h-1zm-5 1h1v1h-1zm3 0h1v1h-1z"/><path fill="#cab" d="M53 78h1v1h-1z"/><path fill="#ccc" d="M1 0h1v1H1zm1 0h1v1H2zm61 0h1v1h-1zm1 0h1v1h-1zM1 2h1v1H1zm63 0h1v1h-1zM1 84h1v1H1zm63 0h1v1h-1zM2 85h1v1H2zm61 0h1v1h-1zM4 86h1v1H4zm1 0h1v1H5zm1 0h1v1H6zm1 0h52v1H7zm52 0h1v1h-1zm1 0h1v1h-1zm1 0h1v1h-1z"/><path fill="#933" d="M11 26h1v1h-1zm1 1h1v1h-1zm-1 38h1v1h-1z"/><path fill="#b78" d="M20 27h1v1h-1zm25 27h1v1h-1z"/><path fill="#c88" d="M22 13h1v1h-1zm29 0h1v1h-1zm0 1h1v1h-1zM22 25h1v1h-1zm29 27h1v1h-1zm0 1h1v1h-1zm-34 9h1v1h-1zm27 3h1v1h-1zm-24 1h1v1h-1z"/><path fill="#a11" d="M54 13h1v1h-1zm-8 3h1v1h-1zm6 36h1v1h-1zm-6 24h1v1h-1z"/><path fill="#d9a" d="M50 23h1v1h-1zm-2 28h1v1h-1zm0 11h1v1h-1z"/><path fill="#a77" d="M19 39h1v1h-1zm27 39h1v1h-1z"/><path fill="#b33" d="M50 11h1v1h-1zm5 1h1v1h-1zm-4 11h1v1h-1zm-33 1h1v1h-1zm-4 2h1v1h-1zm1 1h1v1h-1zm1 0h1v1h-1zm32 0h1v1h-1zm1 0h1v1h-1zm1 0h1v1h-1zm-3 8h1v1h-1zm-29 1h1v1h-1zm27 0h1v1h-1zm2 0h1v1h-1zm-32 2h1v1h-1zm2 12h1v1h-1zm-3 11h1v1h-1zm4 2h1v1h-1zm2 0h1v1h-1zm25 0h1v1h-1zm1 0h1v1h-1zm7 0h1v1h-1zm-39 2h1v1h-1zm3 1h1v1h-1zm30 8h1v1h-1zm0 1h1v1h-1zm-33 1h1v1h-1z"/><path fill="#823" d="M48 39h1v1h-1z"/><path fill="#c23" d="M31 30h1v1h-1zm5 1h1v1h-1zm1 0h1v1h-1zm-7 7h1v1h-1zm5 0h1v1h-1zm-6 1h1v1h-1zm1 2h1v1h-1zm6 10h1v1h-1zm-6 1h1v1h-1zm5 0h1v1h-1zm-5 1h1v1h-1zm5 0h1v1h-1zm-5 1h1v1h-1z"/><path fill="#ecc" d="M13 10h1v1h-1zm39 0h1v1h-1zm3 1h1v1h-1zm-12 1h1v1h-1zm5 1h1v1h-1zm6 2h1v1h-1zm-9 7h1v1h-1zm-29 4h1v1h-1zm1 0h1v1h-1zm32 0h1v1h-1zm1 0h1v1h-1zm-30 7h1v1h-1zm8 1h1v1h-1zm-18 1h1v1h-1zm7 2h1v1h-1zm-7 1h1v1h-1zm45 0h1v1h-1zm-21 5h1v1h-1zm-15 6h1v1h-1zm27 0h1v1h-1zm9 1h1v1h-1zm-12 1h1v1h-1zm12 11h1v1h-1zm-39 3h1v1h-1zm34 0h1v1h-1zm5 0h1v1h-1zm-35 7h1v1h-1zm-10 2h1v1h-1zm33 2h1v1h-1zm-33 1h1v1h-1z"/><path fill="#812" d="M54 14h1v1h-1zM28 57h1v1h-1z"/><path fill="#d56" d="M30 30h1v1h-1zm5 0h1v1h-1zm-6 23h1v1h-1zm7 0h1v1h-1zm-9 1h1v1h-1zm2 0h1v1h-1zm7 0h1v1h-1zm2 0h1v1h-1z"/><path fill="#c78" d="M34 31h1v1h-1z"/><path fill="#712" d="M11 38h1v1h-1z"/><path fill="#888" d="M0 5h1v1H0zm65 0h1v1h-1zM0 6h1v1H0zm65 0h1v1h-1zM0 7h1v1H0zm65 0h1v1h-1zM0 8h1v73H0zm65 0h1v73h-1zM0 81h1v2H0zm65 0h1v2h-1zM0 83h1v1H0zm65 0h1v1h-1zM1 87h1v1H1zm63 0h1v1h-1zM2 88h1v1H2zm61 0h1v1h-1z"/><path fill="#d66" d="M10 12h1v1h-1zm41 14h1v1h-1zm2 8h1v1h-1zm0 1h1v1h-1zM18 50h1v1h-1zm35 22h1v1h-1zm0 1h1v1h-1z"/><path fill="#911" d="M18 13h1v1h-1zm3 0h1v1h-1zm26 0h1v1h-1zm8 0h1v1h-1zm-43 1h1v1h-1zm1 0h1v1h-1zm5 0h1v1h-1zm1 0h1v1h-1zm27 0h1v1h-1zm1 0h1v1h-1zm5 0h1v1h-1zm1 0h1v1h-1zm-40 1h1v1h-1zm6 0h1v1h-1zm27 0h1v1h-1zM11 25h1v1h-1zm10 0h1v1h-1zm23 0h1v1h-1zm10 0h1v1h-1zm1 0h1v1h-1zm-43 1h1v1h-1zm34 0h1v1h-1zm7 0h1v1h-1zm-40 1h1v1h-1zm6 0h1v1h-1zm27 0h1v1h-1zm-33 1h1v1h-1zm6 0h1v1h-1zm27 0h1v1h-1zm1 0h1v1h-1zm5 0h1v1h-1zm-41 9h1v1h-1zm1 0h1v1h-1zm8 0h1v1h-1zm24 0h1v1h-1zm1 0h1v1h-1zm8 0h1v1h-1zm-39 1h1v1h-1zm37 0h1v1h-1zM18 52h1v1h-1zm3 0h1v1h-1zm26 0h1v2h-1zm7 0h1v1h-1zm-42 1h1v1h-1zm1 0h1v1h-1zm5 0h1v1h-1zm1 0h1v1h-1zm27 0h1v1h-1zm6 0h1v1h-1zm1 0h1v1h-1zm-40 1h1v1h-1zm6 0h1v1h-1zm27 0h1v1h-1zM11 64h1v1h-1zm10 0h1v1h-1zm23 0h1v1h-1zm10 0h1v1h-1zm1 0h1v1h-1zm-43 1h1v1h-1zm34 0h1v1h-1zm7 0h1v1h-1zm-40 1h1v1h-1zm6 0h1v1h-1zm27 0h1v1h-1zm-33 1h1v1h-1zm6 0h1v1h-1zm27 0h1v1h-1zm1 0h1v1h-1zm5 0h1v1h-1zm-41 9h1v1h-1zm1 0h1v1h-1zm7 0h1v1h-1zm25 0h1v1h-1zm1 0h1v1h-1zm8 0h1v1h-1zm-39 1h1v1h-1zm37 0h1v1h-1z"/><path fill="#b66" d="M14 14h1v1h-1zm-2 2h1v1h-1zm2 13h1v1h-1zm0 24h1v1h-1zm6 1h1v1h-1zm-6 14h1v1h-1z"/><path fill="#912" d="M53 15h1v1h-1zM18 28h1v1h-1zm20 4h1v1h-1zm-10 1h1v1h-1zm27 4h1v1h-1zm-28 7h1v1h-1zm11 0h1v1h-1zm-2 2h1v1h-1zm19 6h1v1h-1zm-2 2h1v1h-1zm-26 2h1v1h-1zm-9 11h1v1h-1z"/><path fill="#c56" d="M14 11h1v1h-1zm31 1h1v1h-1zM16 22h1v1h-1zm-4 1h1v1h-1zm33 0h1v1h-1zM19 34h1v1h-1zm27 0h1v1h-1zm-27 1h1v1h-1zm26 0h1v1h-1zm9 0h1v1h-1zm-3 2h1v1h-1zm-20 9h1v1h-1zm-19 5h1v1h-1zm0 11h1v1h-1zm7 11h1v1h-1zm0 1h1v1h-1zm1 0h1v1h-1zm25 0h1v1h-1zm9 0h1v1h-1zm-38 3h1v1h-1z"/><path fill="#ebc" d="M20 21h1v1h-1zm-5 5h1v1h-1zm16 13h1v1h-1zM13 49h1v1h-1zm7 11h1v1h-1zm-5 2h1v1h-1zm2 14h1v1h-1z"/><path fill="#ecd" d="M10 26h1v1h-1zm38 26h1v1h-1z"/><path fill="#c12" d="M27 31h1v1h-1zm9 6h1v1h-1zm0 6h1v1h-1zm-6 8h1v1h-1zm5 0h1v1h-1zm1 4h1v1h-1z"/><path fill="#c02" d="M38 31h1v1h-1zm-8 6h1v1h-1zm5 0h1v1h-1zm-6 1h1v1h-1zm1 4h1v1h-1zm5 0h1v1h-1zm-7 1h1v1h-1zm9 0h1v1h-1zm-8 7h1v1h-1zm1 0h1v1h-1zm5 0h1v1h-1zm-7 5h1v1h-1z"/><path fill="#955" d="M13 39h1v1h-1zm39 0h1v1h-1zM18 78h1v1h-1zm29 0h1v1h-1z"/><path fill="#ddd" d="M3 0h1v1H3zm1 0h1v1H4zm1 0h56v1H5zm56 0h1v1h-1zm1 0h1v1h-1zM2 1h1v1H2zm61 0h1v1h-1zM1 6h1v1H1zm63 0h1v1h-1zM1 7h1v1H1zm63 0h1v1h-1zM1 8h1v1H1zm63 0h1v1h-1zM1 9h1v73H1zm63 0h1v73h-1zM1 82h1v1H1zm63 0h1v1h-1zM1 83h1v1H1zm63 0h1v1h-1zM2 84h1v1H2zm61 0h1v1h-1zM3 85h1v1H3zm1 0h1v1H4zm1 0h1v1H5zm1 0h1v1H6zm1 0h2v1H7zm50 0h2v1h-2zm2 0h1v1h-1zm1 0h1v1h-1zm1 0h1v1h-1zm1 0h1v1h-1z"/><path fill="#a02" d="M36 34h1v1h-1z"/><path fill="#833" d="M54 38h1v1h-1zm-40 1h1v1h-1zm37 0h1v1h-1zm3 38h1v1h-1zm-39 1h1v1h-1zm1 0h1v1h-1zm1 0h1v1h-1zm31 0h1v1h-1zm1 0h1v1h-1zm1 0h1v1h-1z"/><path fill="#d45" d="M30 40h1v1h-1zm5 0h1v1h-1zm1 0h1v1h-1zm-7 1h1v1h-1zm7 0h1v1h-1zm-8 1h1v1h-1zm1 0h1v1h-1zm7 0h1v1h-1zm1 0h1v1h-1zm-3 3h1v1h-1zm-5 7h1v1h-1zm7 0h1v1h-1zm-8 2h1v1h-1zm9 0h1v1h-1zm-6 2h1v1h-1z"/><path fill="#a33" d="M14 51h1v1h-1z"/><path fill="#822" d="M11 14h1v1h-1zm43 12h1v1h-1zM15 39h1v1h-1zm1 0h1v1h-1zm1 0h1v1h-1zm32 0h1v1h-1zm1 0h1v1h-1zM11 53h1v1h-1zm43 0h1v1h-1z"/><path fill="#a56" d="M44 38h1v1h-1zM21 53h1v1h-1zm16 4h1v1h-1z"/><path fill="#801" d="M37 56h1v1h-1zm-7 1h1v1h-1zm5 0h1v1h-1z"/><path fill="#934" d="M12 66h1v1h-1z"/><path fill="#d88" d="M13 11h1v1h-1zm39 0h1v1h-1zm-1 4h1v1h-1zm-39 6h1v1h-1zm36 5h1v1h-1zm-12 4h1v1h-1zm-24 3h1v1h-1zm1 17h1v1h-1zm39 0h1v1h-1zm2 0h1v1h-1zm-3 4h1v1h-1zm-39 6h1v1h-1zm9 2h1v1h-1zm-9 10h1v1h-1zm32 2h1v1h-1z"/><path fill="#e9a" d="M21 11h1v1h-1zm-1 11h1v1h-1zm10 7h1v1h-1zm5 0h1v1h-1zm13 8h1v1h-1zM15 49h1v1h-1zm22 4h1v1h-1zm14 6h1v1h-1z"/><path fill="#e99" d="M51 20h1v1h-1zM28 53h1v1h-1z"/><path fill="#944" d="M18 39h1v1h-1zm-4 39h1v1h-1z"/><path fill="#c34" d="M15 11h1v1h-1zm1 0h1v1h-1zm-3 1h1v1h-1zm8 0h1v1h-1zm-8 8h1v1h-1zm5 0h1v1h-1zm29 0h1v1h-1zm-29 2h1v1h-1zm29 0h1v1h-1zm4 0h1v1h-1zm-38 1h1v1h-1zm-1 1h1v1h-1zm17 7h1v1h-1zm-16 2h1v1h-1zm0 3h1v1h-1zm6 0h1v1h-1zm34 0h1v1h-1zm-23 3h1v1h-1zm5 0h1v1h-1zm-6 1h1v1h-1zm2 5h1v1h-1zm-16 5h1v1h-1zm33 0h1v1h-1zm-4 1h1v1h-1zm-26 8h1v1h-1zm29 0h1v1h-1zm0 2h1v1h-1zm-34 1h1v1h-1zm-1 13h1v1h-1zm1 0h1v1h-1zm33 0h1v1h-1z"/></svg>