<svg xmlns="http://www.w3.org/2000/svg" baseProfile="tiny" version="1.2" viewBox="0 0 66 90"><path fill="#385" d="M17 18h1v1h-1zm2 1h1v1h-1zm29 0h1v1h-1zm4 3h1v1h-1zm2 6h1v1h-1zm-1 17h1v1h-1zm-36 8h1v1h-1zm0 7h1v1h-1zm33 0h1v1h-1zm-37 9h1v1h-1zm5 0h1v1h-1zm36 0h1v1h-1zm-38 3h1v1h-1zm34 0h1v1h-1zm-1 5h1v1h-1z"/><path fill="#697" d="M50 22h1v1h-1zm-37 9h1v1h-1zm-1 8h1v1h-1zm0 9h1v1h-1zm2 13h1v1h-1zm2 19h1v1h-1z"/><path fill="#d89" d="M35 14h1v1h-1zm0 11h1v1h-1zm0 15h1v1h-1zm0 11h1v1h-1zm3 11h1v1h-1zm-3 2h1v1h-1zm0 11h1v1h-1z"/><path fill="#a56" d="M32 31h1v1h-1zm4 50h1v1h-1z"/><path fill="#acb" d="M17 9h1v1h-1zm32 0h1v1h-1zm-3 2h1v1h-1zm6 4h1v1h-1zm2 1h1v1h-1zm0 1h1v1h-1zm-42 1h1v1h-1zm34 2h1v1h-1zm6 0h1v1h-1zm-37 1h1v1h-1zm1 0h1v1h-1zm35 0h1v1h-1zm-39 1h1v1h-1zm40 4h1v1h-1zm2 0h1v1h-1zm-2 1h1v1h-1zm-6 2h1v1h-1zm9 7h1v1h-1zm-3 6h1v1h-1zm2 1h1v1h-1zm-39 1h1v1h-1zm1 0h1v1h-1zm35 0h1v1h-1zm3 0h1v1h-1zm-2 2h1v1h-1zm0 6h1v1h-1zm2 0h1v1h-1zm-2 1h1v1h-1zm0 2h1v1h-1zm-6 6h1v1h-1zm6 5h1v1h-1zm2 0h1v1h-1zm0 1h1v1h-1zm-43 2h1v1h-1zm40 0h1v1h-1zm-5 1h1v1h-1zm6 0h1v1h-1zm-2 1h1v1h-1zm2 5h1v1h-1zm2 0h1v1h-1zm-2 1h1v1h-1zm2 0h1v1h-1zm-43 1h1v1h-1zm35 1h1v1h-1zm5 1h1v1h-1zm3 1h1v1h-1z"/><path fill="#b88" d="M36 31h1v1h-1z"/><path fill="#064" d="M17 75h1v1h-1z"/><path fill="#5a8" d="M48 75h1v1h-1z"/><path fill="#c23" d="M32 19h1v1h-1zm0 7h1v1h-1zm-2 11h1v1h-1zm6 0h1v1h-1zm1 0h1v1h-1zm-5 5h1v1h-1zm4 0h1v1h-1zm-2 6h1v1h-1zm2 4h1v1h-1zm-5 3h1v1h-1zm1 0h1v1h-1zm4 0h1v1h-1zm-1 5h1v1h-1zm-4 1h1v1h-1zm1 8h1v1h-1zm0 7h1v1h-1z"/><path fill="#587" d="M17 31h1v1h-1zm32 0h1v1h-1zM12 57h1v1h-1zm-1 23h1v1h-1z"/><path fill="#a45" d="M33 31h1v1h-1zm1 0h1v1h-1z"/><path fill="#c77" d="M37 39h1v1h-1zm0 9h1v1h-1zm1 32h1v1h-1z"/><path fill="#586" d="M54 39h1v1h-1zm0 9h1v1h-1zm1 32h1v1h-1z"/><path fill="#812" d="M34 81h1v1h-1z"/><path fill="#bdc" d="M13 9h1v1h-1zm39 8h1v1h-1zm-36 2h1v1h-1zm34 0h1v1h-1zm-38 8h1v1h-1zm40 1h1v1h-1zm-5 8h1v1h-1zm-1 1h1v1h-1zm6 6h1v1h-1zm3 2h1v1h-1zm-9 1h1v1h-1zm-26 1h1v1h-1zm34 6h1v1h-1zm-2 1h1v1h-1zm3 0h1v1h-1zm-35 2h1v1h-1zm-2 3h1v1h-1zm-7 1h1v1h-1zm41 7h1v1h-1zm-40 1h1v1h-1zm3 1h1v1h-1zm37 9h1v1h-1z"/><path fill="#efe" d="M19 9h1v1h-1zm27 1h1v1h-1zm0 2h1v1h-1zm4 5h1v1h-1zm-4 2h1v1h-1zm4 9h1v1h-1zm-32 7h1v1h-1zm32 8h1v1h-1zm0 11h1v1h-1zm0 4h1v1h-1zm-38 1h1v1h-1zm7 4h1v1h-1zm31 4h1v1h-1zm0 11h1v1h-1zm-31 3h1v1h-1z"/><path fill="#adc" d="M53 9h1v1h-1zm-1 7h1v1h-1z"/><path fill="#d78" d="M33 10h1v1h-1zm5 0h1v1h-1zm-3 1h1v1h-1zm-2 11h1v1h-1zm1 0h1v1h-1zm1 7h1v1h-1zm-1 1h1v1h-1zm-2 6h1v1h-1zm5 0h1v1h-1zm-2 11h1v1h-1zm0 2h1v1h-1zm-3 10h1v1h-1zm3 0h1v1h-1zm-5 1h1v1h-1zm3 8h1v1h-1zm1 0h1v1h-1z"/><path fill="#c34" d="M32 16h1v1h-1zm4 0h1v1h-1zm-5 3h1v1h-1zm5 0h1v1h-1zm1 0h1v1h-1zm-1 7h1v1h-1zm-4 1h1v1h-1zm0 1h1v1h-1zm5 0h1v1h-1zm-6 9h1v1h-1zm4 8h1v1h-1zm-3 8h1v1h-1zm4 16h1v1h-1zm1 0h1v1h-1zm-1 7h1v1h-1zm-4 1h1v1h-1z"/><path fill="#c24" d="M32 45h1v1h-1zm3 11h1v1h-1zm-3 10h1v1h-1zm4 0h1v1h-1z"/><path fill="#042" d="M12 30h1v1h-1zm1 0h1v1h-1zm5 0h1v1h-1zm30 0h1v1h-1zm5 0h1v1h-1zm1 0h1v1h-1zM12 80h1v1h-1zm6 0h1v1h-1zm30 0h1v1h-1zm6 0h1v1h-1z"/><path fill="#a55" d="M35 31h1v1h-1z"/><path fill="#999" d="M0 3h1v1H0zm65 0h1v1h-1zM0 4h1v1H0zm65 0h1v1h-1zM3 88h1v1H3zm59 0h1v1h-1z"/><path fill="#9ba" d="M50 9h1v1h-1zm-39 3h1v1h-1zm44 0h1v1h-1zm-1 6h1v1h-1zm-43 3h1v1h-1zm9 16h1v1h-1zm32 3h1v1h-1zm-38 2h1v1h-1zm36 2h1v1h-1zm-3 1h1v1h-1zm-27 1h1v1h-1zm32 3h1v1h-1zm2 0h1v1h-1zm-34 6h1v1h-1zm32 9h1v1h-1zm-38 2h1v1h-1zm2 3h1v1h-1z"/><path fill="#fee" d="M29 10h1v1h-1zm0 2h1v1h-1zm0 9h1v1h-1zm4 8h1v1h-1zm-3 2h1v1h-1zm1 4h1v1h-1zm2 23h1v1h-1zm1 0h1v1h-1zm-5 2h1v1h-1zm4 1h1v1h-1zm-3 2h1v1h-1zm-1 6h1v1h-1zm5 2h1v1h-1zm-4 1h1v1h-1zm-1 6h1v1h-1z"/><path fill="#264" d="M18 13h1v1h-1zm0 9h1v1h-1zm1 8h1v1h-1zm36 26h1v1h-1zm-36 6h1v1h-1zm28 0h1v1h-1zm1 1h1v1h-1z"/><path fill="#a23" d="M31 13h1v1h-1zm0 9h1v1h-1zm5 35h1v1h-1zm-6 5h1v1h-1zm0 9h1v1h-1zm1 1h1v1h-1z"/><path fill="#b45" d="M31 23h1v1h-1zm2 7h1v1h-1zm-2 10h1v1h-1zm7 7h1v1h-1zm-7 2h1v1h-1zm7 7h1v1h-1zm-7 8h1v1h-1zm0 9h1v1h-1z"/><path fill="#ebc" d="M38 36h1v1h-1zm-9 20h1v1h-1zm2 3h1v1h-1zm6 9h1v1h-1zm0 9h1v1h-1z"/><path fill="#d77" d="M35 44h1v1h-1zm-4 9h1v1h-1z"/><path fill="#ebb" d="M36 9h1v1h-1zm-2 12h1v1h-1zm3 6h1v1h-1zm-4 42h1v1h-1zm1 0h1v1h-1z"/><path fill="#eff" d="M20 12h1v1h-1zm-1 6h1v1h-1zm27 3h1v1h-1zm-30 8h1v1h-1zm32 6h1v1h-1zm-28 1h1v1h-1zm32 22h1v1h-1zM19 72h1v1h-1zm27 6h1v1h-1z"/><path fill="#9aa" d="M48 31h1v1h-1zM12 81h1v1h-1z"/><path fill="#934" d="M32 81h1v1h-1z"/><path fill="#aaa" d="M0 2h1v1H0zm65 0h1v1h-1zM1 86h1v1H1zm63 0h1v1h-1zM2 87h1v1H2zm1 0h1v1H3zm1 0h1v1H4zm1 0h56v1H5zm56 0h1v1h-1zm1 0h1v1h-1zm1 0h1v1h-1zM4 88h1v1H4zm1 0h56v1H5zm56 0h1v1h-1z"/><path fill="#fcc" d="M31 9h1v1h-1zm6 7h1v1h-1zm-4 19h1v1h-1zm1 0h1v1h-1zm1 0h1v1h-1zm2 8h1v1h-1zm0 1h1v1h-1zm0 8h1v1h-1zm0 1h1v1h-1zm0 13h1v1h-1zm0 1h1v1h-1zm-4 4h1v1h-1zm4 5h1v1h-1z"/><path fill="#901" d="M32 30h1v1h-1zm-2 26h1v1h-1zm7 0h1v1h-1zm-7 24h1v1h-1zm1 0h1v1h-1zm5 0h1v1h-1z"/><path fill="#9ca" d="M14 9h1v1h-1zm38 0h1v1h-1zm0 5h1v1h-1zm-38 2h1v1h-1zm40 11h1v1h-1zm-2 20h1v1h-1zm-5 7h1v1h-1zm-31 2h1v1h-1zm-3 3h1v1h-1zm40 0h1v1h-1zm-3 10h1v1h-1zm2 4h1v1h-1zm0 6h1v1h-1zm-37 1h1v1h-1z"/><path fill="#fdd" d="M37 9h1v1h-1zm-8 10h1v1h-1zm5 0h1v1h-1zm-5 9h1v1h-1zm0 2h1v1h-1zm5 26h1v1h-1zm-5 6h1v1h-1zm0 9h1v1h-1z"/><path fill="#798" d="M11 30h1v1h-1zm42 1h1v1h-1z"/><path fill="#c66" d="M38 38h1v1h-1zm-5 42h1v1h-1z"/><path fill="#a34" d="M31 57h1v1h-1z"/><path fill="#d99" d="M37 63h1v1h-1zm0 9h1v1h-1z"/><path fill="#666" d="M0 88h1v1H0zm1 0h1v1H1zm63 0h1v1h-1zm1 0h1v1h-1zM1 89h1v1H1zm1 0h1v1H2zm1 0h1v1H3zm1 0h58v1H4zm58 0h1v1h-1zm1 0h1v1h-1zm1 0h1v1h-1z"/><path fill="#9cb" d="M11 10h1v1h-1zm4 0h1v1h-1zm36 0h1v1h-1zm3 4h1v1h-1zm0 1h1v1h-1zm-40 2h1v1h-1zm38 6h1v1h-1zm2 0h1v1h-1zm-2 1h1v1h-1zm2 0h1v1h-1zm-2 1h1v1h-1zm2 0h1v1h-1zm0 15h1v1h-1zm-2 1h1v1h-1zm2 0h1v1h-1zm0 1h1v1h-1zm-40 1h1v1h-1zm38 7h1v1h-1zm2 0h1v1h-1zm-2 1h1v1h-1zm2 0h1v1h-1zm0 13h1v1h-1zm-2 1h1v1h-1zm2 0h1v1h-1zm-40 2h1v1h-1zm40 1h1v1h-1zm-2 6h1v1h-1zm2 0h1v1h-1zm-2 1h1v1h-1zm2 0h1v1h-1z"/><path fill="#d45" d="M35 10h1v1h-1zm-3 7h1v1h-1zm4 0h1v1h-1zm-1 1h1v1h-1zm1 0h1v1h-1zm-6 1h1v1h-1zm1 6h1v1h-1zm-1 3h1v1h-1zm1 0h1v1h-1zm5 0h1v1h-1zm-5 14h1v1h-1zm1 1h1v1h-1zm4 0h1v1h-1zm-4 1h1v1h-1zm-1 1h1v1h-1zm5 0h1v1h-1zm0 8h1v1h-1zm-4 1h1v1h-1zm1 6h1v1h-1zm-1 7h1v1h-1zm4 0h1v1h-1zm-4 1h1v1h-1zm-1 1h1v1h-1zm4 0h1v1h-1zm-4 6h1v1h-1zm5 2h1v1h-1zm-4 1h1v1h-1zm4 0h1v1h-1zm1 0h1v1h-1z"/><path fill="#b02" d="M30 11h1v1h-1zm2 0h1v1h-1zm4 0h1v1h-1zm1 0h1v1h-1zm-5 3h1v1h-1zm4 0h1v1h-1zm-6 6h1v1h-1zm2 0h1v1h-1zm5 0h1v1h-1zm-5 1h1v1h-1zm0 3h1v1h-1zm4 0h1v1h-1zm-6 5h1v1h-1zm1 0h1v1h-1zm5 0h1v1h-1zm1 0h1v1h-1zm-5 11h1v1h-1zm0 1h1v1h-1zm4 0h1v1h-1zm-6 5h1v1h-1zm2 1h1v1h-1zm4 0h1v1h-1zm-4 4h1v1h-1zm-2 4h1v1h-1zm2 1h1v1h-1zm1 1h1v1h-1zm1 0h1v1h-1zm-2 4h1v1h-1zm0 3h1v1h-1zm4 0h1v1h-1zm-6 6h1v1h-1zm7 0h1v1h-1zm-5 1h1v1h-1zm4 0h1v1h-1zm-4 3h1v1h-1zm4 0h1v1h-1zm-4 1h1v1h-1zm-2 4h1v1h-1zm7 0h1v1h-1z"/><path fill="#275" d="M13 16h1v1h-1zm40 0h1v1h-1zm0 3h1v1h-1zm-3 11h1v1h-1zm-38 7h1v1h-1zm43 10h1v1h-1zm-42 5h1v1h-1zm4 0h1v1h-1zm0 14h1v1h-1zm32 0h1v1h-1zm4 0h1v1h-1zm-4 3h1v1h-1zm-1 3h1v1h-1zm-31 4h1v1h-1zm36 0h1v1h-1z"/><path fill="#801" d="M31 30h1v1h-1zm5 0h1v1h-1zm1 0h1v1h-1zm0 50h1v1h-1z"/><path fill="#edd" d="M30 81h1v1h-1z"/><path fill="#e99" d="M33 9h1v1h-1zm1 0h1v1h-1zm1 11h1v1h-1zm0 7h1v1h-1zm0 15h1v1h-1zm0 4h1v1h-1zm0 7h1v1h-1zm0 2h1v1h-1zm-2 1h1v1h-1zm5 4h1v1h-1zm-3 10h1v1h-1zm0 7h1v1h-1z"/><g fill="#fff"><path d="M4 1h1v1H4zm1 0h1v1H5zm1 0h54v1H6zm54 0h1v1h-1zm1 0h1v1h-1zM3 2h1v1H3zm1 0h1v1H4zm1 0h56v1H5zm56 0h1v1h-1zm1 0h1v1h-1zM2 3h1v1H2zm1 0h1v1H3zm1 0h2v1H4zm2 0h54v1H6zm54 0h2v1h-2zm2 0h1v1h-1zm1 0h1v1h-1zM2 4h1v2H2zm1 0h1v3H3zm1 0h1v1H4zm1 0h56v5H5zm56 0h1v1h-1zm1 0h1v3h-1zm1 0h1v2h-1z"/><path d="M4 5h58v2H4zM3 7h1v1H3zm1 0h1v1H4zm57 0h1v1h-1zm1 0h1v1h-1zM3 8h1v73H3zm1 0h1v73H4zm57 0h1v74h-1zm1 0h1v73h-1zM5 9h7v1H5zm15 0h10v1H20zm10 0h1v1h-1zm8 0h1v1h-1zm1 0h8v1h-8zm8 0h1v1h-1zm8 0h1v1h-1zm1 0h5v73h-5zM5 10h6v72H5zm16 0h8v74h-8zm18 0h7v74h-7zm-24 1h1v7h-1zm1 0h1v1h-1zm17 0h1v1h-1zm1 0h1v7h-1zm17 0h1v7h-1zm-35 1h1v6h-1z"/><path d="M33 12h2v6h-2zm-22 1h1v6h-1zm8 0h1v1h-1zm1 0h10v6H20zm10 0h1v1h-1zm8 0h9v6h-9zm9 0h1v1h-1zm8 0h6v6h-6z"/><path d="M19 14h12v4H19zm28 0h1v4h-1zm-17 4h1v1h-1zm17 0h1v1h-1zm-32 2h2v1h-2zm18 0h2v1h-2zm18 0h1v1h-1zm-40 2h1v6h-1zm8 0h1v1h-1zm1 0h10v6H20zm10 0h1v1h-1zm8 0h9v6h-9zm9 0h1v1h-1zm8 0h6v6h-6zm-40 1h2v6h-2z"/><path d="M19 23h12v4H19zm14 0h2v6h-2zm14 0h1v4h-1zm4 0h1v7h-1zm-32 4h1v1h-1zm11 0h1v1h-1zm17 0h1v1h-1zm-32 2h1v1h-1zm19 0h1v1h-1zm-23 2h1v5h-1zm8 0h1v1h-1zm1 0h10v5H20zm18 0h9v5h-9zm9 0h1v1h-1zm8 0h6v5h-6z"/><path d="M12 32h49v3H12zm0 3h1v1h-1zm7 0h12v1H19zm18 0h1v1h-1zm10 0h1v1h-1zm7 0h1v1h-1zm-25 1h1v1h-1zm17 0h1v1h-1zm-31 1h1v7h-1zm19 0h1v7h-1zm17 0h1v7h-1zm-35 1h1v6h-1z"/><path d="M33 38h2v6h-2zm-22 1h1v1h-1zm9 0h10v6H20zm18 0h1v1h-1zm8 0h1v6h-1zm9 0h1v1h-1zm-44 1h1v5h-1z"/><path d="M19 40h12v5H19zm19 0h10v5H38zm17 0h6v5h-6zm-35 5h1v1h-1zm9 0h1v1h-1zm17 0h1v1h-1zm-31 1h2v1h-2zm18 0h2v1h-2zm18 0h1v2h-1zm-36 1h1v1h-1zm1 0h1v1h-1zm17 0h1v1h-1zm1 0h1v1h-1zm-23 1h1v1h-1zm9 0h10v6H20zm18 0h1v1h-1zm8 0h1v6h-1zm9 0h1v1h-1zm-44 1h1v5h-1zm4 0h1v7h-1zm1 0h1v1h-1z"/><path d="M19 49h12v5H19zm14 0h2v6h-2zm5 0h10v5H38zm13 0h1v7h-1zm4 0h6v5h-6zm-39 1h1v5h-1zm4 4h1v1h-1zm9 0h1v1h-1zm17 0h1v1h-1zm-30 1h1v1h-1zm17 0h1v1h-1zm1 0h1v1h-1zm-14 2h10v3H20zm18 0h1v1h-1zm8 0h1v3h-1zm9 0h1v1h-1zm-44 1h3v1h-3zm3 0h1v1h-1zm3 0h1v1h-1z"/><path d="M18 58h14v1H18zm14 0h1v1h-1zm3 0h1v1h-1zm1 0h13v1H36zm13 0h1v1h-1zm4 0h8v1h-8zm-42 1h1v1h-1zm8 0h1v1h-1zm11 0h1v1h-1zm8 0h10v1H38zm17 0h6v1h-6zm-9 1h1v1h-1zm-31 1h1v7h-1zm1 0h1v1h-1zm18 0h1v7h-1zm17 0h1v7h-1zm-35 1h1v6h-1z"/><path d="M33 62h2v6h-2zm-22 1h1v6h-1zm9 0h10v6H20zm18 0h9v6h-9zm9 0h1v1h-1zm8 0h6v6h-6z"/><path d="M19 64h12v4H19zm28 0h1v4h-1zm-28 4h1v1h-1zm11 0h1v1h-1zm17 0h1v1h-1zm-1 1h1v1h-1zm-31 1h2v1h-2zm18 0h2v1h-2zm18 0h1v1h-1zm-40 2h1v6h-1zm9 0h10v6H20zm18 0h9v6h-9zm9 0h1v1h-1zm8 0h6v6h-6zm-40 1h2v6h-2z"/><path d="M19 73h12v4H19zm14 0h2v6h-2zm14 0h1v4h-1zm4 0h1v7h-1zm-32 4h1v1h-1zm11 0h1v1h-1zm17 0h1v1h-1zm-32 2h1v1h-1zm1 0h1v1h-1zm17 0h1v1h-1zm1 0h1v1h-1zM3 81h1v1H3zm1 0h1v2H4zm7 0h1v1h-1zm9 0h10v3H20zm18 0h9v3h-9zm17 0h6v1h-6zm7 0h1v1h-1zM3 82h1v1H3zm2 0h1v1H5z"/><path d="M6 82h54v1H6zm54 0h1v1h-1zm1 0h1v1h-1zm1 0h1v1h-1zM3 83h1v1H3zm1 0h1v1H4zm1 0h1v1H5zm1 0h1v1H6zm1 0h52v1H7zm52 0h1v1h-1zm1 0h1v1h-1zm1 0h1v1h-1zm1 0h1v1h-1zM5 84h1v1H5zm1 0h1v1H6zm1 0h1v1H7zm1 0h50v1H8zm50 0h1v1h-1zm1 0h1v1h-1zm1 0h1v1h-1z"/></g><path fill="#b12" d="M38 11h1v1h-1zm0 9h1v1h-1zm0 9h1v1h-1zm-3 19h1v1h-1zm3 7h1v1h-1zm0 15h1v1h-1zm0 9h1v1h-1zm-3 1h1v1h-1z"/><path fill="#dee" d="M50 12h1v1h-1zm0 1h1v2h-1zm-35 6h1v1h-1zm35 1h1v1h-1zm0 3h1v1h-1zm0 1h1v1h-1zm0 1h1v1h-1zm-30 5h1v1h-1zm-7 5h1v1h-1zm-2 1h1v1h-1zm5 1h1v1h-1zm34 1h1v1h-1zm0 1h1v2h-1zm0 2h1v1h-1zm0 5h1v1h-1zm0 3h1v2h-1zm0 2h1v1h-1zm1 5h1v1h-1zm0 2h1v1h-1zm-31 2h1v1h-1zm0 2h1v1h-1zm30 0h1v1h-1zm0 1h1v2h-1zm0 7h1v1h-1zm-35 1h1v1h-1zm1 0h1v1h-1zm35 0h1v1h-1zm-1 2h1v1h-1zm0 1h1v2h-1zm0 5h1v1h-1zm-4 1h1v1h-1zm1 1h1v1h-1z"/><path fill="#a12" d="M37 21h1v1h-1zm-2 9h1v1h-1zm-5 8h1v1h-1zm1 1h1v1h-1zm-1 8h1v1h-1zm1 1h1v1h-1z"/><path fill="#c13" d="M38 37h1v1h-1zm-7 9h1v1h-1zm7 0h1v1h-1zm-6 6h1v1h-1zm0 27h1v1h-1z"/><path fill="#9bb" d="M54 73h1v1h-1z"/><path fill="#ecc" d="M37 14h1v1h-1zm0 1h1v1h-1zm0 8h1v1h-1zm0 1h1v1h-1zm0 1h1v1h-1zm-8 13h1v1h-1zm1 1h1v1h-1zm7 1h1v1h-1zm0 1h1v1h-1zm0 1h1v1h-1zm-8 5h1v1h-1zm1 1h1v1h-1zm7 1h1v1h-1zm0 1h1v1h-1zm0 1h1v1h-1zm0 13h1v1h-1zm0 1h1v1h-1zm0 8h1v1h-1zm0 1h1v1h-1zm0 1h1v1h-1z"/><path fill="#8b9" d="M14 15h1v1h-1zm0 12h1v1h-1zm-2 9h1v1h-1zm7 0h1v1h-1zm-4 9h1v1h-1zm36 0h1v1h-1zM14 55h1v1h-1zm38 6h1v1h-1zm-38 4h1v1h-1zm38 6h1v1h-1zm-38 6h1v1h-1z"/><path fill="#063" d="M12 11h1v1h-1zm1 0h1v1h-1zm4 0h1v1h-1zm1 0h1v1h-1zm1 0h1v1h-1zm28 0h1v1h-1zm1 0h1v1h-1zm1 0h1v1h-1zm4 0h1v1h-1zm1 0h1v1h-1zm1 0h1v1h-1zm-38 3h1v1h-1zm32 0h1v1h-1zm-36 1h1v1h-1zm4 0h1v1h-1zm32 0h1v1h-1zm4 0h1v1h-1zm-41 5h1v1h-1zm1 0h1v1h-1zm5 0h1v1h-1zm1 0h1v1h-1zm28 0h1v1h-1zm1 0h1v1h-1zm1 0h1v1h-1zm4 0h1v1h-1zm1 0h1v1h-1zm-37 3h1v1h-1zm-4 1h1v1h-1zm4 0h1v1h-1zm32 0h1v1h-1zm4 0h1v1h-1zm-40 1h1v1h-1zm36 0h1v1h-1zm4 0h1v1h-1zm-41 4h1v1h-1zm1 0h1v1h-1zm4 0h1v1h-1zm1 0h1v1h-1zm30 0h1v1h-1zm1 0h1v1h-1zm4 0h1v1h-1zm1 0h1v1h-1zm-37 8h1v1h-1zm38 0h1v1h-1zm-36 1h1v1h-1zm28 0h1v1h-1zm-34 3h1v1h-1zm4 0h1v1h-1zm32 0h1v1h-1zm4 0h1v1h-1zm-41 5h1v1h-1zm6 0h1v1h-1zm1 0h1v1h-1zm28 0h1v1h-1zm2 0h1v1h-1zm4 0h1v1h-1zm1 0h1v1h-1zm1 0h1v1h-1zm-42 1h1v1h-1zm4 0h1v1h-1zm30 0h1v1h-1zm2 0h1v1h-1zm4 0h1v1h-1zm-39 1h1v1h-1zm38 0h1v1h-1zm-35 2h1v1h-1zm-4 1h1v1h-1zm4 0h1v1h-1zm32 0h1v1h-1zm4 0h1v1h-1zm-41 4h1v1h-1zm7 0h1v1h-1zm28 0h1v1h-1zm7 0h1v1h-1zm1 0h1v1h-1zm-38 1h1v1h-1zm32 0h1v1h-1zm-34 1h1v1h-1zm1 0h1v1h-1zm34 0h1v1h-1zm1 0h1v1h-1zm-38 4h1v1h-1zm4 0h1v1h-1zm2 0h1v1h-1zm28 0h1v1h-1zm2 0h1v1h-1zm4 0h1v1h-1zm1 0h1v1h-1zm1 0h1v1h-1zm-38 3h1v1h-1zm-4 1h1v1h-1zm4 0h1v1h-1zm32 0h1v1h-1zm4 0h1v1h-1zm-41 5h1v1h-1zm1 0h1v1h-1zm5 0h1v1h-1zm1 0h1v1h-1zm28 0h1v1h-1zm1 0h1v1h-1zm1 0h1v1h-1zm4 0h1v1h-1zm1 0h1v1h-1zm1 0h1v1h-1zm-38 1h1v1h-1zm32 0h1v1h-1zm-32 2h1v1h-1zm0 1h1v1h-1zm-4 1h1v1h-1zm36 0h1v1h-1zm4 0h1v1h-1zm-41 4h1v1h-1zm6 0h1v1h-1zm1 0h1v1h-1zm28 0h1v1h-1zm1 0h1v1h-1zm5 0h1v1h-1zm1 0h1v1h-1zm1 0h1v1h-1zm-41 1h1v1h-1z"/><path fill="#8a9" d="M54 13h1v1h-1zm1 8h1v1h-1zm-1 1h1v1h-1zM12 63h1v1h-1zm0 9h1v1h-1zm6 9h1v1h-1z"/><path fill="#053" d="M13 14h1v1h-1zm40 0h1v1h-1zm2 6h1v1h-1zm-38 1h1v1h-1zm32 0h1v1h-1zm-2 8h1v1h-1zm-33 1h1v1h-1zm4 9h1v1h-1zm-1 1h1v1h-1zm32 0h1v1h-1zm-30 7h1v1h-1zm-1 1h1v1h-1zm-1 1h1v1h-1zm36 1h1v1h-1zm-36 7h1v1h-1zm32 0h1v1h-1zm3 0h1v1h-1zm-3 7h1v1h-1zm4 0h1v1h-1zm-40 7h1v1h-1zm40 0h1v1h-1zm-40 3h1v1h-1zm36 0h1v1h-1zm4 0h1v1h-1zm-6 6h1v1h-1zm4 1h1v1h-1z"/><path fill="#c78" d="M38 71h1v1h-1z"/><path fill="#d67" d="M30 10h1v1h-1zm1 0h1v1h-1zm5 0h1v1h-1zm1 0h1v1h-1zm-6 7h1v1h-1zm0 9h1v1h-1zm0 1h1v1h-1zm2 9h1v1h-1zm1 0h1v1h-1zm-3 7h1v1h-1zm0 1h1v1h-1zm2 15h1v1h-1zm1 0h1v1h-1zm0 1h1v1h-1zm1 1h1v1h-1zm-4 6h1v1h-1zm0 1h1v1h-1zm4 3h1v1h-1zm-4 5h1v1h-1zm0 1h1v1h-1z"/><path fill="#274" d="M49 26h1v1h-1zm5 11h1v1h-1zm-37 8h1v1h-1zm-6 1h1v1h-1zm0 9h1v1h-1zm2 0h1v1h-1zm4 0h1v1h-1zm35 5h1v1h-1zm-39 6h1v1h-1zm34 5h1v1h-1z"/><path fill="#ede" d="M37 31h1v1h-1z"/><path fill="#cdc" d="M18 9h1v1h-1zm-3 26h1v1h-1zm36 0h1v1h-1zm-1 2h1v1h-1zm-30 1h1v1h-1zm28 21h1v1h-1zM12 77h1v1h-1z"/><path fill="#375" d="M48 13h1v1h-1zm-29 8h1v1h-1zm-5 1h1v1h-1zm34 0h1v1h-1zm-33 9h1v1h-1zm36 0h1v1h-1zM11 56h1v1h-1zm37 1h1v1h-1z"/><path fill="#c35" d="M32 18h1v1h-1zm0 42h1v1h-1z"/><path fill="#154" d="M47 30h1v1h-1z"/><path fill="#163" d="M52 30h1v1h-1zm-4 9h1v1h-1zm0 9h1v1h-1z"/><path fill="#ced" d="M54 9h1v1h-1zm-34 1h1v1h-1zm-8 4h1v1h-1zm0 1h1v1h-1zm0 9h1v1h-1zm0 1h1v1h-1zm5 10h1v1h-1zm32 0h1v1h-1zm-37 6h1v1h-1zm0 1h1v1h-1zm0 2h1v1h-1zm0 6h1v1h-1zm0 1h1v1h-1zm0 2h1v1h-1zm38 8h1v1h-1zm-38 4h1v1h-1zm0 1h1v1h-1zm0 8h1v1h-1zm0 1h1v1h-1z"/><path fill="#698" d="M52 21h1v1h-1zm-36 1h1v1h-1zm39 40h1v1h-1zm-1 1h1v1h-1z"/><path fill="#ecd" d="M29 80h1v1h-1z"/><path fill="#254" d="M14 81h1v1h-1z"/><path fill="#365" d="M17 81h1v1h-1zm32 0h1v1h-1z"/><path fill="#497" d="M17 10h1v1h-1zm2 0h1v1h-1zm-1 6h1v1h-1zm32 2h1v1h-1zm-37 9h1v1h-1zm-1 18h1v1h-1zm2 0h1v1h-1zm-1 9h1v1h-1zm5 0h1v1h-1zm30 0h1v1h-1zm-35 6h1v1h-1zm40 0h1v1h-1zm-39 8h1v1h-1zm5 1h1v1h-1zm-5 2h1v1h-1zm-1 7h1v1h-1z"/><path fill="#052" d="M12 12h1v1h-1zm1 0h1v2h-1zm4 0h1v1h-1zm1 0h1v1h-1zm30 0h1v1h-1zm1 0h1v1h-1zm4 0h1v1h-1zm1 0h1v1h-1zm-37 1h1v1h-1zm32 0h1v1h-1zm4 0h1v1h-1zm-41 8h1v1h-1zm1 0h1v1h-1zm5 0h1v1h-1zm30 0h1v1h-1zm5 0h1v1h-1zm1 0h1v1h-1zm-41 1h1v1h-1zm4 0h1v1h-1zm32 0h1v2h-1zm4 0h1v1h-1zm-40 1h1v1h-1zm40 0h1v1h-1zm-34 6h1v1h-1zm36 0h1v1h-1zm-38 1h1v1h-1zm32 0h1v1h-1zm-37 8h1v1h-1zm1 0h1v1h-1zm4 0h1v1h-1zm1 0h1v1h-1zm30 0h1v1h-1zm1 0h1v1h-1zm4 0h1v1h-1zm1 0h1v1h-1zm-41 1h1v1h-1zm4 0h1v1h-1zm32 0h1v1h-1zm4 0h1v1h-1zm-40 1h1v1h-1zm40 0h1v1h-1zm-41 7h1v1h-1zm6 0h1v1h-1zm30 0h1v1h-1zm6 0h1v1h-1zm-41 1h1v1h-1zm4 0h1v1h-1zm32 0h1v1h-1zm4 0h1v1h-1zm-40 1h1v1h-1zm36 0h1v1h-1zm4 0h1v1h-1zm-40 1h1v1h-1zm36 0h1v1h-1zm-37 6h1v1h-1zm1 0h1v1h-1zm5 0h1v1h-1zm1 0h1v1h-1zm28 0h1v1h-1zm1 0h1v1h-1zm5 0h1v1h-1zm1 0h1v1h-1zm-40 1h1v1h-1zm-2 5h1v1h-1zm1 0h1v1h-1zm4 0h2v1h-2zm31 0h2v1h-2zm5 0h1v1h-1zm1 0h1v1h-1zm-41 1h1v1h-1zm4 0h1v1h-1zm32 0h1v1h-1zm4 0h1v1h-1zm-40 1h1v1h-1zm-1 7h1v1h-1zm6 0h1v1h-1zm30 0h1v1h-1zm6 0h1v1h-1zm-41 1h1v1h-1zm4 0h1v1h-1zm32 0h1v1h-1zm4 0h1v2h-1zm-40 1h1v1h-1zm36 0h1v1h-1zm-36 7h1v1h-1zm4 0h1v1h-1zm32 0h1v1h-1zm4 0h1v1h-1z"/><path fill="#486" d="M47 12h1v1h-1zm-34 5h1v1h-1zm36 0h1v1h-1zm4 0h1v1h-1zm-6 4h1v1h-1zm-29 7h1v1h-1zm30 0h1v1h-1zm-32 2h1v1h-1zm-5 8h1v1h-1zm44 0h1v1h-1zm-44 9h1v1h-1zm2 6h1v1h-1zm5 4h1v1h-1zm35 10h1v1h-1zm0 10h1v1h-1zm-3 3h1v1h-1z"/><path fill="#a13" d="M31 63h1v1h-1z"/><path fill="#823" d="M35 81h1v1h-1z"/><path fill="#ded" d="M50 11h1v1h-1zm-38 5h1v1h-1zm0 1h1v1h-1zm8 2h1v1h-1zm31 0h1v1h-1zm-39 7h1v1h-1zm8 2h1v1h-1zm30 1h1v1h-1zm3 6h1v1h-1zm-7 3h1v1h-1zm1 1h1v1h-1zm-35 4h1v1h-1zm-1 2h1v1h-1zm35 2h1v1h-1zm4 0h1v1h-1zm-31 1h1v1h-1zm28 0h1v1h-1zm-35 4h1v1h-1zm-1 2h1v1h-1zm4 2h1v1h-1zm39 3h1v1h-1zm-42 8h1v1h-1zm0 9h1v1h-1z"/><path fill="#476" d="M19 12h1v1h-1zm-5 19h1v1h-1zm38 0h1v1h-1zm1 50h1v1h-1z"/><path fill="#d88" d="M35 12h1v1h-1zm0 1h1v1h-1zm0 10h1v1h-1zm0 1h1v1h-1zm1 12h1v1h-1zm-1 2h1v1h-1zm0 1h1v1h-1zm0 11h1v1h-1zm0 12h1v1h-1zm0 1h1v1h-1zm0 10h1v1h-1zm0 1h1v1h-1z"/><path fill="#fcd" d="M37 17h1v1h-1zm0 9h1v1h-1zm-5 9h1v1h-1zm6 10h1v1h-1zm0 9h1v1h-1z"/><path fill="#074" d="M17 25h1v1h-1zm2 12h1v1h-1zm-1 18h1v1h-1z"/><path fill="#475" d="M16 31h1v1h-1zm34 0h1v1h-1zM13 81h1v1h-1z"/><path fill="#777" d="M0 84h1v1H0zm65 0h1v1h-1zM0 85h1v1H0zm65 0h1v1h-1zM0 86h1v1H0zm65 0h1v1h-1zM0 87h1v1H0zm65 0h1v1h-1z"/><path fill="#597" d="M12 10h1v1h-1zm37 0h1v1h-1zm4 0h1v1h-1zm1 0h1v1h-1zm-6 4h1v1h-1zm0 1h1v1h-1zm-33 3h1v1h-1zm1 0h1v1h-1zm2 0h1v1h-1zm33 0h1v1h-1zm-3 5h1v1h-1zm0 1h1v1h-1zM14 36h1v1h-1zm2 0h1v1h-1zm34 0h1v1h-1zm2 0h1v1h-1zm-38 1h1v1h-1zm34 3h1v1h-1zm0 1h1v1h-1zm-30 2h1v1h-1zm30 6h1v1h-1zm0 1h1v1h-1zm-30 2h1v1h-1zm-6 2h1v1h-1zm42 0h1v1h-1zm-39 5h1v1h-1zm36 0h1v1h-1zm-39 1h1v1h-1zm6 0h1v1h-1zm1 0h1v1h-1zm29 0h1v1h-1zm6 0h1v1h-1zm-6 4h1v1h-1zm0 1h1v1h-1zm-30 3h1v1h-1zm34 0h1v1h-1zm-38 1h1v1h-1zm38 0h1v1h-1zm3 2h1v1h-1zm-7 2h1v1h-1zm0 1h1v1h-1zm-30 2h1v1h-1zm1 2h1v1h-1z"/><path fill="#a01" d="M31 12h2v1h-2zm5 0h1v1h-1zm-4 1h1v1h-1zm4 0h1v1h-1zm-5 8h1v1h-1zm5 0h1v1h-1zm-4 1h1v1h-1zm4 0h1v1h-1zm-4 1h1v1h-1zm4 0h1v1h-1zm-5 15h1v1h-1zm1 0h1v1h-1zm4 0h1v1h-1zm1 0h1v1h-1zm-5 1h1v1h-1zm4 0h1v1h-1zm0 1h1v1h-1zm-5 7h1v1h-1zm6 0h1v1h-1zm-5 1h1v1h-1zm4 0h1v1h-1zm-4 1h1v1h-1zm4 0h1v1h-1zm-4 1h1v1h-1zm4 0h1v1h-1zm-5 6h1v1h-1zm5 0h1v1h-1zm-1 1h1v1h-1zm-4 5h1v1h-1zm1 0h1v1h-1zm4 0h1v1h-1zm1 0h1v1h-1zm-5 1h1v1h-1zm4 0h1v1h-1zm-5 8h1v1h-1zm6 0h1v1h-1zm-5 1h1v1h-1zm4 0h1v1h-1zm-4 1h1v1h-1zm4 0h1v1h-1zm-4 7h1v1h-1z"/><path fill="#daa" d="M37 13h1v1h-1zm0 9h1v1h-1zm-7 35h1v1h-1z"/><path fill="#bcc" d="M12 31h1v1h-1zm34 24h1v1h-1zm1 2h1v1h-1z"/><path fill="#d66" d="M35 36h1v1h-1zm-4 24h1v1h-1zm-1 18h1v1h-1z"/><path fill="#153" d="M13 57h1v1h-1zm6 23h1v1h-1zm-4 1h1v1h-1zm1 0h1v1h-1zm34 0h1v1h-1zm2 0h1v1h-1z"/><path fill="#7b9" d="M14 14h1v1h-1zm34 3h1v1h-1zm0 9h1v1h-1zM13 36h1v1h-1zm5 0h1v1h-1zm30 0h1v1h-1zm-34 5h1v1h-1zm34 3h1v1h-1zm-34 2h1v1h-1zm0 7h1v1h-1zm34 0h1v1h-1zm-29 1h1v1h-1zm-2 5h1v1h-1zm32 0h1v1h-1zm-2 1h1v1h-1zm8 0h1v1h-1zm-41 4h1v1h-1zm34 3h1v1h-1zm-34 3h1v1h-1z"/><path fill="#fde" d="M33 19h1v1h-1zm3 16h1v1h-1zm-3 2h1v1h-1zm4 22h1v1h-1z"/><path fill="#073" d="M12 61h1v1h-1zm1 18h1v1h-1z"/><path fill="#eee" d="M3 1h1v1H3zm59 0h1v1h-1zM2 2h1v1H2zm61 0h1v1h-1zM1 3h1v1H1zm63 0h1v1h-1zM1 4h1v1H1zm63 0h1v1h-1zM1 5h1v1H1zm63 0h1v1h-1zM2 6h1v1H2zm61 0h1v1h-1zM2 7h1v1H2zm61 0h1v1h-1zM2 8h1v74H2zm61 0h1v74h-1zM12 9h1v1h-1zm38 6h1v1h-1zm0 1h1v1h-1zm-30 5h1v1h-1zm30 5h1v1h-1zm0 1h1v1h-1zm-4 1h1v1h-1zm0 2h1v1h-1zm4 12h1v1h-1zm0 10h1v1h-1zm0 1h1v1h-1zm0 2h1v1h-1zm-39 2h1v1h-1zm4 1h1v1h-1zm1 0h1v1h-1zm30 4h1v1h-1zm4 3h1v1h-1zm0 1h1v1h-1zm-30 3h1v1h-1zm26 2h1v1h-1zm4 5h1v1h-1zm0 1h1v1h-1zm-30 1h1v1h-1zM2 82h1v1H2zm61 0h1v1h-1zM2 83h1v1H2zm61 0h1v1h-1zM3 84h1v1H3zm1 0h1v1H4zm57 0h1v1h-1zm1 0h1v1h-1zM9 85h48v1H9z"/><path fill="#dbb" d="M38 12h1v1h-1z"/><path fill="#c89" d="M31 31h1v1h-1zm6 26h1v1h-1z"/><path fill="#b23" d="M33 48h1v1h-1zm2 24h1v1h-1z"/><path fill="#c12" d="M31 11h1v1h-1zm1 4h1v1h-1zm4 10h1v1h-1zm-4 4h1v1h-1zm0 8h1v1h-1zm0 9h1v1h-1zm4 0h1v1h-1zm1 0h1v1h-1zm0 15h1v1h-1zm1 0h1v1h-1zm-7 9h1v1h-1zm5 9h1v1h-1z"/><path fill="#912" d="M37 12h1v1h-1zm-7 18h1v1h-1z"/><path fill="#687" d="M48 81h1v1h-1z"/><path fill="#888" d="M0 5h1v1H0zm65 0h1v1h-1zM0 6h1v1H0zm65 0h1v1h-1zM0 7h1v1H0zm65 0h1v1h-1zM0 8h1v73H0zm65 0h1v73h-1zM0 81h1v2H0zm65 0h1v2h-1zM0 83h1v1H0zm65 0h1v1h-1zM1 87h1v1H1zm63 0h1v1h-1zM2 88h1v1H2zm61 0h1v1h-1z"/><path fill="#eaa" d="M32 9h1v1h-1zm-3 2h1v1h-1zm6 6h1v1h-1zm-6 3h1v1h-1zm4 1h1v1h-1zm-4 8h1v1h-1zm0 8h1v1h-1zm6 6h1v1h-1zm-2 1h1v1h-1zm1 0h1v1h-1zm-5 2h1v1h-1zm0 9h1v1h-1zm7 4h1v1h-1zm-7 2h1v1h-1zm6 6h1v1h-1zm3 2h1v1h-1zm-9 1h1v1h-1zm9 8h1v1h-1zm-9 1h1v1h-1zm5 1h1v1h-1z"/><path fill="#d9a" d="M38 21h1v1h-1z"/><path fill="#7a8" d="M48 27h1v1h-1zm-33 3h1v1h-1zm40 0h1v1h-1zm-6 6h1v1h-1zm3 1h1v1h-1zm-4 15h1v1h-1zm2 4h1v1h-1zm4 1h1v1h-1zm-43 5h1v1h-1zm37 6h1v1h-1zm-37 3h1v1h-1zm43 1h1v1h-1z"/><path fill="#cdd" d="M48 9h1v1h-1zM12 23h1v1h-1zm2 12h1v1h-1zm2 0h1v1h-1zm34 0h1v1h-1zm2 0h1v1h-1zm-40 5h1v1h-1zm0 9h1v1h-1zm34 7h1v1h-1zm-27 1h1v1h-1zm-7 7h1v1h-1zm8 7h1v1h-1zm-8 2h1v1h-1zm8 7h1v1h-1z"/><path fill="#174" d="M11 11h1v1h-1zm6 8h1v1h-1zm32 0h1v1h-1zm-38 1h1v1h-1zm6 0h1v1h-1zm-6 9h1v1h-1zm2 8h1v1h-1zm34 0h1v1h-1zm2 0h1v1h-1zm4 0h1v1h-1zm-40 5h1v1h-1zm4 0h1v1h-1zm32 0h1v1h-1zm4 0h1v1h-1zm-40 4h1v1h-1zm4 0h1v1h-1zm31 0h1v1h-1zm-33 2h1v1h-1zm1 0h1v1h-1zm35 0h1v1h-1zm-2 4h1v1h-1zm4 0h1v1h-1zm-5 3h1v1h-1zm1 0h1v1h-1zm4 0h1v1h-1zm-39 1h1v1h-1zm0 4h1v1h-1zm-3 1h1v1h-1zm7 0h1v1h-1zm30 0h1v1h-1zm-31 8h1v1h-1zm-6 1h1v1h-1zm6 0h1v1h-1zm35 2h1v1h-1zm-3 4h1v1h-1zm-38 3h1v1h-1zm6 0h1v1h-1zm32 0h1v1h-1zm3 1h1v1h-1z"/><path fill="#b34" d="M30 12h1v1h-1zm0 9h1v1h-1zm5 1h1v1h-1z"/><path fill="#abb" d="M12 13h1v1h-1zm6 18h1v1h-1z"/><path fill="#e89" d="M35 15h1v1h-1zm0 11h1v1h-1zm0 15h1v1h-1zm-5 4h1v1h-1zm3 0h1v1h-1zm1 0h1v1h-1zm1 7h1v1h-1zm-5 2h1v1h-1zm5 11h1v1h-1zm0 11h1v1h-1zm0 3h1v1h-1z"/><path fill="#eab" d="M37 18h1v1h-1zm-7 18h1v1h-1z"/><path fill="#d56" d="M32 10h1v1h-1zm-1 6h1v1h-1zm0 2h1v1h-1zm2 0h1v1h-1zm1 0h1v1h-1zm1 1h1v1h-1zm1 8h1v1h-1zm-1 10h1v1h-1zm1 7h1v1h-1zm1 1h1v1h-1zm-6 7h1v1h-1zm0 2h1v1h-1zm5 0h1v1h-1zm1 0h1v1h-1zm-1 6h1v1h-1zm1 0h1v1h-1zm-6 6h1v1h-1zm4 2h1v1h-1zm1 0h1v1h-1zm-6 1h1v1h-1zm1 9h1v1h-1z"/><path fill="#c02" d="M36 15h1v1h-1zm-5 5h1v1h-1zm5 0h1v1h-1zm-4 5h1v1h-1zm4 26h1v1h-1zm1 4h1v1h-1zm-7 6h1v1h-1zm6 0h1v1h-1zm-4 4h1v1h-1zm4 0h1v1h-1zm-4 5h1v1h-1zm4 0h1v1h-1zm0 5h1v1h-1zm-5 4h1v1h-1z"/><path fill="#c45" d="M31 14h1v1h-1zm0 1h1v1h-1zm0 9h1v1h-1zm0 17h1v1h-1zm0 9h1v1h-1zm0 1h1v1h-1zm0 14h1v1h-1zm2 7h1v1h-1zm1 0h1v1h-1zm-3 2h1v1h-1z"/><path fill="#164" d="M50 48h1v1h-1zm3 9h1v1h-1zm-35 6h1v1h-1zm1 8h1v1h-1zm-5 1h1v1h-1zm4 0h1v1h-1z"/><path fill="#598" d="M48 51h1v1h-1z"/><path fill="#6a8" d="M13 10h1v1h-1zm3 0h1v1h-1zm2 0h1v1h-1zm29 0h1v1h-1zm1 0h1v1h-1zm2 0h1v1h-1zm5 0h1v1h-1zm-41 1h1v1h-1zm34 5h1v1h-1zm-30 1h1v1h-1zm30 1h1v1h-1zm-34 1h1v1h-1zm38 0h1v1h-1zm3 0h1v1h-1zm-40 3h1v1h-1zm36 0h1v1h-1zm-37 1h1v1h-1zm0 1h1v1h-1zm0 1h1v1h-1zm34 0h1v1h-1zm-30 1h1v1h-1zm0 1h1v1h-1zm37 1h1v1h-1zm-41 1h1v1h-1zm1 7h1v1h-1zm2 0h1v1h-1zm34 0h1v1h-1zm-3 6h1v1h-1zm-34 2h1v1h-1zm4 0h1v1h-1zm-2 1h1v1h-1zm-2 2h1v1h-1zm0 2h1v1h-1zm0 1h1v1h-1zm0 1h1v1h-1zm4 2h1v1h-1zm-4 6h1v1h-1zm2 0h1v1h-1zm34 0h1v1h-1zm2 0h1v1h-1zm-37 1h1v1h-1zm36 0h1v1h-1zm-3 6h1v1h-1zm-30 1h1v1h-1zm32 1h1v1h-1zm-3 1h1v1h-1zm-33 4h1v1h-1zm0 1h1v1h-1zm0 1h1v1h-1zm4 2h1v1h-1zm29 1h1v1h-1z"/><path fill="#7a9" d="M14 12h1v1h-1zm0 1h1v1h-1zm0 7h1v1h-1zm0 6h1v1h-1zm37 4h1v1h-1zm2 6h1v1h-1zm1 0h1v1h-1zm-40 2h1v1h-1zm0 1h1v1h-1zm0 1h1v1h-1zm34 3h1v1h-1zm4 1h1v1h-1zm-33 1h1v1h-1zm31 0h1v1h-1zm-36 7h1v1h-1zm0 10h1v1h-1zm0 1h1v1h-1zm1 5h1v1h-1zm1 0h1v1h-1zm35 0h1v1h-1zm-37 8h1v1h-1zm34 0h1v1h-1zm0 1h1v1h-1zm-34 2h1v1h-1z"/><path fill="#285" d="M17 16h1v1h-1zm32 0h1v1h-1zm-37 3h1v1h-1zm1 0h1v1h-1zm5 0h1v1h-1zm36 0h1v1h-1zm-41 7h1v1h-1zm4 0h1v1h-1zm36 0h1v1h-1zM11 37h1v1h-1zm7 0h1v1h-1zm30 0h1v1h-1zm1 8h1v1h-1zm0 8h1v1h-1zm4 16h1v1h-1zm-40 7h1v1h-1z"/><path fill="#c99" d="M38 30h1v1h-1z"/><path fill="#822" d="M33 81h1v1h-1z"/><path fill="#ccc" d="M1 0h1v1H1zm1 0h1v1H2zm61 0h1v1h-1zm1 0h1v1h-1zM1 2h1v1H1zm63 0h1v1h-1zM1 84h1v1H1zm63 0h1v1h-1zM2 85h1v1H2zm61 0h1v1h-1zM4 86h1v1H4zm1 0h1v1H5zm1 0h1v1H6zm1 0h52v1H7zm52 0h1v1h-1zm1 0h1v1h-1zm1 0h1v1h-1z"/><path fill="#ddd" d="M3 0h1v1H3zm1 0h1v1H4zm1 0h56v1H5zm56 0h1v1h-1zm1 0h1v1h-1zM2 1h1v1H2zm61 0h1v1h-1zM1 6h1v1H1zm63 0h1v1h-1zM1 7h1v1H1zm63 0h1v1h-1zM1 8h1v1H1zm63 0h1v1h-1zM1 9h1v73H1zm63 0h1v73h-1zM54 31h1v1h-1zm-35 8h1v1h-1zM1 82h1v1H1zm63 0h1v1h-1zM1 83h1v1H1zm63 0h1v1h-1zM2 84h1v1H2zm61 0h1v1h-1zM3 85h1v1H3zm1 0h1v1H4zm1 0h1v1H5zm1 0h1v1H6zm1 0h2v1H7zm50 0h2v1h-2zm2 0h1v1h-1zm1 0h1v1h-1zm1 0h1v1h-1zm1 0h1v1h-1z"/><path fill="#496" d="M14 10h1v1h-1zm38 0h1v1h-1zm-39 8h1v1h-1zm39 0h1v1h-1zm1 0h1v1h-1zm-6 1h1v1h-1zm-29 6h1v1h-1zm35 2h1v1h-1zm-40 1h1v1h-1zm34 0h1v1h-1zM18 42h1v1h-1zm-5 2h1v1h-1zm40 0h1v1h-1zm1 1h1v1h-1zm-37 9h1v1h-1zm36 0h1v1h-1zM18 66h1v1h-1zm-5 2h1v1h-1zm40 0h1v1h-1zm-40 9h1v1h-1zm-1 1h1v1h-1zm5 0h1v1h-1zm1 0h1v1h-1zm30 0h1v1h-1zm5 0h1v1h-1z"/><path fill="#e88" d="M38 19h1v1h-1zm0 9h1v1h-1zm-7 8h1v1h-1z"/><path fill="#dbc" d="M37 81h1v1h-1z"/><path fill="#8ba" d="M15 9h1v1h-1zm1 0h1v1h-1zm35 0h1v1h-1zm-31 2h1v1h-1zm32 0h1v1h-1zm0 1h1v1h-1zm0 1h1v1h-1zm-41 6h1v1h-1zm9 1h1v1h-1zm30 1h1v1h-1zm-39 7h1v1h-1zm3 0h1v1h-1zm6 1h1v1h-1zm32 0h1v1h-1zm0 9h1v1h-1zm0 1h1v1h-1zM14 54h1v1h-1zm6 7h1v1h-1zm32 1h1v1h-1zm0 1h1v1h-1zm3 6h1v1h-1zm-35 1h1v1h-1zm-6 8h1v1h-1zm41 0h1v1h-1zm-35 1h1v1h-1z"/><path fill="#386" d="M18 14h1v1h-1zm0 1h1v1h-1zm-1 2h1v1h-1zm-3 1h1v1h-1zm35 0h1v1h-1zm-35 3h1v1h-1zm4 2h1v1h-1zm0 1h1v1h-1zm-1 3h1v1h-1zm32 0h1v2h-1zm-37 1h1v1h-1zm5 0h1v1h-1zm2 0h1v1h-1zm34 0h1v1h-1zM18 40h1v1h-1zm0 1h1v1h-1zm-5 2h1v1h-1zm4 0h1v2h-1zm32 0h1v1h-1zm4 0h1v1h-1zm-4 1h1v1h-1zm-36 1h1v1h-1zm5 0h1v1h-1zm30 0h1v1h-1zm4 0h1v1h-1zm-34 4h1v1h-1zm0 1h1v1h-1zm0 1h1v1h-1zm35 2h1v1h-1zm-4 1h1v1h-1zm3 2h1v1h-1zm-36 4h1v1h-1zm33 0h1v1h-1zm-31 4h1v1h-1zm0 1h1v1h-1zm-5 2h1v1h-1zm4 0h1v1h-1zm32 0h1v1h-1zm-32 1h1v1h-1zm32 0h1v1h-1zm-37 1h1v1h-1zm36 0h1v1h-1zm-33 3h1v1h-1zm36 0h1v1h-1zm-33 1h1v1h-1zm0 1h1v1h-1zm0 1h1v1h-1zm-1 2h1v1h-1zm32 1h1v1h-1zm5 0h1v1h-1z"/><path fill="#c56" d="M35 21h1v1h-1z"/><path fill="#a66" d="M31 81h1v1h-1z"/><path fill="#bbb" d="M0 1h1v1H0zm1 0h1v1H1zm63 0h1v1h-1zm1 0h1v1h-1zM1 85h1v1H1zm63 0h1v1h-1zM2 86h1v1H2zm1 0h1v1H3zm59 0h1v1h-1zm1 0h1v1h-1z"/><path fill="#e9a" d="M35 9h1v1h-1zm-1 1h1v1h-1zm1 6h1v1h-1zm0 12h1v1h-1zm0 26h1v1h-1zm0 12h1v1h-1zm0 12h1v1h-1z"/><path fill="#a02" d="M32 57h1v1h-1z"/></svg>